<svg xmlns="http://www.w3.org/2000/svg" viewBox="0 0 521.37 573.2"><defs><style>.cls-1{fill:#ed4a24;}.cls-2{fill:#dd998c;}</style></defs><title>Asset 2</title><g id="Layer_2" data-name="Layer 2"><g id="Layer_4" data-name="Layer 4"><rect class="cls-1" x="163" y="325.73" width="353.6" height="235.56" rx="70.02" ry="70.02" transform="translate(52.99 -35.97) rotate(6.57)"/><path class="cls-1" d="M207.41,69.23l-8.17,46.85-41-53-19,69-63-51v62l-70.07-35c-15.5,65.41-.47,122.94,30.07,143,38,25,158,104,158,104l21-11c-8-18-9-150,0-165C221.15,169.23,229.22,112.76,207.41,69.23Z"/><path class="cls-2" d="M76.24,81.08l63,51,19-69,41,53,8.17-46.85C196,46.5,176.48,27.29,144.24,20.08c-94-21-82-45-121,39a256.93,256.93,0,0,0-17.07,49l70.07,35Z"/></g></g></svg>
