<?xml version="1.0" encoding="utf-8"?>
<!-- Generator: Adobe Illustrator 22.0.0, SVG Export Plug-In . SVG Version: 6.00 Build 0)  -->
<svg version="1.1" id="Layer_1" xmlns="http://www.w3.org/2000/svg" xmlns:xlink="http://www.w3.org/1999/xlink" x="0px" y="0px"
	 width="1250px" height="2100px" viewBox="0 0 1250 2100" style="enable-background:new 0 0 1250 2100;" xml:space="preserve">
<style type="text/css">
	.st0{fill:#7459FF;}
	.st1{fill:#FFFFFF;}
	.st2{fill:#F9DCF3;}
	.st3{fill:none;stroke:#000000;stroke-width:2;stroke-linecap:round;stroke-miterlimit:10;}
	.st4{fill:#F99608;stroke:#F7931E;stroke-width:2.12;stroke-miterlimit:10;}
	.st5{fill:#F99608;stroke:#F7931E;stroke-width:1.55;stroke-miterlimit:10;}
	.st6{fill:#F99608;stroke:#F7931E;stroke-width:1.03;stroke-miterlimit:10;}
	.st7{fill:none;stroke:#000000;stroke-width:0.5;stroke-linecap:round;stroke-miterlimit:10;}
	.st8{fill:#F6FF79;}
	.st9{fill:#FFDA72;}
	.st10{fill:#FFB7A5;}
	.st11{fill:#FFBA52;}
	.st12{fill:#070500;stroke:#000000;stroke-width:2.78;stroke-miterlimit:10;}
	.st13{fill:#FF715F;}
	.st14{fill:#FF8B00;}
	.st15{fill:#EB4800;}
	.st16{fill:#009EB2;}
	.st17{fill:none;stroke:#000000;stroke-width:1.68;stroke-linecap:round;stroke-miterlimit:10;}
	.st18{fill:#F99608;stroke:#F7931E;stroke-width:1.78;stroke-miterlimit:10;}
	.st19{fill:#F99608;stroke:#F7931E;stroke-width:1.3;stroke-miterlimit:10;}
	.st20{fill:#F99608;stroke:#F7931E;stroke-width:0.86;stroke-miterlimit:10;}
	.st21{fill:#009900;}
	.st22{fill:url(#SVGID_1_);}
	.st23{fill:url(#SVGID_2_);}
	.st24{fill:url(#SVGID_3_);}
	.st25{fill:url(#SVGID_4_);}
	.st26{fill:url(#SVGID_5_);}
	.st27{fill:url(#SVGID_6_);}
	.st28{fill:url(#SVGID_7_);}
	.st29{fill:url(#SVGID_8_);}
	.st30{opacity:0.51;}
	.st31{fill:url(#SVGID_9_);}
	.st32{fill:url(#SVGID_10_);}
	.st33{fill:url(#SVGID_11_);}
	.st34{fill:url(#SVGID_12_);}
	.st35{fill:url(#SVGID_13_);}
	.st36{fill:url(#SVGID_14_);}
	.st37{fill:url(#SVGID_15_);}
	.st38{fill:url(#SVGID_16_);}
	.st39{opacity:0.7;}
	.st40{fill:url(#SVGID_17_);}
	.st41{fill:url(#SVGID_18_);}
	.st42{fill:url(#SVGID_19_);}
	.st43{fill:url(#SVGID_20_);}
	.st44{fill:url(#SVGID_21_);}
	.st45{fill:url(#SVGID_22_);}
	.st46{fill:url(#SVGID_23_);}
	.st47{fill:url(#SVGID_24_);}
	.st48{opacity:0.49;}
	.st49{fill:none;stroke:#717171;stroke-width:0.59;stroke-miterlimit:1;}
	.st50{opacity:0.58;}
	.st51{fill:#D38700;stroke:#F7931E;stroke-width:1.78;stroke-miterlimit:10;}
	.st52{fill:#D38700;stroke:#F7931E;stroke-width:1.3;stroke-miterlimit:10;}
	.st53{fill:#D38700;stroke:#F7931E;stroke-width:0.86;stroke-miterlimit:10;}
	.st54{fill:#A8AC00;}
	.st55{fill:#926600;}
	.st56{fill:#7F1A00;}
	.st57{stroke:#000000;stroke-width:1.68;stroke-linecap:round;stroke-miterlimit:10;}
	.st58{fill:#332D2A;}
	.st59{fill:#FFC94A;}
	.st60{font-family:'MyriadPro-Bold';}
	.st61{font-size:36px;}
</style>
<title>spritesheet_baggrund</title>
<g>
	<g id="lukkede_øjne">
		<rect y="1500" class="st0" width="250" height="300"/>
		<g id="Krop">
			<path class="st1" d="M133,1558c0,0-29.1-2.6-50.9,37.3c-17.9,32.7-26.3,95-8.2,115.7c11.8,13.5,28.7,17.7,28.7,17.7l-0.8,45.7
				h29.1c0,0,2.1-24.3-21.9-19.4v-25c13.5,3,27.6,2.8,41-0.7v47.1h35.5c0,0-6-24-27.3-16.4l-0.2-32.4c0,0,36.8-5.6,33-78.6
				C186.8,1567.7,179.2,1557.8,133,1558z"/>
		</g>
		<g id="Ansigt">
			<ellipse class="st2" cx="109.2" cy="1617" rx="10.2" ry="10"/>
			<ellipse class="st2" cx="160.6" cy="1603.5" rx="10.2" ry="10"/>
			<path class="st3" d="M134.1,1599.2c0,0,3-3.7,5.3-1.4"/>
		</g>
		<g id="Kasket">
			<path class="st4" d="M154.9,1560.9l-124.7,34.6c0,0,13.2-11.1,57.7-22.7C127.4,1562.6,132.3,1553.7,154.9,1560.9z"/>
			<path class="st4" d="M88.9,1574c0,0-6.3-28.5,29.3-36.6c25.4-5.8,31.7,8.1,38.2,22.2L88.9,1574z"/>
			<path class="st5" d="M112.8,1538.7c0,0,27.5,1,31.7,23.5l12-1.3C156.4,1560.8,145.6,1524,112.8,1538.7z"/>
			<path class="st5" d="M115.4,1538.1c0,0,14.9,5.1,19.4,26.9l-23.7,5C111.1,1570,102.3,1551.3,115.4,1538.1z"/>
			<path class="st5" d="M115.4,1538.1c0,0-30.5,2.8-27.5,34.8l8.3-0.5C96.3,1572.4,91.4,1553,115.4,1538.1z"/>
			<ellipse class="st6" cx="114.7" cy="1535.8" rx="7" ry="7"/>
			<path class="st1" d="M122.2,1538.3c0,0,20.8,9.2,23.1,21.9l-11.2,2C134.1,1562.2,131.4,1545.6,122.2,1538.3z"/>
			<path class="st1" d="M112.1,1542.2c0,0-8.1,18.3-2.9,26.3l-13.1,2.7C96,1571.1,94.7,1550.3,112.1,1542.2z"/>
		</g>
		<line class="st3" x1="144.4" y1="1582.6" x2="155.8" y2="1580.7"/>
		<path class="st7" d="M146.8,1578.3l-3.5,4.2c0.8,2.2,7.5,3.6,9.7,3.1"/>
		<line class="st3" x1="122.3" y1="1588.4" x2="111.6" y2="1592.8"/>
		<path class="st7" d="M118.1,1586l5.2,1.7c0.5,2.3-4.5,7-6.6,7.7"/>
	</g>
	<g id="blinker">
		<g id="frame3">
			<rect x="500" y="1800" class="st8" width="250" height="300"/>
			<g id="Krop-2">
				<path class="st1" d="M634,1881c0,0-29.1-2.6-50.9,37.3c-17.9,32.7-26.3,95-8.2,115.7c11.8,13.5,28.7,17.7,28.7,17.7l-0.8,45.7
					h29.1c0,0,2.1-24.3-21.9-19.4v-25c13.5,3,27.6,2.8,41-0.7v47.1h35.5c0,0-6-24-27.3-16.4l-0.2-32.4c0,0,36.8-5.6,33-78.6
					C687.8,1890.7,680.2,1880.8,634,1881z"/>
			</g>
			<g id="Ansigt-2">
				<ellipse class="st2" cx="610.2" cy="1940" rx="10.2" ry="10"/>
				<ellipse class="st2" cx="661.6" cy="1926.5" rx="10.2" ry="10"/>
				<path class="st3" d="M635.1,1922.2c0,0,3-3.7,5.3-1.4"/>
			</g>
			<g id="Kasket-2">
				<path class="st4" d="M655.9,1883.9l-124.7,34.6c0,0,13.2-11.1,57.7-22.7C628.5,1885.6,633.3,1876.7,655.9,1883.9z"/>
				<path class="st4" d="M589.9,1897c0,0-6.3-28.5,29.3-36.6c25.4-5.8,31.7,8.1,38.2,22.2L589.9,1897z"/>
				<path class="st5" d="M613.8,1861.7c0,0,27.5,1,31.7,23.5l12-1.3C657.4,1883.8,646.6,1847,613.8,1861.7z"/>
				<path class="st5" d="M616.4,1861.1c0,0,14.9,5.1,19.4,26.9l-23.7,5C612.1,1893,603.3,1874.3,616.4,1861.1z"/>
				<path class="st5" d="M616.4,1861.1c0,0-30.5,2.8-27.5,34.8l8.3-0.5C597.3,1895.4,592.4,1876,616.4,1861.1z"/>
				<ellipse class="st6" cx="615.8" cy="1858.9" rx="7" ry="7"/>
				<path class="st1" d="M623.2,1861.3c0,0,20.8,9.2,23.1,21.9l-11.2,2C635.1,1885.2,632.4,1868.6,623.2,1861.3z"/>
				<path class="st1" d="M613.1,1865.2c0,0-8.1,18.3-2.9,26.3l-13.2,2.7C597,1894.1,595.7,1873.3,613.1,1865.2z"/>
			</g>
			<circle cx="618.1" cy="1912.7" r="6.8"/>
			<circle cx="651.3" cy="1905" r="6.8"/>
		</g>
		<g id="frame2">
			<rect x="250" y="1800" class="st9" width="250" height="300"/>
			<g id="Krop-3">
				<path class="st1" d="M384,1881c0,0-29.1-2.6-50.9,37.3c-17.9,32.7-26.3,95-8.2,115.7c11.8,13.5,28.7,17.7,28.7,17.7l-0.8,45.7
					h29.1c0,0,2.1-24.3-21.9-19.4v-25c13.5,3,27.6,2.8,41-0.7v47.1h35.5c0,0-6-24-27.3-16.4l-0.2-32.4c0,0,36.8-5.6,33-78.6
					C437.8,1890.7,430.2,1880.8,384,1881z"/>
			</g>
			<g id="Ansigt-3">
				<ellipse class="st2" cx="360.2" cy="1940" rx="10.2" ry="10"/>
				<ellipse class="st2" cx="411.6" cy="1926.5" rx="10.2" ry="10"/>
				<path class="st3" d="M385.1,1922.2c0,0,3-3.7,5.3-1.4"/>
			</g>
			<g id="Kasket-3">
				<path class="st4" d="M405.9,1883.9l-124.7,34.6c0,0,13.2-11.1,57.7-22.7C378.5,1885.6,383.3,1876.7,405.9,1883.9z"/>
				<path class="st4" d="M339.9,1897c0,0-6.3-28.5,29.3-36.6c25.4-5.8,31.7,8.1,38.2,22.2L339.9,1897z"/>
				<path class="st5" d="M363.8,1861.7c0,0,27.5,1,31.7,23.5l12-1.3C407.4,1883.8,396.6,1847,363.8,1861.7z"/>
				<path class="st5" d="M366.4,1861.1c0,0,14.9,5.1,19.4,26.9l-23.7,5C362,1893,353.4,1874.3,366.4,1861.1z"/>
				<path class="st5" d="M366.4,1861.1c0,0-30.5,2.8-27.5,34.8l8.4-0.5C347.3,1895.4,342.4,1876,366.4,1861.1z"/>
				<ellipse class="st6" cx="365.8" cy="1858.9" rx="7" ry="7"/>
				<path class="st1" d="M373.2,1861.3c0,0,20.8,9.2,23.1,21.9l-11.2,2C385.1,1885.2,382.4,1868.6,373.2,1861.3z"/>
				<path class="st1" d="M363.1,1865.2c0,0-8.1,18.3-2.9,26.3l-13.1,2.7C347,1894.1,345.6,1873.3,363.1,1865.2z"/>
			</g>
			<line class="st3" x1="395.4" y1="1905.6" x2="406.8" y2="1903.7"/>
			<path class="st7" d="M397.8,1901.3l-3.5,4.2c0.8,2.2,7.5,3.6,9.7,3.1"/>
			<line class="st3" x1="373.3" y1="1911.4" x2="362.6" y2="1915.8"/>
			<path class="st7" d="M369.1,1909l5.2,1.7c0.5,2.3-4.5,7-6.6,7.7"/>
		</g>
		<g id="frame1">
			<rect y="1800" class="st10" width="250" height="300"/>
			<g id="Krop-4">
				<path class="st1" d="M134,1881c0,0-29.1-2.6-50.9,37.3c-17.9,32.7-26.3,95-8.2,115.7c11.8,13.5,28.7,17.7,28.7,17.7l-0.8,45.7
					h29.1c0,0,2.1-24.3-21.9-19.4v-25c13.5,3,27.6,2.8,41-0.7v47.1h35.5c0,0-6-24-27.3-16.4l-0.2-32.4c0,0,36.8-5.6,33-78.6
					C187.8,1890.7,180.2,1880.8,134,1881z"/>
			</g>
			<g id="Ansigt-4">
				<ellipse class="st2" cx="110.2" cy="1940" rx="10.2" ry="10"/>
				<ellipse class="st2" cx="161.6" cy="1926.5" rx="10.2" ry="10"/>
				<path class="st3" d="M135.1,1922.2c0,0,3-3.7,5.3-1.4"/>
			</g>
			<g id="Kasket-4">
				<path class="st4" d="M155.9,1883.9l-124.7,34.6c0,0,13.2-11.1,57.7-22.7C128.4,1885.6,133.3,1876.7,155.9,1883.9z"/>
				<path class="st4" d="M89.9,1897c0,0-6.3-28.5,29.3-36.6c25.4-5.8,31.7,8.1,38.2,22.2L89.9,1897z"/>
				<path class="st5" d="M113.8,1861.7c0,0,27.5,1,31.7,23.5l12-1.3C157.4,1883.8,146.6,1847,113.8,1861.7z"/>
				<path class="st5" d="M116.4,1861.1c0,0,14.9,5.1,19.4,26.9l-23.7,5C112.1,1893,103.3,1874.3,116.4,1861.1z"/>
				<path class="st5" d="M116.4,1861.1c0,0-30.5,2.8-27.5,34.8l8.3-0.5C97.3,1895.4,92.4,1876,116.4,1861.1z"/>
				<ellipse class="st6" cx="115.8" cy="1858.9" rx="7" ry="7"/>
				<path class="st1" d="M123.2,1861.3c0,0,20.8,9.2,23.1,21.9l-11.2,2C135.1,1885.2,132.4,1868.6,123.2,1861.3z"/>
				<path class="st1" d="M113.1,1865.2c0,0-8.1,18.3-2.9,26.3l-13.1,2.7C97,1894.1,95.7,1873.3,113.1,1865.2z"/>
			</g>
			<circle cx="118.1" cy="1912.7" r="6.8"/>
			<circle cx="151.3" cy="1905" r="6.8"/>
		</g>
	</g>
	<g id="synger_ked">
		<g id="frame2-2">
			<rect x="250" y="1200" class="st11" width="250" height="300"/>
			<g id="Krop-5">
				<path class="st1" d="M390.1,1249.6c0,0-29.1-2.6-50.9,37.3c-17.9,32.7-26.3,95-8.2,115.7c11.8,13.5,28.7,17.7,28.7,17.7
					l-0.8,45.7H388c0,0,2.1-24.3-21.9-19.4v-25c13.5,3,27.6,2.8,41-0.7v47.1h35.5c0,0-6-24-27.3-16.4l-0.2-32.4
					c0,0,36.8-5.6,33-78.6C443.9,1259.3,436.3,1249.4,390.1,1249.6z"/>
			</g>
			<g id="Ansigt-5">
				<circle class="st2" cx="366" cy="1311.6" r="10.2"/>
				<circle class="st2" cx="427.7" cy="1299" r="10.2"/>
				<circle cx="372.7" cy="1290.7" r="6.8"/>
				<circle cx="414.9" cy="1278" r="6.8"/>
				<path class="st12" d="M400.4,1292.8l-8.2,0.8c-5.3,0.5-7.4,19.3-3,22.4c2.4,1.6,5.3,2.3,8.1,2c5.3-0.2,7.9-2.6,9-5.2
					C408.1,1308.7,404.7,1292.4,400.4,1292.8z"/>
			</g>
			<g id="Kasket-5">
				<path class="st4" d="M412,1252.5l-124.7,34.6c0,0,13.2-11.1,57.7-22.7C384.5,1254.2,389.4,1245.3,412,1252.5z"/>
				<path class="st4" d="M346,1265.6c0,0-6.3-28.6,29.3-36.6c25.4-5.8,31.7,8.1,38.2,22.2L346,1265.6z"/>
				<path class="st5" d="M369.9,1230.3c0,0,27.5,1,31.7,23.5l12-1.3C413.5,1252.4,402.7,1215.6,369.9,1230.3z"/>
				<path class="st5" d="M372.5,1229.7c0,0,14.9,5.1,19.4,26.9l-23.7,5C368.1,1261.6,359.5,1242.9,372.5,1229.7z"/>
				<path class="st5" d="M372.5,1229.7c0,0-30.5,2.8-27.5,34.8l8.4-0.5C353.4,1264,348.5,1244.6,372.5,1229.7z"/>
				<ellipse class="st6" cx="371.8" cy="1227.4" rx="7" ry="7"/>
				<path class="st1" d="M379.3,1230c0,0,20.8,9.2,23.1,21.9l-11.2,2C391.2,1253.9,388.5,1237.2,379.3,1230z"/>
				<path class="st1" d="M369.2,1233.8c0,0-8.1,18.3-2.9,26.3l-13.1,2.7C353.1,1262.7,351.7,1241.9,369.2,1233.8z"/>
			</g>
		</g>
		<g id="frame1-2">
			<rect y="1200" class="st13" width="250" height="300"/>
			<g id="Krop-6">
				<path class="st1" d="M140.1,1249.6c0,0-29.1-2.6-50.9,37.3c-17.9,32.7-26.3,95-8.2,115.7c11.8,13.5,28.7,17.7,28.7,17.7
					l-0.8,45.7H138c0,0,2.1-24.3-21.9-19.4v-25c13.5,3,27.6,2.8,41-0.7v47.1h35.5c0,0-6-24-27.3-16.4l-0.2-32.4
					c0,0,36.8-5.6,33-78.6C193.9,1259.3,186.3,1249.4,140.1,1249.6z"/>
			</g>
			<g id="Ansigt-6">
				<circle class="st2" cx="116" cy="1311.6" r="10.2"/>
				<circle class="st2" cx="177.7" cy="1299" r="10.2"/>
				<circle cx="122.7" cy="1290.7" r="6.8"/>
				<circle cx="164.9" cy="1278" r="6.8"/>
				<path class="st12" d="M150.4,1294.8l-8.2,0.8c-5.3,0.5-7.4,7.3-3.1,10.4c2.4,1.6,5.3,2.3,8.1,2c5.3-0.2,7.9-2.6,9.1-5.2
					c1.2-3-0.3-6.4-3.2-7.5C152.3,1294.8,151.3,1294.7,150.4,1294.8z"/>
			</g>
			<g id="Kasket-6">
				<path class="st4" d="M162,1252.5l-124.7,34.6c0,0,13.2-11.1,57.7-22.7C134.6,1254.2,139.4,1245.3,162,1252.5z"/>
				<path class="st4" d="M96,1265.6c0,0-6.3-28.6,29.3-36.6c25.4-5.8,31.7,8.1,38.3,22.2L96,1265.6z"/>
				<path class="st5" d="M119.8,1230.3c0,0,27.5,1,31.7,23.5l12-1.3C163.5,1252.4,152.7,1215.6,119.8,1230.3z"/>
				<path class="st5" d="M122.5,1229.7c0,0,14.9,5.1,19.4,26.9l-23.7,5C118.1,1261.6,109.4,1242.9,122.5,1229.7z"/>
				<path class="st5" d="M122.5,1229.7c0,0-30.5,2.8-27.5,34.8l8.3-0.5C103.3,1264,98.5,1244.6,122.5,1229.7z"/>
				<ellipse class="st6" cx="121.8" cy="1227.4" rx="7" ry="7"/>
				<path class="st1" d="M129.3,1230c0,0,20.8,9.2,23.1,21.9l-11.2,2C141.2,1253.9,138.5,1237.2,129.3,1230z"/>
				<path class="st1" d="M119.2,1233.8c0,0-8.1,18.3-2.9,26.3l-13.1,2.7C103.1,1262.7,101.7,1241.9,119.2,1233.8z"/>
			</g>
		</g>
	</g>
	<g id="synger_glad">
		<g id="frame2-3">
			<rect x="250" y="900" class="st14" width="250" height="300"/>
			<g id="Krop-7">
				<path class="st1" d="M376.1,959.6c0,0-29.1-2.6-50.9,37.3c-17.9,32.7-26.3,95-8.2,115.7c11.8,13.5,28.7,17.7,28.7,17.7
					l-0.8,45.7H374c0,0,2.1-24.3-21.9-19.4v-25c13.5,3,27.6,2.8,41-0.7v47.1h35.5c0,0-6-24-27.3-16.4l-0.2-32.4
					c0,0,36.8-5.6,33-78.6C429.9,969.3,422.3,959.5,376.1,959.6z"/>
			</g>
			<g id="Ansigt-7">
				<circle class="st2" cx="361.7" cy="1016.9" r="10.2"/>
				<circle class="st2" cx="418.4" cy="1005.3" r="10.2"/>
				<path class="st12" d="M402.8,996.8l-22,7.5c0,0-1.1,29.8,16.7,26.8S402.8,996.8,402.8,996.8z"/>
			</g>
			<g id="Kasket-7">
				<path class="st4" d="M391.3,960.3L277,1020.9c0,0,10.5-13.7,51.4-34.5C364.8,967.8,367.7,958.1,391.3,960.3z"/>
				<path class="st4" d="M329.6,987.3c0,0-12.2-26.5,20.7-42.1c23.5-11.1,32.7,1.1,42.1,13.5L329.6,987.3z"/>
				<path class="st5" d="M345.3,947.6c0,0,27-5,36,16.1l11.4-3.8C392.8,959.9,374.2,926.2,345.3,947.6z"/>
				<path class="st5" d="M347.8,946.5c0,0,15.6,1.8,24.7,22.1l-22.1,10C350.4,978.6,337.9,962.2,347.8,946.5z"/>
				<path class="st5" d="M347.8,946.5c0,0-29.2,9.3-19.3,39.9l8-2.3C336.4,984.1,327.6,966.2,347.8,946.5z"/>
				<ellipse class="st6" cx="346.6" cy="944.4" rx="7" ry="7"/>
				<path class="st1" d="M354.5,945.3c0,0,22.3,4.5,27.3,16.4l-10.5,4.3C371.2,966,365.1,950.4,354.5,945.3z"/>
				<path class="st1" d="M345.4,951.2c0,0-4,19.6,2.8,26.3l-12.2,5.4C336,982.9,330.1,962.9,345.4,951.2z"/>
			</g>
			<circle cx="408.9" cy="981" r="6.8"/>
			<circle cx="366.7" cy="993.7" r="6.8"/>
		</g>
		<g id="frame1-3">
			<rect y="900" class="st15" width="250" height="300"/>
			<g id="Krop-8">
				<path class="st1" d="M126.1,959.6c0,0-29.1-2.6-50.9,37.3c-17.9,32.7-26.3,95-8.2,115.7c11.8,13.5,28.7,17.7,28.7,17.7
					l-0.8,45.7H124c0,0,2.1-24.3-21.9-19.4v-25c13.5,3,27.6,2.8,41-0.7v47.1h35.5c0,0-6-24-27.3-16.4l-0.2-32.4
					c0,0,36.8-5.6,33-78.6C179.9,969.3,172.3,959.5,126.1,959.6z"/>
			</g>
			<g id="Ansigt-8">
				<circle class="st2" cx="102" cy="1021.6" r="10.2"/>
				<circle class="st2" cx="163.7" cy="1009" r="10.2"/>
				<path class="st12" d="M143.6,1007.8l-21.9,2c0,0-0.6,12.4,12.5,11.8S143.6,1007.8,143.6,1007.8z"/>
				<circle cx="108.7" cy="1000.7" r="6.8"/>
				<circle cx="150.9" cy="988" r="6.8"/>
			</g>
			<g id="Kasket-8">
				<path class="st4" d="M148,962.5L23.3,997.2c0,0,13.2-11.1,57.7-22.7C120.6,964.2,125.4,955.3,148,962.5z"/>
				<path class="st4" d="M82,975.6c0,0-6.3-28.6,29.3-36.6c25.4-5.8,31.7,8.1,38.3,22.2L82,975.6z"/>
				<path class="st5" d="M105.8,940.3c0,0,27.5,1,31.7,23.5l12-1.3C149.5,962.4,138.7,925.6,105.8,940.3z"/>
				<path class="st5" d="M108.5,939.7c0,0,14.9,5.1,19.4,26.9l-23.7,5C104.2,971.6,95.4,952.9,108.5,939.7z"/>
				<path class="st5" d="M108.5,939.7c0,0-30.5,2.8-27.5,34.8l8.3-0.5C89.3,974,84.5,954.6,108.5,939.7z"/>
				<ellipse class="st6" cx="107.8" cy="937.5" rx="7" ry="7"/>
				<path class="st1" d="M115.3,940c0,0,20.8,9.2,23.1,21.9l-11.2,2C127.2,963.9,124.5,947.2,115.3,940z"/>
				<path class="st1" d="M105.2,943.8c0,0-8.1,18.3-2.9,26.3l-13.1,2.7C89.1,972.7,87.7,951.9,105.2,943.8z"/>
			</g>
		</g>
	</g>
	<g id="walkcycle_trist">
		<g id="frame5">
			<rect x="1000" y="600" class="st16" width="250" height="300"/>
			<path class="st1" d="M1066,826.3c0,0,24-10.4,24.7-24.1c0.8-17,17.4-25.6-3.2-4.9c-17.7,17.7-32.2,22.5-38.2,24.8
				c9.6,8.4,20.1,36.4,20.1,36.4S1091.5,833.8,1066,826.3z"/>
			<path class="st1" d="M1135.6,843.9c0,0-4.8-20.1-13.7-31.6c-14.6-18.9-21-14-10,3.2c10.6,16.6,16.2,52.2,16.2,52.2l35.6-27.8
				C1163.6,840,1145.1,820.5,1135.6,843.9z"/>
			<path class="st1" d="M1087.1,707.8c0,0,76-55.1,101.4-16.2s-2.5,56.2-11,65.7c-14,15.6-26.3,44.1-44.9,57.7
				c-10.3,7.6-29.8,16.4-57.8,0C1044.7,797.6,1018.7,758,1087.1,707.8z"/>
			<g id="Ansigt-9">

					<ellipse transform="matrix(0.8822 -0.4709 0.4709 0.8822 -201.4169 623.3623)" class="st2" cx="1145.1" cy="714.2" rx="8.4" ry="8.6"/>
				<path class="st2" d="M1175.7,745.8c-4.1,2.2-7.7,2.6-9.9-1.6s1.8-6,5.9-8.2s6.6-3.9,8.9,0.3S1179.8,743.6,1175.7,745.8z"/>
				<path d="M1175.3,712.5c-1,2.8-4,4.3-6.9,3.4c-8.4-2.2-4-7.1-1.2-8.5c5.5-2.8,2.3-1.1,5.5-2.8
					C1176.1,702.8,1176.5,709.6,1175.3,712.5z"/>
				<path d="M1186.2,732.9c-2.7,1.5-7.1,1-8.6-1.8s1.5-8,4.2-9.5s6.3-2.7,5.7,1.1C1186.7,727.5,1189,731.5,1186.2,732.9z"/>
				<path class="st17" d="M1166,725.9c0,0,3.9-0.8,4.2,1.9"/>
			</g>
			<g id="Kasket-9">
				<path class="st18" d="M1191.9,698l-107.1-17.6c0,0,14-3.8,51.9,3.1C1170.4,689.6,1177.2,684.5,1191.9,698z"/>
				<path class="st18" d="M1137,684.6c0,0,5.3-23.9,35.2-17.5c21.3,4.6,21.2,17.4,21.3,30.4L1137,684.6z"/>
				<path class="st19" d="M1167.7,666.2c0,0,20.6,10.4,15.8,29l9.6,3.2C1193.1,698.4,1197.8,666.6,1167.7,666.2z"/>
				<path class="st19" d="M1169.9,666.7c0,0,9.5,9.2,5.3,27.3l-19.8-4.5C1155.3,689.5,1155.3,672.1,1169.9,666.7z"/>
				<path class="st19" d="M1169.9,666.7c0,0-24.2-8.6-33.2,16.8l6.5,2.6C1143.2,686,1146.4,669.6,1169.9,666.7z"/>

					<ellipse transform="matrix(0.6081 -0.7939 0.7939 0.6081 -69.0932 1189.4418)" class="st20" cx="1170.1" cy="664.7" rx="5.8" ry="5.8"/>
				<path class="st1" d="M1174,670.6c0,0,13.9,13,12.2,23.8l-9.4-1.5C1176.8,692.8,1179.3,678.9,1174,670.6z"/>
				<path class="st1" d="M1165,669.1c0,0-11.5,12.2-9.7,20l-11.1-1.5C1144.2,687.6,1148.9,670.7,1165,669.1z"/>
			</g>
		</g>
		<g id="frame4">
			<rect x="750" y="600" class="st21" width="250" height="300"/>
			<path class="st1" d="M828.6,831.5c0,0,20.7-16,17.9-29.5c-3.5-16.6,10.6-29.1-4.4-4c-12.8,21.5-25.7,29.8-30.8,33.5
				c11.4,5.8,28.5,30.3,28.5,30.3S855.2,832.5,828.6,831.5z"/>
			<path class="st1" d="M884.3,849.5c0,0,1.6-22.8-16.8-30.4c-22-9.2-31.2-8.5-14.3,2.9c18.8,12.7,15.1,46.8,15.1,46.8l43.4-12.3
				C911.8,856.5,902,831.5,884.3,849.5z"/>
			<path class="st1" d="M837.1,706.8c0,0,76-55.1,101.4-16.2s-2.5,56.2-11,65.7c-14,15.6-26.3,44.1-44.9,57.7
				c-10.3,7.6-29.8,16.4-57.8,0C794.7,796.6,768.7,757,837.1,706.8z"/>
			<g id="Ansigt-10">

					<ellipse transform="matrix(0.8822 -0.4709 0.4709 0.8822 -230.4385 505.5521)" class="st2" cx="895.1" cy="713.3" rx="8.4" ry="8.6"/>
				<path class="st2" d="M925.7,744.8c-4.1,2.2-7.7,2.6-9.9-1.6s1.8-6,5.9-8.2s6.6-3.9,8.9,0.3S929.8,742.6,925.7,744.8z"/>
				<path d="M925.3,711.5c-1,2.8-4,4.3-6.9,3.4c-8.4-2.2-4-7.1-1.2-8.5c5.5-2.8,2.3-1.1,5.5-2.8
					C926.1,701.8,926.5,708.6,925.3,711.5z"/>
				<path d="M936.2,731.9c-2.7,1.5-7.1,1-8.6-1.8s1.5-8,4.2-9.5s6.3-2.7,5.7,1.1C936.7,726.5,939,730.5,936.2,731.9z"/>
				<path class="st17" d="M916,724.9c0,0,3.9-0.8,4.2,1.9"/>
			</g>
			<g id="Kasket-10">

					<linearGradient id="SVGID_1_" gradientUnits="userSpaceOnUse" x1="888.35" y1="3302.51" x2="888.35" y2="3342.0901" gradientTransform="matrix(1 0 0 -1 0 4000)">
					<stop  offset="0" style="stop-color:#656565"/>
					<stop  offset="0.62" style="stop-color:#1B1B1B"/>
					<stop  offset="0.63" style="stop-color:#545454"/>
					<stop  offset="0.98" style="stop-color:#3E3E3E"/>
				</linearGradient>
				<path class="st22" d="M941.9,697l-107.1-17.6c0,0,14-3.8,51.9,3.1C920.4,688.6,927.2,683.5,941.9,697z"/>

					<linearGradient id="SVGID_2_" gradientUnits="userSpaceOnUse" x1="915.25" y1="3302.51" x2="915.25" y2="3342.0901" gradientTransform="matrix(1 0 0 -1 0 4000)">
					<stop  offset="0" style="stop-color:#656565"/>
					<stop  offset="0.62" style="stop-color:#1B1B1B"/>
					<stop  offset="0.63" style="stop-color:#545454"/>
					<stop  offset="0.98" style="stop-color:#3E3E3E"/>
				</linearGradient>
				<path class="st23" d="M887,683.6c0,0,5.3-23.9,35.2-17.5c21.3,4.6,21.2,17.4,21.3,30.4L887,683.6z"/>

					<linearGradient id="SVGID_3_" gradientUnits="userSpaceOnUse" x1="930.5331" y1="3302.51" x2="930.5331" y2="3342.0901" gradientTransform="matrix(1 0 0 -1 0 4000)">
					<stop  offset="0" style="stop-color:#656565"/>
					<stop  offset="0.62" style="stop-color:#1B1B1B"/>
					<stop  offset="0.63" style="stop-color:#545454"/>
					<stop  offset="0.98" style="stop-color:#3E3E3E"/>
				</linearGradient>
				<path class="st24" d="M917.7,665.2c0,0,20.6,10.4,15.8,29l9.6,3.2C943.1,697.4,947.8,665.6,917.7,665.2z"/>

					<linearGradient id="SVGID_4_" gradientUnits="userSpaceOnUse" x1="915.8285" y1="3302.51" x2="915.8285" y2="3342.0901" gradientTransform="matrix(1 0 0 -1 0 4000)">
					<stop  offset="0" style="stop-color:#656565"/>
					<stop  offset="0.62" style="stop-color:#1B1B1B"/>
					<stop  offset="0.63" style="stop-color:#545454"/>
					<stop  offset="0.98" style="stop-color:#3E3E3E"/>
				</linearGradient>
				<path class="st25" d="M919.9,665.7c0,0,9.5,9.2,5.3,27.3l-19.8-4.5C905.3,688.5,905.3,671.1,919.9,665.7z"/>

					<linearGradient id="SVGID_5_" gradientUnits="userSpaceOnUse" x1="903.3" y1="3302.51" x2="903.3" y2="3342.0901" gradientTransform="matrix(1 0 0 -1 0 4000)">
					<stop  offset="0" style="stop-color:#656565"/>
					<stop  offset="0.62" style="stop-color:#1B1B1B"/>
					<stop  offset="0.63" style="stop-color:#545454"/>
					<stop  offset="0.98" style="stop-color:#3E3E3E"/>
				</linearGradient>
				<path class="st26" d="M919.9,665.7c0,0-24.2-8.7-33.2,16.8l6.5,2.6C893.2,685,896.4,668.6,919.9,665.7z"/>

					<linearGradient id="SVGID_6_" gradientUnits="userSpaceOnUse" x1="920.1141" y1="3302.51" x2="920.1141" y2="3342.0901" gradientTransform="matrix(1 0 0 -1 -1.409219e-02 3999.9993)">
					<stop  offset="0" style="stop-color:#656565"/>
					<stop  offset="0.62" style="stop-color:#1B1B1B"/>
					<stop  offset="0.63" style="stop-color:#545454"/>
					<stop  offset="0.98" style="stop-color:#3E3E3E"/>
				</linearGradient>
				<circle class="st27" cx="920.1" cy="663.8" r="5.8"/>

					<linearGradient id="SVGID_7_" gradientUnits="userSpaceOnUse" x1="930.1721" y1="3302.51" x2="930.1721" y2="3342.0901" gradientTransform="matrix(1 0 0 -1 0 4000)">
					<stop  offset="0" style="stop-color:#656565"/>
					<stop  offset="0.62" style="stop-color:#1B1B1B"/>
					<stop  offset="0.63" style="stop-color:#545454"/>
					<stop  offset="0.98" style="stop-color:#3E3E3E"/>
				</linearGradient>
				<path class="st28" d="M924,669.6c0,0,13.9,13,12.2,23.8l-9.4-1.5C926.8,691.8,929.3,677.9,924,669.6z"/>

					<linearGradient id="SVGID_8_" gradientUnits="userSpaceOnUse" x1="904.6" y1="3302.51" x2="904.6" y2="3342.0901" gradientTransform="matrix(1 0 0 -1 0 4000)">
					<stop  offset="0" style="stop-color:#656565"/>
					<stop  offset="0.62" style="stop-color:#1B1B1B"/>
					<stop  offset="0.63" style="stop-color:#545454"/>
					<stop  offset="0.98" style="stop-color:#3E3E3E"/>
				</linearGradient>
				<path class="st29" d="M915,668.1c0,0-11.5,12.2-9.7,20l-11.1-1.5C894.2,686.6,898.9,669.7,915,668.1z"/>
				<g class="st30">

						<linearGradient id="SVGID_9_" gradientUnits="userSpaceOnUse" x1="888.35" y1="3302.51" x2="888.35" y2="3342.0901" gradientTransform="matrix(1 0 0 -1 0 4000)">
						<stop  offset="0" style="stop-color:#0E0E0E"/>
						<stop  offset="0.5" style="stop-color:#000000"/>
						<stop  offset="0.52" style="stop-color:#010101"/>
						<stop  offset="0.73" style="stop-color:#0B0B0B"/>
						<stop  offset="1" style="stop-color:#0E0E0E"/>
					</linearGradient>
					<path class="st31" d="M941.9,697l-107.1-17.6c0,0,14-3.8,51.9,3.1C920.4,688.6,927.2,683.5,941.9,697z"/>

						<linearGradient id="SVGID_10_" gradientUnits="userSpaceOnUse" x1="915.25" y1="3302.51" x2="915.25" y2="3342.0901" gradientTransform="matrix(1 0 0 -1 0 4000)">
						<stop  offset="0" style="stop-color:#0E0E0E"/>
						<stop  offset="0.5" style="stop-color:#000000"/>
						<stop  offset="0.52" style="stop-color:#010101"/>
						<stop  offset="0.73" style="stop-color:#0B0B0B"/>
						<stop  offset="1" style="stop-color:#0E0E0E"/>
					</linearGradient>
					<path class="st32" d="M887,683.6c0,0,5.3-23.9,35.2-17.5c21.3,4.6,21.2,17.4,21.3,30.4L887,683.6z"/>

						<linearGradient id="SVGID_11_" gradientUnits="userSpaceOnUse" x1="930.5331" y1="3302.51" x2="930.5331" y2="3342.0901" gradientTransform="matrix(1 0 0 -1 0 4000)">
						<stop  offset="0" style="stop-color:#0E0E0E"/>
						<stop  offset="0.5" style="stop-color:#000000"/>
						<stop  offset="0.52" style="stop-color:#010101"/>
						<stop  offset="0.73" style="stop-color:#0B0B0B"/>
						<stop  offset="1" style="stop-color:#0E0E0E"/>
					</linearGradient>
					<path class="st33" d="M917.7,665.2c0,0,20.6,10.4,15.8,29l9.6,3.2C943.1,697.4,947.8,665.6,917.7,665.2z"/>

						<linearGradient id="SVGID_12_" gradientUnits="userSpaceOnUse" x1="915.8285" y1="3302.51" x2="915.8285" y2="3342.0901" gradientTransform="matrix(1 0 0 -1 0 4000)">
						<stop  offset="0" style="stop-color:#0E0E0E"/>
						<stop  offset="0.5" style="stop-color:#000000"/>
						<stop  offset="0.52" style="stop-color:#010101"/>
						<stop  offset="0.73" style="stop-color:#0B0B0B"/>
						<stop  offset="1" style="stop-color:#0E0E0E"/>
					</linearGradient>
					<path class="st34" d="M919.9,665.7c0,0,9.5,9.2,5.3,27.3l-19.8-4.5C905.3,688.5,905.3,671.1,919.9,665.7z"/>

						<linearGradient id="SVGID_13_" gradientUnits="userSpaceOnUse" x1="903.3" y1="3302.51" x2="903.3" y2="3342.0901" gradientTransform="matrix(1 0 0 -1 0 4000)">
						<stop  offset="0" style="stop-color:#0E0E0E"/>
						<stop  offset="0.5" style="stop-color:#000000"/>
						<stop  offset="0.52" style="stop-color:#010101"/>
						<stop  offset="0.73" style="stop-color:#0B0B0B"/>
						<stop  offset="1" style="stop-color:#0E0E0E"/>
					</linearGradient>
					<path class="st35" d="M919.9,665.7c0,0-24.2-8.7-33.2,16.8l6.5,2.6C893.2,685,896.4,668.6,919.9,665.7z"/>

						<linearGradient id="SVGID_14_" gradientUnits="userSpaceOnUse" x1="920.1141" y1="3302.51" x2="920.1141" y2="3342.0901" gradientTransform="matrix(1 0 0 -1 -1.409219e-02 3999.9993)">
						<stop  offset="0" style="stop-color:#0E0E0E"/>
						<stop  offset="0.5" style="stop-color:#000000"/>
						<stop  offset="0.52" style="stop-color:#010101"/>
						<stop  offset="0.73" style="stop-color:#0B0B0B"/>
						<stop  offset="1" style="stop-color:#0E0E0E"/>
					</linearGradient>
					<circle class="st36" cx="920.1" cy="663.8" r="5.8"/>

						<linearGradient id="SVGID_15_" gradientUnits="userSpaceOnUse" x1="930.1721" y1="3302.51" x2="930.1721" y2="3342.0901" gradientTransform="matrix(1 0 0 -1 0 4000)">
						<stop  offset="0" style="stop-color:#0E0E0E"/>
						<stop  offset="0.5" style="stop-color:#000000"/>
						<stop  offset="0.52" style="stop-color:#010101"/>
						<stop  offset="0.73" style="stop-color:#0B0B0B"/>
						<stop  offset="1" style="stop-color:#0E0E0E"/>
					</linearGradient>
					<path class="st37" d="M924,669.6c0,0,13.9,13,12.2,23.8l-9.4-1.5C926.8,691.8,929.3,677.9,924,669.6z"/>

						<linearGradient id="SVGID_16_" gradientUnits="userSpaceOnUse" x1="904.6" y1="3302.51" x2="904.6" y2="3342.0901" gradientTransform="matrix(1 0 0 -1 0 4000)">
						<stop  offset="0" style="stop-color:#0E0E0E"/>
						<stop  offset="0.5" style="stop-color:#000000"/>
						<stop  offset="0.52" style="stop-color:#010101"/>
						<stop  offset="0.73" style="stop-color:#0B0B0B"/>
						<stop  offset="1" style="stop-color:#0E0E0E"/>
					</linearGradient>
					<path class="st38" d="M915,668.1c0,0-11.5,12.2-9.7,20l-11.1-1.5C894.2,686.6,898.9,669.7,915,668.1z"/>
				</g>
				<g class="st39">

						<linearGradient id="SVGID_17_" gradientUnits="userSpaceOnUse" x1="888.35" y1="3342.0901" x2="888.35" y2="3302.51" gradientTransform="matrix(1 0 0 -1 0 4000)">
						<stop  offset="0" style="stop-color:#FFFFFF;stop-opacity:0.77"/>
						<stop  offset="0.2" style="stop-color:#FFFFFF;stop-opacity:0.65"/>
						<stop  offset="0.34" style="stop-color:#FFFFFF;stop-opacity:0.65"/>
						<stop  offset="0.35" style="stop-color:#FFFFFF;stop-opacity:0.65"/>
						<stop  offset="0.37" style="stop-color:#FFFFFF;stop-opacity:0.62"/>
						<stop  offset="0.4" style="stop-color:#FFFFFF;stop-opacity:0.53"/>
						<stop  offset="0.43" style="stop-color:#FFFFFF;stop-opacity:0.39"/>
						<stop  offset="0.47" style="stop-color:#FFFFFF;stop-opacity:0.2"/>
						<stop  offset="0.51" style="stop-color:#FFFFFF;stop-opacity:0"/>
						<stop  offset="0.59" style="stop-color:#7E7E7E;stop-opacity:9.000000e-02"/>
						<stop  offset="1" style="stop-color:#1B1B1B;stop-opacity:0.16"/>
					</linearGradient>
					<path class="st40" d="M941.9,697l-107.1-17.6c0,0,14-3.8,51.9,3.1C920.4,688.6,927.2,683.5,941.9,697z"/>

						<linearGradient id="SVGID_18_" gradientUnits="userSpaceOnUse" x1="915.25" y1="3342.0898" x2="915.25" y2="3302.51" gradientTransform="matrix(1 0 0 -1 0 4000)">
						<stop  offset="0" style="stop-color:#FFFFFF;stop-opacity:0.77"/>
						<stop  offset="0.2" style="stop-color:#FFFFFF;stop-opacity:0.65"/>
						<stop  offset="0.34" style="stop-color:#FFFFFF;stop-opacity:0.65"/>
						<stop  offset="0.35" style="stop-color:#FFFFFF;stop-opacity:0.65"/>
						<stop  offset="0.37" style="stop-color:#FFFFFF;stop-opacity:0.62"/>
						<stop  offset="0.4" style="stop-color:#FFFFFF;stop-opacity:0.53"/>
						<stop  offset="0.43" style="stop-color:#FFFFFF;stop-opacity:0.39"/>
						<stop  offset="0.47" style="stop-color:#FFFFFF;stop-opacity:0.2"/>
						<stop  offset="0.51" style="stop-color:#FFFFFF;stop-opacity:0"/>
						<stop  offset="0.59" style="stop-color:#7E7E7E;stop-opacity:9.000000e-02"/>
						<stop  offset="1" style="stop-color:#1B1B1B;stop-opacity:0.16"/>
					</linearGradient>
					<path class="st41" d="M887,683.6c0,0,5.3-23.9,35.2-17.5c21.3,4.6,21.2,17.4,21.3,30.4L887,683.6z"/>

						<linearGradient id="SVGID_19_" gradientUnits="userSpaceOnUse" x1="930.5331" y1="3342.0901" x2="930.5331" y2="3302.51" gradientTransform="matrix(1 0 0 -1 0 4000)">
						<stop  offset="0" style="stop-color:#FFFFFF;stop-opacity:0.77"/>
						<stop  offset="0.2" style="stop-color:#FFFFFF;stop-opacity:0.65"/>
						<stop  offset="0.34" style="stop-color:#FFFFFF;stop-opacity:0.65"/>
						<stop  offset="0.35" style="stop-color:#FFFFFF;stop-opacity:0.65"/>
						<stop  offset="0.37" style="stop-color:#FFFFFF;stop-opacity:0.62"/>
						<stop  offset="0.4" style="stop-color:#FFFFFF;stop-opacity:0.53"/>
						<stop  offset="0.43" style="stop-color:#FFFFFF;stop-opacity:0.39"/>
						<stop  offset="0.47" style="stop-color:#FFFFFF;stop-opacity:0.2"/>
						<stop  offset="0.51" style="stop-color:#FFFFFF;stop-opacity:0"/>
						<stop  offset="0.59" style="stop-color:#7E7E7E;stop-opacity:9.000000e-02"/>
						<stop  offset="1" style="stop-color:#1B1B1B;stop-opacity:0.16"/>
					</linearGradient>
					<path class="st42" d="M917.7,665.2c0,0,20.6,10.4,15.8,29l9.6,3.2C943.1,697.4,947.8,665.6,917.7,665.2z"/>

						<linearGradient id="SVGID_20_" gradientUnits="userSpaceOnUse" x1="915.8285" y1="3342.0901" x2="915.8285" y2="3302.51" gradientTransform="matrix(1 0 0 -1 0 4000)">
						<stop  offset="0" style="stop-color:#FFFFFF;stop-opacity:0.77"/>
						<stop  offset="0.2" style="stop-color:#FFFFFF;stop-opacity:0.65"/>
						<stop  offset="0.34" style="stop-color:#FFFFFF;stop-opacity:0.65"/>
						<stop  offset="0.35" style="stop-color:#FFFFFF;stop-opacity:0.65"/>
						<stop  offset="0.37" style="stop-color:#FFFFFF;stop-opacity:0.62"/>
						<stop  offset="0.4" style="stop-color:#FFFFFF;stop-opacity:0.53"/>
						<stop  offset="0.43" style="stop-color:#FFFFFF;stop-opacity:0.39"/>
						<stop  offset="0.47" style="stop-color:#FFFFFF;stop-opacity:0.2"/>
						<stop  offset="0.51" style="stop-color:#FFFFFF;stop-opacity:0"/>
						<stop  offset="0.59" style="stop-color:#7E7E7E;stop-opacity:9.000000e-02"/>
						<stop  offset="1" style="stop-color:#1B1B1B;stop-opacity:0.16"/>
					</linearGradient>
					<path class="st43" d="M919.9,665.7c0,0,9.5,9.2,5.3,27.3l-19.8-4.5C905.3,688.5,905.3,671.1,919.9,665.7z"/>

						<linearGradient id="SVGID_21_" gradientUnits="userSpaceOnUse" x1="903.3" y1="3342.0901" x2="903.3" y2="3302.51" gradientTransform="matrix(1 0 0 -1 0 4000)">
						<stop  offset="0" style="stop-color:#FFFFFF;stop-opacity:0.77"/>
						<stop  offset="0.2" style="stop-color:#FFFFFF;stop-opacity:0.65"/>
						<stop  offset="0.34" style="stop-color:#FFFFFF;stop-opacity:0.65"/>
						<stop  offset="0.35" style="stop-color:#FFFFFF;stop-opacity:0.65"/>
						<stop  offset="0.37" style="stop-color:#FFFFFF;stop-opacity:0.62"/>
						<stop  offset="0.4" style="stop-color:#FFFFFF;stop-opacity:0.53"/>
						<stop  offset="0.43" style="stop-color:#FFFFFF;stop-opacity:0.39"/>
						<stop  offset="0.47" style="stop-color:#FFFFFF;stop-opacity:0.2"/>
						<stop  offset="0.51" style="stop-color:#FFFFFF;stop-opacity:0"/>
						<stop  offset="0.59" style="stop-color:#7E7E7E;stop-opacity:9.000000e-02"/>
						<stop  offset="1" style="stop-color:#1B1B1B;stop-opacity:0.16"/>
					</linearGradient>
					<path class="st44" d="M919.9,665.7c0,0-24.2-8.7-33.2,16.8l6.5,2.6C893.2,685,896.4,668.6,919.9,665.7z"/>

						<linearGradient id="SVGID_22_" gradientUnits="userSpaceOnUse" x1="920.1141" y1="3342.0986" x2="920.1141" y2="3302.5186" gradientTransform="matrix(1 0 0 -1 -1.409219e-02 3999.9993)">
						<stop  offset="0" style="stop-color:#FFFFFF;stop-opacity:0.77"/>
						<stop  offset="0.2" style="stop-color:#FFFFFF;stop-opacity:0.65"/>
						<stop  offset="0.34" style="stop-color:#FFFFFF;stop-opacity:0.65"/>
						<stop  offset="0.35" style="stop-color:#FFFFFF;stop-opacity:0.65"/>
						<stop  offset="0.37" style="stop-color:#FFFFFF;stop-opacity:0.62"/>
						<stop  offset="0.4" style="stop-color:#FFFFFF;stop-opacity:0.53"/>
						<stop  offset="0.43" style="stop-color:#FFFFFF;stop-opacity:0.39"/>
						<stop  offset="0.47" style="stop-color:#FFFFFF;stop-opacity:0.2"/>
						<stop  offset="0.51" style="stop-color:#FFFFFF;stop-opacity:0"/>
						<stop  offset="0.59" style="stop-color:#7E7E7E;stop-opacity:9.000000e-02"/>
						<stop  offset="1" style="stop-color:#1B1B1B;stop-opacity:0.16"/>
					</linearGradient>
					<circle class="st45" cx="920.1" cy="663.8" r="5.8"/>

						<linearGradient id="SVGID_23_" gradientUnits="userSpaceOnUse" x1="930.1721" y1="3342.0901" x2="930.1721" y2="3302.51" gradientTransform="matrix(1 0 0 -1 0 4000)">
						<stop  offset="0" style="stop-color:#FFFFFF;stop-opacity:0.77"/>
						<stop  offset="0.2" style="stop-color:#FFFFFF;stop-opacity:0.65"/>
						<stop  offset="0.34" style="stop-color:#FFFFFF;stop-opacity:0.65"/>
						<stop  offset="0.35" style="stop-color:#FFFFFF;stop-opacity:0.65"/>
						<stop  offset="0.37" style="stop-color:#FFFFFF;stop-opacity:0.62"/>
						<stop  offset="0.4" style="stop-color:#FFFFFF;stop-opacity:0.53"/>
						<stop  offset="0.43" style="stop-color:#FFFFFF;stop-opacity:0.39"/>
						<stop  offset="0.47" style="stop-color:#FFFFFF;stop-opacity:0.2"/>
						<stop  offset="0.51" style="stop-color:#FFFFFF;stop-opacity:0"/>
						<stop  offset="0.59" style="stop-color:#7E7E7E;stop-opacity:9.000000e-02"/>
						<stop  offset="1" style="stop-color:#1B1B1B;stop-opacity:0.16"/>
					</linearGradient>
					<path class="st46" d="M924,669.6c0,0,13.9,13,12.2,23.8l-9.4-1.5C926.8,691.8,929.3,677.9,924,669.6z"/>

						<linearGradient id="SVGID_24_" gradientUnits="userSpaceOnUse" x1="904.6" y1="3342.0901" x2="904.6" y2="3302.51" gradientTransform="matrix(1 0 0 -1 0 4000)">
						<stop  offset="0" style="stop-color:#FFFFFF;stop-opacity:0.77"/>
						<stop  offset="0.2" style="stop-color:#FFFFFF;stop-opacity:0.65"/>
						<stop  offset="0.34" style="stop-color:#FFFFFF;stop-opacity:0.65"/>
						<stop  offset="0.35" style="stop-color:#FFFFFF;stop-opacity:0.65"/>
						<stop  offset="0.37" style="stop-color:#FFFFFF;stop-opacity:0.62"/>
						<stop  offset="0.4" style="stop-color:#FFFFFF;stop-opacity:0.53"/>
						<stop  offset="0.43" style="stop-color:#FFFFFF;stop-opacity:0.39"/>
						<stop  offset="0.47" style="stop-color:#FFFFFF;stop-opacity:0.2"/>
						<stop  offset="0.51" style="stop-color:#FFFFFF;stop-opacity:0"/>
						<stop  offset="0.59" style="stop-color:#7E7E7E;stop-opacity:9.000000e-02"/>
						<stop  offset="1" style="stop-color:#1B1B1B;stop-opacity:0.16"/>
					</linearGradient>
					<path class="st47" d="M915,668.1c0,0-11.5,12.2-9.7,20l-11.1-1.5C894.2,686.6,898.9,669.7,915,668.1z"/>
				</g>
				<g class="st48">
					<path class="st1" d="M836.8,679.7c23.1-3.2,46.3,3.7,69.1,6.3c9.5,1,19.8,1,28.3,6c1.9,1.1,3.8,2.4,5.4,3.9
						c1.3,1.2,1.4,0.1,0.7,0.2c-1,0-2-0.2-2.9-0.5l-75.1-12.3l-25.5-4.2C836.8,679,836.8,679.7,836.8,679.7l90.9,15l13,2.2
						c0,0,0.1-0.7,0-0.7c-5.8-5.1-13-8.4-20.6-9.3c-8.7-1.2-17.5-1.8-26.3-3.1c-18.7-2.9-38-7.3-57-4.7
						C836.8,679,836.9,679.7,836.8,679.7z"/>
					<path class="st1" d="M887.5,683.7c2.3-8,8.5-14.3,16.5-16.7c11.7-3.6,30.9-0.3,36.7,11.9c1,2.2,4.3,16.4,2.2,16.8
						c-1.7,0.3-5-1.2-6.7-1.5l-28.1-6.4l-20.6-4.8C887.5,683,887.4,683.7,887.5,683.7l55.7,12.7v-0.5c0-5.5,0.1-11.3-1.9-16.5
						c-3.3-8.6-12.2-12.2-20.7-13.7c-14-2.5-28.8,2.6-33,17.2C887.4,683.2,887.5,683.5,887.5,683.7z"/>
					<path class="st1" d="M933.9,694.4c1.1-4.6,0.8-9.4-0.9-13.8c-1.6-3.8-4-7.3-7.1-10.1c-1.3-1.3-2.7-2.4-4.2-3.5
						c-1.7-1.2-3.1-1.5-0.2-0.8c5.3,1.3,9.9,2.2,14,6.1c3.8,3.6,5.8,8.5,6.8,13.6c0.5,2.8,1.3,6.5,0.6,9.2c-0.5,2,0.3,1.1-1.4,1.1
						c-2.3,0-5.4-1.8-7.6-2.6C934,693.7,933.8,694.4,933.9,694.4c1.8,0.6,7.9,3.5,8.9,2.6c0.6-0.5,0.2-4.2,0.2-5.3
						c-0.1-5.7-1.3-11.5-4.3-16.3c-4.4-6.9-11.7-9.6-19.6-10.2c0,0-0.1,0.7,0,0.7c9.7,5.9,17.3,15.8,14.8,27.7
						C933.9,693.9,934,694.2,933.9,694.4z"/>
					<path class="st1" d="M905.7,688.5c0.2-5.8,2.2-11.4,5.7-16c1.5-1.8,6.3-6.8,8.7-5.8c1.5,0.7,3,4.6,3.6,5.9
						c2.3,5.4,3.1,12.2,1.6,17.8c-0.6,2.1,0,1.3-1.3,1.6c-0.8,0.2-2.4-0.6-3.2-0.7l-15-3.5C905.7,687.8,905.7,688.5,905.7,688.5
						l7.7,1.7c3,0.7,7,2.5,10.1,2.3c1.8-0.1,1.2,0.9,1.8-1.5c0.5-2.2,0.7-4.4,0.6-6.6c0-1.6-0.1-3.3-0.2-4.9
						c-0.4-4.1-1.8-8-3.9-11.4c-0.3-0.5-1.2-2.2-1.8-2.5c-1.5-0.5-5.5,3-6.5,3.9c-4.9,4.6-7.4,11.5-7.7,18.1
						C905.7,688,905.7,688.3,905.7,688.5z"/>
					<path class="st1" d="M887.2,682.6c2.7-6.9,7-13.1,14.2-16c2.6-1,5.3-1.6,8-1.7c1.9-0.1,3.8,0,5.7,0.3c0.7,0.1,2.1,0.1,1.8,0.3
						c-1.2,0.3-2.3,0.5-3.5,0.7c-6.3,1.8-12.3,5.1-16.3,10.3c-1.3,1.7-2.4,3.5-3.2,5.5c-0.2,0.5-0.5,2-0.9,2.1
						c-1.1,0.3-4.4-1.8-5.7-2.2C887.2,681.9,887,682.6,887.2,682.6c1.2,0.4,4.5,2.5,5.6,2.2c0.4-0.1,1.1-2.6,1.4-3.2
						c0.9-2,2.1-3.8,3.6-5.5c5.2-6.1,12.8-9,20.5-10.4c0-0.2,0-0.5,0-0.7c-14.2-3.3-25.8,3.2-31,16.7
						C887.1,682.1,887.2,682.4,887.2,682.6z"/>
					<path class="st1" d="M920.1,668.9c-3-0.2-6.2-2.8-5.3-6.2c0.7-2.6,3.3-4.3,6-4c2.8,0.3,5.2,3.1,4.6,6
						C924.8,667.2,922.6,668.9,920.1,668.9v0.8c6.7-0.4,7.7-10.8,0.7-11.7c-7.6-1-8.5,11.2-0.7,11.7
						C920.1,669.6,920.1,668.9,920.1,668.9z"/>
					<path class="st1" d="M927.2,691.9c0.4-2.6,0.6-5.2,0.6-7.8c0-1.5-0.1-3-0.2-4.5c-0.2-1.8-0.5-3.5-1-5.2c-0.5-1.9-1-2.4,0.6-0.5
						c3.8,4.5,8,10.1,8.7,16.1c0.4,3.7-1,2.5-3.9,2l-4.8-0.8C927.2,691.2,927.2,691.9,927.2,691.9c2.1,0.4,5.4,1.6,7.6,1.3
						c1.3-0.2,1.1-0.1,1.2-1.5c0.3-7.7-5.6-15-10.5-20.4c0.1,0.1-0.1,0.6,0,0.7c2.5,6.1,2.7,12.8,1.7,19.2
						C927.2,691.4,927.3,691.6,927.2,691.9z"/>
					<path class="st1" d="M894.7,686.6c1.5-4.5,4-8.5,7.4-11.8c2.6-2.5,5.8-4.3,9.3-5.3c0.2,0,2.5-0.6,2.3-0.9
						c-0.4,0.5-0.8,1-1.2,1.4c-1.1,1.3-2.1,2.7-3.1,4.1c-2,2.9-3.9,6.2-4.5,9.7c0,0.8-0.1,1.6-0.2,2.4c-0.5,1.1,0.4,0.5-0.3,0.9
						c-0.5,0.3-2.5-0.3-3.1-0.4l-6.6-0.9C894.7,685.9,894.7,686.6,894.7,686.6l10.2,1.4v-0.7c-0.8-6.7,5.1-13.7,9.2-18.4
						c0.1-0.1,0-0.7,0-0.7c-9.5,1.5-16.4,8.8-19.4,17.7C894.6,686.1,894.8,686.4,894.7,686.6z"/>
				</g>
				<path class="st49" d="M941.9,697l-107.1-17.6c0,0,14-3.8,51.9,3.1C920.4,688.6,927.2,683.5,941.9,697z"/>
				<path class="st49" d="M887,683.6c0,0,5.3-23.9,35.2-17.5c21.3,4.6,21.2,17.4,21.3,30.4L887,683.6z"/>
				<path class="st49" d="M917.7,665.2c0,0,20.6,10.4,15.8,29l9.6,3.2C943.1,697.4,947.8,665.6,917.7,665.2z"/>
				<path class="st49" d="M919.9,665.7c0,0,9.5,9.2,5.3,27.3l-19.8-4.5C905.3,688.5,905.3,671.1,919.9,665.7z"/>
				<path class="st49" d="M919.9,665.7c0,0-24.2-8.7-33.2,16.8l6.5,2.6C893.2,685,896.4,668.6,919.9,665.7z"/>
				<ellipse class="st49" cx="920.2" cy="663.8" rx="5.8" ry="5.8"/>
				<path class="st49" d="M924,669.6c0,0,13.9,13,12.2,23.8l-9.4-1.5C926.8,691.8,929.3,677.9,924,669.6z"/>
				<path class="st49" d="M915,668.1c0,0-11.5,12.2-9.7,20l-11.1-1.5C894.2,686.6,898.9,669.7,915,668.1z"/>
				<g class="st50">
					<path d="M941.9,696.9L864,684.1l-20.3-3.3c-0.7-0.1-8.7-0.8-8.9-1.5c0,0.1,8.2-0.8,8.9-0.8c11-0.4,22,0.8,32.8,2.4
						c14.1,2.1,28.1,4.1,42.3,5.8c9.1,1.1,16.2,4.2,23.1,10.4C941.9,697.1,941.9,697,941.9,696.9c-5.8-5.4-13.1-9-20.9-10.1
						c-12.4-1.9-24.8-2.8-37.2-5s-25.1-3.8-37.7-3.6c-3.7,0-7.7,0.1-11.3,1v0.1l93.7,15.4L941.9,696.9
						C941.9,697,941.9,696.9,941.9,696.9z"/>
					<path d="M887,683.7c4.8-21,34.8-23.7,49.3-11.3c4.5,3.9,6.3,9.3,6.9,15.1c0.2,1.7,1,8.7-0.1,8.9c-0.7,0.2-2.4-0.5-3.1-0.7
						l-29.2-6.7l-23.9-5.4L887,683.7l56.4,12.9v-0.1c0-6.5,0.2-13.5-3.1-19.3c-5.3-9.5-18.6-12.5-28.6-12.2
						C900.5,665.3,889.5,672.2,887,683.7C887,683.6,887,683.7,887,683.7z"/>
					<path d="M917.7,665.3c10.6,5.5,18.6,16.6,15.8,28.9v0.1c2.6,0.9,5.4,2.3,8.1,2.7c2,0.3,1,0.8,1.6-0.6s0.2-4.4,0.1-6
						c-0.9-15-10.3-24.8-25.6-25.3L917.7,665.3c10.8,0.3,20,5,23.8,15.6c1.5,4.4,2.1,9.1,1.9,13.8c-0.1,2.8,0.3,3-2.5,2
						c-1.7-0.6-5.2-1-6.5-2.2s-0.2-3.4-0.2-5.3c0.1-2.3-0.3-4.7-1-6.9c-2.4-7.4-8.7-13.7-15.5-17.2
						C917.7,665.2,917.7,665.2,917.7,665.3z"/>
					<path d="M919.9,665.7c3.5,3.5,5.4,9,6,13.8c0.4,3.3,0.3,6.7-0.1,10c-0.1,0.6-0.4,3.2-0.7,3.4s-1.6-0.4-1.9-0.4
						c-3.1-0.3-6.3-1.5-9.4-2.2c-1.9-0.4-6.5-0.6-8-1.8c-1-0.9-0.2-3.7,0.1-5.2C907.6,675.4,912.2,668.8,919.9,665.7L919.9,665.7
						c-9.2,3.7-14.6,13-14.7,22.7v0.1l12.8,2.9c1.5,0.3,4.9,1.8,6.4,1.5c1.9-0.5,1.7-5.6,1.8-7.9c0.2-6.6-1.4-14.5-6.3-19.4V665.7z"
						/>
					<path d="M919.9,665.6c-4.3-1.4-8.8-1.8-13.2-1.1c-10.1,1.5-16.5,8.8-20,17.9v0.1c1.2,0.5,5.8,2.9,6.6,2.4s1.7-4.3,2.2-5.2
						c5.1-8.7,14.8-12.7,24.4-14V665.6c-9.6,1.3-19.1,5.2-24.3,13.8c-0.7,1.1-1.4,4.5-2.3,5.3c-0.5,0.4-5.7-1.2-6.2-2
						c-0.8-1.3,2.3-6,3.2-7.4c1.4-2.2,3.2-4.2,5.2-5.8c3.1-2.5,6.8-4.1,10.8-4.7c4.6-0.7,9.2-0.4,13.6,1.1
						C919.9,665.8,919.9,665.6,919.9,665.6z"/>
					<path d="M916.5,668.5c2.6,1.9,6.3,1.4,8.3-1.2c0.6-0.7,0.9-1.6,1.1-2.5c0.3-2.1-0.5-4.3-2.2-5.7c-2.6-1.9-6.3-1.4-8.3,1.2
						c-0.6,0.7-0.9,1.6-1.1,2.5C914,665,914.9,667.1,916.5,668.5L916.5,668.5c-2.5-2.1-3-5.8-1-8.3c0.1-0.2,0.2-0.3,0.4-0.4
						c2.1-2.1,5.4-2.3,7.7-0.5c2.5,2,3,5.6,1,8.2c-0.1,0.1-0.2,0.2-0.2,0.3C922.3,670,918.9,670.3,916.5,668.5
						C916.5,668.4,916.5,668.5,916.5,668.5z"/>
					<path d="M924,669.7c3.8,3.5,6.9,7.6,9.4,12.2c0.8,1.5,1.5,3.1,2,4.7c0.5,1.5,1.6,6.1,0.5,6.7s-6.1-0.9-7.3-1.2
						c-2.2-0.5-1.8-0.2-1.5-2.5c0.2-1.5,0.3-3.1,0.3-4.6C927.5,679.7,926.7,674.3,924,669.7C924,669.5,924,669.6,924,669.7
						c3.8,6.5,4,14.8,2.8,22.1v0.1c1.5,0.2,8.1,2.3,9.3,1.5c0.5-0.3,0.3-2,0.2-2.7c-0.4-8-6.7-15.8-12.3-21.1
						C924,669.5,924,669.6,924,669.7z"/>
					<path d="M915,668.1c-4.1,4.4-8.4,10-9.6,16c-0.2,0.9-0.1,1.7-0.2,2.6c-0.3,1.8,0.6,1-0.9,1.3c-1.3,0.2-3.2-0.5-4.5-0.6
						c-1-0.1-5.3-0.3-5.5-1c-0.3-1.1,1.9-4.5,2.4-5.3c3.9-7,10.2-11.8,18.3-12.8V668.1c-10,1.2-18,8.8-20.8,18.4v0.1l11.1,1.5V688
						c-1.3-7.1,5.1-15,9.7-19.8V668.1z"/>
				</g>
				<path class="st51" d="M941.9,697l-107.1-17.6c0,0,14-3.8,51.9,3.1C920.4,688.6,927.2,683.5,941.9,697z"/>
				<path class="st51" d="M887,683.6c0,0,5.3-23.9,35.2-17.5c21.3,4.6,21.2,17.4,21.3,30.4L887,683.6z"/>
				<path class="st52" d="M917.7,665.2c0,0,20.6,10.4,15.8,29l9.6,3.2C943.1,697.4,947.8,665.6,917.7,665.2z"/>
				<path class="st52" d="M919.9,665.7c0,0,9.5,9.2,5.3,27.3l-19.8-4.5C905.3,688.5,905.3,671.1,919.9,665.7z"/>
				<path class="st52" d="M919.9,665.7c0,0-24.2-8.7-33.2,16.8l6.5,2.6C893.2,685,896.4,668.6,919.9,665.7z"/>
				<ellipse class="st53" cx="920.2" cy="663.8" rx="5.8" ry="5.8"/>
				<path class="st1" d="M924,669.6c0,0,13.9,13,12.2,23.8l-9.4-1.5C926.8,691.8,929.3,677.9,924,669.6z"/>
				<path class="st1" d="M915,668.1c0,0-11.5,12.2-9.7,20l-11.1-1.5C894.2,686.6,898.9,669.7,915,668.1z"/>
			</g>
		</g>
		<g id="frame3-2">
			<rect x="500" y="600" class="st54" width="250" height="300"/>
			<path class="st1" d="M624.1,853.8c0,0,7.3-21.6-8.6-33.7c-19-14.4-28.1-16.1-14.6-0.8c15,17,2.8,49.1,2.8,49.1l45.1-1
				C648.9,867.5,645.7,840.8,624.1,853.8z"/>
			<path class="st1" d="M586.6,835.9c0,0,14.7,4.2,28.9-15.7c9.8-13.9,4.5-35.7-13.2-7.1c-13.1,21.3-23,12.5-29.3,12.3
				c5.5,11.6,4,41.4,4,41.4S607,853,586.6,835.9z"/>
			<path class="st1" d="M587.1,705.8c0,0,76-55.1,101.4-16.2s-2.5,56.2-11,65.7c-14,15.6-26.3,44.1-44.9,57.7
				c-10.3,7.6-29.8,16.4-57.8,0C544.7,795.6,518.7,756,587.1,705.8z"/>
			<g id="Ansigt-11">

					<ellipse transform="matrix(0.8822 -0.4709 0.4709 0.8822 -259.4233 387.7101)" class="st2" cx="645.1" cy="712.3" rx="8.4" ry="8.6"/>
				<path class="st2" d="M675.7,743.8c-4.1,2.2-7.7,2.6-9.9-1.6s1.8-6,5.9-8.2s6.6-3.9,8.9,0.3S679.8,741.6,675.7,743.8z"/>
				<path d="M675.3,710.5c-1,2.8-4,4.3-6.9,3.4c-8.4-2.2-4-7.1-1.2-8.5c5.5-2.8,2.3-1.1,5.5-2.8
					C676.1,700.8,676.5,707.6,675.3,710.5z"/>
				<path d="M686.2,730.9c-2.7,1.5-7.1,1-8.6-1.8s1.5-8,4.2-9.5s6.3-2.7,5.7,1.1C686.7,725.5,689,729.5,686.2,730.9z"/>
				<path class="st17" d="M666,723.9c0,0,3.9-0.8,4.2,1.9"/>
			</g>
			<g id="Kasket-11">
				<path class="st18" d="M691.9,696l-107.1-17.6c0,0,14-3.8,51.9,3.1C670.4,687.6,677.2,682.5,691.9,696z"/>
				<path class="st18" d="M637,682.6c0,0,5.3-23.9,35.2-17.5c21.3,4.6,21.2,17.4,21.3,30.4L637,682.6z"/>
				<path class="st19" d="M667.7,664.2c0,0,20.6,10.4,15.8,29l9.6,3.2C693.1,696.4,697.8,664.6,667.7,664.2z"/>
				<path class="st19" d="M669.9,664.7c0,0,9.5,9.2,5.3,27.3l-19.8-4.5C655.3,687.5,655.3,670.1,669.9,664.7z"/>
				<path class="st19" d="M669.9,664.7c0,0-24.2-8.7-33.2,16.8l6.5,2.6C643.2,684,646.4,667.6,669.9,664.7z"/>
				<ellipse class="st20" cx="670.1" cy="662.7" rx="5.8" ry="5.8"/>
				<path class="st1" d="M674,668.6c0,0,13.9,13,12.2,23.8l-9.4-1.5C676.8,690.8,679.3,676.9,674,668.6z"/>
				<path class="st1" d="M665,667.1c0,0-11.5,12.2-9.7,20l-11.1-1.5C644.2,685.6,648.9,668.7,665,667.1z"/>
			</g>
		</g>
		<g id="frame2-4">
			<rect x="250" y="600" class="st55" width="250" height="300"/>
			<path class="st1" d="M346.2,844.7c3.7-11.4,5.4-23.4,5.1-35.3c-0.6-24.3-8.8-28.5-8.8-6.3c0,22.7-21.1,45.2-21.1,45.2l40.4,20.1
				C361.8,868.3,371.4,843.2,346.2,844.7z"/>
			<path class="st1" d="M379.5,824.3c0,0,1.4-15.3-20.8-25.4c-15.5-7.1-35.9,2.2-4.5,14.3c23.3,9,16.5,20.3,17.5,26.5
				c9.7-12,39-18,39-18S387.2,793.3,379.5,824.3z"/>
			<path class="st1" d="M337.1,706.8c0,0,76-55.1,101.4-16.2s-2.5,56.2-11,65.7c-14,15.6-26.3,44.1-44.9,57.7
				c-10.3,7.6-29.8,16.4-57.8,0C294.7,796.6,268.7,757,337.1,706.8z"/>
			<g id="Ansigt-12">

					<ellipse transform="matrix(0.8822 -0.4709 0.4709 0.8822 -289.2949 270.0831)" class="st2" cx="395.1" cy="713.2" rx="8.4" ry="8.6"/>
				<path class="st2" d="M425.7,744.8c-4.1,2.2-7.7,2.6-9.9-1.6s1.8-6,5.9-8.2s6.6-3.9,8.9,0.3S429.8,742.6,425.7,744.8z"/>
				<path d="M425.3,711.5c-1,2.8-4,4.3-6.9,3.4c-8.4-2.2-4-7.1-1.2-8.5c5.5-2.8,2.3-1.1,5.5-2.8
					C426.1,701.8,426.5,708.6,425.3,711.5z"/>
				<path d="M436.2,731.9c-2.7,1.5-7.1,1-8.6-1.8s1.5-8,4.2-9.5s6.3-2.7,5.7,1.1C436.7,726.5,439,730.5,436.2,731.9z"/>
				<path class="st17" d="M416,724.9c0,0,3.9-0.8,4.2,1.9"/>
			</g>
			<g id="Kasket-12">
				<path class="st18" d="M441.9,697l-107.1-17.6c0,0,14-3.8,51.9,3.1C420.4,688.6,427.2,683.5,441.9,697z"/>
				<path class="st18" d="M387,683.6c0,0,5.3-23.9,35.2-17.5c21.4,4.6,21.2,17.4,21.3,30.4L387,683.6z"/>
				<path class="st19" d="M417.7,665.2c0,0,20.6,10.4,15.8,29l9.6,3.2C443.1,697.4,447.8,665.6,417.7,665.2z"/>
				<path class="st19" d="M419.9,665.7c0,0,9.5,9.2,5.3,27.3l-19.8-4.5C405.3,688.5,405.3,671.1,419.9,665.7z"/>
				<path class="st19" d="M419.9,665.7c0,0-24.2-8.7-33.2,16.8l6.5,2.6C393.2,685,396.4,668.6,419.9,665.7z"/>

					<ellipse transform="matrix(0.6081 -0.7939 0.7939 0.6081 -362.2636 593.7397)" class="st20" cx="420.2" cy="663.8" rx="5.9" ry="5.8"/>
				<path class="st1" d="M424,669.6c0,0,13.9,13,12.2,23.8l-9.4-1.5C426.8,691.8,429.3,677.9,424,669.6z"/>
				<path class="st1" d="M415,668.1c0,0-11.5,12.2-9.6,20l-11.1-1.5C394.2,686.6,398.9,669.7,415,668.1z"/>
			</g>
		</g>
		<g id="frame1-4">
			<rect y="600" class="st56" width="250" height="300"/>
			<path class="st1" d="M86.8,839.7c8.8-8.1,16.3-17.6,21.9-28.2c11.5-21.5,6.4-29.2-4.5-9.9c-11.2,19.7-40.7,28.8-40.7,28.8
				l25.2,37.5C88.7,867.9,109.5,850.9,86.8,839.7z"/>
			<path class="st1" d="M145.2,836.4c0,0-10.5-15.8-20.2-25.9c-11.8-12.2-25.8-12.1-4.8,14.2c12.2,15.3,18.2,23.3,22.1,31.7
				c9.1-16,34.2-21.8,34.2-21.8S157.7,807,145.2,836.4z"/>
			<path class="st1" d="M87.1,707.8c0,0,76-55.1,101.4-16.2s-2.5,56.2-11,65.7c-14,15.6-26.3,44.1-44.9,57.7
				c-10.3,7.6-29.8,16.4-57.8,0C44.7,797.6,18.7,758,87.1,707.8z"/>
			<g id="Ansigt-13">

					<ellipse transform="matrix(0.8822 -0.4709 0.4709 0.8822 -319.2212 152.4762)" class="st2" cx="145.1" cy="714.2" rx="8.4" ry="8.6"/>
				<path class="st2" d="M175.7,745.8c-4.1,2.2-7.7,2.6-9.9-1.6s1.8-6,5.9-8.2s6.6-3.9,8.9,0.3S179.8,743.6,175.7,745.8z"/>
				<path d="M175.3,712.5c-1,2.8-4,4.3-6.9,3.4c-8.4-2.2-4-7.1-1.2-8.5c5.5-2.8,2.3-1.1,5.5-2.8
					C176.1,702.8,176.5,709.6,175.3,712.5z"/>
				<path d="M186.2,732.9c-2.7,1.5-7.1,1-8.6-1.8s1.5-8,4.2-9.5s6.3-2.7,5.7,1.1C186.7,727.5,189,731.5,186.2,732.9z"/>
				<path class="st57" d="M166,725.9c0,0,3.9-0.8,4.2,1.9"/>
			</g>
			<g id="Kasket-13">
				<path class="st18" d="M191.9,698L84.8,680.4c0,0,14-3.8,51.9,3.1C170.4,689.6,177.2,684.5,191.9,698z"/>
				<path class="st18" d="M137,684.6c0,0,5.3-23.9,35.2-17.5c21.4,4.6,21.2,17.4,21.3,30.4L137,684.6z"/>
				<path class="st19" d="M167.7,666.2c0,0,20.6,10.4,15.8,29l9.6,3.2C193.1,698.4,197.8,666.6,167.7,666.2z"/>
				<path class="st19" d="M169.9,666.7c0,0,9.5,9.2,5.3,27.3l-19.8-4.5C155.3,689.5,155.3,672.1,169.9,666.7z"/>
				<path class="st19" d="M169.9,666.7c0,0-24.2-8.7-33.2,16.8l6.5,2.6C143.2,686,146.4,669.6,169.9,666.7z"/>

					<ellipse transform="matrix(0.6081 -0.7939 0.7939 0.6081 -461.0475 395.6544)" class="st20" cx="170.2" cy="664.8" rx="5.9" ry="5.8"/>
				<path class="st1" d="M174,670.6c0,0,13.9,13,12.2,23.8l-9.4-1.5C176.8,692.8,179.3,678.9,174,670.6z"/>
				<path class="st1" d="M165,669.1c0,0-11.5,12.2-9.6,20l-11.1-1.5C144.2,687.6,148.9,670.7,165,669.1z"/>
			</g>
		</g>
	</g>
	<g id="sefrem">
		<rect y="300" class="st58" width="250" height="300"/>
		<g id="Krop-9">
			<path class="st1" d="M132,358c0,0-29.1-2.6-50.9,37.3c-17.9,32.7-26.3,95-8.2,115.7c11.8,13.5,28.7,17.7,28.7,17.7l-0.8,45.7
				h29.1c0,0,2.1-24.3-21.9-19.4v-25c13.5,3,27.6,2.8,41-0.7v47.1h35.5c0,0-6-24-27.3-16.4l-0.2-32.4c0,0,36.8-5.6,33-78.6
				C185.8,367.7,178.2,357.9,132,358z"/>
		</g>
		<g id="Kasket-14">
			<path class="st4" d="M153.9,360.9L29.2,395.5c0,0,13.2-11.1,57.7-22.7C126.4,362.6,131.3,353.7,153.9,360.9z"/>
			<path class="st4" d="M87.9,374c0,0-6.3-28.5,29.3-36.6c25.4-5.8,31.7,8.1,38.2,22.2L87.9,374z"/>
			<path class="st5" d="M111.8,338.7c0,0,27.5,1,31.7,23.5l12-1.3C155.4,360.8,144.6,324,111.8,338.7z"/>
			<path class="st5" d="M114.4,338.1c0,0,14.9,5.1,19.4,26.9l-23.7,5C110.1,370,101.3,351.3,114.4,338.1z"/>
			<path class="st5" d="M114.4,338.1c0,0-30.5,2.8-27.5,34.8l8.3-0.5C95.3,372.4,90.4,353,114.4,338.1z"/>
			<ellipse class="st6" cx="113.7" cy="335.8" rx="7" ry="7"/>
			<path class="st1" d="M121.2,338.4c0,0,20.8,9.1,23.1,21.9l-11.2,2C133.1,362.2,130.4,345.6,121.2,338.4z"/>
			<path class="st1" d="M111.1,342.2c0,0-8.1,18.3-2.9,26.3L95,371.1C95,371.1,93.7,350.3,111.1,342.2z"/>
		</g>
		<g id="Kasket-15">
			<path class="st4" d="M154,359.5L29.3,394.1c0,0,13.2-11.1,57.7-22.7C126.5,361.2,131.4,352.3,154,359.5z"/>
			<path class="st4" d="M87.9,372.6c0,0-6.3-28.5,29.3-36.6c25.4-5.8,31.7,8.1,38.2,22.2L87.9,372.6z"/>
			<path class="st5" d="M111.8,337.2c0,0,27.5,1,31.7,23.5l12-1.3C155.5,359.4,144.6,322.6,111.8,337.2z"/>
			<path class="st5" d="M114.4,336.6c0,0,14.9,5.1,19.4,26.9l-23.7,5C110.1,368.6,101.4,349.9,114.4,336.6z"/>
			<path class="st5" d="M114.4,336.6c0,0-30.4,2.8-27.4,34.8l8.3-0.5C95.3,371,90.5,351.6,114.4,336.6z"/>
			<ellipse class="st6" cx="115.3" cy="334.8" rx="7" ry="7"/>
			<path class="st1" d="M121.2,336.9c0,0,20.8,9.1,23.1,21.9l-11.2,2C133.2,360.8,130.5,344.2,121.2,336.9z"/>
			<path class="st1" d="M111.2,340.8c0,0-8.1,18.3-2.9,26.3l-13.1,2.7C95.1,369.7,93.7,348.9,111.2,340.8z"/>
		</g>
		<g id="Ansigt-14">
			<ellipse class="st2" cx="108.2" cy="415.6" rx="10.2" ry="10"/>
			<ellipse class="st2" cx="159.6" cy="402.1" rx="10.2" ry="10"/>
			<path class="st3" d="M133.2,397.8c0,0,3-3.7,5.3-1.5"/>
			<circle cx="116.2" cy="388.2" r="6.9"/>
			<circle cx="149.4" cy="380.6" r="6.9"/>
		</g>
	</g>
	<g id="setilsiden">
		<rect class="st59" width="250" height="300"/>
		<g id="Krop-10">
			<path class="st58" d="M132,58c0,0-29.1-2.6-51,37.3c-17.8,32.7-26.2,95-8.2,115.7c11.8,13.5,28.7,17.7,28.7,17.7l-0.8,45.7h29.1
				c0,0,2.1-24.3-21.9-19.4v-25c13.5,3,27.6,2.8,41-0.7v47.1h35.5c0,0-6-24-27.3-16.4l-0.2-32.4c0,0,36.8-5.6,33-78.6
				C185.8,67.7,178.2,57.8,132,58z"/>
			<path class="st58" d="M132,58c0,0-29.1-2.6-51,37.3c-17.8,32.7-26.2,95-8.2,115.7c11.8,13.5,28.7,17.7,28.7,17.7l-0.8,45.7h29.1
				c0,0,2.1-24.3-21.9-19.4v-25c13.5,3,27.6,2.8,41-0.7v47.1h35.5c0,0-6-24-27.3-16.4l-0.2-32.4c0,0,36.8-5.6,33-78.6
				C185.8,67.7,178.2,57.8,132,58z"/>
		</g>
		<g id="Kasket-16">
			<path class="st58" d="M153.9,60.9L29.2,95.6c0,0,13.2-11.1,57.7-22.7C126.4,62.6,131.3,53.7,153.9,60.9z"/>
			<path class="st58" d="M87.9,74c0,0-6.3-28.5,29.3-36.6c25.4-5.8,31.7,8.1,38.2,22.2L87.9,74z"/>
			<path class="st58" d="M111.8,38.7c0,0,27.5,1,31.7,23.5l12-1.3C155.4,60.8,144.6,24,111.8,38.7z"/>
			<path class="st58" d="M114.4,38.1c0,0,14.9,5.1,19.4,26.9l-23.7,5C110.1,70,101.3,51.3,114.4,38.1z"/>
			<path class="st58" d="M114.4,38.1c0,0-30.5,2.8-27.5,34.8l8.3-0.5C95.3,72.4,90.4,53,114.4,38.1z"/>
			<ellipse class="st58" cx="113.7" cy="35.8" rx="7" ry="7"/>
			<path class="st58" d="M121.2,38.3c0,0,20.8,9.2,23.1,21.9l-11.2,2C133.1,62.2,130.4,45.6,121.2,38.3z"/>
			<path class="st58" d="M111.1,42.2c0,0-8.1,18.3-2.9,26.3L95,71.1C95,71.1,93.7,50.3,111.1,42.2z"/>
		</g>
		<g id="Krop-11">
			<path class="st1" d="M132,58c0,0-29.1-2.6-51,37.3c-17.8,32.7-26.2,95-8.2,115.7c11.8,13.5,28.7,17.7,28.7,17.7l-0.8,45.7h29.1
				c0,0,2.1-24.3-21.9-19.4v-25c13.5,3,27.6,2.8,41-0.7v47.1h35.5c0,0-6-24-27.3-16.4l-0.2-32.4c0,0,36.8-5.6,33-78.6
				C185.8,67.7,178.2,57.8,132,58z"/>
		</g>
		<g id="Kasket-17">
			<path class="st4" d="M153.9,60.9L29.2,95.6c0,0,13.2-11.1,57.7-22.7C126.4,62.6,131.3,53.7,153.9,60.9z"/>
			<path class="st4" d="M87.9,74c0,0-6.3-28.5,29.3-36.6c25.4-5.8,31.7,8.1,38.2,22.2L87.9,74z"/>
			<path class="st5" d="M111.8,38.7c0,0,27.5,1,31.7,23.5l12-1.3C155.4,60.8,144.6,24,111.8,38.7z"/>
			<path class="st5" d="M114.4,38.1c0,0,14.9,5.1,19.4,26.9l-23.7,5C110.1,70,101.3,51.3,114.4,38.1z"/>
			<path class="st5" d="M114.4,38.1c0,0-30.5,2.8-27.5,34.8l8.3-0.5C95.3,72.4,90.4,53,114.4,38.1z"/>
			<ellipse class="st6" cx="113.7" cy="35.8" rx="7" ry="7"/>
			<path class="st1" d="M121.2,38.3c0,0,20.8,9.2,23.1,21.9l-11.2,2C133.1,62.2,130.4,45.6,121.2,38.3z"/>
			<path class="st1" d="M111.1,42.2c0,0-8.1,18.3-2.9,26.3L95,71.1C95,71.1,93.7,50.3,111.1,42.2z"/>
		</g>
		<g id="Ansigt-15">
			<ellipse class="st2" cx="118.2" cy="114" rx="10.2" ry="10"/>
			<ellipse class="st2" cx="169.6" cy="100.5" rx="10.2" ry="10"/>
			<path class="st3" d="M140.2,94.3c0,0,4.7-0.9,5,2.2"/>
			<circle cx="126.1" cy="86.7" r="6.9"/>
			<circle cx="159.3" cy="79" r="6.9"/>
		</g>
	</g>
</g>
<text transform="matrix(1 0 0 1 10 281.15)" class="st1 st60 st61">A</text>
<text transform="matrix(1 0 0 1 10.4998 581.0002)" class="st1 st60 st61">B</text>
<text transform="matrix(1 0 0 1 9.9998 881.3101)" class="st1 st60 st61">C</text>
<text transform="matrix(1 0 0 1 259.9998 881.3102)" class="st1 st60 st61">D</text>
<text transform="matrix(1 0 0 1 509.9998 881.3102)" class="st1 st60 st61">E</text>
<text transform="matrix(1 0 0 1 759.9998 881.3103)" class="st1 st60 st61">F</text>
<text transform="matrix(1 0 0 1 1010.7498 880.3103)" class="st1 st60 st61">G</text>
<text transform="matrix(1 0 0 1 10.2498 1179.8103)" class="st1 st60 st61">H</text>
<text transform="matrix(1 0 0 1 260.7921 1179.9996)" class="st1 st60 st61">I</text>
<text transform="matrix(1 0 0 1 10.1998 1480.9996)" class="st1 st60 st61">J</text>
<text transform="matrix(1 0 0 1 259.6797 1480.4719)" class="st1 st60 st61">K</text>
<text transform="matrix(1 0 0 1 9.7149 1780.3997)" class="st1 st60 st61">L</text>
<text transform="matrix(1 0 0 1 10.3862 2081.2231)" class="st1 st60 st61">M</text>
<text transform="matrix(1 0 0 1 259.7919 2081.2231)" class="st1 st60 st61">N</text>
<text transform="matrix(1 0 0 1 510.0433 2080.6052)" class="st1 st60 st61">O</text>
</svg>
