<?xml version="1.0" encoding="utf-8"?>
<!-- Generator: Adobe Illustrator 22.1.0, SVG Export Plug-In . SVG Version: 6.00 Build 0)  -->
<svg version="1.1" id="Sprite" xmlns="http://www.w3.org/2000/svg" xmlns:xlink="http://www.w3.org/1999/xlink" x="0px" y="0px"
	 width="7200px" height="2000px" viewBox="0 0 7200 2000" style="enable-background:new 0 0 7200 2000;" xml:space="preserve">
<style type="text/css">
	.st0{display:none;}
	.st1{display:inline;fill:#F40808;}
	.st2{display:inline;fill:#662D91;}
	.st3{display:inline;fill:#494339;}
	.st4{display:inline;fill:#FF00FF;}
	.st5{display:inline;fill:#0071BC;}
	.st6{display:inline;fill:#29ABE2;}
	.st7{display:inline;fill:#006837;}
	.st8{display:inline;fill:#009245;}
	.st9{display:inline;fill:#8CC63F;}
	.st10{display:inline;fill:#FBB03B;}
	.st11{display:inline;fill:#F15A24;}
	.st12{fill:#D3C6B2;}
	.st13{fill:#F7EEDC;}
	.st14{fill:#D674C4;}
	.st15{fill:#72112B;}
	.st16{fill:#332D2A;}
	.st17{fill:none;stroke:#332D2A;stroke-width:1.17;stroke-linecap:round;stroke-miterlimit:10;}
	.st18{fill:#FF1717;}
</style>
<title>ny_fil2</title>
<g id="baggrunde" class="st0">
	<rect x="6300" class="st1" width="900" height="500"/>
	<rect x="900" y="500" class="st2" width="900" height="500"/>
	<rect x="1800" y="500" class="st3" width="900" height="500"/>
	<rect y="500" class="st4" width="900" height="500"/>
	<rect class="st5" width="900" height="500"/>
	<rect x="900" class="st6" width="900" height="500"/>
	<rect x="1800" class="st7" width="900" height="500"/>
	<rect x="2700" class="st8" width="900" height="500"/>
	<rect x="3600" class="st9" width="900" height="500"/>
	<rect x="4500" class="st10" width="900" height="500"/>
	<rect x="5400" class="st11" width="900" height="500"/>
	<rect x="2700" y="500" class="st3" width="900" height="500"/>
</g>
<g>
	<g>
		<path class="st12" d="M6459.7,436.6l49.7-41.3c0,0-27.7-10-38.6,10.3c0,0-12.8-48.1-47.1-70.3c-1.5,2.4-6.1,5.7-8,7.9
			C6447.8,363.8,6454.8,407.9,6459.7,436.6z"/>
		<path class="st13" d="M6482.7,89.6c-16.7,9.5-61.5,59.5-87.5,157.9s-28.5,130.6-85.5,148.8c0,0,1.1,16.5,11.1,28.1
			c4.8,5.5,18.5,7.7,26.1,9.6c-1-27.7-16.9-27-16.9-27s46.3-27.3,59.5-65.4c11.6-0.8,20.1,3.9,38.3-1c5.1-31.6,14.8-60.3,24.5-85
			c18.7-47.7,31.6-74.5,57.7-84.9c17.1-6.8,30.7-7.3,38.7-18.9C6578.5,108.7,6521.7,67.4,6482.7,89.6z"/>
		<path class="st13" d="M6543.2,110.2c1.6-6.6,9.9-24.8,24.8-26.4s54.5,6.6,42.9,24.8s-23.1-9.9-36.3-9.9s-26.4,16.5-26.4,19.8
			S6543.2,110.2,6543.2,110.2z"/>
		<path class="st13" d="M6517.4,96.4c0-5,1.6-44.6,26.4-51.2s54.5-5,52.8,8.3s-29.7-3.3-47.9,5S6529,96.4,6529,98.1
			S6517.4,96.4,6517.4,96.4z"/>
		<g>
			<circle class="st14" cx="6495.4" cy="137.1" r="7"/>
			<circle class="st14" cx="6536.9" cy="151.6" r="7"/>
			<path class="st15" d="M6505.8,123l11.7,8c0,0-5.4,5.9-10.3,2.3S6505.8,123,6505.8,123z"/>
			<path class="st15" d="M6529.8,133.4l14,1.9c0,0-2.2,7.7-8.2,6.7S6529.8,133.4,6529.8,133.4z"/>
			<g>
				<circle class="st16" cx="6519.7" cy="141.3" r="2.9"/>
				<path class="st17" d="M6519,143.2l-1.5,5.2c0,0,0.6,3.6,4.3,3s3.6-3.3,3.6-3.3"/>
				<path class="st17" d="M6519,143.2l-1.8,5.1c0,0-2.6,2.7-5.2,0.1s-0.9-4.7-0.9-4.7"/>
			</g>
		</g>
		<path class="st14" d="M6423.2,264.1c6.6,1.6,6.6,16.5-1.6,29.7s5,23.1-6.6,26.4s-26.4-5-14.9-34.7S6423.2,264.1,6423.2,264.1z"/>
	</g>
	<path class="st12" d="M6397.4,252.1c0,0,0,15.1,10.4,23.4c25.8,20.6,50.4-10.8,51.1,12.6c0.7,20.4-67.7,20.1-68.3-31.8
		L6397.4,252.1z"/>
</g>
<g>
	<path class="st12" d="M5556.5,248c0,0-14.8-3.1-25,5.4c-25.4,21.1,0.2,51.5-22.8,47.5c-20.1-3.5-5.8-70.4,45.1-60.3L5556.5,248z"/>
	<g>
		<path class="st12" d="M5519.6,378.1l53.1,31.1c0,0,0-28-21.7-31.3c13.2-9.7,24.7-21.6,34.1-35.1c-27-7.9-49.4-25.4-49.4-25.4
			l-10.9,14c11.9,7.2,24.3,13.3,37.1,18.5C5548.2,362,5532.1,371,5519.6,378.1z"/>
		<path class="st13" d="M5590.3,77c-16.7,9.5-61.5,59.5-87.5,157.9S5477.6,369.7,5429,408c0,0,11.6,16.6,22.6,27.4
			c8.4,8.1,26.8,1.8,34.4,3.6c-32-17.5-28.2-31.3-28.2-31.3s22.2-23.7,34-65.1c11.6-0.8,25.6-9.7,43.8-14.6
			c5.1-31.6,14.8-60.3,24.5-85c18.6-47.7,31.6-74.5,57.7-84.9c17.1-6.8,30.7-7.3,38.7-18.9C5686.2,96.1,5629.4,54.8,5590.3,77z"/>
		<path class="st13" d="M5650.9,97.6c1.6-6.6,9.9-24.8,24.8-26.4s54.5,6.6,42.9,24.8s-23.1-9.9-36.3-9.9s-26.4,16.5-26.4,19.8
			S5650.9,97.6,5650.9,97.6z"/>
		<path class="st13" d="M5625.1,83.8c0-5,1.6-44.6,26.4-51.2s54.5-5,52.8,8.3s-29.7-3.3-47.9,5s-19.8,38-19.8,39.6
			S5625.1,83.8,5625.1,83.8z"/>
		<g>
			<circle class="st14" cx="5603" cy="124.5" r="7"/>
			<circle class="st14" cx="5644.5" cy="139" r="7"/>
			<path class="st15" d="M5613.4,110.4l11.7,8c0,0-5.4,5.9-10.3,2.3S5613.4,110.4,5613.4,110.4z"/>
			<path class="st15" d="M5637.5,120.8l14,1.9c0,0-2.2,7.7-8.2,6.7S5637.5,120.8,5637.5,120.8z"/>
			<g>
				<circle class="st16" cx="5627.4" cy="128.7" r="2.9"/>
				<path class="st17" d="M5626.6,130.6l-1.5,5.2c0,0,0.6,3.6,4.3,3s3.5-3.3,3.5-3.3"/>
				<path class="st17" d="M5626.6,130.6l-1.8,5.1c0,0-2.6,2.7-5.2,0.1s-0.9-4.7-0.9-4.7"/>
			</g>
		</g>
		<path class="st14" d="M5530.8,251.6c6.6,1.6,6.6,16.5-1.6,29.7s5,23.1-6.6,26.4s-26.4-5-14.9-34.7S5530.8,251.6,5530.8,251.6z"/>
		<path class="st12" d="M5500.4,239.5c0,0,6,13.9,18.9,17.3c31.9,8.5,41.8-30.1,51.9-9c8.9,18.4-54,45.6-75.3-1.7L5500.4,239.5z"/>
	</g>
</g>
<g>
	<g>
		<path class="st12" d="M4594.6,375.1l20.4,48.4c0,0,5.6-22-7-38c0,0,12.5,10.5,34.2,14c-10.5-30.3-3.2-76-3.2-76l-24.3,19l11,41.5
			C4625.7,384,4620.6,384.5,4594.6,375.1z"/>
		<path class="st13" d="M4691.3,83c-16.7,9.5-61.5,59.5-87.5,157.9s-35.3,138.6-52.3,197.1c0,0,55.9-4.8,63.5-3
			c-27.5-22.5-42-13.5-42-13.5s11-29.5,19.8-72.9c11.8-4.6,21.7-7.1,43.8-8.1c5.1-31.6,14.8-66.8,24.5-91.5
			c18.6-47.7,31.6-74.5,57.7-84.9c17.1-6.8,30.7-7.3,38.7-18.9C4787.2,102.1,4730.4,60.8,4691.3,83z"/>
		<path class="st13" d="M4751.9,103.6c1.6-6.6,9.9-24.8,24.8-26.4s54.5,6.6,42.9,24.8s-23.1-9.9-36.3-9.9s-26.4,16.5-26.4,19.8
			S4751.9,103.6,4751.9,103.6z"/>
		<path class="st13" d="M4726.1,89.8c0-5,1.6-44.6,26.4-51.2s54.5-5,52.8,8.3s-29.7-3.3-47.9,5s-19.8,38-19.8,39.6
			S4726.1,89.8,4726.1,89.8z"/>
		<g>
			<circle class="st14" cx="4704" cy="130.5" r="7"/>
			<circle class="st14" cx="4745.5" cy="145" r="7"/>
			<path class="st15" d="M4714.4,116.4l11.7,8c0,0-5.4,5.9-10.3,2.3S4714.4,116.4,4714.4,116.4z"/>
			<path class="st15" d="M4738.5,126.8l14,1.9c0,0-2.2,7.7-8.2,6.7S4738.5,126.8,4738.5,126.8z"/>
			<g>
				<circle class="st16" cx="4728.4" cy="134.7" r="2.9"/>
				<path class="st17" d="M4727.6,136.6l-1.5,5.2c0,0,0.6,3.6,4.3,3s3.5-3.3,3.5-3.3"/>
				<path class="st17" d="M4727.6,136.6l-1.8,5.1c0,0-2.6,2.7-5.2,0.1s-0.9-4.7-0.9-4.7"/>
			</g>
		</g>
		<path class="st14" d="M4631.8,257.5c6.6,1.6,6.6,16.5-1.6,29.7s5,23.1-6.6,26.4s-26.4-5-14.9-34.7S4631.8,257.5,4631.8,257.5z"/>
		<path class="st12" d="M4606,260.6c0,0-14.1,5.4-18.1,18.1c-9.9,31.5,28.2,43.1,6.7,52.3c-18.8,8-43.1-56,5.1-75.1L4606,260.6z"/>
		<path class="st12" d="M4624.9,277.1c0,0,0.8,15.1,11.6,22.8c26.9,19.1,49.7-13.5,51.8,9.8c1.8,20.4-66.5,23.7-69.9-28
			L4624.9,277.1z"/>
	</g>
</g>
<g>
	<g>
		<path class="st12" d="M3744.1,285.3c0,0,10.5,10.9,23.8,9.6c32.9-3.3,28.6-42.8,45.4-26.6c14.7,14.2-34.6,61.6-71.1,24.8
			L3744.1,285.3z"/>
		<path class="st12" d="M3662.1,363.3l-15.1,55.5c0,0,28-16.5,21.6-39.8c0,0,31.8,9.8,52.6,21.3c5.7-31.6,12.8-56,12.8-56l-28.1-0.9
			l3.4,36.2C3709.3,379.5,3686.6,371.8,3662.1,363.3z"/>
		<path class="st13" d="M3791.3,90c-16.7,9.5-73.2,76-99.2,174.4c-25.8,75.6,35.3,102.8,35.7,170.8c0,0,56.5-1.8,64.1,0
			c-27.5-22.5-42.6-16.5-42.6-16.5l-34.9-70.1c5.8,1.8,11.6,3.3,17.5,4.5c5.1-31.6,19.4-72.3,29.1-97c18.6-47.7,31.6-74.5,57.7-84.9
			c17.1-6.8,30.7-7.3,38.7-18.9C3887.2,109.1,3830.4,67.8,3791.3,90z"/>
		<path class="st13" d="M3851.9,110.6c1.6-6.6,9.9-24.8,24.8-26.4s54.5,6.6,42.9,24.8s-23.1-9.9-36.3-9.9s-26.4,16.5-26.4,19.8
			S3851.9,110.6,3851.9,110.6z"/>
		<path class="st13" d="M3826.1,96.8c0-5,1.6-44.6,26.4-51.2s54.5-5,52.8,8.3s-29.7-3.3-47.9,5s-19.8,38-19.8,39.6
			S3826.1,96.8,3826.1,96.8z"/>
		<g>
			<circle class="st14" cx="3804" cy="137.5" r="7"/>
			<circle class="st14" cx="3845.6" cy="152" r="7"/>
			<path class="st15" d="M3814.4,123.4l11.7,8c0,0-5.4,5.9-10.3,2.3S3814.4,123.4,3814.4,123.4z"/>
			<path class="st15" d="M3838.5,133.8l14,1.9c0,0-2.2,7.7-8.2,6.7S3838.5,133.8,3838.5,133.8z"/>
			<g>
				<circle class="st16" cx="3828.4" cy="141.7" r="2.9"/>
				<path class="st17" d="M3827.6,143.6l-1.4,5.2c0,0,0.6,3.6,4.3,3s3.6-3.3,3.6-3.3"/>
				<path class="st17" d="M3827.6,143.6l-1.8,5.1c0,0-2.6,2.7-5.2,0.1s-0.9-4.7-0.9-4.7"/>
			</g>
		</g>
		<path class="st14" d="M3731.8,264.5c6.6,1.6,6.6,16.5-1.6,29.7s5,23.1-6.6,26.4s-26.4-5-14.9-34.7S3731.8,264.5,3731.8,264.5z"/>
		<path class="st12" d="M3692.2,280.9c0,0-9.6-11.7-22.9-11.5c-33,0.5-32.1,40.3-47.5,22.8c-13.5-15.3,39.6-58.5,72.9-18.8
			L3692.2,280.9z"/>
	</g>
</g>
<g>
	<g>
		<path class="st12" d="M2846,275.6c0,0,11.7,9.6,24.7,6.7c32.3-7.1,23.4-45.9,42-31.8c16.3,12.3-27.2,65.2-67.7,32.9L2846,275.6z"
			/>
		<path class="st12" d="M2723.5,395.8c0,0,15,29.8,24,33.5s38.2,0,38.2,0s-35.1-2.7-41.5-26c0,0,44.4-8.1,82.2-67.6
			c-12.3-5.8-9.1-0.1-21.9-1.2C2801.2,346.5,2748.5,399.5,2723.5,395.8z"/>
		<path class="st13" d="M2891.3,83c-16.7,9.5-73.2,76-99.2,174.4c-35.2,86.1,51,118.8,101.8,175.6c0,0,12.7-40.2,26-64.5
			c-31,0.5-28,38-28,38s-54-49-61.8-57.5c13.1-31,19.1-76.8,28.8-101.5c18.6-47.7,33.7-73,59.8-83.3c17.1-6.8,30.7-7.3,38.7-18.9
			C2987.2,102.1,2930.4,60.8,2891.3,83z"/>
		<path class="st13" d="M2951.9,103.6c1.6-6.6,9.9-24.8,24.8-26.4s54.5,6.6,42.9,24.8s-23.1-9.9-36.3-9.9s-26.4,16.5-26.4,19.8
			S2951.9,103.6,2951.9,103.6z"/>
		<path class="st13" d="M2926.1,89.8c0-5,1.6-44.6,26.4-51.2s54.5-5,52.8,8.3s-29.7-3.3-47.9,5s-19.8,38-19.8,39.6
			S2926.1,89.8,2926.1,89.8z"/>
		<g>
			<circle class="st14" cx="2904" cy="130.5" r="7"/>
			<circle class="st14" cx="2945.6" cy="145" r="7"/>
			<path class="st15" d="M2914.4,116.4l11.7,8c0,0-5.4,5.9-10.3,2.3S2914.4,116.4,2914.4,116.4z"/>
			<path class="st15" d="M2938.5,126.8l14,1.9c0,0-2.2,7.7-8.2,6.7S2938.5,126.8,2938.5,126.8z"/>
			<g>
				<circle class="st16" cx="2928.4" cy="134.7" r="2.9"/>
				<path class="st17" d="M2927.6,136.6l-1.4,5.2c0,0,0.6,3.6,4.3,3s3.6-3.3,3.6-3.3"/>
				<path class="st17" d="M2927.6,136.6l-1.8,5.1c0,0-2.6,2.7-5.2,0.1s-0.9-4.7-0.9-4.7"/>
			</g>
		</g>
		<path class="st14" d="M2831.8,257.5c6.6,1.6,6.6,16.5-1.6,29.7s5,23.1-6.6,26.4s-26.4-5-14.9-34.7S2831.8,257.5,2831.8,257.5z"/>
		<path class="st12" d="M2793.7,275.3c0,0-11.3-10.1-24.4-7.8c-32.5,5.6-25.5,44.8-43.4,29.8c-15.7-13.1,30.1-63.9,69.1-29.8
			L2793.7,275.3z"/>
	</g>
</g>
<g>
	<g>
		<path class="st12" d="M1947.5,271.5c0,0,5.4,14.1,18.1,18.1c31.5,9.8,43-28.2,52.2-6.8c8,18.8-55.9,43.2-75.2-5L1947.5,271.5z"/>
		<path class="st12" d="M1885.1,408c0,0,17.2,25,26.2,28.7s40,2.3,40,2.3s-18.3-11-42.3-25c0,0,2-11.7,24-80.9
			c-12.3-5.8-13-0.5-25.8-1.5C1903.8,343.5,1897.7,384.8,1885.1,408z"/>
		<path class="st13" d="M1991.3,78c-16.7,9.5-73.2,76-99.2,174.4c-26.3,64.4,2.8,127.9,84.3,96.3C1968,365,1958.4,374,1949,398
			c0,0,34.3,0.6,62.1,3c-23.1-13-40.6-14.2-40.6-14.2l23.9-56.5c0,0-58,6.4-61.3,2.8c9.7-35.1,16.8-66.9,26.5-91.6
			c18.7-47.7,33.2-72,59.3-82.3c17.2-6.8,30.7-7.3,38.7-18.9C2087.2,97.1,2030.4,55.8,1991.3,78z"/>
		<path class="st13" d="M2051.9,98.6c1.6-6.6,9.9-24.8,24.8-26.4s54.5,6.6,42.9,24.8s-23.1-9.9-36.3-9.9s-26.4,16.5-26.4,19.8
			S2051.9,98.6,2051.9,98.6z"/>
		<path class="st13" d="M2026.1,84.8c0-5,1.7-44.6,26.4-51.2s54.5-5,52.8,8.3s-29.7-3.3-47.9,5s-19.8,38-19.8,39.6
			S2026.1,84.8,2026.1,84.8z"/>
		<g>
			<circle class="st14" cx="2004" cy="125.5" r="7"/>
			<circle class="st14" cx="2045.6" cy="140" r="7"/>
			<path class="st15" d="M2014.4,111.4l11.7,8c0,0-5.4,5.9-10.3,2.3S2014.4,111.4,2014.4,111.4z"/>
			<path class="st15" d="M2038.5,121.8l14,1.9c0,0-2.2,7.7-8.2,6.7S2038.5,121.8,2038.5,121.8z"/>
			<g>
				<circle class="st16" cx="2028.4" cy="129.7" r="2.9"/>
				<path class="st17" d="M2027.6,131.6l-1.4,5.2c0,0,0.6,3.6,4.3,3s3.6-3.3,3.6-3.3"/>
				<path class="st17" d="M2027.6,131.6l-1.8,5.1c0,0-2.6,2.7-5.2,0.1s-0.9-4.7-0.9-4.7"/>
			</g>
		</g>
		<path class="st14" d="M1931.8,252.6c6.6,1.6,6.6,16.5-1.7,29.7s5,23.1-6.6,26.4s-26.4-5-14.8-34.7S1931.8,252.6,1931.8,252.6z"/>
		<path class="st12" d="M1895.8,264.6c0,0-15-2.2-24.6,7c-24,22.7,3.6,51.4-19.6,48.9c-20.3-2.2-10.3-69.9,41.1-63.1L1895.8,264.6z"
			/>
	</g>
</g>
<g>
	<g>
		<path class="st12" d="M1029.4,438.3l61.5-2.1c0,0-15-23.7-35.1-14.8c0,0,2.4-50-10.5-86.8c-2.6,0.9-13.2,0.7-15.9,1.3
			C1041.6,370.2,1035,412.3,1029.4,438.3z"/>
		<path class="st13" d="M1091.3,83c-16.7,9.5-73.2,76-99.2,174.4c-18,52.8-0.5,85.9,61.2,129c-30.3,0-29.6-4-48.8-8.5
			c0,0-6,60.3,5.5,65c10.6-21.3,6.7-38.7,2.7-50c45,10,69.7,0,69.7,0l-55.7-51.3c0,0,11-7.4,19.7-5.7c-2-37.2,4.2-74.8,13.8-99.5
			c18.7-47.7,32.5-61.9,58.6-72.3c17.2-6.8,30.7-7.3,38.7-18.9C1187.2,102.1,1130.4,60.8,1091.3,83z"/>
		<path class="st13" d="M1151.9,103.6c1.7-6.6,9.9-24.8,24.8-26.4s54.5,6.6,42.9,24.8s-23.1-9.9-36.3-9.9s-26.4,16.5-26.4,19.8
			S1151.9,103.6,1151.9,103.6z"/>
		<path class="st13" d="M1126.1,89.8c0-5,1.7-44.6,26.4-51.2s54.5-5,52.8,8.3s-29.7-3.3-47.9,5s-19.8,38-19.8,39.6
			S1126.1,89.8,1126.1,89.8z"/>
		<g>
			<circle class="st14" cx="1104" cy="130.5" r="7"/>
			<circle class="st14" cx="1145.6" cy="145" r="7"/>
			<path class="st15" d="M1114.4,116.4l11.7,8c0,0-5.4,5.9-10.3,2.3S1114.4,116.4,1114.4,116.4z"/>
			<path class="st15" d="M1138.5,126.8l14,1.9c0,0-2.2,7.7-8.2,6.7S1138.5,126.8,1138.5,126.8z"/>
			<g>
				<circle class="st16" cx="1128.4" cy="134.7" r="2.9"/>
				<path class="st17" d="M1127.6,136.6l-1.4,5.2c0,0,0.6,3.6,4.3,3s3.6-3.3,3.6-3.3"/>
				<path class="st17" d="M1127.6,136.6l-1.8,5.1c0,0-2.6,2.7-5.2,0.1s-0.9-4.7-0.9-4.7"/>
			</g>
		</g>
		<path class="st14" d="M1031.8,257.5c6.6,1.6,6.6,16.5-1.7,29.7s5,23.1-6.6,26.4s-26.4-5-14.8-34.7S1031.8,257.5,1031.8,257.5z"/>
		<path class="st12" d="M998.6,267c0,0-14.7,3.7-20.1,15.9c-13.5,30.1,23,46.1,0.5,52.7c-19.6,5.8-36.3-60.6,13.8-74L998.6,267z"/>
	</g>
</g>
<g>
	<g>
		<path class="st12" d="M129.4,438.3l61.5-2.1c0,0-14.9-23.7-35.1-14.8c0,0,23.7-25.4,17.2-44.3c-6.6-19.3-15.7-28.5-25.8-36.5
			c-2.6,0.9-13.2,0.7-15.9,1.3c6.1,17.1,26.3,26.9,25.4,45S140.7,426.3,129.4,438.3z"/>
		<path class="st13" d="M191.3,94c-16.7,9.5-67,55-93,153.4c-14.6,40.1-31,87.9,16.3,139.3c-11.8,28.5-25.3-24-50.8-29
			c0,0-16.6,69.6-5.2,74.3c10.7-10,20-42,16-53.3c24.7,36,35.2,43.2,35.2,43.2l13.3-43c0,0,26.1-30.1,34.8-28.4
			c-19-33.2-15.9-67.8-6.3-92.5c18.6-47.7,40.9-72.5,67-82.8c17.1-6.8,30.7-7.3,38.7-18.9C287.2,113.1,230.4,71.8,191.3,94z"/>
		<path id="Oere2" class="st13" d="M251.9,114.6c1.6-6.6,9.9-24.8,24.8-26.4s54.5,6.6,42.9,24.8s-23.1-9.9-36.3-9.9
			s-26.4,16.5-26.4,19.8S251.9,114.6,251.9,114.6z"/>
		<path id="oere" class="st13" d="M226.1,100.8c0-5,1.6-44.6,26.4-51.2s54.5-5,52.8,8.3s-29.7-3.3-47.9,5s-19.8,38-19.8,39.6
			S226.1,100.8,226.1,100.8z"/>
		<g id="ansigt">
			<circle class="st14" cx="204" cy="141.5" r="7"/>
			<circle class="st14" cx="245.6" cy="156" r="7"/>
			<path class="st15" d="M214.4,127.4l11.7,8c0,0-5.4,5.9-10.3,2.3S214.4,127.4,214.4,127.4z"/>
			<path class="st15" d="M238.5,137.8l14,1.9c0,0-2.2,7.7-8.2,6.7S238.5,137.8,238.5,137.8z"/>
			<g>
				<circle class="st16" cx="228.4" cy="145.7" r="2.9"/>
				<path class="st17" d="M227.6,147.6l-1.4,5.2c0,0,0.6,3.6,4.3,3s3.6-3.3,3.6-3.3"/>
				<path class="st17" d="M227.6,147.6l-1.8,5.1c0,0-2.6,2.7-5.2,0.1s-0.9-4.7-0.9-4.7"/>
			</g>
		</g>
		<path id="mave" class="st14" d="M131.8,268.5c6.6,1.6,6.6,16.5-1.6,29.7s4.9,23.1-6.6,26.4s-26.4-4.9-14.9-34.7
			S131.8,268.5,131.8,268.5z"/>
		<path id="arm" class="st12" d="M102.6,270.4c0,0-9.1,12.1-5.7,25c8.4,31.9,46.8,21.5,33.5,40.7c-11.7,16.8-66.3-24.5-35.7-66.3
			L102.6,270.4z"/>
	</g>
</g>
<g>
	<g>
		<path class="st12" d="M159.7,936.6l49.7-41.3c0,0-27.7-10-38.6,10.3c0,0-12.8-48.1-47.1-70.3c-1.5,2.4-6.1,5.7-8,7.9
			C147.8,863.8,154.8,907.9,159.7,936.6z"/>
		<path class="st13" d="M182.7,589.6c-16.7,9.5-61.5,59.5-87.5,157.9S66.6,878.1,9.7,896.3c0,0,1.1,16.5,11.1,28.1
			c4.8,5.5,18.5,7.7,26.1,9.5c-1-27.7-16.9-27-16.9-27s46.3-27.3,59.5-65.4c11.6-0.8,20.1,3.9,38.3-1c5.1-31.6,14.8-60.3,24.5-85
			c18.7-47.7,31.6-74.5,57.7-84.9c17.1-6.8,30.7-7.3,38.7-18.9C278.5,608.7,221.7,567.4,182.7,589.6z"/>
		<path class="st13" d="M243.2,610.2c1.6-6.6,9.9-24.8,24.8-26.4c14.9-1.6,54.5,6.6,42.9,24.8s-23.1-9.9-36.3-9.9
			s-26.4,16.5-26.4,19.8S243.2,610.2,243.2,610.2z"/>
		<path class="st13" d="M217.4,596.4c0-5,1.6-44.6,26.4-51.2s54.5-5,52.8,8.3s-29.7-3.3-47.9,5S229,596.4,229,598.1
			S217.4,596.4,217.4,596.4z"/>
		<g>
			<circle class="st14" cx="195.4" cy="637.1" r="7"/>
			<circle class="st14" cx="236.9" cy="651.6" r="7"/>
			<path class="st15" d="M205.8,623l11.7,8c0,0-5.4,5.9-10.3,2.3S205.8,623,205.8,623z"/>
			<path class="st15" d="M229.8,633.4l14,1.9c0,0-2.2,7.7-8.2,6.7S229.8,633.4,229.8,633.4z"/>
			<g>
				<circle class="st16" cx="219.7" cy="641.3" r="2.9"/>
				<path class="st17" d="M219,643.2l-1.4,5.2c0,0,0.6,3.7,4.3,3s3.6-3.3,3.6-3.3"/>
				<path class="st17" d="M219,643.2l-1.8,5.1c0,0-2.6,2.7-5.2,0.1s-0.9-4.7-0.9-4.7"/>
			</g>
		</g>
		<path class="st14" d="M123.2,764.1c6.6,1.7,6.6,16.5-1.7,29.7s5,23.1-6.6,26.4s-26.4-5-14.8-34.7S123.2,764.1,123.2,764.1z"/>
	</g>
	<path class="st12" d="M97.4,752c0,0,0,15.1,10.4,23.4c25.8,20.5,50.3-10.8,51.2,12.5c0.7,20.4-67.7,20.1-68.3-31.8L97.4,752z"/>
</g>
<g>
	<polygon class="st18" points="2518.5,998.9 2433.6,930.6 2306.5,1000 2363.6,878.4 2250.3,777.6 2391.6,794.3 2434.6,654.4 
		2478.9,797.3 2620.2,786.9 2504.9,880.1 	"/>
	<g>
		<path class="st12" d="M2232.6,869.7c0,0-9.4-11.9-6.3-24.8c7.6-32.1,46.3-22.6,32.5-41.4c-12.1-16.5-65.7,26-34.1,67.1
			L2232.6,869.7z"/>
		<path class="st12" d="M2222,918.5c0,0-11.2,10.1-10.4,23.4c2.1,33,41.8,30.1,25,46.3c-14.7,14.2-60.3-36.7-22.3-71.9L2222,918.5z"
			/>
		<path class="st12" d="M2044.5,893.5l-13.8,60c0,0,26.7-8.4,23.3-30.1c0,0,67.4,14.4,81.5,11c-0.2-2.7,1.4-14.3,1.6-17
			C2119,918.8,2053.1,907.5,2044.5,893.5z"/>
		<path class="st13" d="M2450.1,822.1c-25.1-10.7-99.6,9.9-226.6,30.9c-91,13.4-139.5,0-168-18.1c0,0-24.7,37.3-35.3,51.4
			c14.1,3.8,36.3-15.3,37.3-30.9c33.1,25.9,73,19.5,73,19.5s-18.6,51.8-15.5,60c105.3,0,233.2-39.1,325.4-37
			C2492.9,899,2491.4,839.7,2450.1,822.1z"/>
		<path class="st13" d="M2472.3,883.9c6.5-2.1,132.2,30.9,116.2,50.9c-13.4,16.8-117.8-44.1-120.6-42.3S2472.3,883.9,2472.3,883.9z"
			/>
		<path class="st13" d="M2467.2,840.9c4.2-2.6,37.9-5.8,61.9,3.3c21.9,8.3,72.8,32.8,60.1,49.4c-8.1,10.6-48.7-22.7-68.4-31.4
			c-18.3-8-47.4-11.4-48.8-10.5S2467.2,840.9,2467.2,840.9z"/>
	</g>
</g>
<g>
	<path class="st12" d="M1224.8,779.3c0,0,15.1-0.7,23.9,9.3c21.7,24.9-8.5,50.8,14.9,50.5c20.4-0.2,17-68.6-34.8-66.8L1224.8,779.3z
		"/>
	<path class="st12" d="M1048.7,887c0,0-7.5,28-12.3,44.3c7,6.8,45,4.4,45,4.4c-0.4-1.1-28.3-12.2-13-35.4c0,0,84.2-57,98.8-66
		c-1.6-2.2-7.6-10.6-12.1-17.5C1141.9,834.8,1063.3,894.5,1048.7,887z"/>
	<path class="st13" d="M1377.1,638.5c-19.1-2.2-86.5,5-165.5,69.3c-35.4,23.9-72.5,52.1-64.5,121.4c21.7,24.2,52.5,47.3,52.5,51
		c0,5.4-43-3.1-52.5-13.3c0,0-22.4,47.5-15.9,58c14.5-1.8,29.9-26.5,33.3-38c50.6,3.3,59,0,59,0s-36.4-53.5-45.3-62.4
		c22.1-4.1,55.5-50.6,77.8-64.9c43.2-27.6,68.2-46.5,95.4-39.5c17.9,4.6,29.1,12.1,42.4,7.5C1443.4,710.3,1421.7,643.5,1377.1,638.5
		z"/>
	<path class="st13" d="M1416.8,691.3c4.2,5.4,19.2,18.5,33.4,14s47-28.3,29-40.1s-17,18.5-29.1,23.9s-30.8-4.3-32.2-7.3
		S1416.8,691.3,1416.8,691.3z"/>
	<path class="st13" d="M1412.7,671.5c4.9-1,43.4-10.2,45.1-35.8s-5.6-54.4-18.3-50.3s9,28.5,4.3,47.9s-33.4,26.7-35.1,27.1
		S1412.7,671.5,1412.7,671.5z"/>
	<g>
		<circle class="st14" cx="1359.4" cy="684.4" r="7"/>
		<circle class="st14" cx="1384.5" cy="720.5" r="7"/>
		<g>
			<circle class="st16" cx="1376.7" cy="702.1" r="2.9"/>
			<polyline class="st17" points="1374.9,703.2 1370.7,706.6 1372.2,717.4 			"/>
			<polyline class="st17" points="1374.9,703.2 1370.5,706.3 1359.4,701.4 			"/>
		</g>
		
			<ellipse transform="matrix(0.9535 -0.3015 0.3015 0.9535 -141.7535 449.7531)" class="st15" cx="1385.9" cy="684" rx="13.9" ry="5.6"/>
		
			<ellipse transform="matrix(0.9535 -0.3015 0.3015 0.9535 -147.6099 453.126)" class="st15" cx="1393.9" cy="704.7" rx="13.9" ry="5.6"/>
	</g>
	<path class="st14" d="M1226.3,744.6c4.4,5.2-4.4,17.2-18.8,23.1s-9.6,21.6-20.9,17.5s-18.4-19.5,8.4-36.8
		S1226.3,744.6,1226.3,744.6z"/>
	<path class="st12" d="M1171.6,743.5c0,0-4.4-14.5-16.7-19.4c-30.7-12.2-45,25-52.6,2.8c-6.6-19.3,59-38.9,74.6,10.5L1171.6,743.5z"
		/>
</g>
<g>
	<g>
		<path class="st12" d="M3132.6,869.7c0,0-9.4-11.9-6.3-24.8c7.6-32.1,46.3-22.6,32.5-41.4c-12.1-16.5-65.7,26-34.1,67.1
			L3132.6,869.7z"/>
		<path class="st12" d="M3122,918.5c0,0-11.2,10.1-10.4,23.4c2.1,33,41.8,30.1,25,46.3c-14.7,14.2-60.3-36.7-22.3-71.9L3122,918.5z"
			/>
		<path class="st12" d="M2944.5,893.5l-13.8,60c0,0,26.7-8.4,23.3-30.1c0,0,67.4,14.4,81.5,11c-0.2-2.7,1.4-14.3,1.6-17
			C3019,918.8,2953.1,907.5,2944.5,893.5z"/>
		<path class="st13" d="M3350.1,822.1c-25.1-10.7-99.6,9.9-226.6,30.9c-91,13.4-139.5,0-168-18.1c0,0-24.7,37.3-35.3,51.4
			c14.1,3.8,36.3-15.3,37.3-30.9c33.1,25.9,73,19.5,73,19.5s-18.6,51.8-15.5,60c105.3,0,233.2-39.1,325.4-37
			C3392.9,899,3391.4,839.7,3350.1,822.1z"/>
		<path class="st13" d="M3372.3,883.9c6.5-2.1,132.2,30.9,116.2,50.9c-13.4,16.8-117.8-44.1-120.6-42.3S3372.3,883.9,3372.3,883.9z"
			/>
		<path class="st13" d="M3367.2,840.9c4.2-2.6,37.9-5.8,61.9,3.3c21.9,8.3,72.8,32.8,60.1,49.4c-8.1,10.6-48.7-22.7-68.4-31.4
			c-18.3-8-47.4-11.4-48.8-10.5S3367.2,840.9,3367.2,840.9z"/>
	</g>
</g>
</svg>
