<svg xmlns="http://www.w3.org/2000/svg" viewBox="0 0 208.49 288.36"><defs><style>.cls-1{fill:#ed4a24;}.cls-2{fill:#ba3a20;}.cls-3{fill:#dd998c;}.cls-4{fill:#ff7955;}.cls-5{fill:#fff;}</style></defs><title>Asset 1</title><g id="Layer_2" data-name="Layer 2"><g id="Layer_3" data-name="Layer 3"><polygon class="cls-1" points="208.14 0 202.48 47.95 196.83 95.9 170.57 84.19 144.31 72.47 176.22 36.23 208.14 0"/><polygon class="cls-1" points="3.4 0.07 35.46 36.18 67.52 72.29 41.3 84.11 15.09 95.93 9.25 48 3.4 0.07"/><polygon class="cls-2" points="50.83 60.72 34.41 69.04 18 77.36 17.92 56.85 17.84 36.34 34.34 48.53 50.83 60.72"/><polygon class="cls-2" points="191.31 81.65 175.22 72.71 159.14 63.77 176.09 52.22 193.03 40.66 192.17 61.16 191.31 81.65"/><path class="cls-3" d="M205,174.36H120.77a81,81,0,0,0,17.83,74.95l15.9-17.95Z"/><path class="cls-3" d="M208.49,143.36a130.66,130.66,0,0,0-3.17-28.73c-2.09-.17-4.19-.27-6.32-.27a81,81,0,0,0-78.23,60h84A130.73,130.73,0,0,0,208.49,143.36Z"/><path class="cls-1" d="M104.25,26.36C55.14,26.36,14,64.47,2.92,115.78a81,81,0,0,1,93.31,58.58h24.54a81,81,0,0,1,78.23-60c2.13,0,4.23.1,6.32.27C193.91,63.9,153,26.36,104.25,26.36Z"/><path class="cls-3" d="M53.5,231.36l20.19,22.78a80.93,80.93,0,0,0,22.54-79.78H3Z"/><path class="cls-3" d="M18,114.36a81.42,81.42,0,0,0-15.08,1.42,131.53,131.53,0,0,0,.79,58.58H96.23A81,81,0,0,0,18,114.36Z"/><path class="cls-1" d="M134,254.36v.13l4.6-5.18a81,81,0,0,1-17.83-74.95H96.23a80.93,80.93,0,0,1-22.54,79.78l.31.35v-.13Z"/><polygon points="134 254.36 74 254.36 74 254.5 104 288.36 134 254.5 134 254.36"/><circle class="cls-4" cx="71" cy="181.36" r="18"/><circle cx="70.61" cy="180.96" r="14.48"/><circle class="cls-5" cx="75.7" cy="174.31" r="7.04"/><circle class="cls-5" cx="81.96" cy="182.92" r="2.35"/><circle class="cls-4" cx="144" cy="181.36" r="18"/><circle cx="143.61" cy="180.96" r="14.48"/><circle class="cls-5" cx="148.7" cy="174.31" r="7.04"/><circle class="cls-5" cx="154.96" cy="182.92" r="2.35"/></g></g></svg>