<svg xmlns="http://www.w3.org/2000/svg" viewBox="0 0 602.26 723.28"><defs><style>.cls-1{fill:#722611;}.cls-2{fill:#873015;}</style></defs><title>egern-bagfra-u-h</title><g id="Layer_2" data-name="Layer 2"><g id="Layer_8" data-name="Layer 8"><path class="cls-1" d="M90.16,699.82c-18,8.77-71.81,38.63-87.37,13.81s39-34,39-34l47.08-3.4Z"/><ellipse class="cls-2" cx="204.04" cy="507.63" rx="166" ry="208.5"/><path class="cls-1" d="M93.11,620.76C75,612.34,20.55,583.53,5.48,608.65s39.62,33.2,39.62,33.2l47.14,2.48Z"/><ellipse class="cls-2" cx="138.29" cy="409.13" rx="79" ry="59.5" transform="translate(-276.43 288.64) rotate(-55.12)"/><ellipse class="cls-2" cx="318.29" cy="403.13" rx="59.5" ry="79" transform="translate(-173.34 254.4) rotate(-34.88)"/><ellipse class="cls-2" cx="203.79" cy="654.63" rx="156" ry="55.8"/><ellipse class="cls-2" cx="204.04" cy="521.63" rx="122.5" ry="148.5"/><circle class="cls-2" cx="200.95" cy="191.8" r="127.5"/><ellipse class="cls-2" cx="267.79" cy="247.13" rx="93" ry="79"/><ellipse class="cls-2" cx="137.79" cy="247.13" rx="93" ry="79"/><ellipse class="cls-2" cx="144.79" cy="214.13" rx="58" ry="79"/><ellipse class="cls-2" cx="260.79" cy="214.13" rx="58" ry="79"/><ellipse class="cls-2" cx="204.62" cy="307.13" rx="28.5" ry="33"/><path class="cls-1" d="M82.79,8.13C60.16,7.05,59.29,12.75,63.45,20c3.68,6.44,11.3,14.14,11.26,19.48,0,.41.08.82.1,1.22,1.73,44.44,15,71.39,24.37,79.54,7.66,6.64,6.38,6.43,10.91,6.75,10.68.74,16.62-6.17,26.58-15.47A124.06,124.06,0,0,1,163.42,92C203.79,70.13,124.79,10.13,82.79,8.13Z"/><path class="cls-1" d="M320.3.13c-42,2-121,62-80.64,83.82a124.06,124.06,0,0,1,26.75,19.61c10,9.3,15.9,16.21,26.58,15.47,4.54-.32,3.25-.11,10.91-6.75,9.4-8.15,22.65-35.1,24.38-79.54,0-.4.1-.81.09-1.22,0-5.34,7.58-13,11.27-19.48C343.79,4.75,342.93-.95,320.3.13Z"/><ellipse class="cls-2" cx="287.79" cy="256.63" rx="55" ry="42.5"/><ellipse class="cls-2" cx="117.79" cy="256.63" rx="55" ry="42.5"/><path class="cls-1" d="M534.72,17A56.27,56.27,0,0,0,521.9,42.87c-4.82,23.74-9.49,36.47-16.32,44.24C436.49,82.79,366,141.67,327.14,232c-1.62,3.78-3.17,7.62-4.68,11.5-77.71,140-140.68,435.36-117.33,452.14,39.66,28.49,38.57,2.54,74.66.49,32.69-1.86,59.54-9.13,81.94-20.08,2.7-.78,6.67-2.89,12.1-6.51a178.48,178.48,0,0,0,35.77-27.86C453,598.18,471.87,538,494.26,496.2c35-65.25,186.53-392.07,55.67-491.31C540.79-1.87,539,12.1,534.72,17"/></g></g></svg>
