<svg xmlns="http://www.w3.org/2000/svg" viewBox="0 0 350.36 100.55"><defs><style>.cls-1{fill:#006838;}.cls-2{fill:#009444;}.cls-3{fill:#39b54a;}.cls-4{fill:#8dc63f;}</style></defs><title>busk1</title><g id="Layer_2" data-name="Layer 2"><g id="objects"><path class="cls-1" d="M350.32,100.55c0-.55,0-1.1,0-1.65a36.53,36.53,0,0,0-42.61-36.06,32.08,32.08,0,0,0-7.06-7.09c3.71-.23,6.34-1.19,6.47-2.58.17-1.93-4.61-3.94-10.69-4.49l-1.18-.09c1.39-3.74,1.12-7.32-1.09-9.27-3.21-2.83-9.31-1.19-14,3.6a40.05,40.05,0,0,0-61.08-21.51,28.77,28.77,0,0,0,1.49-6.22c1-7.91-1.18-14.7-4.87-15.16S208.3,5.6,207.3,13.5a31.16,31.16,0,0,0-.23,4.46,36.54,36.54,0,0,0-56.85-3.07c0-6.29-2-11.22-5.1-11.61-3.69-.47-7.48,5.57-8.48,13.48-.1.83-.17,1.64-.2,2.44-1.75-1.41-3.48-2-4.77-1.34-2.17,1.08-2.39,5.21-.72,9.79a36.55,36.55,0,0,0-34.23,6c-.9-3.89-3.12-6.72-6-7.11-4.44-.61-8.83,4.63-9.79,11.7,0,.4-.09.79-.12,1.18-3-1.4-6-1.46-8,.16-3.5,2.81-2.71,9.6,1.77,15.16l.45.52a36.57,36.57,0,0,0-27.42,45.3Z"/><path class="cls-2" d="M327.15,100c0-.48,0-1,0-1.43A31.62,31.62,0,0,0,295.56,67a31.2,31.2,0,0,0-5.23.44,27.71,27.71,0,0,0-6.1-6.13c3.21-.21,5.48-1,5.59-2.23.15-1.67-4-3.41-9.24-3.89l-1-.08c1.21-3.23,1-6.33-.94-8-2.78-2.45-8.06-1-12.08,3.11a34.62,34.62,0,0,0-52.81-18.6A25.25,25.25,0,0,0,215,26.21c.86-6.84-1-12.71-4.21-13.12s-6.47,4.82-7.33,11.66a25.56,25.56,0,0,0-.2,3.85A31.61,31.61,0,0,0,154.1,26c.05-5.44-1.71-9.7-4.41-10-3.18-.4-6.47,4.82-7.33,11.66-.09.71-.14,1.42-.17,2.11-1.51-1.23-3-1.71-4.12-1.16-1.88.93-2.07,4.5-.63,8.47a31.6,31.6,0,0,0-29.6,5.17c-.78-3.36-2.69-5.8-5.22-6.15-3.84-.52-7.64,4-8.47,10.12,0,.35-.08.68-.1,1-2.63-1.21-5.23-1.26-7,.14-3,2.43-2.33,8.3,1.54,13.11.12.16.26.3.39.46A31.6,31.6,0,0,0,65.29,100Z"/><path class="cls-3" d="M217,100.55c0-.39,0-.78,0-1.18a26.09,26.09,0,0,0-26.09-26.09,26.57,26.57,0,0,0-4.31.36,23,23,0,0,0-5-5.06c2.65-.17,4.53-.85,4.61-1.84.13-1.38-3.28-2.81-7.62-3.21l-.85-.06c1-2.67.81-5.22-.77-6.61-2.29-2-6.65-.86-10,2.57A28.58,28.58,0,0,0,123.4,44.07a19.79,19.79,0,0,0,1.06-4.44c.71-5.64-.84-10.49-3.47-10.82s-5.34,4-6,9.62a21.83,21.83,0,0,0-.17,3.18A26.09,26.09,0,0,0,74.2,39.42c0-4.49-1.41-8-3.64-8.28-2.63-.34-5.34,4-6,9.62-.07.59-.12,1.17-.14,1.74-1.25-1-2.48-1.41-3.4-1-1.55.77-1.71,3.72-.52,7A26.1,26.1,0,0,0,36,52.8C35.38,50,33.8,48,31.72,47.73c-3.18-.44-6.3,3.3-7,8.35q-.06.42-.09.84c-2.17-1-4.31-1.05-5.75.11C16.4,59,17,63.88,20.16,67.85c.1.13.22.25.32.38A26.1,26.1,0,0,0,.91,100.55Z"/><path class="cls-4" d="M200.46,100.18c0-.34,0-.68,0-1a22.58,22.58,0,0,0-22.57-22.57,21.83,21.83,0,0,0-3.73.32,19.48,19.48,0,0,0-4.36-4.38c2.29-.15,3.92-.74,4-1.59.1-1.19-2.85-2.43-6.6-2.78l-.73,0c.86-2.31.69-4.51-.67-5.72-2-1.74-5.75-.73-8.62,2.23a24.71,24.71,0,0,0-37.69-13.28,17.85,17.85,0,0,0,.92-3.84c.61-4.88-.73-9.07-3-9.36s-4.61,3.44-5.23,8.32a18.57,18.57,0,0,0-.14,2.75A22.56,22.56,0,0,0,77,47.31c0-3.88-1.22-6.92-3.14-7.16-2.28-.29-4.62,3.44-5.23,8.32-.07.51-.11,1-.13,1.51-1.08-.88-2.14-1.23-2.94-.83-1.34.66-1.47,3.21-.45,6A22.57,22.57,0,0,0,44,58.88c-.56-2.4-1.92-4.14-3.72-4.39-2.75-.37-5.45,2.87-6.05,7.23,0,.24,0,.48-.07.72-1.88-.86-3.73-.9-5,.1-2.16,1.74-1.67,5.93,1.09,9.36l.28.32a22.57,22.57,0,0,0-17.71,22,22.26,22.26,0,0,0,.79,5.92Z"/></g></g></svg>