<svg xmlns="http://www.w3.org/2000/svg" viewBox="0 0 761.28 111.16"><defs><style>.cls-1{isolation:isolate;}.cls-2,.cls-3{fill:#346d29;}.cls-3,.cls-7,.cls-9{mix-blend-mode:screen;}.cls-4{fill:#3aa025;}.cls-5{fill:#266718;}.cls-6,.cls-7{fill:#122d0b;}.cls-8,.cls-9{fill:#234d1a;}</style></defs><title>graes4</title><g class="cls-1"><g id="Layer_2" data-name="Layer 2"><g id="Layer_6" data-name="Layer 6"><polygon class="cls-2" points="180.31 41.59 179.35 2.84 179.34 3.04 178.19 80.3 178.19 80.3 181.27 80.34 180.31 41.59"/><polygon class="cls-3" points="177.22 41.55 179.34 2.84 179.34 3.04 178.19 80.3 178.18 80.3 175.1 80.25 177.22 41.55"/><polygon class="cls-2" points="226.3 52.94 225.34 14.19 225.33 14.38 224.17 91.64 224.18 91.64 227.26 91.69 226.3 52.94"/><polygon class="cls-3" points="223.21 52.89 225.33 14.19 225.33 14.38 224.17 91.64 224.17 91.64 221.09 91.6 223.21 52.89"/><path class="cls-2" d="M276.11,64.15c-1-6.4-1.89-12.77-2.43-19.21s-.83-12.91-1-19.38v.19c-1.21,25.91,5.07,51.43,3.83,77.34h0l3.09,0c-.19-6.52-.47-13-1-19.57S277.11,70.55,276.11,64.15Z" transform="translate(0 -0.01)"/><path class="cls-3" d="M273,64.5c-.49-6.47-.88-13-.9-19.49s.19-13,.52-19.45v.19c-1.21,25.91,5.07,51.43,3.83,77.34h0l-3.09,0c.33-6.42.56-12.85.52-19.26S273.52,71,273,64.5Z" transform="translate(0 -0.01)"/><path class="cls-2" d="M308.45,67.13c-.74-4.78-1.4-9.54-1.81-14.35s-.62-9.64-.76-14.47v.14c-.9,19.35,3.79,38.41,2.86,57.76h0l2.3,0c-.14-4.87-.35-9.75-.76-14.61S309.2,71.91,308.45,67.13Z" transform="translate(0 -0.01)"/><path class="cls-3" d="M306.15,67.39c-.36-4.83-.65-9.7-.67-14.55s.14-9.7.39-14.53v.14c-.9,19.35,3.79,38.41,2.86,57.76h0l-2.31,0c.25-4.79.42-9.59.39-14.38S306.52,72.21,306.15,67.39Z" transform="translate(0 -0.01)"/><path class="cls-2" d="M341.22,70.18c-.44-6.36-.7-12.72-.85-19.11v.1c-.31,12.72.51,25.43.19,38.15h0l1.52,0C341.92,83,341.65,76.55,341.22,70.18Z" transform="translate(0 -0.01)"/><path class="cls-3" d="M339.69,70.22c.07-6.39.32-12.78.67-19.15v.1c-.31,12.72.51,25.43.19,38.15h0l-1.52,0C339.38,82.94,339.62,76.59,339.69,70.22Z" transform="translate(0 -0.01)"/><path class="cls-4" d="M378.49,91.6c.44-29.54-.73-29.55-.29-59.09" transform="translate(0 -0.01)"/><path class="cls-4" d="M418.11,93.9c.59-39.95-5.13-40-4.54-80" transform="translate(0 -0.01)"/><path class="cls-5" d="M313.56,96.89c.51-34.44-4.42-34.51-3.91-68.95" transform="translate(0 -0.01)"/><path class="cls-6" d="M313,62.24c-1-5.68-1.85-11.33-2.38-17.06s-.81-11.47-1-17.24v.17c-1.15,23.07,5.1,45.71,3.91,68.78h0l2.85,0c-.18-5.82-.45-11.63-1-17.44S314,67.92,313,62.24Z" transform="translate(0 -0.01)"/><path class="cls-7" d="M310.19,62.6c-.51-5.75-.92-11.56-1-17.34s.14-11.56.44-17.32v.17c-1.15,23.07,5.1,45.71,3.91,68.78h0l-2.85,0c.29-5.71.5-11.42.43-17.12S310.7,68.34,310.19,62.6Z" transform="translate(0 -0.01)"/><path class="cls-6" d="M206.92,99.85c.43-28.92,1.86-28.9,2.29-57.82" transform="translate(0 -0.01)"/><path class="cls-6" d="M209.22,71c.28-9.66.24-19.34,0-29v.14c-.05,19.26-2.25,38.43-2.29,57.68h0l2.3,0C209,90.26,208.93,80.66,209.22,71Z" transform="translate(0 -0.01)"/><path class="cls-7" d="M206.91,70.87c1.05-9.59,1.78-19.2,2.29-28.84v.14c-.05,19.26-2.25,38.43-2.29,57.68h0l-2.29,0C205.13,90.16,205.86,80.47,206.91,70.87Z" transform="translate(0 -0.01)"/><path class="cls-6" d="M160.85,92.92c.44-30.15,1.94-30.13,2.38-60.28" transform="translate(0 -0.01)"/><path class="cls-6" d="M163.24,62.86c.3-10.07.26-20.16,0-30.22v.15c0,20.08-2.34,40.06-2.38,60.13h0l2.4,0C163,82.92,162.94,72.91,163.24,62.86Z" transform="translate(0 -0.01)"/><path class="cls-7" d="M160.84,62.71c1.09-10,1.85-20,2.39-30.07v.15c0,20.08-2.34,40.06-2.38,60.13h0l-2.39,0C159,82.82,159.74,72.72,160.84,62.71Z" transform="translate(0 -0.01)"/><path class="cls-6" d="M115.78,54.49c-.69-5.2-1.3-10.37-1.69-15.59s-.6-10.45-.75-15.7v.16c-.86,21,3.29,41.7,2.41,62.64h0l2.5,0c-.15-5.27-.36-10.55-.76-15.82S116.48,59.69,115.78,54.49Z" transform="translate(0 -0.01)"/><path class="cls-7" d="M113.29,54.72c-.28-5.24-.49-10.52-.46-15.78s.23-10.5.5-15.74v.16c-.86,21,3.29,41.7,2.41,62.64h0l-2.5,0c.27-5.21.48-10.42.5-15.62S113.56,60,113.29,54.72Z" transform="translate(0 -0.01)"/><path class="cls-6" d="M132.48,54.86c-.69-5.2-1.31-10.37-1.69-15.59s-.6-10.45-.75-15.7v.16c-.86,21,3.29,41.7,2.4,62.64h0l2.5,0c-.15-5.27-.36-10.55-.76-15.82S133.17,60.06,132.48,54.86Z" transform="translate(0 -0.01)"/><path class="cls-7" d="M130,55.09c-.27-5.24-.48-10.52-.45-15.78s.23-10.5.5-15.74v.16c-.86,21,3.29,41.7,2.4,62.64h0l-2.5,0c.27-5.2.48-10.41.5-15.61S130.26,60.32,130,55.09Z" transform="translate(0 -0.01)"/><path class="cls-6" d="M150.18,55.13a145.7,145.7,0,0,1-2.81-15.46c-.62-5.21-.91-10.47-1.07-15.73v.15C145,45.25,153,65.61,151.59,86.78h0l2.51,0c-.17-5.32-.45-10.66-1.08-16A148.33,148.33,0,0,0,150.18,55.13Z" transform="translate(0 -0.01)"/><path class="cls-7" d="M147.7,55.58a146.69,146.69,0,0,1-1.59-15.81c-.21-5.29-.08-10.57.18-15.83v.15C145,45.25,153,65.61,151.59,86.78h0l-2.5,0c.25-5.2.39-10.41.18-15.6A142.09,142.09,0,0,0,147.7,55.58Z" transform="translate(0 -0.01)"/><path class="cls-6" d="M230.85,61.37a129.33,129.33,0,0,1-2.5-13.76c-.56-4.64-.81-9.33-.95-14v.14c-1.18,18.85,5.93,37,4.72,55.83h0l2.24,0c-.15-4.74-.4-9.49-1-14.22A129.74,129.74,0,0,0,230.85,61.37Z" transform="translate(0 -0.01)"/><path class="cls-7" d="M228.64,61.78a132.66,132.66,0,0,1-1.41-14.08c-.19-4.72-.07-9.42.15-14.11v.14c-1.18,18.85,5.93,37,4.72,55.83h0l-2.23,0c.22-4.64.35-9.27.16-13.89A125.34,125.34,0,0,0,228.64,61.78Z" transform="translate(0 -0.01)"/><path class="cls-6" d="M312.8,67.91c.23-4.09.42-8.2.47-12.3s0-8.2-.1-12.29v.12c.09,16.35-2.78,32.53-2.68,48.87h0l1.95,0c-.09-4.07-.15-8.15-.09-12.21S312.57,72,312.8,67.91Z" transform="translate(0 -0.01)"/><path class="cls-7" d="M310.85,67.72c.55-4,1.06-8.09,1.43-12.16s.65-8.16.88-12.24v.12c.09,16.35-2.78,32.53-2.68,48.87h0l-1.94,0c.23-4.1.5-8.21.88-12.31S310.29,71.78,310.85,67.72Z" transform="translate(0 -0.01)"/><path class="cls-8" d="M317.53,57.58c.29-5.27.54-10.58.6-15.87s0-10.57-.12-15.85V26c.11,21.08-3.59,42-3.47,63h0l2.51,0c-.12-5.26-.19-10.51-.12-15.76S317.23,62.85,317.53,57.58Z" transform="translate(0 -0.01)"/><path class="cls-9" d="M315,57.34c.71-5.23,1.37-10.44,1.85-15.69s.83-10.52,1.14-15.79V26c.11,21.08-3.59,42-3.47,63h0L312,89c.3-5.29.65-10.59,1.14-15.88S314.3,62.57,315,57.34Z" transform="translate(0 -0.01)"/><path class="cls-2" d="M317.67,47.21c.46-6.46.84-13,.95-19.44s.06-13-.08-19.43v.19c.23,25.85-5,51.36-4.8,77.21h0l3.08.05c-.14-6.44-.21-12.87-.09-19.29S317.21,53.66,317.67,47.21Z" transform="translate(0 -0.01)"/><path class="cls-3" d="M314.59,46.87c1-6.39,1.85-12.77,2.48-19.2s1.08-12.87,1.45-19.33v.19c.23,25.85-5,51.36-4.8,77.21h0l-3.08,0c.37-6.49.81-13,1.45-19.47S313.62,53.27,314.59,46.87Z" transform="translate(0 -0.01)"/><path class="cls-2" d="M363.66,58.55c.45-6.46.84-12.95.95-19.44s.06-13-.08-19.43v.19c.22,25.86-5,51.36-4.81,77.21h0l3.08,0c-.14-6.43-.22-12.87-.09-19.29S363.2,65,363.66,58.55Z" transform="translate(0 -0.01)"/><path class="cls-3" d="M360.58,58.21c1-6.39,1.85-12.76,2.48-19.19s1.08-12.88,1.45-19.34v.19c.22,25.86-5,51.36-4.81,77.21h0l-3.08,0c.37-6.5.81-13,1.45-19.48S359.61,64.61,360.58,58.21Z" transform="translate(0 -0.01)"/><path class="cls-2" d="M412.09,70c.72-6.44,1.34-12.95,1.58-19.45s.22-13,.09-19.47v.2c.48,25.94-6.9,51.23-6.39,77.18h0l3.09,0c-.14-6.43-.18-12.86.07-19.27S411.37,76.43,412.09,70Z" transform="translate(0 -0.01)"/><path class="cls-3" d="M409,69.53c1.23-6.35,2.35-12.69,3.1-19.11s1.24-12.88,1.62-19.35v.2c.48,25.94-6.9,51.23-6.39,77.18h0l-3.08,0c.38-6.52.86-13,1.63-19.55S407.79,75.9,409,69.53Z" transform="translate(0 -0.01)"/><path class="cls-2" d="M444.26,72.87c.55-4.81,1-9.68,1.19-14.53s.16-9.7.06-14.54V44c.36,19.37-5.15,38.26-4.77,57.64h0l2.3,0c-.1-4.81-.13-9.61.06-14.39S443.72,77.68,444.26,72.87Z" transform="translate(0 -0.01)"/><path class="cls-3" d="M442,72.52c.92-4.74,1.76-9.48,2.32-14.27s.93-9.62,1.21-14.45V44c.36,19.37-5.15,38.26-4.77,57.64h0l-2.31,0c.29-4.87.65-9.74,1.22-14.6S441.05,77.28,442,72.52Z" transform="translate(0 -0.01)"/><polygon class="cls-2" points="478.24 75.66 477.73 56.53 477.72 56.62 477.22 94.77 477.23 94.77 478.75 94.79 478.24 75.66"/><polygon class="cls-3" points="476.71 75.64 477.72 56.53 477.72 56.62 477.22 94.77 477.22 94.77 475.7 94.75 476.71 75.64"/><path class="cls-4" d="M515.91,97.06c.43-29.53.33-29.54.76-59.07" transform="translate(0 -0.01)"/><path class="cls-4" d="M545.61,99.22c.59-40,4.39-39.9,5-79.85" transform="translate(0 -0.01)"/><path class="cls-5" d="M442.14,102.23c.51-34.44,3.79-34.4,4.29-68.83" transform="translate(0 -0.01)"/><path class="cls-6" d="M445.71,68c.4-5.75.74-11.53.83-17.29s0-11.53-.1-17.28v.17c.21,23-4.51,45.66-4.29,68.66h0l2.84,0c-.13-5.72-.21-11.44-.1-17.15S445.31,73.71,445.71,68Z" transform="translate(0 -0.01)"/><path class="cls-7" d="M442.87,67.65c.87-5.68,1.67-11.35,2.24-17.06s1-11.45,1.32-17.19v.17c.21,23-4.51,45.66-4.29,68.66h0l-2.85,0c.34-5.77.74-11.55,1.32-17.32S442,73.34,442.87,67.65Z" transform="translate(0 -0.01)"/><path class="cls-6" d="M338.83,105.23c.42-28.92,1.49-28.9,1.92-57.83" transform="translate(0 -0.01)"/><path class="cls-6" d="M340.94,76.38c.15-9.66.06-19.33-.18-29v.15c-.11,19.24-1.82,38.44-1.92,57.68h0l2.3,0C340.88,95.63,340.79,86,340.94,76.38Z" transform="translate(0 -0.01)"/><path class="cls-7" d="M338.64,76.26c.91-9.6,1.59-19.22,2.1-28.86v.15c-.11,19.24-1.82,38.44-1.92,57.68h0l-2.3,0C337,95.55,337.72,85.87,338.64,76.26Z" transform="translate(0 -0.01)"/><path class="cls-6" d="M292.61,98.3c.45-30.15,1.56-30.13,2-60.28" transform="translate(0 -0.01)"/><path class="cls-6" d="M294.82,68.22c.15-10.07.06-20.15-.2-30.2v.15c-.1,20.06-1.9,40.07-2,60.13h0l2.39,0C294.75,88.29,294.66,78.28,294.82,68.22Z" transform="translate(0 -0.01)"/><path class="cls-7" d="M292.41,68.1c1-10,1.66-20,2.2-30.08v.15c-.1,20.06-1.9,40.07-2,60.13h0l-2.4,0C290.75,88.2,291.46,78.12,292.41,68.1Z" transform="translate(0 -0.01)"/><path class="cls-6" d="M253.07,60c-.56-5.21-1-10.4-1.37-15.62s-.52-10.45-.66-15.69v.16c-.72,20.91,2.31,41.72,1.57,62.63h0l2.5,0c-.14-5.26-.33-10.52-.66-15.78S253.62,65.19,253.07,60Z" transform="translate(0 -0.01)"/><path class="cls-7" d="M250.56,60.14c-.13-5.24-.22-10.5-.12-15.75s.31-10.49.59-15.72v.16c-.72,20.91,2.31,41.72,1.57,62.63h0l-2.49,0c.27-5.21.5-10.42.58-15.63S250.7,65.38,250.56,60.14Z" transform="translate(0 -0.01)"/><path class="cls-6" d="M350.33,66.58c-.49-4.64-.93-9.26-1.22-13.91s-.46-9.31-.59-14v.14c-.65,18.62,2.05,37.16,1.39,55.78h0l2.22,0c-.13-4.68-.3-9.37-.59-14.06S350.82,71.22,350.33,66.58Z" transform="translate(0 -0.01)"/><path class="cls-7" d="M348.1,66.72c-.12-4.66-.19-9.35-.11-14s.28-9.34.52-14v.14c-.65,18.62,2.05,37.16,1.39,55.78h0l-2.22,0c.24-4.64.44-9.28.52-13.92S348.22,71.39,348.1,66.72Z" transform="translate(0 -0.01)"/><path class="cls-6" d="M446.45,73.34c.35-4.08.64-8.2.74-12.31s.07-8.2,0-12.3v.12c.2,16.38-3.58,32.48-3.37,48.86h0l1.95,0c-.09-4.07-.13-8.14,0-12.2S446.11,77.42,446.45,73.34Z" transform="translate(0 -0.01)"/><path class="cls-7" d="M444.51,73.1c.66-4,1.27-8.06,1.7-12.13s.71-8.15,1-12.24v.12c.2,16.38-3.58,32.48-3.37,48.86h0l-2,0c.23-4.11.52-8.23,1-12.34S443.84,77.14,444.51,73.1Z" transform="translate(0 -0.01)"/><path class="cls-8" d="M405.92,58.92c.45-5.27.82-10.58.95-15.87s.09-10.59,0-15.88v.16c.26,21.13-4.62,41.9-4.35,63h0l2.51,0c-.11-5.25-.16-10.5,0-15.74S405.48,64.19,405.92,58.92Z" transform="translate(0 -0.01)"/><path class="cls-9" d="M403.41,58.61c.86-5.21,1.65-10.4,2.19-15.65s.93-10.51,1.24-15.79v.16c.26,21.13-4.62,41.9-4.35,63h0l-2.51,0c.31-5.3.67-10.62,1.24-15.92S402.55,63.83,403.41,58.61Z" transform="translate(0 -0.01)"/><path class="cls-2" d="M369.67,44.32c-.48-6.44-.91-12.87-1.21-19.32s-.51-12.91-.69-19.37v.2c-.7,25.77,1.42,51.51.71,77.29h0l3.08,0c-.17-6.48-.38-13-.69-19.44S370.15,50.77,369.67,44.32Z" transform="translate(0 -0.01)"/><path class="cls-3" d="M366.58,44.43c0-6.47.11-12.95.32-19.42s.52-12.92.86-19.38v.2c-.7,25.77,1.42,51.51.71,77.29h0l-3.08-.05C366.11,70.19,366.56,57.34,366.58,44.43Z" transform="translate(0 -0.01)"/><path class="cls-2" d="M415.66,55.67c-.48-6.45-.91-12.88-1.21-19.33s-.52-12.9-.69-19.36v.19c-.69,25.77,1.43,51.52.72,77.29h0l3.08.05c-.17-6.48-.38-13-.69-19.44S416.14,62.11,415.66,55.67Z" transform="translate(0 -0.01)"/><path class="cls-3" d="M412.57,55.77c0-6.46.11-13,.32-19.41s.52-12.93.86-19.38v.19c-.69,25.77,1.43,51.52.72,77.29h0l-3.07,0C412.1,81.54,412.55,68.69,412.57,55.77Z" transform="translate(0 -0.01)"/><path class="cls-2" d="M459.2,67.17c.36-6.46.65-13,.73-19.43s0-13-.15-19.42v.19c.13,25.83-4.38,51.4-4.23,77.22h0l3.07,0c-.14-6.44-.23-12.87-.15-19.3S458.83,73.63,459.2,67.17Z" transform="translate(0 -0.01)"/><path class="cls-3" d="M456.11,66.88c.88-6.4,1.68-12.79,2.27-19.22s1-12.88,1.38-19.34v.19c.13,25.83-4.38,51.4-4.23,77.22h0l-3.08,0c.37-6.49.8-13,1.39-19.46S455.24,73.29,456.11,66.88Z" transform="translate(0 -0.01)"/><path class="cls-2" d="M491,70.06c.27-4.82.49-9.67.55-14.51s0-9.67-.12-14.5v.14c.1,19.29-3.27,38.38-3.16,57.67h0l2.3,0c-.11-4.81-.17-9.62-.11-14.42S490.76,74.89,491,70.06Z" transform="translate(0 -0.01)"/><path class="cls-3" d="M488.73,69.85c.65-4.79,1.25-9.56,1.69-14.36s.76-9.62,1-14.44v.14c.1,19.29-3.27,38.38-3.16,57.67h0l-2.3,0c.28-4.85.6-9.69,1-14.53S488.08,74.63,488.73,69.85Z" transform="translate(0 -0.01)"/><path class="cls-2" d="M521.43,72.82c-.66-6.34-1-12.7-1.17-19.09v.1c-.42,12.73,1.24,25.42.81,38.16h0l1.52,0C522.44,85.61,522.09,79.18,521.43,72.82Z" transform="translate(0 -0.01)"/><path class="cls-3" d="M519.9,72.9c-.16-6.39,0-12.8.36-19.17v.1c-.42,12.73,1.24,25.42.81,38.16h0l-1.52,0C519.9,85.61,520.06,79.28,519.9,72.9Z" transform="translate(0 -0.01)"/><path class="cls-4" d="M558.71,94.26c.44-29.53-1.69-29.57-1.25-59.1" transform="translate(0 -0.01)"/><path class="cls-4" d="M593.21,96.49c.59-40,1.21-39.95,1.8-79.9" transform="translate(0 -0.01)"/><path class="cls-5" d="M489.49,99.49c.5-34.44,1-34.43,1.55-68.87" transform="translate(0 -0.01)"/><path class="cls-6" d="M491.69,65.1q-.17-17.23-.65-34.48v.17c-.24,22.91-1.3,45.8-1.54,68.7h0l2.84,0Q491.88,82.31,491.69,65.1Z" transform="translate(0 -0.01)"/><path class="cls-7" d="M488.83,65q1.26-17.18,2.2-34.39v.17c-.24,22.91-1.3,45.8-1.54,68.7h0l-2.84,0Q487.6,82.23,488.83,65Z" transform="translate(0 -0.01)"/><path class="cls-6" d="M385.42,102.49c.42-28.92,5.57-28.85,6-57.77" transform="translate(0 -0.01)"/><path class="cls-6" d="M389.56,73.82c.74-4.79,1.39-9.66,1.67-14.52s.29-9.73.2-14.58v.14c.55,19.48-6.59,38.15-6,57.63h0l2.31,0c-.09-4.8-.09-9.6.19-14.38S388.81,78.62,389.56,73.82Z" transform="translate(0 -0.01)"/><path class="cls-7" d="M387.28,73.38c1.12-4.71,2.13-9.41,2.78-14.2s1.06-9.62,1.35-14.46v.14c.55,19.48-6.59,38.15-6,57.63h0l-2.31,0c.29-4.9.68-9.79,1.36-14.66S386.16,78.1,387.28,73.38Z" transform="translate(0 -0.01)"/><path class="cls-6" d="M339.24,95.56c.44-30.15,5.81-30.07,6.25-60.22" transform="translate(0 -0.01)"/><path class="cls-6" d="M343.55,65.68c.78-5,1.45-10.08,1.74-15.15s.31-10.14.21-15.19v.15c.58,20.3-6.86,39.76-6.25,60.07h0l2.41,0c-.1-5-.1-10,.2-15S342.78,70.67,343.55,65.68Z" transform="translate(0 -0.01)"/><path class="cls-7" d="M341.18,65.22c1.17-4.92,2.22-9.82,2.9-14.81s1.11-10,1.41-15.07v.15c.58,20.3-6.86,39.76-6.25,60.07h0l-2.41,0c.31-5.1.71-10.2,1.42-15.28S340,70.14,341.18,65.22Z" transform="translate(0 -0.01)"/><path class="cls-6" d="M300.93,57.3c-.81-10.43-1.28-20.87-1.53-31.35v.16c-.56,20.88,1.15,41.74.58,62.61h0l2.49,0C302.22,78.27,301.75,67.74,300.93,57.3Z" transform="translate(0 -0.01)"/><path class="cls-7" d="M298.43,57.38c0-10.48.38-21,1-31.43v.16c-.56,20.88,1.15,41.74.58,62.61h0l-2.49,0C298.05,78.25,298.41,67.85,298.43,57.38Z" transform="translate(0 -0.01)"/><path class="cls-6" d="M317.63,57.67c-.81-10.43-1.28-20.87-1.53-31.35v.16c-.56,20.88,1.15,41.73.58,62.61h0l2.5,0C318.91,78.64,318.44,68.11,317.63,57.67Z" transform="translate(0 -0.01)"/><path class="cls-7" d="M315.13,57.75c0-10.49.38-21,1-31.43v.16c-.56,20.88,1.15,41.73.58,62.61h0l-2.49,0C314.75,78.62,315.11,68.21,315.13,57.75Z" transform="translate(0 -0.01)"/><path class="cls-6" d="M333.59,58c-.6-5.2-1.14-10.39-1.48-15.61s-.55-10.45-.69-15.69v.16c-.77,20.92,2.65,41.71,1.86,62.63h0l2.49,0c-.14-5.27-.34-10.53-.69-15.8S334.19,63.18,333.59,58Z" transform="translate(0 -0.01)"/><path class="cls-7" d="M331.09,58.16c-.19-5.24-.31-10.51-.24-15.76s.29-10.5.56-15.73v.16c-.77,20.92,2.65,41.71,1.86,62.63h0l-2.49,0c.27-5.2.49-10.41.55-15.62S331.28,63.4,331.09,58.16Z" transform="translate(0 -0.01)"/><path class="cls-6" d="M414,64.2c-.54-4.63-1-9.25-1.32-13.9s-.49-9.31-.62-14v.14c-.69,18.63,2.35,37.15,1.65,55.78h0l2.22,0c-.13-4.69-.31-9.38-.62-14.07S414.54,68.84,414,64.2Z" transform="translate(0 -0.01)"/><path class="cls-7" d="M411.78,64.36c-.17-4.66-.28-9.36-.21-14s.25-9.35.49-14v.14c-.69,18.63,2.35,37.15,1.65,55.78h0l-2.22,0c.24-4.64.44-9.28.5-13.91S411.94,69,411.78,64.36Z" transform="translate(0 -0.01)"/><path class="cls-6" d="M493.82,70.55c.24-8.19.21-16.39,0-24.56v.12c0,16.32-1.91,32.56-1.94,48.88h0l1.94,0C493.61,86.86,493.58,78.72,493.82,70.55Z" transform="translate(0 -0.01)"/><path class="cls-7" d="M491.87,70.43c.89-8.13,1.5-16.27,1.94-24.44v.12c0,16.32-1.91,32.56-1.94,48.88h0l-1.95,0C490.36,86.78,491,78.56,491.87,70.43Z" transform="translate(0 -0.01)"/><path class="cls-8" d="M498.53,60.22c.32-10.57.27-21.15,0-31.69v.15c0,21-2.46,42-2.5,63.06h0l2.51,0C498.27,81.25,498.22,70.76,498.53,60.22Z" transform="translate(0 -0.01)"/><path class="cls-9" d="M496,60.05c1.15-10.48,1.94-21,2.51-31.52v.15c0,21-2.46,42-2.5,63.06h0l-2.51,0C494.07,81.14,494.86,70.55,496,60.05Z" transform="translate(0 -0.01)"/><path class="cls-2" d="M501.69,50c.67-6.45,1.25-13,1.47-19.45s.19-13,0-19.46v.19c.44,25.93-6.57,51.26-6.1,77.19h0l3.09,0c-.14-6.43-.18-12.85,0-19.27S501,56.42,501.69,50Z" transform="translate(0 -0.01)"/><path class="cls-3" d="M498.62,49.54c1.18-6.37,2.26-12.71,3-19.13s1.21-12.88,1.59-19.34v.19c.44,25.93-6.57,51.26-6.1,77.19h0l-3.09,0c.38-6.51.86-13,1.61-19.53S497.43,55.91,498.62,49.54Z" transform="translate(0 -0.01)"/><path class="cls-2" d="M547.67,61.32c.68-6.45,1.26-13,1.48-19.45s.19-13,.05-19.46v.19c.44,25.93-6.57,51.26-6.11,77.19h0l3.09,0c-.14-6.43-.19-12.86,0-19.27S547,67.76,547.67,61.32Z" transform="translate(0 -0.01)"/><path class="cls-3" d="M544.61,60.88c1.18-6.36,2.26-12.71,3-19.13s1.22-12.87,1.6-19.34v.19c.44,25.93-6.57,51.26-6.11,77.19h0l-3.09,0c.38-6.52.85-13,1.6-19.53S543.42,67.25,544.61,60.88Z" transform="translate(0 -0.01)"/><path class="cls-2" d="M594.26,72.84a157.34,157.34,0,0,0,3.11-19.44,189,189,0,0,0,.52-19.61V34C599,60.3,586.49,84.8,587.61,111.12h0l3.11,0a184.38,184.38,0,0,1,.49-19.25A151.22,151.22,0,0,1,594.26,72.84Z" transform="translate(0 -0.01)"/><path class="cls-3" d="M591.23,72.08a153.11,153.11,0,0,0,4.58-18.88,184.49,184.49,0,0,0,2.06-19.41V34C599,60.3,586.49,84.8,587.61,111.12h0l-3.11-.05a187.59,187.59,0,0,1,2.09-19.75A155,155,0,0,1,591.23,72.08Z" transform="translate(0 -0.01)"/><path class="cls-2" d="M626.16,75.67a118.29,118.29,0,0,0,2.32-14.52,140.4,140.4,0,0,0,.39-14.64v.15c.8,19.65-8.51,37.94-7.67,57.6h0l2.32,0a134.92,134.92,0,0,1,.37-14.37A111.11,111.11,0,0,1,626.16,75.67Z" transform="translate(0 -0.01)"/><path class="cls-3" d="M623.9,75.1A116.28,116.28,0,0,0,627.32,61a140.05,140.05,0,0,0,1.53-14.49v.15c.8,19.65-8.51,37.94-7.67,57.6h0l-2.32,0a141,141,0,0,1,1.55-14.75A116.23,116.23,0,0,1,623.9,75.1Z" transform="translate(0 -0.01)"/><path class="cls-2" d="M659.28,78.28C658.56,72,658.19,65.59,658,59.2v.1c-.44,12.74,1.43,25.42,1,38.16h0l1.52,0C660.38,91.08,660,84.63,659.28,78.28Z" transform="translate(0 -0.01)"/><path class="cls-3" d="M657.76,78.38c-.22-6.39-.09-12.81.27-19.18v.1c-.44,12.74,1.43,25.42,1,38.16h0l-1.52,0C657.84,91.08,658,84.76,657.76,78.38Z" transform="translate(0 -0.01)"/><path class="cls-6" d="M593.17,102.74c.35-24-1.58-24-1.23-48.07" transform="translate(0 -0.01)"/><path class="cls-8" d="M593.51,78.64c-.42-4-.81-8-1-12s-.4-8-.51-12v.12c-.56,16,1.8,31.94,1.23,47.95h0l1.91,0c-.11-4-.25-8.06-.51-12.09S593.94,82.63,593.51,78.64Z" transform="translate(0 -0.01)"/><path class="cls-9" d="M591.6,78.77c-.11-4-.18-8-.11-12.07s.24-8,.45-12v.12c-.56,16,1.8,31.94,1.23,47.95h0l-1.91,0c.21-4,.38-8,.45-12S591.71,82.78,591.6,78.77Z" transform="translate(0 -0.01)"/><path class="cls-6" d="M521,107.93c.43-28.93,4.73-28.86,5.16-57.79" transform="translate(0 -0.01)"/><path class="cls-6" d="M524.7,79.22c.61-4.81,1.13-9.67,1.34-14.53s.21-9.71.11-14.55v.15c.42,19.4-5.61,38.23-5.16,57.64h0l2.31,0c-.1-4.8-.12-9.6.1-14.39S524.1,84,524.7,79.22Z" transform="translate(0 -0.01)"/><path class="cls-7" d="M522.42,78.85c1-4.74,1.87-9.46,2.46-14.26s1-9.61,1.26-14.45v.15c.42,19.4-5.61,38.23-5.16,57.64h0l-2.3,0c.28-4.88.65-9.75,1.26-14.61S521.43,83.59,522.42,78.85Z" transform="translate(0 -0.01)"/><path class="cls-6" d="M474.81,101c.44-30.15,4.94-30.08,5.38-60.23" transform="translate(0 -0.01)"/><path class="cls-6" d="M478.69,71.07c.63-5,1.18-10.08,1.39-15.14s.22-10.12.12-15.17v.15c.44,20.23-5.85,39.85-5.38,60.08h0l2.41,0c-.1-5-.13-10,.1-15S478.06,76.08,478.69,71.07Z" transform="translate(0 -0.01)"/><path class="cls-7" d="M476.31,70.68c1-4.94,1.95-9.86,2.57-14.86s1-10,1.3-15.06v.15c.44,20.23-5.85,39.85-5.38,60.08h0l-2.4,0c.3-5.09.68-10.17,1.32-15.24S475.28,75.62,476.31,70.68Z" transform="translate(0 -0.01)"/><path class="cls-6" d="M435.73,62.92c.49-5.22.89-10.49,1-15.75s.12-10.51,0-15.76v.16c.3,21-4.87,41.56-4.55,62.54h0l2.5,0c-.11-5.21-.16-10.42,0-15.62S435.25,68.15,435.73,62.92Z" transform="translate(0 -0.01)"/><path class="cls-7" d="M433.24,62.6c.9-5.17,1.71-10.31,2.27-15.52s.95-10.43,1.25-15.67v.16c.3,21-4.87,41.56-4.55,62.54h0l-2.5,0c.31-5.27.68-10.54,1.26-15.8S432.35,67.77,433.24,62.6Z" transform="translate(0 -0.01)"/><path class="cls-6" d="M532.82,69.49c.43-4.65.8-9.35.93-14s.1-9.36,0-14v.14c.26,18.68-4.34,37-4.06,55.7h0l2.22,0c-.1-4.64-.14-9.28,0-13.91S532.39,74.14,532.82,69.49Z" transform="translate(0 -0.01)"/><path class="cls-7" d="M530.6,69.2c.8-4.6,1.53-9.18,2-13.82s.84-9.29,1.11-14v.14c.26,18.68-4.34,37-4.06,55.7h0l-2.23,0c.27-4.69.6-9.39,1.12-14.07S529.81,73.81,530.6,69.2Z" transform="translate(0 -0.01)"/><path class="cls-6" d="M628,76.1a120.65,120.65,0,0,0,1.53-12.31c.27-4.13.28-8.25.2-12.36v.12c.51,16.53-5.9,32.3-5.36,48.83h0l2,0c-.08-4.07-.07-8.14.19-12.18A119.85,119.85,0,0,1,628,76.1Z" transform="translate(0 -0.01)"/><path class="cls-7" d="M626.09,75.71a118.56,118.56,0,0,0,2.46-12c.59-4.06.93-8.16,1.18-12.26v.12c.51,16.53-5.9,32.3-5.36,48.83h0l-2,0c.25-4.15.59-8.3,1.19-12.43A117.34,117.34,0,0,1,626.09,75.71Z" transform="translate(0 -0.01)"/><path class="cls-8" d="M329.51,67.58a156.32,156.32,0,0,0,2-15.89c.35-5.32.36-10.64.26-15.94v.15c.66,21.33-7.61,41.67-6.92,63h0l2.52,0c-.1-5.25-.09-10.5.25-15.72A149,149,0,0,1,329.51,67.58Z" transform="translate(0 -0.01)"/><path class="cls-9" d="M327,67.07a152.84,152.84,0,0,0,3.18-15.51c.76-5.23,1.2-10.52,1.52-15.81v.15c.66,21.33-7.61,41.67-6.92,63h0l-2.53,0c.32-5.35.76-10.71,1.53-16A152,152,0,0,1,327,67.07Z" transform="translate(0 -0.01)"/><path class="cls-2" d="M29,58.7c-.64-12.9-1.08-25.8-1.4-38.73v.2c-.53,25.76.26,51.52-.27,77.27h0l3.07,0Q29.89,78.1,29,58.7Z" transform="translate(0 -0.01)"/><path class="cls-3" d="M25.86,58.72c.38-12.92,1-25.85,1.67-38.75v.2c-.53,25.76.26,51.52-.27,77.27h0l-3.07,0C24.9,84.51,25.48,71.63,25.86,58.72Z" transform="translate(0 -0.01)"/><path class="cls-2" d="M61.57,61.64c-.48-9.63-.81-19.27-1-28.92v.14c-.39,19.24.2,38.48-.2,57.72h0l2.3,0C62.38,81,62.05,71.28,61.57,61.64Z" transform="translate(0 -0.01)"/><path class="cls-3" d="M59.26,61.66c.28-9.65.72-19.31,1.25-28.94v.14c-.39,19.24.2,38.48-.2,57.72h0l-2.3,0Q58.81,76.11,59.26,61.66Z" transform="translate(0 -0.01)"/><polygon class="cls-2" points="96.62 64.63 96.09 45.5 96.09 45.59 95.62 83.74 95.62 83.74 97.14 83.76 96.62 64.63"/><polygon class="cls-3" points="95.09 64.61 96.08 45.5 96.09 45.59 95.62 83.74 95.62 83.74 94.1 83.72 95.09 64.61"/><path class="cls-4" d="M134.19,86c.43-29.54.29-29.54.72-59.08" transform="translate(0 -0.01)"/><path class="cls-4" d="M164.26,88.19c.59-39.95,2.3-39.93,2.89-79.88" transform="translate(0 -0.01)"/><path class="cls-4" d="M112.57,87.43c.48-32.24,1.86-32.22,2.33-64.45" transform="translate(0 -0.01)"/><path class="cls-6" d="M115.07,55.28c.22-10.77.13-21.55-.16-32.3v.16c-.09,21.46-2.25,42.83-2.33,64.29h0l2.66,0C114.94,76.73,114.85,66,115.07,55.28Z" transform="translate(0 -0.01)"/><path class="cls-7" d="M112.4,55.13c1.11-10.69,1.9-21.4,2.5-32.15v.16c-.09,21.46-2.25,42.83-2.33,64.29h0l-2.66,0C110.5,76.63,111.29,65.84,112.4,55.13Z" transform="translate(0 -0.01)"/><path class="cls-6" d="M65.94,62.14c-.45-4.07-.85-8.12-1.11-12.2s-.42-8.17-.53-12.26v.12c-.58,16.34,1.93,32.59,1.34,48.93h0l2,0c-.11-4.11-.26-8.22-.53-12.34S66.39,66.21,65.94,62.14Z" transform="translate(0 -0.01)"/><path class="cls-7" d="M64,62.27c-.12-4.09-.2-8.21-.14-12.31s.24-8.19.45-12.28v.12c-.58,16.34,1.93,32.59,1.34,48.93h0l-2,0c.22-4.06.39-8.13.45-12.2S64.11,66.37,64,62.27Z" transform="translate(0 -0.01)"/><path class="cls-8" d="M70.44,51.76C69.86,46.52,69.34,41.29,69,36s-.54-10.53-.68-15.81v.16c-.75,21.07,2.49,42,1.72,63.12h0l2.51,0c-.14-5.31-.34-10.62-.68-15.92S71,57,70.44,51.76Z" transform="translate(0 -0.01)"/><path class="cls-9" d="M67.92,51.94c-.16-5.29-.27-10.59-.18-15.88s.3-10.58.58-15.85v.16c-.75,21.07,2.49,42,1.72,63.12h0l-2.51,0c.27-5.25.5-10.5.58-15.74S68.08,57.21,67.92,51.94Z" transform="translate(0 -0.01)"/><path class="cls-2" d="M75.54,41.38c-.77-6.42-1.46-12.82-1.89-19.26S73,9.21,72.78,2.75v.19c-1,25.83,3.46,51.48,2.45,77.32h0l3.08,0c-.18-6.5-.42-13-.87-19.51S76.31,47.8,75.54,41.38Z" transform="translate(0 -0.01)"/><path class="cls-3" d="M72.45,41.62c-.25-6.47-.43-13-.36-19.46s.34-12.95.67-19.41v.19c-1,25.83,3.46,51.48,2.45,77.32h0l-3.08-.05c.33-6.43.6-12.86.66-19.28S72.71,48.09,72.45,41.62Z" transform="translate(0 -0.01)"/><path class="cls-2" d="M121.53,52.72c-.77-6.42-1.46-12.82-1.89-19.26s-.7-12.9-.88-19.37v.19c-1,25.83,3.45,51.49,2.45,77.32h0l3.08.05c-.18-6.51-.43-13-.87-19.51S122.3,59.15,121.53,52.72Z" transform="translate(0 -0.01)"/><path class="cls-3" d="M118.44,53c-.26-6.47-.44-13-.36-19.46s.34-13,.67-19.42v.19c-1,25.83,3.45,51.49,2.45,77.32h0l-3.08,0c.33-6.42.6-12.85.66-19.28S118.7,59.43,118.44,53Z" transform="translate(0 -0.01)"/><path class="cls-2" d="M163.42,64.35c.67-6.45,1.25-13,1.47-19.45s.19-13,.05-19.46v.19c.44,25.93-6.56,51.26-6.09,77.19h0l3.08.05c-.14-6.43-.18-12.86,0-19.28S162.74,70.79,163.42,64.35Z" transform="translate(0 -0.01)"/><path class="cls-3" d="M160.35,63.91c1.18-6.37,2.25-12.71,3-19.13s1.22-12.87,1.59-19.34v.19c.44,25.93-6.56,51.26-6.09,77.19h0l-3.08,0c.38-6.51.85-13,1.6-19.53S159.17,70.28,160.35,63.91Z" transform="translate(0 -0.01)"/><path class="cls-2" d="M196.25,67.23c.5-4.81.93-9.67,1.09-14.52s.15-9.7,0-14.54v.15c.32,19.36-4.9,38.28-4.55,57.65h0l2.31,0c-.11-4.8-.14-9.6,0-14.39S195.75,72.05,196.25,67.23Z" transform="translate(0 -0.01)"/><path class="cls-3" d="M194,66.91c.88-4.76,1.68-9.49,2.22-14.29s.91-9.61,1.19-14.45v.15c.32,19.36-4.9,38.28-4.55,57.65h0l-2.3,0c.28-4.86.63-9.73,1.19-14.58S193.07,71.66,194,66.91Z" transform="translate(0 -0.01)"/><path class="cls-2" d="M230,70.14c.34-3.19.63-6.4.74-9.61s.1-6.41,0-9.6V51c.23,12.8-3.3,25.3-3.06,38.11h0l1.52,0c-.06-3.17-.08-6.35,0-9.51S229.63,73.32,230,70.14Z" transform="translate(0 -0.01)"/><path class="cls-3" d="M228.45,69.92c.6-3.14,1.13-6.27,1.5-9.44s.6-6.36.79-9.55V51c.23,12.8-3.3,25.3-3.06,38.11h0l-1.52,0c.19-3.21.42-6.43.8-9.64S227.86,73.06,228.45,69.92Z" transform="translate(0 -0.01)"/><path class="cls-4" d="M264.47,91.39c.44-29.54,4.3-29.48,4.74-59" transform="translate(0 -0.01)"/><path class="cls-4" d="M301.31,93.65c.59-40,6.49-39.87,7.08-79.82" transform="translate(0 -0.01)"/><path class="cls-5" d="M197.6,96.65c.5-34.44,5.59-34.36,6.1-68.8" transform="translate(0 -0.01)"/><path class="cls-6" d="M202.06,62.48c.7-5.73,1.31-11.52,1.55-17.31s.22-11.56.09-17.32V28c.5,23.1-6.62,45.52-6.09,68.63h0l2.85,0c-.12-5.71-.16-11.43.09-17.12S201.36,68.2,202.06,62.48Z" transform="translate(0 -0.01)"/><path class="cls-7" d="M199.23,62c1.17-5.64,2.23-11.26,2.94-17s1.17-11.44,1.52-17.2V28c.5,23.1-6.62,45.52-6.09,68.63h0l-2.85,0c.35-5.81.79-11.62,1.52-17.41S198.06,67.67,199.23,62Z" transform="translate(0 -0.01)"/><path class="cls-6" d="M93.26,99.65c.43-28.93,4.11-28.87,4.54-57.8" transform="translate(0 -0.01)"/><path class="cls-6" d="M96.68,70.91c.5-4.81.92-9.67,1.09-14.52s.14-9.7,0-14.54V42c.32,19.36-4.88,38.28-4.54,57.65h0l2.3,0c-.1-4.8-.14-9.6,0-14.39S96.17,75.72,96.68,70.91Z" transform="translate(0 -0.01)"/><path class="cls-7" d="M94.38,70.59c.88-4.76,1.68-9.5,2.23-14.29s.9-9.62,1.18-14.45V42c.32,19.36-4.88,38.28-4.54,57.65h0l-2.31,0c.29-4.86.64-9.73,1.2-14.59S93.5,75.34,94.38,70.59Z" transform="translate(0 -0.01)"/><path class="cls-6" d="M47.07,92.71c.44-30.15,4.28-30.09,4.73-60.24" transform="translate(0 -0.01)"/><path class="cls-6" d="M50.63,62.76c.52-5,1-10.09,1.13-15.14s.15-10.11,0-15.15v.15c.34,20.18-5.08,39.91-4.72,60.09h0l2.4,0c-.1-5-.14-10,0-15S50.1,67.78,50.63,62.76Z" transform="translate(0 -0.01)"/><path class="cls-7" d="M48.24,62.42c.92-5,1.75-9.89,2.31-14.89s1-10,1.24-15.06v.15c.34,20.18-5.08,39.91-4.72,60.09h0l-2.4,0c.3-5.08.66-10.15,1.25-15.21S47.32,67.38,48.24,62.42Z" transform="translate(0 -0.01)"/><path class="cls-6" d="M6.13,54.62c.52-5.22,1-10.49,1.12-15.75s.13-10.52,0-15.76v.15c.33,21-5.1,41.55-4.76,62.54h0l2.5,0c-.11-5.21-.15-10.42,0-15.62S5.61,59.85,6.13,54.62Z" transform="translate(0 -0.01)"/><path class="cls-7" d="M3.64,54.28C4.57,49.12,5.41,44,6,38.78S7,28.35,7.26,23.11v.15c.33,21-5.1,41.55-4.76,62.54h0l-2.5,0C.31,80.49.68,75.21,1.28,70S2.71,59.45,3.64,54.28Z" transform="translate(0 -0.01)"/><path class="cls-6" d="M103.49,61.19c.46-4.65.85-9.34,1-14s.12-9.36,0-14v.14c.3,18.7-4.54,37-4.23,55.7h0l2.23,0c-.1-4.64-.14-9.27,0-13.9S103,65.85,103.49,61.19Z" transform="translate(0 -0.01)"/><path class="cls-7" d="M101.27,60.89c.83-4.6,1.58-9.18,2.09-13.81s.86-9.29,1.13-14v.14c.3,18.7-4.54,37-4.23,55.7h0l-2.22,0c.27-4.7.61-9.4,1.13-14.09S100.44,65.49,101.27,60.89Z" transform="translate(0 -0.01)"/><path class="cls-6" d="M199.38,67.73c.36-4.08.67-8.2.77-12.3s.08-8.21,0-12.31v.12c.22,16.39-3.68,32.48-3.45,48.86h0l1.95,0c-.09-4.07-.13-8.14,0-12.2S199,71.81,199.38,67.73Z" transform="translate(0 -0.01)"/><path class="cls-7" d="M197.44,67.49c.68-4,1.3-8.07,1.73-12.13s.72-8.15,1-12.24v.12c.22,16.39-3.68,32.48-3.45,48.86h0l-2,0c.23-4.11.52-8.23,1-12.34S196.75,71.53,197.44,67.49Z" transform="translate(0 -0.01)"/><path class="cls-8" d="M158.57,53.31c.46-5.27.85-10.58,1-15.88s.1-10.59,0-15.87v.15c.27,21.14-4.75,41.9-4.46,63h0l2.52,0c-.12-5.25-.17-10.5,0-15.74S158.1,58.57,158.57,53.31Z" transform="translate(0 -0.01)"/><path class="cls-9" d="M156.06,53c.88-5.21,1.68-10.4,2.23-15.64s.94-10.52,1.24-15.79v.15c.27,21.14-4.75,41.9-4.46,63h0l-2.52,0c.31-5.31.68-10.63,1.25-15.93S155.18,58.2,156.06,53Z" transform="translate(0 -0.01)"/><path class="cls-2" d="M122.06,38.67c-.62-6.43-1.17-12.85-1.54-19.3s-.6-12.9-.78-19.36V.2c-.83,25.8,2.42,51.51,1.57,77.3h0l3.07,0c-.17-6.49-.4-13-.77-19.47S122.68,45.11,122.06,38.67Z" transform="translate(0 -0.01)"/><path class="cls-3" d="M119,38.84c-.1-6.47-.15-13,0-19.44s.42-12.94.76-19.39V.2c-.83,25.8,2.42,51.51,1.57,77.3h0l-3.08,0c.34-6.43.63-12.87.77-19.3S119.08,45.31,119,38.84Z" transform="translate(0 -0.01)"/><path class="cls-2" d="M168.05,50c-.62-6.43-1.18-12.84-1.54-19.29s-.6-12.9-.78-19.37v.19c-.83,25.8,2.42,51.51,1.57,77.31h0l3.08,0c-.17-6.49-.4-13-.77-19.47S168.67,56.45,168.05,50Z" transform="translate(0 -0.01)"/><path class="cls-3" d="M165,50.18c-.1-6.46-.15-13,0-19.43s.43-12.94.77-19.4v.19c-.83,25.8,2.42,51.51,1.57,77.31h0l-3.08,0c.34-6.43.63-12.86.77-19.29S165.07,56.65,165,50.18Z" transform="translate(0 -0.01)"/><path class="cls-2" d="M209.06,61.51c.33-6.46.6-12.95.67-19.43s0-12.95-.17-19.42v.2c.1,25.81-4.18,51.4-4.06,77.22h0l3.07,0c-.14-6.43-.24-12.87-.17-19.3S208.73,68,209.06,61.51Z" transform="translate(0 -0.01)"/><path class="cls-3" d="M206,61.23c.84-6.41,1.62-12.8,2.19-19.23s1-12.88,1.37-19.34v.2c.1,25.81-4.18,51.4-4.06,77.22h0l-3.08,0c.37-6.48.79-13,1.38-19.45S205.13,67.64,206,61.23Z" transform="translate(0 -0.01)"/><path class="cls-2" d="M241.92,64.42c.25-4.83.45-9.68.5-14.51s0-9.68-.13-14.5v.14c.08,19.28-3.12,38.39-3,57.67h0l2.3,0c-.11-4.81-.18-9.62-.13-14.42S241.67,69.24,241.92,64.42Z" transform="translate(0 -0.01)"/><path class="cls-3" d="M239.62,64.21c.63-4.79,1.21-9.56,1.64-14.36s.75-9.62,1-14.44v.14c.08,19.28-3.12,38.39-3,57.67h0l-2.3,0c.27-4.85.59-9.69,1-14.53S239,69,239.62,64.21Z" transform="translate(0 -0.01)"/><path class="cls-2" d="M274.84,67.26q-.42-9.57-.65-19.12v.09c-.25,12.72,0,25.43-.23,38.15h0l1.52,0C275.32,80,275.12,73.63,274.84,67.26Z" transform="translate(0 -0.01)"/><path class="cls-3" d="M273.31,67.26q.35-9.57.88-19.12v.09c-.25,12.72,0,25.43-.23,38.15h0l-1.52,0Q273,76.8,273.31,67.26Z" transform="translate(0 -0.01)"/><path class="cls-4" d="M311,88.64c.43-29.53-.08-29.54.36-59.08" transform="translate(0 -0.01)"/><path class="cls-4" d="M353.48,91c.59-40-1.12-40-.53-79.94" transform="translate(0 -0.01)"/><path class="cls-5" d="M248.88,94c.51-34.44-1-34.46-.45-68.9" transform="translate(0 -0.01)"/><path class="cls-6" d="M250.08,59.49c-.84-11.46-1.35-22.92-1.65-34.41v.17c-.58,22.91,1.05,45.81.46,68.73h0l2.84,0C251.43,82.51,250.92,71,250.08,59.49Z" transform="translate(0 -0.01)"/><path class="cls-7" d="M247.23,59.57c.1-11.51.54-23,1.19-34.49v.17c-.58,22.91,1.05,45.81.46,68.73h0l-2.84,0C246.68,82.48,247.12,71.05,247.23,59.57Z" transform="translate(0 -0.01)"/><path class="cls-6" d="M141,96.92c.43-28.93,1.89-28.9,2.31-57.83" transform="translate(0 -0.01)"/><path class="cls-6" d="M143.32,68.08c.29-9.66.26-19.34,0-29v.15c0,19.25-2.28,38.42-2.31,57.68h0l2.29,0C143.06,87.32,143,77.72,143.32,68.08Z" transform="translate(0 -0.01)"/><path class="cls-7" d="M141,67.93c1.06-9.59,1.79-19.19,2.31-28.84v.15c0,19.25-2.28,38.42-2.31,57.68h0l-2.29,0C139.22,87.22,140,77.53,141,67.93Z" transform="translate(0 -0.01)"/><path class="cls-6" d="M94.9,90c.45-30.15,2-30.13,2.41-60.28" transform="translate(0 -0.01)"/><path class="cls-6" d="M97.31,59.93c.31-10.08.27-20.17,0-30.22v.15c0,20.07-2.38,40.05-2.41,60.13h0l2.39,0C97,80,97,70,97.31,59.93Z" transform="translate(0 -0.01)"/><path class="cls-7" d="M94.91,59.77c1.1-10,1.86-20,2.4-30.06v.15c0,20.07-2.38,40.05-2.41,60.13h0L92.5,90C93,79.88,93.8,69.78,94.91,59.77Z" transform="translate(0 -0.01)"/><path class="cls-6" d="M54.31,51.91c.54-5.22,1-10.5,1.17-15.76s.15-10.52,0-15.76v.15c.35,21-5.26,41.54-4.89,62.54h0l2.5,0C53,77.91,53,72.7,53.15,67.5S53.77,57.13,54.31,51.91Z" transform="translate(0 -0.01)"/><path class="cls-7" d="M51.82,51.56c1-5.16,1.82-10.3,2.41-15.5s1-10.43,1.28-15.67v.15c.35,21-5.26,41.54-4.89,62.54h0l-2.5,0c.31-5.28.69-10.55,1.29-15.82S50.87,56.72,51.82,51.56Z" transform="translate(0 -0.01)"/><path class="cls-6" d="M71,52.28c.54-5.22,1-10.5,1.17-15.76s.15-10.52,0-15.76v.15c.35,21-5.27,41.53-4.9,62.54h0l2.5,0c-.11-5.21-.15-10.42,0-15.62S70.47,57.5,71,52.28Z" transform="translate(0 -0.01)"/><path class="cls-7" d="M68.52,51.93c1-5.16,1.82-10.3,2.4-15.5s1-10.43,1.29-15.67v.15c.35,21-5.27,41.53-4.9,62.54h0l-2.5,0c.31-5.28.69-10.55,1.29-15.82S67.57,57.09,68.52,51.93Z" transform="translate(0 -0.01)"/><polygon class="cls-6" points="86.86 52.47 86.06 21.08 86.06 21.23 85.15 83.83 85.16 83.83 87.65 83.86 86.86 52.47"/><polygon class="cls-7" points="84.35 52.44 86.05 21.08 86.06 21.23 85.15 83.83 85.14 83.83 82.65 83.79 84.35 52.44"/><polygon class="cls-6" points="167.34 58.69 166.64 30.73 166.63 30.86 165.82 86.61 165.83 86.61 168.05 86.65 167.34 58.69"/><polygon class="cls-7" points="165.11 58.65 166.63 30.73 166.63 30.86 165.82 86.61 165.82 86.61 163.6 86.58 165.11 58.65"/><path class="cls-6" d="M247.56,64.82c-.46-4.07-.88-8.12-1.14-12.2s-.43-8.16-.54-12.26v.12c-.6,16.35,2,32.59,1.43,48.94h0l1.95,0c-.12-4.12-.27-8.23-.54-12.35S248,68.89,247.56,64.82Z" transform="translate(0 -0.01)"/><path class="cls-7" d="M245.61,65c-.14-4.09-.24-8.21-.18-12.31s.23-8.2.44-12.29v.12c-.6,16.35,2,32.59,1.43,48.94h0l-2,0c.21-4.07.38-8.14.43-12.21S245.75,69.05,245.61,65Z" transform="translate(0 -0.01)"/><path class="cls-8" d="M252.23,54.44c-.6-5.24-1.14-10.47-1.48-15.73s-.55-10.54-.7-15.82v.16c-.78,21.08,2.63,42,1.84,63.13h0l2.51,0c-.14-5.3-.34-10.61-.69-15.92S252.83,59.69,252.23,54.44Z" transform="translate(0 -0.01)"/><path class="cls-9" d="M249.71,54.63c-.18-5.28-.31-10.59-.23-15.89s.29-10.57.56-15.85v.16c-.78,21.08,2.63,42,1.84,63.13h0l-2.51,0c.27-5.25.49-10.5.56-15.75S249.89,59.9,249.71,54.63Z" transform="translate(0 -0.01)"/><path class="cls-2" d="M258.09,44c-.93-6.41-1.77-12.79-2.28-19.23s-.8-12.9-1-19.38v.2c-1.15,25.88,4.63,51.45,3.46,77.33h0l3.08.05c-.18-6.52-.45-13-1-19.56S259,50.45,258.09,44Z" transform="translate(0 -0.01)"/><path class="cls-3" d="M255,44.36c-.43-6.47-.76-13-.76-19.48s.24-13,.56-19.45v.2c-1.15,25.88,4.63,51.45,3.46,77.33h0l-3.08,0c.33-6.42.57-12.85.56-19.26S255.44,50.82,255,44.36Z" transform="translate(0 -0.01)"/><path class="cls-2" d="M304.08,55.38c-.94-6.4-1.77-12.78-2.28-19.22s-.8-12.91-1-19.38V17c-1.15,25.88,4.63,51.45,3.46,77.33h0l3.08,0c-.19-6.52-.46-13-1-19.55S305,61.79,304.08,55.38Z" transform="translate(0 -0.01)"/><path class="cls-3" d="M301,55.7c-.43-6.46-.76-13-.76-19.48s.23-13,.56-19.44V17c-1.15,25.88,4.63,51.45,3.46,77.33h0l-3.08,0c.33-6.43.57-12.85.56-19.27S301.42,62.16,301,55.7Z" transform="translate(0 -0.01)"/><path class="cls-2" d="M350,66.93q-.15-19.38-.66-38.77v.19c-.27,25.76-1.49,51.5-1.76,77.26h0l3.08,0Q350.2,86.3,350,66.93Z" transform="translate(0 -0.01)"/><path class="cls-3" d="M347,66.84q1.4-19.33,2.42-38.68v.19c-.27,25.76-1.49,51.5-1.76,77.26h0l-3.08,0Q345.57,86.2,347,66.84Z" transform="translate(0 -0.01)"/><path class="cls-2" d="M445.85,68.23q-.15-19.4-.66-38.78v.2c-.27,25.76-1.49,51.49-1.76,77.25h0l3.08,0Q446,87.59,445.85,68.23Z" transform="translate(0 -0.01)"/><path class="cls-3" d="M442.76,68.13q1.39-19.32,2.42-38.68v.2c-.27,25.76-1.49,51.49-1.76,77.25h0l-3.08,0Q441.38,87.48,442.76,68.13Z" transform="translate(0 -0.01)"/><path class="cls-2" d="M536.69,69.27c-.79-6.42-1.49-12.81-1.94-19.26s-.7-12.9-.88-19.37v.19c-1,25.84,3.61,51.49,2.58,77.32h0l3.08,0c-.18-6.5-.43-13-.89-19.51S537.48,75.69,536.69,69.27Z" transform="translate(0 -0.01)"/><path class="cls-3" d="M533.61,69.52c-.28-6.46-.48-13-.41-19.46s.32-13,.65-19.42v.19c-1,25.84,3.61,51.49,2.58,77.32h0l-3.08,0c.33-6.43.59-12.86.65-19.28S533.89,76,533.61,69.52Z" transform="translate(0 -0.01)"/><path class="cls-2" d="M473.57,71c-.59-4.79-1.12-9.57-1.45-14.38s-.53-9.64-.67-14.47v.15c-.75,19.29,2.69,38.44,1.93,57.74h0l2.3,0c-.13-4.85-.32-9.71-.66-14.57S474.16,75.75,473.57,71Z" transform="translate(0 -0.01)"/><path class="cls-3" d="M471.26,71.14c-.21-4.83-.36-9.69-.31-14.54s.24-9.67.49-14.5v.15c-.75,19.29,2.69,38.44,1.93,57.74h0l-2.3,0c.25-4.8.45-9.6.49-14.4S471.47,76,471.26,71.14Z" transform="translate(0 -0.01)"/><path class="cls-2" d="M411,72.58c-.65-3.14-1.22-6.26-1.56-9.44s-.51-6.38-.61-9.58v.09c-.74,12.86,3.61,25.34,2.84,38.2h0l1.52,0c-.09-3.24-.26-6.48-.61-9.71S411.69,75.72,411,72.58Z" transform="translate(0 -0.01)"/><path class="cls-3" d="M409.53,72.82c-.4-3.18-.73-6.41-.82-9.63s0-6.43.15-9.63v.09c-.74,12.86,3.61,25.34,2.84,38.2h0l-1.53,0c.16-3.17.25-6.34.16-9.5S409.92,76,409.53,72.82Z" transform="translate(0 -0.01)"/><path class="cls-6" d="M345.55,97.12C345.9,73.1,341.63,73,342,49" transform="translate(0 -0.01)"/><path class="cls-8" d="M344.72,72.91c-.82-3.94-1.54-7.87-2-11.86s-.64-8-.76-12v.12c-.94,16.16,4.53,31.83,3.57,48h0l1.92,0c-.12-4.07-.33-8.14-.77-12.2S345.53,76.86,344.72,72.91Z" transform="translate(0 -0.01)"/><path class="cls-9" d="M342.81,73.22c-.5-4-.92-8-1-12.1s0-8.08.19-12.11v.12c-.94,16.16,4.53,31.83,3.57,48h0l-1.92,0c.2-4,.32-8,.2-11.94S343.31,77.22,342.81,73.22Z" transform="translate(0 -0.01)"/><path class="cls-6" d="M279.13,102.39c.42-28.92-.55-28.94-.12-57.86" transform="translate(0 -0.01)"/><path class="cls-6" d="M280.22,73.44c-.6-9.63-1-19.26-1.21-28.91v.14c-.44,19.24.58,38.48.13,57.72h0l2.3,0C281.19,92.76,280.82,83.08,280.22,73.44Z" transform="translate(0 -0.01)"/><path class="cls-7" d="M277.91,73.48c.17-9.66.56-19.32,1.09-28.95v.14c-.44,19.24.58,38.48.13,57.72h0l-2.3,0C277.35,92.73,277.74,83.13,277.91,73.48Z" transform="translate(0 -0.01)"/><path class="cls-6" d="M233.14,95.46c.44-30.15-.58-30.16-.13-60.31" transform="translate(0 -0.01)"/><path class="cls-6" d="M234.28,65.28c-.63-10-1-20.07-1.26-30.13v.15c-.47,20.05.6,40.1.13,60.16h0l2.4,0C235.29,85.42,234.9,75.33,234.28,65.28Z" transform="translate(0 -0.01)"/><path class="cls-7" d="M231.87,65.33c.17-10.07.58-20.14,1.13-30.18v.15c-.47,20.05.6,40.1.13,60.16h0l-2.4,0C231.29,85.39,231.69,75.38,231.87,65.33Z" transform="translate(0 -0.01)"/><path class="cls-6" d="M187.05,57.39a145.76,145.76,0,0,0,2.06-15.76c.37-5.28.39-10.56.29-15.83V26c.7,21.19-7.88,41.3-7.15,62.5h0l2.51,0c-.1-5.21-.08-10.41.27-15.59A144.71,144.71,0,0,1,187.05,57.39Z" transform="translate(0 -0.01)"/><path class="cls-7" d="M184.59,56.86a144.31,144.31,0,0,0,3.26-15.37c.78-5.18,1.22-10.43,1.54-15.69V26c.7,21.19-7.88,41.3-7.15,62.5h0l-2.51,0c.32-5.32.76-10.64,1.55-15.94A147.27,147.27,0,0,1,184.59,56.86Z" transform="translate(0 -0.01)"/><path class="cls-6" d="M284.43,64a132.27,132.27,0,0,0,1.83-14c.33-4.71.34-9.41.26-14.11V36c.62,18.88-7,36.79-6.37,55.67h0l2.23,0c-.09-4.64-.07-9.28.25-13.89A125.79,125.79,0,0,1,284.43,64Z" transform="translate(0 -0.01)"/><path class="cls-7" d="M282.23,63.48a131.21,131.21,0,0,0,2.91-13.69c.69-4.62,1.08-9.29,1.37-14V36c.62,18.88-7,36.79-6.37,55.67h0l-2.24,0c.29-4.74.68-9.48,1.38-14.2A131.06,131.06,0,0,1,282.23,63.48Z" transform="translate(0 -0.01)"/><path class="cls-6" d="M382.26,70.45c.41-4.08.76-8.2.89-12.31s.11-8.22,0-12.32V46c.26,16.4-4,32.45-3.76,48.85h0l1.95,0c-.08-4.07-.12-8.14,0-12.2S381.85,74.53,382.26,70.45Z" transform="translate(0 -0.01)"/><path class="cls-7" d="M380.32,70.18c.73-4,1.39-8.05,1.85-12.12s.76-8.14,1-12.24V46c.26,16.4-4,32.45-3.76,48.85h0l-1.95,0c.24-4.12.54-8.24,1-12.36S379.58,74.21,380.32,70.18Z" transform="translate(0 -0.01)"/><path class="cls-8" d="M413.78,69.43c.37-3.63.68-7.3.79-11s.1-7.31,0-11v.11c.23,14.6-3.6,28.88-3.35,43.48h0l1.73,0c-.07-3.62-.1-7.24,0-10.86S413.42,73.06,413.78,69.43Z" transform="translate(0 -0.01)"/><path class="cls-9" d="M412.05,69.19c.65-3.59,1.25-7.16,1.65-10.78s.67-7.25.89-10.9v.11c.23,14.6-3.6,28.88-3.35,43.48h0l-1.74,0c.21-3.67.48-7.34.89-11S411.4,72.78,412.05,69.19Z" transform="translate(0 -0.01)"/><polygon class="cls-2" points="444.26 68.3 443.84 49.16 443.83 49.26 443.17 87.4 443.17 87.4 444.69 87.42 444.26 68.3"/><polygon class="cls-3" points="442.74 68.27 443.83 49.16 443.83 49.26 443.17 87.4 443.17 87.4 441.65 87.38 442.74 68.27"/><path class="cls-4" d="M480.48,89.67c.44-29.53.59-29.53,1-59.07" transform="translate(0 -0.01)"/><path class="cls-4" d="M515.06,91.9c.59-39.95.09-40,.68-79.91" transform="translate(0 -0.01)"/><path class="cls-4" d="M463.19,91.14c.48-32.24.07-32.24.54-64.48" transform="translate(0 -0.01)"/><path class="cls-6" d="M464.8,58.9q-.66-16.11-1.06-32.24v.16c-.38,21.44-.15,42.88-.54,64.32h0l2.66,0Q465.42,75,464.8,58.9Z" transform="translate(0 -0.01)"/><path class="cls-7" d="M462.13,58.9q.67-16.12,1.6-32.24v.16c-.38,21.44-.15,42.88-.54,64.32h0l-2.66,0Q461.43,75,462.13,58.9Z" transform="translate(0 -0.01)"/><path class="cls-6" d="M417.42,65.93q-.46-12.26-.75-24.52v.13c-.29,16.3-.14,32.6-.43,48.9h0l1.95,0Q417.88,78.2,417.42,65.93Z" transform="translate(0 -0.01)"/><path class="cls-7" d="M415.47,65.92q.51-12.26,1.19-24.51v.13c-.29,16.3-.14,32.6-.43,48.9h0l-1.94,0Q414.94,78.17,415.47,65.92Z" transform="translate(0 -0.01)"/><path class="cls-8" d="M422.4,55.58q-.6-15.81-1-31.63v.16c-.38,21-.19,42.06-.57,63.09h0l2.51,0Q423,71.41,422.4,55.58Z" transform="translate(0 -0.01)"/><path class="cls-9" d="M419.88,55.57c.43-10.54,1-21.08,1.53-31.62v.16c-.38,21-.19,42.06-.57,63.09h0l-2.51,0Q419.2,71.36,419.88,55.57Z" transform="translate(0 -0.01)"/><path class="cls-2" d="M422.84,44.91c-1.32-6.35-2.49-12.68-3.18-19.12s-1-12.91-1.24-19.41v.19c-1.52,26.06,7.35,51.32,5.79,77.37h0l3.09,0c-.2-6.56-.52-13.13-1.25-19.68S424.16,51.27,422.84,44.91Z" transform="translate(0 -0.01)"/><path class="cls-3" d="M419.77,45.41c-.81-6.45-1.49-13-1.67-19.51s0-13,.3-19.52v.19c-1.52,26.06,7.35,51.32,5.79,77.37h0l-3.09,0c.32-6.42.51-12.84.31-19.25A192.84,192.84,0,0,0,419.77,45.41Z" transform="translate(0 -0.01)"/><path class="cls-2" d="M468.83,56.25c-1.32-6.35-2.49-12.68-3.18-19.12s-1-12.91-1.24-19.4v.19c-1.52,26.05,7.35,51.31,5.79,77.36h0l3.09,0c-.2-6.56-.53-13.13-1.25-19.67S470.15,62.61,468.83,56.25Z" transform="translate(0 -0.01)"/><path class="cls-3" d="M465.76,56.76c-.81-6.45-1.49-13-1.67-19.52s0-13,.3-19.52v.2c-1.52,26.05,7.35,51.31,5.79,77.36h0l-3.09,0c.32-6.42.5-12.85.31-19.25S466.57,63.2,465.76,56.76Z" transform="translate(0 -0.01)"/><path class="cls-2" d="M519.19,68c0-12.93-.17-25.86-.5-38.78v.19c-.23,25.77-1.84,51.49-2.06,77.26h0l3.08,0Q519.2,87.33,519.19,68Z" transform="translate(0 -0.01)"/><path class="cls-3" d="M516.1,67.85c1-12.87,1.88-25.75,2.57-38.66v.19c-.23,25.77-1.84,51.49-2.06,77.26h0l-3.08,0C514.23,93.67,515.06,80.74,516.1,67.85Z" transform="translate(0 -0.01)"/><path class="cls-2" d="M550.52,70.88c0-9.66-.13-19.32-.37-29v.14c-.17,19.24-1.38,38.45-1.54,57.69h0l2.29,0C550.66,90.15,550.51,80.53,550.52,70.88Z" transform="translate(0 -0.01)"/><path class="cls-3" d="M548.22,70.79q1.15-14.43,1.92-28.88v.15c-.17,19.24-1.38,38.45-1.54,57.69h0l-2.29,0C546.82,90.07,547.44,80.41,548.22,70.79Z" transform="translate(0 -0.01)"/><path class="cls-2" d="M579.67,73.69c-.52-6.35-.82-12.71-1-19.09v.09c-.36,12.73.78,25.43.42,38.16h0l1.52,0C580.49,86.48,580.2,80.06,579.67,73.69Z" transform="translate(0 -0.01)"/><path class="cls-3" d="M578.15,73.75c0-6.39.19-12.79.54-19.15v.09c-.36,12.73.78,25.43.42,38.16h0l-1.52,0C578,86.47,578.16,80.13,578.15,73.75Z" transform="translate(0 -0.01)"/><path class="cls-4" d="M616.79,95.12c.43-29.54-1.1-29.56-.66-59.09" transform="translate(0 -0.01)"/><path class="cls-4" d="M659.15,97.46c.59-39.95-8.91-40.09-8.32-80" transform="translate(0 -0.01)"/><path class="cls-5" d="M554.33,100.45c.51-34.44-7.68-34.56-7.17-69" transform="translate(0 -0.01)"/><path class="cls-6" d="M552.15,65.64a136.58,136.58,0,0,1-3.63-16.89,163.28,163.28,0,0,1-1.35-17.3v.17C545.5,55,556,77.08,554.33,100.45h0l2.87,0a168.32,168.32,0,0,0-1.37-17.63A138.6,138.6,0,0,0,552.15,65.64Z" transform="translate(0 -0.01)"/><path class="cls-7" d="M549.34,66.26a136.63,136.63,0,0,1-2.26-17.37,163.6,163.6,0,0,1,.07-17.44v.17C545.5,55,556,77.08,554.33,100.45h0l-2.86,0a163,163,0,0,0,.08-17.12A134.53,134.53,0,0,0,549.34,66.26Z" transform="translate(0 -0.01)"/><path class="cls-6" d="M450.33,103.45c.43-28.92-4.67-29-4.25-57.92" transform="translate(0 -0.01)"/><path class="cls-6" d="M449.35,74.3c-1-4.74-1.83-9.47-2.34-14.28s-.77-9.64-.92-14.49v.14C445,65.12,451.49,84,450.33,103.45h0l2.31,0c-.15-4.89-.39-9.8-.92-14.69S450.33,79.05,449.35,74.3Z" transform="translate(0 -0.01)"/><path class="cls-7" d="M447.06,74.67c-.59-4.82-1.09-9.7-1.22-14.57s0-9.73.24-14.57v.14C445,65.12,451.49,84,450.33,103.45h0l-2.31,0c.24-4.8.38-9.6.24-14.38S447.66,79.49,447.06,74.67Z" transform="translate(0 -0.01)"/><path class="cls-6" d="M501.52,99.67c.4-26.72-4.32-26.79-3.92-53.51" transform="translate(0 -0.01)"/><path class="cls-6" d="M500.62,72.75c-.9-4.39-1.7-8.76-2.17-13.2s-.71-8.91-.85-13.39v.14c-1,18,5,35.4,3.93,53.37h0l2.13,0c-.14-4.52-.36-9-.85-13.57S501.52,77.14,500.62,72.75Z" transform="translate(0 -0.01)"/><path class="cls-7" d="M498.5,73.09c-.55-4.45-1-9-1.13-13.46s0-9,.22-13.47v.14c-1,18,5,35.4,3.93,53.37h0l-2.14,0c.22-4.43.35-8.86.23-13.28S499.05,77.53,498.5,73.09Z" transform="translate(0 -0.01)"/><path class="cls-6" d="M551.93,71.47c.36-4.08.67-8.2.78-12.31s.09-8.21,0-12.3V47c.22,16.39-3.73,32.47-3.49,48.86h0l1.95,0c-.09-4.07-.12-8.14,0-12.2S551.56,75.55,551.93,71.47Z" transform="translate(0 -0.01)"/><path class="cls-7" d="M550,71.22c.69-4,1.32-8.06,1.75-12.12s.73-8.15,1-12.24V47c.22,16.39-3.73,32.47-3.49,48.86h0l-2,0c.24-4.12.53-8.24,1-12.35S549.29,75.26,550,71.22Z" transform="translate(0 -0.01)"/><path class="cls-8" d="M511.89,57.06c.48-5.27.88-10.58,1-15.88s.1-10.59,0-15.87v.15c.28,21.14-4.81,41.89-4.51,63h0l2.51,0c-.11-5.25-.16-10.5,0-15.74S511.42,62.33,511.89,57.06Z" transform="translate(0 -0.01)"/><path class="cls-9" d="M509.38,56.74c.89-5.21,1.7-10.4,2.26-15.64s.94-10.52,1.25-15.79v.15c.28,21.14-4.81,41.89-4.51,63h0l-2.51,0c.31-5.32.68-10.63,1.25-15.93S508.49,62,509.38,56.74Z" transform="translate(0 -0.01)"/><path class="cls-2" d="M468.74,42.58c.51-6.45.93-12.95,1.07-19.44s.08-13-.06-19.43V3.9c.27,25.87-5.36,51.34-5.07,77.21h0l3.08,0c-.14-6.43-.21-12.86-.06-19.28S468.24,49,468.74,42.58Z" transform="translate(0 -0.01)"/><path class="cls-3" d="M465.67,42.23c1-6.39,1.94-12.76,2.59-19.19s1.1-12.87,1.48-19.33V3.9c.27,25.87-5.36,51.34-5.07,77.21h0l-3.08,0c.38-6.5.82-13,1.49-19.49S464.66,48.62,465.67,42.23Z" transform="translate(0 -0.01)"/><path class="cls-2" d="M514.73,53.93c.51-6.46.93-13,1.07-19.44s.08-13-.06-19.44v.19c.27,25.87-5.36,51.34-5.07,77.21h0l3.08,0c-.14-6.44-.21-12.87-.07-19.29S514.23,60.38,514.73,53.93Z" transform="translate(0 -0.01)"/><path class="cls-3" d="M511.66,53.57c1-6.39,1.93-12.76,2.58-19.18s1.11-12.88,1.48-19.34v.19c.27,25.87-5.36,51.34-5.07,77.21h0l-3.08,0c.37-6.49.82-13,1.49-19.48S510.64,60,511.66,53.57Z" transform="translate(0 -0.01)"/><path class="cls-2" d="M560.52,65c-.57-6.44-1.08-12.86-1.43-19.31s-.56-12.9-.74-19.36v.19c-.78,25.78,2.06,51.51,1.26,77.3h0l3.08,0c-.17-6.48-.39-13-.74-19.46S561.09,71.46,560.52,65Z" transform="translate(0 -0.01)"/><path class="cls-3" d="M557.43,65.16c-.06-6.46-.06-12.95.11-19.42s.46-12.94.8-19.39v.19c-.78,25.78,2.06,51.51,1.26,77.3h0l-3.08,0c.34-6.43.63-12.86.8-19.3S557.48,71.63,557.43,65.16Z" transform="translate(0 -0.01)"/><path class="cls-2" d="M593,68c-.9-9.6-1.39-19.22-1.62-28.88v.15c-.59,19.25,1.53,38.47.94,57.73h0l2.3,0C594.36,87.32,593.87,77.6,593,68Z" transform="translate(0 -0.01)"/><path class="cls-3" d="M590.66,68.08c-.13-9.67.15-19.35.68-29v.15c-.59,19.25,1.53,38.47.94,57.73h0l-2.3,0C590.52,87.32,590.8,77.73,590.66,68.08Z" transform="translate(0 -0.01)"/><path class="cls-2" d="M626,71.06c.26-3.18.47-6.39.55-9.59s0-6.41,0-9.6V52c.14,12.78-2.71,25.35-2.56,38.12h0l1.52,0c-.07-3.18-.1-6.35,0-9.52S625.72,74.25,626,71.06Z" transform="translate(0 -0.01)"/><path class="cls-3" d="M624.46,70.88c.51-3.15,1-6.29,1.3-9.46s.55-6.36.73-9.55V52c.14,12.78-2.71,25.35-2.56,38.12h0l-1.52,0c.18-3.21.41-6.42.74-9.63S624,74,624.46,70.88Z" transform="translate(0 -0.01)"/><path class="cls-4" d="M661.1,92.34c.43-29.53,3.51-29.49,3.94-59" transform="translate(0 -0.01)"/><path class="cls-4" d="M698.26,94.61c.59-40-1.26-40-.67-79.94" transform="translate(0 -0.01)"/><path class="cls-5" d="M594.36,97.61c.51-34.44-1.08-34.46-.58-68.9" transform="translate(0 -0.01)"/><path class="cls-6" d="M595.5,63.11c-.89-11.45-1.41-22.91-1.71-34.4v.17c-.6,22.92,1.2,45.81.58,68.73h0l2.84,0C596.92,86.14,596.39,74.58,595.5,63.11Z" transform="translate(0 -0.01)"/><path class="cls-7" d="M592.65,63.2c.05-11.5.48-23,1.13-34.49v.17c-.6,22.92,1.2,45.81.58,68.73h0l-2.85,0C592.17,86.11,592.59,74.69,592.65,63.2Z" transform="translate(0 -0.01)"/><path class="cls-6" d="M494.54,100.67c.43-28.92-2.65-29-2.22-57.89" transform="translate(0 -0.01)"/><path class="cls-6" d="M494.58,71.62c-.64-4.79-1.21-9.56-1.56-14.37s-.56-9.64-.69-14.47v.14c-.8,19.31,3,38.44,2.22,57.75h0l2.3,0c-.14-4.86-.33-9.72-.7-14.58S495.22,76.41,494.58,71.62Z" transform="translate(0 -0.01)"/><path class="cls-7" d="M492.28,71.83c-.26-4.83-.45-9.7-.42-14.54s.21-9.69.46-14.51v.14c-.8,19.31,3,38.44,2.22,57.75h0l-2.31,0c.25-4.8.44-9.6.46-14.4S492.54,76.66,492.28,71.83Z" transform="translate(0 -0.01)"/><path class="cls-6" d="M465.29,94.11c.44-30.15-2.76-30.2-2.32-60.35" transform="translate(0 -0.01)"/><path class="cls-6" d="M465.33,63.83c-.67-5-1.26-10-1.63-15s-.58-10.05-.72-15.09v.15c-.83,20.13,3.16,40.07,2.32,60.2h0l2.4,0c-.14-5.06-.34-10.13-.72-15.2S466,68.82,465.33,63.83Z" transform="translate(0 -0.01)"/><path class="cls-7" d="M462.93,64.05c-.27-5-.47-10.11-.44-15.16s.22-10.1.48-15.13v.15c-.83,20.13,3.16,40.07,2.32,60.2h0l-2.4,0c.26-5,.46-10,.48-15S463.2,69.08,462.93,64.05Z" transform="translate(0 -0.01)"/><path class="cls-6" d="M433.31,56.24c.37-5.23.69-10.49.78-15.74S434.14,30,434,24.75v.16c.19,21-4.13,41.6-3.92,62.55h0l2.5,0c-.12-5.22-.18-10.43-.07-15.63S432.93,61.47,433.31,56.24Z" transform="translate(0 -0.01)"/><path class="cls-7" d="M430.81,56c.79-5.18,1.51-10.34,2-15.55S433.71,30,434,24.75v.16c.19,21-4.13,41.6-3.92,62.55h0l-2.49,0c.3-5.26.65-10.52,1.18-15.78S430,61.15,430.81,56Z" transform="translate(0 -0.01)"/><path class="cls-6" d="M514.16,62.45c.34-4.66.62-9.35.71-14s0-9.36-.06-14v.13c.17,18.66-3.68,37.06-3.49,55.71h0l2.22,0c-.1-4.65-.15-9.29-.06-13.92S513.83,67.11,514.16,62.45Z" transform="translate(0 -0.01)"/><path class="cls-7" d="M511.94,62.21c.71-4.62,1.35-9.22,1.81-13.85s.78-9.29,1-14v.13c.17,18.66-3.68,37.06-3.49,55.71h0l-2.22,0c.27-4.69.59-9.37,1.05-14S511.24,66.82,511.94,62.21Z" transform="translate(0 -0.01)"/><path class="cls-6" d="M595,68.48c-.45-4.06-.86-8.12-1.12-12.2s-.42-8.16-.53-12.26v.13c-.59,16.34,2,32.59,1.37,48.93h0l2,0c-.11-4.12-.26-8.23-.53-12.34S595.41,72.55,595,68.48Z" transform="translate(0 -0.01)"/><path class="cls-7" d="M593,68.62c-.13-4.09-.22-8.21-.16-12.31s.24-8.2.45-12.29v.13c-.59,16.34,2,32.59,1.37,48.93h0l-1.95,0c.22-4.07.39-8.14.45-12.21S593.13,72.71,593,68.62Z" transform="translate(0 -0.01)"/><path class="cls-8" d="M598.9,58.1c-.59-5.25-1.11-10.48-1.45-15.74s-.54-10.54-.68-15.81v.15c-.76,21.08,2.54,42.05,1.76,63.12h0l2.51,0c-.14-5.3-.34-10.61-.68-15.91S599.49,63.35,598.9,58.1Z" transform="translate(0 -0.01)"/><path class="cls-9" d="M596.38,58.27c-.17-5.28-.28-10.59-.2-15.88s.3-10.57.57-15.84v.15c-.76,21.08,2.54,42.05,1.76,63.12h0l-2.51,0c.27-5.25.5-10.5.57-15.75S596.55,63.55,596.38,58.27Z" transform="translate(0 -0.01)"/><path class="cls-2" d="M602.75,48c.49-6.46.91-13,1-19.45s.07-13-.07-19.43v.19c.27,25.87-5.32,51.34-5,77.21h0l3.08,0c-.14-6.43-.21-12.86-.07-19.28S602.25,54.45,602.75,48Z" transform="translate(0 -0.01)"/><path class="cls-3" d="M599.67,47.64c1-6.39,1.93-12.76,2.57-19.18s1.11-12.88,1.48-19.34v.19c.27,25.87-5.32,51.34-5,77.21h0l-3.08,0c.38-6.5.82-13,1.48-19.48S598.66,54,599.67,47.64Z" transform="translate(0 -0.01)"/><path class="cls-2" d="M648.73,59.34c.5-6.46.92-13,1-19.44s.08-13-.06-19.44v.2c.27,25.86-5.32,51.34-5,77.2h0l3.08,0c-.14-6.44-.21-12.87-.07-19.29S648.24,65.79,648.73,59.34Z" transform="translate(0 -0.01)"/><path class="cls-3" d="M645.66,59c1-6.38,1.92-12.75,2.57-19.18s1.1-12.88,1.48-19.34v.2c.27,25.86-5.32,51.34-5,77.2h0l-3.08,0c.37-6.5.82-13,1.48-19.49S644.65,65.38,645.66,59Z" transform="translate(0 -0.01)"/><path class="cls-2" d="M699.22,70.37c-1.13-6.38-2.13-12.74-2.74-19.18s-.91-12.9-1.1-19.39V32c-1.34,26,6,51.38,4.62,77.34h0l3.08,0c-.19-6.54-.49-13.08-1.11-19.61S700.35,76.75,699.22,70.37Z" transform="translate(0 -0.01)"/><path class="cls-3" d="M696.14,70.78c-.62-6.46-1.12-13-1.21-19.5s.11-13,.43-19.48V32c-1.34,26,6,51.38,4.62,77.34h0l-3.09,0c.33-6.42.54-12.85.44-19.26S696.76,77.23,696.14,70.78Z" transform="translate(0 -0.01)"/><path class="cls-2" d="M730.81,73.34c-.84-4.76-1.59-9.51-2-14.32s-.68-9.64-.83-14.48v.15c-1,19.38,4.47,38.38,3.45,57.76h0l2.31,0c-.14-4.89-.37-9.77-.83-14.65S731.66,78.11,730.81,73.34Z" transform="translate(0 -0.01)"/><path class="cls-3" d="M728.51,73.65c-.46-4.82-.83-9.7-.9-14.56s.08-9.71.32-14.55v.15c-1,19.38,4.47,38.38,3.45,57.76h0l-2.3,0c.24-4.8.4-9.6.32-14.38S729,78.47,728.51,73.65Z" transform="translate(0 -0.01)"/><path class="cls-2" d="M760,76.34c-.72-6.34-1.1-12.69-1.25-19.08v.09c-.45,12.74,1.46,25.42,1,38.17h0l1.52,0C761.13,89.13,760.75,82.69,760,76.34Z" transform="translate(0 -0.01)"/><path class="cls-3" d="M758.49,76.44c-.23-6.4-.1-12.81.26-19.18v.09c-.45,12.74,1.46,25.42,1,38.17h0l-1.52,0C758.58,89.14,758.72,82.81,758.49,76.44Z" transform="translate(0 -0.01)"/><path class="cls-6" d="M693.13,100.78c.36-24-1.61-24-1.25-48.07" transform="translate(0 -0.01)"/><path class="cls-8" d="M693.46,76.68c-.43-4-.81-8-1.06-12s-.41-8-.52-12v.12c-.57,16,1.83,31.94,1.25,48h0l1.91,0c-.11-4-.26-8.06-.51-12.09S693.9,80.67,693.46,76.68Z" transform="translate(0 -0.01)"/><path class="cls-9" d="M691.55,76.81c-.12-4-.19-8-.12-12.06s.24-8,.44-12v.12c-.57,16,1.83,31.94,1.25,48h0l-1.91,0c.21-4,.38-8,.44-12S691.66,80.82,691.55,76.81Z" transform="translate(0 -0.01)"/><path class="cls-6" d="M626.54,106.05c.43-28.92,1.08-28.91,1.51-57.84" transform="translate(0 -0.01)"/><path class="cls-6" d="M628.45,77.18c0-9.66-.15-19.32-.4-29v.15c-.17,19.24-1.32,38.45-1.5,57.69h0l2.3,0C628.6,96.45,628.45,86.82,628.45,77.18Z" transform="translate(0 -0.01)"/><path class="cls-7" d="M626.14,77.09q1.14-14.43,1.9-28.88v.15c-.17,19.24-1.32,38.45-1.5,57.69h0l-2.3,0Q625,91.55,626.14,77.09Z" transform="translate(0 -0.01)"/><path class="cls-6" d="M580.45,99.12C580.9,69,581.57,69,582,38.83" transform="translate(0 -0.01)"/><path class="cls-6" d="M582.44,69q0-15.1-.42-30.19V39c-.18,20.06-1.38,40.08-1.56,60.14h0l2.39,0C582.6,89.11,582.44,79.08,582.44,69Z" transform="translate(0 -0.01)"/><path class="cls-7" d="M580,68.93c.8-10,1.44-20.05,2-30.1V39c-.18,20.06-1.38,40.08-1.56,60.14h0l-2.39,0C578.59,89,579.24,79,580,68.93Z" transform="translate(0 -0.01)"/><path class="cls-6" d="M534.4,60.7c-.58-5.21-1.1-10.39-1.44-15.62s-.53-10.45-.68-15.69v.16c-.76,20.91,2.51,41.72,1.74,62.63h0l2.5,0c-.15-5.26-.34-10.53-.69-15.79S535,65.91,534.4,60.7Z" transform="translate(0 -0.01)"/><path class="cls-7" d="M531.9,60.88c-.17-5.24-.28-10.51-.19-15.76s.29-10.49.56-15.73v.16c-.76,20.91,2.51,41.72,1.74,62.63h0l-2.5,0c.27-5.21.5-10.42.57-15.63S532.07,66.11,531.9,60.88Z" transform="translate(0 -0.01)"/><path class="cls-6" d="M632.05,67.3c-.52-4.63-1-9.26-1.28-13.9s-.48-9.31-.61-14v.14c-.68,18.63,2.24,37.15,1.55,55.78h0l2.22,0c-.13-4.68-.3-9.37-.61-14.06S632.57,71.94,632.05,67.3Z" transform="translate(0 -0.01)"/><path class="cls-7" d="M629.82,67.46c-.15-4.67-.25-9.36-.17-14s.26-9.34.5-14v.14c-.68,18.63,2.24,37.15,1.55,55.78h0l-2.22,0c.24-4.64.43-9.28.5-13.92S630,72.12,629.82,67.46Z" transform="translate(0 -0.01)"/><path class="cls-6" d="M729.89,74c-.51-8.16-.83-16.32-1-24.5v.12c-.38,16.31.52,32.61.13,48.91h0l1.95,0C730.73,90.33,730.41,82.12,729.89,74Z" transform="translate(0 -0.01)"/><path class="cls-7" d="M727.94,74c.13-8.19.46-16.38.91-24.54v.12c-.38,16.31.52,32.61.13,48.91h0l-1.94,0C727.48,90.31,727.8,82.17,727.94,74Z" transform="translate(0 -0.01)"/><path class="cls-4" d="M567.68,95.13c.47-32.23-.65-32.25-.17-64.48" transform="translate(0 -0.01)"/><path class="cls-4" d="M403.34,91.72c.59-39.95,11.49-39.79,12.08-79.74" transform="translate(0 -0.01)"/><path class="cls-4" d="M409.9,91.39c.59-39.95,4.6-39.89,5.19-79.85" transform="translate(0 -0.01)"/><path class="cls-4" d="M425.23,91.19c.59-40-5.36-40-4.77-80" transform="translate(0 -0.01)"/><path class="cls-4" d="M424.61,90.75c.59-39.95-2.68-40-2.09-80" transform="translate(0 -0.01)"/><path class="cls-4" d="M430.36,90.41c.6-40,1.49-39.95,2.08-79.9" transform="translate(0 -0.01)"/><path class="cls-4" d="M435.66,90.05c.59-39.95-2.81-40-2.22-79.95" transform="translate(0 -0.01)"/><path class="cls-4" d="M440.69,89.7c.59-39.95-.8-40-.21-79.93" transform="translate(0 -0.01)"/><path class="cls-4" d="M443.38,89.31c.59-39.95,11.49-39.79,12.08-79.75" transform="translate(0 -0.01)"/><path class="cls-4" d="M449.89,89c.59-40,2.37-39.93,3-79.88" transform="translate(0 -0.01)"/><path class="cls-4" d="M447.22,96.29C447.8,57,449.55,57,450.13,17.64" transform="translate(0 -0.01)"/><path class="cls-2" d="M450.3,57.06c.3-13.14.2-26.3-.16-39.42v.19C450,44,447.3,70.11,447.22,96.29h0l3.25,0C450.11,83.24,450,70.18,450.3,57.06Z" transform="translate(0 -0.01)"/><path class="cls-3" d="M447.05,56.87c1.37-13,2.35-26.12,3.07-39.23v.19C450,44,447.3,70.11,447.22,96.29h0l-3.25,0C444.69,83.11,445.67,69.94,447.05,56.87Z" transform="translate(0 -0.01)"/><path class="cls-2" d="M452,64.73c-1.23-6.37-2.33-12.71-3-19.15s-1-12.91-1.19-19.4v.2c-1.44,26,6.76,51.35,5.29,77.36h0l3.09,0c-.2-6.55-.51-13.11-1.19-19.65S453.26,71.1,452,64.73Z" transform="translate(0 -0.01)"/><path class="cls-3" d="M449,65.19c-.73-6.45-1.33-13-1.47-19.5s0-13,.36-19.51v.2c-1.44,26,6.76,51.35,5.29,77.36h0l-3.09,0c.32-6.42.52-12.85.37-19.25S449.68,71.64,449,65.19Z" transform="translate(0 -0.01)"/><path class="cls-2" d="M547.83,66c-1.23-6.36-2.33-12.71-3-19.14s-1-12.91-1.19-19.4v.19c-1.44,26,6.76,51.35,5.29,77.36h0l3.09,0c-.2-6.55-.51-13.1-1.19-19.64S549.07,72.39,547.83,66Z" transform="translate(0 -0.01)"/><path class="cls-3" d="M544.76,66.48c-.73-6.45-1.33-13-1.47-19.5s0-13,.36-19.5v.19c-1.44,26,6.76,51.35,5.29,77.36h0l-3.09,0c.32-6.42.52-12.84.37-19.25S545.49,72.93,544.76,66.48Z" transform="translate(0 -0.01)"/><path class="cls-2" d="M643.89,67.85c1-6.43,1.87-12.94,2.24-19.46s.4-13,.27-19.52v.2c.75,26.08-8.84,51.07-8.06,77.16h0l3.09,0c-.12-6.43-.12-12.85.26-19.25S642.89,74.26,643.89,67.85Z" transform="translate(0 -0.01)"/><path class="cls-3" d="M640.84,67.25c1.5-6.31,2.86-12.6,3.74-19s1.42-12.88,1.81-19.37v.2c.75,26.08-8.84,51.07-8.06,77.16h0l-3.1,0c.39-6.55.92-13.1,1.83-19.63S639.33,73.57,640.84,67.25Z" transform="translate(0 -0.01)"/><path class="cls-2" d="M579.89,69.4c.75-4.79,1.4-9.66,1.68-14.52s.29-9.73.2-14.58v.14c.56,19.48-6.6,38.15-6,57.63h0l2.31,0c-.09-4.8-.09-9.6.19-14.38S579.15,74.2,579.89,69.4Z" transform="translate(0 -0.01)"/><path class="cls-3" d="M577.62,69c1.12-4.71,2.13-9.41,2.79-14.2s1.06-9.62,1.35-14.46v.14c.56,19.48-6.6,38.15-6,57.63h0l-2.31,0c.29-4.9.68-9.79,1.36-14.66S576.49,73.68,577.62,69Z" transform="translate(0 -0.01)"/><path class="cls-2" d="M514.2,70.77c-.51-6.36-.8-12.72-1-19.1v.09c-.35,12.73.75,25.44.39,38.16h0l1.51,0C515,83.55,514.71,77.13,514.2,70.77Z" transform="translate(0 -0.01)"/><path class="cls-3" d="M512.67,70.82c0-6.39.21-12.78.56-19.15v.09c-.35,12.73.75,25.44.39,38.16h0l-1.52,0C512.46,83.54,512.68,77.2,512.67,70.82Z" transform="translate(0 -0.01)"/><path class="cls-8" d="M499.21,69.56c-.58-7.25-.91-14.51-1.09-21.79v.1c-.4,14.52.85,29,.45,43.54h0l1.74,0C500.13,84.14,499.8,76.82,499.21,69.56Z" transform="translate(0 -0.01)"/><path class="cls-9" d="M497.47,69.62c0-7.29.24-14.59.65-21.85v.1c-.4,14.52.85,29,.45,43.54h0l-1.74,0C497.23,84.13,497.48,76.9,497.47,69.62Z" transform="translate(0 -0.01)"/><path class="cls-6" d="M484.43,68.25c-.74-4-1.39-8-1.79-12.13s-.59-8.17-.72-12.27V44c-.87,16.44,4,32.52,3.08,49h0l2,0c-.13-4.14-.32-8.29-.73-12.42S485.17,72.29,484.43,68.25Z" transform="translate(0 -0.01)"/><path class="cls-7" d="M482.48,68.53c-.41-4.09-.75-8.23-.82-12.35s0-8.23.25-12.33V44c-.87,16.44,4,32.52,3.08,49h0l-1.95,0c.2-4.06.33-8.13.26-12.19S482.9,72.61,482.48,68.53Z" transform="translate(0 -0.01)"/></g></g></g></svg>