<?xml version="1.0" standalone="no"?>
<!DOCTYPE svg PUBLIC "-//W3C//DTD SVG 20010904//EN"
 "http://www.w3.org/TR/2001/REC-SVG-20010904/DTD/svg10.dtd">
<svg version="1.0" xmlns="http://www.w3.org/2000/svg"
 width="260.000000pt" height="260.000000pt" viewBox="0 0 260.000000 260.000000"
 preserveAspectRatio="xMidYMid meet">
<metadata>
Created by potrace 1.11, written by Peter Selinger 2001-2013
</metadata>
<g transform="translate(0.000000,260.000000) scale(0.100000,-0.100000)"
fill="#000000" stroke="none">
<path d="M105 2574 c-45 -23 -66 -45 -86 -89 -17 -37 -19 -76 -19 -545 0 -478
1 -507 20 -548 13 -28 34 -51 63 -69 l43 -27 -30 -17 c-17 -9 -44 -33 -61 -53
l-30 -38 -3 -524 c-3 -588 -5 -566 71 -628 l39 -31 537 0 538 0 36 28 c21 16
48 49 62 75 17 33 24 41 25 26 0 -36 55 -100 99 -118 37 -14 100 -16 542 -16
427 0 505 2 536 15 48 20 71 41 94 87 18 35 19 66 19 543 0 432 -2 511 -15
542 -21 50 -42 72 -89 93 l-39 18 31 16 c17 9 44 33 59 53 l28 36 3 511 c2
281 0 525 -3 543 -7 42 -47 89 -96 113 -36 19 -62 20 -545 20 -491 0 -509 -1
-550 -20 -38 -19 -69 -52 -84 -88 -4 -9 -14 0 -30 24 -14 21 -45 48 -69 61
l-44 23 -511 0 c-444 0 -515 -2 -541 -16z m1249 -1244 c11 -8 32 -20 45 -26
l25 -10 -37 -23 c-39 -24 -77 -76 -77 -107 -1 -12 -8 -5 -22 21 -27 52 -53 81
-89 96 l-30 12 40 24 c22 13 49 39 61 59 l22 35 21 -33 c11 -18 29 -40 41 -48z"/>
</g>
</svg>
