<svg xmlns="http://www.w3.org/2000/svg" viewBox="0 0 5342.61 709.85"><defs><style>.cls-1{fill:#873015;}.cls-2{fill:#722611;}.cls-3{fill:#c69c6d;}.cls-4{fill:#fff;}.cls-5{fill:#aa5578;}.cls-6{fill:none;}.cls-7{fill:#d683a9;}</style></defs><title>Asset 1</title><g id="Layer_2" data-name="Layer 2"><g id="sprite"><path class="cls-1" d="M294.55,289.94a359.47,359.47,0,0,1,20.68-64.46,310.67,310.67,0,0,0-40.78,104.28c-38.94,201,33,229.77-80.56,315.21-5.53,4.06-42.94,24.89,2.76,31.11,52.5-26.24,105.72-74.41,153.55-138.8C296.17,490.88,271.73,393.27,294.55,289.94Z"/><path class="cls-2" d="M531.76,4.76c-8.89-6.58-10.64,7-14.79,11.72a54.68,54.68,0,0,0-12.45,25.18c-4.69,23.08-9.23,35.45-15.87,43-67.14-4.19-135.63,53-173.42,140.82a359.47,359.47,0,0,0-20.68,64.46c-22.82,103.32,1.62,200.93,55.65,247.33-47.83,64.39-101,112.57-153.55,138.81,14.54,2,37.49,2.47,72.56.48,58.47-3.33,97.74-24.45,126.16-52.92,42.21-42.28,60.52-100.78,82.29-141.39C511.64,418.84,658.93,101.2,531.76,4.76Z"/><ellipse class="cls-1" cx="195.59" cy="493.36" rx="161.33" ry="202.64"/><path class="cls-2" d="M73.07,651.42C54.29,656.49-4.21,669,.24,697.1s50.23,0,50.23,0l36.67-27.57Z"/><path class="cls-2" d="M313.41,651.42c18.78,5.07,77.28,17.56,72.83,45.68s-50.24,0-50.24,0l-36.66-27.57Z"/><ellipse class="cls-1" cx="86.01" cy="397.63" rx="76.78" ry="57.83" transform="translate(-289.38 240.83) rotate(-55.12)"/><ellipse class="cls-1" cx="306.63" cy="391.8" rx="57.83" ry="76.78" transform="translate(-168.96 245.7) rotate(-34.88)"/><ellipse class="cls-1" cx="195.35" cy="636.22" rx="151.61" ry="54.23"/><ellipse class="cls-3" cx="195.59" cy="506.96" rx="119.06" ry="144.32"/><circle class="cls-1" cx="192.59" cy="186.4" r="123.91"/><ellipse class="cls-3" cx="257.55" cy="240.18" rx="90.38" ry="76.78"/><ellipse class="cls-3" cx="131.2" cy="240.18" rx="90.38" ry="76.78"/><ellipse class="cls-3" cx="138.01" cy="208.11" rx="56.37" ry="76.78"/><ellipse class="cls-3" cx="250.75" cy="208.11" rx="56.37" ry="76.78"/><ellipse class="cls-3" cx="196.16" cy="298.49" rx="27.7" ry="32.07"/><path class="cls-4" d="M285.31,166.43c-6.62-8.09-22.08-10.3-35.33-11.77a33.23,33.23,0,0,0-28.08,15.41,35.33,35.33,0,0,0-3.12,5.94c-2.66,9.56-2.66,19.13-4,29-.09,1.14-.17,2.11-.24,3,1.66-3.92,3.88-8.41,5.13-13.43,4.17-16.66,13.93-31.1,31.11-31.1a31.11,31.11,0,0,1,28,44.67c.21-.35.42-.69.61-1a35.38,35.38,0,0,0,2.44-5.38C284.58,190,291.2,174.53,285.31,166.43Z"/><path d="M250.75,163.4c-17.18,0-26.94,14.44-31.11,31.1-1.25,5-3.47,9.51-5.13,13.43-.15,1.78-.24,3-.3,3.81,5.59,9.9,24.73,9.9,35.77,12.85a33.29,33.29,0,0,0,6.82-.71,34,34,0,0,0,21.94-15.81,31.11,31.11,0,0,0-28-44.67Z"/><path class="cls-4" d="M265.32,182.36l6.39-4.43c-3.79-5.48-9.8-8-13.3-5.56s-3.27,8.93.52,14.41c3.53,5.1,9,7.69,12.62,6Z"/><path class="cls-4" d="M103.84,166.43c6.62-8.09,22.08-10.3,35.33-11.77a33.23,33.23,0,0,1,28.08,15.41,34.62,34.62,0,0,1,3.12,5.94c2.66,9.56,2.66,19.13,4,29,.09,1.14.17,2.11.24,3-1.66-3.92-3.88-8.41-5.13-13.43-4.17-16.66-13.93-31.1-31.1-31.1a31.13,31.13,0,0,0-28,44.67c-.2-.35-.42-.69-.61-1a34.39,34.39,0,0,1-2.43-5.38C104.58,190,98,174.53,103.84,166.43Z"/><path d="M138.41,163.4c17.17,0,26.93,14.44,31.1,31.1,1.25,5,3.47,9.51,5.13,13.43.15,1.78.24,3,.3,3.81-5.59,9.9-24.73,9.9-35.77,12.85a33.29,33.29,0,0,1-6.82-.71,34,34,0,0,1-21.94-15.81,31.13,31.13,0,0,1,28-44.67Z"/><path class="cls-4" d="M153.08,182.36l6.39-4.43c-3.8-5.48-9.8-8-13.31-5.56s-3.27,8.93.53,14.41c3.53,5.1,9,7.69,12.62,6Z"/><path class="cls-1" d="M77.75,7.9c-22-1-22.83,4.49-18.79,11.57a46.71,46.71,0,0,1,13-1.85c32.74,0,59.28,34.16,59.28,76.29a98.39,98.39,0,0,1-1.08,14.51,120.43,120.43,0,0,1,26-19C195.35,68.16,118.57,9.85,77.75,7.9Z"/><path class="cls-3" d="M71.92,17.62a46.71,46.71,0,0,0-13,1.85c3.57,6.27,11,13.74,10.94,18.94,0,.4.08.79.1,1.19C71.68,82.79,84.55,109,93.69,116.9c7.44,6.45,6.19,6.25,10.6,6.55,10.38.72,16.15-6,25.83-15a98.39,98.39,0,0,0,1.08-14.51C131.2,51.78,104.66,17.62,71.92,17.62Z"/><path class="cls-1" d="M308.58.13c22-1,22.84,4.49,18.8,11.57a46.84,46.84,0,0,0-13-1.85c-32.74,0-59.28,34.15-59.28,76.29a98.5,98.5,0,0,0,1.08,14.51,120.58,120.58,0,0,0-26-19.06C191,60.38,267.76,2.07,308.58.13Z"/><path class="cls-3" d="M314.41,9.85a46.84,46.84,0,0,1,13,1.85c-3.58,6.26-11,13.74-10.95,18.94,0,.39-.08.79-.09,1.18-1.68,43.19-14.56,69.38-23.69,77.3-7.45,6.46-6.2,6.25-10.6,6.56-10.39.72-16.15-6-25.84-15a98.5,98.5,0,0,1-1.08-14.51C255.13,44,281.67,9.85,314.41,9.85Z"/><ellipse class="cls-3" cx="276.99" cy="249.41" rx="53.45" ry="41.3"/><ellipse class="cls-3" cx="111.77" cy="249.41" rx="53.45" ry="41.3"/><path class="cls-5" d="M210.87,274.37l-12.25-3.83.62-.23-5.84-2.92a7.45,7.45,0,0,0-2.91,1c-2,1-4.86-.4-2.92,1.94-1.94-1.37-15.22,3.89-15.22,3.89.64,1-9.07,15.45,16.19,16.48S210.87,274.37,210.87,274.37Z"/><path class="cls-6" d="M192.41,267.46h0v-.07A.14.14,0,0,1,192.41,267.46Z"/><path class="cls-5" d="M192.43,267.46a1.21,1.21,0,0,1,.33-.07h1.62c-2.92-4.85-1-13.6-1-13.6h-1v13.67Z"/><path class="cls-5" d="M228.39,268.37s-7.39,11.46-28.18,2v2.87c9.67,3.78,25.81,6,33-7.82C243.94,245,228.39,268.37,228.39,268.37Z"/><path class="cls-5" d="M192.41,267.46a.14.14,0,0,0,0-.07V252.82h-1s1.94,8.74-1,13.6c-.6.35-1.18.66-1.76,1h.46a1.3,1.3,0,0,1,1.3,1.3v.7c.38-.26.7-.5,1-.73A1.27,1.27,0,0,1,192.41,267.46Z"/><path class="cls-5" d="M156.47,267.39s-15.55-23.32-4.86-2.91c6.55,12.5,20.39,11.87,30.13,8.84v-2.66C163.16,277.8,156.47,267.39,156.47,267.39Z"/><path class="cls-4" d="M181.74,279.54a4.38,4.38,0,1,0,8.75,0V269.39a35.86,35.86,0,0,1-8.75,3.93Z"/><path class="cls-4" d="M189.19,267.39h-.46a57.55,57.55,0,0,1-7,3.27v2.66a35.86,35.86,0,0,0,8.75-3.93v-.7A1.3,1.3,0,0,0,189.19,267.39Z"/><path class="cls-4" d="M192.43,268.37v-.91h0a2.42,2.42,0,0,1-.94,1.2v10.88a4.38,4.38,0,1,0,8.75,0v-6.27C195.59,271.47,192.43,269.31,192.43,268.37Z"/><path class="cls-4" d="M194.38,267.39h-1.62a1.21,1.21,0,0,0-.33.07v.91c0,.94,3.16,3.1,7.78,4.9V270.4C198.37,269.56,196.43,268.58,194.38,267.39Z"/><path class="cls-4" d="M192.41,267.46a1.27,1.27,0,0,0-.94,1.2A2.42,2.42,0,0,0,192.41,267.46Z"/><ellipse class="cls-5" cx="192.59" cy="245.53" rx="17.01" ry="10.2"/><ellipse class="cls-7" cx="192.27" cy="241.64" rx="8.91" ry="5.35"/><ellipse class="cls-2" cx="83.23" cy="412.68" rx="29.48" ry="54.55" transform="translate(-337.39 430.18) rotate(-80.98)"/><ellipse class="cls-2" cx="139.05" cy="390.41" rx="49.25" ry="25.3" transform="translate(-247.86 241.92) rotate(-49.4)"/><ellipse class="cls-2" cx="164.31" cy="354.42" rx="21.58" ry="23.1" transform="translate(-193.07 196.64) rotate(-41.31)"/><ellipse class="cls-2" cx="146.68" cy="331.15" rx="16.97" ry="3.34" transform="translate(-192.43 458.35) rotate(-86.67)"/><ellipse class="cls-2" cx="155.53" cy="328.4" rx="16.97" ry="3.34" transform="translate(-181.34 464.6) rotate(-86.67)"/><ellipse class="cls-2" cx="164.39" cy="325.65" rx="16.97" ry="3.34" transform="translate(-170.25 470.85) rotate(-86.67)"/><ellipse class="cls-2" cx="173.01" cy="326.76" rx="16.97" ry="3.34" transform="translate(-163.25 480.51) rotate(-86.67)"/><ellipse class="cls-2" cx="186.86" cy="349.12" rx="11.24" ry="4.03" transform="translate(-208.81 364.68) rotate(-64.1)"/><ellipse class="cls-2" cx="309.94" cy="412.68" rx="54.55" ry="29.48" transform="translate(-60.86 53.69) rotate(-9.02)"/><ellipse class="cls-2" cx="254.12" cy="390.41" rx="25.3" ry="49.25" transform="translate(-192.89 259.36) rotate(-40.6)"/><ellipse class="cls-2" cx="228.87" cy="354.42" rx="23.1" ry="21.58" transform="translate(-188.44 292.39) rotate(-48.69)"/><ellipse class="cls-2" cx="246.5" cy="331.15" rx="3.34" ry="16.97" transform="translate(-18.81 14.87) rotate(-3.33)"/><ellipse class="cls-2" cx="237.64" cy="328.4" rx="3.34" ry="16.97" transform="translate(-18.67 14.35) rotate(-3.33)"/><ellipse class="cls-2" cx="228.79" cy="325.65" rx="3.34" ry="16.97" transform="translate(-18.52 13.83) rotate(-3.33)"/><ellipse class="cls-2" cx="220.17" cy="326.76" rx="3.34" ry="16.97" transform="translate(-18.6 13.34) rotate(-3.33)"/><ellipse class="cls-2" cx="206.31" cy="349.12" rx="4.03" ry="11.24" transform="translate(-131.79 125.21) rotate(-25.9)"/><path class="cls-1" d="M974.55,290a359.21,359.21,0,0,1,20.68-64.46,310.62,310.62,0,0,0-40.78,104.27c-38.94,201,33,229.78-80.56,315.22-5.53,4-42.94,24.89,2.76,31.1,52.5-26.23,105.72-74.41,153.55-138.79C976.17,490.92,951.73,393.3,974.55,290Z"/><path class="cls-2" d="M1211.76,4.79c-8.89-6.57-10.64,7-14.79,11.73a54.63,54.63,0,0,0-12.45,25.18c-4.69,23.07-9.23,35.45-15.87,43-67.14-4.19-135.63,53-173.42,140.83A359.21,359.21,0,0,0,974.55,290c-22.82,103.32,1.62,200.93,55.65,247.33-47.83,64.38-101.05,112.57-153.55,138.8,14.54,2,37.49,2.48,72.56.48,58.47-3.32,97.74-24.44,126.16-52.91,42.21-42.28,60.52-100.78,82.29-141.4C1191.64,418.87,1338.93,101.24,1211.76,4.79Z"/><ellipse class="cls-1" cx="875.59" cy="493.39" rx="161.33" ry="202.64"/><path class="cls-2" d="M753.07,651.46c-18.78,5.06-77.28,17.56-72.83,45.68s50.23,0,50.23,0l36.67-27.58Z"/><path class="cls-2" d="M993.41,651.46c18.78,5.06,77.28,17.56,72.83,45.68s-50.24,0-50.24,0l-36.66-27.58Z"/><ellipse class="cls-1" cx="766.01" cy="397.66" rx="76.78" ry="57.83" transform="translate(1.77 798.71) rotate(-55.12)"/><ellipse class="cls-1" cx="986.63" cy="391.83" rx="57.83" ry="76.78" transform="translate(-46.84 634.53) rotate(-34.88)"/><ellipse class="cls-1" cx="875.35" cy="636.26" rx="151.61" ry="54.23"/><ellipse class="cls-3" cx="875.59" cy="507" rx="119.06" ry="144.32"/><circle class="cls-1" cx="872.59" cy="186.44" r="123.91"/><ellipse class="cls-3" cx="937.55" cy="240.22" rx="90.38" ry="76.78"/><ellipse class="cls-3" cx="811.2" cy="240.22" rx="90.38" ry="76.78"/><ellipse class="cls-3" cx="818.01" cy="208.15" rx="56.37" ry="76.78"/><ellipse class="cls-3" cx="930.75" cy="208.15" rx="56.37" ry="76.78"/><ellipse class="cls-3" cx="876.16" cy="298.53" rx="27.7" ry="32.07"/><path class="cls-4" d="M965.31,166.47c-6.62-8.1-22.08-10.3-35.33-11.78a32.71,32.71,0,0,0-5.72.5,33.8,33.8,0,0,0-22.36,14.92,35.33,35.33,0,0,0-3.12,5.94c-2.66,9.56-2.66,19.13-4,28.95-.09,1.13-.17,2.11-.24,3,1.66-3.91,3.88-8.4,5.13-13.42,4.17-16.66,13.93-31.1,31.11-31.1a31.1,31.1,0,0,1,28,44.66c.21-.34.42-.69.61-1a36.29,36.29,0,0,0,2.44-5.38C964.58,190,971.2,174.57,965.31,166.47Z"/><path d="M930.75,163.44c-17.18,0-26.94,14.44-31.11,31.1-1.25,5-3.47,9.51-5.13,13.42-.15,1.79-.24,3-.3,3.81,5.59,9.91,24.73,9.91,35.77,12.85a32.6,32.6,0,0,0,6.82-.71,33.91,33.91,0,0,0,21.94-15.81,31.1,31.1,0,0,0-28-44.66Z"/><path class="cls-4" d="M945.32,182.39l6.39-4.43c-3.79-5.47-9.8-8-13.3-5.56s-3.27,8.94.52,14.42c3.53,5.09,9,7.69,12.62,6Z"/><path class="cls-4" d="M783.84,166.47c6.62-8.1,22.08-10.3,35.33-11.78a32.71,32.71,0,0,1,5.72.5,33.8,33.8,0,0,1,22.36,14.92,34.62,34.62,0,0,1,3.12,5.94c2.66,9.56,2.66,19.13,4,28.95.09,1.13.17,2.11.24,3-1.66-3.91-3.88-8.4-5.13-13.42-4.17-16.66-13.93-31.1-31.1-31.1a31.12,31.12,0,0,0-28,44.66c-.2-.34-.42-.69-.61-1a35.25,35.25,0,0,1-2.43-5.38C784.58,190,778,174.57,783.84,166.47Z"/><path d="M818.41,163.44c17.17,0,26.93,14.44,31.1,31.1,1.25,5,3.47,9.51,5.13,13.42.15,1.79.24,3,.3,3.81-5.59,9.91-24.73,9.91-35.77,12.85a32.6,32.6,0,0,1-6.82-.71,33.91,33.91,0,0,1-21.94-15.81,31.12,31.12,0,0,1,28-44.66Z"/><path class="cls-4" d="M833.08,182.39l6.39-4.43c-3.8-5.47-9.8-8-13.31-5.56s-3.27,8.94.53,14.42c3.53,5.09,9,7.69,12.62,6Z"/><path class="cls-1" d="M757.75,7.94c-22-1.05-22.83,4.49-18.79,11.57a46.71,46.71,0,0,1,13-1.85c32.74,0,59.28,34.16,59.28,76.29a98.5,98.5,0,0,1-1.08,14.51,120.76,120.76,0,0,1,26-19.06C875.35,68.2,798.57,9.88,757.75,7.94Z"/><path class="cls-3" d="M751.92,17.66a46.71,46.71,0,0,0-13,1.85c3.57,6.26,11,13.74,10.94,18.94,0,.39.08.79.1,1.19,1.68,43.18,14.55,69.37,23.69,77.29,7.44,6.46,6.19,6.25,10.6,6.56,10.38.72,16.15-6,25.83-15A98.5,98.5,0,0,0,811.2,94C811.2,51.82,784.66,17.66,751.92,17.66Z"/><path class="cls-1" d="M988.58.16c22-1,22.84,4.49,18.8,11.57a47.22,47.22,0,0,0-13-1.85c-32.74,0-59.28,34.16-59.28,76.3a98.36,98.36,0,0,0,1.08,14.5,120.58,120.58,0,0,0-26-19.05C871,60.42,947.76,2.11,988.58.16Z"/><path class="cls-3" d="M994.41,9.88a47.22,47.22,0,0,1,13,1.85c-3.58,6.27-11,13.75-11,18.94,0,.4-.08.8-.09,1.19-1.68,43.19-14.56,69.38-23.69,77.3-7.45,6.45-6.2,6.25-10.6,6.55-10.39.72-16.15-6-25.84-15a98.36,98.36,0,0,1-1.08-14.5C935.13,44,961.67,9.88,994.41,9.88Z"/><ellipse class="cls-3" cx="956.99" cy="249.45" rx="53.45" ry="41.3"/><ellipse class="cls-3" cx="791.77" cy="249.45" rx="53.45" ry="41.3"/><path class="cls-5" d="M890.87,260.21l-12.25-3.83.62-.24-5.84-2.91a7.51,7.51,0,0,0-2.91,1c-2,1-4.86-.4-2.92,1.94-1.94-1.37-15.22,3.89-15.22,3.89.64,1-9.07,15.45,16.19,16.48S890.87,260.21,890.87,260.21Z"/><path class="cls-6" d="M872.41,253.3h0v-.06A.19.19,0,0,1,872.41,253.3Z"/><path class="cls-5" d="M872.43,253.29a1.2,1.2,0,0,1,.33-.06h1.62c-2.92-4.86-1-13.61-1-13.61h-1v13.67Z"/><path class="cls-5" d="M908.39,254.2s-7.39,11.46-28.18,2v2.87c9.67,3.78,25.81,6,33-7.82C923.94,230.87,908.39,254.2,908.39,254.2Z"/><path class="cls-5" d="M872.41,253.3a.19.19,0,0,0,0-.07V238.65h-1s1.94,8.75-1,13.61l-1.76,1h.46a1.3,1.3,0,0,1,1.3,1.29v.7c.38-.26.7-.5,1-.73A1.26,1.26,0,0,1,872.41,253.3Z"/><path class="cls-5" d="M836.47,253.23s-15.55-23.33-4.86-2.92c6.55,12.5,20.39,11.87,30.13,8.84v-2.66C843.16,263.63,836.47,253.23,836.47,253.23Z"/><path class="cls-4" d="M861.74,265.38a4.38,4.38,0,0,0,8.75,0V255.22a35.86,35.86,0,0,1-8.75,3.93Z"/><path class="cls-4" d="M869.19,253.23h-.46a58.93,58.93,0,0,1-7,3.26v2.66a35.86,35.86,0,0,0,8.75-3.93v-.7A1.3,1.3,0,0,0,869.19,253.23Z"/><path class="cls-4" d="M872.43,254.2v-.91h0a2.45,2.45,0,0,1-.94,1.19s0,0,0,0v10.86a4.38,4.38,0,0,0,8.75,0V259.1C875.59,257.3,872.43,255.14,872.43,254.2Z"/><path class="cls-4" d="M874.38,253.23h-1.62a1.2,1.2,0,0,0-.33.06v.91c0,.94,3.16,3.1,7.78,4.9v-2.87C878.37,255.4,876.43,254.41,874.38,253.23Z"/><path class="cls-4" d="M872.41,253.3a1.26,1.26,0,0,0-.94,1.19A2.45,2.45,0,0,0,872.41,253.3Z"/><ellipse class="cls-5" cx="872.59" cy="231.36" rx="17.01" ry="10.2"/><ellipse class="cls-7" cx="872.27" cy="227.47" rx="8.91" ry="5.35"/><ellipse class="cls-2" cx="763.23" cy="412.71" rx="29.48" ry="54.55" transform="translate(235.97 1101.81) rotate(-80.98)"/><ellipse class="cls-2" cx="819.05" cy="390.44" rx="49.25" ry="25.3" transform="translate(-10.42 758.23) rotate(-49.4)"/><ellipse class="cls-2" cx="844.31" cy="354.45" rx="21.58" ry="23.1" transform="translate(-23.9 645.51) rotate(-41.31)"/><ellipse class="cls-2" cx="826.68" cy="331.19" rx="16.97" ry="3.34" transform="translate(448.04 1137.24) rotate(-86.67)"/><ellipse class="cls-2" cx="835.53" cy="328.43" rx="16.97" ry="3.34" transform="translate(459.13 1143.48) rotate(-86.67)"/><ellipse class="cls-2" cx="844.39" cy="325.68" rx="16.97" ry="3.34" transform="translate(470.22 1149.73) rotate(-86.67)"/><ellipse class="cls-2" cx="853.01" cy="326.8" rx="16.97" ry="3.34" transform="translate(477.23 1159.39) rotate(-86.67)"/><ellipse class="cls-2" cx="866.86" cy="349.15" rx="11.24" ry="4.03" transform="translate(174.08 976.37) rotate(-64.1)"/><ellipse class="cls-2" cx="989.94" cy="412.71" rx="54.55" ry="29.48" transform="translate(-52.46 160.29) rotate(-9.02)"/><ellipse class="cls-2" cx="934.12" cy="390.44" rx="25.3" ry="49.25" transform="translate(-29.22 701.9) rotate(-40.6)"/><ellipse class="cls-2" cx="908.87" cy="354.45" rx="23.1" ry="21.58" transform="translate(42.67 803.21) rotate(-48.69)"/><ellipse class="cls-2" cx="926.5" cy="331.19" rx="3.34" ry="16.97" transform="translate(-17.67 54.36) rotate(-3.33)"/><ellipse class="cls-2" cx="917.64" cy="328.43" rx="3.34" ry="16.97" transform="translate(-17.52 53.84) rotate(-3.33)"/><ellipse class="cls-2" cx="908.79" cy="325.68" rx="3.34" ry="16.97" transform="translate(-17.38 53.32) rotate(-3.33)"/><ellipse class="cls-2" cx="900.17" cy="326.8" rx="3.34" ry="16.97" transform="translate(-17.46 52.82) rotate(-3.33)"/><ellipse class="cls-2" cx="886.31" cy="349.15" rx="4.03" ry="11.24" transform="translate(-63.48 422.29) rotate(-25.9)"/><path class="cls-1" d="M1654.55,290.05a359.47,359.47,0,0,1,20.68-64.46,310.67,310.67,0,0,0-40.78,104.28c-38.94,201,33,229.77-80.56,315.21-5.53,4-42.94,24.89,2.76,31.1,52.5-26.23,105.72-74.4,153.55-138.79C1656.17,491,1631.73,393.38,1654.55,290.05Z"/><path class="cls-2" d="M1891.76,4.86c-8.89-6.57-10.64,7-14.79,11.73a54.63,54.63,0,0,0-12.45,25.18c-4.69,23.08-9.23,35.45-15.87,43-67.14-4.18-135.63,53-173.42,140.83a359.47,359.47,0,0,0-20.68,64.46c-22.82,103.32,1.62,200.93,55.65,247.33-47.83,64.39-101,112.57-153.55,138.8,14.54,2,37.49,2.48,72.56.49,58.47-3.33,97.74-24.45,126.16-52.92,42.21-42.28,60.52-100.78,82.29-141.39C1871.64,418.94,2018.93,101.31,1891.76,4.86Z"/><ellipse class="cls-1" cx="1555.59" cy="493.47" rx="161.33" ry="202.64"/><path class="cls-2" d="M1433.07,651.53c-18.78,5.06-77.28,17.56-72.83,45.68s50.23,0,50.23,0l36.67-27.57Z"/><path class="cls-2" d="M1673.41,651.53c18.78,5.06,77.28,17.56,72.83,45.68s-50.24,0-50.24,0l-36.66-27.57Z"/><ellipse class="cls-1" cx="1446.01" cy="397.74" rx="76.78" ry="57.83" transform="translate(292.88 1356.61) rotate(-55.12)"/><ellipse class="cls-1" cx="1666.63" cy="391.9" rx="57.83" ry="76.78" transform="translate(75.25 1023.37) rotate(-34.88)"/><ellipse class="cls-1" cx="1555.35" cy="636.33" rx="151.61" ry="54.23"/><ellipse class="cls-3" cx="1555.59" cy="507.07" rx="119.06" ry="144.32"/><circle class="cls-1" cx="1552.59" cy="186.51" r="123.91"/><ellipse class="cls-3" cx="1617.55" cy="240.29" rx="90.38" ry="76.78"/><ellipse class="cls-3" cx="1491.2" cy="240.29" rx="90.38" ry="76.78"/><ellipse class="cls-3" cx="1498.01" cy="208.22" rx="56.37" ry="76.78"/><ellipse class="cls-3" cx="1610.75" cy="208.22" rx="56.37" ry="76.78"/><ellipse class="cls-3" cx="1556.16" cy="298.6" rx="27.7" ry="32.07"/><path class="cls-4" d="M1645.31,166.54c-6.62-8.09-22.08-10.3-35.33-11.77a33.23,33.23,0,0,0-28.08,15.41,35.33,35.33,0,0,0-3.12,5.94c-2.66,9.56-2.66,19.13-4,28.95-.09,1.13-.17,2.11-.24,3,1.66-3.92,3.88-8.41,5.13-13.43,4.17-16.66,13.93-31.1,31.11-31.1a31.1,31.1,0,0,1,28,44.66c.21-.34.42-.68.61-1a35.38,35.38,0,0,0,2.44-5.38C1644.58,190.1,1651.2,174.64,1645.31,166.54Z"/><path d="M1610.75,163.51c-17.18,0-26.94,14.44-31.11,31.1-1.25,5-3.47,9.51-5.13,13.43-.15,1.78-.24,3-.3,3.8,5.59,9.91,24.73,9.91,35.77,12.85a32.6,32.6,0,0,0,6.82-.71,33.91,33.91,0,0,0,21.94-15.81,31.1,31.1,0,0,0-28-44.66Z"/><path class="cls-4" d="M1625.32,182.46l6.39-4.42c-3.79-5.48-9.8-8-13.3-5.56s-3.27,8.93.52,14.41c3.53,5.1,9,7.69,12.62,6Z"/><path class="cls-4" d="M1463.84,166.54c6.62-8.09,22.08-10.3,35.33-11.77a33.23,33.23,0,0,1,28.08,15.41,34.62,34.62,0,0,1,3.12,5.94c2.66,9.56,2.66,19.13,4,28.95.09,1.13.17,2.11.24,3-1.66-3.92-3.88-8.41-5.13-13.43-4.17-16.66-13.93-31.1-31.1-31.1a31.12,31.12,0,0,0-28,44.66c-.2-.34-.42-.68-.61-1a34.39,34.39,0,0,1-2.43-5.38C1464.58,190.1,1458,174.64,1463.84,166.54Z"/><path d="M1498.41,163.51c17.17,0,26.93,14.44,31.1,31.1,1.25,5,3.47,9.51,5.13,13.43.15,1.78.24,3,.3,3.8-5.59,9.91-24.73,9.91-35.77,12.85a32.6,32.6,0,0,1-6.82-.71,33.91,33.91,0,0,1-21.94-15.81,31.12,31.12,0,0,1,28-44.66Z"/><path class="cls-4" d="M1513.08,182.46l6.39-4.42c-3.8-5.48-9.8-8-13.31-5.56s-3.27,8.93.53,14.41c3.53,5.1,9,7.69,12.62,6Z"/><path class="cls-1" d="M1437.75,8c-22-1-22.83,4.49-18.79,11.57a46.71,46.71,0,0,1,13-1.85c32.74,0,59.28,34.16,59.28,76.29a98.39,98.39,0,0,1-1.08,14.51,120.76,120.76,0,0,1,26-19.06C1555.35,68.27,1478.57,10,1437.75,8Z"/><path class="cls-3" d="M1431.92,17.73a46.71,46.71,0,0,0-13,1.85c3.57,6.27,11,13.74,10.94,18.94,0,.39.08.79.1,1.19,1.68,43.18,14.55,69.38,23.69,77.3,7.44,6.45,6.19,6.25,10.6,6.55,10.38.72,16.15-6,25.83-15A98.39,98.39,0,0,0,1491.2,94C1491.2,51.89,1464.66,17.73,1431.92,17.73Z"/><path class="cls-1" d="M1668.58.24c22-1,22.84,4.48,18.8,11.57a46.84,46.84,0,0,0-13-1.85c-32.74,0-59.28,34.15-59.28,76.29a98.5,98.5,0,0,0,1.08,14.51,120.24,120.24,0,0,0-26-19.06C1551,60.49,1627.76,2.18,1668.58.24Z"/><path class="cls-3" d="M1674.41,10a46.84,46.84,0,0,1,13,1.85c-3.58,6.26-11,13.74-11,18.94,0,.39-.08.79-.09,1.18-1.68,43.19-14.56,69.38-23.69,77.3-7.45,6.46-6.2,6.25-10.6,6.56-10.39.72-16.15-6-25.84-15a98.5,98.5,0,0,1-1.08-14.51C1615.13,44.11,1641.67,10,1674.41,10Z"/><ellipse class="cls-3" cx="1636.99" cy="249.52" rx="53.45" ry="41.3"/><ellipse class="cls-3" cx="1471.77" cy="249.52" rx="53.45" ry="41.3"/><path class="cls-5" d="M1570.87,274.48l-12.25-3.83.62-.23-5.84-2.92a7.45,7.45,0,0,0-2.91,1c-2,1-4.86-.4-2.92,1.94-1.94-1.37-15.22,3.89-15.22,3.89.64,1-9.07,15.44,16.19,16.47S1570.87,274.48,1570.87,274.48Z"/><path class="cls-6" d="M1552.41,267.57h0v-.07A.19.19,0,0,1,1552.41,267.57Z"/><path class="cls-5" d="M1552.43,267.57a1.21,1.21,0,0,1,.33-.07h1.62c-2.92-4.86-1-13.6-1-13.6h-1v13.67Z"/><path class="cls-5" d="M1588.39,268.48s-7.39,11.46-28.18,2v2.87c9.67,3.78,25.81,6,33-7.82C1603.94,245.15,1588.39,268.48,1588.39,268.48Z"/><path class="cls-5" d="M1552.41,267.57a.19.19,0,0,0,0-.07V252.93h-1s1.94,8.74-1,13.6c-.6.35-1.18.66-1.76,1h.46a1.3,1.3,0,0,1,1.3,1.3v.69a11.41,11.41,0,0,0,1-.72A1.27,1.27,0,0,1,1552.41,267.57Z"/><path class="cls-5" d="M1516.47,267.5s-15.55-23.32-4.86-2.91c6.55,12.5,20.39,11.87,30.13,8.84v-2.66C1523.16,277.91,1516.47,267.5,1516.47,267.5Z"/><path class="cls-4" d="M1541.74,279.65a4.38,4.38,0,1,0,8.75,0V269.49a35.45,35.45,0,0,1-8.75,3.94Z"/><path class="cls-4" d="M1549.19,267.5h-.46a57.55,57.55,0,0,1-7,3.27v2.66a35.45,35.45,0,0,0,8.75-3.94v-.69A1.3,1.3,0,0,0,1549.19,267.5Z"/><path class="cls-4" d="M1552.43,268.48v-.91h0a2.42,2.42,0,0,1-.94,1.2v10.88a4.38,4.38,0,1,0,8.75,0v-6.27C1555.59,271.58,1552.43,269.42,1552.43,268.48Z"/><path class="cls-4" d="M1554.38,267.5h-1.62a1.21,1.21,0,0,0-.33.07v.91c0,.94,3.16,3.1,7.78,4.9v-2.87C1558.37,269.67,1556.43,268.69,1554.38,267.5Z"/><path class="cls-4" d="M1552.41,267.57a1.27,1.27,0,0,0-.94,1.2A2.42,2.42,0,0,0,1552.41,267.57Z"/><ellipse class="cls-5" cx="1552.59" cy="245.64" rx="17.01" ry="10.2"/><ellipse class="cls-7" cx="1552.27" cy="241.75" rx="8.91" ry="5.35"/><ellipse class="cls-2" cx="1443.23" cy="412.79" rx="29.48" ry="54.55" transform="translate(809.29 1773.46) rotate(-80.98)"/><ellipse class="cls-2" cx="1499.05" cy="390.52" rx="49.25" ry="25.3" transform="translate(227 1274.56) rotate(-49.4)"/><ellipse class="cls-2" cx="1524.31" cy="354.53" rx="21.58" ry="23.1" transform="translate(145.25 1094.39) rotate(-41.31)"/><ellipse class="cls-2" cx="1506.68" cy="331.26" rx="16.97" ry="3.34" transform="translate(1088.48 1816.16) rotate(-86.67)"/><ellipse class="cls-2" cx="1515.53" cy="328.51" rx="16.97" ry="3.34" transform="translate(1099.57 1822.41) rotate(-86.67)"/><ellipse class="cls-2" cx="1524.39" cy="325.75" rx="16.97" ry="3.34" transform="translate(1110.66 1828.65) rotate(-86.67)"/><ellipse class="cls-2" cx="1533.01" cy="326.87" rx="16.97" ry="3.34" transform="translate(1117.67 1838.31) rotate(-86.67)"/><ellipse class="cls-2" cx="1546.86" cy="349.22" rx="11.24" ry="4.03" transform="translate(556.94 1588.09) rotate(-64.1)"/><ellipse class="cls-2" cx="1669.94" cy="412.79" rx="54.55" ry="29.48" transform="translate(-44.06 266.9) rotate(-9.02)"/><ellipse class="cls-2" cx="1614.12" cy="390.52" rx="25.3" ry="49.25" transform="translate(134.43 1144.44) rotate(-40.6)"/><ellipse class="cls-2" cx="1588.87" cy="354.53" rx="23.1" ry="21.58" transform="translate(273.76 1314.05) rotate(-48.69)"/><ellipse class="cls-2" cx="1606.5" cy="331.26" rx="3.34" ry="16.97" transform="translate(-16.52 93.85) rotate(-3.33)"/><ellipse class="cls-2" cx="1597.64" cy="328.51" rx="3.34" ry="16.97" transform="translate(-16.38 93.33) rotate(-3.33)"/><ellipse class="cls-2" cx="1588.79" cy="325.75" rx="3.34" ry="16.97" transform="translate(-16.24 92.81) rotate(-3.33)"/><ellipse class="cls-2" cx="1580.17" cy="326.87" rx="3.34" ry="16.97" transform="translate(-16.31 92.31) rotate(-3.33)"/><ellipse class="cls-2" cx="1566.31" cy="349.22" rx="4.03" ry="11.24" transform="translate(4.81 719.38) rotate(-25.9)"/><path class="cls-1" d="M2334.55,290.09a359.21,359.21,0,0,1,20.68-64.46,310.62,310.62,0,0,0-40.78,104.27c-38.94,201,33,229.78-80.56,315.22-5.53,4-42.94,24.89,2.76,31.1,52.5-26.23,105.72-74.41,153.55-138.8C2336.17,491,2311.73,393.41,2334.55,290.09Z"/><path class="cls-2" d="M2571.76,4.9c-8.89-6.57-10.64,7-14.79,11.73a54.63,54.63,0,0,0-12.45,25.18c-4.69,23.07-9.23,35.44-15.87,43-67.14-4.19-135.63,53-173.42,140.83a359.21,359.21,0,0,0-20.68,64.46c-22.82,103.32,1.62,200.93,55.65,247.33-47.83,64.38-101,112.57-153.55,138.8,14.54,2,37.49,2.48,72.56.48,58.47-3.32,97.74-24.44,126.16-52.91,42.21-42.28,60.52-100.78,82.29-141.4C2551.64,419,2698.93,101.35,2571.76,4.9Z"/><ellipse class="cls-1" cx="2235.59" cy="493.5" rx="161.33" ry="202.64"/><path class="cls-2" d="M2113.07,651.57c-18.78,5.06-77.28,17.56-72.83,45.68s50.23,0,50.23,0l36.67-27.58Z"/><path class="cls-2" d="M2353.41,651.57c18.78,5.06,77.28,17.56,72.83,45.68s-50.24,0-50.24,0l-36.66-27.58Z"/><ellipse class="cls-1" cx="2126.01" cy="397.77" rx="76.78" ry="57.83" transform="translate(584.03 1914.49) rotate(-55.12)"/><ellipse class="cls-1" cx="2346.63" cy="391.94" rx="57.83" ry="76.78" transform="translate(197.36 1412.2) rotate(-34.88)"/><ellipse class="cls-1" cx="2235.35" cy="636.37" rx="151.61" ry="54.23"/><ellipse class="cls-3" cx="2235.59" cy="507.11" rx="119.06" ry="144.32"/><circle class="cls-1" cx="2232.59" cy="186.55" r="123.91"/><ellipse class="cls-3" cx="2297.55" cy="240.33" rx="90.38" ry="76.78"/><ellipse class="cls-3" cx="2171.2" cy="240.33" rx="90.38" ry="76.78"/><ellipse class="cls-3" cx="2178.01" cy="208.26" rx="56.37" ry="76.78"/><ellipse class="cls-3" cx="2290.75" cy="208.26" rx="56.37" ry="76.78"/><ellipse class="cls-3" cx="2236.16" cy="298.64" rx="27.7" ry="32.07"/><path class="cls-4" d="M2325.31,166.58c-6.62-8.1-22.08-10.31-35.33-11.78a32.71,32.71,0,0,0-5.72.5,33.8,33.8,0,0,0-22.36,14.92,35.33,35.33,0,0,0-3.12,5.94c-2.66,9.56-2.66,19.13-4,29-.09,1.13-.17,2.11-.24,3,1.66-3.91,3.88-8.41,5.13-13.42,4.17-16.66,13.93-31.1,31.11-31.1a31.1,31.1,0,0,1,28,44.66c.21-.34.42-.69.61-1a36.29,36.29,0,0,0,2.44-5.38C2324.58,190.13,2331.2,174.68,2325.31,166.58Z"/><path d="M2290.75,163.55c-17.18,0-26.94,14.44-31.11,31.1-1.25,5-3.47,9.51-5.13,13.42-.15,1.79-.24,3-.3,3.81,5.59,9.91,24.73,9.91,35.77,12.85a32.6,32.6,0,0,0,6.82-.71,33.91,33.91,0,0,0,21.94-15.81,31.1,31.1,0,0,0-28-44.66Z"/><path class="cls-4" d="M2305.32,182.5l6.39-4.43c-3.79-5.48-9.8-8-13.3-5.56s-3.27,8.94.52,14.42c3.53,5.09,9,7.68,12.62,6Z"/><path class="cls-4" d="M2143.84,166.58c6.62-8.1,22.08-10.31,35.33-11.78a32.71,32.71,0,0,1,5.72.5,33.8,33.8,0,0,1,22.36,14.92,34.62,34.62,0,0,1,3.12,5.94c2.66,9.56,2.66,19.13,4,29,.09,1.13.17,2.11.24,3-1.66-3.91-3.88-8.41-5.13-13.42-4.17-16.66-13.93-31.1-31.1-31.1a31.12,31.12,0,0,0-28,44.66c-.2-.34-.42-.69-.61-1a35.25,35.25,0,0,1-2.43-5.38C2144.58,190.13,2138,174.68,2143.84,166.58Z"/><path d="M2178.41,163.55c17.17,0,26.93,14.44,31.1,31.1,1.25,5,3.47,9.51,5.13,13.42.15,1.79.24,3,.3,3.81-5.59,9.91-24.73,9.91-35.77,12.85a32.6,32.6,0,0,1-6.82-.71,33.91,33.91,0,0,1-21.94-15.81,31.12,31.12,0,0,1,28-44.66Z"/><path class="cls-4" d="M2193.08,182.5l6.39-4.43c-3.8-5.48-9.8-8-13.31-5.56s-3.27,8.94.53,14.42c3.53,5.09,9,7.68,12.62,6Z"/><path class="cls-1" d="M2117.75,8.05c-22-1.05-22.83,4.49-18.79,11.57a46.71,46.71,0,0,1,13-1.85c32.74,0,59.28,34.15,59.28,76.29a98.5,98.5,0,0,1-1.08,14.51,120.76,120.76,0,0,1,26-19.06C2235.35,68.3,2158.57,10,2117.75,8.05Z"/><path class="cls-3" d="M2111.92,17.77a46.71,46.71,0,0,0-13,1.85c3.57,6.26,11,13.74,10.94,18.94,0,.39.08.79.1,1.18,1.68,43.19,14.55,69.38,23.69,77.3,7.44,6.46,6.19,6.25,10.6,6.56,10.38.72,16.15-6,25.83-15a98.5,98.5,0,0,0,1.08-14.51C2171.2,51.92,2144.66,17.77,2111.92,17.77Z"/><path class="cls-1" d="M2348.58.27c22-1,22.84,4.49,18.8,11.57a46.84,46.84,0,0,0-13-1.85c-32.74,0-59.28,34.16-59.28,76.29a98.39,98.39,0,0,0,1.08,14.51,120.58,120.58,0,0,0-26-19.05C2231,60.53,2307.76,2.22,2348.58.27Z"/><path class="cls-3" d="M2354.41,10a46.84,46.84,0,0,1,13,1.85c-3.58,6.27-11,13.74-11,18.94,0,.4-.08.8-.09,1.19-1.68,43.19-14.56,69.38-23.69,77.3-7.45,6.45-6.2,6.25-10.6,6.55-10.39.72-16.15-6-25.84-15a98.39,98.39,0,0,1-1.08-14.51C2295.13,44.15,2321.67,10,2354.41,10Z"/><ellipse class="cls-3" cx="2316.99" cy="249.56" rx="53.45" ry="41.3"/><ellipse class="cls-3" cx="2151.77" cy="249.56" rx="53.45" ry="41.3"/><path class="cls-5" d="M2250.87,290.55l-12.25-3.83.62-.23-5.84-2.91a7.51,7.51,0,0,0-2.91,1c-1.95,1-4.86-.4-2.92,1.94-1.94-1.37-15.22,3.89-15.22,3.89.64,1-9.07,15.45,16.19,16.48S2250.87,290.55,2250.87,290.55Z"/><path class="cls-6" d="M2232.41,283.65h0v-.06A.25.25,0,0,1,2232.41,283.65Z"/><path class="cls-5" d="M2232.43,283.64a1.2,1.2,0,0,1,.33-.06h1.62c-2.92-4.86-1-13.61-1-13.61h-1v13.67Z"/><path class="cls-5" d="M2268.39,284.55s-7.39,11.46-28.18,2v2.87c9.67,3.78,25.81,6,33-7.82C2283.94,261.22,2268.39,284.55,2268.39,284.55Z"/><path class="cls-5" d="M2232.41,283.65a.25.25,0,0,0,0-.07V269h-1s1.94,8.74-1,13.6c-.6.35-1.18.66-1.76,1h.46a1.3,1.3,0,0,1,1.3,1.29v.7c.38-.26.7-.5,1-.73A1.26,1.26,0,0,1,2232.41,283.65Z"/><path class="cls-5" d="M2196.47,283.58s-15.55-23.33-4.86-2.92c6.55,12.5,20.39,11.87,30.13,8.84v-2.66C2203.16,294,2196.47,283.58,2196.47,283.58Z"/><path class="cls-4" d="M2221.74,295.72a4.38,4.38,0,1,0,8.75,0V285.57a35.86,35.86,0,0,1-8.75,3.93Z"/><path class="cls-4" d="M2229.19,283.58h-.46a58.93,58.93,0,0,1-7,3.26v2.66a35.86,35.86,0,0,0,8.75-3.93v-.7A1.3,1.3,0,0,0,2229.19,283.58Z"/><path class="cls-4" d="M2232.43,284.55v-.91h0a2.45,2.45,0,0,1-.94,1.19s0,0,0,0v10.85a4.38,4.38,0,1,0,8.75,0v-6.27C2235.59,287.65,2232.43,285.49,2232.43,284.55Z"/><path class="cls-4" d="M2234.38,283.58h-1.62a1.2,1.2,0,0,0-.33.06v.91c0,.94,3.16,3.1,7.78,4.9v-2.87C2238.37,285.74,2236.43,284.76,2234.38,283.58Z"/><path class="cls-4" d="M2232.41,283.65a1.26,1.26,0,0,0-.94,1.19A2.45,2.45,0,0,0,2232.41,283.65Z"/><ellipse class="cls-5" cx="2232.59" cy="261.71" rx="17.01" ry="10.2"/><ellipse class="cls-7" cx="2232.27" cy="257.82" rx="8.91" ry="5.35"/><ellipse class="cls-2" cx="2123.23" cy="412.82" rx="29.48" ry="54.55" transform="translate(1382.66 2445.08) rotate(-80.98)"/><ellipse class="cls-2" cx="2179.05" cy="390.55" rx="49.25" ry="25.3" transform="translate(464.44 1790.88) rotate(-49.4)"/><ellipse class="cls-2" cx="2204.31" cy="354.56" rx="21.58" ry="23.1" transform="translate(314.42 1543.26) rotate(-41.31)"/><ellipse class="cls-2" cx="2186.68" cy="331.3" rx="16.97" ry="3.34" transform="translate(1728.96 2495.04) rotate(-86.67)"/><ellipse class="cls-2" cx="2195.53" cy="328.54" rx="16.97" ry="3.34" transform="translate(1740.05 2501.29) rotate(-86.67)"/><ellipse class="cls-2" cx="2204.39" cy="325.79" rx="16.97" ry="3.34" transform="translate(1751.14 2507.54) rotate(-86.67)"/><ellipse class="cls-2" cx="2213.01" cy="326.91" rx="16.97" ry="3.34" transform="translate(1758.14 2517.2) rotate(-86.67)"/><ellipse class="cls-2" cx="2226.86" cy="349.26" rx="11.24" ry="4.03" transform="translate(939.82 2199.78) rotate(-64.1)"/><ellipse class="cls-2" cx="2349.94" cy="412.82" rx="54.55" ry="29.48" transform="translate(-35.66 373.5) rotate(-9.02)"/><ellipse class="cls-2" cx="2294.12" cy="390.55" rx="25.3" ry="49.25" transform="translate(298.1 1586.98) rotate(-40.6)"/><ellipse class="cls-2" cx="2268.87" cy="354.56" rx="23.1" ry="21.58" transform="translate(504.87 1824.87) rotate(-48.69)"/><ellipse class="cls-2" cx="2286.5" cy="331.3" rx="3.34" ry="16.97" transform="translate(-15.38 133.33) rotate(-3.33)"/><ellipse class="cls-2" cx="2277.64" cy="328.54" rx="3.34" ry="16.97" transform="translate(-15.23 132.81) rotate(-3.33)"/><ellipse class="cls-2" cx="2268.79" cy="325.79" rx="3.34" ry="16.97" transform="translate(-15.09 132.29) rotate(-3.33)"/><ellipse class="cls-2" cx="2260.17" cy="326.91" rx="3.34" ry="16.97" transform="translate(-15.17 131.8) rotate(-3.33)"/><ellipse class="cls-2" cx="2246.31" cy="349.26" rx="4.03" ry="11.24" transform="translate(73.12 1016.46) rotate(-25.9)"/><path class="cls-1" d="M3014.55,290.2a359.21,359.21,0,0,1,20.68-64.46A310.62,310.62,0,0,0,2994.45,330c-38.94,201,33,229.78-80.56,315.21-5.53,4.06-42.94,24.9,2.76,31.11,52.5-26.23,105.72-74.41,153.55-138.8C3016.17,491.13,2991.73,393.52,3014.55,290.2Z"/><path class="cls-2" d="M3251.76,5c-8.89-6.57-10.64,7-14.79,11.73a54.63,54.63,0,0,0-12.45,25.18c-4.69,23.07-9.23,35.44-15.87,43-67.14-4.19-135.63,53-173.42,140.83a359.21,359.21,0,0,0-20.68,64.46c-22.82,103.32,1.62,200.93,55.65,247.33-47.83,64.38-101,112.57-153.55,138.8,14.54,2,37.49,2.47,72.56.48,58.47-3.32,97.74-24.44,126.16-52.92,42.21-42.27,60.52-100.78,82.29-141.39C3231.64,419.09,3378.93,101.46,3251.76,5Z"/><ellipse class="cls-1" cx="2915.59" cy="493.61" rx="161.33" ry="202.64"/><path class="cls-2" d="M2793.07,651.68c-18.78,5.06-77.28,17.56-72.83,45.68s50.23,0,50.23,0l36.67-27.58Z"/><path class="cls-2" d="M3033.41,651.68c18.78,5.06,77.28,17.56,72.83,45.68s-50.24,0-50.24,0l-36.66-27.58Z"/><ellipse class="cls-1" cx="2806.01" cy="397.88" rx="76.78" ry="57.83" transform="translate(875.12 2472.41) rotate(-55.12)"/><ellipse class="cls-1" cx="3026.63" cy="392.05" rx="57.83" ry="76.78" transform="translate(319.43 1801.04) rotate(-34.88)"/><ellipse class="cls-1" cx="2915.35" cy="636.48" rx="151.61" ry="54.23"/><ellipse class="cls-3" cx="2915.59" cy="507.22" rx="119.06" ry="144.32"/><circle class="cls-1" cx="2912.59" cy="186.66" r="123.91"/><ellipse class="cls-3" cx="2977.55" cy="240.44" rx="90.38" ry="76.78"/><ellipse class="cls-3" cx="2851.2" cy="240.44" rx="90.38" ry="76.78"/><ellipse class="cls-3" cx="2858.01" cy="208.36" rx="56.37" ry="76.78"/><ellipse class="cls-3" cx="2970.75" cy="208.36" rx="56.37" ry="76.78"/><ellipse class="cls-3" cx="2916.16" cy="298.75" rx="27.7" ry="32.07"/><path class="cls-4" d="M3005.31,166.69c-6.62-8.1-22.08-10.31-35.33-11.78a32.71,32.71,0,0,0-5.72.5,33.8,33.8,0,0,0-22.36,14.92,35,35,0,0,0-3.12,5.94c-2.66,9.56-2.66,19.13-4,28.95-.09,1.13-.17,2.1-.24,3,1.66-3.91,3.88-8.41,5.13-13.42,4.17-16.67,13.93-31.1,31.11-31.1a31.1,31.1,0,0,1,28,44.66c.21-.35.42-.69.61-1a36.29,36.29,0,0,0,2.44-5.38C3004.58,190.24,3011.2,174.79,3005.31,166.69Z"/><path d="M2970.75,163.66c-17.18,0-26.94,14.43-31.11,31.1-1.25,5-3.47,9.51-5.13,13.42-.15,1.79-.24,3-.3,3.81,5.59,9.91,24.73,9.91,35.77,12.85a32.6,32.6,0,0,0,6.82-.71,33.91,33.91,0,0,0,21.94-15.81,31.1,31.1,0,0,0-28-44.66Z"/><path class="cls-4" d="M2985.32,182.61l6.39-4.43c-3.79-5.48-9.8-8-13.3-5.56s-3.27,8.94.52,14.42c3.53,5.09,9,7.68,12.62,6Z"/><path class="cls-4" d="M2823.84,166.69c6.62-8.1,22.08-10.31,35.33-11.78a32.71,32.71,0,0,1,5.72.5,33.8,33.8,0,0,1,22.36,14.92,34.25,34.25,0,0,1,3.12,5.94c2.66,9.56,2.66,19.13,4,28.95.09,1.13.17,2.1.24,3-1.66-3.91-3.88-8.41-5.13-13.42-4.17-16.67-13.93-31.1-31.1-31.1a31.12,31.12,0,0,0-28,44.66c-.2-.35-.42-.69-.61-1a35.25,35.25,0,0,1-2.43-5.38C2824.58,190.24,2818,174.79,2823.84,166.69Z"/><path d="M2858.41,163.66c17.17,0,26.93,14.43,31.1,31.1,1.25,5,3.47,9.51,5.13,13.42.15,1.79.24,3,.3,3.81-5.59,9.91-24.73,9.91-35.77,12.85a32.6,32.6,0,0,1-6.82-.71,33.91,33.91,0,0,1-21.94-15.81,31.12,31.12,0,0,1,28-44.66Z"/><path class="cls-4" d="M2873.08,182.61l6.39-4.43c-3.8-5.48-9.8-8-13.31-5.56s-3.27,8.94.53,14.42c3.53,5.09,9,7.68,12.62,6Z"/><path class="cls-1" d="M2797.75,8.16c-22-1-22.83,4.49-18.79,11.57a46.71,46.71,0,0,1,13-1.85c32.74,0,59.28,34.15,59.28,76.29a98.5,98.5,0,0,1-1.08,14.51,120.09,120.09,0,0,1,26-19.06C2915.35,68.41,2838.57,10.1,2797.75,8.16Z"/><path class="cls-3" d="M2791.92,17.88a46.71,46.71,0,0,0-13,1.85c3.57,6.26,11,13.74,10.94,18.94,0,.39.08.79.1,1.18,1.68,43.19,14.55,69.38,23.69,77.3,7.44,6.46,6.19,6.25,10.6,6.56,10.38.72,16.15-6,25.83-15a98.5,98.5,0,0,0,1.08-14.51C2851.2,52,2824.66,17.88,2791.92,17.88Z"/><path class="cls-1" d="M3028.58.38c22-1,22.84,4.49,18.8,11.57a46.84,46.84,0,0,0-13-1.85c-32.74,0-59.28,34.16-59.28,76.29a98.39,98.39,0,0,0,1.08,14.51,120.58,120.58,0,0,0-26-19.05C2911,60.64,2987.76,2.33,3028.58.38Z"/><path class="cls-3" d="M3034.41,10.1a46.84,46.84,0,0,1,13,1.85c-3.58,6.27-11,13.74-11,18.94,0,.39-.08.79-.09,1.19-1.68,43.18-14.56,69.38-23.69,77.3-7.45,6.45-6.2,6.25-10.6,6.55-10.39.72-16.15-6-25.84-15a98.39,98.39,0,0,1-1.08-14.51C2975.13,44.26,3001.67,10.1,3034.41,10.1Z"/><ellipse class="cls-3" cx="2996.99" cy="249.67" rx="53.45" ry="41.3"/><ellipse class="cls-3" cx="2831.77" cy="249.67" rx="53.45" ry="41.3"/><path class="cls-5" d="M2930.87,274.63l-12.25-3.83.62-.24-5.84-2.91a7.51,7.51,0,0,0-2.91,1c-1.95,1-4.86-.4-2.92,1.94-1.94-1.37-15.22,3.89-15.22,3.89.64,1-9.07,15.45,16.19,16.48S2930.87,274.63,2930.87,274.63Z"/><path class="cls-6" d="M2912.41,267.72h0v-.06A.19.19,0,0,1,2912.41,267.72Z"/><path class="cls-5" d="M2912.43,267.71a1.75,1.75,0,0,1,.33-.06h1.62c-2.92-4.86-1-13.61-1-13.61h-1v13.67Z"/><path class="cls-5" d="M2948.39,268.62s-7.39,11.47-28.18,2v2.87c9.67,3.78,25.81,6,33-7.81C2963.94,245.3,2948.39,268.62,2948.39,268.62Z"/><path class="cls-5" d="M2912.41,267.72a.19.19,0,0,0,0-.07V253.07h-1s1.94,8.75-1,13.61l-1.76,1h.46a1.3,1.3,0,0,1,1.3,1.29v.7c.38-.26.7-.5,1-.73A1.26,1.26,0,0,1,2912.41,267.72Z"/><path class="cls-5" d="M2876.47,267.65s-15.55-23.33-4.86-2.92c6.55,12.51,20.39,11.87,30.13,8.84v-2.65C2883.16,278.05,2876.47,267.65,2876.47,267.65Z"/><path class="cls-4" d="M2901.74,279.8a4.38,4.38,0,0,0,8.75,0V269.64a35.86,35.86,0,0,1-8.75,3.93Z"/><path class="cls-4" d="M2909.19,267.65h-.46a60.74,60.74,0,0,1-7,3.27v2.65a35.86,35.86,0,0,0,8.75-3.93v-.7A1.3,1.3,0,0,0,2909.19,267.65Z"/><path class="cls-4" d="M2912.43,268.62v-.91h0a2.45,2.45,0,0,1-.94,1.19V279.8a4.38,4.38,0,0,0,8.75,0v-6.28C2915.59,271.72,2912.43,269.56,2912.43,268.62Z"/><path class="cls-4" d="M2914.38,267.65h-1.62a1.75,1.75,0,0,0-.33.06v.91c0,.94,3.16,3.1,7.78,4.9v-2.87C2918.37,269.82,2916.43,268.83,2914.38,267.65Z"/><path class="cls-4" d="M2912.41,267.72a1.26,1.26,0,0,0-.94,1.19A2.45,2.45,0,0,0,2912.41,267.72Z"/><ellipse class="cls-5" cx="2912.59" cy="245.78" rx="17.01" ry="10.2"/><ellipse class="cls-7" cx="2912.27" cy="241.89" rx="8.91" ry="5.35"/><ellipse class="cls-2" cx="2803.23" cy="412.93" rx="29.48" ry="54.55" transform="translate(1955.95 3116.77) rotate(-80.98)"/><ellipse class="cls-2" cx="2859.05" cy="390.66" rx="49.25" ry="25.3" transform="translate(701.83 2307.22) rotate(-49.4)"/><ellipse class="cls-2" cx="2884.31" cy="354.67" rx="21.58" ry="23.1" transform="translate(483.54 1992.14) rotate(-41.31)"/><ellipse class="cls-2" cx="2866.68" cy="331.41" rx="16.97" ry="3.34" transform="translate(2369.37 3174) rotate(-86.67)"/><ellipse class="cls-2" cx="2875.53" cy="328.65" rx="16.97" ry="3.34" transform="translate(2380.46 3180.25) rotate(-86.67)"/><ellipse class="cls-2" cx="2884.39" cy="325.9" rx="16.97" ry="3.34" transform="translate(2391.55 3186.5) rotate(-86.67)"/><ellipse class="cls-2" cx="2893.01" cy="327.02" rx="16.97" ry="3.34" transform="translate(2398.55 3196.16) rotate(-86.67)"/><ellipse class="cls-2" cx="2906.86" cy="349.37" rx="11.24" ry="4.03" transform="translate(1322.65 2811.52) rotate(-64.1)"/><ellipse class="cls-2" cx="3029.94" cy="412.93" rx="54.55" ry="29.48" transform="translate(-27.27 480.1) rotate(-9.02)"/><ellipse class="cls-2" cx="2974.12" cy="390.66" rx="25.3" ry="49.25" transform="translate(461.73 2029.54) rotate(-40.6)"/><ellipse class="cls-2" cx="2948.87" cy="354.67" rx="23.1" ry="21.58" transform="translate(735.93 2335.71) rotate(-48.69)"/><ellipse class="cls-2" cx="2966.5" cy="331.41" rx="3.34" ry="16.97" transform="translate(-14.24 172.82) rotate(-3.33)"/><ellipse class="cls-2" cx="2957.64" cy="328.65" rx="3.34" ry="16.97" transform="translate(-14.09 172.3) rotate(-3.33)"/><ellipse class="cls-2" cx="2948.79" cy="325.9" rx="3.34" ry="16.97" transform="translate(-13.95 171.78) rotate(-3.33)"/><ellipse class="cls-2" cx="2940.17" cy="327.02" rx="3.34" ry="16.97" transform="translate(-14.03 171.28) rotate(-3.33)"/><ellipse class="cls-2" cx="2926.31" cy="349.37" rx="4.03" ry="11.24" transform="translate(141.4 1313.55) rotate(-25.9)"/><path class="cls-1" d="M3694.55,290.13a359.31,359.31,0,0,1,20.68-64.47,310.67,310.67,0,0,0-40.78,104.28c-38.94,201,33,229.77-80.56,315.21-5.53,4.06-42.94,24.89,2.76,31.11,52.5-26.24,105.72-74.41,153.55-138.8C3696.17,491.06,3671.73,393.45,3694.55,290.13Z"/><path class="cls-2" d="M3931.76,4.94c-8.89-6.57-10.64,7-14.79,11.73a54.6,54.6,0,0,0-12.45,25.17c-4.69,23.08-9.23,35.45-15.87,43-67.14-4.19-135.63,53-173.42,140.82a359.31,359.31,0,0,0-20.68,64.47c-22.82,103.31,1.62,200.92,55.65,247.32-47.83,64.39-101,112.57-153.55,138.81,14.54,2,37.49,2.47,72.56.48,58.47-3.33,97.74-24.44,126.16-52.92,42.21-42.28,60.52-100.78,82.29-141.39C3911.64,419,4058.93,101.38,3931.76,4.94Z"/><ellipse class="cls-1" cx="3595.59" cy="493.54" rx="161.33" ry="202.64"/><path class="cls-2" d="M3473.07,651.61c-18.78,5.06-77.28,17.55-72.83,45.67s50.23,0,50.23,0l36.67-27.57Z"/><path class="cls-2" d="M3713.41,651.61c18.78,5.06,77.28,17.55,72.83,45.67s-50.24,0-50.24,0l-36.66-27.57Z"/><ellipse class="cls-1" cx="3486.01" cy="397.81" rx="76.78" ry="57.83" transform="matrix(0.57, -0.82, 0.82, 0.57, 1166.35, 3030.24)"/><ellipse class="cls-1" cx="3706.63" cy="391.98" rx="57.83" ry="76.78" transform="translate(441.6 2189.85) rotate(-34.88)"/><ellipse class="cls-1" cx="3595.35" cy="636.4" rx="151.61" ry="54.23"/><ellipse class="cls-3" cx="3595.59" cy="507.14" rx="119.06" ry="144.32"/><circle class="cls-1" cx="3592.59" cy="186.59" r="123.91"/><ellipse class="cls-3" cx="3657.55" cy="240.36" rx="90.38" ry="76.78"/><ellipse class="cls-3" cx="3531.2" cy="240.36" rx="90.38" ry="76.78"/><ellipse class="cls-3" cx="3538.01" cy="208.29" rx="56.37" ry="76.78"/><ellipse class="cls-3" cx="3650.75" cy="208.29" rx="56.37" ry="76.78"/><ellipse class="cls-3" cx="3596.16" cy="298.68" rx="27.7" ry="32.07"/><path class="cls-1" d="M3477.75,8.08c-22-1-22.83,4.49-18.79,11.57a47.09,47.09,0,0,1,13-1.85c32.74,0,59.28,34.16,59.28,76.3a98.26,98.26,0,0,1-1.08,14.5,120.43,120.43,0,0,1,26-19C3595.35,68.34,3518.57,10,3477.75,8.08Z"/><path class="cls-3" d="M3471.92,17.8a47.09,47.09,0,0,0-13,1.85c3.57,6.27,11,13.75,10.94,18.94,0,.4.08.8.1,1.19,1.68,43.19,14.55,69.38,23.69,77.3,7.44,6.45,6.19,6.25,10.6,6.56,10.38.71,16.15-6,25.83-15a98.26,98.26,0,0,0,1.08-14.5C3531.2,52,3504.66,17.8,3471.92,17.8Z"/><path class="cls-1" d="M3708.58.31c22-1,22.84,4.49,18.8,11.57a46.84,46.84,0,0,0-13-1.85c-32.74,0-59.28,34.16-59.28,76.29a98.5,98.5,0,0,0,1.08,14.51,120.91,120.91,0,0,0-26-19.06C3591,60.57,3667.76,2.25,3708.58.31Z"/><path class="cls-3" d="M3714.41,10a46.84,46.84,0,0,1,13,1.85c-3.58,6.26-11,13.74-11,18.94,0,.39-.08.79-.09,1.19-1.68,43.18-14.56,69.37-23.69,77.29-7.45,6.46-6.2,6.25-10.6,6.56-10.39.72-16.15-6-25.84-15a98.5,98.5,0,0,1-1.08-14.51C3655.13,44.19,3681.67,10,3714.41,10Z"/><path class="cls-5" d="M3610.87,274.55l-12.25-3.83.62-.23-5.84-2.91a7.51,7.51,0,0,0-2.91,1c-1.95,1-4.86-.4-2.92,1.94-1.94-1.37-15.22,3.89-15.22,3.89.64,1-9.07,15.45,16.19,16.48S3610.87,274.55,3610.87,274.55Z"/><path class="cls-6" d="M3592.41,267.65h0v-.06A.25.25,0,0,1,3592.41,267.65Z"/><path class="cls-5" d="M3592.43,267.64a1.2,1.2,0,0,1,.33-.06h1.62c-2.92-4.86-1-13.61-1-13.61h-1v13.67Z"/><path class="cls-5" d="M3628.39,268.55s-7.39,11.46-28.18,2v2.87c9.67,3.78,25.81,6,33-7.82C3643.94,245.22,3628.39,268.55,3628.39,268.55Z"/><path class="cls-5" d="M3592.41,267.65a.25.25,0,0,0,0-.07V253h-1s1.94,8.74-1,13.6c-.6.35-1.18.66-1.76,1h.46a1.3,1.3,0,0,1,1.3,1.29v.7c.38-.26.7-.5,1-.73A1.26,1.26,0,0,1,3592.41,267.65Z"/><path class="cls-5" d="M3556.47,267.58s-15.55-23.33-4.86-2.92c6.55,12.5,20.39,11.87,30.13,8.84v-2.66C3563.16,278,3556.47,267.58,3556.47,267.58Z"/><path class="cls-4" d="M3581.74,279.72a4.38,4.38,0,1,0,8.75,0V269.57a35.86,35.86,0,0,1-8.75,3.93Z"/><path class="cls-4" d="M3589.19,267.58h-.46a58.93,58.93,0,0,1-7,3.26v2.66a35.86,35.86,0,0,0,8.75-3.93v-.7A1.3,1.3,0,0,0,3589.19,267.58Z"/><path class="cls-4" d="M3592.43,268.55v-.91h0a2.45,2.45,0,0,1-.94,1.19s0,0,0,0v10.85a4.38,4.38,0,1,0,8.75,0v-6.27C3595.59,271.65,3592.43,269.49,3592.43,268.55Z"/><path class="cls-4" d="M3594.38,267.58h-1.62a1.2,1.2,0,0,0-.33.06v.91c0,.94,3.16,3.1,7.78,4.9v-2.87C3598.37,269.74,3596.43,268.76,3594.38,267.58Z"/><path class="cls-4" d="M3592.41,267.65a1.26,1.26,0,0,0-.94,1.19A2.45,2.45,0,0,0,3592.41,267.65Z"/><ellipse class="cls-5" cx="3592.59" cy="245.71" rx="17.01" ry="10.2"/><ellipse class="cls-7" cx="3592.27" cy="241.82" rx="8.91" ry="5.35"/><ellipse class="cls-2" cx="3483.23" cy="412.86" rx="29.48" ry="54.55" transform="translate(2529.42 3788.3) rotate(-80.98)"/><ellipse class="cls-2" cx="3539.05" cy="390.59" rx="49.25" ry="25.3" transform="translate(939.35 2823.49) rotate(-49.4)"/><ellipse class="cls-2" cx="3564.31" cy="354.6" rx="21.58" ry="23.1" transform="translate(652.78 2440.99) rotate(-41.31)"/><ellipse class="cls-2" cx="3546.68" cy="331.33" rx="16.97" ry="3.34" transform="translate(3009.95 3852.78) rotate(-86.67)"/><ellipse class="cls-2" cx="3555.53" cy="328.58" rx="16.97" ry="3.34" transform="translate(3021.04 3859.03) rotate(-86.67)"/><ellipse class="cls-2" cx="3564.39" cy="325.83" rx="16.97" ry="3.34" transform="translate(3032.13 3865.28) rotate(-86.67)"/><ellipse class="cls-2" cx="3573.01" cy="326.95" rx="16.97" ry="3.34" transform="translate(3039.14 3874.94) rotate(-86.67)"/><ellipse class="cls-2" cx="3586.86" cy="349.3" rx="11.24" ry="4.03" transform="translate(1705.64 3423.15) rotate(-64.1)"/><ellipse class="cls-2" cx="3709.94" cy="412.86" rx="54.55" ry="29.48" transform="translate(-18.85 586.7) rotate(-9.02)"/><ellipse class="cls-2" cx="3654.12" cy="390.59" rx="25.3" ry="49.25" transform="translate(625.48 2472.05) rotate(-40.6)"/><ellipse class="cls-2" cx="3628.87" cy="354.6" rx="23.1" ry="21.58" transform="translate(967.12 2846.49) rotate(-48.69)"/><ellipse class="cls-2" cx="3646.5" cy="331.33" rx="3.34" ry="16.97" transform="translate(-13.09 212.3) rotate(-3.33)"/><ellipse class="cls-2" cx="3637.64" cy="328.58" rx="3.34" ry="16.97" transform="translate(-12.94 211.79) rotate(-3.33)"/><ellipse class="cls-2" cx="3628.79" cy="325.83" rx="3.34" ry="16.97" transform="translate(-12.8 211.27) rotate(-3.33)"/><ellipse class="cls-2" cx="3620.17" cy="326.95" rx="3.34" ry="16.97" transform="translate(-12.88 210.77) rotate(-3.33)"/><ellipse class="cls-2" cx="3606.31" cy="349.3" rx="4.03" ry="11.24" transform="translate(209.76 1610.62) rotate(-25.9)"/><path class="cls-2" d="M3650.75,163.59a31.11,31.11,0,0,1,30.05,23.08h5.14c1.94-7.73,2.9-15.21-.63-20-6.62-8.1-22.08-10.31-35.33-11.78a33.23,33.23,0,0,0-28.08,15.41,35.33,35.33,0,0,0-3.12,5.94,75.71,75.71,0,0,0-2,10.48h5.44C3627.24,173.65,3636.41,163.59,3650.75,163.59Z"/><path class="cls-2" d="M3658.41,172.55c3.5-2.43,9.51.08,13.3,5.56l-6.39,4.43,2.48,4.13h13a31.11,31.11,0,0,0-30.05-23.08c-14.34,0-23.51,10.06-28.57,23.08h36.56C3655.14,181.25,3655,174.94,3658.41,172.55Z"/><path class="cls-2" d="M3671.71,178.11c-3.79-5.48-9.8-8-13.3-5.56s-3.27,8.7.33,14.12h9.06l-2.48-4.13Z"/><path class="cls-2" d="M3538.41,163.59c14.33,0,23.5,10.06,28.56,23.08h5.44a74.26,74.26,0,0,0-2-10.48,34.62,34.62,0,0,0-3.12-5.94,33.23,33.23,0,0,0-28.08-15.41c-13.25,1.47-28.71,3.68-35.33,11.78-3.52,4.84-2.57,12.32-.63,20h5.15A31.09,31.09,0,0,1,3538.41,163.59Z"/><path class="cls-2" d="M3546.16,172.55c3.51-2.43,9.51.08,13.31,5.56l-6.39,4.43,2.48,4.13H3567c-5.06-13-14.23-23.08-28.56-23.08a31.09,31.09,0,0,0-30,23.08h38.13C3542.89,181.25,3542.72,174.94,3546.16,172.55Z"/><path class="cls-2" d="M3559.47,178.11c-3.8-5.48-9.8-8-13.31-5.56s-3.27,8.7.33,14.12h9.07l-2.48-4.13Z"/><path class="cls-4" d="M3614.51,208.11c1.66-3.91,3.88-8.41,5.14-13.42a65.12,65.12,0,0,1,2.53-8h-5.44c-.8,6.1-1.12,12.23-2,18.48C3614.66,206.28,3614.58,207.25,3614.51,208.11Z"/><path class="cls-4" d="M3681.85,194.69a31,31,0,0,1-3.11,13.56c.21-.35.42-.69.61-1a34.92,34.92,0,0,0,2.43-5.39c1.13-4.68,2.86-10,4.16-15.15h-5.14A31.16,31.16,0,0,1,3681.85,194.69Z"/><path d="M3680.8,186.67h-13l3.75,6.25c-3.6,1.73-9.09-.86-12.62-6-.07-.09-.12-.19-.19-.29h-36.56a65.12,65.12,0,0,0-2.53,8c-1.26,5-3.48,9.51-5.14,13.42-.15,1.79-.24,3-.3,3.81,5.59,9.9,24.73,9.9,35.77,12.85a33.29,33.29,0,0,0,6.82-.71,34,34,0,0,0,21.94-15.81,31.13,31.13,0,0,0,2.06-21.58Z"/><path class="cls-4" d="M3658.93,187c3.53,5.1,9,7.69,12.62,6l-3.75-6.25h-9.06C3658.81,186.77,3658.86,186.87,3658.93,187Z"/><path class="cls-4" d="M3509.8,207.21c.19.35.41.69.61,1a31.19,31.19,0,0,1-2-21.58h-5.15c1.3,5.18,3,10.47,4.16,15.15A34.92,34.92,0,0,0,3509.8,207.21Z"/><path class="cls-4" d="M3569.51,194.69c1.25,5,3.47,9.51,5.13,13.42-.07-.86-.15-1.83-.24-3-.87-6.25-1.19-12.38-2-18.48H3567A66.91,66.91,0,0,1,3569.51,194.69Z"/><path d="M3567,186.67h-11.41l3.75,6.25c-3.61,1.73-9.09-.86-12.62-6-.07-.09-.13-.19-.2-.29h-38.13a31.19,31.19,0,0,0,2,21.58,34,34,0,0,0,21.94,15.81,33.29,33.29,0,0,0,6.82.71c11-3,30.18-3,35.77-12.85-.06-.79-.15-2-.3-3.81-1.66-3.91-3.88-8.41-5.13-13.42A66.91,66.91,0,0,0,3567,186.67Z"/><path class="cls-4" d="M3546.69,187c3.53,5.1,9,7.69,12.62,6l-3.75-6.25h-9.07C3546.56,186.77,3546.62,186.87,3546.69,187Z"/><path class="cls-1" d="M4374.55,290a359.31,359.31,0,0,1,20.68-64.47,310.76,310.76,0,0,0-40.78,104.28c-38.94,201,33,229.78-80.56,315.21-5.53,4.06-42.94,24.89,2.76,31.11,52.5-26.24,105.72-74.41,153.55-138.8C4376.17,491,4351.73,393.34,4374.55,290Z"/><path class="cls-2" d="M4611.76,4.83c-8.89-6.57-10.64,7-14.79,11.73a54.6,54.6,0,0,0-12.45,25.17c-4.69,23.08-9.23,35.45-15.87,43-67.14-4.19-135.63,53-173.42,140.82A359.31,359.31,0,0,0,4374.55,290c-22.82,103.31,1.62,200.92,55.65,247.33-47.83,64.38-101.05,112.56-153.55,138.8,14.54,2,37.49,2.47,72.56.48,58.47-3.33,97.74-24.44,126.16-52.92,42.21-42.27,60.52-100.78,82.29-141.39C4591.64,418.91,4738.93,101.28,4611.76,4.83Z"/><ellipse class="cls-1" cx="4275.59" cy="493.43" rx="161.33" ry="202.64"/><path class="cls-2" d="M4153.07,651.5c-18.78,5.06-77.28,17.56-72.83,45.68s50.23,0,50.23,0l36.67-27.58Z"/><path class="cls-2" d="M4393.41,651.5c18.78,5.06,77.28,17.56,72.83,45.68s-50.24,0-50.24,0l-36.66-27.58Z"/><ellipse class="cls-1" cx="4166.01" cy="397.7" rx="76.78" ry="57.83" transform="translate(1457.62 3588.06) rotate(-55.12)"/><ellipse class="cls-1" cx="4386.63" cy="391.87" rx="57.83" ry="76.78" transform="translate(563.8 2578.65) rotate(-34.88)"/><ellipse class="cls-1" cx="4275.35" cy="636.3" rx="151.61" ry="54.23"/><ellipse class="cls-3" cx="4275.59" cy="507.04" rx="119.06" ry="144.32"/><circle class="cls-1" cx="4272.59" cy="186.48" r="123.91"/><ellipse class="cls-3" cx="4337.55" cy="240.25" rx="90.38" ry="76.78"/><ellipse class="cls-3" cx="4211.2" cy="240.25" rx="90.38" ry="76.78"/><ellipse class="cls-3" cx="4218.01" cy="208.18" rx="56.37" ry="76.78"/><ellipse class="cls-3" cx="4330.75" cy="208.18" rx="56.37" ry="76.78"/><ellipse class="cls-3" cx="4276.16" cy="298.57" rx="27.7" ry="32.07"/><path class="cls-1" d="M4157.75,8c-22-1.05-22.83,4.48-18.79,11.57a46.72,46.72,0,0,1,13-1.86c32.74,0,59.28,34.16,59.28,76.3a98.5,98.5,0,0,1-1.08,14.51,120.09,120.09,0,0,1,26-19.06C4275.35,68.23,4198.57,9.92,4157.75,8Z"/><path class="cls-3" d="M4151.92,17.69a46.72,46.72,0,0,0-13,1.86c3.57,6.26,11,13.74,10.94,18.93,0,.4.08.8.1,1.19,1.68,43.19,14.55,69.38,23.69,77.3,7.44,6.46,6.19,6.25,10.6,6.56,10.38.72,16.15-6,25.83-15A98.5,98.5,0,0,0,4211.2,94C4211.2,51.85,4184.66,17.69,4151.92,17.69Z"/><path class="cls-1" d="M4388.58.2c22-1,22.84,4.49,18.8,11.57a46.84,46.84,0,0,0-13-1.85c-32.74,0-59.28,34.16-59.28,76.29a98.5,98.5,0,0,0,1.08,14.51,120.91,120.91,0,0,0-26-19.06C4271,60.46,4347.76,2.14,4388.58.2Z"/><path class="cls-3" d="M4394.41,9.92a46.84,46.84,0,0,1,13,1.85c-3.58,6.27-11,13.74-10.95,18.94,0,.39-.08.79-.09,1.19-1.68,43.18-14.56,69.38-23.69,77.29-7.45,6.46-6.2,6.26-10.6,6.56-10.39.72-16.15-6-25.84-15a98.5,98.5,0,0,1-1.08-14.51C4335.13,44.08,4361.67,9.92,4394.41,9.92Z"/><path class="cls-5" d="M4290.87,274.45l-12.25-3.84.62-.23-5.84-2.91a7.51,7.51,0,0,0-2.91,1c-1.95,1-4.86-.4-2.92,1.94-1.94-1.37-15.22,3.89-15.22,3.89.64,1-9.07,15.45,16.19,16.48S4290.87,274.45,4290.87,274.45Z"/><path class="cls-6" d="M4272.41,267.54h0v-.06A.25.25,0,0,1,4272.41,267.54Z"/><path class="cls-5" d="M4272.43,267.53a1.2,1.2,0,0,1,.33-.06h1.62c-2.92-4.86-1-13.61-1-13.61h-1v13.67Z"/><path class="cls-5" d="M4308.39,268.44s-7.39,11.46-28.18,2v2.87c9.67,3.78,25.81,6,33-7.82C4323.94,245.11,4308.39,268.44,4308.39,268.44Z"/><path class="cls-5" d="M4272.41,267.54a.25.25,0,0,0,0-.07V252.89h-1s1.94,8.75-1,13.61l-1.76,1h.46a1.3,1.3,0,0,1,1.3,1.29v.7c.38-.26.7-.5,1-.73A1.26,1.26,0,0,1,4272.41,267.54Z"/><path class="cls-5" d="M4236.47,267.47s-15.55-23.33-4.86-2.92c6.55,12.5,20.39,11.87,30.13,8.84v-2.66C4243.16,277.87,4236.47,267.47,4236.47,267.47Z"/><path class="cls-4" d="M4261.74,279.62a4.38,4.38,0,0,0,8.75,0V269.46a35.86,35.86,0,0,1-8.75,3.93Z"/><path class="cls-4" d="M4269.19,267.47h-.46a58.93,58.93,0,0,1-7,3.26v2.66a35.86,35.86,0,0,0,8.75-3.93v-.7A1.3,1.3,0,0,0,4269.19,267.47Z"/><path class="cls-4" d="M4272.43,268.44v-.91h0a2.45,2.45,0,0,1-.94,1.19v10.89a4.38,4.38,0,0,0,8.75,0v-6.28C4275.59,271.54,4272.43,269.38,4272.43,268.44Z"/><path class="cls-4" d="M4274.38,267.47h-1.62a1.2,1.2,0,0,0-.33.06v.91c0,.94,3.16,3.1,7.78,4.9v-2.87C4278.37,269.64,4276.43,268.65,4274.38,267.47Z"/><path class="cls-4" d="M4272.41,267.54a1.26,1.26,0,0,0-.94,1.19A2.45,2.45,0,0,0,4272.41,267.54Z"/><ellipse class="cls-5" cx="4272.59" cy="245.6" rx="17.01" ry="10.2"/><ellipse class="cls-7" cx="4272.27" cy="241.71" rx="8.91" ry="5.35"/><ellipse class="cls-2" cx="4163.23" cy="412.75" rx="29.48" ry="54.55" transform="translate(3102.92 4459.8) rotate(-80.98)"/><ellipse class="cls-2" cx="4219.05" cy="390.48" rx="49.25" ry="25.3" transform="translate(1176.91 3339.76) rotate(-49.4)"/><ellipse class="cls-2" cx="4244.31" cy="354.49" rx="21.58" ry="23.1" transform="translate(822.04 2889.82) rotate(-41.31)"/><ellipse class="cls-2" cx="4226.68" cy="331.22" rx="16.97" ry="3.34" transform="translate(3650.57 4531.53) rotate(-86.67)"/><ellipse class="cls-2" cx="4235.53" cy="328.47" rx="16.97" ry="3.34" transform="translate(3661.67 4537.78) rotate(-86.67)"/><ellipse class="cls-2" cx="4244.39" cy="325.72" rx="16.97" ry="3.34" transform="translate(3672.76 4544.03) rotate(-86.67)"/><ellipse class="cls-2" cx="4253.01" cy="326.84" rx="16.97" ry="3.34" transform="translate(3679.76 4553.69) rotate(-86.67)"/><ellipse class="cls-2" cx="4266.86" cy="349.19" rx="11.24" ry="4.03" transform="translate(2088.66 4034.76) rotate(-64.1)"/><ellipse class="cls-2" cx="4389.94" cy="412.75" rx="54.55" ry="29.48" transform="translate(-10.43 693.31) rotate(-9.02)"/><ellipse class="cls-2" cx="4334.12" cy="390.48" rx="25.3" ry="49.25" transform="translate(789.25 2914.55) rotate(-40.6)"/><ellipse class="cls-2" cx="4308.87" cy="354.49" rx="23.1" ry="21.58" transform="matrix(0.66, -0.75, 0.75, 0.66, 1198.34, 3357.26)"/><ellipse class="cls-2" cx="4326.5" cy="331.22" rx="3.34" ry="16.97" transform="matrix(1, -0.06, 0.06, 1, -11.93, 251.79)"/><ellipse class="cls-2" cx="4317.64" cy="328.47" rx="3.34" ry="16.97" transform="translate(-11.79 251.27) rotate(-3.33)"/><ellipse class="cls-2" cx="4308.79" cy="325.72" rx="3.34" ry="16.97" transform="translate(-11.64 250.75) rotate(-3.33)"/><ellipse class="cls-2" cx="4300.17" cy="326.84" rx="3.34" ry="16.97" transform="translate(-11.72 250.25) rotate(-3.33)"/><ellipse class="cls-2" cx="4286.31" cy="349.19" rx="4.03" ry="11.24" transform="translate(278.13 1907.69) rotate(-25.9)"/><path class="cls-2" d="M4330.75,163.48a31.11,31.11,0,0,1,30.05,23.08h5.14c1.94-7.73,2.9-15.21-.63-20.05-6.62-8.1-22.08-10.31-35.33-11.78a32.71,32.71,0,0,0-5.72.5,33.78,33.78,0,0,0-22.36,14.91,35.33,35.33,0,0,0-3.12,5.94,75.71,75.71,0,0,0-2,10.48h5.44C4307.24,173.54,4316.41,163.48,4330.75,163.48Z"/><path class="cls-2" d="M4338.41,172.44c3.5-2.43,9.51.08,13.3,5.56l-6.39,4.43,2.48,4.13h13a31.11,31.11,0,0,0-30.05-23.08c-14.34,0-23.51,10.06-28.57,23.08h36.56C4335.14,181.14,4335,174.83,4338.41,172.44Z"/><path class="cls-2" d="M4351.71,178c-3.79-5.48-9.8-8-13.3-5.56s-3.27,8.7.33,14.12h9.06l-2.48-4.13Z"/><path class="cls-2" d="M4218.41,163.48c14.33,0,23.5,10.06,28.56,23.08h5.44a74.26,74.26,0,0,0-2-10.48,34.62,34.62,0,0,0-3.12-5.94,33.78,33.78,0,0,0-22.36-14.91,32.71,32.71,0,0,0-5.72-.5c-13.25,1.47-28.71,3.68-35.33,11.78-3.52,4.84-2.57,12.32-.63,20.05h5.15A31.09,31.09,0,0,1,4218.41,163.48Z"/><path class="cls-2" d="M4226.16,172.44c3.51-2.43,9.51.08,13.31,5.56l-6.39,4.43,2.48,4.13H4247c-5.06-13-14.23-23.08-28.56-23.08a31.09,31.09,0,0,0-30.05,23.08h38.13C4222.89,181.14,4222.72,174.83,4226.16,172.44Z"/><path class="cls-2" d="M4239.47,178c-3.8-5.48-9.8-8-13.31-5.56s-3.27,8.7.33,14.12h9.07l-2.48-4.13Z"/><path class="cls-2" d="M4294.51,208c1.66-3.91,3.88-8.41,5.14-13.42a65.12,65.12,0,0,1,2.53-8h-5.44c-.8,6.1-1.12,12.24-2,18.48C4294.66,206.17,4294.58,207.14,4294.51,208Z"/><path class="cls-2" d="M4361.85,194.58a31,31,0,0,1-3.11,13.56c.21-.35.42-.69.61-1a35.25,35.25,0,0,0,2.43-5.38c1.13-4.68,2.86-10,4.16-15.16h-5.14A31.16,31.16,0,0,1,4361.85,194.58Z"/><path class="cls-2" d="M4360.8,186.56h-13l3.75,6.25c-3.6,1.73-9.09-.86-12.62-5.95-.07-.1-.12-.2-.19-.3h-36.56a65.12,65.12,0,0,0-2.53,8c-1.26,5-3.48,9.51-5.14,13.42-.15,1.79-.24,3-.3,3.81,5.59,9.9,24.73,9.9,35.77,12.85a33.29,33.29,0,0,0,6.82-.71,34,34,0,0,0,21.94-15.81,31.13,31.13,0,0,0,2.06-21.58Z"/><path class="cls-2" d="M4338.93,186.86c3.53,5.09,9,7.68,12.62,5.95l-3.75-6.25h-9.06C4338.81,186.66,4338.86,186.76,4338.93,186.86Z"/><path class="cls-2" d="M4189.8,207.1c.19.35.41.69.61,1a31.19,31.19,0,0,1-2.05-21.58h-5.15c1.3,5.18,3,10.48,4.16,15.16A35.25,35.25,0,0,0,4189.8,207.1Z"/><path class="cls-2" d="M4249.51,194.58c1.25,5,3.47,9.51,5.13,13.42-.07-.86-.15-1.83-.24-3-.87-6.24-1.19-12.38-2-18.48H4247A66.91,66.91,0,0,1,4249.51,194.58Z"/><path class="cls-2" d="M4247,186.56h-11.41l3.75,6.25c-3.61,1.73-9.09-.86-12.62-5.95l-.2-.3h-38.13a31.19,31.19,0,0,0,2.05,21.58A34,34,0,0,0,4212.35,224a33.29,33.29,0,0,0,6.82.71c11-2.95,30.18-2.95,35.77-12.85-.06-.79-.15-2-.3-3.81-1.66-3.91-3.88-8.41-5.13-13.42A66.91,66.91,0,0,0,4247,186.56Z"/><path class="cls-2" d="M4226.69,186.86c3.53,5.09,9,7.68,12.62,5.95l-3.75-6.25h-9.07Z"/><path class="cls-1" d="M5054.55,290.16a359.47,359.47,0,0,1,20.68-64.46A310.62,310.62,0,0,0,5034.45,330c-38.94,201,33,229.78-80.56,315.22-5.53,4-42.94,24.89,2.76,31.1,52.5-26.23,105.72-74.41,153.55-138.79C5056.17,491.1,5031.73,393.48,5054.55,290.16Z"/><path class="cls-2" d="M5291.76,5c-8.89-6.57-10.64,7-14.79,11.73a54.63,54.63,0,0,0-12.45,25.18c-4.69,23.08-9.23,35.45-15.87,43-67.14-4.19-135.63,53-173.42,140.83a359.47,359.47,0,0,0-20.68,64.46c-22.82,103.32,1.62,200.93,55.65,247.33-47.83,64.39-101.05,112.57-153.55,138.8,14.54,2,37.49,2.48,72.56.48,58.47-3.32,97.74-24.44,126.16-52.91,42.21-42.28,60.52-100.78,82.29-141.39C5271.64,419.05,5418.93,101.42,5291.76,5Z"/><ellipse class="cls-1" cx="4955.59" cy="493.57" rx="161.33" ry="202.64"/><path class="cls-2" d="M4833.07,651.64c-18.78,5.06-77.28,17.56-72.83,45.68s50.23,0,50.23,0l36.67-27.57Z"/><path class="cls-2" d="M5073.41,651.64c18.78,5.06,77.28,17.56,72.83,45.68s-50.24,0-50.24,0l-36.66-27.57Z"/><ellipse class="cls-1" cx="4846.01" cy="397.84" rx="76.78" ry="57.83" transform="translate(1748.67 4145.99) rotate(-55.12)"/><ellipse class="cls-1" cx="5066.63" cy="392.01" rx="57.83" ry="76.78" transform="translate(685.85 2967.5) rotate(-34.88)"/><ellipse class="cls-1" cx="4955.35" cy="636.44" rx="151.61" ry="54.23"/><ellipse class="cls-3" cx="4955.59" cy="507.18" rx="119.06" ry="144.32"/><circle class="cls-1" cx="4952.59" cy="186.62" r="123.91"/><ellipse class="cls-3" cx="5017.55" cy="240.4" rx="90.38" ry="76.78"/><ellipse class="cls-3" cx="4891.2" cy="240.4" rx="90.38" ry="76.78"/><ellipse class="cls-3" cx="4898.01" cy="208.33" rx="56.37" ry="76.78"/><ellipse class="cls-3" cx="5010.75" cy="208.33" rx="56.37" ry="76.78"/><ellipse class="cls-3" cx="4956.16" cy="298.71" rx="27.7" ry="32.07"/><path class="cls-1" d="M4837.75,8.12c-22-1-22.83,4.49-18.79,11.57a46.71,46.71,0,0,1,13-1.85c32.74,0,59.28,34.16,59.28,76.29a98.5,98.5,0,0,1-1.08,14.51,120.76,120.76,0,0,1,26-19.06C4955.35,68.38,4878.57,10.06,4837.75,8.12Z"/><path class="cls-3" d="M4831.92,17.84a46.71,46.71,0,0,0-13,1.85c3.57,6.27,11,13.74,10.94,18.94,0,.39.08.79.1,1.19,1.68,43.18,14.55,69.38,23.69,77.3,7.44,6.45,6.19,6.25,10.6,6.55,10.38.72,16.15-6,25.83-15a98.5,98.5,0,0,0,1.08-14.51C4891.2,52,4864.66,17.84,4831.92,17.84Z"/><path class="cls-1" d="M5068.58.35c22-1,22.84,4.48,18.8,11.57a46.85,46.85,0,0,0-13-1.86c-32.74,0-59.28,34.16-59.28,76.3a98.5,98.5,0,0,0,1.08,14.51,120.24,120.24,0,0,0-26-19.06C4951,60.6,5027.76,2.29,5068.58.35Z"/><path class="cls-3" d="M5074.41,10.06a46.85,46.85,0,0,1,13,1.86c-3.58,6.26-11,13.74-10.95,18.93,0,.4-.08.8-.09,1.19-1.68,43.19-14.56,69.38-23.69,77.3-7.45,6.46-6.2,6.25-10.6,6.56-10.39.72-16.15-6-25.84-15a98.5,98.5,0,0,1-1.08-14.51C5015.13,44.22,5041.67,10.06,5074.41,10.06Z"/><path class="cls-5" d="M4970.87,274.59l-12.25-3.83.62-.23-5.84-2.92a7.51,7.51,0,0,0-2.91,1c-1.95,1-4.86-.4-2.92,1.95-1.94-1.37-15.22,3.88-15.22,3.88.64,1-9.07,15.45,16.19,16.48S4970.87,274.59,4970.87,274.59Z"/><path class="cls-6" d="M4952.41,267.68h0v-.07A.19.19,0,0,1,4952.41,267.68Z"/><path class="cls-5" d="M4952.43,267.68a1.21,1.21,0,0,1,.33-.07h1.62c-2.92-4.86-1-13.6-1-13.6h-1v13.67Z"/><path class="cls-5" d="M4988.39,268.58s-7.39,11.47-28.18,2v2.87c9.67,3.78,25.81,6,33-7.82C5003.94,245.26,4988.39,268.58,4988.39,268.58Z"/><path class="cls-5" d="M4952.41,267.68a.19.19,0,0,0,0-.07V253h-1s1.94,8.75-1,13.61c-.6.35-1.18.66-1.76,1h.46a1.3,1.3,0,0,1,1.3,1.3v.69a9.61,9.61,0,0,0,1-.73A1.27,1.27,0,0,1,4952.41,267.68Z"/><path class="cls-5" d="M4916.47,267.61s-15.55-23.32-4.86-2.91c6.55,12.5,20.39,11.87,30.13,8.84v-2.66C4923.16,278,4916.47,267.61,4916.47,267.61Z"/><path class="cls-4" d="M4941.74,279.76a4.38,4.38,0,0,0,8.75,0V269.6a35.83,35.83,0,0,1-8.75,3.94Z"/><path class="cls-4" d="M4949.19,267.61h-.46a59.1,59.1,0,0,1-7,3.27v2.66a35.83,35.83,0,0,0,8.75-3.94v-.69A1.3,1.3,0,0,0,4949.19,267.61Z"/><path class="cls-4" d="M4952.43,268.58v-.9h0a2.4,2.4,0,0,1-.94,1.19s0,0,0,0v10.85a4.38,4.38,0,0,0,8.75,0v-6.27C4955.59,271.68,4952.43,269.53,4952.43,268.58Z"/><path class="cls-4" d="M4954.38,267.61h-1.62a1.21,1.21,0,0,0-.33.07v.9c0,.95,3.16,3.1,7.78,4.91v-2.87C4958.37,269.78,4956.43,268.8,4954.38,267.61Z"/><path class="cls-4" d="M4952.41,267.68a1.27,1.27,0,0,0-.94,1.19A2.4,2.4,0,0,0,4952.41,267.68Z"/><ellipse class="cls-5" cx="4952.59" cy="245.75" rx="17.01" ry="10.2"/><ellipse class="cls-7" cx="4952.27" cy="241.86" rx="8.91" ry="5.35"/><ellipse class="cls-2" cx="4843.23" cy="412.9" rx="29.48" ry="54.55" transform="translate(3676.18 5131.51) rotate(-80.98)"/><ellipse class="cls-2" cx="4899.05" cy="390.62" rx="49.25" ry="25.3" transform="translate(1414.27 3856.11) rotate(-49.4)"/><ellipse class="cls-2" cx="4924.31" cy="354.64" rx="21.58" ry="23.1" transform="translate(991.14 3338.72) rotate(-41.31)"/><ellipse class="cls-2" cx="4906.68" cy="331.37" rx="16.97" ry="3.34" transform="translate(4290.94 5210.52) rotate(-86.67)"/><ellipse class="cls-2" cx="4915.53" cy="328.62" rx="16.97" ry="3.34" transform="translate(4302.03 5216.77) rotate(-86.67)"/><ellipse class="cls-2" cx="4924.39" cy="325.86" rx="16.97" ry="3.34" transform="translate(4313.12 5223.02) rotate(-86.67)"/><ellipse class="cls-2" cx="4933.01" cy="326.98" rx="16.97" ry="3.34" transform="translate(4320.13 5232.68) rotate(-86.67)"/><ellipse class="cls-2" cx="4946.86" cy="349.33" rx="11.24" ry="4.03" transform="translate(2471.45 4646.52) rotate(-64.1)"/><ellipse class="cls-2" cx="5069.94" cy="412.9" rx="54.55" ry="29.48" transform="translate(-2.04 799.91) rotate(-9.02)"/><ellipse class="cls-2" cx="5014.12" cy="390.62" rx="25.3" ry="49.25" transform="translate(952.85 3357.11) rotate(-40.6)"/><ellipse class="cls-2" cx="4988.87" cy="354.64" rx="23.1" ry="21.58" transform="translate(1429.37 3868.12) rotate(-48.69)"/><ellipse class="cls-2" cx="5006.5" cy="331.37" rx="3.34" ry="16.97" transform="matrix(1, -0.06, 0.06, 1, -10.79, 291.28)"/><ellipse class="cls-2" cx="4997.64" cy="328.62" rx="3.34" ry="16.97" transform="translate(-10.65 290.76) rotate(-3.33)"/><ellipse class="cls-2" cx="4988.79" cy="325.86" rx="3.34" ry="16.97" transform="matrix(1, -0.06, 0.06, 1, -10.5, 290.24)"/><ellipse class="cls-2" cx="4980.17" cy="326.98" rx="3.34" ry="16.97" transform="translate(-10.58 289.74) rotate(-3.33)"/><ellipse class="cls-2" cx="4966.31" cy="349.33" rx="4.03" ry="11.24" transform="translate(346.4 2204.78) rotate(-25.9)"/><path class="cls-2" d="M5010.75,163.62a31.11,31.11,0,0,1,30.05,23.08h5.14c1.94-7.72,2.9-15.2-.63-20-6.62-8.1-22.08-10.3-35.33-11.78a32.71,32.71,0,0,0-5.72.5,33.8,33.8,0,0,0-22.36,14.92,35.33,35.33,0,0,0-3.12,5.94,75.57,75.57,0,0,0-2,10.47h5.44C4987.24,173.68,4996.41,163.62,5010.75,163.62Z"/><path class="cls-2" d="M5018.41,172.59c3.5-2.43,9.51.08,13.3,5.56l-6.39,4.42,2.48,4.13h13a31.11,31.11,0,0,0-30.05-23.08c-14.34,0-23.51,10.06-28.57,23.08h36.56C5015.14,181.29,5015,175,5018.41,172.59Z"/><path class="cls-2" d="M5031.71,178.15c-3.79-5.48-9.8-8-13.3-5.56s-3.27,8.7.33,14.11h9.06l-2.48-4.13Z"/><path class="cls-2" d="M4898.41,163.62c14.33,0,23.5,10.06,28.56,23.08h5.44a74.12,74.12,0,0,0-2-10.47,34.62,34.62,0,0,0-3.12-5.94,33.8,33.8,0,0,0-22.36-14.92,32.71,32.71,0,0,0-5.72-.5c-13.25,1.48-28.71,3.68-35.33,11.78-3.52,4.85-2.57,12.33-.63,20h5.15A31.09,31.09,0,0,1,4898.41,163.62Z"/><path class="cls-2" d="M4906.16,172.59c3.51-2.43,9.51.08,13.31,5.56l-6.39,4.42,2.48,4.13H4927c-5.06-13-14.23-23.08-28.56-23.08a31.09,31.09,0,0,0-30.05,23.08h38.13C4902.89,181.29,4902.72,175,4906.16,172.59Z"/><path class="cls-2" d="M4919.47,178.15c-3.8-5.48-9.8-8-13.31-5.56s-3.27,8.7.33,14.11h9.07l-2.48-4.13Z"/><path class="cls-4" d="M4974.51,208.15c1.66-3.92,3.88-8.41,5.14-13.43a66.22,66.22,0,0,1,2.53-8h-5.44c-.8,6.1-1.12,12.24-2,18.48C4974.66,206.31,4974.58,207.29,4974.51,208.15Z"/><path class="cls-4" d="M5041.85,194.72a31,31,0,0,1-3.11,13.56c.21-.34.42-.68.61-1a34.81,34.81,0,0,0,2.43-5.38c1.13-4.68,2.86-10,4.16-15.16h-5.14A31.21,31.21,0,0,1,5041.85,194.72Z"/><path d="M5040.8,186.7h-13l3.75,6.26c-3.6,1.73-9.09-.86-12.62-6-.07-.1-.12-.2-.19-.3h-36.56a66.22,66.22,0,0,0-2.53,8c-1.26,5-3.48,9.51-5.14,13.43-.15,1.78-.24,3-.3,3.8,5.59,9.91,24.73,9.91,35.77,12.85a32.6,32.6,0,0,0,6.82-.71,33.91,33.91,0,0,0,21.94-15.81,31.13,31.13,0,0,0,2.06-21.58Z"/><path class="cls-4" d="M5018.93,187c3.53,5.1,9,7.69,12.62,6l-3.75-6.26h-9.06C5018.81,186.8,5018.86,186.9,5018.93,187Z"/><path class="cls-4" d="M4869.8,207.24c.19.36.41.7.61,1a31.19,31.19,0,0,1-2.05-21.58h-5.15c1.3,5.19,3,10.48,4.16,15.16A34.81,34.81,0,0,0,4869.8,207.24Z"/><path class="cls-4" d="M4929.51,194.72c1.25,5,3.47,9.51,5.13,13.43-.07-.86-.15-1.84-.24-3-.87-6.24-1.19-12.38-2-18.48H4927A68.07,68.07,0,0,1,4929.51,194.72Z"/><path d="M4927,186.7h-11.41l3.75,6.26c-3.61,1.73-9.09-.86-12.62-6l-.2-.3h-38.13a31.19,31.19,0,0,0,2.05,21.58,33.91,33.91,0,0,0,21.94,15.81,32.6,32.6,0,0,0,6.82.71c11-2.94,30.18-2.94,35.77-12.85-.06-.78-.15-2-.3-3.8-1.66-3.92-3.88-8.41-5.13-13.43A68.07,68.07,0,0,0,4927,186.7Z"/><path class="cls-4" d="M4906.69,187c3.53,5.1,9,7.69,12.62,6l-3.75-6.26h-9.07Z"/></g></g></svg>