<svg xmlns="http://www.w3.org/2000/svg" viewBox="0 0 599.47 730.13"><defs><style>.cls-1{fill:#873015;}.cls-2{fill:#722611;}.cls-3{fill:#c69c6d;}.cls-4{fill:#fff;}.cls-5{fill:#aa5578;}.cls-6{fill:none;}.cls-7{fill:#d683a9;}</style></defs><title>ny-egern</title><g id="Layer_2" data-name="Layer 2"><g id="Layer_8" data-name="Layer 8"><path class="cls-1" d="M303.07,298.33A370.22,370.22,0,0,1,324.35,232a319.78,319.78,0,0,0-42,107.3C242.32,546.07,316.3,575.72,199.5,663.63c-5.69,4.17-44.18,25.61,2.84,32,54-27,108.78-76.57,158-142.82C304.74,505.08,279.59,404.65,303.07,298.33Z"/><path class="cls-2" d="M547.14,4.89C538-1.87,536.19,12.1,531.93,17a56.27,56.27,0,0,0-12.82,25.91c-4.82,23.74-9.49,36.47-16.32,44.24C433.71,82.79,363.24,141.67,324.35,232a370.22,370.22,0,0,0-21.28,66.33c-23.48,106.31,1.67,206.74,57.26,254.49-49.21,66.25-104,115.82-158,142.82,15,2,38.58,2.54,74.66.49,60.17-3.42,100.56-25.15,129.81-54.45,43.43-43.5,62.27-103.69,84.67-145.48C526.44,431,678,104.13,547.14,4.89Z"/><ellipse class="cls-1" cx="201.25" cy="507.63" rx="166" ry="208.5"/><path class="cls-2" d="M75.18,670.27c-19.32,5.21-79.51,18.07-74.93,47s51.68,0,51.68,0L89.66,688.9Z"/><path class="cls-2" d="M322.47,670.27c19.33,5.21,79.52,18.07,74.94,47s-51.69,0-51.69,0L308,688.9Z"/><ellipse class="cls-1" cx="88.5" cy="409.13" rx="79" ry="59.5" transform="translate(-297.75 247.79) rotate(-55.12)"/><ellipse class="cls-1" cx="315.5" cy="403.13" rx="59.5" ry="79" transform="translate(-173.84 252.81) rotate(-34.88)"/><ellipse class="cls-1" cx="201" cy="654.63" rx="156" ry="55.8"/><ellipse class="cls-3" cx="201.25" cy="521.63" rx="122.5" ry="148.5"/><circle class="cls-1" cx="198.17" cy="191.8" r="127.5"/><ellipse class="cls-3" cx="265" cy="247.13" rx="93" ry="79"/><ellipse class="cls-3" cx="135" cy="247.13" rx="93" ry="79"/><ellipse class="cls-3" cx="142" cy="214.13" rx="58" ry="79"/><ellipse class="cls-3" cx="258" cy="214.13" rx="58" ry="79"/><ellipse class="cls-3" cx="201.83" cy="307.13" rx="28.5" ry="33"/><path class="cls-4" d="M293.57,171.25c-6.82-8.33-22.72-10.6-36.36-12.12A34.26,34.26,0,0,0,228.32,175a36.62,36.62,0,0,0-3.21,6.11c-2.74,9.84-2.74,19.69-4.14,29.79-.1,1.17-.18,2.17-.25,3.05,1.7-4,4-8.65,5.28-13.81,4.29-17.14,14.33-32,32-32a32,32,0,0,1,28.8,46c.22-.36.43-.71.64-1.08a37.34,37.34,0,0,0,2.5-5.53C292.81,195.49,299.63,179.58,293.57,171.25Z"/><path d="M258,168.13c-17.67,0-27.71,14.86-32,32-1.29,5.16-3.58,9.79-5.28,13.81-.15,1.84-.25,3.12-.31,3.92,5.75,10.19,25.44,10.19,36.8,13.22a33.77,33.77,0,0,0,7-.73,34.89,34.89,0,0,0,22.57-16.26,32,32,0,0,0-28.8-46Z"/><path class="cls-4" d="M273,187.63l6.58-4.55c-3.91-5.64-10.09-8.22-13.7-5.72s-3.36,9.19.54,14.83c3.64,5.24,9.28,7.91,13,6.13Z"/><path class="cls-4" d="M106.84,171.25c6.82-8.33,22.73-10.6,36.36-12.12A34.26,34.26,0,0,1,172.09,175a36.62,36.62,0,0,1,3.21,6.11c2.74,9.84,2.74,19.69,4.14,29.79.1,1.17.18,2.17.26,3.05-1.71-4-4-8.65-5.29-13.81-4.29-17.14-14.33-32-32-32a32,32,0,0,0-28.8,46c-.22-.36-.43-.71-.64-1.08a37.34,37.34,0,0,1-2.5-5.53C107.6,195.49,100.79,179.58,106.84,171.25Z"/><path d="M142.41,168.13c17.67,0,27.71,14.86,32,32,1.29,5.16,3.58,9.79,5.29,13.81.14,1.84.24,3.12.3,3.92-5.75,10.19-25.44,10.19-36.8,13.22a33.84,33.84,0,0,1-7-.73,34.89,34.89,0,0,1-22.57-16.26,32,32,0,0,1,28.8-46Z"/><path class="cls-4" d="M157.51,187.63l6.57-4.55c-3.9-5.64-10.08-8.22-13.69-5.72s-3.36,9.19.54,14.83c3.63,5.24,9.28,7.91,13,6.13Z"/><path class="cls-1" d="M80,8.13C57.37,7.05,56.5,12.75,60.66,20A48,48,0,0,1,74,18.13c33.69,0,61,35.15,61,78.5a100,100,0,0,1-1.12,14.93A124.41,124.41,0,0,1,160.64,92C201,70.13,122,10.13,80,8.13Z"/><path class="cls-3" d="M74,18.13A48,48,0,0,0,60.66,20C64.34,26.48,72,34.18,71.93,39.52c0,.41.08.82.09,1.22,1.73,44.44,15,71.39,24.38,79.54,7.66,6.64,6.37,6.43,10.91,6.75,10.68.74,16.61-6.17,26.57-15.47A100,100,0,0,0,135,96.63C135,53.28,107.69,18.13,74,18.13Z"/><path class="cls-1" d="M317.51.13C340.14-.95,341,4.75,336.85,12a48,48,0,0,0-13.34-1.91c-33.69,0-61,35.15-61,78.5a100,100,0,0,0,1.12,14.93A124.06,124.06,0,0,0,236.88,84C196.51,62.13,275.51,2.13,317.51.13Z"/><path class="cls-3" d="M323.51,10.13A48,48,0,0,1,336.85,12c-3.68,6.44-11.3,14.14-11.26,19.48,0,.41-.09.82-.1,1.22-1.73,44.44-15,71.39-24.37,79.54-7.66,6.64-6.38,6.43-10.91,6.75-10.69.74-16.62-6.17-26.58-15.47a100,100,0,0,1-1.12-14.93C262.51,45.28,289.82,10.13,323.51,10.13Z"/><ellipse class="cls-3" cx="285" cy="256.63" rx="55" ry="42.5"/><ellipse class="cls-3" cx="115" cy="256.63" rx="55" ry="42.5"/><path class="cls-5" d="M217,282.31l-12.61-3.94.64-.24-6-3a7.74,7.74,0,0,0-3,1c-2,1-5-.41-3,2-2-1.41-15.67,4-15.67,4,.67,1.06-9.33,15.9,16.67,17S217,282.31,217,282.31Z"/><path class="cls-6" d="M198,275.2h0v-.07S198,275.18,198,275.2Z"/><path class="cls-5" d="M198,275.2a1.3,1.3,0,0,1,.33-.07H200c-3-5-1-14-1-14h-1V275.2Z"/><path class="cls-5" d="M235,276.13s-7.61,11.8-29,2.09v3c10,3.88,26.55,6.17,34-8.05C251,252.13,235,276.13,235,276.13Z"/><path class="cls-5" d="M198,275.2s0-.05,0-.07v-15h-1s2,9-1,14c-.61.36-1.21.68-1.81,1h.48a1.34,1.34,0,0,1,1.33,1.33v.72a12.08,12.08,0,0,0,1-.75A1.31,1.31,0,0,1,198,275.2Z"/><path class="cls-5" d="M161,275.13s-16-24-5-3c6.74,12.87,21,12.22,31,9.1v-2.74C167.88,285.84,161,275.13,161,275.13Z"/><path class="cls-4" d="M187,287.63a4.5,4.5,0,0,0,9,0V277.18a36.83,36.83,0,0,1-9,4.05Z"/><path class="cls-4" d="M194.67,275.13h-.48a60,60,0,0,1-7.19,3.36v2.74a36.83,36.83,0,0,0,9-4.05v-.72A1.34,1.34,0,0,0,194.67,275.13Z"/><path class="cls-4" d="M198,276.13v-.93h0a2.48,2.48,0,0,1-1,1.23v11.2a4.5,4.5,0,0,0,9,0v-6.45C201.25,279.32,198,277.1,198,276.13Z"/><path class="cls-4" d="M200,275.13h-1.67a1.3,1.3,0,0,0-.33.07v.93c0,1,3.25,3.19,8,5.05v-3C204.11,277.36,202.11,276.35,200,275.13Z"/><path class="cls-4" d="M198,275.2a1.31,1.31,0,0,0-1,1.23A2.48,2.48,0,0,0,198,275.2Z"/><ellipse class="cls-5" cx="198.17" cy="252.63" rx="17.5" ry="10.5"/><ellipse class="cls-7" cx="197.83" cy="248.63" rx="9.17" ry="5.5"/><ellipse class="cls-2" cx="85.64" cy="424.62" rx="30.34" ry="56.13" transform="translate(-347.16 442.63) rotate(-80.98)"/><ellipse class="cls-2" cx="143.08" cy="401.7" rx="50.68" ry="26.03" transform="translate(-255.03 248.92) rotate(-49.4)"/><ellipse class="cls-2" cx="169.06" cy="364.67" rx="22.2" ry="23.77" transform="matrix(0.75, -0.66, 0.66, 0.75, -198.65, 202.33)"/><ellipse class="cls-2" cx="150.92" cy="340.73" rx="17.47" ry="3.43" transform="translate(-198 471.61) rotate(-86.67)"/><ellipse class="cls-2" cx="160.03" cy="337.9" rx="17.47" ry="3.43" transform="translate(-186.59 478.04) rotate(-86.67)"/><ellipse class="cls-2" cx="169.14" cy="335.07" rx="17.47" ry="3.43" transform="translate(-175.18 484.47) rotate(-86.67)"/><ellipse class="cls-2" cx="178.01" cy="336.22" rx="17.47" ry="3.43" transform="translate(-167.97 494.41) rotate(-86.67)"/><ellipse class="cls-2" cx="192.27" cy="359.22" rx="11.56" ry="4.15" transform="translate(-214.85 375.23) rotate(-64.1)"/><ellipse class="cls-2" cx="318.91" cy="424.62" rx="56.13" ry="30.34" transform="translate(-62.62 55.25) rotate(-9.02)"/><ellipse class="cls-2" cx="261.47" cy="401.7" rx="26.03" ry="50.68" transform="translate(-198.47 266.86) rotate(-40.6)"/><ellipse class="cls-2" cx="235.49" cy="364.67" rx="23.77" ry="22.2" transform="translate(-193.89 300.85) rotate(-48.69)"/><ellipse class="cls-2" cx="253.63" cy="340.73" rx="3.43" ry="17.47" transform="translate(-19.36 15.3) rotate(-3.33)"/><ellipse class="cls-2" cx="244.52" cy="337.9" rx="3.43" ry="17.47" transform="matrix(1, -0.06, 0.06, 1, -19.21, 14.77)"/><ellipse class="cls-2" cx="235.41" cy="335.07" rx="3.43" ry="17.47" transform="translate(-19.06 14.23) rotate(-3.33)"/><ellipse class="cls-2" cx="226.54" cy="336.22" rx="3.43" ry="17.47" transform="translate(-19.14 13.72) rotate(-3.33)"/><ellipse class="cls-2" cx="212.28" cy="359.22" rx="4.15" ry="11.56" transform="translate(-135.6 128.83) rotate(-25.9)"/></g></g></svg>