<svg xmlns="http://www.w3.org/2000/svg" viewBox="0 0 5440 740"><defs><style>.cls-1{fill:#d34226;}.cls-2{fill:#ed4a24;}.cls-3{fill:#dd998c;}.cls-4{fill:#ba3a20;}.cls-5{fill:#ff7955;}.cls-6{fill:#fff;}</style></defs><title>raev_sprite_1</title><g id="sprite"><g id="_1-start" data-name="1-start"><path class="cls-1" d="M221,550.42c-21.64,43.75-57.31,133.08-45.31,151.08,16.67,10.33,28,7,36,7s30-11,0-15-3-42-3-42L273,549.75Z"/><path class="cls-2" d="M496,521.29c-2,24,1,119-10,148s10,31,10,31S504.7,704,498.6,709c-4.91,13-28.59,2.27-28.59,2.27s-32.59,1.08-24-17,6-152,6-152Z"/><path class="cls-1" d="M559.49,429.08c5.21,7.21,19.11,146,14.78,206.78,5,3,6.08,35.88,3.08,45.88s-20-4.28-20-4.28l-6.08-21.6s-12.33-22.34-2.25-24.62-2.25-24.7-2.25-24.7L504.7,564.29l5-57Z"/><rect class="cls-2" x="261.52" y="271.91" width="235.56" height="353.6" rx="70.02" ry="70.02" transform="translate(-109.87 774.18) rotate(-83.43)"/><path class="cls-2" d="M246.9,74.44l-8.17,46.85-41-53-19,69-63-51v62l-70.07-35c-15.5,65.41-.47,122.94,30.07,143,38,25,158,104,158,104l21-11c-8-18-9-150,0-165C260.64,174.44,268.71,118,246.9,74.44Z"/><path class="cls-3" d="M115.73,86.29l63,51,19-69,41,53,8.17-46.85C235.49,51.71,216,32.5,183.73,25.29c-94-21-82-45-121,39a256.54,256.54,0,0,0-17.07,49l70.07,35Z"/><polygon class="cls-2" points="611.25 156.91 605.59 204.87 599.94 252.82 573.68 241.1 547.42 229.38 579.33 193.15 611.25 156.91"/><polygon class="cls-2" points="406.51 156.99 438.57 193.1 470.62 229.2 444.41 241.03 418.2 252.85 412.36 204.92 406.51 156.99"/><polygon class="cls-4" points="453.93 217.64 437.52 225.95 421.11 234.27 421.03 213.76 420.95 193.25 437.44 205.44 453.93 217.64"/><polygon class="cls-4" points="594.42 238.56 578.33 229.63 562.25 220.69 579.19 209.13 596.14 197.58 595.28 218.07 594.42 238.56"/><path class="cls-3" d="M608.11,331.27H523.87a81,81,0,0,0,17.83,74.92l15.91-17.95Z"/><path class="cls-3" d="M611.6,300.27a131,131,0,0,0-3.17-28.73c-2.09-.16-4.19-.27-6.32-.27a81,81,0,0,0-78.24,60h84A130.49,130.49,0,0,0,611.6,300.27Z"/><path class="cls-2" d="M507.35,183.27c-49.11,0-90.28,38.12-101.32,89.42a81,81,0,0,1,93.31,58.58h24.53a81,81,0,0,1,78.24-60c2.13,0,4.23.11,6.32.27C597,220.82,556.09,183.27,507.35,183.27Z"/><path class="cls-3" d="M456.61,388.27l20.19,22.79a81,81,0,0,0,22.54-79.79H406.11Z"/><path class="cls-3" d="M421.11,271.27A82,82,0,0,0,406,272.69a131.65,131.65,0,0,0,.78,58.58h92.53A81,81,0,0,0,421.11,271.27Z"/><path class="cls-2" d="M537.11,411.27v.14l4.59-5.19a81,81,0,0,1-17.83-75H499.34a81,81,0,0,1-22.54,79.79l.31.35v-.14Z"/><polygon points="537.11 411.27 477.11 411.27 477.11 411.41 507.11 445.27 537.11 411.41 537.11 411.27"/><circle class="cls-5" cx="474.11" cy="338.27" r="18"/><circle cx="473.72" cy="337.88" r="14.48"/><circle class="cls-6" cx="478.8" cy="331.23" r="7.04"/><circle class="cls-6" cx="485.06" cy="339.84" r="2.35"/><circle class="cls-5" cx="547.11" cy="338.27" r="18"/><circle cx="546.72" cy="337.88" r="14.48"/><circle class="cls-6" cx="551.8" cy="331.23" r="7.04"/><circle class="cls-6" cx="558.06" cy="339.84" r="2.35"/><path class="cls-2" d="M200.7,499.89c18-11.18,51.33,41.84,51.33,41.84s28.35,30.07-9,85.21c-16.79,12.36-.12,32.87,11.71,35.36s19.64,19.18-7.36,22.13c-11.48,1.25-19.28-.91-24.45-3.8a17,17,0,0,1-8.45-16.23c1.11-13.39-1.08-34.2-9.07-64.19C197.73,558.21,200.7,499.89,200.7,499.89Z"/></g><g id="_2-skridt" data-name="2-skridt"><path class="cls-1" d="M901,551.59c-21.64,43.75-57.31,133.08-45.31,151.08,16.67,10.33,28,7,36,7s30-11,0-15-3-42-3-42L953,550.92Z"/><path class="cls-2" d="M1176,522.45c-2,24,1,119-10,148s10,31,10,31,8.69,3.67,2.59,8.73c-4.91,13-28.59,2.27-28.59,2.27s-32.59,1.08-24-17,6-152,6-152Z"/><path class="cls-1" d="M1239.49,430.24c5.21,7.21,30.89,125.38,26.56,186.21,5,3,15.83,34.45,12.83,44.45s-20-4.28-20-4.28l-15.83-20.17-5-39-53.35-32,5-57Z"/><rect class="cls-2" x="941.52" y="273.08" width="235.56" height="353.6" rx="70.02" ry="70.02" transform="translate(491.17 1450.75) rotate(-83.43)"/><path class="cls-2" d="M926.9,75.6l-8.17,46.85-41-53-19,69-63-51v62l-70.07-35c-15.5,65.41-.47,122.94,30.07,143,38,25,158,104,158,104l21-11c-8-18-9-150,0-165C940.64,175.6,948.71,119.13,926.9,75.6Z"/><path class="cls-3" d="M795.73,87.45l63,51,19-69,41,53L926.9,75.6C915.49,52.87,896,33.66,863.73,26.45c-94-21-82-45-121,39a257,257,0,0,0-17.07,49l70.07,35Z"/><polygon class="cls-2" points="1291.25 158.08 1285.59 206.04 1279.94 253.99 1253.68 242.27 1227.42 230.55 1259.33 194.32 1291.25 158.08"/><polygon class="cls-2" points="1086.51 158.16 1118.57 194.27 1150.62 230.37 1124.41 242.2 1098.2 254.02 1092.36 206.09 1086.51 158.16"/><polygon class="cls-4" points="1133.93 218.81 1117.52 227.12 1101.11 235.44 1101.03 214.93 1100.95 194.42 1117.44 206.61 1133.93 218.81"/><polygon class="cls-4" points="1274.42 239.73 1258.33 230.8 1242.25 221.86 1259.19 210.3 1276.14 198.75 1275.28 219.24 1274.42 239.73"/><path class="cls-3" d="M1288.11,332.44h-84.24a81,81,0,0,0,17.83,74.92l15.91-17.95Z"/><path class="cls-3" d="M1291.6,301.44a130.93,130.93,0,0,0-3.17-28.73c-2.09-.16-4.19-.27-6.32-.27a81,81,0,0,0-78.24,60h84A130.62,130.62,0,0,0,1291.6,301.44Z"/><path class="cls-2" d="M1187.35,184.44c-49.11,0-90.28,38.12-101.32,89.42a81,81,0,0,1,93.31,58.58h24.53a81,81,0,0,1,78.24-60c2.13,0,4.23.11,6.32.27C1277,222,1236.09,184.44,1187.35,184.44Z"/><path class="cls-3" d="M1136.61,389.44l20.19,22.79a81,81,0,0,0,22.54-79.79h-93.23Z"/><path class="cls-3" d="M1101.11,272.44a81.16,81.16,0,0,0-15.08,1.42,131.65,131.65,0,0,0,.78,58.58h92.53A81,81,0,0,0,1101.11,272.44Z"/><path class="cls-2" d="M1217.11,412.44v.14l4.59-5.19a81,81,0,0,1-17.83-74.95h-24.53a81,81,0,0,1-22.54,79.79l.31.35v-.14Z"/><polygon points="1217.11 412.44 1157.11 412.44 1157.11 412.58 1187.11 446.44 1217.11 412.58 1217.11 412.44"/><circle class="cls-5" cx="1154.11" cy="339.44" r="18"/><circle cx="1153.72" cy="339.05" r="14.48"/><circle class="cls-6" cx="1158.8" cy="332.4" r="7.04"/><circle class="cls-6" cx="1165.06" cy="341.01" r="2.35"/><circle class="cls-5" cx="1227.11" cy="339.44" r="18"/><circle cx="1226.72" cy="339.05" r="14.48"/><circle class="cls-6" cx="1231.8" cy="332.4" r="7.04"/><circle class="cls-6" cx="1238.06" cy="341.01" r="2.35"/><path class="cls-2" d="M880.7,501.06c18-11.18,50,15.62,55.35,36.06,4.56,17.54,73,44,24.14,93.3-16.8,12.36-.12,32.87,11.7,35.36s19.65,19.18-7.36,22.13c-11.48,1.25-19.27-.91-24.44-3.8-5.77-3.23-10-9.82-8.46-16.23,4.41-17.88,6.31-70.3-20-78.53S880.7,501.06,880.7,501.06Z"/></g><g id="_3-skridt" data-name="3-skridt"><g id="Layer_3" data-name="Layer 3"><path class="cls-1" d="M1580.71,549.76c-21.63,43.75-57.3,133.08-45.3,151.08,16.67,10.33,28,7,36,7s30-11,0-15-3-42-3-42l64.3-101.75Z"/><path class="cls-2" d="M1855.74,520.63c-2,24,1,119-10,148s10,31,10,31,8.68,3.67,2.59,8.72c-4.92,13-28.59,2.28-28.59,2.28s-32.59,1.08-24-17,6-152,6-152Z"/><path class="cls-1" d="M1919.21,428.42c-4.43,64.17,28.57,123.17,48.12,189.29,5,3,12.83,44.44,9.83,54.44s-22.88-6.44-22.88-6.44l-3.5-28.12-35.5-43.5-50.86-30.46,5-57Z"/><rect class="cls-2" x="1621.25" y="271.25" width="235.56" height="353.6" rx="70.02" ry="70.02" transform="translate(1094.94 2124.39) rotate(-83.43)"/><path class="cls-2" d="M1642.12,63.4,1634,110.25l-41-53-19,69-63-51v62l-70.07-35c-15.5,65.41-.47,122.94,30.07,143,38,25,122.5,114.38,122.5,114.38l21-11c-8-18,26.5-160.38,35.5-175.38C1655.86,163.4,1663.93,106.93,1642.12,63.4Z"/><path class="cls-3" d="M1511,75.25l63,51,19-69,41,53,8.17-46.85c-11.41-22.73-30.93-41.94-63.17-49.15-99.76-5.71-125.83-25.81-121,39a256.78,256.78,0,0,0-17.07,49l70.07,35Z"/><polygon class="cls-2" points="1969.1 174.27 1963.44 222.23 1957.79 270.18 1931.53 258.46 1905.27 246.74 1937.18 210.51 1969.1 174.27"/><polygon class="cls-2" points="1764.36 174.35 1796.42 210.46 1828.47 246.56 1802.26 258.39 1776.05 270.21 1770.21 222.28 1764.36 174.35"/><polygon class="cls-4" points="1811.78 235 1795.37 243.31 1778.96 251.63 1778.88 231.12 1778.8 210.61 1795.29 222.8 1811.78 235"/><polygon class="cls-4" points="1952.27 255.92 1936.18 246.99 1920.1 238.05 1937.04 226.49 1953.99 214.94 1953.13 235.43 1952.27 255.92"/><path class="cls-3" d="M1966,348.63h-84.24a81,81,0,0,0,17.83,74.92l15.91-17.95Z"/><path class="cls-3" d="M1969.45,317.63a130.93,130.93,0,0,0-3.17-28.73c-2.09-.16-4.19-.27-6.32-.27a81,81,0,0,0-78.24,60h84A130.62,130.62,0,0,0,1969.45,317.63Z"/><path class="cls-2" d="M1865.2,200.63c-49.11,0-90.28,38.12-101.32,89.42a81,81,0,0,1,93.31,58.58h24.53a81,81,0,0,1,78.24-60c2.13,0,4.23.11,6.32.27C1954.87,238.18,1913.94,200.63,1865.2,200.63Z"/><path class="cls-3" d="M1814.46,405.63l20.19,22.79a81,81,0,0,0,22.54-79.79H1764Z"/><path class="cls-3" d="M1779,288.63a80.32,80.32,0,0,0-15.08,1.42,131.65,131.65,0,0,0,.78,58.58h92.53A81,81,0,0,0,1779,288.63Z"/><path class="cls-2" d="M1895,428.63v.14l4.59-5.19a81,81,0,0,1-17.83-74.95h-24.53a81,81,0,0,1-22.54,79.79l.31.35v-.14Z"/><polygon points="1894.96 428.63 1834.96 428.63 1834.96 428.77 1864.96 462.63 1894.96 428.77 1894.96 428.63"/><circle class="cls-5" cx="1831.96" cy="355.63" r="18"/><circle cx="1831.57" cy="355.24" r="14.48"/><circle class="cls-6" cx="1836.65" cy="348.59" r="7.04"/><circle class="cls-6" cx="1842.91" cy="357.2" r="2.35"/><circle class="cls-5" cx="1904.96" cy="355.63" r="18"/><circle cx="1904.57" cy="355.24" r="14.48"/><circle class="cls-6" cx="1909.65" cy="348.59" r="7.04"/><circle class="cls-6" cx="1915.91" cy="357.2" r="2.35"/><path class="cls-2" d="M1560.42,499.23c18-11.18,60.19,11.36,60.19,11.36s35.83,49.15,27.73,104.65a34.79,34.79,0,0,1-5.26,13.48c-8.17,12.87-4.74,38.84,5,43.88,12.51,6.49,14.51,26-26.49,18-11.34-2.22-5.44-.33-10.61-3.23a17,17,0,0,1-8.46-16.22c1.12-13.39,15.31-70.24-17.56-93.4S1560.42,499.23,1560.42,499.23Z"/></g></g><g id="_4-skridt" data-name="4-skridt"><g id="Layer_3-2" data-name="Layer 3"><path class="cls-1" d="M2259.72,549.53c-21.64,43.75-39.38,104.72-27.38,122.72,16.67,10.32,28,7,36,7s30-11,0-15-3-42-3-42l46.38-73.39Z"/><path class="cls-2" d="M2557.08,526.7c-8.81,22.42-6.56,73.62-22.82,110.51-18.86,24.62,7.95,38.57.66,41.67-7.45,5.31-19.19,3.93-28-6s-17.47-9.79-18.11-23.17c41.53-33,20.13-115.48,20.13-115.48Z"/><path class="cls-1" d="M2598.22,428.18c-4.43,64.17,27.45,240.62,24.2,246.12s38.5,28.22,35.5,38.22-42,2-42,2a25.6,25.6,0,0,1-15.15-6c-7.24-6-11.35-46.25-21.44-76.9-12.41-8.85-35.9-68.26-35.9-68.26l5-57Z"/><rect class="cls-2" x="2300.25" y="271.02" width="235.56" height="353.6" rx="70.02" ry="70.02" transform="translate(1696.49 2798.73) rotate(-83.43)"/><path class="cls-2" d="M2279.09,59l2.46,47.49-51.77-42.54-3.17,71.49-72.76-35.7,13.79,60.45-76.1-18.53c-.56,67.22,26.9,120,61.14,132.72,42.61,15.92,116.06,90.82,116.06,90.82l18-15.39c-11.8-15.77,6.71-163.7,24.41-185.46C2314.74,153.43,2310,96.58,2279.09,59Z"/><path class="cls-3" d="M2153.85,99.73l72.76,35.7,3.17-71.49,51.77,42.54L2279.09,59c-16.18-19.62-39.49-34-72.52-33.86C2108,41.76,2159-58,2097.28,90.08a257,257,0,0,0-5.74,51.57l76.1,18.53Z"/><polygon class="cls-2" points="2661.47 187.4 2655.81 235.36 2650.16 283.31 2623.9 271.59 2597.64 259.87 2629.55 223.64 2661.47 187.4"/><polygon class="cls-2" points="2456.73 187.48 2488.79 223.59 2520.84 259.69 2494.63 271.52 2468.42 283.34 2462.58 235.41 2456.73 187.48"/><polygon class="cls-4" points="2504.15 248.13 2487.74 256.44 2471.33 264.76 2471.25 244.25 2471.17 223.74 2487.66 235.93 2504.15 248.13"/><polygon class="cls-4" points="2644.64 269.05 2628.55 260.12 2612.47 251.18 2629.41 239.62 2646.36 228.07 2645.5 248.56 2644.64 269.05"/><path class="cls-3" d="M2658.33,361.76h-84.24a81,81,0,0,0,17.83,74.92l15.91-17.95Z"/><path class="cls-3" d="M2661.82,330.76a130.93,130.93,0,0,0-3.17-28.73c-2.09-.16-4.19-.27-6.32-.27a81,81,0,0,0-78.24,60h84A130.62,130.62,0,0,0,2661.82,330.76Z"/><path class="cls-2" d="M2557.57,213.76c-49.11,0-90.28,38.12-101.32,89.42a81,81,0,0,1,93.31,58.58h24.53a81,81,0,0,1,78.24-60c2.13,0,4.23.11,6.32.27C2647.24,251.31,2606.31,213.76,2557.57,213.76Z"/><path class="cls-3" d="M2506.83,418.76,2527,441.55a81,81,0,0,0,22.54-79.79h-93.23Z"/><path class="cls-3" d="M2471.33,301.76a81.16,81.16,0,0,0-15.08,1.42,131.65,131.65,0,0,0,.78,58.58h92.53A81,81,0,0,0,2471.33,301.76Z"/><path class="cls-2" d="M2587.33,441.76v.14l4.59-5.19a81,81,0,0,1-17.83-74.95h-24.53A81,81,0,0,1,2527,441.55l.31.35v-.14Z"/><polygon points="2587.33 441.76 2527.33 441.76 2527.33 441.9 2557.33 475.76 2587.33 441.9 2587.33 441.76"/><circle class="cls-5" cx="2524.33" cy="368.76" r="18"/><circle cx="2523.94" cy="368.37" r="14.48"/><circle class="cls-6" cx="2529.02" cy="361.72" r="7.04"/><circle class="cls-6" cx="2535.28" cy="370.33" r="2.35"/><circle class="cls-5" cx="2597.33" cy="368.76" r="18"/><circle cx="2596.94" cy="368.37" r="14.48"/><circle class="cls-6" cx="2602.02" cy="361.72" r="7.04"/><circle class="cls-6" cx="2608.28" cy="370.33" r="2.35"/><path class="cls-2" d="M2239.43,499c18-11.18,60.19,11.35,60.19,11.35s19.33,62,11.22,117.52a34.54,34.54,0,0,1-5.26,13.48c-8.16,12.87,15.48,32.56,26.2,34.82,11.82,2.48,19.64,19.18-7.36,22.13-11.48,1.25-19.28-.91-24.45-3.81a17,17,0,0,1-8.45-16.22c1.11-13.39-19.34-39.19-27.34-69.18C2249.18,569.6,2239.43,499,2239.43,499Z"/></g></g><g id="_5-skridt" data-name="5-skridt"><g id="Layer_3-3" data-name="Layer 3"><path class="cls-1" d="M2940,552.54c14,49.38-22.47,96.05-10.47,114.05,16.67,10.33,23.19,9.35,28.11,15.67,4.66,6,33.36,6,12.69-15-21.24-21.57-9.36-39-9.36-39l31-76.39Z"/><path class="cls-2" d="M3237.33,529.71c-8.8,22.42,28.18,54.53,11.92,91.41-18.86,24.63,7.95,38.58.66,41.67-7.45,5.32-19.19,3.94-28-6s-17.48-9.79-18.12-23.17c41.54-33-14.6-96.39-14.6-96.39Z"/><path class="cls-1" d="M3278.47,431.19c-4.43,64.17,12.94,230,12.77,236.43-.63,23.64,54.7,37.64,32.7,50-9.11,5.1-51,0-51,0s-12.43-.62-19.67-6.67,21.69-41.4-3.33-93.33c-12.41-8.85-26.26-51.19-26.26-51.19l5-57Z"/><rect class="cls-2" x="2980.51" y="274.03" width="235.56" height="353.6" rx="70.02" ry="70.02" transform="translate(2295.92 3477.18) rotate(-83.43)"/><path class="cls-2" d="M2959.34,62l2.46,47.49L2910,67l-3.17,71.49-72.77-35.7,13.79,60.45-76.1-18.53c-.55,67.22,26.9,120,61.14,132.72C2875.54,293.3,2949,368.2,2949,368.2l18-15.39c-11.81-15.77,6.7-163.7,24.4-185.46C2995,156.43,2990.29,99.58,2959.34,62Z"/><path class="cls-3" d="M2834.1,102.74l72.77,35.7L2910,67l51.76,42.54L2959.34,62c-16.18-19.62-39.48-34-72.52-33.86-98.53,16.63-47.53-83.11-109.29,65a257,257,0,0,0-5.74,51.57l76.1,18.53Z"/><polygon class="cls-2" points="3341.72 190.41 3336.06 238.37 3330.41 286.32 3304.15 274.6 3277.89 262.88 3309.8 226.65 3341.72 190.41"/><polygon class="cls-2" points="3136.98 190.49 3169.04 226.6 3201.09 262.7 3174.88 274.53 3148.67 286.35 3142.83 238.42 3136.98 190.49"/><polygon class="cls-4" points="3184.4 251.14 3167.99 259.45 3151.58 267.77 3151.5 247.26 3151.42 226.75 3167.91 238.94 3184.4 251.14"/><polygon class="cls-4" points="3324.89 272.06 3308.8 263.13 3292.72 254.19 3309.66 242.63 3326.61 231.08 3325.75 251.57 3324.89 272.06"/><path class="cls-3" d="M3338.58,364.77h-84.24a81,81,0,0,0,17.83,74.92l15.91-17.95Z"/><path class="cls-3" d="M3342.07,333.77A130.33,130.33,0,0,0,3338.9,305c-2.09-.16-4.19-.27-6.32-.27a81,81,0,0,0-78.24,60h84A130.11,130.11,0,0,0,3342.07,333.77Z"/><path class="cls-2" d="M3237.82,216.77c-49.11,0-90.28,38.12-101.32,89.42a81,81,0,0,1,93.31,58.58h24.53a81,81,0,0,1,78.24-60c2.13,0,4.23.11,6.32.27C3327.49,254.32,3286.56,216.77,3237.82,216.77Z"/><path class="cls-3" d="M3187.08,421.77l20.19,22.79a81,81,0,0,0,22.54-79.79h-93.23Z"/><path class="cls-3" d="M3151.58,304.77a81.16,81.16,0,0,0-15.08,1.42,131.79,131.79,0,0,0,.78,58.58h92.53A81,81,0,0,0,3151.58,304.77Z"/><path class="cls-2" d="M3267.58,444.77v.14l4.59-5.19a81,81,0,0,1-17.83-75h-24.53a81,81,0,0,1-22.54,79.79l.31.35v-.14Z"/><polygon points="3267.58 444.77 3207.58 444.77 3207.58 444.91 3237.58 478.77 3267.58 444.91 3267.58 444.77"/><circle class="cls-5" cx="3204.58" cy="371.77" r="18"/><circle cx="3204.19" cy="371.38" r="14.48"/><circle class="cls-6" cx="3209.27" cy="364.73" r="7.04"/><circle class="cls-6" cx="3215.53" cy="373.34" r="2.35"/><circle class="cls-5" cx="3277.58" cy="371.77" r="18"/><circle cx="3277.19" cy="371.38" r="14.48"/><circle class="cls-6" cx="3282.27" cy="364.73" r="7.04"/><circle class="cls-6" cx="3288.53" cy="373.34" r="2.35"/><path class="cls-2" d="M2919.68,502c18-11.18,60.19,11.35,60.19,11.35s19.33,62,11.23,117.52a34.72,34.72,0,0,1-5.27,13.48c-8.16,12.87,15.49,32.56,26.2,34.81,11.83,2.49,19.65,19.19-7.36,22.14-11.48,1.25-19.27-.91-24.44-3.81a16.94,16.94,0,0,1-8.46-16.22c1.11-13.4-19.34-39.2-27.33-69.18C2929.44,572.61,2919.68,502,2919.68,502Z"/></g></g><g id="_6-skridt" data-name="6-skridt"><g id="Layer_3-4" data-name="Layer 3"><path class="cls-1" d="M3621.68,551.59c26.79,37.85,46.46,49.37,39.46,111.18,16.67,10.33,26.83,3.17,34.83,3.17s26-15-4-19c-22.23-3-8-16.77-1.8-27.77,2.45-4.36,4.25-19.85,4.3-30.73,0,0-14.17-37.52-20.79-37.52S3621.68,551.59,3621.68,551.59Z"/><path class="cls-1" d="M3960.18,430.25c-4.43,64.17-79.57,240.76-82.82,246.26s38.5,28.23,35.5,38.23-42,2-42,2a25.65,25.65,0,0,1-15.15-6c-7.24-6-18.24-42.41-8.24-83.32,15.94-63.34,36.47-98.67,36.47-98.67l26.45-20.31Z"/><rect class="cls-2" x="3662.21" y="273.09" width="235.56" height="353.6" rx="70.02" ry="70.02" transform="translate(2900.57 4153.58) rotate(-83.43)"/><path class="cls-2" d="M3590.28,95.35l2.46,47.49L3541,100.3l-3.17,71.49L3465,136.09l13.8,60.45L3402.74,178c-.56,67.22,38.5,108.05,72.73,120.81,42.61,15.92,155.23,68.44,155.23,68.44l18-15.4c-11.81-15.77-32-131.56-14.26-153.32C3638,187.62,3621.23,132.94,3590.28,95.35Z"/><path class="cls-3" d="M3465,136.09l72.77,35.7L3541,100.3l51.76,42.54-2.46-47.49c-16.18-19.62-39.48-34-72.52-33.86C3410.35,36,3423.68,38,3408.47,126.44a256.94,256.94,0,0,0-5.73,51.57l76.1,18.53Z"/><polygon class="cls-2" points="4037.19 198.46 4031.53 246.42 4025.88 294.37 3999.62 282.65 3973.36 270.93 4005.27 234.7 4037.19 198.46"/><polygon class="cls-2" points="3832.45 198.54 3864.51 234.65 3896.56 270.75 3870.35 282.58 3844.14 294.4 3838.3 246.47 3832.45 198.54"/><polygon class="cls-4" points="3879.87 259.19 3863.46 267.5 3847.05 275.82 3846.97 255.31 3846.89 234.8 3863.38 246.99 3879.87 259.19"/><polygon class="cls-4" points="4020.36 280.11 4004.27 271.18 3988.19 262.24 4005.13 250.68 4022.08 239.13 4021.22 259.62 4020.36 280.11"/><path class="cls-3" d="M4034.05,372.82h-84.24a81,81,0,0,0,17.83,74.92l15.91-17.95Z"/><path class="cls-3" d="M4037.54,341.82a130.39,130.39,0,0,0-3.17-28.73c-2.09-.16-4.19-.27-6.32-.27a81,81,0,0,0-78.24,60h84A130,130,0,0,0,4037.54,341.82Z"/><path class="cls-2" d="M3933.29,224.82c-49.11,0-90.28,38.12-101.32,89.42a81,81,0,0,1,93.31,58.58h24.53a81,81,0,0,1,78.24-60c2.13,0,4.23.11,6.32.27C4023,262.37,3982,224.82,3933.29,224.82Z"/><path class="cls-3" d="M3882.55,429.82l20.19,22.79a81,81,0,0,0,22.54-79.79h-93.23Z"/><path class="cls-3" d="M3847.05,312.82a82,82,0,0,0-15.08,1.42,131.79,131.79,0,0,0,.78,58.58h92.53A81,81,0,0,0,3847.05,312.82Z"/><path class="cls-2" d="M3963.05,452.82V453l4.59-5.19a81,81,0,0,1-17.83-74.95h-24.53a81,81,0,0,1-22.54,79.79l.31.35v-.14Z"/><polygon points="3963.05 452.82 3903.05 452.82 3903.05 452.96 3933.05 486.82 3963.05 452.96 3963.05 452.82"/><circle class="cls-5" cx="3900.05" cy="379.82" r="18"/><circle cx="3899.66" cy="379.43" r="14.48"/><circle class="cls-6" cx="3904.74" cy="372.78" r="7.04"/><circle class="cls-6" cx="3911" cy="381.39" r="2.35"/><circle class="cls-5" cx="3973.05" cy="379.82" r="18"/><circle cx="3972.66" cy="379.43" r="14.48"/><circle class="cls-6" cx="3977.74" cy="372.78" r="7.04"/><circle class="cls-6" cx="3984" cy="381.39" r="2.35"/><path class="cls-2" d="M3601.39,501.07c18-11.19,60.19,11.35,60.19,11.35s-6.77,25-33.44,77.68c-.71,4.84-21.42,52.27-24,56.4-8.16,12.87,15.49,32.56,26.2,34.81,11.83,2.49,19.65,19.19-7.36,22.13-11.48,1.26-19.34,3.26-24.52.37-5.76-3.23-21.51-2.46-21-9,1.11-13.39,7.23-46.37,6-84.67C3587.58,570.8,3601.39,501.07,3601.39,501.07Z"/><path class="cls-2" d="M3919,528.77c19.44,20.21,42.37,51.78,26.1,88.67-18.86,24.62,16.72,30.41,9,49.75-7.45,5.31-19.19,3.93-28-6s-25.85-17.87-26.49-31.25c14.56-16.4,21.49-34.44-2.84-56.81-11.85-12-25.95-36.84-25.95-36.84Z"/></g></g><g id="_7-skridt" data-name="7-skridt"><g id="Layer_3-5" data-name="Layer 3"><path class="cls-1" d="M4305.91,555.48c26.56,35,64.94,58.35,59.12,116.55a2.64,2.64,0,0,0,1.32,2.57c15.78,9,25.57,2.27,33.33,2.27,8,0,26-15-4-19-20.77-2.77-4.3-24.61-2.05-27.46a2.46,2.46,0,0,0,.39-.71c1-2.61,6.26-17.72,4.16-30.33-2.3-13.85-36.52-50.78-43.43-48.87-5,1.4-34.48,1-46.7.78A2.62,2.62,0,0,0,4305.91,555.48Z"/><path class="cls-1" d="M4641.25,429.83c-4.43,64.17-79.57,240.76-82.82,246.26s38.5,28.23,35.5,38.23-42,2-42,2a25.65,25.65,0,0,1-15.15-6c-7.24-6.05-18.24-42.41-8.24-83.32,15.93-63.34,36.47-98.67,36.47-98.67L4591.46,508Z"/><rect class="cls-2" x="4343.28" y="272.67" width="235.56" height="353.6" rx="70.02" ry="70.02" transform="translate(3504.13 4829.8) rotate(-83.43)"/><path class="cls-2" d="M4263.92,148.23l2.47,47.49-51.77-42.55-3.17,71.5L4138.68,189l13.8,60.44-67.08-33.13c-2.93,67.7,52.81,92.11,83,103.49,42.61,15.92,143.39,47.07,143.39,47.07l18-15.4c-11.81-15.77-21.69-100-21.69-100S4294.87,185.81,4263.92,148.23Z"/><path class="cls-3" d="M4138.68,189l72.77,35.7,3.17-71.5,51.76,42.55-2.46-47.49c-16.18-19.62-39.48-34-72.52-33.86-66.75-36.24-77.73-29.82-100.26,50.34a257,257,0,0,0-5.74,51.57l67.08,33.13Z"/><polygon class="cls-2" points="4734 219.43 4728.34 267.39 4722.69 315.34 4696.43 303.62 4670.17 291.9 4702.08 255.67 4734 219.43"/><polygon class="cls-2" points="4529.26 219.51 4561.32 255.62 4593.37 291.72 4567.16 303.55 4540.95 315.37 4535.11 267.44 4529.26 219.51"/><polygon class="cls-4" points="4576.68 280.16 4560.27 288.47 4543.86 296.79 4543.78 276.28 4543.7 255.77 4560.19 267.96 4576.68 280.16"/><polygon class="cls-4" points="4717.17 301.08 4701.08 292.15 4685 283.21 4701.94 271.65 4718.89 260.1 4718.03 280.59 4717.17 301.08"/><path class="cls-3" d="M4730.86,393.79h-84.24a81,81,0,0,0,17.83,74.92l15.91-17.95Z"/><path class="cls-3" d="M4734.35,362.79a130.33,130.33,0,0,0-3.17-28.73c-2.09-.16-4.19-.27-6.32-.27a81,81,0,0,0-78.24,60h84A130.11,130.11,0,0,0,4734.35,362.79Z"/><path class="cls-2" d="M4630.1,245.79c-49.11,0-90.28,38.12-101.32,89.42a81,81,0,0,1,93.31,58.58h24.53a81,81,0,0,1,78.24-60c2.13,0,4.23.11,6.32.27C4719.77,283.34,4678.84,245.79,4630.1,245.79Z"/><path class="cls-3" d="M4579.36,450.79l20.19,22.79a81,81,0,0,0,22.54-79.79h-93.23Z"/><path class="cls-3" d="M4543.86,333.79a81.16,81.16,0,0,0-15.08,1.42,131.79,131.79,0,0,0,.78,58.58h92.53A81,81,0,0,0,4543.86,333.79Z"/><path class="cls-2" d="M4659.86,473.79v.14l4.59-5.19a81,81,0,0,1-17.83-74.95h-24.53a81,81,0,0,1-22.54,79.79l.31.35v-.14Z"/><polygon points="4659.86 473.79 4599.86 473.79 4599.86 473.93 4629.86 507.79 4659.86 473.93 4659.86 473.79"/><circle class="cls-5" cx="4596.86" cy="400.79" r="18"/><circle cx="4596.47" cy="400.4" r="14.48"/><circle class="cls-6" cx="4601.55" cy="393.75" r="7.04"/><circle class="cls-6" cx="4607.81" cy="402.36" r="2.35"/><circle class="cls-5" cx="4669.86" cy="400.79" r="18"/><circle cx="4669.47" cy="400.4" r="14.48"/><circle class="cls-6" cx="4674.55" cy="393.75" r="7.04"/><circle class="cls-6" cx="4680.81" cy="402.36" r="2.35"/><path class="cls-2" d="M4286.05,502c18-11.19,60.19,11.35,60.19,11.35s0,27.35-52.28,78.48c-.7,4.83-27.71,65.75-30.32,69.87-8.17,12.87,6.61,21.75,17.33,24,11.82,2.49,27.83,16.88.83,19.83-11.48,1.25-18.11.08-17.55,0s-17.42-1.72-22.28-2.83c-11.87-6.3-2.33-41.67,7.33-90.87C4264.25,564.16,4286.05,502,4286.05,502Z"/><path class="cls-2" d="M4600.11,528.35c19.44,20.21,58.94,80.25,50.94,104.25s21.55,33.61,13.86,52.94c-7.45,5.32-19.19,3.93-28-6s-25.86-17.87-26.5-31.25c14.57-16.4-20.12-49.3-32.5-75.59-11.85-12-25.95-36.84-25.95-36.84Z"/></g></g><g id="_8-stå" data-name="8-stå"><g id="Layer_3-6" data-name="Layer 3"><path class="cls-1" d="M4984.41,553.18c26.57,35,22.27,86.41,16.45,144.62a2.63,2.63,0,0,0,1.32,2.56c15.78,9,25.57,2.28,33.33,2.28,8,0,26-15-4-19-20.77-2.77-4.3-24.61-2.05-27.47a2.29,2.29,0,0,0,.39-.7c1-2.62,18.93-42.66,16.83-55.27-2.3-13.85-6.52-53.9-13.43-52-5,1.39-34.48,1-46.69.78A2.62,2.62,0,0,0,4984.41,553.18Z"/><path class="cls-1" d="M5319.75,427.53C5315.32,491.7,5357,685.86,5360,678.11c21.67,21.25,31.69,9.75,31.25,29.33-3,10-42,2-42,2a25.65,25.65,0,0,1-15.15-6c-7.24-6.05-6.74-31.42-11.74-73.6s-78.86-103.8-78.86-103.8L5270,505.74Z"/><rect class="cls-2" x="5021.79" y="270.37" width="235.56" height="353.6" rx="70.02" ry="70.02" transform="translate(4107.28 5501.82) rotate(-83.43)"/><path class="cls-2" d="M4942.43,145.93l2.46,47.5-51.77-42.55-3.17,71.5-72.77-35.7,13.8,60.44-33.11-30.88c-2.93,67.7,18.84,89.86,49,101.24,42.61,15.92,143.39,47.07,143.39,47.07l18-15.4c-11.81-15.77-21.68-100-21.68-100S4973.38,183.52,4942.43,145.93Z"/><path class="cls-3" d="M4817.18,186.68l72.77,35.7,3.17-71.5,51.77,42.55-2.46-47.5c-16.18-19.62-39.49-34-72.52-33.86-139.63-30.07-89.79-17.4-66.3,52.6a257,257,0,0,0-5.74,51.57L4831,247.12Z"/><polygon class="cls-2" points="5412.51 217.13 5406.85 265.09 5401.19 313.04 5374.94 301.32 5348.68 289.6 5380.59 253.37 5412.51 217.13"/><polygon class="cls-2" points="5207.77 217.21 5239.82 253.32 5271.88 289.42 5245.66 301.25 5219.45 313.07 5213.61 265.14 5207.77 217.21"/><polygon class="cls-4" points="5255.19 277.86 5238.77 286.17 5222.36 294.49 5222.28 273.98 5222.2 253.47 5238.69 265.66 5255.19 277.86"/><polygon class="cls-4" points="5395.68 298.78 5379.59 289.85 5363.51 280.91 5380.44 269.35 5397.4 257.8 5396.53 278.29 5395.68 298.78"/><path class="cls-3" d="M5409.36,391.49h-84.24A81.08,81.08,0,0,0,5343,466.41l15.91-18Z"/><path class="cls-3" d="M5412.85,360.49a130.39,130.39,0,0,0-3.17-28.73c-2.09-.16-4.19-.27-6.32-.27a81,81,0,0,0-78.24,60h84A129.47,129.47,0,0,0,5412.85,360.49Z"/><path class="cls-2" d="M5308.6,243.49c-49.11,0-90.28,38.12-101.32,89.42a81,81,0,0,1,93.31,58.58h24.53a81,81,0,0,1,78.24-60c2.13,0,4.23.11,6.32.27C5398.27,281,5357.34,243.49,5308.6,243.49Z"/><path class="cls-3" d="M5257.86,448.49l20.19,22.79a80.93,80.93,0,0,0,22.54-79.79h-93.23Z"/><path class="cls-3" d="M5222.36,331.49a82.11,82.11,0,0,0-15.08,1.42,131.79,131.79,0,0,0,.78,58.58h92.53A81,81,0,0,0,5222.36,331.49Z"/><path class="cls-2" d="M5338.36,471.49v.14l4.59-5.19a81.09,81.09,0,0,1-17.83-74.95h-24.53a80.93,80.93,0,0,1-22.54,79.79l.31.35v-.14Z"/><polygon points="5338.36 471.49 5278.36 471.49 5278.36 471.63 5308.36 505.49 5338.36 471.63 5338.36 471.49"/><circle class="cls-5" cx="5275.36" cy="398.49" r="18"/><circle cx="5274.97" cy="398.1" r="14.48"/><circle class="cls-6" cx="5280.05" cy="391.45" r="7.04"/><circle class="cls-6" cx="5286.31" cy="400.06" r="2.35"/><circle class="cls-5" cx="5348.36" cy="398.49" r="18"/><circle cx="5347.97" cy="398.1" r="14.48"/><circle class="cls-6" cx="5353.05" cy="391.45" r="7.04"/><circle class="cls-6" cx="5359.31" cy="400.06" r="2.35"/><path class="cls-2" d="M4964.56,499.7c18-11.18,60.19,11.36,60.19,11.36s13.93,21.52-11.16,82.1c-.7,4.83-27.71,65.75-30.32,69.88-8.16,12.87,6.62,21.74,17.33,24,11.83,2.48,27.83,16.88.83,19.82-11.48,1.26-18.1.08-17.55,0s-17.42-1.71-22.28-2.82c-11.87-6.3-2.33-41.67,7.33-90.88C4983.88,565.49,4964.56,499.7,4964.56,499.7Z"/><path class="cls-2" d="M5278.61,526.06c19.44,20.21,33,132.33,25,156.33s34.79,12.31,27.11,31.64c-7.45,5.32-27.73-.19-41-1.33-7.27-.63-8.89-.49-11.41-3.7a19.75,19.75,0,0,1-3.36-17.55c7.47-26.37-7.44-97.52-18.53-121.06-11.85-12-25.95-36.84-25.95-36.84Z"/></g></g></g></svg>
