<svg id="Sprite" xmlns="http://www.w3.org/2000/svg" width="2800" height="500" viewBox="0 0 2800 500"><defs><style>.cls-1{fill:#d3c6b2;}.cls-2{fill:#f7eedc;}.cls-3{fill:#d674c4;}.cls-4{fill:#72112b;}.cls-5{fill:#332d2a;}.cls-6{fill:none;stroke:#332d2a;stroke-linecap:round;stroke-miterlimit:10;stroke-width:1.17px;}</style></defs><title>ny_fil</title><path class="cls-1" d="M2609.71,436.59l49.7-41.3s-27.66-10-38.63,10.31c0,0-12.82-48.11-47.14-70.29-1.54,2.42-6.1,5.7-8,7.91C2597.81,363.79,2604.81,407.89,2609.71,436.59Z"/><path class="cls-2" d="M2632.68,89.59c-16.73,9.51-61.5,59.53-87.5,157.93s-28.55,130.55-85.45,148.81c0,0,1.09,16.53,11.15,28.13,4.81,5.54,18.52,7.73,26.12,9.56-1-27.69-16.93-27-16.93-27s46.26-27.3,59.52-65.4c11.64-.75,20.14,3.91,38.34-1,5.15-31.62,14.82-60.27,24.47-85,18.66-47.74,31.63-74.52,57.71-84.87,17.15-6.82,30.66-7.3,38.67-18.91C2728.54,108.66,2671.72,67.4,2632.68,89.59Z"/><path class="cls-2" d="M2693.21,110.18c1.65-6.6,9.9-24.76,24.76-26.41s54.47,6.6,42.91,24.76-23.11-9.9-36.31-9.9-26.41,16.5-26.41,19.8S2693.21,110.18,2693.21,110.18Z"/><path class="cls-2" d="M2667.44,96.41c0-5,1.65-44.56,26.41-51.17s54.47-5,52.82,8.26-29.71-3.3-47.87,5S2679,96.41,2679,98.07,2667.44,96.41,2667.44,96.41Z"/><circle class="cls-3" cx="2645.35" cy="137.11" r="7.01"/><circle class="cls-3" cx="2686.89" cy="151.57" r="7.01"/><path class="cls-4" d="M2655.77,123l11.66,8s-5.41,5.89-10.28,2.33S2655.77,123,2655.77,123Z"/><path class="cls-4" d="M2679.81,133.39l14,1.94s-2.21,7.69-8.16,6.68S2679.81,133.39,2679.81,133.39Z"/><circle class="cls-5" cx="2669.73" cy="141.3" r="2.93"/><path class="cls-6" d="M2669,143.19l-1.45,5.24s.6,3.65,4.25,3,3.56-3.33,3.56-3.33"/><path class="cls-6" d="M2669,143.18l-1.76,5.14s-2.56,2.68-5.24.11-.91-4.71-.91-4.71"/><path class="cls-3" d="M2573.17,264.12c6.6,1.65,6.6,16.5-1.65,29.71s4.95,23.11-6.61,26.41-26.41-4.95-14.85-34.67S2573.17,264.12,2573.17,264.12Z"/><path class="cls-1" d="M2547.39,252.05s0,15.13,10.38,23.41c25.84,20.56,50.35-10.78,51.15,12.56.71,20.43-67.73,20.06-68.29-31.76Z"/><path class="cls-1" d="M2256.49,248s-14.8-3.13-25,5.36c-25.42,21.08.24,51.49-22.78,47.5-20.14-3.5-5.75-70.41,45.09-60.33Z"/><path class="cls-1" d="M2219.56,378.06l53.09,31.14s0-28-21.74-31.26A149.59,149.59,0,0,0,2285,342.85c-27-7.85-49.44-25.35-49.44-25.35l-10.86,14a256.32,256.32,0,0,0,37.15,18.5C2248.2,362,2232.11,371,2219.56,378.06Z"/><path class="cls-2" d="M2290.34,77c-16.73,9.51-61.5,59.53-87.5,157.93S2177.61,369.74,2129,408c0,0,11.63,16.63,22.63,27.35,8.37,8.15,26.77,1.82,34.37,3.65-32-17.5-28.19-31.31-28.19-31.31s22.19-23.69,34-65.06c11.63-.75,25.59-9.72,43.8-14.6,5.15-31.62,14.82-60.28,24.47-85,18.65-47.74,31.63-74.52,57.71-84.87,17.15-6.82,30.66-7.3,38.67-18.92C2386.2,96.09,2329.38,54.82,2290.34,77Z"/><path class="cls-2" d="M2350.87,97.61c1.65-6.6,9.9-24.76,24.75-26.41s54.48,6.6,42.92,24.76-23.11-9.9-36.31-9.9-26.41,16.5-26.41,19.8S2350.87,97.61,2350.87,97.61Z"/><path class="cls-2" d="M2325.1,83.84c0-5,1.65-44.56,26.41-51.17s54.47-5,52.82,8.26-29.71-3.3-47.87,5-19.81,38-19.81,39.61S2325.1,83.84,2325.1,83.84Z"/><circle class="cls-3" cx="2303" cy="124.53" r="7.01"/><circle class="cls-3" cx="2344.55" cy="139" r="7.01"/><path class="cls-4" d="M2313.43,110.45l11.66,8s-5.41,5.89-10.28,2.33S2313.43,110.45,2313.43,110.45Z"/><path class="cls-4" d="M2337.47,120.82l14,1.94s-2.21,7.69-8.16,6.68S2337.47,120.82,2337.47,120.82Z"/><circle class="cls-5" cx="2327.39" cy="128.73" r="2.93"/><path class="cls-6" d="M2326.64,130.62l-1.45,5.24s.6,3.65,4.25,3,3.55-3.33,3.55-3.33"/><path class="cls-6" d="M2326.61,130.61l-1.76,5.14s-2.56,2.67-5.24.11-.91-4.71-.91-4.71"/><path class="cls-3" d="M2230.83,251.55c6.6,1.65,6.6,16.5-1.65,29.71s5,23.11-6.61,26.41-26.41-4.95-14.85-34.67S2230.83,251.55,2230.83,251.55Z"/><path class="cls-1" d="M2200.37,239.53s6,13.86,18.91,17.27c31.91,8.46,41.78-30.09,51.89-9,8.85,18.43-54,45.56-75.29-1.68Z"/><path class="cls-1" d="M1844.56,375.06,1865,423.5s5.56-22-7-38c0,0,12.45,10.47,34.22,14-10.55-30.31-3.22-76-3.22-76l-24.26,19,11,41.5S1870.56,384.5,1844.56,375.06Z"/><path class="cls-2" d="M1941.34,83c-16.73,9.51-61.5,59.53-87.5,157.93S1818.5,379.5,1801.5,438c0,0,55.9-4.83,63.5-3-27.5-22.5-42-13.5-42-13.5s11-29.5,19.79-72.87c11.75-4.63,21.71-7.13,43.8-8.13,5.15-31.62,14.82-66.75,24.47-91.46,18.65-47.74,31.63-74.52,57.71-84.87,17.15-6.82,30.66-7.3,38.67-18.92C2037.2,102.09,1980.38,60.82,1941.34,83Z"/><path class="cls-2" d="M2001.87,103.61c1.65-6.6,9.9-24.76,24.75-26.41s54.48,6.6,42.92,24.76-23.11-9.9-36.31-9.9-26.41,16.5-26.41,19.8S2001.87,103.61,2001.87,103.61Z"/><path class="cls-2" d="M1976.1,89.84c0-5,1.65-44.56,26.41-51.17s54.47-5,52.82,8.26-29.71-3.3-47.87,5-19.81,38-19.81,39.61S1976.1,89.84,1976.1,89.84Z"/><circle class="cls-3" cx="1954" cy="130.53" r="7.01"/><circle class="cls-3" cx="1995.55" cy="145" r="7.01"/><path class="cls-4" d="M1964.43,116.45l11.66,8s-5.41,5.89-10.28,2.33S1964.43,116.45,1964.43,116.45Z"/><path class="cls-4" d="M1988.47,126.82l14,1.94s-2.21,7.69-8.16,6.68S1988.47,126.82,1988.47,126.82Z"/><circle class="cls-5" cx="1978.39" cy="134.73" r="2.93"/><path class="cls-6" d="M1977.64,136.62l-1.45,5.24s.6,3.65,4.25,3,3.55-3.33,3.55-3.33"/><path class="cls-6" d="M1977.61,136.61l-1.76,5.14s-2.56,2.67-5.24.11-.91-4.71-.91-4.71"/><path class="cls-3" d="M1881.83,257.55c6.6,1.65,6.6,16.5-1.65,29.71s5,23.11-6.61,26.41-26.41-4.95-14.85-34.67S1881.83,257.55,1881.83,257.55Z"/><path class="cls-1" d="M1856,260.65s-14.12,5.4-18.11,18.1c-9.9,31.5,28.16,43.11,6.66,52.25-18.81,8-43.06-56,5.1-75.14Z"/><path class="cls-1" d="M1874.91,277.09s.79,15.11,11.64,22.81c26.92,19.12,49.69-13.51,51.76,9.75,1.82,20.36-66.54,23.73-69.92-28Z"/><path class="cls-1" d="M1544.14,285.34s10.51,10.88,23.75,9.57c32.86-3.25,28.62-42.82,45.45-26.63,14.74,14.17-34.62,61.58-71.12,24.78Z"/><path class="cls-1" d="M1462.05,363.3l-15,55.45s28-16.5,21.62-39.76c0,0,31.77,9.81,52.63,21.26,5.72-31.59,12.75-56,12.75-56l-28.14-.92,3.39,36.18S1486.58,371.75,1462.05,363.3Z"/><path class="cls-2" d="M1591.34,90c-16.73,9.51-73.17,76-99.17,174.39-25.78,75.59,35.25,102.82,35.7,170.75,0,0,56.53-1.83,64.13,0-27.5-22.5-42.63-16.5-42.63-16.5L1514.5,348.5A174.13,174.13,0,0,0,1532,353c5.15-31.62,19.41-72.25,29.06-97,18.65-47.74,31.63-74.52,57.71-84.87,17.15-6.82,30.66-7.3,38.67-18.92C1687.2,109.09,1630.38,67.82,1591.34,90Z"/><path class="cls-2" d="M1651.87,110.61c1.65-6.6,9.9-24.76,24.75-26.41s54.48,6.6,42.92,24.76-23.11-9.9-36.31-9.9-26.41,16.5-26.41,19.8S1651.87,110.61,1651.87,110.61Z"/><path class="cls-2" d="M1626.1,96.84c0-5,1.65-44.56,26.41-51.17s54.47-5,52.82,8.26-29.71-3.3-47.87,5-19.81,38-19.81,39.61S1626.1,96.84,1626.1,96.84Z"/><circle class="cls-3" cx="1604" cy="137.53" r="7.01"/><circle class="cls-3" cx="1645.55" cy="152" r="7.01"/><path class="cls-4" d="M1614.43,123.45l11.66,8s-5.41,5.89-10.28,2.33S1614.43,123.45,1614.43,123.45Z"/><path class="cls-4" d="M1638.47,133.82l14,1.94s-2.21,7.69-8.16,6.68S1638.47,133.82,1638.47,133.82Z"/><circle class="cls-5" cx="1628.39" cy="141.73" r="2.93"/><path class="cls-6" d="M1627.64,143.62l-1.45,5.24s.6,3.65,4.25,3,3.55-3.33,3.55-3.33"/><path class="cls-6" d="M1627.61,143.61l-1.76,5.14s-2.56,2.67-5.24.11-.91-4.71-.91-4.71"/><path class="cls-3" d="M1531.83,264.55c6.6,1.65,6.6,16.5-1.65,29.71s5,23.11-6.61,26.41-26.41-4.95-14.85-34.67S1531.83,264.55,1531.83,264.55Z"/><path class="cls-1" d="M1492.18,280.87s-9.57-11.7-22.88-11.49c-33,.52-32,40.3-47.49,22.78-13.52-15.34,39.59-58.51,72.92-18.83Z"/><path class="cls-1" d="M1196,275.58s11.71,9.58,24.71,6.73c32.26-7.07,23.41-45.87,42-31.76,16.29,12.35-27.19,65.2-67.74,32.93Z"/><path class="cls-1" d="M1073.5,395.83s15,29.84,24,33.5,38.17,0,38.17,0-35.12-2.74-41.5-26c0,0,44.4-8.09,82.24-67.59-12.34-5.83-9.07-.15-21.87-1.16C1151.17,346.5,1098.5,399.5,1073.5,395.83Z"/><path class="cls-2" d="M1241.34,83c-16.73,9.51-73.17,76-99.17,174.39C1107,343.5,1193.17,376.17,1244,433c0,0,12.69-40.2,26-64.5-31,.5-28,38-28,38s-54-49-61.77-57.52c13-31,19.11-76.78,28.77-101.49,18.65-47.74,33.69-73,59.77-83.32,17.15-6.82,30.66-7.3,38.67-18.92C1337.2,102.09,1280.38,60.82,1241.34,83Z"/><path class="cls-2" d="M1301.87,103.61c1.65-6.6,9.9-24.76,24.75-26.41s54.48,6.6,42.92,24.76-23.11-9.9-36.31-9.9-26.41,16.5-26.41,19.8S1301.87,103.61,1301.87,103.61Z"/><path class="cls-2" d="M1276.1,89.84c0-5,1.65-44.56,26.41-51.17s54.47-5,52.82,8.26-29.71-3.3-47.87,5-19.81,38-19.81,39.61S1276.1,89.84,1276.1,89.84Z"/><circle class="cls-3" cx="1254" cy="130.53" r="7.01"/><circle class="cls-3" cx="1295.55" cy="145" r="7.01"/><path class="cls-4" d="M1264.43,116.45l11.66,8s-5.41,5.89-10.28,2.33S1264.43,116.45,1264.43,116.45Z"/><path class="cls-4" d="M1288.47,126.82l14,1.94s-2.21,7.69-8.16,6.68S1288.47,126.82,1288.47,126.82Z"/><circle class="cls-5" cx="1278.39" cy="134.73" r="2.93"/><path class="cls-6" d="M1277.64,136.62l-1.45,5.24s.6,3.65,4.25,3,3.55-3.33,3.55-3.33"/><path class="cls-6" d="M1277.61,136.61l-1.76,5.14s-2.56,2.67-5.24.11-.91-4.71-.91-4.71"/><path class="cls-3" d="M1181.83,257.55c6.6,1.65,6.6,16.5-1.65,29.71s5,23.11-6.61,26.41-26.41-4.95-14.85-34.67S1181.83,257.55,1181.83,257.55Z"/><path class="cls-1" d="M1143.67,275.3s-11.27-10.09-24.38-7.84c-32.54,5.6-25.47,44.75-43.42,29.82-15.72-13.08,30.12-63.9,69.15-29.82Z"/><path class="cls-1" d="M847.52,271.55s5.43,14.12,18.14,18.08c31.52,9.84,43.05-28.24,52.23-6.77,8,18.8-55.91,43.18-75.15-4.95Z"/><path class="cls-1" d="M785.14,408s17.19,25,26.19,28.67,40,2.33,40,2.33S833,428,809,414c0,0,2-11.67,24-80.93-12.33-5.84-13-.48-25.83-1.49C803.8,343.5,797.67,384.83,785.14,408Z"/><path class="cls-2" d="M891.34,78c-16.73,9.51-73.17,76-99.17,174.39-26.3,64.39,2.85,127.92,84.27,96.26C868,365,858.38,374,849,398c0,0,34.34.62,62.1,3-23.1-13-40.63-14.18-40.63-14.18l23.86-56.55s-58.05,6.37-61.33,2.77c9.74-35.07,16.84-66.85,26.5-91.57,18.65-47.74,33.19-72,59.27-82.33,17.15-6.82,30.66-7.3,38.67-18.92C987.2,97.09,930.38,55.82,891.34,78Z"/><path class="cls-2" d="M951.87,98.61c1.65-6.6,9.9-24.76,24.75-26.41s54.48,6.6,42.92,24.76-23.11-9.9-36.31-9.9-26.41,16.5-26.41,19.8S951.87,98.61,951.87,98.61Z"/><path class="cls-2" d="M926.1,84.84c0-5,1.65-44.56,26.41-51.17s54.47-5,52.82,8.26-29.71-3.3-47.87,5-19.81,38-19.81,39.61S926.1,84.84,926.1,84.84Z"/><circle class="cls-3" cx="904" cy="125.53" r="7.01"/><circle class="cls-3" cx="945.55" cy="140" r="7.01"/><path class="cls-4" d="M914.43,111.45l11.66,8s-5.41,5.89-10.28,2.33S914.43,111.45,914.43,111.45Z"/><path class="cls-4" d="M938.47,121.82l14,1.94s-2.21,7.69-8.16,6.68S938.47,121.82,938.47,121.82Z"/><circle class="cls-5" cx="928.39" cy="129.73" r="2.93"/><path class="cls-6" d="M927.64,131.62l-1.45,5.24s.6,3.65,4.25,3,3.55-3.33,3.55-3.33"/><path class="cls-6" d="M927.61,131.61l-1.76,5.14s-2.56,2.67-5.24.11-.91-4.71-.91-4.71"/><path class="cls-3" d="M831.83,252.55c6.6,1.65,6.6,16.5-1.65,29.71s5,23.11-6.61,26.41-26.41-4.95-14.85-34.67S831.83,252.55,831.83,252.55Z"/><path class="cls-1" d="M795.79,264.64s-15-2.16-24.64,7c-24,22.68,3.58,51.37-19.64,48.87-20.33-2.18-10.32-69.88,41.07-63.13Z"/><path class="cls-1" d="M479.41,438.27l61.51-2.09S526,412.49,505.83,421.4c0,0,2.37-50-10.52-86.76-2.57.92-13.16.73-15.9,1.29C491.63,370.19,485,412.33,479.41,438.27Z"/><path class="cls-2" d="M541.34,83c-16.73,9.51-73.17,76-99.17,174.39-18,52.81-.5,85.92,61.16,129-30.33,0-29.59-4-48.79-8.46,0,0-6,60.27,5.46,65,10.56-21.33,6.67-38.67,2.67-50,45,10,69.66,0,69.66,0l-55.66-51.33s11-7.41,19.66-5.74c-2-37.2,4.18-74.79,13.84-99.51,18.65-47.73,32.52-61.9,58.6-72.25,17.15-6.82,30.66-7.3,38.67-18.92C637.2,102.09,580.38,60.82,541.34,83Z"/><path class="cls-2" d="M601.87,103.61c1.65-6.6,9.9-24.76,24.75-26.41S681.1,83.8,669.54,102s-23.11-9.9-36.31-9.9-26.41,16.5-26.41,19.8S601.87,103.61,601.87,103.61Z"/><path class="cls-2" d="M576.1,89.84c0-5,1.65-44.56,26.41-51.17s54.47-5,52.82,8.26-29.71-3.3-47.87,5-19.81,38-19.81,39.61S576.1,89.84,576.1,89.84Z"/><circle class="cls-3" cx="554" cy="130.53" r="7.01"/><circle class="cls-3" cx="595.55" cy="145" r="7.01"/><path class="cls-4" d="M564.43,116.45l11.66,8s-5.41,5.89-10.28,2.33S564.43,116.45,564.43,116.45Z"/><path class="cls-4" d="M588.47,126.82l14,1.94s-2.21,7.69-8.16,6.68S588.47,126.82,588.47,126.82Z"/><circle class="cls-5" cx="578.39" cy="134.73" r="2.93"/><path class="cls-6" d="M577.64,136.62l-1.45,5.24s.6,3.65,4.25,3,3.55-3.33,3.55-3.33"/><path class="cls-6" d="M577.61,136.61l-1.76,5.14s-2.56,2.67-5.24.11-.91-4.71-.91-4.71"/><path class="cls-3" d="M481.83,257.55c6.6,1.65,6.6,16.5-1.65,29.71s4.95,23.11-6.61,26.41-26.41-4.95-14.85-34.67S481.83,257.55,481.83,257.55Z"/><path class="cls-1" d="M448.56,267s-14.66,3.73-20.09,15.88C415,313,451.45,329,429,335.57c-19.61,5.77-36.29-60.61,13.77-74Z"/><path class="cls-1" d="M129.41,438.27l61.51-2.09S176,412.49,155.83,421.4c0,0,23.67-25.4,17.23-44.27-6.59-19.29-15.68-28.49-25.75-36.49-2.57.92-13.16.73-15.9,1.29,6.11,17.13,26.25,26.9,25.42,45S140.67,426.33,129.41,438.27Z"/><path class="cls-2" d="M191.34,94c-16.73,9.51-67,55-93,153.39-14.6,40.14-31,87.92,16.35,139.26-11.84,28.53-25.34-24-50.8-29,0,0-16.64,69.6-5.2,74.33,10.66-10,20-42,16-53.33,24.66,36,35.18,43.18,35.18,43.18l13.34-43s26.15-30.07,34.82-28.4c-19-33.22-15.91-67.75-6.25-92.47,18.65-47.74,40.93-72.48,67-82.83,17.15-6.82,30.66-7.3,38.67-18.92C287.2,113.09,230.38,71.82,191.34,94Z"/><path id="Oere2" class="cls-2" d="M251.87,114.61c1.65-6.6,9.9-24.76,24.75-26.41S331.1,94.8,319.54,113s-23.11-9.9-36.31-9.9-26.41,16.5-26.41,19.8S251.87,114.61,251.87,114.61Z"/><path id="oere" class="cls-2" d="M226.1,100.84c0-5,1.65-44.56,26.41-51.17s54.47-5,52.82,8.26-29.71-3.3-47.87,5-19.81,38-19.81,39.61S226.1,100.84,226.1,100.84Z"/><g id="ansigt"><circle class="cls-3" cx="204" cy="141.53" r="7.01"/><circle class="cls-3" cx="245.55" cy="156" r="7.01"/><path class="cls-4" d="M214.43,127.45l11.66,8s-5.41,5.89-10.28,2.33S214.43,127.45,214.43,127.45Z"/><path class="cls-4" d="M238.47,137.82l14,1.94s-2.21,7.69-8.16,6.68S238.47,137.82,238.47,137.82Z"/><circle class="cls-5" cx="228.39" cy="145.73" r="2.93"/><path class="cls-6" d="M227.64,147.62l-1.45,5.24s.6,3.65,4.25,3,3.55-3.33,3.55-3.33"/><path class="cls-6" d="M227.61,147.61l-1.76,5.14s-2.56,2.67-5.24.11-.91-4.71-.91-4.71"/></g><path id="mave" class="cls-3" d="M131.83,268.55c6.6,1.65,6.6,16.5-1.65,29.71s4.95,23.11-6.61,26.41S97.16,319.72,108.72,290,131.83,268.55,131.83,268.55Z"/><path id="arm" class="cls-1" d="M102.56,270.36s-9.08,12.1-5.69,25c8.39,31.93,46.79,21.49,33.46,40.68-11.66,16.79-66.27-24.47-35.7-66.32Z"/></svg>