<svg xmlns="http://www.w3.org/2000/svg" viewBox="0 0 394.95 410.1"><defs><style>.cls-1{fill:#754c24;}.cls-2{fill:#7c482e;}.cls-3{fill:#3f2013;}</style></defs><title>agaern-bunke</title><g id="Layer_2" data-name="Layer 2"><g id="Layer_2-2" data-name="Layer 2"><path class="cls-1" d="M26.55,297.88c1.1-7.84-39-27.85,14-58.57-6.13-6.35-22.84-9.78,9.63-22,.2-4.88-19.32-10.75,16.15-25.37-.32-6.35.17-32.22,32.23-34.64-4.16-11.72-48.69-17.12,3.18-34.66-.32-6.34-32.51-15.15,4-26.84-18.16,3.4-27.94-13.2,8.9-18.55-2.6-7.32-26.89-10.27.8-19.52-.32-6.35-6.57-23.93,14.2-20s14-15.12,33.19-15.59,22.28-19,50-.94c13-18.06,28.54-1.45,29.58,1.48S236.74,6.6,258,12s32.19,8.81,23.69,17.59C290.32,32,304.23,33,302.07,43.26s26.37,8.8,14.86,20,24.29,3,8.34,23.44c3.32,3.91,24.2,19.06,11.66,27.35.32,6.34,11.22,9.77,4.48,18.06s11.75,11.24,1,19c4.37,6.84,12.47,7.82,9.26,15.14s14.23,7.33,8,17.09,17.56,11.24,4.09,27.83,17.95,1.48,7.29,20.51,11.54,16.12,5.33,25.88,13.9,1,7.49,15.62S370,299.59,361,290.8c-6.74,8.3-26.94,33.18-53.43,13.14-6.74,8.3-1.53,22.95-30.91,16.58-18.36,8.28-33.51,9.25-31.86-2.47-7.78,5.37-30.91,16.58-44.21.95-6,4.88-27.38,15.6-28.54,1.44-15.35,5.85-44.29,17.06-40-3.44-10.78,7.8-31.23,10.22-35.39-1.49-8.82,2.43-28.94,11.2-38.2-3.94C52.52,316.45,23.26,321.31,26.55,297.88Z"/><path class="cls-2" d="M40.78,316c-7.7.9-18.14-7.8-9.14-19.51s21.92-7,29.23,3.71S58.39,313.92,40.78,316Z"/><path class="cls-3" d="M35.13,316.47c2.16.53,8.28-17.92,7.41-27.21s-10.91,3.51-13.94,7.41c-.45-1.28-7.94-3.45-9.43,0s3.58,3.52,3.58,3.52,6.82-.37,6,1.36S24.81,313.94,35.13,316.47Z"/><path class="cls-2" d="M158.25,306.36c-7.7.89-18.14-7.81-9.14-19.52s21.92-7,29.23,3.71S175.86,304.31,158.25,306.36Z"/><path class="cls-3" d="M152.6,306.86c2.16.53,8.28-17.92,7.41-27.21s-10.91,3.52-13.94,7.42c-.45-1.29-7.94-3.46-9.43,0s3.58,3.52,3.58,3.52,6.82-.37,6,1.36S142.28,304.33,152.6,306.86Z"/><path class="cls-2" d="M91.18,379.27c-7.7.9-18.14-7.8-9.13-19.51s21.92-7,29.23,3.71S108.8,377.23,91.18,379.27Z"/><path class="cls-3" d="M85.54,379.78c2.16.53,8.27-17.92,7.41-27.21S82,356.08,79,360c-.44-1.28-7.94-3.45-9.43,0s3.58,3.52,3.58,3.52,6.82-.37,6,1.36S75.22,377.25,85.54,379.78Z"/><path class="cls-2" d="M72.84,283.51c-7.7.9-18.14-7.8-9.14-19.51s21.93-7,29.24,3.71S90.46,281.47,72.84,283.51Z"/><path class="cls-3" d="M67.2,284c2.15.53,8.27-17.92,7.41-27.21s-10.92,3.51-14,7.41c-.44-1.28-7.94-3.45-9.43,0s3.58,3.51,3.58,3.51,6.82-.36,6,1.37S56.88,281.49,67.2,284Z"/><path class="cls-2" d="M101.1,113.68c-7.7.9-18.14-7.81-9.13-19.51s21.92-7,29.23,3.7S118.72,111.63,101.1,113.68Z"/><path class="cls-3" d="M95.46,114.19c2.16.53,8.28-17.92,7.41-27.21s-10.92,3.51-14,7.41c-.44-1.28-7.94-3.45-9.43,0s3.58,3.51,3.58,3.51,6.82-.37,6,1.37S85.14,111.66,95.46,114.19Z"/><path class="cls-2" d="M98.07,83.83c-7.22-2.15-11.59-14,2.66-21.16s23,2.08,23.52,14.59S114.58,88.75,98.07,83.83Z"/><path class="cls-3" d="M92.86,82.12c1.59,1.31,17-13,21.31-21.76s-11.45-1-16.22,1.34c.31-1.33-5.06-6.18-8.26-3.6s1.21,4.56,1.21,4.56,6.16,2.28,4.48,3.52S85.22,75.87,92.86,82.12Z"/><path class="cls-2" d="M257.19,374.34c-7.7.9-18.14-7.81-9.14-19.52s21.93-7,29.24,3.71S274.81,372.29,257.19,374.34Z"/><path class="cls-3" d="M251.55,374.85c2.15.53,8.27-17.92,7.41-27.21S248,351.15,245,355.05c-.44-1.28-7.94-3.45-9.43,0s3.58,3.51,3.58,3.51,6.82-.37,6,1.37S241.23,372.32,251.55,374.85Z"/><path class="cls-2" d="M85.41,240.53c-7.7.9-18.15-7.8-9.14-19.51s21.92-7,29.23,3.7S103,238.49,85.41,240.53Z"/><path class="cls-3" d="M79.76,241c2.16.53,8.28-17.92,7.41-27.21s-10.92,3.51-13.94,7.41c-.45-1.28-8-3.45-9.43,0s3.58,3.51,3.58,3.51,6.81-.36,6,1.37S69.44,238.51,79.76,241Z"/><path class="cls-2" d="M164.21,38.05c-7.7.89-18.14-7.81-9.14-19.52s21.93-7,29.24,3.71S181.83,36,164.21,38.05Z"/><path class="cls-3" d="M158.57,38.55c2.15.53,8.27-17.92,7.41-27.21S155.06,14.85,152,18.75c-.44-1.28-7.94-3.45-9.43,0s3.58,3.52,3.58,3.52,6.82-.37,6,1.36S148.25,36,158.57,38.55Z"/><path class="cls-2" d="M286.29,354.9c-1.16-6.39,9.06-15.85,23.12-9.24s8.63,17.83-4,24.83S289,369.52,286.29,354.9Z"/><path class="cls-3" d="M285.61,350.21c-.6,1.85,21.45,5.5,32.5,4s-4.32-8.88-9-11.11c1.52-.48,4-6.94-.15-7.91s-4.14,3.29-4.14,3.29.53,5.69-1.55,5.12S288.5,341.35,285.61,350.21Z"/><path class="cls-2" d="M321.72,221.53c-1.17-6.39,9.06-15.85,23.12-9.23s8.63,17.83-4,24.82S324.39,236.15,321.72,221.53Z"/><path class="cls-3" d="M321,216.84c-.6,1.85,21.45,5.5,32.49,4s-4.32-8.88-9-11.11c1.52-.47,4-6.94-.16-7.91s-4.13,3.29-4.13,3.29.53,5.69-1.55,5.12S323.92,208,321,216.84Z"/><path class="cls-2" d="M56.45,194.11c-1.16-6.39,9.06-15.85,23.12-9.24s8.63,17.83-4,24.82S59.12,208.72,56.45,194.11Z"/><path class="cls-3" d="M55.77,189.41c-.6,1.85,21.45,5.5,32.5,4s-4.32-8.88-9-11.1c1.52-.48,4-7-.15-7.91S75,177.71,75,177.71s.53,5.69-1.55,5.12S58.66,180.55,55.77,189.41Z"/><path class="cls-2" d="M77.83,127.07c-1.16-6.39,9.06-15.84,23.12-9.23s8.63,17.83-4,24.82S80.5,141.69,77.83,127.07Z"/><path class="cls-3" d="M77.15,122.38c-.6,1.85,21.45,5.5,32.5,4s-4.32-8.88-9-11.11c1.52-.47,4-6.94-.15-7.91s-4.14,3.29-4.14,3.29.53,5.69-1.55,5.12S80,113.52,77.15,122.38Z"/><path class="cls-2" d="M180.48,19.82c-1.17-6.39,9.06-15.85,23.12-9.23s8.63,17.83-4,24.82S183.15,34.44,180.48,19.82Z"/><path class="cls-3" d="M179.8,15.13c-.6,1.85,21.45,5.5,32.49,4s-4.32-8.88-9-11.11c1.52-.47,4-6.94-.15-7.91S199,3.43,199,3.43s.53,5.69-1.55,5.12S182.68,6.27,179.8,15.13Z"/><path class="cls-2" d="M265.43,26c-.84-4.63,6.57-11.49,16.76-6.7s6.26,12.93-2.92,18S267.37,36.6,265.43,26Z"/><path class="cls-3" d="M264.94,22.6c-.44,1.35,15.55,4,23.56,2.92s-3.14-6.43-6.53-8c1.1-.34,2.91-5-.11-5.73s-3,2.38-3,2.38.38,4.13-1.12,3.71S267,16.18,264.94,22.6Z"/><path class="cls-2" d="M340.38,340.28c6.52-3.69,20.67,0,18.76,13.69S343,368.41,330.6,361.75,325.48,348.74,340.38,340.28Z"/><path class="cls-3" d="M345.24,337.71c-2.24.35,2.08,18.86,7.85,26.69s8-7.21,8.7-11.77c1.09.95,9.06,0,8.55-3.59s-5.14-1.73-5.14-1.73-6,2.9-6.15,1.05S356,336,345.24,337.71Z"/><path class="cls-2" d="M219.43,118.27c-1.17-6.39,9.06-15.85,23.12-9.24s8.63,17.83-4,24.83S222.09,132.88,219.43,118.27Z"/><path class="cls-3" d="M218.75,113.57c-.61,1.86,21.44,5.51,32.49,4s-4.32-8.87-9-11.1c1.51-.48,4-6.94-.16-7.91s-4.14,3.29-4.14,3.29.53,5.69-1.54,5.11S221.63,104.71,218.75,113.57Z"/><path class="cls-2" d="M273.52,103.65c6.51-3.69,20.66,0,18.76,13.69s-16.16,14.43-28.55,7.78S258.61,112.1,273.52,103.65Z"/><path class="cls-3" d="M278.37,101.08c-2.24.35,2.09,18.86,7.85,26.69s8-7.21,8.7-11.78c1.09,1,9.06,0,8.55-3.58s-5.13-1.73-5.13-1.73-6,2.89-6.16,1S289.1,99.4,278.37,101.08Z"/><path class="cls-2" d="M96.64,222.44c-7.7.9-18.15-7.8-9.14-19.51s21.92-7,29.23,3.7S114.25,220.39,96.64,222.44Z"/><path class="cls-3" d="M91,223c2.16.53,8.28-17.92,7.41-27.21s-10.92,3.51-13.94,7.41c-.45-1.28-7.95-3.45-9.43,0s3.58,3.51,3.58,3.51,6.81-.37,6,1.37S80.67,220.42,91,223Z"/><path class="cls-2" d="M125.74,203c-1.17-6.39,9.06-15.85,23.12-9.23s8.63,17.83-4,24.82S128.41,217.62,125.74,203Z"/><path class="cls-3" d="M125.06,198.31c-.6,1.85,21.44,5.5,32.49,4s-4.32-8.88-9-11.11c1.52-.47,4-6.94-.16-7.91s-4.13,3.29-4.13,3.29.52,5.69-1.55,5.12S127.94,189.45,125.06,198.31Z"/><path class="cls-2" d="M179.83,188.39c6.52-3.7,20.66,0,18.76,13.68s-16.16,14.44-28.55,7.79S164.92,196.84,179.83,188.39Z"/><path class="cls-3" d="M184.68,185.81c-2.24.35,2.09,18.86,7.85,26.69s8-7.2,8.7-11.77c1.09,1,9.07,0,8.55-3.59s-5.13-1.73-5.13-1.73-6,2.9-6.16,1.06S195.42,184.14,184.68,185.81Z"/><path class="cls-2" d="M172.79,110.18c-1-6.42,9.54-15.66,23.38-8.74s8.07,18-4.79,24.75S175,124.86,172.79,110.18Z"/><path class="cls-3" d="M172.26,105.47c-.66,1.84,21.25,6,32.33,4.73s-4-9-8.65-11.3c1.53-.45,4.22-6.86.08-7.92s-4.23,3.2-4.23,3.2.36,5.7-1.7,5.08S175.41,96.67,172.26,105.47Z"/><path class="cls-2" d="M195.59,133.55c7.63-1.33,18.77,6.74,10.71,18.91s-21.35,8.23-29.53-2S178.14,136.59,195.59,133.55Z"/><path class="cls-3" d="M201.2,132.73c-2.2-.41-6.83,18.3-5.22,27.5s10.63-4.11,13.35-8.17c.55,1.25,8.22,3,9.43-.56s-3.87-3.29-3.87-3.29-6.79.75-6.08-1S211.72,134.66,201.2,132.73Z"/><path class="cls-2" d="M212.32,178.17c4.32,5.27-.27,17.36-16.55,16.51s-17-12.78-8.91-23.55S202.44,166.12,212.32,178.17Z"/><path class="cls-3" d="M215.33,182.11c-.39-1.86-22.5,2.78-31.91,8s8.49,6.35,13.92,6.66c-1.15,1-.15,7.62,4.17,7s2.13-4.41,2.13-4.41-3.38-4.88-1.18-5.11S217.19,191,215.33,182.11Z"/><path class="cls-2" d="M328.81,212.16c1.4,6.35-8.48,16.06-22.79,9.82s-9.29-17.58,3.13-24.89S325.61,197.63,328.81,212.16Z"/><path class="cls-3" d="M329.66,216.83c.54-1.87-21.65-4.94-32.65-3.19s4.64,8.75,9.41,10.86c-1.5.51-3.76,7,.45,7.89s4-3.39,4-3.39-.73-5.66,1.37-5.15S327.11,225.75,329.66,216.83Z"/><path class="cls-2" d="M304.44,190c-7.54,1.68-19.23-5.83-12-18.34s20.82-9.21,29.68.63S321.69,186.09,304.44,190Z"/><path class="cls-3" d="M298.89,191c2.23.29,5.6-18.57,3.37-27.66s-10.36,4.6-12.8,8.77c-.64-1.22-8.43-2.59-9.4,1s4.09,3.1,4.09,3.1,6.74-1.08,6.15.73S288.23,189.61,298.89,191Z"/><path class="cls-2" d="M284.71,146.27c-4.68-5-.89-17.3,15.45-17.22s17.86,11.93,10.49,23S295.4,157.82,284.71,146.27Z"/><path class="cls-3" d="M281.43,142.49c.52,1.84,22.33-3.84,31.38-9.53s-8.91-5.93-14.37-6c1.09-1-.35-7.59-4.63-6.76s-1.84,4.49-1.84,4.49,3.71,4.7,1.53,5S279,133.69,281.43,142.49Z"/><path class="cls-2" d="M191.8,114.35c-7.7.9-18.14-7.8-9.13-19.51s21.92-7,29.23,3.71S209.42,112.31,191.8,114.35Z"/><path class="cls-3" d="M186.16,114.86c2.16.53,8.28-17.92,7.41-27.21s-10.92,3.51-13.95,7.41c-.44-1.28-7.94-3.45-9.43,0s3.58,3.52,3.58,3.52,6.82-.37,6,1.36S175.84,112.33,186.16,114.86Z"/><path class="cls-2" d="M220.91,94.91C219.74,88.52,230,79.07,244,85.68s8.63,17.83-4,24.82S223.57,109.53,220.91,94.91Z"/><path class="cls-3" d="M220.23,90.22c-.6,1.85,21.44,5.5,32.49,4s-4.32-8.88-9-11.11c1.52-.47,4-6.94-.16-7.91s-4.14,3.29-4.14,3.29.53,5.69-1.54,5.12S223.11,81.36,220.23,90.22Z"/><path class="cls-2" d="M275,80.3c6.51-3.7,20.66,0,18.76,13.69s-16.16,14.43-28.55,7.78S260.09,88.75,275,80.3Z"/><path class="cls-3" d="M279.85,77.72c-2.24.35,2.09,18.86,7.85,26.69s8-7.2,8.7-11.77c1.09,1,9.07,0,8.55-3.59s-5.13-1.73-5.13-1.73-6,2.9-6.16,1.06S290.58,76.05,279.85,77.72Z"/><path class="cls-2" d="M125.38,213.52c-7.7.9-18.14-7.81-9.13-19.51s21.92-7,29.23,3.7S143,211.47,125.38,213.52Z"/><path class="cls-3" d="M119.74,214c2.16.53,8.28-17.92,7.41-27.21s-10.92,3.51-14,7.41c-.44-1.28-7.94-3.45-9.43,0s3.58,3.51,3.58,3.51,6.82-.37,6,1.37S109.42,211.5,119.74,214Z"/><path class="cls-2" d="M154.49,194.08c-1.17-6.39,9.06-15.85,23.12-9.23s8.63,17.83-4,24.82S157.15,208.7,154.49,194.08Z"/><path class="cls-3" d="M153.81,189.39c-.6,1.85,21.44,5.5,32.49,4s-4.32-8.88-9-11.11c1.52-.47,4-6.94-.16-7.91s-4.14,3.29-4.14,3.29.53,5.69-1.54,5.12S156.69,180.53,153.81,189.39Z"/><path class="cls-2" d="M208.58,179.47c6.51-3.7,20.66,0,18.76,13.68s-16.16,14.44-28.55,7.78S193.67,187.92,208.58,179.47Z"/><path class="cls-3" d="M213.43,176.89c-2.24.35,2.09,18.86,7.85,26.69s8-7.21,8.7-11.77c1.09.95,9.07,0,8.55-3.59s-5.13-1.73-5.13-1.73-6,2.9-6.16,1S224.16,175.22,213.43,176.89Z"/><path class="cls-2" d="M197.1,92.18c-7.7.9-18.14-7.8-9.14-19.51s21.92-7,29.23,3.71S214.72,90.14,197.1,92.18Z"/><path class="cls-3" d="M191.45,92.69c2.16.53,8.28-17.92,7.41-27.21S188,69,184.92,72.89c-.45-1.28-7.94-3.45-9.43,0s3.58,3.52,3.58,3.52,6.82-.37,6,1.36S181.14,90.16,191.45,92.69Z"/><path class="cls-2" d="M226.2,72.74c-1.17-6.39,9.06-15.84,23.12-9.23s8.63,17.83-4,24.82S228.87,87.36,226.2,72.74Z"/><path class="cls-3" d="M225.52,68.05c-.6,1.85,21.45,5.5,32.5,4S253.69,63.2,249,61c1.52-.47,4-6.94-.15-7.91s-4.14,3.29-4.14,3.29.53,5.69-1.55,5.12S228.4,59.19,225.52,68.05Z"/><path class="cls-2" d="M280.29,58.13c6.52-3.7,20.67,0,18.76,13.69s-16.16,14.43-28.54,7.78S265.39,66.58,280.29,58.13Z"/><path class="cls-3" d="M285.15,55.55c-2.25.35,2.08,18.86,7.84,26.69s8-7.2,8.7-11.77c1.09,1,9.07,0,8.55-3.59s-5.13-1.73-5.13-1.73-6,2.9-6.15,1.06S295.88,53.88,285.15,55.55Z"/><path class="cls-2" d="M325.48,261.22c6.51-3.69,20.66,0,18.76,13.69s-16.17,14.43-28.55,7.78S310.57,269.67,325.48,261.22Z"/><path class="cls-3" d="M330.33,258.65c-2.24.34,2.09,18.86,7.85,26.69s8-7.21,8.7-11.78c1.09,1,9.06,0,8.55-3.58s-5.14-1.73-5.14-1.73-6,2.89-6.15,1.05S341.06,257,330.33,258.65Z"/><path class="cls-2" d="M214.78,297.89c-7.7.9-18.14-7.81-9.13-19.52s21.92-7,29.23,3.71S232.4,295.84,214.78,297.89Z"/><path class="cls-3" d="M209.14,298.4c2.16.53,8.28-17.92,7.41-27.21s-10.92,3.51-14,7.41c-.44-1.28-7.94-3.45-9.42,0s3.57,3.51,3.57,3.51,6.82-.37,6,1.37S198.82,295.87,209.14,298.4Z"/><path class="cls-2" d="M243.89,278.45c-1.17-6.39,9.06-15.85,23.12-9.24S275.64,287,263,294,246.56,293.07,243.89,278.45Z"/><path class="cls-3" d="M243.21,273.76c-.6,1.85,21.44,5.5,32.49,4s-4.32-8.87-9-11.1c1.52-.48,4-6.94-.16-7.91s-4.13,3.29-4.13,3.29.52,5.69-1.55,5.11S246.09,264.89,243.21,273.76Z"/><path class="cls-2" d="M298,263.83c6.51-3.69,20.66,0,18.76,13.69S300.58,292,288.19,285.3,283.07,272.28,298,263.83Z"/><path class="cls-3" d="M302.83,261.26c-2.24.35,2.09,18.86,7.85,26.69s8-7.21,8.7-11.77c1.09.95,9.07,0,8.55-3.59s-5.13-1.73-5.13-1.73-6,2.9-6.16,1.05S313.56,259.59,302.83,261.26Z"/><path class="cls-2" d="M260.06,273.63c6.52-3.7,20.67,0,18.76,13.68s-16.16,14.44-28.54,7.78S245.16,282.08,260.06,273.63Z"/><path class="cls-3" d="M264.92,271.05c-2.24.35,2.08,18.86,7.85,26.69s8-7.21,8.7-11.77c1.09.95,9.06,0,8.55-3.59s-5.14-1.73-5.14-1.73-6,2.9-6.15,1.05S275.65,269.38,264.92,271.05Z"/><path class="cls-2" d="M43.8,216.78c6.51-3.69,20.66,0,18.76,13.69S46.4,244.9,34,238.25,28.89,225.23,43.8,216.78Z"/><path class="cls-3" d="M48.65,214.21c-2.24.34,2.09,18.86,7.85,26.69s8-7.21,8.7-11.78c1.09,1,9.06,0,8.55-3.58s-5.13-1.73-5.13-1.73-6,2.89-6.16,1.05S59.38,212.53,48.65,214.21Z"/><path class="cls-2" d="M97.45,139c6.51-3.7,20.66,0,18.75,13.69S100,167.07,87.66,160.42,82.54,147.4,97.45,139Z"/><path class="cls-3" d="M102.3,136.37c-2.24.35,2.09,18.86,7.85,26.69s8-7.2,8.7-11.77c1.09,1,9.06,0,8.55-3.59s-5.14-1.73-5.14-1.73-6,2.9-6.15,1.06S113,134.7,102.3,136.37Z"/><path class="cls-2" d="M136.45,23.81c6.52-3.69,20.67,0,18.76,13.69s-16.16,14.43-28.54,7.78S121.55,32.26,136.45,23.81Z"/><path class="cls-3" d="M141.31,21.23c-2.24.35,2.08,18.86,7.85,26.69s8-7.2,8.69-11.77c1.09,1,9.07,0,8.56-3.58s-5.14-1.74-5.14-1.74-6,2.9-6.15,1.06S152,19.56,141.31,21.23Z"/><path class="cls-2" d="M252.46,5c7.16-4.06,22.69,0,20.6,15s-17.75,15.85-31.34,8.55S236.09,14.25,252.46,5Z"/><path class="cls-3" d="M257.79,2.14c-2.46.38,2.29,20.71,8.62,29.31s8.82-7.91,9.55-12.93c1.2,1.05,10,0,9.39-3.93s-5.64-1.91-5.64-1.91-6.58,3.19-6.76,1.16S269.57.31,257.79,2.14Z"/><path class="cls-2" d="M307.79,289.21c6.51-3.69,20.66,0,18.76,13.69s-16.16,14.43-28.55,7.78S292.88,297.66,307.79,289.21Z"/><path class="cls-3" d="M312.64,286.64c-2.24.34,2.09,18.86,7.85,26.69s8-7.21,8.7-11.78c1.09,1,9.07,0,8.55-3.58s-5.13-1.73-5.13-1.73-6,2.89-6.16,1.05S323.37,285,312.64,286.64Z"/><path class="cls-2" d="M374.1,377.83c7.52,1.33,13.74,12.58.66,21.19s-23.21.48-25.7-11.8S356.89,374.8,374.1,377.83Z"/><path class="cls-3" d="M379.55,379c-1.79-1.12-14.89,14.73-17.82,23.83s11.57-.26,15.95-3.12c-.1,1.35,6,5.54,8.79,2.64s-1.92-4.36-1.92-4.36-6.49-1.57-5-3S388.13,384.28,379.55,379Z"/><path class="cls-2" d="M152.67,247.19c7.52,1.33,13.74,12.58.67,21.19s-23.21.48-25.71-11.8S135.46,244.16,152.67,247.19Z"/><path class="cls-3" d="M158.12,248.31c-1.79-1.12-14.89,14.73-17.81,23.83s11.56-.26,15.95-3.12c-.1,1.35,6,5.54,8.78,2.64s-1.92-4.36-1.92-4.36-6.49-1.57-5-3S166.71,253.64,158.12,248.31Z"/><path class="cls-2" d="M314.31,196.25c7.52,1.32,13.74,12.57.66,21.18s-23.21.48-25.7-11.8S297.1,193.22,314.31,196.25Z"/><path class="cls-3" d="M319.76,197.36C318,196.24,304.87,212.1,302,221.19s11.56-.26,15.94-3.11c-.1,1.34,6,5.53,8.79,2.64s-1.92-4.37-1.92-4.37-6.49-1.57-5-3S328.34,202.69,319.76,197.36Z"/><path class="cls-2" d="M280.19,109.72c7.53,1.33,13.74,12.57.67,21.19s-23.21.47-25.71-11.81S263,106.69,280.19,109.72Z"/><path class="cls-3" d="M285.65,110.83c-1.8-1.11-14.89,14.74-17.82,23.84s11.57-.26,15.95-3.12c-.1,1.35,6,5.54,8.78,2.64s-1.92-4.36-1.92-4.36-6.49-1.58-5-3S294.23,116.17,285.65,110.83Z"/><path class="cls-2" d="M102.88,248.83c7.53,1.32,13.74,12.57.67,21.18s-23.21.48-25.71-11.8S85.67,245.8,102.88,248.83Z"/><path class="cls-3" d="M108.34,249.94c-1.8-1.11-14.89,14.74-17.82,23.83s11.57-.26,16-3.11c-.1,1.34,6,5.53,8.78,2.64s-1.92-4.36-1.92-4.36-6.49-1.58-5-3S116.92,255.27,108.34,249.94Z"/><path class="cls-2" d="M168.77,66.14c7.52,1.32,13.74,12.57.66,21.18s-23.2.48-25.7-11.8S151.56,63.11,168.77,66.14Z"/><path class="cls-3" d="M174.22,67.25c-1.79-1.12-14.89,14.74-17.81,23.83s11.56-.26,16-3.11c-.1,1.34,6,5.53,8.78,2.64s-1.92-4.36-1.92-4.36-6.49-1.58-5-3S182.81,72.58,174.22,67.25Z"/><path class="cls-2" d="M70.29,197.75c7.52,1.33,13.74,12.58.66,21.19s-23.21.48-25.7-11.8S53.08,194.72,70.29,197.75Z"/><path class="cls-3" d="M75.74,198.87C74,197.75,60.85,213.6,57.92,222.7s11.57-.26,16-3.12c-.1,1.35,6,5.54,8.79,2.64s-1.92-4.36-1.92-4.36-6.5-1.57-5-3S84.32,204.2,75.74,198.87Z"/><path class="cls-2" d="M233.19,4.3c7.52,1.33,13.74,12.58.66,21.19s-23.21.48-25.7-11.81S216,1.27,233.19,4.3Z"/><path class="cls-3" d="M238.64,5.42c-1.79-1.12-14.89,14.73-17.82,23.83s11.57-.26,16-3.12c-.1,1.35,6,5.54,8.79,2.64s-1.92-4.36-1.92-4.36-6.5-1.58-5-3S247.22,10.75,238.64,5.42Z"/><path class="cls-2" d="M301.28,39.62C308.8,41,315,52.19,302,60.81s-23.21.48-25.71-11.81S284.07,36.59,301.28,39.62Z"/><path class="cls-3" d="M306.74,40.73c-1.8-1.11-14.9,14.74-17.82,23.84s11.56-.26,15.95-3.12c-.1,1.35,6,5.54,8.78,2.64s-1.92-4.36-1.92-4.36-6.49-1.58-5-3S315.32,46.07,306.74,40.73Z"/><path class="cls-2" d="M325.61,62.07c7.52,1.33,13.74,12.58.67,21.19s-23.21.48-25.71-11.8S308.4,59,325.61,62.07Z"/><path class="cls-3" d="M331.06,63.19c-1.79-1.12-14.89,14.73-17.81,23.83s11.56-.26,15.95-3.12c-.1,1.35,6,5.54,8.78,2.64s-1.92-4.36-1.92-4.36-6.49-1.57-5-3S339.65,68.52,331.06,63.19Z"/><path class="cls-2" d="M342.67,105.34c7.52,1.32,13.74,12.57.66,21.18s-23.21.48-25.7-11.8S325.46,102.31,342.67,105.34Z"/><path class="cls-3" d="M348.12,106.45c-1.79-1.12-14.89,14.74-17.81,23.83s11.56-.26,15.94-3.11c-.1,1.34,6,5.53,8.79,2.64s-1.92-4.37-1.92-4.37-6.49-1.57-5-3S356.7,111.78,348.12,106.45Z"/><path class="cls-2" d="M366.45,180.46c7.52,1.33,13.74,12.57.66,21.18s-23.2.48-25.7-11.8S349.24,177.43,366.45,180.46Z"/><path class="cls-3" d="M371.9,181.57c-1.79-1.11-14.89,14.74-17.81,23.84s11.56-.26,16-3.12c-.1,1.34,6,5.54,8.78,2.64s-1.92-4.36-1.92-4.36-6.49-1.58-5-3S380.49,186.91,371.9,181.57Z"/><path class="cls-2" d="M377.78,241.29c7.52,1.33,13.74,12.57.66,21.18s-23.21.48-25.7-11.8S360.57,238.26,377.78,241.29Z"/><path class="cls-3" d="M383.23,242.4c-1.79-1.11-14.89,14.74-17.82,23.84s11.57-.26,15.95-3.12c-.1,1.35,6,5.54,8.79,2.64s-1.92-4.36-1.92-4.36-6.5-1.58-5-3S391.81,247.74,383.23,242.4Z"/><path class="cls-2" d="M46.43,238.71C54,240,60.17,251.28,47.1,259.9s-23.21.47-25.71-11.81S29.22,235.68,46.43,238.71Z"/><path class="cls-3" d="M51.88,239.82c-1.79-1.11-14.89,14.74-17.81,23.84s11.56-.26,16-3.12c-.1,1.35,6,5.54,8.78,2.64s-1.92-4.36-1.92-4.36-6.49-1.58-5-3S60.47,245.16,51.88,239.82Z"/><path class="cls-2" d="M29.47,274.37c7.52,1.33,13.74,12.57.66,21.18s-23.2.48-25.7-11.8S12.26,271.34,29.47,274.37Z"/><path class="cls-3" d="M34.92,275.48c-1.79-1.11-14.89,14.74-17.81,23.84s11.56-.26,16-3.12c-.1,1.35,6,5.54,8.78,2.64s-1.92-4.36-1.92-4.36-6.49-1.58-5-3S43.51,280.82,34.92,275.48Z"/><path class="cls-2" d="M366,273.36c7.53,1.33,13.74,12.57.67,21.18s-23.21.48-25.71-11.8S348.81,270.33,366,273.36Z"/><path class="cls-3" d="M371.48,274.47c-1.8-1.11-14.89,14.74-17.82,23.84s11.57-.26,15.95-3.12c-.1,1.34,6,5.54,8.78,2.64s-1.92-4.36-1.92-4.36-6.49-1.58-5-3S380.06,279.8,371.48,274.47Z"/><path class="cls-2" d="M347.32,290.61c7.52,1.33,13.74,12.58.66,21.19s-23.21.48-25.7-11.8S330.1,287.58,347.32,290.61Z"/><path class="cls-3" d="M352.77,291.73c-1.79-1.12-14.89,14.73-17.82,23.83s11.57-.26,15.95-3.12c-.1,1.35,6,5.54,8.78,2.64s-1.91-4.36-1.91-4.36-6.5-1.57-5-3S361.35,297.06,352.77,291.73Z"/><path class="cls-2" d="M311.84,398.35c-1.88,6.36-15.54,11.89-25.28,1.14s.36-19.48,15.1-21.91S316.14,383.81,311.84,398.35Z"/><path class="cls-3" d="M310.29,403c1.4-1.53-17-12.1-27.69-14.31s-.16,9.71,3.08,13.31c-1.6,0-6.85,5.19-3.5,7.45s5.27-1.73,5.27-1.73,2.14-5.5,3.76-4.29S303.59,410.32,310.29,403Z"/><path class="cls-2" d="M301.68,219.11c7.52,1.33,13.74,12.58.67,21.19s-23.21.48-25.71-11.81S284.47,216.08,301.68,219.11Z"/><path class="cls-3" d="M307.13,220.23c-1.79-1.12-14.89,14.73-17.81,23.83s11.56-.26,15.95-3.12c-.1,1.35,6,5.54,8.78,2.64s-1.92-4.36-1.92-4.36-6.49-1.58-5-3S315.72,225.56,307.13,220.23Z"/><path class="cls-2" d="M239.42,239.63c-1.88,6.36-15.53,11.89-25.27,1.14s.36-19.48,15.09-21.91S243.72,225.09,239.42,239.63Z"/><path class="cls-3" d="M237.88,244.24c1.4-1.53-17-12.1-27.7-14.31s-.15,9.71,3.08,13.31c-1.6-.05-6.84,5.19-3.5,7.45S215,249,215,249s2.14-5.5,3.77-4.29S231.18,251.6,237.88,244.24Z"/><path class="cls-2" d="M328.6,210.37c7.52,1.32,13.74,12.57.66,21.18s-23.21.48-25.7-11.8S311.39,207.34,328.6,210.37Z"/><path class="cls-3" d="M334.05,211.48c-1.79-1.12-14.89,14.73-17.82,23.83s11.57-.26,15.95-3.12c-.1,1.35,6,5.54,8.78,2.65s-1.91-4.37-1.91-4.37-6.5-1.57-5-3S342.63,216.81,334.05,211.48Z"/><path class="cls-2" d="M266.34,230.88c-1.88,6.36-15.54,11.89-25.28,1.14s.36-19.48,15.1-21.91S270.64,216.35,266.34,230.88Z"/><path class="cls-3" d="M264.79,235.5c1.4-1.54-17-12.11-27.69-14.32s-.16,9.71,3.07,13.31c-1.6,0-6.84,5.2-3.49,7.45s5.27-1.73,5.27-1.73,2.14-5.49,3.76-4.28S258.09,242.85,264.79,235.5Z"/><path class="cls-2" d="M330.93,234.91c7.52,1.32,13.74,12.57.66,21.18s-23.21.48-25.7-11.8S313.72,231.88,330.93,234.91Z"/><path class="cls-3" d="M336.38,236c-1.79-1.11-14.89,14.74-17.82,23.83s11.57-.26,15.95-3.11c-.1,1.34,6,5.53,8.79,2.64s-1.92-4.36-1.92-4.36-6.49-1.58-5-3S345,241.35,336.38,236Z"/><path class="cls-2" d="M268.67,255.43c-1.88,6.35-15.54,11.88-25.28,1.13s.36-19.47,15.1-21.91S273,240.89,268.67,255.43Z"/><path class="cls-3" d="M267.12,260c1.4-1.54-17-12.11-27.69-14.31s-.16,9.7,3.08,13.3c-1.6,0-6.85,5.2-3.5,7.45s5.27-1.73,5.27-1.73,2.14-5.49,3.76-4.28S260.42,267.39,267.12,260Z"/><path class="cls-2" d="M113.18,143.49c-7.7.89-18.14-7.81-9.13-19.52s21.92-7,29.23,3.71S130.8,141.44,113.18,143.49Z"/><path class="cls-3" d="M107.54,144c2.16.53,8.27-17.92,7.41-27.21S104,120.3,101,124.2c-.44-1.28-7.94-3.46-9.43,0s3.58,3.51,3.58,3.51,6.82-.37,6,1.36S97.22,141.46,107.54,144Z"/><path class="cls-2" d="M142.29,124.05c-1.17-6.39,9.06-15.85,23.12-9.24s8.63,17.83-4,24.83S145,138.66,142.29,124.05Z"/><path class="cls-3" d="M141.61,119.35c-.6,1.85,21.44,5.5,32.49,4s-4.32-8.87-9-11.1c1.52-.48,4-6.94-.16-7.91s-4.14,3.28-4.14,3.28.53,5.7-1.54,5.12S144.49,110.49,141.61,119.35Z"/><path class="cls-2" d="M196.38,109.43c6.51-3.69,20.66,0,18.76,13.69S199,137.55,186.59,130.9,181.47,117.88,196.38,109.43Z"/><path class="cls-3" d="M201.23,106.85c-2.24.35,2.09,18.87,7.85,26.7s8-7.21,8.7-11.78c1.09,1,9.06,0,8.55-3.58s-5.13-1.74-5.13-1.74-6,2.9-6.16,1.06S212,105.18,201.23,106.85Z"/><path class="cls-2" d="M230.09,147c7.52,1.33,13.74,12.57.66,21.19s-23.2.47-25.7-11.81S212.88,144,230.09,147Z"/><path class="cls-3" d="M235.54,148.09c-1.79-1.11-14.89,14.74-17.81,23.84s11.56-.26,16-3.12c-.1,1.35,6,5.54,8.78,2.64s-1.92-4.36-1.92-4.36-6.49-1.58-5-3S244.13,153.43,235.54,148.09Z"/><path class="cls-2" d="M167.83,167.5c-1.88,6.35-15.54,11.88-25.28,1.14s.36-19.48,15.1-21.91S172.13,153,167.83,167.5Z"/><path class="cls-3" d="M166.29,172.11c1.4-1.54-17-12.1-27.7-14.31s-.15,9.71,3.08,13.31c-1.6-.05-6.84,5.19-3.5,7.45s5.27-1.73,5.27-1.73,2.14-5.5,3.77-4.29S159.59,179.46,166.29,172.11Z"/><path class="cls-2" d="M289.15,87.2c7.53,1.33,13.74,12.58.67,21.19s-23.21.48-25.71-11.8S271.94,84.17,289.15,87.2Z"/><path class="cls-3" d="M294.61,88.32c-1.8-1.12-14.89,14.73-17.82,23.83s11.57-.26,15.95-3.12c-.1,1.35,6,5.54,8.78,2.64s-1.92-4.36-1.92-4.36-6.49-1.57-5-3S303.19,93.65,294.61,88.32Z"/><path class="cls-2" d="M226.89,107.72c-1.88,6.36-15.53,11.89-25.27,1.14S202,89.38,216.72,87,231.2,93.18,226.89,107.72Z"/><path class="cls-3" d="M225.35,112.33c1.4-1.53-17-12.1-27.69-14.31s-.16,9.71,3.07,13.31c-1.6,0-6.84,5.19-3.5,7.45s5.28-1.73,5.28-1.73,2.14-5.5,3.76-4.29S218.65,119.69,225.35,112.33Z"/><path class="cls-2" d="M229.09,175.82c-7.7.89-18.14-7.81-9.14-19.52s21.92-7,29.23,3.71S246.7,173.77,229.09,175.82Z"/><path class="cls-3" d="M223.44,176.32c2.16.53,8.28-17.92,7.41-27.21s-10.91,3.52-13.94,7.41c-.45-1.28-7.94-3.45-9.43,0s3.58,3.52,3.58,3.52,6.82-.37,6,1.36S213.12,173.79,223.44,176.32Z"/><path class="cls-2" d="M258.19,156.37c-1.17-6.38,9.06-15.84,23.12-9.23s8.63,17.83-4,24.82S260.86,171,258.19,156.37Z"/><path class="cls-3" d="M257.51,151.68c-.6,1.85,21.45,5.5,32.49,4s-4.32-8.88-9-11.11c1.52-.47,4-6.94-.16-7.9s-4.13,3.28-4.13,3.28.53,5.69-1.55,5.12S260.39,142.82,257.51,151.68Z"/><path class="cls-2" d="M312.28,141.76c6.52-3.7,20.66,0,18.76,13.69s-16.16,14.43-28.54,7.78S297.37,150.21,312.28,141.76Z"/><path class="cls-3" d="M317.14,139.18c-2.25.35,2.08,18.86,7.84,26.69s8-7.2,8.7-11.77c1.09,1,9.07,0,8.55-3.58s-5.13-1.74-5.13-1.74-6,2.9-6.15,1.06S327.87,137.51,317.14,139.18Z"/><path class="cls-2" d="M346,179.31c7.53,1.32,13.74,12.57.67,21.18s-23.21.48-25.71-11.8S328.78,176.28,346,179.31Z"/><path class="cls-3" d="M351.45,180.42c-1.8-1.11-14.89,14.74-17.82,23.83s11.57-.25,15.95-3.11c-.1,1.34,6,5.54,8.78,2.64s-1.92-4.36-1.92-4.36-6.49-1.58-5-3S360,185.75,351.45,180.42Z"/><path class="cls-2" d="M283.73,199.83c-1.88,6.35-15.53,11.88-25.27,1.14s.36-19.48,15.1-21.92S288,185.29,283.73,199.83Z"/><path class="cls-3" d="M282.19,204.44c1.4-1.54-17-12.11-27.69-14.31s-.16,9.7,3.07,13.31c-1.6-.05-6.84,5.19-3.5,7.44s5.28-1.73,5.28-1.73,2.14-5.49,3.76-4.28S275.49,211.79,282.19,204.44Z"/><path class="cls-2" d="M241.62,126.44c-1.88,6.36-15.54,11.89-25.28,1.14s.36-19.48,15.1-21.91S245.92,111.91,241.62,126.44Z"/><path class="cls-3" d="M240.08,131.05c1.4-1.53-17-12.1-27.7-14.31s-.15,9.71,3.08,13.31c-1.6,0-6.84,5.19-3.5,7.45s5.27-1.73,5.27-1.73,2.14-5.49,3.77-4.29S233.38,138.41,240.08,131.05Z"/><path class="cls-2" d="M172.1,134.59c-1.88,6.36-15.53,11.89-25.27,1.14s.36-19.48,15.1-21.91S176.41,120.05,172.1,134.59Z"/><path class="cls-3" d="M170.56,139.2c1.4-1.53-17-12.1-27.69-14.31s-.16,9.71,3.07,13.31c-1.6,0-6.84,5.19-3.5,7.45s5.28-1.73,5.28-1.73,2.14-5.49,3.76-4.29S163.86,146.56,170.56,139.2Z"/><path class="cls-2" d="M255.51,194.77c-1.88,6.35-15.54,11.88-25.28,1.14s.36-19.48,15.1-21.91S259.81,180.23,255.51,194.77Z"/><path class="cls-3" d="M254,199.38c1.4-1.54-17-12.1-27.69-14.31s-.16,9.71,3.08,13.31c-1.6,0-6.85,5.19-3.5,7.45s5.27-1.73,5.27-1.73,2.14-5.5,3.76-4.29S247.26,206.73,254,199.38Z"/><path class="cls-2" d="M235.51,159.52c-1.88,6.36-15.53,11.89-25.27,1.14s.36-19.48,15.1-21.91S239.82,145,235.51,159.52Z"/><path class="cls-3" d="M234,164.14c1.4-1.54-17-12.11-27.69-14.32s-.16,9.71,3.07,13.31c-1.6,0-6.84,5.2-3.5,7.45s5.28-1.73,5.28-1.73,2.14-5.49,3.76-4.28S227.27,171.49,234,164.14Z"/><path class="cls-2" d="M324.39,257.87c-1.88,6.36-15.53,11.89-25.27,1.14s.36-19.48,15.09-21.91S328.69,243.33,324.39,257.87Z"/><path class="cls-3" d="M322.85,262.48c1.4-1.53-17-12.1-27.7-14.31s-.15,9.71,3.08,13.31c-1.6-.05-6.84,5.19-3.5,7.45S300,267.2,300,267.2s2.13-5.5,3.76-4.29S316.15,269.84,322.85,262.48Z"/><path class="cls-2" d="M147.42,89c-1.88,6.35-15.53,11.88-25.27,1.14s.36-19.48,15.1-21.91S151.73,74.42,147.42,89Z"/><path class="cls-3" d="M145.88,93.57c1.4-1.54-17-12.1-27.69-14.31S118,89,121.26,92.57c-1.6,0-6.84,5.19-3.5,7.45S123,98.29,123,98.29s2.14-5.5,3.76-4.29S139.18,100.92,145.88,93.57Z"/><path class="cls-2" d="M243.07,44.28c-1.88,6.35-15.54,11.88-25.28,1.14s.36-19.48,15.1-21.91S247.37,29.74,243.07,44.28Z"/><path class="cls-3" d="M241.52,48.89c1.4-1.54-17-12.1-27.69-14.31s-.16,9.71,3.07,13.31c-1.6,0-6.84,5.19-3.5,7.45s5.28-1.73,5.28-1.73,2.14-5.5,3.76-4.29S234.82,56.25,241.52,48.89Z"/><path class="cls-2" d="M276.64,52.8c7.52,1.32,13.74,12.57.66,21.18s-23.21.48-25.7-11.8S259.43,49.77,276.64,52.8Z"/><path class="cls-3" d="M282.09,53.91c-1.79-1.12-14.89,14.74-17.82,23.83s11.57-.26,16-3.11c-.1,1.34,6,5.53,8.79,2.64s-1.92-4.36-1.92-4.36-6.5-1.58-5-3S290.67,59.24,282.09,53.91Z"/><path class="cls-2" d="M214.38,73.31c-1.88,6.36-15.54,11.89-25.28,1.14s.36-19.47,15.1-21.91S218.68,58.78,214.38,73.31Z"/><path class="cls-3" d="M212.83,77.93c1.4-1.54-17-12.11-27.69-14.31s-.16,9.7,3.08,13.3c-1.6,0-6.85,5.2-3.5,7.45S190,82.64,190,82.64s2.14-5.49,3.76-4.28S206.13,85.28,212.83,77.93Z"/><path class="cls-2" d="M100.1,166.75c-1.17-6.39,9.06-15.85,23.12-9.24s8.63,17.83-4,24.82S102.77,181.36,100.1,166.75Z"/><path class="cls-3" d="M99.42,162.05c-.6,1.85,21.44,5.5,32.49,4s-4.32-8.88-9-11.1c1.52-.48,4-6.95-.16-7.91s-4.13,3.28-4.13,3.28.52,5.69-1.55,5.12S102.3,153.19,99.42,162.05Z"/><path class="cls-2" d="M154.19,152.13c6.52-3.69,20.66,0,18.76,13.69s-16.16,14.43-28.55,7.78S139.28,160.58,154.19,152.13Z"/><path class="cls-3" d="M159,149.55c-2.24.35,2.09,18.86,7.85,26.69s8-7.2,8.7-11.77c1.09,1,9.07,0,8.55-3.58s-5.13-1.74-5.13-1.74-6,2.9-6.16,1.06S169.78,147.88,159,149.55Z"/><path class="cls-2" d="M187.9,189.68c7.52,1.32,13.74,12.57.67,21.18s-23.21.48-25.71-11.8S170.69,186.65,187.9,189.68Z"/><path class="cls-3" d="M193.36,190.79c-1.8-1.11-14.9,14.74-17.82,23.83s11.56-.25,16-3.11c-.1,1.34,6,5.54,8.78,2.64s-1.92-4.36-1.92-4.36-6.49-1.58-5-3S201.94,196.12,193.36,190.79Z"/><path class="cls-2" d="M125.64,210.2c-1.88,6.35-15.53,11.88-25.27,1.14s.36-19.48,15.1-21.92S130,195.66,125.64,210.2Z"/><path class="cls-3" d="M124.1,214.81c1.4-1.54-17-12.1-27.69-14.31s-.16,9.7,3.07,13.31c-1.6-.05-6.84,5.19-3.5,7.45s5.28-1.73,5.28-1.73,2.14-5.5,3.76-4.29S117.4,222.16,124.1,214.81Z"/><path class="cls-2" d="M139.77,72.87c-7.7.89-18.14-7.81-9.14-19.52s21.93-7,29.24,3.71S157.39,70.82,139.77,72.87Z"/><path class="cls-3" d="M134.13,73.37c2.15.53,8.27-17.92,7.41-27.2s-10.92,3.51-13.95,7.41c-.44-1.28-7.94-3.46-9.43,0s3.58,3.52,3.58,3.52,6.82-.37,6,1.36S123.81,70.84,134.13,73.37Z"/><path class="cls-2" d="M168.87,53.43C167.71,47,177.93,37.58,192,44.19S200.62,62,188,69,171.54,68,168.87,53.43Z"/><path class="cls-3" d="M168.2,48.73c-.61,1.85,21.44,5.5,32.49,4s-4.32-8.88-9-11.1c1.52-.48,4-6.95-.15-7.91S187.39,37,187.39,37s.53,5.69-1.54,5.12S171.08,39.87,168.2,48.73Z"/><path class="cls-2" d="M194.42,96.88c-1.88,6.35-15.54,11.88-25.28,1.14s.36-19.48,15.1-21.92S198.72,82.34,194.42,96.88Z"/><path class="cls-3" d="M192.87,101.49c1.4-1.54-17-12.1-27.69-14.31s-.16,9.7,3.08,13.31c-1.6,0-6.85,5.19-3.5,7.45S170,106.2,170,106.2s2.14-5.49,3.76-4.28S186.17,108.84,192.87,101.49Z"/><path class="cls-2" d="M351.08,266.17c-1.88,6.35-15.54,11.89-25.28,1.14s.36-19.48,15.1-21.91S355.38,251.63,351.08,266.17Z"/><path class="cls-3" d="M349.53,270.78c1.4-1.54-17-12.1-27.69-14.31s-.16,9.71,3.07,13.31c-1.6,0-6.84,5.19-3.5,7.45s5.28-1.73,5.28-1.73,2.14-5.5,3.76-4.29S342.83,278.14,349.53,270.78Z"/><path class="cls-2" d="M70.8,262c-7.7.9-18.14-7.81-9.14-19.52s21.93-7,29.24,3.71S88.42,260,70.8,262Z"/><path class="cls-3" d="M65.16,262.55c2.15.53,8.27-17.92,7.41-27.21s-10.92,3.51-13.95,7.41c-.44-1.28-7.94-3.46-9.43,0s3.58,3.51,3.58,3.51,6.82-.37,6,1.37S54.84,260,65.16,262.55Z"/><path class="cls-2" d="M99.9,242.6c-1.16-6.39,9.06-15.85,23.12-9.24s8.63,17.83-4,24.83S102.57,257.22,99.9,242.6Z"/><path class="cls-3" d="M99.22,237.9c-.6,1.86,21.45,5.51,32.5,4s-4.32-8.87-9-11.1c1.52-.48,4-6.94-.15-7.91s-4.14,3.29-4.14,3.29.53,5.69-1.55,5.11S102.11,229,99.22,237.9Z"/><path class="cls-2" d="M154,228c6.52-3.69,20.67,0,18.76,13.69s-16.16,14.43-28.54,7.78S139.09,236.43,154,228Z"/><path class="cls-3" d="M158.85,225.41c-2.24.35,2.08,18.86,7.85,26.69s8-7.21,8.7-11.77c1.09.95,9.06,0,8.55-3.59s-5.14-1.73-5.14-1.73-6,2.9-6.15,1.05S169.58,223.74,158.85,225.41Z"/><path class="cls-2" d="M187.71,265.53c7.52,1.33,13.74,12.58.66,21.19s-23.21.48-25.7-11.81S170.5,262.5,187.71,265.53Z"/><path class="cls-3" d="M193.16,266.65c-1.79-1.12-14.89,14.73-17.81,23.83s11.56-.26,15.94-3.12c-.1,1.35,6,5.54,8.79,2.64s-1.92-4.36-1.92-4.36-6.49-1.58-5-3S201.74,272,193.16,266.65Z"/><path class="cls-2" d="M125.45,286.05c-1.88,6.36-15.54,11.89-25.28,1.14s.36-19.48,15.1-21.91S129.75,271.51,125.45,286.05Z"/><path class="cls-3" d="M123.9,290.66c1.4-1.53-17-12.1-27.69-14.31s-.16,9.71,3.08,13.31c-1.6-.05-6.85,5.19-3.5,7.45s5.27-1.73,5.27-1.73,2.14-5.5,3.76-4.29S117.2,298,123.9,290.66Z"/><path class="cls-2" d="M124.56,179.35c-1.88,6.35-15.53,11.88-25.27,1.14s.36-19.48,15.09-21.92S128.87,164.81,124.56,179.35Z"/><path class="cls-3" d="M123,184c1.4-1.54-17-12.1-27.7-14.31s-.15,9.7,3.08,13.31c-1.6-.05-6.84,5.19-3.5,7.45s5.28-1.74,5.28-1.74,2.14-5.49,3.76-4.28S116.32,191.31,123,184Z"/><path class="cls-2" d="M94.65,176c-1.88,6.35-15.54,11.88-25.28,1.14s.36-19.48,15.1-21.92S99,161.46,94.65,176Z"/><path class="cls-3" d="M93.1,180.61c1.4-1.54-17-12.1-27.69-14.31s-.16,9.7,3.08,13.31c-1.6-.05-6.85,5.19-3.5,7.45s5.27-1.74,5.27-1.74S72.4,179.83,74,181,86.4,188,93.1,180.61Z"/><path class="cls-2" d="M294,48.84c-3.4,4.57-15.55,5.92-19.67-4.61s6.29-15.15,18.31-13.85S301.76,38.41,294,48.84Z"/><path class="cls-3" d="M291.37,52.12c1.54-.9-9.24-13.16-16.76-17.23S271.5,42.45,272.85,46c-1.2-.38-6.83,2.57-5,5.07s4.57-.21,4.57-.21,3.33-3.83,4.2-2.53S284,56.41,291.37,52.12Z"/><path class="cls-2" d="M336.34,105.74c-4.17,5.59-19.07,7.25-24.13-5.66s7.72-18.58,22.45-17S345.88,92.94,336.34,105.74Z"/><path class="cls-3" d="M333.14,109.75c1.9-1.1-11.32-16.14-20.54-21.12s-3.82,9.27-2.15,13.59c-1.49-.48-8.39,3.15-6.11,6.2s5.6-.25,5.6-.25,4.09-4.7,5.15-3.1S324.08,115,333.14,109.75Z"/><path class="cls-2" d="M353.16,166c-4.16,5.6-19.06,7.25-24.12-5.65s7.71-18.58,22.45-17S362.7,153.25,353.16,166Z"/><path class="cls-3" d="M350,170.05c1.9-1.1-11.32-16.13-20.54-21.11s-3.82,9.27-2.16,13.58c-1.48-.47-8.38,3.16-6.1,6.21s5.6-.25,5.6-.25,4.09-4.7,5.15-3.11S340.9,175.32,350,170.05Z"/><path class="cls-2" d="M347.87,188.21c-4.17,5.6-19.06,7.25-24.13-5.65s7.72-18.58,22.46-17S357.41,175.42,347.87,188.21Z"/><path class="cls-3" d="M344.68,192.22c1.89-1.1-11.33-16.13-20.54-21.11s-3.83,9.27-2.16,13.58c-1.48-.47-8.38,3.16-6.1,6.21s5.6-.25,5.6-.25,4.08-4.7,5.15-3.11S335.61,197.49,344.68,192.22Z"/><path class="cls-2" d="M369.91,244.93c-4.17,5.59-19.07,7.25-24.13-5.65s7.71-18.58,22.45-17S379.45,232.14,369.91,244.93Z"/><path class="cls-3" d="M366.71,248.94c1.9-1.1-11.32-16.13-20.54-21.11s-3.82,9.26-2.16,13.58c-1.48-.47-8.38,3.15-6.1,6.21s5.6-.25,5.6-.25,4.09-4.7,5.15-3.11S357.65,254.21,366.71,248.94Z"/><path class="cls-2" d="M32.45,275.43c-4.17,5.6-19.06,7.25-24.12-5.65s7.71-18.58,22.45-17S42,262.64,32.45,275.43Z"/><path class="cls-3" d="M29.26,279.44c1.89-1.1-11.32-16.13-20.54-21.11s-3.83,9.27-2.16,13.58c-1.48-.47-8.38,3.16-6.1,6.21s5.6-.25,5.6-.25,4.09-4.7,5.15-3.11S20.19,284.71,29.26,279.44Z"/><path class="cls-2" d="M386.67,285.13c-4.17,5.59-19.06,7.25-24.13-5.66s7.72-18.58,22.46-17S396.21,272.33,386.67,285.13Z"/><path class="cls-3" d="M383.48,289.14C385.37,288,372.15,273,362.94,268s-3.83,9.27-2.16,13.59c-1.48-.48-8.38,3.15-6.1,6.21s5.6-.26,5.6-.26,4.08-4.7,5.15-3.1S374.41,294.4,383.48,289.14Z"/><path class="cls-2" d="M295.66,320.08c-4.17,5.59-19.07,7.25-24.13-5.65s7.71-18.58,22.45-17S305.19,307.29,295.66,320.08Z"/><path class="cls-3" d="M292.46,324.09c1.9-1.1-11.32-16.13-20.54-21.11s-3.82,9.26-2.16,13.58c-1.48-.47-8.38,3.15-6.1,6.21s5.6-.25,5.6-.25,4.09-4.7,5.15-3.11S283.4,329.35,292.46,324.09Z"/><path class="cls-2" d="M206.91,272.8c-5.76-.52-11.41-8.52-2.35-15.74s17.37-1.78,20.32,7.22S220.08,274,206.91,272.8Z"/><path class="cls-3" d="M202.72,272.31c1.44.72,9.89-11.9,11.29-18.86s-8.66.91-11.69,3.31c0-1-5-3.76-6.82-1.43s1.82,3.13,1.82,3.13,5,.78,4,1.92S195.82,268.86,202.72,272.31Z"/><path class="cls-2" d="M38.52,280.43c-5.78.67-13.62-5.87-6.86-14.66s16.47-5.27,22,2.78S51.76,278.89,38.52,280.43Z"/><path class="cls-3" d="M34.28,280.81c1.62.4,6.22-13.46,5.57-20.44s-8.2,2.64-10.48,5.57c-.33-1-6-2.6-7.08,0S25,268.6,25,268.6s5.12-.28,4.48,1S26.53,278.91,34.28,280.81Z"/><path class="cls-2" d="M113.75,59.71c-5.79.67-13.63-5.87-6.87-14.67s16.47-5.26,22,2.79S127,58.17,113.75,59.71Z"/><path class="cls-3" d="M109.51,60.09c1.62.4,6.21-13.46,5.57-20.44s-8.21,2.63-10.48,5.56c-.34-1-6-2.59-7.09,0s2.69,2.64,2.69,2.64,5.12-.28,4.49,1S101.75,58.19,109.51,60.09Z"/><path class="cls-2" d="M334.62,145.52c-5.79.67-13.63-5.87-6.87-14.66s16.47-5.27,22,2.78S347.85,144,334.62,145.52Z"/><path class="cls-3" d="M330.38,145.9c1.62.4,6.21-13.46,5.56-20.44s-8.2,2.64-10.47,5.57c-.34-1-6-2.6-7.09,0s2.69,2.64,2.69,2.64,5.12-.28,4.49,1S322.62,144,330.38,145.9Z"/><path class="cls-2" d="M359.42,231.38c-5.79.67-13.63-5.87-6.87-14.66s16.48-5.27,22,2.78S372.66,229.84,359.42,231.38Z"/><path class="cls-3" d="M355.18,231.76c1.62.4,6.22-13.46,5.57-20.44s-8.21,2.64-10.48,5.57c-.34-1-6-2.6-7.09,0s2.69,2.64,2.69,2.64,5.13-.28,4.49,1S347.43,229.86,355.18,231.76Z"/><path class="cls-2" d="M242.1,273c-3.51-.32-7-5.2-1.43-9.61s10.6-1.09,12.4,4.4S250.14,273.68,242.1,273Z"/><path class="cls-3" d="M239.55,272.65c.88.44,6-7.26,6.89-11.51s-5.29.55-7.14,2c0-.61-3-2.29-4.16-.87s1.11,1.91,1.11,1.91,3.05.48,2.45,1.18S235.33,270.54,239.55,272.65Z"/><path class="cls-2" d="M166.4,61.05c-7.71.9-18.15-7.81-9.14-19.51s21.92-7,29.23,3.7S184,59,166.4,61.05Z"/><path class="cls-3" d="M160.75,61.56c2.16.53,8.28-17.92,7.41-27.21s-10.92,3.51-13.94,7.41c-.45-1.28-7.95-3.45-9.43,0s3.58,3.51,3.58,3.51,6.81-.37,6,1.37S150.43,59,160.75,61.56Z"/><path class="cls-2" d="M195.5,41.61c-1.17-6.39,9.06-15.85,23.12-9.23s8.63,17.83-4,24.82S198.17,56.23,195.5,41.61Z"/><path class="cls-3" d="M194.82,36.92c-.6,1.85,21.44,5.5,32.49,4s-4.32-8.88-9-11.11c1.52-.47,4-6.94-.16-7.91S214,25.22,214,25.22s.52,5.69-1.55,5.12S197.7,28.06,194.82,36.92Z"/><path class="cls-2" d="M249.59,27c6.52-3.7,20.66,0,18.76,13.68s-16.16,14.44-28.55,7.78S234.68,35.45,249.59,27Z"/><path class="cls-3" d="M254.44,24.42c-2.24.35,2.09,18.86,7.85,26.69s8-7.21,8.7-11.77c1.09.95,9.07,0,8.55-3.59S274.41,34,274.41,34s-6,2.9-6.16,1S265.18,22.75,254.44,24.42Z"/><path class="cls-2" d="M283.3,64.55c7.52,1.32,13.74,12.57.67,21.18s-23.21.48-25.71-11.8S266.09,61.51,283.3,64.55Z"/><path class="cls-3" d="M288.76,65.66c-1.8-1.12-14.9,14.73-17.82,23.83s11.56-.26,15.95-3.12c-.1,1.35,6,5.54,8.78,2.64s-1.92-4.36-1.92-4.36-6.49-1.57-5-3S297.34,71,288.76,65.66Z"/><path class="cls-2" d="M221,85.06c-1.88,6.36-15.53,11.89-25.27,1.14s.36-19.48,15.09-21.91S225.35,70.53,221,85.06Z"/><path class="cls-3" d="M219.5,89.67c1.4-1.53-17-12.1-27.7-14.31s-.15,9.71,3.08,13.31c-1.6,0-6.84,5.19-3.5,7.45s5.28-1.73,5.28-1.73,2.14-5.49,3.76-4.29S212.8,97,219.5,89.67Z"/><path class="cls-2" d="M103.55,69.27c-3.53.41-8.32-3.58-4.19-8.95s10-3.21,13.4,1.7S111.63,68.33,103.55,69.27Z"/><path class="cls-3" d="M101,69.5c1,.25,3.8-8.21,3.4-12.47s-5,1.61-6.4,3.39c-.2-.58-3.64-1.58-4.32,0s1.64,1.61,1.64,1.61,3.13-.17,2.74.62S96.23,68.34,101,69.5Z"/><path class="cls-2" d="M364.93,211.59c-3.53.41-8.32-3.58-4.19-9s10.05-3.21,13.41,1.7S373,210.65,364.93,211.59Z"/><path class="cls-3" d="M362.34,211.83c1,.24,3.8-8.22,3.4-12.48s-5,1.61-6.39,3.4c-.21-.59-3.65-1.59-4.33,0s1.64,1.61,1.64,1.61,3.13-.17,2.74.63S357.61,210.66,362.34,211.83Z"/><path class="cls-2" d="M199.39,245c-4-.37-8-6-1.65-11.08S210,232.64,212,239,208.66,245.82,199.39,245Z"/><path class="cls-3" d="M196.45,244.62c1,.51,7-8.37,7.94-13.26s-6.09.63-8.23,2.32c0-.71-3.5-2.65-4.8-1s1.29,2.21,1.29,2.21,3.52.55,2.82,1.35S191.59,242.2,196.45,244.62Z"/><path class="cls-2" d="M229,240.67c-5.79.68-13.63-5.86-6.86-14.66s16.47-5.27,22,2.79S242.21,239.14,229,240.67Z"/><path class="cls-3" d="M224.73,241.06c1.62.39,6.22-13.47,5.57-20.45s-8.2,2.64-10.48,5.57c-.33-1-6-2.6-7.09,0s2.69,2.64,2.69,2.64,5.13-.28,4.49,1S217,239.15,224.73,241.06Z"/><path class="cls-2" d="M263.44,233.61c-3.53.41-8.32-3.58-4.19-9s10.05-3.21,13.4,1.7S271.52,232.67,263.44,233.61Z"/><path class="cls-3" d="M260.85,233.85c1,.24,3.79-8.22,3.4-12.48s-5,1.61-6.4,3.4c-.2-.59-3.64-1.59-4.32,0s1.64,1.61,1.64,1.61,3.13-.17,2.74.63S256.12,232.68,260.85,233.85Z"/><path class="cls-2" d="M213.54,215.45c-4.07.47-9.59-4.13-4.83-10.32s11.59-3.71,15.45,2S222.85,214.36,213.54,215.45Z"/><path class="cls-3" d="M210.56,215.72c1.14.28,4.37-9.48,3.91-14.39s-5.77,1.86-7.37,3.92c-.23-.68-4.2-1.83-5,0s1.89,1.86,1.89,1.86,3.6-.19,3.15.72S205.1,214.38,210.56,215.72Z"/><path class="cls-2" d="M73.83,146.69c-4.07.47-9.59-4.13-4.83-10.32s11.59-3.7,15.45,2S83.14,145.61,73.83,146.69Z"/><path class="cls-3" d="M70.85,147c1.14.28,4.37-9.47,3.91-14.39s-5.77,1.86-7.37,3.92c-.23-.67-4.2-1.82-5,0s1.89,1.85,1.89,1.85,3.6-.19,3.15.73S65.39,145.62,70.85,147Z"/><path class="cls-2" d="M356.61,183.29c-4.07.47-9.59-4.13-4.83-10.32s11.59-3.71,15.46,2S365.93,182.2,356.61,183.29Z"/><path class="cls-3" d="M353.63,183.56c1.14.28,4.38-9.48,3.92-14.39s-5.77,1.86-7.37,3.92c-.24-.68-4.2-1.83-5,0s1.89,1.86,1.89,1.86,3.61-.19,3.16.72S348.18,182.22,353.63,183.56Z"/><path class="cls-2" d="M131.85,301.12c-7.7.9-18.14-7.8-9.13-19.51s21.92-7,29.23,3.71S149.47,299.08,131.85,301.12Z"/><path class="cls-3" d="M126.21,301.63c2.16.53,8.28-17.92,7.41-27.21s-10.92,3.51-14,7.41c-.44-1.28-7.94-3.45-9.43,0s3.58,3.51,3.58,3.51,6.82-.36,6,1.37S115.89,299.1,126.21,301.63Z"/><path class="cls-2" d="M78.41,302.21c6,.91,11.24,9.71,1.08,16.78s-18.42.81-20.73-8.88S64.65,300.12,78.41,302.21Z"/><path class="cls-3" d="M82.77,303c-1.45-.85-11.44,12-13.53,19.23s9.18-.42,12.59-2.77c0,1.07,4.91,4.28,7,1.93S87.24,318,87.24,318s-5.2-1.13-4.06-2.28S89.73,307.06,82.77,303Z"/><path class="cls-2" d="M104.58,303.71c4.44,3.43,3.31,13.39-9.58,15.07s-15.87-7.4-11.75-16.84S94.4,295.84,104.58,303.71Z"/><path class="cls-3" d="M107.73,306.3c-.68-1.37-17,5.37-23.29,10.77s7.92,3.68,12.23,3.14c-.71.91,1.42,5.88,4.67,4.78s.77-3.7.77-3.7-3.63-3.27-2-3.77S111,312.9,107.73,306.3Z"/><path class="cls-2" d="M182.81,310.86c6,.91,11.25,9.72,1.09,16.79s-18.43.81-20.73-8.89S169.06,308.78,182.81,310.86Z"/><path class="cls-3" d="M187.18,311.64c-1.46-.85-11.45,12-13.53,19.23s9.18-.42,12.59-2.77c-.05,1.07,4.91,4.29,7,1.94s-1.64-3.43-1.64-3.43-5.19-1.13-4-2.27S194.13,315.71,187.18,311.64Z"/><path class="cls-2" d="M209,312.36c4.45,3.44,3.32,13.4-9.57,15.08s-15.88-7.41-11.75-16.85S198.81,304.5,209,312.36Z"/><path class="cls-3" d="M212.13,315c-.68-1.38-17,5.37-23.28,10.77s7.92,3.68,12.22,3.13c-.7.91,1.43,5.89,4.68,4.78s.77-3.7.77-3.7-3.64-3.27-2-3.76S215.4,321.56,212.13,315Z"/><path class="cls-2" d="M123.64,309.63c4.44,3.44,3.31,13.4-9.58,15.08s-15.87-7.4-11.75-16.85S113.46,301.77,123.64,309.63Z"/><path class="cls-3" d="M126.79,312.23c-.68-1.38-17,5.37-23.29,10.77s7.92,3.68,12.23,3.13c-.71.91,1.42,5.89,4.67,4.78s.77-3.69.77-3.69-3.63-3.27-2-3.77S130.05,318.83,126.79,312.23Z"/><path class="cls-2" d="M145.78,309.08c4.45,3.44,3.32,13.39-9.57,15.07s-15.88-7.4-11.75-16.84S135.61,301.22,145.78,309.08Z"/><path class="cls-3" d="M148.93,311.68c-.68-1.38-17,5.36-23.29,10.77s7.92,3.67,12.23,3.13c-.7.91,1.43,5.88,4.67,4.78s.77-3.7.77-3.7-3.63-3.27-2-3.76S152.2,318.28,148.93,311.68Z"/><path class="cls-2" d="M156.91,331.79c-4.38,3.74-16.17,2.81-17.32-8s9.86-13.34,20.84-9.89S167,323.24,156.91,331.79Z"/><path class="cls-3" d="M153.61,334.44c1.69-.57-5.27-14.27-11.29-19.53s-4.9,6.65-4.54,10.27c-1-.59-7.1,1.2-6,3.93s4.35.64,4.35.64,4.14-3.06,4.61-1.65S145.53,337.19,153.61,334.44Z"/><path class="cls-2" d="M142.78,297c4.45,3.44,3.32,13.4-9.57,15.08s-15.88-7.4-11.75-16.85S132.61,289.12,142.78,297Z"/><path class="cls-3" d="M145.93,299.58c-.68-1.38-17,5.37-23.29,10.77s7.92,3.68,12.23,3.13c-.7.91,1.43,5.89,4.68,4.78s.76-3.7.76-3.7-3.63-3.27-2-3.76S149.2,306.18,145.93,299.58Z"/><path class="cls-2" d="M161.84,302.91c4.45,3.44,3.32,13.4-9.57,15.07s-15.88-7.4-11.75-16.84S151.67,295.05,161.84,302.91Z"/><path class="cls-3" d="M165,305.51c-.68-1.38-17,5.37-23.29,10.77s7.92,3.67,12.23,3.13c-.7.91,1.43,5.88,4.68,4.78s.76-3.7.76-3.7-3.63-3.27-2-3.76S168.26,312.11,165,305.51Z"/><path class="cls-2" d="M184,302.36c4.8,3.08,3.31,13.39-9.58,15.07s-16.83-7.72-11.75-16.85C166.48,293.73,173.67,295.74,184,302.36Z"/><path class="cls-3" d="M187.14,305c-.68-1.38-17,5.37-23.29,10.77s7.92,3.68,12.23,3.13c-.71.91,1.42,5.89,4.67,4.78s.77-3.69.77-3.69-3.63-3.27-2-3.77S190.4,311.55,187.14,305Z"/><path class="cls-2" d="M195.12,325.07c-4.39,3.74-16.18,2.8-17.33-8s9.87-13.33,20.84-9.88S205.16,316.52,195.12,325.07Z"/><path class="cls-3" d="M191.82,327.72c1.69-.58-5.28-14.28-11.3-19.54s-4.9,6.66-4.54,10.27c-1-.59-7.1,1.21-6,3.93s4.36.64,4.36.64,4.13-3,4.61-1.65S183.74,330.47,191.82,327.72Z"/><path class="cls-2" d="M208.11,303.16c4.44,3.44,3.32,13.39-9.57,15.07s-15.88-7.4-11.75-16.84S197.94,295.3,208.11,303.16Z"/><path class="cls-3" d="M211.26,305.76c-.68-1.38-17,5.36-23.29,10.77s7.92,3.67,12.23,3.13c-.7.91,1.43,5.88,4.67,4.78s.77-3.7.77-3.7-3.63-3.27-2-3.76S214.52,312.36,211.26,305.76Z"/><path class="cls-2" d="M227.17,309.09c4.44,3.43,3.32,13.39-9.57,15.07s-15.88-7.4-11.75-16.84S217,301.23,227.17,309.09Z"/><path class="cls-3" d="M230.32,311.69c-.68-1.38-17,5.36-23.29,10.77s7.92,3.67,12.23,3.13c-.7.91,1.43,5.88,4.67,4.78s.77-3.7.77-3.7-3.63-3.27-2-3.76S233.58,318.28,230.32,311.69Z"/><path class="cls-2" d="M249.31,308.53c4.45,3.44,3.32,13.4-9.57,15.08S223.86,316.2,228,306.76,239.14,300.67,249.31,308.53Z"/><path class="cls-3" d="M252.46,311.13c-.68-1.38-17,5.37-23.28,10.77s7.92,3.67,12.22,3.13c-.7.91,1.43,5.89,4.68,4.78s.77-3.7.77-3.7-3.64-3.27-2-3.76S255.73,317.73,252.46,311.13Z"/><path class="cls-2" d="M260.45,331.24c-4.39,3.74-16.18,2.81-17.33-8S253,309.89,264,313.34,270.48,322.69,260.45,331.24Z"/><path class="cls-3" d="M257.14,333.89c1.69-.57-5.27-14.27-11.29-19.53s-4.9,6.66-4.54,10.27c-1-.59-7.1,1.21-6,3.93s4.35.64,4.35.64,4.14-3.05,4.62-1.65S249.07,336.64,257.14,333.89Z"/><path class="cls-2" d="M219.63,288.14c4.45,3.43,3.32,13.39-9.57,15.07s-15.88-7.4-11.75-16.84S209.46,280.27,219.63,288.14Z"/><path class="cls-3" d="M222.78,290.73c-.68-1.37-17,5.37-23.29,10.77s7.92,3.68,12.23,3.14c-.7.91,1.43,5.88,4.67,4.78s.77-3.7.77-3.7-3.63-3.27-2-3.77S226.05,297.33,222.78,290.73Z"/><path class="cls-2" d="M124.53,280.14c4.45,3.44,3.32,13.4-9.57,15.08s-15.87-7.4-11.75-16.85S114.36,272.28,124.53,280.14Z"/><path class="cls-3" d="M127.69,282.74c-.69-1.38-17,5.37-23.29,10.77s7.92,3.68,12.23,3.13c-.71.91,1.42,5.89,4.67,4.78s.77-3.69.77-3.69-3.63-3.27-2-3.77S131,289.34,127.69,282.74Z"/><path class="cls-2" d="M238.69,294.06c4.45,3.44,3.32,13.4-9.57,15.08s-15.88-7.4-11.75-16.85S228.52,286.2,238.69,294.06Z"/><path class="cls-3" d="M241.84,296.66c-.68-1.38-17,5.37-23.29,10.77s7.92,3.68,12.23,3.13c-.7.91,1.43,5.89,4.67,4.78s.77-3.69.77-3.69-3.63-3.27-2-3.77S245.11,303.26,241.84,296.66Z"/><path class="cls-2" d="M260.83,293.51c4.45,3.44,3.32,13.39-9.57,15.07s-15.88-7.4-11.75-16.84S250.66,285.65,260.83,293.51Z"/><path class="cls-3" d="M264,296.11c-.69-1.38-17,5.36-23.29,10.77s7.92,3.67,12.23,3.13c-.71.91,1.42,5.88,4.67,4.78s.77-3.7.77-3.7-3.63-3.27-2-3.76S267.25,302.71,264,296.11Z"/><path class="cls-2" d="M272,316.22c-4.39,3.74-16.18,2.81-17.33-8s9.87-13.34,20.84-9.89S282,307.67,272,316.22Z"/><path class="cls-3" d="M268.67,318.87c1.68-.57-5.28-14.27-11.3-19.53s-4.9,6.65-4.54,10.27c-1-.59-7.1,1.2-6,3.93s4.36.64,4.36.64,4.13-3.06,4.61-1.65S260.59,321.62,268.67,318.87Z"/><path class="cls-2" d="M63.6,281.29c4.45,3.43,3.32,13.39-9.57,15.07S38.15,289,42.28,279.52,53.43,273.43,63.6,281.29Z"/><path class="cls-3" d="M66.75,283.89c-.68-1.38-17,5.36-23.29,10.77s7.93,3.67,12.23,3.13c-.7.91,1.43,5.88,4.68,4.78s.77-3.7.77-3.7-3.64-3.27-2-3.76S70,290.49,66.75,283.89Z"/><path class="cls-2" d="M82.66,287.22c4.45,3.43,3.32,13.39-9.57,15.07s-15.88-7.4-11.75-16.84S72.49,279.35,82.66,287.22Z"/><path class="cls-3" d="M85.81,289.81c-.68-1.38-17,5.37-23.28,10.77s7.92,3.68,12.22,3.14c-.7.91,1.43,5.88,4.68,4.77s.77-3.69.77-3.69-3.64-3.27-2-3.77S89.08,296.41,85.81,289.81Z"/><path class="cls-2" d="M104.81,286.66c4.44,3.44,3.31,13.4-9.58,15.07s-15.87-7.4-11.75-16.84S94.64,278.8,104.81,286.66Z"/><path class="cls-3" d="M108,289.26c-.68-1.38-17,5.37-23.29,10.77s7.92,3.67,12.23,3.13c-.71.91,1.42,5.88,4.67,4.78s.77-3.7.77-3.7-3.63-3.27-2-3.76S111.22,295.86,108,289.26Z"/><path class="cls-2" d="M115.94,309.37c-4.39,3.74-16.18,2.81-17.33-8s9.87-13.34,20.85-9.89S126,300.82,115.94,309.37Z"/><path class="cls-3" d="M112.64,312c1.69-.57-5.28-14.27-11.3-19.53s-4.9,6.65-4.53,10.27c-1-.59-7.11,1.21-6,3.93s4.36.64,4.36.64,4.13-3.05,4.61-1.65S104.56,314.77,112.64,312Z"/></g></g></svg>
