<svg xmlns="http://www.w3.org/2000/svg" viewBox="0 0 375.11 112.72"><defs><style>.cls-1{isolation:isolate;}.cls-2,.cls-3{fill:#346d29;}.cls-3,.cls-7,.cls-9{mix-blend-mode:screen;}.cls-4{fill:#3aa025;}.cls-5{fill:#266718;}.cls-6,.cls-7{fill:#122d0b;}.cls-8,.cls-9{fill:#234d1a;}</style></defs><title>graes1</title><g class="cls-1"><g id="Layer_2" data-name="Layer 2"><g id="Layer_6" data-name="Layer 6"><path class="cls-2" d="M94.2,30.2q2.05-9.46,3.87-19l0,.1C95.43,23.92,92.2,36.39,89.58,49h0l.75.16Q92.16,39.67,94.2,30.2Z" transform="translate(0 -0.05)"/><path class="cls-3" d="M93.45,30c1.62-6.24,3.14-12.51,4.61-18.8l0,.1C95.43,23.92,92.2,36.39,89.58,49h0l-.75-.16Q91,39.4,93.45,30Z" transform="translate(0 -0.05)"/><path class="cls-2" d="M115.65,40.22q2.05-9.47,3.86-19l0,.1C116.88,33.94,113.64,46.41,111,59h0l.75.16Q113.61,49.69,115.65,40.22Z" transform="translate(0 -0.05)"/><path class="cls-3" d="M114.9,40q2.41-9.36,4.61-18.8l0,.1C116.88,33.94,113.64,46.41,111,59h0l-.75-.16Q112.49,49.43,114.9,40Z" transform="translate(0 -0.05)"/><path class="cls-2" d="M137.72,50.3c.06-3.24.2-6.47.56-9.69s.89-6.41,1.49-9.6l0,.09c-3.24,12.62-1.6,25.84-4.86,38.46h0l.75.16c.6-3.21,1.14-6.42,1.5-9.67S137.65,53.54,137.72,50.3Z" transform="translate(0 -0.05)"/><path class="cls-3" d="M136.94,50.27c.2-3.24.46-6.49,1-9.71S139,34.17,139.77,31l0,.09c-3.24,12.62-1.6,25.84-4.86,38.46h0l-.75-.17c.72-3.14,1.38-6.3,1.86-9.49S136.75,53.5,136.94,50.27Z" transform="translate(0 -0.05)"/><path class="cls-2" d="M153,54.83c0-2.42.15-4.83.43-7.23s.66-4.79,1.11-7.17l0,.07c-2.42,9.42-1.19,19.29-3.63,28.71h0l.56.12c.45-2.39.85-4.79,1.12-7.22S153,57.25,153,54.83Z" transform="translate(0 -0.05)"/><path class="cls-3" d="M152.45,54.81c.14-2.42.34-4.85.71-7.25s.85-4.77,1.39-7.14v.08c-2.42,9.42-1.19,19.29-3.63,28.71h0l-.56-.12c.54-2.35,1-4.71,1.39-7.09S152.3,57.22,152.45,54.81Z" transform="translate(0 -0.05)"/><path class="cls-2" d="M167.83,59.32a50.49,50.49,0,0,0,2.61-9.25v0c-1.08,6.34-4.5,12-5.57,18.31h0l.37.08A50.65,50.65,0,0,1,167.83,59.32Z" transform="translate(0 -0.05)"/><path class="cls-3" d="M167.47,59.18a50.79,50.79,0,0,0,3-9.11v0c-1.08,6.34-4.5,12-5.57,18.31h0l-.37-.08A51.17,51.17,0,0,1,167.47,59.18Z" transform="translate(0 -0.05)"/><path class="cls-4" d="M182.71,73.11c3.08-14.44,5.54-13.92,8.62-28.35" transform="translate(0 -0.05)"/><path class="cls-4" d="M202.49,78.2C206.66,58.67,208,59,212.11,39.41" transform="translate(0 -0.05)"/><path class="cls-5" d="M151.07,69.56c3.59-16.84,4.7-16.6,8.29-33.43" transform="translate(0 -0.05)"/><path class="cls-6" d="M155.74,53c1.43-5.57,2.61-11.21,3.63-16.86l0,.08c-2.2,11.25-6.07,22.09-8.27,33.35h0l1.06.22C153.14,64.14,154.31,58.55,155.74,53Z" transform="translate(0 -0.05)"/><path class="cls-7" d="M154.7,52.69c1.77-5.45,3.29-11,4.66-16.56l0,.08c-2.2,11.25-6.07,22.09-8.27,33.35h0L150,69.33C151.38,63.74,152.92,58.16,154.7,52.69Z" transform="translate(0 -0.05)"/><path class="cls-6" d="M97.67,60.49c3-14.14,3.3-14.07,6.31-28.21" transform="translate(0 -0.05)"/><path class="cls-6" d="M101.1,46.45c1-4.71,2-9.44,2.88-14.17v.07c-2,9.41-4.35,18.73-6.3,28.14h0l.56.12Q99.6,53.52,101.1,46.45Z" transform="translate(0 -0.05)"/><path class="cls-7" d="M100.54,46.32c1.21-4.67,2.34-9.35,3.44-14v.07c-2,9.41-4.35,18.73-6.3,28.14h0l-.56-.12Q98.75,53.34,100.54,46.32Z" transform="translate(0 -0.05)"/><path class="cls-6" d="M75.68,52.61c3.14-14.73,3.44-14.67,6.59-29.41" transform="translate(0 -0.05)"/><path class="cls-6" d="M79.27,38c1.06-4.92,2-9.84,3-14.78l0,.07c-2,9.82-4.53,19.53-6.57,29.34h0l.59.13Q77.68,45.35,79.27,38Z" transform="translate(0 -0.05)"/><path class="cls-7" d="M78.68,37.84q1.88-7.31,3.58-14.64v.07c-2,9.82-4.53,19.53-6.57,29.34h0l-.59-.12Q76.82,45.14,78.68,37.84Z" transform="translate(0 -0.05)"/><path class="cls-6" d="M58.84,29.78c.72-5.18,1.61-10.33,2.61-15.46l0,.07C59.13,24.58,57.92,35,55.62,45.14h0l.61.13C57.23,40.13,58.12,35,58.84,29.78Z" transform="translate(0 -0.05)"/><path class="cls-7" d="M58.22,29.68c.93-5.15,2-10.27,3.22-15.36v.07C59.13,24.58,57.92,35,55.62,45.14h0L55,45C56.21,39.93,57.3,34.83,58.22,29.68Z" transform="translate(0 -0.05)"/><path class="cls-6" d="M67,31.58q1.1-7.77,2.61-15.46l0,.07c-2.3,10.19-3.51,20.57-5.81,30.75h0l.61.13C65.38,41.93,66.27,36.76,67,31.58Z" transform="translate(0 -0.05)"/><path class="cls-7" d="M66.38,31.48c.92-5.15,2-10.27,3.21-15.36v.07c-2.3,10.19-3.51,20.57-5.81,30.75h0l-.61-.13C64.36,41.73,65.45,36.63,66.38,31.48Z" transform="translate(0 -0.05)"/><path class="cls-6" d="M75.1,33.43c.86-2.48,1.68-5,2.34-7.53s1.22-5.11,1.73-7.68l0,.08c-1.83,10.35-6.89,19.77-8.71,30.13h0l.61.13c.51-2.57,1-5.12,1.72-7.64S74.24,35.91,75.1,33.43Z" transform="translate(0 -0.05)"/><path class="cls-7" d="M74.51,33.22c1-2.45,1.87-4.9,2.63-7.4s1.42-5.05,2-7.6l0,.08c-1.83,10.35-6.89,19.77-8.71,30.13h0l-.61-.13c.61-2.57,1.26-5.12,2-7.64S73.55,35.66,74.51,33.22Z" transform="translate(0 -0.05)"/><path class="cls-6" d="M114.12,44.31c.77-2.21,1.5-4.44,2.09-6.7s1.09-4.55,1.54-6.85l0,.07c-1.62,9.23-6.14,17.61-7.76,26.84h0l.54.11c.45-2.28.94-4.55,1.53-6.8S113.36,46.52,114.12,44.31Z" transform="translate(0 -0.05)"/><path class="cls-7" d="M113.6,44.12c.85-2.17,1.66-4.36,2.34-6.59s1.27-4.49,1.81-6.77l0,.07c-1.62,9.23-6.14,17.61-7.76,26.84h0l-.54-.12c.54-2.28,1.12-4.56,1.81-6.8S112.75,46.29,113.6,44.12Z" transform="translate(0 -0.05)"/><path class="cls-6" d="M154.86,55.53q1.24-6,2.4-12l0,.06c-1.67,8-3.57,15.89-5.24,23.87h0l.47.1Q153.63,61.53,154.86,55.53Z" transform="translate(0 -0.05)"/><path class="cls-7" d="M154.39,55.42q1.47-6,2.87-11.91l0,.06c-1.67,8-3.57,15.89-5.24,23.87h0l-.48-.1Q152.91,61.37,154.39,55.42Z" transform="translate(0 -0.05)"/><path class="cls-8" d="M158.35,51q1.6-7.76,3.08-15.51v.08C159.26,45.8,156.8,56,154.65,66.31h0l.61.13Q156.76,58.69,158.35,51Z" transform="translate(0 -0.05)"/><path class="cls-9" d="M157.73,50.81q1.91-7.68,3.7-15.37v.08C159.26,45.8,156.8,56,154.65,66.31h0l-.62-.13Q155.83,58.48,157.73,50.81Z" transform="translate(0 -0.05)"/><path class="cls-2" d="M158,45.53c1-6.39,2.08-12.74,3.3-19.08l0,.1c-2.81,12.57-4.53,25.35-7.34,37.92h0l.75.16C155.91,58.29,157,51.91,158,45.53Z" transform="translate(0 -0.05)"/><path class="cls-3" d="M157.23,45.39c1.21-6.34,2.58-12.66,4.06-18.94l0,.1c-2.81,12.57-4.53,25.35-7.34,37.92h0l-.75-.16C154.65,58,156,51.73,157.23,45.39Z" transform="translate(0 -0.05)"/><path class="cls-2" d="M179.44,55.55c.95-6.38,2.07-12.74,3.3-19.08l0,.1c-2.81,12.57-4.53,25.35-7.34,37.92h0l.75.16C177.36,68.31,178.48,61.93,179.44,55.55Z" transform="translate(0 -0.05)"/><path class="cls-3" d="M178.68,55.41c1.21-6.34,2.58-12.65,4-18.94v.1c-2.81,12.57-4.53,25.35-7.34,37.92h0l-.76-.16C176.1,68.05,177.47,61.75,178.68,55.41Z" transform="translate(0 -0.05)"/><path class="cls-2" d="M200.91,65.57c.83-6.4,1.9-12.77,3.12-19.11l0,.09c-2.86,12.57-4.1,25.44-7,38h0l.75.16C199,78.37,200.09,72,200.91,65.57Z" transform="translate(0 -0.05)"/><path class="cls-3" d="M200.15,65.45c1.08-6.37,2.4-12.71,3.88-19l0,.09c-2.86,12.57-4.1,25.44-7,38h0l-.75-.16C197.76,78.11,199.07,71.81,200.15,65.45Z" transform="translate(0 -0.05)"/><path class="cls-2" d="M216.88,70.23c.62-4.78,1.42-9.53,2.33-14.27V56c-2.14,9.39-3.07,19-5.22,28.38h0l.56.12C215.46,79.79,216.27,75,216.88,70.23Z" transform="translate(0 -0.05)"/><path class="cls-3" d="M216.31,70.14c.81-4.76,1.8-9.49,2.9-14.18V56c-2.14,9.39-3.07,19-5.22,28.38h0l-.56-.12C214.52,79.6,215.51,74.89,216.31,70.14Z" transform="translate(0 -0.05)"/><path class="cls-2" d="M233.81,75.14a51.32,51.32,0,0,0,2.62-9.25v0c-1.08,6.34-4.52,12-5.58,18.3h0l.37.08A50,50,0,0,1,233.81,75.14Z" transform="translate(0 -0.05)"/><path class="cls-3" d="M233.45,75a50.29,50.29,0,0,0,3-9.11v0c-1.08,6.34-4.52,12-5.58,18.3h0l-.38-.08A50.57,50.57,0,0,1,233.45,75Z" transform="translate(0 -0.05)"/><path class="cls-4" d="M248.78,88.94c3.07-14.44,5.56-13.91,8.63-28.35" transform="translate(0 -0.05)"/><path class="cls-4" d="M266.27,93.55C270.44,74,271,74.13,275.12,54.6" transform="translate(0 -0.05)"/><path class="cls-5" d="M215.14,85c3.58-16.84,4-16.74,7.62-33.58" transform="translate(0 -0.05)"/><path class="cls-6" d="M219.47,68.31c1.19-5.62,2.27-11.27,3.29-16.92l0,.08c-2.31,11.22-5.3,22.28-7.6,33.5h0l1.05.22C217.21,79.55,218.29,73.92,219.47,68.31Z" transform="translate(0 -0.05)"/><path class="cls-7" d="M218.42,68.05c1.53-5.53,3-11.08,4.33-16.66v.08c-2.31,11.22-5.3,22.28-7.6,33.5h0l-1-.23Q216.14,76.37,218.42,68.05Z" transform="translate(0 -0.05)"/><path class="cls-6" d="M163.71,76.32c3-14.13,4.47-13.83,7.48-28" transform="translate(0 -0.05)"/><path class="cls-6" d="M167.73,62.43a126.27,126.27,0,0,0,3.46-14.08l0,.07c-1.77,9.5-5.69,18.41-7.46,27.9h0l.56.12A125.21,125.21,0,0,1,167.73,62.43Z" transform="translate(0 -0.05)"/><path class="cls-7" d="M167.18,62.25a125.5,125.5,0,0,0,4-13.9l0,.07c-1.77,9.5-5.69,18.41-7.46,27.9h0l-.56-.12A127.06,127.06,0,0,1,167.18,62.25Z" transform="translate(0 -0.05)"/><path class="cls-6" d="M141.74,68.45c3.14-14.74,4.65-14.42,7.79-29.16" transform="translate(0 -0.05)"/><path class="cls-6" d="M145.92,54a132.46,132.46,0,0,0,3.61-14.67l0,.07c-1.84,9.9-5.93,19.19-7.77,29.09h0l.59.12A131.9,131.9,0,0,1,145.92,54Z" transform="translate(0 -0.05)"/><path class="cls-7" d="M145.35,53.78a131.82,131.82,0,0,0,4.18-14.49l0,.07c-1.84,9.9-5.93,19.19-7.77,29.09h0l-.59-.13A132.76,132.76,0,0,1,145.35,53.78Z" transform="translate(0 -0.05)"/><polygon class="cls-6" points="125.55 45.72 128.5 30.31 128.48 30.39 122 61 122 61 122.61 61.13 125.55 45.72"/><polygon class="cls-7" points="124.94 45.59 128.49 30.31 128.48 30.39 122 61 122 61 121.39 60.87 124.94 45.59"/><polygon class="cls-6" points="172.62 58.38 175.25 44.66 175.23 44.73 169.46 71.99 169.46 71.99 170 72.11 172.62 58.38"/><polygon class="cls-7" points="172.08 58.27 175.24 44.66 175.23 44.73 169.46 71.99 169.46 71.99 168.91 71.87 172.08 58.27"/><path class="cls-6" d="M219.6,71a86.14,86.14,0,0,1,1.53-12.17v.06c-2,8-1.56,16.28-3.54,24.24h0l.48.1A84,84,0,0,0,219.6,71Z" transform="translate(0 -0.05)"/><path class="cls-7" d="M219.11,71a85.75,85.75,0,0,1,2-12.13v.06c-2,8-1.56,16.28-3.54,24.24h0l-.48-.1A84.91,84.91,0,0,0,219.11,71Z" transform="translate(0 -0.05)"/><path class="cls-8" d="M201.21,60c.16-2.64.36-5.27.7-7.88s.79-5.22,1.28-7.82l0,.08c-2.54,10.27-2,21-4.56,31.26h0l.62.13c.49-2.6.94-5.22,1.28-7.85S201.06,62.67,201.21,60Z" transform="translate(0 -0.05)"/><path class="cls-9" d="M200.58,60c.26-2.64.57-5.27,1-7.88s1-5.2,1.58-7.77v.08c-2.54,10.27-2,21-4.56,31.26h0l-.62-.13c.59-2.56,1.15-5.14,1.59-7.73S200.32,62.61,200.58,60Z" transform="translate(0 -0.05)"/><path class="cls-2" d="M182.25,49q1.92-9.49,3.74-19l0,.1-8.22,37.73h0l.76.16Q180.33,58.46,182.25,49Z" transform="translate(0 -0.05)"/><path class="cls-3" d="M181.49,48.79q2.3-9.4,4.49-18.83v.1l-8.22,37.73h0l-.75-.16Q179.21,58.21,181.49,48.79Z" transform="translate(0 -0.05)"/><path class="cls-2" d="M203.69,59q1.92-9.49,3.75-19l0,.1L199.2,77.81h0L200,78Q201.78,68.47,203.69,59Z" transform="translate(0 -0.05)"/><path class="cls-3" d="M202.94,58.81q2.3-9.41,4.49-18.83l0,.1L199.2,77.81h0l-.75-.16Q200.65,68.23,202.94,58.81Z" transform="translate(0 -0.05)"/><path class="cls-2" d="M226.08,69.15c.19-3.23.44-6.45.86-9.65s1-6.4,1.57-9.58l0,.1c-3.11,12.58-2.49,25.71-5.61,38.29h0l.75.16c.6-3.19,1.16-6.39,1.57-9.62S225.89,72.38,226.08,69.15Z" transform="translate(0 -0.05)"/><path class="cls-3" d="M225.31,69.08c.32-3.22.7-6.45,1.25-9.64s1.22-6.36,1.95-9.52l0,.1c-3.11,12.58-2.49,25.71-5.61,38.29h0l-.75-.16c.72-3.14,1.4-6.3,1.94-9.47S225,72.31,225.31,69.08Z" transform="translate(0 -0.05)"/><path class="cls-2" d="M241.43,73.68a99.11,99.11,0,0,1,1.81-14.35l0,.07C240.9,68.8,241.37,78.6,239,88h0l.56.12c.45-2.38.87-4.77,1.18-7.18S241.28,76.1,241.43,73.68Z" transform="translate(0 -0.05)"/><path class="cls-3" d="M240.85,73.64c.24-2.41.52-4.82.93-7.21s.92-4.75,1.46-7.1l0,.07C240.9,68.8,241.37,78.6,239,88h0l-.57-.12A100.62,100.62,0,0,0,240.85,73.64Z" transform="translate(0 -0.05)"/><path class="cls-2" d="M256.06,78.06a47.11,47.11,0,0,1,.93-9.54v0c-1.62,6.23-.6,12.78-2.24,19h0l.38.08A46.92,46.92,0,0,0,256.06,78.06Z" transform="translate(0 -0.05)"/><path class="cls-3" d="M255.68,78.05A47,47,0,0,1,257,68.52v0c-1.62,6.23-.6,12.78-2.24,19h0l-.37-.08A47.69,47.69,0,0,0,255.68,78.05Z" transform="translate(0 -0.05)"/><path class="cls-4" d="M273.34,92.42c3.07-14.44.4-15,3.48-29.44" transform="translate(0 -0.05)"/><path class="cls-4" d="M290.09,96.87c4.16-19.53,5.31-19.29,9.48-38.82" transform="translate(0 -0.05)"/><path class="cls-5" d="M238.8,88.26c3.59-16.84,4.58-16.63,8.16-33.46" transform="translate(0 -0.05)"/><path class="cls-6" d="M243.4,71.67C244.79,66.09,246,60.45,247,54.8l0,.08C244.72,66.13,241,77,238.8,88.26h0l1,.22C240.87,82.84,242,77.24,243.4,71.67Z" transform="translate(0 -0.05)"/><path class="cls-7" d="M242.36,71.38c1.73-5.47,3.23-11,4.6-16.58v.08C244.72,66.13,241,77,238.8,88.26h0l-1-.23C239.11,82.44,240.63,76.86,242.36,71.38Z" transform="translate(0 -0.05)"/><path class="cls-6" d="M186.12,79.35c3-14.14,6.58-13.38,9.59-27.52" transform="translate(0 -0.05)"/><path class="cls-6" d="M191.18,65.72a55.48,55.48,0,0,0,2.76-6.79,64.65,64.65,0,0,0,1.78-7.1l0,.07c-1.48,9.75-8.12,17.69-9.58,27.45h0l.57.12a62.82,62.82,0,0,1,1.76-7A52.55,52.55,0,0,1,191.18,65.72Z" transform="translate(0 -0.05)"/><path class="cls-7" d="M190.66,65.46a54.06,54.06,0,0,0,3-6.63,62.41,62.41,0,0,0,2.05-7v.07c-1.48,9.75-8.12,17.69-9.58,27.45h0l-.57-.12a67.43,67.43,0,0,1,2.07-7.08A53.76,53.76,0,0,1,190.66,65.46Z" transform="translate(0 -0.05)"/><path class="cls-6" d="M164.13,71.47c3.14-14.74,6.86-13.95,10-28.69" transform="translate(0 -0.05)"/><path class="cls-6" d="M169.41,57.26a56.39,56.39,0,0,0,2.87-7.08,65.6,65.6,0,0,0,1.85-7.4v.08c-1.55,10.16-8.46,18.44-10,28.61h0l.6.12a65.26,65.26,0,0,1,1.83-7.32A54.46,54.46,0,0,1,169.41,57.26Z" transform="translate(0 -0.05)"/><path class="cls-7" d="M168.86,57A55.64,55.64,0,0,0,172,50.08a67.88,67.88,0,0,0,2.14-7.3v.08c-1.55,10.16-8.46,18.44-10,28.61h0l-.59-.13A67.57,67.57,0,0,1,165.7,64,57.74,57.74,0,0,1,168.86,57Z" transform="translate(0 -0.05)"/><path class="cls-6" d="M147.35,48.68c1.33-5.07,2.45-10.19,3.43-15.32l0,.07c-2,10.25-5.43,20.16-7.44,30.41h0l.61.13C144.91,58.83,146,53.74,147.35,48.68Z" transform="translate(0 -0.05)"/><path class="cls-7" d="M146.75,48.51c1.52-5,2.84-10.06,4-15.15l0,.07c-2,10.25-5.43,20.16-7.44,30.41h0l-.61-.13C143.89,58.6,145.22,53.52,146.75,48.51Z" transform="translate(0 -0.05)"/><path class="cls-6" d="M155.5,50.48c1.33-5.07,2.45-10.19,3.43-15.32l0,.07c-2,10.25-5.42,20.16-7.44,30.4h0l.61.13C153.06,60.63,154.17,55.54,155.5,50.48Z" transform="translate(0 -0.05)"/><path class="cls-7" d="M154.9,50.31c1.52-5,2.84-10.06,4-15.15l0,.07c-2,10.25-5.42,20.16-7.44,30.4h0l-.61-.13C152.05,60.4,153.37,55.32,154.9,50.31Z" transform="translate(0 -0.05)"/><path class="cls-6" d="M163.61,52.21c.13-2.62.31-5.23.64-7.83s.77-5.18,1.26-7.76l0,.08c-2.54,10.2-1.84,20.85-4.4,31.05h0l.62.13c.48-2.59.93-5.19,1.26-7.8S163.48,54.83,163.61,52.21Z" transform="translate(0 -0.05)"/><path class="cls-7" d="M163,52.16c.23-2.61.51-5.23.95-7.82s1-5.16,1.56-7.72v.08c-2.54,10.2-1.84,20.85-4.4,31.05h0l-.61-.13c.58-2.55,1.13-5.1,1.56-7.68S162.75,54.77,163,52.16Z" transform="translate(0 -0.05)"/><path class="cls-6" d="M202.64,63.1c.11-2.33.27-4.66.57-7s.68-4.62,1.11-6.91v.06c-2.27,9.09-1.64,18.58-3.92,27.66h0l.55.12c.43-2.31.83-4.62,1.12-7S202.52,65.43,202.64,63.1Z" transform="translate(0 -0.05)"/><path class="cls-7" d="M202.08,63.06c.21-2.33.46-4.66.85-7s.87-4.6,1.39-6.87v.06c-2.27,9.09-1.64,18.58-3.92,27.66h0l-.54-.12c.52-2.26,1-4.54,1.38-6.83S201.87,65.38,202.08,63.06Z" transform="translate(0 -0.05)"/><path class="cls-6" d="M241.59,74c0-2,.1-4.09.32-6.13s.56-4.06.94-6.08l0,.06c-2.06,8-.9,16.37-3,24.35h0l.47.11c.38-2,.72-4.07.94-6.13A60.76,60.76,0,0,0,241.59,74Z" transform="translate(0 -0.05)"/><path class="cls-7" d="M241.1,74c.11-2,.26-4.12.57-6.15s.72-4,1.17-6v.06c-2.06,8-.9,16.37-3,24.35h0l-.47-.1c.45-2,.87-4,1.16-6A59.08,59.08,0,0,0,241.1,74Z" transform="translate(0 -0.05)"/><path class="cls-8" d="M244.56,69.26c0-2.65.12-5.28.41-7.91s.72-5.25,1.2-7.85v.08C243.49,63.88,245,74.69,242.32,85h0l.61.13c.49-2.62.93-5.25,1.21-7.9S244.53,71.91,244.56,69.26Z" transform="translate(0 -0.05)"/><path class="cls-9" d="M243.93,69.24a77.88,77.88,0,0,1,.73-7.93c.38-2.63.92-5.23,1.51-7.81v.08C243.49,63.88,245,74.69,242.32,85h0l-.61-.13c.58-2.57,1.12-5.15,1.5-7.76S243.79,71.88,243.93,69.24Z" transform="translate(0 -0.05)"/><path class="cls-2" d="M249.85,65.13c1.45-6.29,2.76-12.62,4-18.95l0,.09c-2.58,12.62-6.12,25-8.69,37.63h0l.75.16C247.08,77.73,248.39,71.42,249.85,65.13Z" transform="translate(0 -0.05)"/><path class="cls-3" d="M249.1,65c1.7-6.23,3.26-12.49,4.72-18.78v.1c-2.58,12.62-6.12,25-8.69,37.63h0l-.75-.16C245.83,77.45,247.39,71.17,249.1,65Z" transform="translate(0 -0.05)"/><path class="cls-2" d="M271.29,75.15c1.46-6.29,2.77-12.62,4-19l0,.09c-2.57,12.62-6.11,25-8.69,37.63h0l.76.16C268.53,87.75,269.84,81.44,271.29,75.15Z" transform="translate(0 -0.05)"/><path class="cls-3" d="M270.54,75c1.71-6.23,3.26-12.49,4.73-18.78l0,.1c-2.57,12.62-6.11,25-8.69,37.63h0l-.75-.16C267.28,87.47,268.84,81.19,270.54,75Z" transform="translate(0 -0.05)"/><path class="cls-2" d="M290.92,84.75c.84-6.4,1.91-12.76,3.14-19.1l0,.09c-2.86,12.57-4.13,25.43-7,38h0l.75.16C289,97.55,290.09,91.16,290.92,84.75Z" transform="translate(0 -0.05)"/><path class="cls-3" d="M290.16,84.63c1.09-6.37,2.42-12.7,3.89-19l0,.09c-2.86,12.57-4.13,25.43-7,38h0l-.76-.16C287.75,97.3,289.07,91,290.16,84.63Z" transform="translate(0 -0.05)"/><path class="cls-2" d="M306.51,89.33c.63-4.78,1.43-9.53,2.34-14.27v.08c-2.14,9.38-3.09,19-5.24,28.37h0l.56.12C305.08,98.89,305.89,94.12,306.51,89.33Z" transform="translate(0 -0.05)"/><path class="cls-3" d="M305.94,89.24c.82-4.75,1.81-9.48,2.91-14.18v.08c-2.14,9.38-3.09,19-5.24,28.37h0l-.56-.12C304.14,98.7,305.13,94,305.94,89.24Z" transform="translate(0 -0.05)"/><path class="cls-2" d="M322.63,94c.7-3.11,1.34-6.23,1.95-9.36l0,0c-1.27,6.22-3,12.36-4.25,18.58h0l.37.08C321.29,100.26,321.93,97.15,322.63,94Z" transform="translate(0 -0.05)"/><path class="cls-3" d="M322.26,94c.83-3.08,1.59-6.17,2.31-9.27v0c-1.27,6.22-3,12.36-4.25,18.58h0l-.37-.08C320.67,100.13,321.43,97,322.26,94Z" transform="translate(0 -0.05)"/><path class="cls-6" d="M287.3,99.47c2.5-11.74,2.85-11.67,5.35-23.41" transform="translate(0 -0.05)"/><path class="cls-8" d="M290.21,87.82c.88-3.9,1.69-7.83,2.44-11.76v.06c-1.61,7.82-3.74,15.53-5.34,23.35h0l.47.1C288.52,95.64,289.32,91.73,290.21,87.82Z" transform="translate(0 -0.05)"/><path class="cls-9" d="M289.74,87.71c1-3.87,2-7.75,2.91-11.65v.06c-1.61,7.82-3.74,15.53-5.34,23.35h0l-.47-.1C287.74,95.47,288.7,91.58,289.74,87.71Z" transform="translate(0 -0.05)"/><path class="cls-6" d="M253.38,95.44c3-14.14,2.95-14.16,6-28.3" transform="translate(0 -0.05)"/><polygon class="cls-6" points="256.65 81.3 259.35 67.1 259.33 67.17 253.38 95.39 253.38 95.39 253.94 95.51 256.65 81.3"/><polygon class="cls-7" points="256.08 81.18 259.35 67.1 259.33 67.17 253.38 95.39 253.38 95.39 252.82 95.27 256.08 81.18"/><path class="cls-6" d="M231.45,87.57c3.14-14.74,3.08-14.75,6.22-29.49" transform="translate(0 -0.05)"/><polygon class="cls-6" points="234.86 72.84 237.68 58.03 237.66 58.1 231.45 87.52 231.45 87.52 232.04 87.64 234.86 72.84"/><polygon class="cls-7" points="234.27 72.71 237.67 58.03 237.66 58.1 231.45 87.52 231.45 87.52 230.87 87.39 234.27 72.71"/><path class="cls-6" d="M214,64.68c.94-2.45,1.84-4.94,2.55-7.48s1.28-5.11,1.79-7.68l0,.07c-1.76,10.42-7.5,19.6-9.24,30h0l.61.13c.51-2.56,1.07-5.12,1.78-7.63S213.08,67.13,214,64.68Z" transform="translate(0 -0.05)"/><path class="cls-7" d="M213.44,64.44c1.05-2.41,2-4.83,2.84-7.33s1.47-5,2.08-7.6v.08c-1.76,10.42-7.5,19.6-9.24,30h0l-.62-.13c.62-2.57,1.29-5.13,2.1-7.65S212.4,66.86,213.44,64.44Z" transform="translate(0 -0.05)"/><path class="cls-6" d="M261.1,77.34c.85-2.19,1.65-4.4,2.28-6.66s1.13-4.55,1.59-6.85l0,.07c-1.56,9.28-6.68,17.46-8.23,26.74h0l.55.11c.45-2.28,1-4.56,1.58-6.8S260.26,79.52,261.1,77.34Z" transform="translate(0 -0.05)"/><path class="cls-7" d="M260.59,77.13c.92-2.15,1.8-4.31,2.52-6.53s1.31-4.49,1.86-6.77l0,.07c-1.56,9.28-6.68,17.46-8.23,26.74h0l-.54-.12c.54-2.29,1.14-4.57,1.87-6.81S259.66,79.28,260.59,77.13Z" transform="translate(0 -0.05)"/><path class="cls-6" d="M307.25,89.76q1.26-6,2.41-12v.06c-1.67,8-3.62,15.89-5.29,23.87h0l.48.1Q306,95.76,307.25,89.76Z" transform="translate(0 -0.05)"/><path class="cls-7" d="M306.77,89.65q1.5-5.94,2.89-11.91v.06c-1.67,8-3.62,15.89-5.29,23.87h0l-.47-.1C304.82,97.59,305.77,93.61,306.77,89.65Z" transform="translate(0 -0.05)"/><path class="cls-8" d="M161.49,56.56q1.63-7.73,3.11-15.5l0,.08c-2.15,10.29-4.66,20.5-6.81,30.79h0l.61.13C159.38,66.88,160.4,61.72,161.49,56.56Z" transform="translate(0 -0.05)"/><path class="cls-9" d="M160.88,56.42q1.94-7.66,3.72-15.36l0,.08c-2.15,10.29-4.66,20.5-6.81,30.79h0l-.62-.14Q159,64.1,160.88,56.42Z" transform="translate(0 -0.05)"/><path class="cls-2" d="M18.12,23.9C19.89,17.68,21.33,11.37,22.54,5l0,.1C20.08,17.79,15.4,29.89,13,42.57h0l.75.16C14.93,36.39,16.35,30.12,18.12,23.9Z" transform="translate(0 -0.05)"/><path class="cls-3" d="M17.38,23.68c2-6.13,3.69-12.36,5.16-18.66l0,.1C20.08,17.79,15.4,29.89,13,42.57h0l-.75-.16C13.68,36.1,15.37,29.83,17.38,23.68Z" transform="translate(0 -0.05)"/><path class="cls-2" d="M33.3,28.38c1.32-4.64,2.39-9.36,3.3-14.1l0,.07c-1.82,9.47-5.32,18.5-7.13,28h0l.56.12C30.91,37.71,32,33,33.3,28.38Z" transform="translate(0 -0.05)"/><path class="cls-3" d="M32.74,28.22c1.51-4.58,2.76-9.24,3.85-13.94v.07c-1.82,9.47-5.32,18.5-7.13,28h0l-.57-.12C30,37.49,31.24,32.81,32.74,28.22Z" transform="translate(0 -0.05)"/><path class="cls-2" d="M48,32.73c.39-3.16.91-6.3,1.51-9.44v.05c-1.42,6.2-2,12.57-3.39,18.77h0l.37.08C47.07,39.06,47.6,35.9,48,32.73Z" transform="translate(0 -0.05)"/><path class="cls-3" d="M47.61,32.67c.51-3.15,1.15-6.27,1.88-9.38v.05c-1.42,6.2-2,12.57-3.39,18.77h0L45.72,42C46.45,38.93,47.09,35.82,47.61,32.67Z" transform="translate(0 -0.05)"/><path class="cls-4" d="M64.68,47c3.07-14.44,2.17-14.63,5.25-29.07" transform="translate(0 -0.05)"/><path class="cls-4" d="M80.48,51.19c4.16-19.53,4.21-19.52,8.37-39" transform="translate(0 -0.05)"/><path class="cls-4" d="M55,45.77C58.38,30,58.42,30,61.78,14.26" transform="translate(0 -0.05)"/><polygon class="cls-6" points="58.9 30.07 61.78 14.21 61.76 14.29 55.02 45.72 55.03 45.72 56.01 45.93 58.9 30.07"/><polygon class="cls-7" points="57.91 29.86 61.77 14.21 61.76 14.29 55.02 45.72 55.02 45.72 54.04 45.51 57.91 29.86"/><path class="cls-6" d="M32.6,28.44c.43-4.06,1.07-8.1,1.84-12.11v.06c-1.86,8-2.3,16.15-4.16,24.1h0l.47.1C31.52,36.57,32.17,32.51,32.6,28.44Z" transform="translate(0 -0.05)"/><path class="cls-7" d="M32.11,28.38c.59-4.05,1.4-8.07,2.33-12v.06c-1.86,8-2.3,16.15-4.16,24.1h0l-.48-.1C30.73,36.42,31.52,32.42,32.11,28.38Z" transform="translate(0 -0.05)"/><path class="cls-8" d="M35.45,23.72c.56-5.24,1.38-10.44,2.39-15.63l0,.08c-2.4,10.26-3,20.84-5.37,31.1h0l.61.13C34.07,34.21,34.9,29,35.45,23.72Z" transform="translate(0 -0.05)"/><path class="cls-9" d="M34.83,23.64c.76-5.23,1.8-10.41,3-15.55v.08c-2.4,10.26-3,20.84-5.37,31.1h0l-.62-.14C33,34,34.07,28.86,34.83,23.64Z" transform="translate(0 -0.05)"/><path class="cls-2" d="M39,19.16c.81-6.41,1.87-12.77,3.1-19.11l0,.09c-2.87,12.57-4.07,25.44-7,38h0l.75.16C37.12,32,38.19,25.57,39,19.16Z" transform="translate(0 -0.05)"/><path class="cls-3" d="M38.24,19c1.07-6.37,2.39-12.71,3.87-19l0,.09c-2.87,12.57-4.07,25.44-7,38h0L34.38,38C35.86,31.71,37.18,25.41,38.24,19Z" transform="translate(0 -0.05)"/><path class="cls-2" d="M60.45,29.18c.82-6.41,1.88-12.77,3.11-19.11l0,.09c-2.87,12.57-4.08,25.44-6.95,38h0l.75.16C58.57,42,59.64,35.59,60.45,29.18Z" transform="translate(0 -0.05)"/><path class="cls-3" d="M59.69,29.06c1.07-6.37,2.39-12.71,3.86-19v.09c-2.87,12.57-4.08,25.44-6.95,38h0L55.83,48C57.31,41.73,58.62,35.43,59.69,29.06Z" transform="translate(0 -0.05)"/><path class="cls-2" d="M83.32,39.49c.71-6.41,1.73-12.78,3-19.13l0,.1C83.34,33,82.52,46,79.59,58.52h0l.75.16C81.58,52.33,82.61,45.92,83.32,39.49Z" transform="translate(0 -0.05)"/><path class="cls-3" d="M82.55,39.39c1-6.4,2.25-12.74,3.73-19l0,.1C83.34,33,82.52,46,79.59,58.52h0l-.75-.16C80.32,52.08,81.59,45.77,82.55,39.39Z" transform="translate(0 -0.05)"/><path class="cls-2" d="M98.65,44c.53-4.79,1.3-9.55,2.21-14.29v.07c-2.18,9.39-2.79,19.05-5,28.43h0l.56.12C97.35,53.61,98.12,48.82,98.65,44Z" transform="translate(0 -0.05)"/><path class="cls-3" d="M98.08,43.94c.72-4.77,1.68-9.51,2.78-14.21v.07c-2.18,9.39-2.79,19.05-5,28.43h0l-.56-.12C96.41,53.42,97.36,48.71,98.08,43.94Z" transform="translate(0 -0.05)"/><path class="cls-2" d="M113.66,48.47A75.59,75.59,0,0,1,114.94,39v0c-1.51,6.21-1.42,12.66-2.93,18.87h0l.37.08A78.32,78.32,0,0,0,113.66,48.47Z" transform="translate(0 -0.05)"/><path class="cls-3" d="M113.28,48.44A75.17,75.17,0,0,1,114.94,39v0c-1.51,6.21-1.42,12.66-2.93,18.87h0l-.37-.08A76.54,76.54,0,0,0,113.28,48.44Z" transform="translate(0 -0.05)"/><path class="cls-4" d="M130.63,62.76c3.08-14.44,1.46-14.78,4.54-29.22" transform="translate(0 -0.05)"/><path class="cls-4" d="M148.44,67.43c4.17-19.53,6.32-19.07,10.49-38.6" transform="translate(0 -0.05)"/><path class="cls-5" d="M97,58.78c3.59-16.83,5.45-16.44,9-33.27" transform="translate(0 -0.05)"/><path class="cls-6" d="M102,42.32c.83-2.76,1.62-5.54,2.27-8.35s1.22-5.63,1.74-8.46l0,.08c-2.09,11.32-6.94,21.88-9,33.19h0l1.06.23c.52-2.82,1.07-5.62,1.72-8.4S101.2,45.07,102,42.32Z" transform="translate(0 -0.05)"/><path class="cls-7" d="M101,42c1-2.7,2-5.4,2.77-8.15s1.57-5.53,2.26-8.32v.08c-2.09,11.32-6.94,21.88-9,33.19h0l-1.06-.22c.7-2.81,1.44-5.6,2.27-8.38S100,44.67,101,42Z" transform="translate(0 -0.05)"/><path class="cls-6" d="M43.94,49.79c3-14.13,5.28-13.65,8.3-27.79" transform="translate(0 -0.05)"/><path class="cls-6" d="M48.36,36c.83-2.27,1.63-4.57,2.26-6.92s1.15-4.71,1.62-7.08l0,.07c-1.65,9.57-6.64,18.15-8.28,27.72h0l.57.13c.46-2.37,1-4.72,1.6-7.05S47.52,38.27,48.36,36Z" transform="translate(0 -0.05)"/><path class="cls-7" d="M47.82,35.79c.92-2.23,1.8-4.48,2.52-6.79s1.33-4.65,1.89-7v.07c-1.65,9.57-6.64,18.15-8.28,27.72h0l-.57-.12c.57-2.36,1.18-4.72,1.91-7S46.89,38,47.82,35.79Z" transform="translate(0 -0.05)"/><path class="cls-6" d="M22,41.92c3.14-14.74,5.51-14.23,8.65-29" transform="translate(0 -0.05)"/><path class="cls-6" d="M26.58,27.54c.87-2.37,1.7-4.77,2.36-7.21s1.2-4.91,1.69-7.38l0,.07C28.89,23,23.69,31.94,22,41.92h0l.59.13c.49-2.47,1-4.92,1.68-7.34S25.72,29.91,26.58,27.54Z" transform="translate(0 -0.05)"/><path class="cls-7" d="M26,27.32c1-2.33,1.88-4.67,2.63-7.07s1.39-4.85,2-7.3l0,.07C28.89,23,23.69,31.94,22,41.92h0l-.59-.13c.59-2.46,1.22-4.92,2-7.34S25.06,29.66,26,27.32Z" transform="translate(0 -0.05)"/><path class="cls-6" d="M5.19,19.15c.83-2.48,1.62-5,2.27-7.54S8.66,6.5,9.17,3.93l0,.07C7.3,14.34,2.46,23.83.61,34.17h0l.61.13c.51-2.56,1.05-5.12,1.7-7.64S4.35,21.64,5.19,19.15Z" transform="translate(0 -0.05)"/><path class="cls-7" d="M4.59,18.94c.93-2.45,1.82-4.91,2.57-7.42s1.4-5,2-7.59l0,.07C7.3,14.34,2.46,23.83.61,34.17h0L0,34c.61-2.56,1.26-5.11,2-7.64S3.66,21.39,4.59,18.94Z" transform="translate(0 -0.05)"/><path class="cls-6" d="M52.29,31.82a96.54,96.54,0,0,0,3.54-13.56v.06c-1.65,9.21-6,17.66-7.61,26.87h0l.55.12A95.23,95.23,0,0,1,52.29,31.82Z" transform="translate(0 -0.05)"/><path class="cls-7" d="M51.76,31.63a95.46,95.46,0,0,0,4.07-13.37v.06c-1.65,9.21-6,17.66-7.61,26.87h0l-.54-.11c.54-2.28,1.12-4.56,1.79-6.8S50.93,33.81,51.76,31.63Z" transform="translate(0 -0.05)"/><path class="cls-6" d="M98.46,44.29a80.41,80.41,0,0,0,3.15-11.89v.06c-1.44,8.08-5.33,15.46-6.76,23.55h0l.48.1A78.3,78.3,0,0,1,98.46,44.29Z" transform="translate(0 -0.05)"/><path class="cls-7" d="M98,44.12a81,81,0,0,0,3.61-11.72v.06c-1.44,8.08-5.33,15.46-6.76,23.55h0l-.48-.1A80.38,80.38,0,0,1,98,44.12Z" transform="translate(0 -0.05)"/><path class="cls-8" d="M79.77,33.24c.86-2.51,1.67-5,2.34-7.6s1.22-5.15,1.73-7.74l0,.08C82,28.41,77,37.92,75.11,48.36h0l.61.13c.51-2.58,1.06-5.16,1.73-7.7S78.91,35.74,79.77,33.24Z" transform="translate(0 -0.05)"/><path class="cls-9" d="M79.17,33c1-2.46,1.87-4.94,2.63-7.46s1.42-5.09,2-7.66l0,.08C82,28.41,77,37.92,75.11,48.36h0l-.62-.13c.62-2.59,1.27-5.16,2.05-7.7S78.22,35.49,79.17,33Z" transform="translate(0 -0.05)"/><path class="cls-2" d="M60.82,22.09c1.49-6.28,2.82-12.61,4-18.95l0,.1c-2.56,12.62-6.24,25-8.8,37.61h0l.75.16C58,34.67,59.32,28.37,60.82,22.09Z" transform="translate(0 -0.05)"/><path class="cls-3" d="M60.07,21.9c1.74-6.21,3.31-12.47,4.78-18.76l0,.1c-2.56,12.62-6.24,25-8.8,37.61h0l-.75-.16C56.75,34.39,58.33,28.12,60.07,21.9Z" transform="translate(0 -0.05)"/><path class="cls-2" d="M82.26,32.11c1.5-6.28,2.83-12.61,4-18.95l0,.1c-2.56,12.62-6.24,25-8.8,37.61h0l.76.16C79.45,44.69,80.77,38.39,82.26,32.11Z" transform="translate(0 -0.05)"/><path class="cls-3" d="M81.52,31.92c1.74-6.21,3.31-12.47,4.78-18.76l0,.1c-2.56,12.62-6.24,25-8.8,37.61h0l-.75-.16C78.2,44.42,79.77,38.14,81.52,31.92Z" transform="translate(0 -0.05)"/><polygon class="cls-2" points="105.86 42.53 109.55 23.52 109.53 23.61 101.41 61.37 101.41 61.37 102.17 61.53 105.86 42.53"/><polygon class="cls-3" points="105.1 42.36 109.54 23.52 109.53 23.61 101.41 61.37 101.41 61.37 100.66 61.21 105.1 42.36"/><polygon class="cls-2" points="121.23 47.05 123.99 32.86 123.97 32.93 117.91 61.13 117.91 61.13 118.47 61.25 121.23 47.05"/><polygon class="cls-3" points="120.67 46.93 123.98 32.86 123.97 32.93 117.91 61.13 117.91 61.13 117.35 61.01 120.67 46.93"/><path class="cls-2" d="M136,51.49q.83-4.69,1.74-9.39v0c-1.35,6.21-2.5,12.47-3.85,18.68h0l.37.08Q135.15,56.21,136,51.49Z" transform="translate(0 -0.05)"/><path class="cls-3" d="M135.6,51.42c.68-3.11,1.39-6.22,2.11-9.32v0c-1.35,6.21-2.5,12.47-3.85,18.68h0l-.37-.08Q134.58,56.09,135.6,51.42Z" transform="translate(0 -0.05)"/><path class="cls-4" d="M152,65.57c3.07-14.44,2.87-14.48,6-28.92" transform="translate(0 -0.05)"/><path class="cls-4" d="M169.77,70.22c4.16-19.53,3.89-19.58,8.06-39.12" transform="translate(0 -0.05)"/><path class="cls-5" d="M118.51,61.62c3.58-16.84,3.35-16.89,6.94-33.72" transform="translate(0 -0.05)"/><path class="cls-6" d="M122.51,44.86q1.39-8.49,2.94-17l0,.08c-2.42,11.19-4.5,22.45-6.92,33.64h0l1,.22Q121.09,53.36,122.51,44.86Z" transform="translate(0 -0.05)"/><path class="cls-7" d="M121.45,44.65q1.92-8.4,4-16.76l0,.09c-2.42,11.19-4.5,22.45-6.92,33.64h0l-1-.23Q119.51,53,121.45,44.65Z" transform="translate(0 -0.05)"/><path class="cls-6" d="M66.44,52.84c3-14.14,4.34-13.86,7.35-28" transform="translate(0 -0.05)"/><path class="cls-6" d="M70.39,38.92a136.11,136.11,0,0,0,3.4-14.08l0,.07C72,34.39,68.22,43.35,66.44,52.84h0L67,53A135.33,135.33,0,0,1,70.39,38.92Z" transform="translate(0 -0.05)"/><path class="cls-7" d="M69.84,38.75a139.49,139.49,0,0,0,4-13.91l0,.07C72,34.39,68.22,43.35,66.44,52.84h0l-.56-.12A140,140,0,0,1,69.84,38.75Z" transform="translate(0 -0.05)"/><path class="cls-6" d="M44.47,45C47.61,30.22,49,30.51,52.13,15.78" transform="translate(0 -0.05)"/><path class="cls-6" d="M48.59,30.46a145.83,145.83,0,0,0,3.54-14.68v.07C50.25,25.73,46.33,35.07,44.47,45h0l.58.12A144.06,144.06,0,0,1,48.59,30.46Z" transform="translate(0 -0.05)"/><path class="cls-7" d="M48,30.28a145.21,145.21,0,0,0,4.12-14.5v.07C50.25,25.73,46.33,35.07,44.47,45h0l-.59-.13A146.19,146.19,0,0,1,48,30.28Z" transform="translate(0 -0.05)"/><path class="cls-6" d="M28,22.17a76.33,76.33,0,0,1,.4-7.86c.27-2.6.7-5.2,1.18-7.78V6.6c-2.65,10.23-1.13,21-3.79,31.19h0l.62.13c.48-2.6.91-5.21,1.19-7.84S28,24.8,28,22.17Z" transform="translate(0 -0.05)"/><path class="cls-7" d="M27.39,22.15c.13-2.63.32-5.27.71-7.87S29,9.09,29.6,6.53V6.6c-2.65,10.23-1.13,21-3.79,31.19h0l-.61-.13c.58-2.55,1.11-5.12,1.49-7.7S27.26,24.77,27.39,22.15Z" transform="translate(0 -0.05)"/><path class="cls-6" d="M36.17,24c0-2.63.11-5.25.4-7.86s.7-5.2,1.19-7.78l0,.07c-2.65,10.23-1.12,21-3.79,31.19h0l.62.13c.48-2.6.92-5.21,1.19-7.84S36.14,26.6,36.17,24Z" transform="translate(0 -0.05)"/><path class="cls-7" d="M35.54,24c.13-2.63.32-5.27.71-7.87s.92-5.19,1.5-7.75V8.4c-2.65,10.23-1.12,21-3.79,31.19h0l-.61-.13c.58-2.55,1.11-5.12,1.49-7.7A78.13,78.13,0,0,0,35.54,24Z" transform="translate(0 -0.05)"/><path class="cls-6" d="M43.57,25.72c.94-2.46,1.83-4.95,2.53-7.49s1.27-5.1,1.78-7.68l0,.07c-1.76,10.41-7.42,19.63-9.17,30h0l.61.13c.51-2.57,1.07-5.12,1.77-7.64S42.64,28.18,43.57,25.72Z" transform="translate(0 -0.05)"/><path class="cls-7" d="M43,25.49c1-2.42,2-4.85,2.81-7.35s1.46-5,2.08-7.59l0,.07c-1.76,10.41-7.42,19.63-9.17,30h0l-.61-.13c.62-2.57,1.28-5.13,2.1-7.65S42,27.9,43,25.49Z" transform="translate(0 -0.05)"/><path class="cls-6" d="M82.59,36.6c.84-2.19,1.63-4.41,2.25-6.67s1.13-4.55,1.59-6.84l0,.06c-1.57,9.27-6.61,17.48-8.17,26.75h0l.54.12c.46-2.29,1-4.56,1.58-6.8S81.76,38.78,82.59,36.6Z" transform="translate(0 -0.05)"/><path class="cls-7" d="M82.07,36.39c.92-2.15,1.79-4.31,2.5-6.54s1.31-4.49,1.85-6.76v.06c-1.57,9.27-6.61,17.48-8.17,26.75h0l-.55-.11c.55-2.29,1.14-4.57,1.87-6.81S81.15,38.54,82.07,36.39Z" transform="translate(0 -0.05)"/><path class="cls-6" d="M120.53,47.21q1.27-6,2.43-12l0,.06c-1.66,8-3.65,15.88-5.31,23.86h0l.48.1Q119.26,53.2,120.53,47.21Z" transform="translate(0 -0.05)"/><path class="cls-7" d="M120.06,47.1q1.51-5.94,2.9-11.91l0,.06c-1.66,8-3.65,15.88-5.31,23.86h0l-.48-.1Q118.54,53,120.06,47.1Z" transform="translate(0 -0.05)"/><path class="cls-8" d="M123.22,42.46q1.65-7.74,3.13-15.5l0,.08c-2.14,10.29-4.71,20.48-6.85,30.77h0l.61.14C121.09,52.77,122.12,47.61,123.22,42.46Z" transform="translate(0 -0.05)"/><path class="cls-9" d="M122.61,42.32q2-7.66,3.74-15.36l0,.08c-2.14,10.29-4.71,20.48-6.85,30.77h0l-.61-.13Q120.66,50,122.61,42.32Z" transform="translate(0 -0.05)"/><path class="cls-2" d="M128.05,38.08a89.84,89.84,0,0,1,.32-9.71c.31-3.23.83-6.44,1.43-9.63l0,.09c-3.34,12.65-.88,25.93-4.24,38.58h0l.76.16c.59-3.21,1.12-6.44,1.43-9.7A89,89,0,0,0,128.05,38.08Z" transform="translate(0 -0.05)"/><path class="cls-3" d="M127.27,38.07a88.45,88.45,0,0,1,.72-9.75c.43-3.23,1.08-6.42,1.8-9.58l0,.09c-3.34,12.65-.88,25.93-4.24,38.58h0l-.76-.16c.72-3.15,1.36-6.32,1.79-9.51A86.47,86.47,0,0,0,127.27,38.07Z" transform="translate(0 -0.05)"/><path class="cls-2" d="M149.5,48.1a87.35,87.35,0,0,1,.32-9.71c.31-3.23.83-6.44,1.42-9.63l0,.09c-3.34,12.65-.88,25.94-4.25,38.58h0l.75.16c.6-3.21,1.13-6.44,1.44-9.7A91.59,91.59,0,0,0,149.5,48.1Z" transform="translate(0 -0.05)"/><path class="cls-3" d="M148.72,48.09a90.94,90.94,0,0,1,.71-9.75c.44-3.22,1.09-6.41,1.81-9.58l0,.09c-3.34,12.65-.88,25.94-4.25,38.58h0l-.75-.16c.71-3.15,1.36-6.32,1.79-9.51A88.91,88.91,0,0,0,148.72,48.09Z" transform="translate(0 -0.05)"/><path class="cls-2" d="M171.9,58.39q1.65-9.53,3.49-19l0,.1c-2.73,12.58-5,25.26-7.73,37.84h0l.75.16Q170.24,67.94,171.9,58.39Z" transform="translate(0 -0.05)"/><path class="cls-3" d="M171.14,58.25c1.35-6.32,2.78-12.61,4.25-18.9l0,.1c-2.73,12.58-5,25.26-7.73,37.84h0l-.75-.16C168.36,70.84,169.78,64.56,171.14,58.25Z" transform="translate(0 -0.05)"/><path class="cls-2" d="M218.74,68.32q1.66-9.54,3.5-19l0,.09c-2.74,12.58-5,25.26-7.73,37.84h0l.75.16C216.46,81,217.64,74.68,218.74,68.32Z" transform="translate(0 -0.05)"/><path class="cls-3" d="M218,68.17c1.35-6.31,2.78-12.61,4.25-18.89l0,.09c-2.74,12.58-5,25.26-7.73,37.84h0l-.75-.16Q215.95,77.63,218,68.17Z" transform="translate(0 -0.05)"/><path class="cls-2" d="M265.35,78.12a95.25,95.25,0,0,1,.43-9.7c.33-3.22.86-6.43,1.45-9.62l0,.1c-3.3,12.63-1.2,25.89-4.51,38.52h0l.76.16c.59-3.21,1.13-6.43,1.46-9.68A97.09,97.09,0,0,0,265.35,78.12Z" transform="translate(0 -0.05)"/><path class="cls-3" d="M264.58,78.1a96,96,0,0,1,.81-9.72c.46-3.23,1.12-6.41,1.84-9.58l0,.1c-3.3,12.63-1.2,25.89-4.51,38.52h0l-.76-.16c.72-3.15,1.37-6.31,1.82-9.5A94.13,94.13,0,0,0,264.58,78.1Z" transform="translate(0 -0.05)"/><path class="cls-2" d="M233.88,72.75c0-2.42.07-4.84.32-7.25s.64-4.8,1.09-7.18l0,.07c-2.46,9.44-.89,19.34-3.37,28.77h0l.56.12c.45-2.39.85-4.8,1.1-7.23A71.43,71.43,0,0,0,233.88,72.75Z" transform="translate(0 -0.05)"/><path class="cls-3" d="M233.3,72.73a70.6,70.6,0,0,1,.61-7.26c.34-2.41.83-4.79,1.37-7.15v.07c-2.46,9.44-.89,19.34-3.37,28.77h0l-.57-.12c.54-2.35,1-4.71,1.36-7.1A68.94,68.94,0,0,0,233.3,72.73Z" transform="translate(0 -0.05)"/><path class="cls-2" d="M202,67.29a45.71,45.71,0,0,1,.92-9.54v0c-1.64,6.24-.56,12.79-2.2,19h0l.37.08c.3-1.58.56-3.17.72-4.78A43.45,43.45,0,0,0,202,67.29Z" transform="translate(0 -0.05)"/><path class="cls-3" d="M201.64,67.28a45.44,45.44,0,0,1,.39-4.8c.23-1.59.55-3.17.9-4.73v0c-1.64,6.24-.56,12.79-2.2,19h0l-.37-.08A45.55,45.55,0,0,0,201.64,67.28Z" transform="translate(0 -0.05)"/><path class="cls-6" d="M167.85,73c2.5-11.74.27-12.22,2.77-24" transform="translate(0 -0.05)"/><path class="cls-8" d="M169.48,61a54.81,54.81,0,0,1,.25-6c.2-2,.52-4,.89-6v.06c-2.05,7.84-.7,16.06-2.76,23.9h0l.47.1c.37-2,.7-4,.9-6A58.68,58.68,0,0,0,169.48,61Z" transform="translate(0 -0.05)"/><path class="cls-9" d="M169,61a58.12,58.12,0,0,1,.5-6c.28-2,.68-4,1.13-5.94v.06c-2.05,7.84-.7,16.06-2.76,23.9h0l-.47-.1c.45-2,.85-3.92,1.13-5.9A56.68,56.68,0,0,0,169,61Z" transform="translate(0 -0.05)"/><path class="cls-6" d="M135.39,69.29c3-14.14,3.14-14.12,6.15-28.26" transform="translate(0 -0.05)"/><polygon class="cls-6" points="138.75 55.17 141.54 40.99 141.53 41.06 135.39 69.24 135.39 69.24 135.96 69.36 138.75 55.17"/><polygon class="cls-7" points="138.19 55.05 141.54 40.98 141.53 41.06 135.39 69.24 135.39 69.24 134.83 69.12 138.19 55.05"/><path class="cls-6" d="M113.56,61.44C116.7,46.7,116.82,46.73,120,32" transform="translate(0 -0.05)"/><polygon class="cls-6" points="117.05 46.73 119.97 31.94 119.95 32.01 113.56 61.39 113.56 61.39 114.14 61.52 117.05 46.73"/><polygon class="cls-7" points="116.47 46.6 119.96 31.94 119.95 32.01 113.56 61.39 113.56 61.39 112.97 61.27 116.47 46.6"/><path class="cls-6" d="M91.91,37.58c.68-5.19,1.55-10.34,2.54-15.48v.08C92.12,32.36,91.07,42.78,88.75,53h0l.61.13C90.36,48,91.23,42.77,91.91,37.58Z" transform="translate(0 -0.05)"/><path class="cls-7" d="M91.29,37.48c.89-5.16,2-10.29,3.16-15.38v.08C92.12,32.36,91.07,42.78,88.75,53h0l-.61-.13C89.34,47.74,90.41,42.64,91.29,37.48Z" transform="translate(0 -0.05)"/><path class="cls-6" d="M139.21,50.29c.6-4.62,1.38-9.21,2.26-13.78v.07c-2.07,9.06-3,18.34-5.07,27.41h0l.54.11C137.82,59.52,138.6,54.91,139.21,50.29Z" transform="translate(0 -0.05)"/><path class="cls-7" d="M138.66,50.21c.78-4.6,1.74-9.17,2.81-13.7v.07c-2.07,9.06-3,18.34-5.07,27.41h0l-.54-.12C136.91,59.34,137.87,54.8,138.66,50.21Z" transform="translate(0 -0.05)"/><path class="cls-6" d="M187.76,63.31c1.16-3.93,2.08-7.93,2.85-11.94l0,.05c-1.53,8-4.63,15.65-6.15,23.69h0l.48.1C185.69,71.2,186.6,67.23,187.76,63.31Z" transform="translate(0 -0.05)"/><path class="cls-7" d="M187.29,63.16c1.31-3.87,2.39-7.81,3.31-11.8v.06c-1.53,8-4.63,15.65-6.15,23.69h0L184,75C184.89,71,186,67,187.29,63.16Z" transform="translate(0 -0.05)"/><path class="cls-8" d="M203.35,65.88c1-3.5,1.85-7.06,2.53-10.63v0c-1.36,7.15-4.12,13.93-5.47,21.08h0l.42.09C201.51,72.9,202.32,69.37,203.35,65.88Z" transform="translate(0 -0.05)"/><path class="cls-9" d="M202.93,65.75a109,109,0,0,0,2.95-10.5v0c-1.36,7.15-4.12,13.93-5.47,21.08h0l-.43-.09C200.8,72.73,201.76,69.2,202.93,65.75Z" transform="translate(0 -0.05)"/><path class="cls-2" d="M218.45,68.34c.86-3.08,1.56-6.2,2.16-9.33v.05c-1.21,6.25-3.48,12.24-4.68,18.49h0l.37.08C216.89,74.51,217.58,71.41,218.45,68.34Z" transform="translate(0 -0.05)"/><path class="cls-3" d="M218.08,68.23c1-3,1.81-6.11,2.53-9.22v.05c-1.21,6.25-3.48,12.24-4.68,18.49h0l-.37-.07C216.27,74.36,217.1,71.27,218.08,68.23Z" transform="translate(0 -0.05)"/><path class="cls-4" d="M233.76,82.24C236.84,67.8,237.94,68,241,53.59" transform="translate(0 -0.05)"/><path class="cls-4" d="M253.13,87.24c4.16-19.53,4.63-19.43,8.79-39" transform="translate(0 -0.05)"/><path class="cls-4" d="M227.39,81.75c3.36-15.75,3.73-15.67,7.09-31.43" transform="translate(0 -0.05)"/><path class="cls-6" d="M231.43,66.15q1.63-7.89,3-15.83l0,.08c-2.17,10.49-4.9,20.86-7.07,31.35h0l1,.21Q229.81,74,231.43,66.15Z" transform="translate(0 -0.05)"/><path class="cls-7" d="M230.44,65.92c1.42-5.18,2.75-10.38,4-15.6l0,.08c-2.17,10.49-4.9,20.86-7.07,31.35h0l-1-.21C227.68,76.32,229,71.1,230.44,65.92Z" transform="translate(0 -0.05)"/><path class="cls-6" d="M204,64.23c.45-4.06,1.1-8.1,1.88-12.11l0,.06c-1.85,8-2.36,16.14-4.21,24.09h0l.47.1C202.92,72.35,203.58,68.3,204,64.23Z" transform="translate(0 -0.05)"/><path class="cls-7" d="M203.54,64.16c.61-4,1.42-8.06,2.36-12l0,.06c-1.85,8-2.36,16.14-4.21,24.09h0l-.48-.1C202.13,72.2,202.93,68.2,203.54,64.16Z" transform="translate(0 -0.05)"/><path class="cls-8" d="M207,59.52c.57-5.23,1.41-10.44,2.41-15.62l0,.08c-2.38,10.26-3,20.82-5.43,31.08h0l.61.13C205.54,70,206.38,64.77,207,59.52Z" transform="translate(0 -0.05)"/><path class="cls-9" d="M206.33,59.44c.79-5.22,1.83-10.41,3-15.54l0,.08c-2.38,10.26-3,20.82-5.43,31.08h0l-.61-.13C204.51,69.8,205.55,64.65,206.33,59.44Z" transform="translate(0 -0.05)"/><path class="cls-2" d="M212.63,55.46c1.64-6.26,3-12.58,4.23-18.92l0,.1c-2.49,12.65-6.7,24.87-9.19,37.52h0l.75.16C209.61,68,211,61.7,212.63,55.46Z" transform="translate(0 -0.05)"/><path class="cls-3" d="M211.88,55.25c1.89-6.17,3.51-12.42,5-18.71l0,.1c-2.49,12.65-6.7,24.87-9.19,37.52h0l-.76-.16C208.36,67.71,210,61.43,211.88,55.25Z" transform="translate(0 -0.05)"/><path class="cls-2" d="M234.07,65.48c1.64-6.25,3-12.58,4.24-18.92l0,.1c-2.5,12.65-6.71,24.87-9.2,37.52h0l.75.16C231.06,78,232.44,71.72,234.07,65.48Z" transform="translate(0 -0.05)"/><path class="cls-3" d="M233.33,65.27c1.88-6.17,3.51-12.42,5-18.71l0,.1c-2.5,12.65-6.71,24.87-9.2,37.52h0l-.75-.16C229.81,77.73,231.44,71.45,233.33,65.27Z" transform="translate(0 -0.05)"/><path class="cls-2" d="M253.63,75.08c1.45-6.29,2.76-12.62,4-19l0,.1c-2.58,12.62-6.1,25-8.67,37.64h0l.75.16C250.88,87.68,252.18,81.37,253.63,75.08Z" transform="translate(0 -0.05)"/><path class="cls-3" d="M252.88,74.9c1.7-6.23,3.25-12.49,4.72-18.78l0,.1c-2.58,12.62-6.1,25-8.67,37.64h0l-.76-.16C249.62,87.4,251.18,81.13,252.88,74.9Z" transform="translate(0 -0.05)"/><path class="cls-2" d="M269.18,79.65c1.08-4.7,2.06-9.43,3-14.16l0,.07c-1.93,9.42-4.55,18.68-6.48,28.11h0l.56.12C267.12,89.06,268.1,84.34,269.18,79.65Z" transform="translate(0 -0.05)"/><path class="cls-3" d="M268.62,79.51c1.27-4.65,2.43-9.33,3.52-14v.07c-1.93,9.42-4.55,18.68-6.48,28.11h0l-.56-.12C266.19,88.85,267.35,84.16,268.62,79.51Z" transform="translate(0 -0.05)"/><path class="cls-2" d="M285.66,84.41c.79-3.09,1.46-6.21,2.06-9.34v.05c-1.24,6.24-3.24,12.29-4.48,18.54h0l.37.07C284.2,90.61,284.87,87.5,285.66,84.41Z" transform="translate(0 -0.05)"/><path class="cls-3" d="M285.29,84.31c.91-3,1.7-6.14,2.43-9.24v.05c-1.24,6.24-3.24,12.29-4.48,18.54h0l-.37-.08C283.58,90.47,284.38,87.37,285.29,84.31Z" transform="translate(0 -0.05)"/><path class="cls-4" d="M301.9,98.51c3.07-14.44,3.85-14.27,6.93-28.71" transform="translate(0 -0.05)"/><path class="cls-4" d="M321.1,103.48C325.26,84,324.85,83.86,329,64.33" transform="translate(0 -0.05)"/><path class="cls-5" d="M269.44,94.79C273,78,272.68,77.88,276.26,61" transform="translate(0 -0.05)"/><path class="cls-6" d="M273.38,78q1.33-8.51,2.89-17l0,.09c-2.45,11.18-4.36,22.47-6.81,33.66h0l1.06.22Q272,86.54,273.38,78Z" transform="translate(0 -0.05)"/><path class="cls-7" d="M272.32,77.81c1.24-5.6,2.57-11.2,3.94-16.77v.09c-2.45,11.18-4.36,22.47-6.81,33.66h0l-1.06-.23C269.76,89,271.08,83.42,272.32,77.81Z" transform="translate(0 -0.05)"/><path class="cls-6" d="M217.36,86c3-14.14,3.37-14.07,6.38-28.21" transform="translate(0 -0.05)"/><path class="cls-6" d="M220.83,72c1-4.71,2-9.44,2.91-14.17l0,.07c-1.94,9.42-4.41,18.72-6.36,28.14h0l.56.12C218.84,81.39,219.79,76.68,220.83,72Z" transform="translate(0 -0.05)"/><path class="cls-7" d="M220.27,71.84c1.23-4.66,2.37-9.34,3.47-14l0,.07c-1.94,9.42-4.41,18.72-6.36,28.14h0l-.56-.12Q218.45,78.84,220.27,71.84Z" transform="translate(0 -0.05)"/><path class="cls-6" d="M242.9,89.13c2.78-13.06,3.1-13,5.89-26" transform="translate(0 -0.05)"/><path class="cls-6" d="M246.1,76.17q1.44-6.53,2.69-13.09l0,.06c-1.8,8.7-4.08,17.29-5.87,26h0l.52.11C244.26,84.87,245.14,80.51,246.1,76.17Z" transform="translate(0 -0.05)"/><path class="cls-7" d="M245.58,76c1.13-4.3,2.19-8.63,3.2-13v.06c-1.8,8.7-4.08,17.29-5.87,26h0l-.52-.11Q243.9,82.51,245.58,76Z" transform="translate(0 -0.05)"/><path class="cls-6" d="M269.6,80a116.46,116.46,0,0,0,2.9-11.93v.06c-1.51,8-4.76,15.62-6.26,23.66h0l.48.1A110.7,110.7,0,0,1,269.6,80Z" transform="translate(0 -0.05)"/><path class="cls-7" d="M269.13,79.85a113.93,113.93,0,0,0,3.37-11.78v.06c-1.51,8-4.76,15.62-6.26,23.66h0l-.48-.11A115.6,115.6,0,0,1,269.13,79.85Z" transform="translate(0 -0.05)"/><path class="cls-8" d="M250.9,69a146.38,146.38,0,0,0,3.75-15.4l0,.08c-1.95,10.37-6.13,20.15-8.07,30.52h0l.61.13A146.93,146.93,0,0,1,250.9,69Z" transform="translate(0 -0.05)"/><path class="cls-9" d="M250.3,68.75a144.14,144.14,0,0,0,4.34-15.2v.08c-1.95,10.37-6.13,20.15-8.07,30.52h0l-.62-.13A148.64,148.64,0,0,1,250.3,68.75Z" transform="translate(0 -0.05)"/><path class="cls-2" d="M232.84,58q1.64-9.54,3.47-19l0,.09c-2.74,12.58-4.93,25.27-7.67,37.85h0l.75.16C230.59,70.7,231.76,64.34,232.84,58Z" transform="translate(0 -0.05)"/><path class="cls-3" d="M232.08,57.83q2-9.46,4.23-18.9l0,.1c-2.74,12.58-4.93,25.27-7.67,37.85h0l-.75-.16C229.33,70.44,230.75,64.15,232.08,57.83Z" transform="translate(0 -0.05)"/><path class="cls-2" d="M254.29,68c1.08-6.36,2.25-12.71,3.47-19l0,.09c-2.75,12.58-4.93,25.27-7.68,37.85h0l.76.16C252,80.72,253.21,74.36,254.29,68Z" transform="translate(0 -0.05)"/><path class="cls-3" d="M253.53,67.85q2-9.46,4.23-18.9l0,.1c-2.75,12.58-4.93,25.27-7.68,37.85h0l-.75-.16C250.78,80.46,252.2,74.17,253.53,67.85Z" transform="translate(0 -0.05)"/><path class="cls-2" d="M275.5,78c1.35-6.32,2.61-12.65,3.83-19l0,.1c-2.63,12.6-5.76,25.09-8.39,37.69h0l.76.16Q273.5,87.45,275.5,78Z" transform="translate(0 -0.05)"/><path class="cls-3" d="M274.75,77.81q2.38-9.37,4.58-18.81l0,.1c-2.63,12.6-5.76,25.09-8.39,37.69h0l-.75-.16Q272.38,87.21,274.75,77.81Z" transform="translate(0 -0.05)"/><path class="cls-2" d="M291.26,82.59c1-4.71,1.95-9.44,2.86-14.17l0,.07c-2,9.41-4.3,18.74-6.26,28.15h0l.56.12Q289.77,89.67,291.26,82.59Z" transform="translate(0 -0.05)"/><path class="cls-3" d="M290.7,82.46c1.19-4.67,2.32-9.35,3.42-14l0,.07c-2,9.41-4.3,18.74-6.26,28.15h0l-.56-.12C288.38,91.83,289.51,87.14,290.7,82.46Z" transform="translate(0 -0.05)"/><path class="cls-2" d="M307.05,87.22c.83-3.08,1.51-6.2,2.11-9.33v0c-1.23,6.25-3.35,12.27-4.57,18.52h0l.37.08C305.55,93.4,306.23,90.3,307.05,87.22Z" transform="translate(0 -0.05)"/><path class="cls-3" d="M306.69,87.12c.94-3.05,1.75-6.13,2.47-9.23v0c-1.23,6.25-3.35,12.27-4.57,18.52h0l-.37-.08C304.93,93.26,305.74,90.17,306.69,87.12Z" transform="translate(0 -0.05)"/><path class="cls-4" d="M322.51,101.15c3.08-14.44,4-14.24,7.08-28.68" transform="translate(0 -0.05)"/><path class="cls-4" d="M341.62,106.1c4.16-19.53,5.45-19.26,9.62-38.79" transform="translate(0 -0.05)"/><path class="cls-5" d="M290.26,97.47c3.59-16.83,4.7-16.6,8.29-33.43" transform="translate(0 -0.05)"/><path class="cls-6" d="M294.93,80.9c1.43-5.57,2.61-11.21,3.62-16.86l0,.08c-2.2,11.26-6.07,22.1-8.27,33.35h0l1.06.23C292.33,92.05,293.5,86.46,294.93,80.9Z" transform="translate(0 -0.05)"/><path class="cls-7" d="M293.88,80.61c1.78-5.46,3.3-11,4.67-16.57l0,.08c-2.2,11.26-6.07,22.1-8.27,33.35h0l-1.06-.22C290.57,91.65,292.11,86.08,293.88,80.61Z" transform="translate(0 -0.05)"/><path class="cls-6" d="M239.82,89c3-14.14,1.59-14.44,4.61-28.58" transform="translate(0 -0.05)"/><path class="cls-6" d="M242.41,74.78a130.51,130.51,0,0,1,2-14.32l0,.07c-2.24,9.39-2.34,19.12-4.59,28.51h0l.56.12A131.61,131.61,0,0,0,242.41,74.78Z" transform="translate(0 -0.05)"/><path class="cls-7" d="M241.84,74.72a126.78,126.78,0,0,1,2.59-14.26l0,.07c-2.24,9.39-2.34,19.12-4.59,28.51h0l-.57-.12A128.87,128.87,0,0,0,241.84,74.72Z" transform="translate(0 -0.05)"/><path class="cls-6" d="M226.09,83c3.14-14.74,1.67-15,4.81-29.79" transform="translate(0 -0.05)"/><path class="cls-6" d="M228.8,68.12a134.38,134.38,0,0,1,2.1-14.93l0,.07c-2.34,9.79-2.44,19.94-4.79,29.72h0l.59.13A138.26,138.26,0,0,0,228.8,68.12Z" transform="translate(0 -0.05)"/><path class="cls-7" d="M228.2,68.05a133.35,133.35,0,0,1,2.7-14.86l0,.07c-2.34,9.79-2.44,19.94-4.79,29.72h0l-.58-.12A137.18,137.18,0,0,0,228.2,68.05Z" transform="translate(0 -0.05)"/><path class="cls-6" d="M215.18,61.49q1.38-7.73,2.87-15.42v.07c-2.21,10.2-4.14,20.45-6.34,30.64h0l.61.13Q213.8,69.22,215.18,61.49Z" transform="translate(0 -0.05)"/><path class="cls-7" d="M214.57,61.36q1.68-7.66,3.48-15.29v.07c-2.21,10.2-4.14,20.45-6.34,30.64h0l-.61-.13Q212.88,69,214.57,61.36Z" transform="translate(0 -0.05)"/><path class="cls-6" d="M254.15,72.36q1.23-6.87,2.56-13.73l0,.06c-2,9.08-3.68,18.21-5.64,27.29h0l.54.12Q252.91,79.23,254.15,72.36Z" transform="translate(0 -0.05)"/><path class="cls-7" d="M253.6,72.25q1.52-6.82,3.11-13.62l0,.06c-2,9.08-3.68,18.21-5.64,27.29h0l-.55-.11C251.57,81.33,252.6,76.8,253.6,72.25Z" transform="translate(0 -0.05)"/><path class="cls-6" d="M293.72,83.32c.06-2,.17-4.09.41-6.12s.57-4.06.95-6.07v.06c-2,8-1.17,16.33-3.2,24.31h0l.47.1c.38-2,.73-4.06,1-6.11S293.65,85.37,293.72,83.32Z" transform="translate(0 -0.05)"/><path class="cls-7" d="M293.23,83.3c.14-2,.33-4.1.65-6.13s.74-4,1.2-6v.06c-2,8-1.17,16.33-3.2,24.31h0l-.47-.11c.45-2,.87-4,1.19-6S293.08,85.34,293.23,83.3Z" transform="translate(0 -0.05)"/><path class="cls-8" d="M297,78.69c.08-2.65.22-5.28.53-7.9s.74-5.24,1.23-7.84l0,.08c-2.61,10.29-1.5,21.07-4.13,31.36h0l.62.13c.49-2.61.93-5.24,1.24-7.88S296.91,81.33,297,78.69Z" transform="translate(0 -0.05)"/><path class="cls-9" d="M296.36,78.65c.18-2.64.43-5.29.84-7.91s1-5.21,1.55-7.79l0,.08c-2.61,10.29-1.5,21.07-4.13,31.36h0l-.62-.13c.59-2.57,1.13-5.15,1.54-7.75S296.17,81.29,296.36,78.65Z" transform="translate(0 -0.05)"/><path class="cls-2" d="M300,74a182.75,182.75,0,0,1,2.74-19.17l0,.1c-3,12.57-3.22,25.59-6.22,38.15h0l.75.16c.6-3.19,1.17-6.38,1.64-9.59S299.72,77.24,300,74Z" transform="translate(0 -0.05)"/><path class="cls-3" d="M299.26,73.93c.42-3.2.89-6.41,1.49-9.59s1.28-6.34,2-9.49l0,.1c-3,12.57-3.22,25.59-6.22,38.15h0l-.75-.16A181.66,181.66,0,0,0,299.26,73.93Z" transform="translate(0 -0.05)"/><path class="cls-2" d="M321.47,84a182.75,182.75,0,0,1,2.74-19.17l0,.1c-3,12.57-3.22,25.59-6.23,38.16h0l.75.16c.6-3.19,1.17-6.38,1.64-9.59S321.17,87.26,321.47,84Z" transform="translate(0 -0.05)"/><path class="cls-3" d="M320.7,84c.43-3.2.9-6.41,1.5-9.59s1.28-6.34,2-9.49l0,.1c-3,12.57-3.22,25.59-6.23,38.16h0l-.75-.16A179.06,179.06,0,0,0,320.7,84Z" transform="translate(0 -0.05)"/><path class="cls-2" d="M341.13,93.71q1.65-9.54,3.49-19l0,.1c-2.74,12.58-5,25.26-7.72,37.84h0l.76.16Q339.47,103.26,341.13,93.71Z" transform="translate(0 -0.05)"/><path class="cls-3" d="M340.37,93.57c1.35-6.32,2.78-12.62,4.25-18.9l0,.1c-2.74,12.58-5,25.26-7.72,37.84h0l-.75-.16C337.6,106.16,339,99.88,340.37,93.57Z" transform="translate(0 -0.05)"/><path class="cls-2" d="M356.94,98.34q1.23-7.12,2.61-14.22l0,.07c-2,9.39-3.72,18.86-5.77,28.26h0l.56.12C355.24,107.83,356.12,103.09,356.94,98.34Z" transform="translate(0 -0.05)"/><path class="cls-3" d="M356.37,98.23q1.51-7.08,3.17-14.12v.08c-2,9.39-3.72,18.86-5.77,28.26h0l-.56-.12Q354.85,105.3,356.37,98.23Z" transform="translate(0 -0.05)"/><path class="cls-2" d="M373.8,103.17a81.67,81.67,0,0,1,1.31-9.47v0c-1.49,6.21-1.5,12.65-3,18.86h0l.38.08A82.67,82.67,0,0,0,373.8,103.17Z" transform="translate(0 -0.05)"/><path class="cls-3" d="M373.42,103.13a78.89,78.89,0,0,1,1.69-9.43v0c-1.49,6.21-1.5,12.65-3,18.86h0l-.37-.08A82.81,82.81,0,0,0,373.42,103.13Z" transform="translate(0 -0.05)"/><path class="cls-6" d="M339.28,108.79c2.5-11.74,1.27-12,3.77-23.74" transform="translate(0 -0.05)"/><path class="cls-8" d="M341.4,97a103.8,103.8,0,0,1,1.65-11.9v.06c-1.88,7.79-1.88,15.89-3.76,23.68h0l.46.09A102.33,102.33,0,0,0,341.4,97Z" transform="translate(0 -0.05)"/><path class="cls-9" d="M340.92,96.9a105.4,105.4,0,0,1,2.13-11.85v.06c-1.88,7.79-1.88,15.89-3.76,23.68h0l-.46-.09A102.67,102.67,0,0,0,340.92,96.9Z" transform="translate(0 -0.05)"/><path class="cls-6" d="M305.59,104.81c3-14.14,1.58-14.45,4.59-28.59" transform="translate(0 -0.05)"/><path class="cls-6" d="M308.17,90.55a128.62,128.62,0,0,1,2-14.33v.08c-2.26,9.38-2.32,19.12-4.58,28.51h0l.56.12A126.86,126.86,0,0,0,308.17,90.55Z" transform="translate(0 -0.05)"/><path class="cls-7" d="M307.6,90.49a127.33,127.33,0,0,1,2.58-14.27v.08c-2.26,9.38-2.32,19.12-4.58,28.51h0l-.56-.12A126.5,126.5,0,0,0,307.6,90.49Z" transform="translate(0 -0.05)"/><path class="cls-6" d="M283.72,97c3.14-14.74,1.64-15.06,4.78-29.79" transform="translate(0 -0.05)"/><path class="cls-6" d="M286.41,82.09a131.73,131.73,0,0,1,2.09-14.93l0,.07C286.13,77,286.07,87.17,283.72,97h0l.58.13A133.14,133.14,0,0,0,286.41,82.09Z" transform="translate(0 -0.05)"/><path class="cls-7" d="M285.81,82a131.07,131.07,0,0,1,2.69-14.86l0,.07C286.13,77,286.07,87.17,283.72,97h0l-.59-.12A134.75,134.75,0,0,0,285.81,82Z" transform="translate(0 -0.05)"/><path class="cls-6" d="M264.87,73.66c.07-2.63.19-5.24.49-7.85s.73-5.19,1.21-7.77l0,.07c-2.61,10.22-1.37,20.92-4,31.14h0l.61.13c.49-2.59.93-5.2,1.22-7.83S264.81,76.28,264.87,73.66Z" transform="translate(0 -0.05)"/><path class="cls-7" d="M264.25,73.63c.16-2.63.39-5.26.79-7.86S266,60.6,266.57,58l0,.08c-2.61,10.22-1.37,20.92-4,31.14h0l-.61-.13c.58-2.55,1.12-5.11,1.51-7.69S264.08,76.25,264.25,73.63Z" transform="translate(0 -0.05)"/><path class="cls-6" d="M312,86.33c.06-2.34.17-4.66.44-7s.64-4.63,1.07-6.93v.07c-2.33,9.1-1.23,18.63-3.56,27.73h0l.54.11c.43-2.31.83-4.63,1.09-7S311.92,88.67,312,86.33Z" transform="translate(0 -0.05)"/><path class="cls-7" d="M311.41,86.31c.16-2.34.35-4.68.72-7s.83-4.61,1.35-6.89v.07c-2.33,9.1-1.23,18.63-3.56,27.73h0l-.54-.12c.52-2.27,1-4.55,1.35-6.85S311.26,88.64,311.41,86.31Z" transform="translate(0 -0.05)"/><path class="cls-6" d="M359.27,99.07C359.69,95,360.33,91,361.1,87V87c-1.86,8-2.28,16.16-4.15,24.11h0l.48.1C358.2,107.2,358.84,103.14,359.27,99.07Z" transform="translate(0 -0.05)"/><path class="cls-7" d="M358.78,99c.58-4,1.39-8.07,2.32-12V87c-1.86,8-2.28,16.16-4.15,24.11h0l-.48-.1C357.4,107,358.2,103.05,358.78,99Z" transform="translate(0 -0.05)"/><path class="cls-4" d="M278.68,93.94c3.35-15.76,2.11-16,5.47-31.78" transform="translate(0 -0.05)"/><path class="cls-4" d="M199.26,76.51C203.43,57,202.87,56.86,207,37.33" transform="translate(0 -0.05)"/><path class="cls-4" d="M208,77.78c4.16-19.53,2.62-19.86,6.78-39.39" transform="translate(0 -0.05)"/><path class="cls-4" d="M214.4,78.57C218.56,59,218,58.92,222.17,39.39" transform="translate(0 -0.05)"/><path class="cls-4" d="M220.68,79.32c4.16-19.53,5.51-19.24,9.67-38.77" transform="translate(0 -0.05)"/><path class="cls-4" d="M218.64,82.64c4.1-19.23,5.43-18.94,9.53-38.18" transform="translate(0 -0.05)"/><path class="cls-2" d="M224,63.72c1.65-6.36,3-12.8,4.17-19.26l0,.1c-2.51,12.86-7,25.22-9.51,38.08h0l1.21.25C221,76.46,222.35,70.07,224,63.72Z" transform="translate(0 -0.05)"/><path class="cls-3" d="M222.81,63.38c2-6.23,3.79-12.54,5.35-18.92v.1c-2.51,12.86-7,25.22-9.51,38.08h0l-1.21-.25C219,76,220.76,69.63,222.81,63.38Z" transform="translate(0 -0.05)"/><path class="cls-2" d="M222.12,67.37c1.49-6.29,2.82-12.61,4-19l0,.09c-2.56,12.63-6.23,25-8.79,37.62h0l.75.16C219.31,80,220.63,73.65,222.12,67.37Z" transform="translate(0 -0.05)"/><path class="cls-3" d="M221.37,67.18c1.74-6.22,3.31-12.47,4.78-18.76l0,.09c-2.56,12.63-6.23,25-8.79,37.62h0l-.75-.17C218.05,79.67,219.63,73.4,221.37,67.18Z" transform="translate(0 -0.05)"/><path class="cls-2" d="M269,77.29c1.49-6.28,2.81-12.61,4-19l0,.1c-2.56,12.62-6.24,25-8.79,37.61h0l.75.16C266.16,89.87,267.48,83.57,269,77.29Z" transform="translate(0 -0.05)"/><path class="cls-3" d="M268.22,77.1c1.74-6.21,3.31-12.47,4.78-18.76l0,.1c-2.56,12.62-6.24,25-8.79,37.61h0l-.76-.16C264.9,89.6,266.48,83.32,268.22,77.1Z" transform="translate(0 -0.05)"/><path class="cls-2" d="M315.07,87c.23-3.22.52-6.44,1-9.64s1-6.38,1.59-9.56l0,.09c-3.06,12.58-2.77,25.67-5.85,38.24h0l.76.16c.6-3.19,1.16-6.38,1.6-9.6S314.84,90.22,315.07,87Z" transform="translate(0 -0.05)"/><path class="cls-3" d="M314.3,86.92c.36-3.22.77-6.44,1.34-9.63s1.25-6.35,2-9.5l0,.09c-3.06,12.58-2.77,25.67-5.85,38.24h0L311,106c.72-3.14,1.4-6.29,2-9.46S313.94,90.13,314.3,86.92Z" transform="translate(0 -0.05)"/><path class="cls-2" d="M283.94,81.68a112.16,112.16,0,0,1,1.9-14.34v.07c-2.29,9.4-2.07,19.17-4.37,28.56h0l.56.12A111,111,0,0,0,283.94,81.68Z" transform="translate(0 -0.05)"/><path class="cls-3" d="M283.36,81.63a113.24,113.24,0,0,1,2.48-14.29v.07c-2.29,9.4-2.07,19.17-4.37,28.56h0l-.56-.12A112.12,112.12,0,0,0,283.36,81.63Z" transform="translate(0 -0.05)"/><path class="cls-2" d="M253.51,76.53a73.66,73.66,0,0,1,1.26-9.48v0c-1.51,6.21-1.38,12.67-2.89,18.88h0l.37.08A74.53,74.53,0,0,0,253.51,76.53Z" transform="translate(0 -0.05)"/><path class="cls-3" d="M253.13,76.49a75.12,75.12,0,0,1,1.64-9.44v0c-1.51,6.21-1.38,12.67-2.89,18.88h0l-.37-.08A74.82,74.82,0,0,0,253.13,76.49Z" transform="translate(0 -0.05)"/><path class="cls-8" d="M246.38,74.5a85.81,85.81,0,0,1,1.45-10.81l0,.05c-1.72,7.08-1.57,14.45-3.3,21.54h0l.42.09A84.93,84.93,0,0,0,246.38,74.5Z" transform="translate(0 -0.05)"/><path class="cls-9" d="M246,74.46a86.91,86.91,0,0,1,1.87-10.77v.05c-1.72,7.08-1.57,14.45-3.3,21.54h0l-.43-.09A84.78,84.78,0,0,0,246,74.46Z" transform="translate(0 -0.05)"/><path class="cls-6" d="M239.54,72.56c.61-4,1.33-8.06,2.1-12.07v.06c-1.77,8-2.9,16-4.67,24h0l.47.11Q238.6,78.62,239.54,72.56Z" transform="translate(0 -0.05)"/><path class="cls-7" d="M239.06,72.47c.77-4,1.65-8,2.58-12v.06c-1.77,8-2.9,16-4.67,24h0l-.48-.1C237.41,80.47,238.28,76.49,239.06,72.47Z" transform="translate(0 -0.05)"/></g></g></g></svg>
