<svg xmlns="http://www.w3.org/2000/svg" viewBox="0 0 759.44 111.2"><defs><style>.cls-1{isolation:isolate;}.cls-2,.cls-3{fill:#346d29;}.cls-3,.cls-7,.cls-9{mix-blend-mode:screen;}.cls-4{fill:#3aa025;}.cls-5{fill:#266718;}.cls-6,.cls-7{fill:#122d0b;}.cls-8,.cls-9{fill:#234d1a;}</style></defs><title>graes3</title><g class="cls-1"><g id="Layer_2" data-name="Layer 2"><g id="Layer_6" data-name="Layer 6"><path class="cls-2" d="M182.43,41.39c-1.21-6.36-2.28-12.71-2.92-19.15s-1-12.91-1.17-19.39V3c-1.42,26,6.58,51.36,5.13,77.35h0l3.09,0c-.2-6.55-.51-13.1-1.17-19.64S183.65,47.77,182.43,41.39Z" transform="translate(-0.23 -0.01)"/><path class="cls-3" d="M179.36,41.85c-.7-6.46-1.28-13-1.41-19.51s.05-13,.38-19.49V3c-1.42,26,6.58,51.36,5.13,77.35h0l-3.09,0c.32-6.42.53-12.85.39-19.26S180.06,48.3,179.36,41.85Z" transform="translate(-0.23 -0.01)"/><path class="cls-2" d="M228.42,52.74c-1.21-6.37-2.29-12.71-2.93-19.15s-1-12.91-1.16-19.4v.19c-1.42,26,6.58,51.36,5.13,77.36h0l3.09,0c-.2-6.54-.51-13.1-1.18-19.63S229.63,59.11,228.42,52.74Z" transform="translate(-0.23 -0.01)"/><path class="cls-3" d="M225.35,53.19c-.71-6.46-1.29-13-1.41-19.5s.05-13,.37-19.5v.19c-1.42,26,6.58,51.36,5.13,77.36h0l-3.09,0c.32-6.42.53-12.84.38-19.25S226.05,59.64,225.35,53.19Z" transform="translate(-0.23 -0.01)"/><path class="cls-2" d="M275.84,64.32c-.62-12.9-1-25.8-1.37-38.72v.19c-.51,25.76.18,51.52-.34,77.27h0l3.07,0Q276.74,83.72,275.84,64.32Z" transform="translate(-0.23 -0.01)"/><path class="cls-3" d="M272.75,64.34q.62-19.38,1.71-38.74v.19c-.51,25.76.18,51.52-.34,77.27h0L271,103C271.74,90.13,272.34,77.25,272.75,64.34Z" transform="translate(-0.23 -0.01)"/><path class="cls-2" d="M307.81,67.25q-.69-14.45-1-28.92v.15c-.39,19.23.13,38.47-.26,57.71h0l2.3,0C308.59,86.57,308.27,76.9,307.81,67.25Z" transform="translate(-0.23 -0.01)"/><path class="cls-3" d="M305.5,67.27c.3-9.65.75-19.3,1.28-28.94v.15c-.39,19.23.13,38.47-.26,57.71h0l-2.3,0Q305,81.72,305.5,67.27Z" transform="translate(-0.23 -0.01)"/><path class="cls-2" d="M340.33,70.29c.27-3.19.49-6.4.57-9.6s.06-6.4,0-9.6v.1C341,64,338.1,76.53,338.26,89.3h0l1.52,0c-.06-3.17-.1-6.35,0-9.52S340.06,73.47,340.33,70.29Z" transform="translate(-0.23 -0.01)"/><path class="cls-3" d="M338.81,70.1c.52-3.15,1-6.29,1.33-9.46s.55-6.36.74-9.55v.1C341,64,338.1,76.53,338.26,89.3h0l-1.53,0c.19-3.21.41-6.42.75-9.63S338.29,73.26,338.81,70.1Z" transform="translate(-0.23 -0.01)"/><path class="cls-4" d="M375.91,91.57c.43-29.53,3.61-29.49,4-59" transform="translate(-0.23 -0.01)"/><path class="cls-4" d="M417.19,93.9c.59-39.95-.85-40-.26-79.93" transform="translate(-0.23 -0.01)"/><path class="cls-5" d="M312.53,96.89c.5-34.44-.73-34.46-.23-68.9" transform="translate(-0.23 -0.01)"/><path class="cls-6" d="M313.84,62.41C313.08,51,312.61,39.49,312.31,28v.17c-.54,22.91.78,45.82.23,68.73h0l2.84,0C315.08,85.42,314.6,73.89,313.84,62.41Z" transform="translate(-0.23 -0.01)"/><path class="cls-7" d="M311,62.47c.19-11.5.66-23,1.31-34.48v.17c-.54,22.91.78,45.82.23,68.73h0l-2.84,0C310.33,85.39,310.8,74,311,62.47Z" transform="translate(-0.23 -0.01)"/><path class="cls-6" d="M206.92,99.86c.43-28.92,2-28.9,2.4-57.82" transform="translate(-0.23 -0.01)"/><path class="cls-6" d="M209.28,71c.32-9.66.3-19.34.05-29v.14c0,19.26-2.38,38.43-2.4,57.68h0l2.3,0C209,90.27,209,80.67,209.28,71Z" transform="translate(-0.23 -0.01)"/><path class="cls-7" d="M207,70.87c1.09-9.58,1.83-19.18,2.35-28.83v.14c0,19.26-2.38,38.43-2.4,57.68h0l-2.3,0C205.14,90.17,205.88,80.47,207,70.87Z" transform="translate(-0.23 -0.01)"/><path class="cls-6" d="M160.93,92.93c.44-30.15,2-30.12,2.5-60.27" transform="translate(-0.23 -0.01)"/><path class="cls-6" d="M163.38,62.88c.34-10.07.32-20.17.06-30.22v.15c0,20.07-2.49,40.05-2.5,60.12h0l2.4,0C163.07,82.93,163,72.93,163.38,62.88Z" transform="translate(-0.23 -0.01)"/><path class="cls-7" d="M161,62.71c1.13-10,1.9-20,2.44-30.05v.15c0,20.07-2.49,40.05-2.5,60.12h0l-2.39,0C159.06,82.83,159.84,72.72,161,62.71Z" transform="translate(-0.23 -0.01)"/><path class="cls-6" d="M114.28,54.6q-.56-15.69-.93-31.38v.15c-.36,20.87-.27,41.73-.63,62.6h0l2.49,0Q114.82,70.31,114.28,54.6Z" transform="translate(-0.23 -0.01)"/><path class="cls-7" d="M111.78,54.59q.69-15.69,1.56-31.38v.16c-.36,20.87-.27,41.73-.63,62.6h0l-2.49,0Q111.07,70.26,111.78,54.59Z" transform="translate(-0.23 -0.01)"/><path class="cls-6" d="M131,55q-.55-15.69-.93-31.39v.16c-.36,20.87-.27,41.73-.63,62.6h0l2.49,0Q131.52,70.68,131,55Z" transform="translate(-0.23 -0.01)"/><path class="cls-7" d="M128.47,55q.71-15.69,1.57-31.37v.16c-.36,20.87-.27,41.73-.63,62.6h0l-2.49,0Q127.77,70.63,128.47,55Z" transform="translate(-0.23 -0.01)"/><path class="cls-6" d="M150.79,55.54c.47-5.23.86-10.5,1-15.76s.11-10.51,0-15.75v.15c.28,21-4.76,41.57-4.47,62.55h0l2.5,0c-.11-5.21-.16-10.42,0-15.62S150.32,60.76,150.79,55.54Z" transform="translate(-0.23 -0.01)"/><path class="cls-7" d="M148.3,55.22c.88-5.17,1.68-10.32,2.24-15.52s.93-10.43,1.23-15.67v.15c.28,21-4.76,41.57-4.47,62.55h0l-2.5,0c.31-5.27.68-10.54,1.25-15.8S147.42,60.39,148.3,55.22Z" transform="translate(-0.23 -0.01)"/><path class="cls-6" d="M231.2,61.73c.42-4.65.77-9.34.9-14s.09-9.36,0-14v.14c.25,18.68-4.24,37-4,55.7h0l2.23,0c-.1-4.64-.15-9.28,0-13.91S230.79,66.39,231.2,61.73Z" transform="translate(-0.23 -0.01)"/><path class="cls-7" d="M229,61.45c.78-4.6,1.49-9.19,2-13.82s.83-9.29,1.1-14v.14c.25,18.68-4.24,37-4,55.7h0l-2.22,0c.27-4.69.6-9.39,1.11-14.07S228.2,66.06,229,61.45Z" transform="translate(-0.23 -0.01)"/><path class="cls-6" d="M309.8,67.55a90.32,90.32,0,0,1-2.78-12,107.5,107.5,0,0,1-1-12.33v.13c-1.27,16.7,7,32.29,5.67,49h0l2,0a106.3,106.3,0,0,0-1-12.58A90.32,90.32,0,0,0,309.8,67.55Z" transform="translate(-0.23 -0.01)"/><path class="cls-7" d="M307.88,68A91.67,91.67,0,0,1,306,55.66a107.57,107.57,0,0,1,0-12.44v.13c-1.27,16.7,7,32.29,5.67,49h0l-2,0a103.27,103.27,0,0,0,0-12.19A87.06,87.06,0,0,0,307.88,68Z" transform="translate(-0.23 -0.01)"/><path class="cls-8" d="M314.17,57.12a115.18,115.18,0,0,1-3.59-15.47,136,136,0,0,1-1.3-15.91v.16c-1.63,21.55,9,41.65,7.32,63.2h0l2.54,0a138,138,0,0,0-1.32-16.22A115.13,115.13,0,0,0,314.17,57.12Z" transform="translate(-0.23 -0.01)"/><path class="cls-9" d="M311.69,57.73a115.42,115.42,0,0,1-2.38-15.94,138.63,138.63,0,0,1-.05-16v.16c-1.63,21.55,9,41.65,7.32,63.2h0l-2.54,0a137.56,137.56,0,0,0,0-15.73A111.85,111.85,0,0,0,311.69,57.73Z" transform="translate(-0.23 -0.01)"/><path class="cls-2" d="M316.47,46.91c-.77-6.42-1.46-12.82-1.9-19.26s-.69-12.9-.87-19.37v.19c-1,25.83,3.47,51.49,2.47,77.32h0l3.08,0c-.18-6.5-.43-13-.88-19.51S317.24,53.34,316.47,46.91Z" transform="translate(-0.23 -0.01)"/><path class="cls-3" d="M313.38,47.15c-.26-6.46-.44-13-.36-19.46s.33-12.95.66-19.41v.19c-1,25.83,3.47,51.49,2.47,77.32h0l-3.08-.05c.34-6.43.6-12.85.67-19.28S313.64,53.62,313.38,47.15Z" transform="translate(-0.23 -0.01)"/><path class="cls-2" d="M362.46,58.26c-.77-6.42-1.46-12.82-1.9-19.27s-.69-12.9-.87-19.37v.19c-1,25.84,3.47,51.49,2.47,77.32h0l3.08.05c-.18-6.5-.43-13-.88-19.51S363.23,64.68,362.46,58.26Z" transform="translate(-0.23 -0.01)"/><path class="cls-3" d="M359.37,58.5c-.26-6.47-.44-13-.36-19.46s.33-13,.66-19.42v.19c-1,25.84,3.47,51.49,2.47,77.32h0l-3.08,0c.33-6.43.6-12.86.67-19.28S359.63,65,359.37,58.5Z" transform="translate(-0.23 -0.01)"/><path class="cls-2" d="M415,69.89C415.1,57,415,44,414.63,31.1v.19c-.16,25.77-2.28,51.48-2.44,77.25h0l3.08,0C414.94,95.68,414.8,82.81,415,69.89Z" transform="translate(-0.23 -0.01)"/><path class="cls-3" d="M411.86,69.74C413,56.88,413.92,44,414.62,31.1v.19c-.16,25.77-2.28,51.48-2.44,77.25h0l-3.08-.05C409.8,95.57,410.68,82.62,411.86,69.74Z" transform="translate(-0.23 -0.01)"/><path class="cls-2" d="M446,72.79c.11-9.66,0-19.33-.24-29V44c-.12,19.25-1.7,38.44-1.82,57.69h0l2.29,0C446,92.05,445.84,82.44,446,72.79Z" transform="translate(-0.23 -0.01)"/><path class="cls-3" d="M443.65,72.68c.88-9.61,1.54-19.22,2.06-28.86V44c-.12,19.25-1.7,38.44-1.82,57.69h0l-2.3,0C442.11,92,442.77,82.29,443.65,72.68Z" transform="translate(-0.23 -0.01)"/><path class="cls-2" d="M475,75.57c-.67-6.33-1-12.69-1.18-19.08v.1c-.42,12.73,1.27,25.42.84,38.16h0l1.52,0C476.05,88.37,475.69,81.93,475,75.57Z" transform="translate(-0.23 -0.01)"/><path class="cls-3" d="M473.5,75.66c-.17-6.39,0-12.8.34-19.17v.1c-.42,12.73,1.27,25.42.84,38.16h0l-1.52,0C473.51,88.37,473.66,82,473.5,75.66Z" transform="translate(-0.23 -0.01)"/><path class="cls-4" d="M512.93,97c.43-29.54-1.73-29.57-1.3-59.1" transform="translate(-0.23 -0.01)"/><path class="cls-4" d="M554,99.35c.59-39.95-4.88-40-4.29-80" transform="translate(-0.23 -0.01)"/><path class="cls-5" d="M449.09,102.34c.5-34.44-4.21-34.51-3.7-68.95" transform="translate(-0.23 -0.01)"/><path class="cls-6" d="M448.66,67.69c-1-5.68-1.78-11.34-2.3-17.06s-.79-11.48-1-17.24v.17c-1.12,23.06,4.84,45.72,3.7,68.78h0l2.85,0c-.17-5.81-.44-11.62-1-17.42S449.6,73.38,448.66,67.69Z" transform="translate(-0.23 -0.01)"/><path class="cls-7" d="M445.82,68c-.48-5.75-.86-11.56-.89-17.34s.15-11.55.45-17.31v.17c-1.12,23.06,4.84,45.72,3.7,68.78h0l-2.85,0c.3-5.71.51-11.42.46-17.13S446.29,73.78,445.82,68Z" transform="translate(-0.23 -0.01)"/><path class="cls-6" d="M344.34,105.33c.43-28.93-.49-28.94-.06-57.86" transform="translate(-0.23 -0.01)"/><path class="cls-6" d="M345.46,76.38c-.58-9.63-.94-19.26-1.18-28.91v.14c-.43,19.24.51,38.48.07,57.72h0l2.29,0C346.41,95.7,346,86,345.46,76.38Z" transform="translate(-0.23 -0.01)"/><path class="cls-7" d="M343.15,76.42c.19-9.66.59-19.32,1.12-28.95v.14c-.43,19.24.51,38.48.07,57.72h0l-2.29,0C342.57,95.67,343,86.06,343.15,76.42Z" transform="translate(-0.23 -0.01)"/><path class="cls-6" d="M298.43,98.4c.45-30.15-.51-30.17-.06-60.32" transform="translate(-0.23 -0.01)"/><path class="cls-6" d="M299.6,68.22c-.6-10-1-20.07-1.23-30.14v.15c-.45,20.06.53,40.11.07,60.17h0l2.39,0C300.59,88.36,300.2,78.27,299.6,68.22Z" transform="translate(-0.23 -0.01)"/><path class="cls-7" d="M297.2,68.26c.19-10.07.61-20.13,1.16-30.18v.15c-.45,20.06.53,40.11.07,60.17h0l-2.4,0C296.58,88.33,297,78.32,297.2,68.26Z" transform="translate(-0.23 -0.01)"/><path class="cls-6" d="M248.6,60.2c.61-5.22,1.13-10.49,1.34-15.76s.19-10.52.08-15.77v.15c.42,21-5.74,41.5-5.3,62.53h0l2.5,0c-.11-5.21-.14-10.42.07-15.61S248,65.42,248.6,60.2Z" transform="translate(-0.23 -0.01)"/><path class="cls-7" d="M246.12,59.82c1-5.15,1.94-10.28,2.56-15.48s1-10.43,1.33-15.67v.15c.42,21-5.74,41.5-5.3,62.53h0l-2.5,0c.3-5.28.7-10.57,1.33-15.84S245.1,65,246.12,59.82Z" transform="translate(-0.23 -0.01)"/><path class="cls-6" d="M346.16,66.77c.55-4.65,1-9.34,1.19-14s.17-9.38.08-14.05v.14c.37,18.73-5.11,37-4.72,55.69h0l2.23,0c-.1-4.64-.12-9.28.07-13.9S345.62,71.42,346.16,66.77Z" transform="translate(-0.23 -0.01)"/><path class="cls-7" d="M344,66.43c.91-4.58,1.73-9.15,2.28-13.78s.91-9.29,1.19-14v.14c.37,18.73-5.11,37-4.72,55.69h0l-2.22,0c.27-4.7.62-9.41,1.19-14.11S343.05,71,344,66.43Z" transform="translate(-0.23 -0.01)"/><path class="cls-6" d="M446.12,73.12C445.5,69.07,445,65,444.63,61s-.52-8.17-.63-12.27v.13c-.74,16.38,3.06,32.55,2.3,48.94h0l2,0c-.12-4.13-.3-8.26-.64-12.38S446.73,77.18,446.12,73.12Z" transform="translate(-0.23 -0.01)"/><path class="cls-7" d="M444.16,73.33c-.28-4.09-.51-8.22-.52-12.33s.14-8.21.35-12.31v.13c-.74,16.38,3.06,32.55,2.3,48.94h0l-1.95,0c.21-4.06.36-8.13.35-12.19S444.45,77.42,444.16,73.33Z" transform="translate(-0.23 -0.01)"/><path class="cls-8" d="M406,58.64c-.79-5.22-1.49-10.43-1.92-15.69s-.67-10.53-.82-15.82v.16c-1,21.14,3.95,42,3,63.14h0l2.51,0c-.15-5.33-.37-10.66-.81-16S406.78,63.87,406,58.64Z" transform="translate(-0.23 -0.01)"/><path class="cls-9" d="M403.48,58.92c-.37-5.28-.66-10.61-.67-15.91s.17-10.6.44-15.88v.16c-1,21.14,3.95,42,3,63.14h0l-2.51,0c.26-5.24.46-10.49.44-15.73S403.85,64.19,403.48,58.92Z" transform="translate(-0.23 -0.01)"/><path class="cls-2" d="M366.13,44.6c.89-6.43,1.66-12.94,2-19.45s.32-13,.2-19.5l0,.2c.65,26-8.07,51.14-7.39,77.17h0l3.09,0c-.13-6.43-.15-12.85.18-19.26S365.24,51,366.13,44.6Z" transform="translate(-0.23 -0.01)"/><path class="cls-3" d="M363.07,44.06c1.4-6.33,2.66-12.64,3.48-19s1.35-12.88,1.74-19.36v.2c.65,26-8.07,51.14-7.39,77.17h0l-3.08,0c.38-6.54.89-13.08,1.74-19.59S361.67,50.4,363.07,44.06Z" transform="translate(-0.23 -0.01)"/><path class="cls-2" d="M412.12,56c.89-6.43,1.66-13,2-19.46s.32-13,.19-19.49v.19c.65,26-8.07,51.14-7.39,77.17h0l3.09,0c-.13-6.43-.15-12.86.18-19.26S411.23,62.38,412.12,56Z" transform="translate(-0.23 -0.01)"/><path class="cls-3" d="M409.06,55.41c1.4-6.33,2.66-12.64,3.48-19.06s1.35-12.88,1.74-19.35v.19c.65,26-8.07,51.14-7.39,77.17h0l-3.09,0c.39-6.53.9-13.07,1.75-19.59S407.66,61.75,409.06,55.41Z" transform="translate(-0.23 -0.01)"/><path class="cls-2" d="M455.64,67.09c.17-6.47.3-13,.28-19.42s-.12-12.94-.27-19.4v.19c-.06,25.79-3,51.46-3.08,77.24h0l3.08,0c-.15-6.45-.27-12.89-.28-19.33S455.48,73.55,455.64,67.09Z" transform="translate(-0.23 -0.01)"/><path class="cls-3" d="M452.56,66.89c.68-6.43,1.31-12.84,1.81-19.28s.9-12.88,1.26-19.34v.19c-.06,25.79-3,51.46-3.08,77.24h0l-3.07,0c.36-6.47.76-12.94,1.26-19.41S451.88,73.31,452.56,66.89Z" transform="translate(-0.23 -0.01)"/><path class="cls-2" d="M487.93,70c.29-9.67.25-19.35,0-29v.14c0,19.26-2.26,38.43-2.3,57.68h0l2.29,0C487.69,89.24,487.64,79.64,487.93,70Z" transform="translate(-0.23 -0.01)"/><path class="cls-3" d="M485.63,69.85c1.05-9.59,1.78-19.2,2.29-28.84v.14c0,19.26-2.26,38.43-2.3,57.68h0l-2.3,0C483.85,89.14,484.57,79.45,485.63,69.85Z" transform="translate(-0.23 -0.01)"/><path class="cls-2" d="M520.13,72.79a186.6,186.6,0,0,1-1.35-19.07v.1c-.48,12.75,1.69,25.41,1.2,38.17h0l1.52,0A186.9,186.9,0,0,0,520.13,72.79Z" transform="translate(-0.23 -0.01)"/><path class="cls-3" d="M518.61,72.91a186.08,186.08,0,0,1,.16-19.19v.1c-.48,12.75,1.69,25.41,1.2,38.17h0l-1.52,0A186.17,186.17,0,0,0,518.61,72.91Z" transform="translate(-0.23 -0.01)"/><path class="cls-4" d="M558,94.26c.44-29.53-2.28-29.57-1.84-59.11" transform="translate(-0.23 -0.01)"/><path class="cls-4" d="M590.17,96.46c.59-40,0-40,.54-79.92" transform="translate(-0.23 -0.01)"/><path class="cls-5" d="M486.62,99.46c.51-34.44,0-34.45.47-68.88" transform="translate(-0.23 -0.01)"/><path class="cls-6" d="M488.29,65q-.77-17.22-1.19-34.44v.17c-.43,22.9,0,45.81-.47,68.71h0l2.84,0Q489,82.27,488.29,65Z" transform="translate(-0.23 -0.01)"/><path class="cls-7" d="M485.43,65q.66-17.23,1.66-34.44v.17c-.43,22.9,0,45.81-.47,68.71h0l-2.84,0Q484.74,82.22,485.43,65Z" transform="translate(-0.23 -0.01)"/><path class="cls-6" d="M387.38,102.53c.43-28.92.63-28.92,1.06-57.84" transform="translate(-0.23 -0.01)"/><path class="cls-6" d="M389.06,73.63q-.24-14.47-.62-28.94v.14l-1.05,57.7h0l2.3,0Q389.32,88.1,389.06,73.63Z" transform="translate(-0.23 -0.01)"/><path class="cls-7" d="M386.75,73.58q.9-14.44,1.68-28.89v.14l-1.05,57.7h0l-2.29,0Q385.86,88,386.75,73.58Z" transform="translate(-0.23 -0.01)"/><path class="cls-6" d="M341.36,95.6c.44-30.15.65-30.15,1.1-60.3" transform="translate(-0.23 -0.01)"/><path class="cls-6" d="M343.11,65.48q-.25-15.09-.65-30.18v.15l-1.1,60.15h0l2.4,0Q343.37,80.56,343.11,65.48Z" transform="translate(-0.23 -0.01)"/><path class="cls-7" d="M340.7,65.42q.94-15,1.75-30.12v.15l-1.1,60.15h0l-2.39,0Q339.77,80.5,340.7,65.42Z" transform="translate(-0.23 -0.01)"/><path class="cls-6" d="M297.65,57.5c.64-5.22,1.18-10.49,1.4-15.76s.21-10.53.11-15.78v.16c.44,21-5.95,41.48-5.49,62.52h0l2.5,0c-.11-5.21-.13-10.42.1-15.61S297,62.71,297.65,57.5Z" transform="translate(-0.23 -0.01)"/><path class="cls-7" d="M295.17,57.1c1-5.14,2-10.27,2.62-15.47s1-10.43,1.35-15.67v.16c.44,21-5.95,41.48-5.49,62.52h0l-2.5,0c.31-5.29.7-10.58,1.36-15.85S294.12,62.25,295.17,57.1Z" transform="translate(-0.23 -0.01)"/><path class="cls-6" d="M314.35,57.87c.63-5.22,1.18-10.49,1.4-15.76s.21-10.53.1-15.78v.16c.45,21-5.94,41.48-5.48,62.52h0l2.5,0c-.11-5.21-.13-10.42.09-15.61S313.71,63.08,314.35,57.87Z" transform="translate(-0.23 -0.01)"/><path class="cls-7" d="M311.86,57.47c1.05-5.14,2-10.27,2.63-15.47s1-10.43,1.35-15.67v.16c.45,21-5.94,41.48-5.48,62.52h0l-2.5,0c.31-5.28.7-10.57,1.35-15.84S310.82,62.62,311.86,57.47Z" transform="translate(-0.23 -0.01)"/><path class="cls-6" d="M328.73,58.25c.83-5.2,1.55-10.48,1.86-15.76s.34-10.55.24-15.82v.16c.62,21.14-7.3,41.36-6.65,62.51h0l2.51,0c-.11-5.21-.1-10.42.22-15.6A155.26,155.26,0,0,1,328.73,58.25Z" transform="translate(-0.23 -0.01)"/><path class="cls-7" d="M326.26,57.76a155.9,155.9,0,0,0,3.07-15.4c.74-5.19,1.17-10.43,1.48-15.69v.16c.62,21.14-7.3,41.36-6.65,62.51h0l-2.51,0c.32-5.31.74-10.62,1.49-15.91S325,62.88,326.26,57.76Z" transform="translate(-0.23 -0.01)"/><path class="cls-6" d="M409.49,64.44a140.15,140.15,0,0,0,1.65-14c.3-4.7.3-9.4.21-14.09v.14c.56,18.83-6.5,36.84-5.91,55.67h0l2.23,0c-.09-4.64-.08-9.28.2-13.9S408.75,69.07,409.49,64.44Z" transform="translate(-0.23 -0.01)"/><path class="cls-7" d="M407.29,64A139.84,139.84,0,0,0,410,50.29c.66-4.62,1-9.29,1.32-14v.14c.56,18.83-6.5,36.84-5.91,55.67h0l-2.23,0c.28-4.73.66-9.46,1.33-14.17A139.85,139.85,0,0,1,407.29,64Z" transform="translate(-0.23 -0.01)"/><path class="cls-6" d="M490.91,70.33c-.7-4-1.32-8.06-1.7-12.14s-.57-8.17-.69-12.27V46c-.83,16.42,3.69,32.53,2.84,49h0l1.95,0c-.12-4.13-.31-8.27-.7-12.4S491.61,74.37,490.91,70.33Z" transform="translate(-0.23 -0.01)"/><path class="cls-7" d="M489,70.58c-.38-4.09-.68-8.22-.73-12.33s.08-8.23.28-12.33V46c-.83,16.42,3.69,32.53,2.84,49h0l-2,0c.21-4.07.35-8.13.29-12.19S489.34,74.67,489,70.58Z" transform="translate(-0.23 -0.01)"/><path class="cls-8" d="M495.28,59.93c-.9-5.21-1.7-10.4-2.18-15.66s-.74-10.53-.89-15.83v.16c-1.07,21.19,4.75,42,3.66,63.15h0l2.52,0c-.15-5.34-.39-10.68-.89-16S496.19,65.15,495.28,59.93Z" transform="translate(-0.23 -0.01)"/><path class="cls-9" d="M492.77,60.26c-.49-5.27-.88-10.6-.94-15.92s.1-10.61.36-15.9v.16c-1.07,21.19,4.75,42,3.66,63.15h0l-2.52,0c.26-5.24.44-10.48.37-15.72S493.26,65.53,492.77,60.26Z" transform="translate(-0.23 -0.01)"/><path class="cls-2" d="M498.25,49.84c.28-6.46.5-13,.53-19.42s0-13-.2-19.41v.19c.05,25.81-3.8,51.42-3.73,77.23h0l3.08,0c-.15-6.44-.25-12.87-.2-19.31S498,56.3,498.25,49.84Z" transform="translate(-0.23 -0.01)"/><path class="cls-3" d="M495.16,49.59c.79-6.41,1.52-12.81,2.07-19.24s1-12.89,1.34-19.34v.19c.05,25.81-3.8,51.42-3.73,77.23h0l-3.08-.05c.37-6.48.78-13,1.34-19.43S494.37,56,495.16,49.59Z" transform="translate(-0.23 -0.01)"/><path class="cls-2" d="M544.24,61.19c.27-6.46.5-12.95.53-19.43s0-12.94-.2-19.41v.2c.05,25.8-3.8,51.42-3.74,77.22h0l3.08,0c-.15-6.44-.25-12.88-.21-19.31S544,67.65,544.24,61.19Z" transform="translate(-0.23 -0.01)"/><path class="cls-3" d="M541.15,60.94c.79-6.42,1.52-12.82,2.07-19.25s1-12.88,1.33-19.34v.2c.05,25.8-3.8,51.42-3.74,77.22h0l-3.08,0c.37-6.48.78-13,1.34-19.44S540.36,67.35,541.15,60.94Z" transform="translate(-0.23 -0.01)"/><path class="cls-2" d="M594.33,72.66c.56-6.45,1-13,1.2-19.45s.12-13,0-19.44V34c.32,25.89-5.76,51.32-5.41,77.2h0l3.08,0c-.14-6.43-.2-12.86,0-19.28S593.77,79.11,594.33,72.66Z" transform="translate(-0.23 -0.01)"/><path class="cls-3" d="M591.26,72.28c1.07-6.39,2-12.75,2.72-19.17s1.14-12.88,1.51-19.34V34c.32,25.89-5.76,51.32-5.41,77.2h0l-3.08,0c.38-6.51.83-13,1.53-19.5S590.19,78.66,591.26,72.28Z" transform="translate(-0.23 -0.01)"/><path class="cls-2" d="M625.77,75.53c.41-4.82.77-9.67.89-14.52s.09-9.69,0-14.52v.14c.25,19.33-4.29,38.33-4,57.66h0l2.31,0c-.11-4.8-.15-9.6,0-14.4S625.35,80.35,625.77,75.53Z" transform="translate(-0.23 -0.01)"/><path class="cls-3" d="M623.47,75.25c.8-4.77,1.53-9.52,2-14.32s.85-9.61,1.13-14.44v.14c.25,19.33-4.29,38.33-4,57.66h0l-2.3,0c.28-4.86.62-9.72,1.14-14.57S622.67,80,623.47,75.25Z" transform="translate(-0.23 -0.01)"/><path class="cls-2" d="M655.51,78.38c.26-3.19.48-6.4.55-9.6s.05-6.4,0-9.6v.1c.15,12.77-2.72,25.34-2.57,38.11h0l1.52,0c-.07-3.17-.1-6.35,0-9.52S655.25,81.56,655.51,78.38Z" transform="translate(-0.23 -0.01)"/><path class="cls-3" d="M654,78.2c.51-3.16,1-6.3,1.3-9.47s.56-6.36.74-9.55v.1c.15,12.77-2.72,25.34-2.57,38.11h0l-1.52,0c.18-3.21.41-6.42.74-9.63S653.48,81.35,654,78.2Z" transform="translate(-0.23 -0.01)"/><path class="cls-6" d="M586.65,102.66c.36-24,2.88-24,3.23-48" transform="translate(-0.23 -0.01)"/><path class="cls-8" d="M589.22,78.77c.33-4,.6-8,.69-12.06s.06-8,0-12.06v.12c.18,16-3.43,31.84-3.23,47.89h0l1.91,0c-.09-4-.13-8,0-12S588.89,82.77,589.22,78.77Z" transform="translate(-0.23 -0.01)"/><path class="cls-9" d="M587.31,78.54c.64-4,1.23-7.91,1.64-11.9s.69-8,.93-12v.12c.18,16-3.43,31.84-3.23,47.89h0l-1.92,0c.24-4,.52-8.07.94-12.09S586.67,82.5,587.31,78.54Z" transform="translate(-0.23 -0.01)"/><path class="cls-6" d="M525.61,108c.43-28.93-4.5-29-4.07-57.93" transform="translate(-0.23 -0.01)"/><path class="cls-6" d="M524.72,78.87c-.94-4.75-1.78-9.49-2.28-14.29s-.75-9.65-.89-14.49v.14c-1.1,19.43,5.2,38.34,4.07,57.78h0l2.31,0c-.15-4.89-.39-9.79-.9-14.68S525.67,83.62,524.72,78.87Z" transform="translate(-0.23 -0.01)"/><path class="cls-7" d="M522.43,79.22c-.57-4.82-1-9.7-1.15-14.57s0-9.72.25-14.57v.15c-1.1,19.43,5.2,38.34,4.07,57.78h0l-2.31,0c.24-4.8.38-9.59.26-14.38S523,84,522.43,79.22Z" transform="translate(-0.23 -0.01)"/><path class="cls-6" d="M479.71,101.08c.45-30.15-4.69-30.23-4.24-60.38" transform="translate(-0.23 -0.01)"/><path class="cls-6" d="M478.79,70.7c-1-5-1.86-9.88-2.38-14.89s-.78-10.06-.94-15.11v.15c-1.15,20.26,5.41,40,4.24,60.23h0l2.41,0c-.16-5.1-.4-10.21-.94-15.3S479.77,75.66,478.79,70.7Z" transform="translate(-0.23 -0.01)"/><path class="cls-7" d="M476.4,71.07c-.59-5-1.08-10.11-1.2-15.18s0-10.14.26-15.19v.15c-1.15,20.26,5.41,40,4.24,60.23h0l-2.41,0c.25-5,.4-10,.27-15S477,76.09,476.4,71.07Z" transform="translate(-0.23 -0.01)"/><path class="cls-6" d="M432.58,62.73q-.6-15.69-1-31.38v.16c-.37,20.86-.18,41.73-.55,62.59h0l2.49,0Q433.16,78.44,432.58,62.73Z" transform="translate(-0.23 -0.01)"/><path class="cls-7" d="M430.08,62.72q.65-15.69,1.52-31.37v.16c-.37,20.86-.18,41.73-.55,62.59h0l-2.49,0Q429.41,78.4,430.08,62.72Z" transform="translate(-0.23 -0.01)"/><path class="cls-6" d="M529.82,69.32q-.52-14-.86-27.95v.14c-.33,18.58-.16,37.17-.49,55.75h0l2.22,0C530.45,88,530.18,78.64,529.82,69.32Z" transform="translate(-0.23 -0.01)"/><path class="cls-7" d="M527.59,69.31q.58-14,1.36-27.94v.14c-.33,18.58-.16,37.17-.49,55.75h0l-2.22,0C526.74,87.92,527.21,78.62,527.59,69.31Z" transform="translate(-0.23 -0.01)"/><path class="cls-6" d="M627.9,76c.18-8.19.13-16.39-.08-24.56v.12c-.06,16.32-1.72,32.57-1.78,48.89h0l2,0C627.78,92.28,627.72,84.14,627.9,76Z" transform="translate(-0.23 -0.01)"/><path class="cls-7" d="M626,75.86c.83-8.13,1.42-16.28,1.86-24.45v.12c-.06,16.32-1.72,32.57-1.78,48.89h0l-1.95,0C624.52,92.21,625.11,84,626,75.86Z" transform="translate(-0.23 -0.01)"/><path class="cls-8" d="M329.87,67.41c.24-10.56.16-21.14-.11-31.68v.16c-.08,21-2.22,42-2.29,63.06h0L330,99C329.71,88.46,329.63,78,329.87,67.41Z" transform="translate(-0.23 -0.01)"/><path class="cls-9" d="M327.35,67.27c1.07-10.49,1.83-21,2.4-31.54v.16c-.08,21-2.22,42-2.29,63.06h0l-2.51,0C325.51,88.35,326.27,77.77,327.35,67.27Z" transform="translate(-0.23 -0.01)"/><path class="cls-2" d="M25.66,58.56c-.73-6.42-1.38-12.83-1.8-19.27S23.2,26.39,23,19.92v.19c-1,25.82,3.17,51.49,2.21,77.32h0l3.08,0c-.18-6.5-.42-13-.85-19.5S26.38,65,25.66,58.56Z" transform="translate(-0.23 -0.01)"/><path class="cls-3" d="M22.57,58.78c-.22-6.47-.36-13-.26-19.45s.36-12.95.69-19.41v.19c-1,25.82,3.17,51.49,2.21,77.32h0l-3.08-.05c.34-6.43.61-12.86.7-19.28S22.79,65.25,22.57,58.78Z" transform="translate(-0.23 -0.01)"/><path class="cls-2" d="M58.66,61.53c-.54-4.79-1-9.58-1.34-14.39s-.5-9.64-.63-14.46v.14C56,52.1,59.05,71.28,58.34,90.56h0l2.3,0c-.13-4.85-.31-9.7-.63-14.56S59.21,66.34,58.66,61.53Z" transform="translate(-0.23 -0.01)"/><path class="cls-3" d="M56.36,61.7c-.16-4.83-.27-9.69-.2-14.53s.27-9.67.52-14.49v.14C56,52.1,59.05,71.28,58.34,90.56h0l-2.3,0c.25-4.81.45-9.61.52-14.41S56.52,66.53,56.36,61.7Z" transform="translate(-0.23 -0.01)"/><path class="cls-2" d="M94.43,64.64c.09-6.38,0-12.78-.14-19.15v.09C94.21,58.31,93.12,71,93.05,83.72h0l1.52,0C94.41,77.37,94.34,71,94.43,64.64Z" transform="translate(-0.23 -0.01)"/><path class="cls-3" d="M92.91,64.57c.59-6.35,1-12.71,1.38-19.08v.09C94.21,58.31,93.12,71,93.05,83.72h0l-1.52,0C91.87,77.31,92.31,70.92,92.91,64.57Z" transform="translate(-0.23 -0.01)"/><path class="cls-4" d="M131.17,86c.44-29.54,1.48-29.52,1.92-59.06" transform="translate(-0.23 -0.01)"/><path class="cls-4" d="M166.17,88.23c.59-39.95,6.3-39.87,6.89-79.82" transform="translate(-0.23 -0.01)"/><path class="cls-4" d="M113.78,87.46c.47-32.24,5.08-32.17,5.55-64.4" transform="translate(-0.23 -0.01)"/><path class="cls-6" d="M117.88,55.47c.63-5.37,1.18-10.79,1.39-16.2s.19-10.82.07-16.21v.16c.44,21.61-6,42.62-5.55,64.24h0l2.67,0c-.12-5.35-.15-10.7.06-16S117.24,60.82,117.88,55.47Z" transform="translate(-0.23 -0.01)"/><path class="cls-7" d="M115.23,55.05c1.07-5.29,2-10.55,2.69-15.89s1.08-10.71,1.41-16.1v.16c.44,21.61-6,42.62-5.55,64.24h0l-2.67,0c.33-5.44.74-10.87,1.41-16.29S114.16,60.34,115.23,55.05Z" transform="translate(-0.23 -0.01)"/><path class="cls-6" d="M61.11,62.13c-.5-8.16-.82-16.32-1-24.5v.12c-.38,16.31.48,32.61.09,48.91h0l2,0C61.94,78.5,61.62,70.3,61.11,62.13Z" transform="translate(-0.23 -0.01)"/><path class="cls-7" d="M59.16,62.16c.14-8.18.47-16.37.92-24.53v.12c-.38,16.31.48,32.61.09,48.91h0l-2,0C58.68,78.48,59,70.34,59.16,62.16Z" transform="translate(-0.23 -0.01)"/><path class="cls-8" d="M64.73,51.75c-.65-10.52-1.06-21-1.32-31.6v.16c-.49,21,.62,42.06.13,63.09h0l2.51,0C65.79,72.88,65.38,62.29,64.73,51.75Z" transform="translate(-0.23 -0.01)"/><path class="cls-9" d="M62.2,51.8c.19-10.56.62-21.12,1.2-31.65v.16c-.49,21,.62,42.06.13,63.09h0l-2.51,0C61.59,72.85,62,62.35,62.2,51.8Z" transform="translate(-0.23 -0.01)"/><path class="cls-2" d="M76.08,41.47c-1-12.87-1.51-25.76-1.82-38.69V3c-.67,25.77,1.24,51.52.57,77.29h0l3.07,0C77.59,67.36,77,54.37,76.08,41.47Z" transform="translate(-0.23 -0.01)"/><path class="cls-3" d="M73,41.57c.08-12.94.54-25.89,1.26-38.79V3c-.67,25.77,1.24,51.52.57,77.29h0l-3.08,0C72.45,67.33,72.91,54.48,73,41.57Z" transform="translate(-0.23 -0.01)"/><path class="cls-2" d="M122.07,52.82c-.95-12.88-1.51-25.77-1.82-38.7v.2c-.67,25.77,1.24,51.52.57,77.29h0l3.08,0C123.58,78.7,123,65.72,122.07,52.82Z" transform="translate(-0.23 -0.01)"/><path class="cls-3" d="M119,52.91c.08-12.94.54-25.89,1.25-38.79v.2c-.67,25.77,1.24,51.52.57,77.29h0l-3.08,0C118.44,78.68,118.9,65.83,119,52.91Z" transform="translate(-0.23 -0.01)"/><path class="cls-2" d="M166.48,64.42c.73-6.45,1.34-13,1.58-19.46s.22-13,.08-19.46v.19c.49,26-6.88,51.24-6.37,77.19h0l3.09,0c-.14-6.43-.18-12.86.07-19.27S165.76,70.86,166.48,64.42Z" transform="translate(-0.23 -0.01)"/><path class="cls-3" d="M163.42,64c1.23-6.36,2.34-12.7,3.09-19.12S167.75,32,168.13,25.5v.19c.49,26-6.88,51.24-6.37,77.19h0l-3.09,0c.38-6.52.86-13,1.63-19.55S162.19,70.32,163.42,64Z" transform="translate(-0.23 -0.01)"/><path class="cls-2" d="M198.09,67.28c.54-4.81,1-9.67,1.18-14.53s.16-9.7.06-14.54v.15c.37,19.38-5.13,38.27-4.75,57.64h0l2.31,0c-.1-4.8-.13-9.6.05-14.39S197.56,72.09,198.09,67.28Z" transform="translate(-0.23 -0.01)"/><path class="cls-3" d="M195.8,66.94c.92-4.75,1.75-9.48,2.31-14.28s.93-9.61,1.21-14.45v.15c.37,19.38-5.13,38.27-4.75,57.64h0l-2.3,0c.28-4.87.64-9.74,1.22-14.6S194.89,71.69,195.8,66.94Z" transform="translate(-0.23 -0.01)"/><path class="cls-2" d="M228.46,70.14c.42-3.17.78-6.39.93-9.6s.14-6.42.08-9.62V51c.3,12.84-3.82,25.27-3.51,38.1h0l1.52,0c-.06-3.18-.07-6.35.08-9.51S228.05,73.32,228.46,70.14Z" transform="translate(-0.23 -0.01)"/><path class="cls-3" d="M227,69.89c.67-3.13,1.27-6.25,1.67-9.42s.65-6.35.84-9.55V51c.3,12.84-3.82,25.27-3.51,38.1h0l-1.52,0c.19-3.22.43-6.45.84-9.67S226.29,73,227,69.89Z" transform="translate(-0.23 -0.01)"/><path class="cls-4" d="M262.77,91.37c.43-29.53,5-29.47,5.42-59" transform="translate(-0.23 -0.01)"/><path class="cls-4" d="M303,93.68c.59-40-2.33-40-1.74-79.95" transform="translate(-0.23 -0.01)"/><path class="cls-5" d="M198.76,96.68c.51-34.44-2-34.48-1.49-68.92" transform="translate(-0.23 -0.01)"/><path class="cls-6" d="M199.44,62.14c-.58-5.72-1.1-11.42-1.44-17.15s-.56-11.48-.73-17.23v.18c-.76,22.94,2.28,45.8,1.5,68.74h0l2.84,0c-.16-5.77-.37-11.55-.73-17.32S200,67.86,199.44,62.14Z" transform="translate(-0.23 -0.01)"/><path class="cls-7" d="M196.59,62.31c-.11-5.76-.16-11.54,0-17.29s.39-11.51.7-17.26v.18c-.76,22.94,2.28,45.8,1.5,68.74h0l-2.85,0c.31-5.72.57-11.44.7-17.15S196.69,68.05,196.59,62.31Z" transform="translate(-0.23 -0.01)"/><path class="cls-6" d="M91.18,99.63c.43-28.93,4.09-28.87,4.52-57.8" transform="translate(-0.23 -0.01)"/><path class="cls-6" d="M94.59,70.89c.5-4.81.92-9.67,1.08-14.52s.14-9.7,0-14.54V42c.32,19.36-4.86,38.28-4.52,57.65h0l2.3,0c-.1-4.8-.14-9.6,0-14.39S94.09,75.7,94.59,70.89Z" transform="translate(-0.23 -0.01)"/><path class="cls-7" d="M92.3,70.57c.87-4.76,1.67-9.5,2.21-14.29s.9-9.62,1.19-14.45V42c.32,19.36-4.86,38.28-4.52,57.65h0l-2.31,0c.29-4.86.64-9.73,1.19-14.58S91.42,75.32,92.3,70.57Z" transform="translate(-0.23 -0.01)"/><path class="cls-6" d="M45,92.69c.45-30.15,4.27-30.09,4.72-60.24" transform="translate(-0.23 -0.01)"/><path class="cls-6" d="M48.52,62.74c.52-5,1-10.09,1.13-15.14s.15-10.11,0-15.15v.15C50,52.78,44.62,72.51,45,92.69h0l2.4,0c-.11-5-.14-10,0-15S48,67.76,48.52,62.74Z" transform="translate(-0.23 -0.01)"/><path class="cls-7" d="M46.14,62.4c.91-4.95,1.74-9.89,2.3-14.89s.94-10,1.24-15.06v.15C50,52.78,44.62,72.51,45,92.69h0l-2.4,0c.29-5.08.66-10.15,1.24-15.21S45.22,67.36,46.14,62.4Z" transform="translate(-0.23 -0.01)"/><path class="cls-6" d="M4.73,54.19A131.45,131.45,0,0,1,1.65,38.77C1,33.56.66,28.3.49,23v.16C-.95,44.41,8,64.64,6.5,85.87h0l2.51,0c-.17-5.34-.47-10.7-1.16-16A133.75,133.75,0,0,0,4.73,54.19Z" transform="translate(-0.23 -0.01)"/><path class="cls-7" d="M2.26,54.7A132.85,132.85,0,0,1,.38,38.88C.11,33.58.23,28.29.48,23v.16C-.95,44.41,8,64.64,6.5,85.87h0L4,85.83c.25-5.2.37-10.41.11-15.59A130.8,130.8,0,0,0,2.26,54.7Z" transform="translate(-0.23 -0.01)"/><path class="cls-6" d="M102.05,60.81A117.62,117.62,0,0,1,99.3,47.07c-.61-4.63-.88-9.33-1-14v.14C97,52.1,104.94,70.11,103.63,89h0l2.24,0c-.15-4.76-.42-9.53-1-14.27A119.61,119.61,0,0,0,102.05,60.81Z" transform="translate(-0.23 -0.01)"/><path class="cls-7" d="M99.85,61.26a116.48,116.48,0,0,1-1.67-14.09c-.25-4.72-.14-9.43.08-14.13v.14C97,52.1,104.94,70.11,103.63,89h0l-2.24,0c.22-4.64.33-9.28.1-13.89A119.12,119.12,0,0,0,99.85,61.26Z" transform="translate(-0.23 -0.01)"/><path class="cls-6" d="M200.44,67.73c.24-4.09.43-8.2.48-12.3s0-8.2-.09-12.29v.12c.09,16.35-2.81,32.53-2.71,48.87h0l1.95,0C200,88.09,199.92,84,200,80S200.21,71.82,200.44,67.73Z" transform="translate(-0.23 -0.01)"/><path class="cls-7" d="M198.49,67.54c.56-4.05,1.07-8.09,1.45-12.16s.65-8.15.88-12.24v.12c.09,16.35-2.81,32.53-2.71,48.87h0l-2,0c.23-4.11.5-8.22.88-12.32S197.93,71.6,198.49,67.54Z" transform="translate(-0.23 -0.01)"/><path class="cls-8" d="M160.44,53.31c.31-5.27.55-10.58.62-15.87s0-10.57-.12-15.85v.16c.12,21.08-3.63,42-3.5,63h0l2.51,0c-.11-5.26-.19-10.51-.12-15.76S160.14,58.58,160.44,53.31Z" transform="translate(-0.23 -0.01)"/><path class="cls-9" d="M157.93,53.07c.72-5.23,1.38-10.44,1.86-15.69s.84-10.52,1.14-15.79v.16c.12,21.08-3.63,42-3.5,63h0l-2.52,0c.31-5.29.65-10.59,1.15-15.88S157.21,58.3,157.93,53.07Z" transform="translate(-0.23 -0.01)"/><path class="cls-2" d="M120.79,38.7c-1-12.88-1.51-25.77-1.82-38.69V.2c-.67,25.77,1.25,51.52.57,77.29h0l3.07,0C122.3,64.59,121.74,51.6,120.79,38.7Z" transform="translate(-0.23 -0.01)"/><path class="cls-3" d="M117.7,38.79c.08-12.94.54-25.88,1.25-38.78V.2c-.67,25.77,1.25,51.52.57,77.29h0l-3.07,0C117.16,64.56,117.63,51.71,117.7,38.79Z" transform="translate(-0.23 -0.01)"/><path class="cls-2" d="M166.78,50.05c-.95-12.88-1.51-25.77-1.82-38.7v.19c-.67,25.77,1.25,51.52.57,77.29h0l3.07,0C168.29,75.93,167.73,63,166.78,50.05Z" transform="translate(-0.23 -0.01)"/><path class="cls-3" d="M163.69,50.14c.07-12.94.54-25.89,1.25-38.79v.19c-.67,25.77,1.25,51.52.57,77.29h0l-3.08,0C163.15,75.91,163.61,63.06,163.69,50.14Z" transform="translate(-0.23 -0.01)"/><polygon class="cls-2" points="214.65 61.49 213.73 22.73 213.72 22.93 212.49 100.19 212.5 100.19 215.57 100.23 214.65 61.49"/><polygon class="cls-3" points="211.56 61.44 213.72 22.73 213.72 22.93 212.49 100.19 212.49 100.19 209.41 100.14 211.56 61.44"/><polygon class="cls-2" points="245.59 64.39 244.91 35.45 244.9 35.6 243.98 93.3 243.99 93.3 246.28 93.33 245.59 64.39"/><polygon class="cls-3" points="243.29 64.36 244.9 35.45 244.9 35.6 243.98 93.3 243.98 93.3 241.68 93.27 243.29 64.36"/><path class="cls-2" d="M272.29,67.27c.08-6.39,0-12.78-.15-19.15v.09c-.08,12.72-1.14,25.41-1.22,38.14h0l1.52,0C272.27,80,272.2,73.65,272.29,67.27Z" transform="translate(-0.23 -0.01)"/><path class="cls-3" d="M270.76,67.19c.59-6.34,1-12.7,1.37-19.07v.09c-.08,12.72-1.14,25.41-1.22,38.14h0l-1.52,0C269.73,79.94,270.17,73.55,270.76,67.19Z" transform="translate(-0.23 -0.01)"/><path class="cls-4" d="M307.29,88.6c.44-29.54,1.45-29.52,1.89-59.06" transform="translate(-0.23 -0.01)"/><path class="cls-4" d="M346.14,90.89c.59-40,3.24-39.92,3.83-79.87" transform="translate(-0.23 -0.01)"/><path class="cls-5" d="M242.31,93.89c.51-34.44,2.79-34.4,3.3-68.84" transform="translate(-0.23 -0.01)"/><path class="cls-6" d="M245.38,59.58c.24-5.74.42-11.51.44-17.27s-.06-11.52-.2-17.26v.17c0,22.94-3.36,45.72-3.3,68.67h0l2.85,0c-.14-5.72-.24-11.45-.21-17.17S245.15,65.33,245.38,59.58Z" transform="translate(-0.23 -0.01)"/><path class="cls-7" d="M242.53,59.35c.71-5.7,1.37-11.39,1.86-17.11s.88-11.45,1.21-17.19v.17c0,22.94-3.36,45.72-3.3,68.67h0l-2.84,0c.33-5.76.71-11.53,1.21-17.29S241.83,65.06,242.53,59.35Z" transform="translate(-0.23 -0.01)"/><path class="cls-6" d="M139.9,96.91c.43-28.92-2.76-29-2.33-57.89" transform="translate(-0.23 -0.01)"/><path class="cls-6" d="M139.89,67.86c-.66-4.79-1.25-9.56-1.61-14.37s-.57-9.64-.71-14.47v.14c-.82,19.32,3.17,38.44,2.33,57.75h0l2.3,0c-.14-4.87-.33-9.73-.71-14.59S140.55,72.65,139.89,67.86Z" transform="translate(-0.23 -0.01)"/><path class="cls-7" d="M137.58,68.08c-.27-4.83-.48-9.7-.46-14.55s.2-9.68.44-14.51v.14c-.82,19.32,3.17,38.44,2.33,57.75h0l-2.3,0c.24-4.8.43-9.6.44-14.39S137.86,72.9,137.58,68.08Z" transform="translate(-0.23 -0.01)"/><path class="cls-6" d="M93.82,90c.45-30.15-2.88-30.2-2.43-60.35" transform="translate(-0.23 -0.01)"/><path class="cls-6" d="M93.81,59.69c-.69-5-1.3-10-1.68-15s-.59-10-.74-15.09v.15c-.85,20.14,3.3,40.07,2.43,60.2h0l2.4,0c-.15-5.07-.35-10.15-.74-15.21S94.49,64.69,93.81,59.69Z" transform="translate(-0.23 -0.01)"/><path class="cls-7" d="M91.4,59.92c-.28-5-.5-10.1-.48-15.16s.21-10.09.46-15.13v.15c-.85,20.14,3.3,40.07,2.43,60.2h0l-2.4,0c.25-5,.45-10,.46-15S91.69,65,91.4,59.92Z" transform="translate(-0.23 -0.01)"/><path class="cls-6" d="M50.44,51.65C49.67,41.22,49.22,30.78,49,20.3v.16c-.54,20.88,1,41.74.45,62.61h0l2.49,0C51.65,72.62,51.2,62.1,50.44,51.65Z" transform="translate(-0.23 -0.01)"/><path class="cls-7" d="M47.93,51.72c.07-10.48.44-21,1-31.42v.16c-.54,20.88,1,41.74.45,62.61h0l-2.49,0C47.49,72.6,47.87,62.19,47.93,51.72Z" transform="translate(-0.23 -0.01)"/><path class="cls-6" d="M67.13,52c-.76-10.43-1.21-20.88-1.47-31.35v.16c-.54,20.87,1,41.74.46,62.61h0l2.5,0C68.35,73,67.9,62.47,67.13,52Z" transform="translate(-0.23 -0.01)"/><path class="cls-7" d="M64.63,52.09c.06-10.48.44-21,1-31.42v.16c-.54,20.87,1,41.74.46,62.61h0l-2.49,0C64.19,73,64.57,62.56,64.63,52.09Z" transform="translate(-0.23 -0.01)"/><path class="cls-6" d="M85.68,52.37c-.57-5.21-1.08-10.4-1.41-15.62s-.52-10.45-.67-15.69v.16C82.85,42.13,86,62.93,85.26,83.85h0l2.5,0c-.15-5.26-.34-10.52-.68-15.79S86.24,57.58,85.68,52.37Z" transform="translate(-0.23 -0.01)"/><path class="cls-7" d="M83.18,52.54C83,47.3,82.93,42,83,36.78s.31-10.49.58-15.72v.16C82.85,42.13,86,62.93,85.26,83.85h0l-2.5,0c.28-5.21.5-10.42.58-15.62S83.33,57.78,83.18,52.54Z" transform="translate(-0.23 -0.01)"/><path class="cls-6" d="M166.1,58.59c-.5-4.63-1-9.26-1.25-13.91s-.47-9.31-.6-14v.14c-.66,18.62,2.15,37.15,1.47,55.78h0l2.22,0c-.13-4.68-.3-9.37-.6-14.06S166.61,63.23,166.1,58.59Z" transform="translate(-0.23 -0.01)"/><path class="cls-7" d="M163.87,58.74c-.13-4.66-.22-9.35-.14-14s.27-9.34.51-14v.14c-.66,18.62,2.15,37.15,1.47,55.78h0l-2.22,0c.24-4.64.44-9.28.51-13.92S164,63.41,163.87,58.74Z" transform="translate(-0.23 -0.01)"/><path class="cls-6" d="M246.22,65c.39-4.08.72-8.2.84-12.31s.1-8.21,0-12.31v.12c.25,16.4-3.89,32.47-3.63,48.86h0l1.95,0c-.09-4.07-.12-8.14,0-12.2S245.83,69.09,246.22,65Z" transform="translate(-0.23 -0.01)"/><path class="cls-7" d="M244.28,64.75c.71-4,1.36-8,1.8-12.12s.74-8.15,1-12.24v.12c.25,16.4-3.89,32.47-3.63,48.86h0l-2,0c.23-4.12.53-8.24,1-12.35S243.57,68.79,244.28,64.75Z" transform="translate(-0.23 -0.01)"/><path class="cls-8" d="M251,54.7c.51-5.27.93-10.58,1.09-15.88s.12-10.6,0-15.88v.15c.32,21.15-5,41.88-4.68,63h0l2.52,0c-.11-5.25-.16-10.5,0-15.74S250.5,60,251,54.7Z" transform="translate(-0.23 -0.01)"/><path class="cls-9" d="M248.5,54.36c.92-5.2,1.75-10.39,2.32-15.63s1-10.52,1.27-15.79v.15c.32,21.15-5,41.88-4.68,63h0l-2.52,0c.31-5.31.69-10.63,1.28-15.93S247.58,59.57,248.5,54.36Z" transform="translate(-0.23 -0.01)"/><path class="cls-2" d="M253.52,44.43c1-6.43,1.79-12.95,2.14-19.46s.36-13,.24-19.51l0,.2c.71,26.05-8.52,51.1-7.78,77.16h0l3.09.05c-.13-6.43-.13-12.86.23-19.26S252.57,50.85,253.52,44.43Z" transform="translate(-0.23 -0.01)"/><path class="cls-3" d="M250.47,43.86c1.46-6.32,2.77-12.62,3.63-19s1.39-12.88,1.78-19.36v.2c.71,26.05-8.52,51.1-7.78,77.16h0l-3.09,0c.39-6.55.91-13.1,1.79-19.62S249,50.18,250.47,43.86Z" transform="translate(-0.23 -0.01)"/><path class="cls-2" d="M299.51,55.77c1-6.43,1.79-12.94,2.13-19.45s.37-13,.25-19.51l0,.19c.71,26.06-8.52,51.1-7.78,77.17h0l3.09,0c-.13-6.43-.14-12.86.22-19.25S298.55,62.19,299.51,55.77Z" transform="translate(-0.23 -0.01)"/><path class="cls-3" d="M296.46,55.2c1.46-6.32,2.77-12.62,3.63-19s1.39-12.88,1.78-19.36V17c.71,26.06-8.52,51.1-7.78,77.17h0l-3.09,0c.39-6.55.9-13.1,1.79-19.62S295,61.53,296.46,55.2Z" transform="translate(-0.23 -0.01)"/><path class="cls-2" d="M344,66.67c-.85-6.41-1.6-12.81-2.07-19.25s-.74-12.9-.93-19.37v.19c-1.06,25.85,4,51.47,2.92,77.33h0l3.08,0c-.18-6.51-.44-13-.92-19.53S344.8,73.09,344,66.67Z" transform="translate(-0.23 -0.01)"/><path class="cls-3" d="M340.87,67c-.33-6.47-.58-13-.54-19.47s.29-13,.62-19.43v.19c-1.06,25.85,4,51.47,2.92,77.33h0l-3.08,0c.33-6.43.58-12.85.61-19.27S341.21,73.41,340.87,67Z" transform="translate(-0.23 -0.01)"/><path class="cls-2" d="M439.77,68c-.85-6.41-1.6-12.8-2.07-19.24s-.74-12.91-.93-19.38v.19c-1.06,25.86,4,51.47,2.92,77.33h0l3.08,0c-.18-6.5-.44-13-.92-19.53S440.61,74.38,439.77,68Z" transform="translate(-0.23 -0.01)"/><path class="cls-3" d="M436.68,68.24c-.33-6.47-.58-13-.54-19.47s.29-13,.62-19.43v.19c-1.06,25.86,4,51.47,2.92,77.33h0l-3.08,0c.33-6.42.58-12.85.61-19.27S437,74.7,436.68,68.24Z" transform="translate(-0.23 -0.01)"/><path class="cls-2" d="M535.82,69.52c.25-6.47.46-12.95.48-19.43s-.07-12.94-.21-19.4l0,.19c0,25.8-3.64,51.43-3.6,77.23h0l3.08,0c-.15-6.44-.26-12.88-.22-19.31S535.56,76,535.82,69.52Z" transform="translate(-0.23 -0.01)"/><path class="cls-3" d="M532.73,69.28c.77-6.42,1.48-12.82,2-19.26s1-12.88,1.32-19.33v.19c0,25.8-3.64,51.43-3.6,77.23h0l-3.07,0c.36-6.48.77-13,1.32-19.43S532,75.69,532.73,69.28Z" transform="translate(-0.23 -0.01)"/><path class="cls-2" d="M472.47,71.13c.19-4.83.34-9.67.36-14.51s-.05-9.66-.16-14.49v.14c0,19.27-2.72,38.41-2.69,57.68h0l2.3,0C472,90.36,472,80.77,472.47,71.13Z" transform="translate(-0.23 -0.01)"/><path class="cls-3" d="M470.16,71c1.2-9.57,2-19.17,2.5-28.82v.14c0,19.27-2.72,38.41-2.69,57.68h0l-2.3,0c.28-4.84.58-9.68,1-14.51S469.59,75.74,470.16,71Z" transform="translate(-0.23 -0.01)"/><path class="cls-2" d="M410,72.74c.14-6.39.09-12.78-.07-19.16v.1c-.05,12.72-1.31,25.41-1.36,38.13h0l1.51,0C409.89,85.47,409.84,79.12,410,72.74Z" transform="translate(-0.23 -0.01)"/><path class="cls-3" d="M408.45,72.65c.64-6.34,1.1-12.69,1.44-19.07v.1c-.05,12.72-1.31,25.41-1.36,38.13h0l-1.52,0C407.35,85.41,407.81,79,408.45,72.65Z" transform="translate(-0.23 -0.01)"/><path class="cls-6" d="M342,97.08c.36-24,1.36-24,1.71-48" transform="translate(-0.23 -0.01)"/><path class="cls-8" d="M343.83,73.12c.16-8,.1-16.06-.1-24.07v.12c-.07,16-1.64,31.92-1.71,47.91h0l1.91,0C343.72,89.11,343.66,81.13,343.83,73.12Z" transform="translate(-0.23 -0.01)"/><path class="cls-9" d="M341.91,73c.8-8,1.38-16,1.81-24v.12c-.07,16-1.64,31.92-1.71,47.91h0l-1.91,0C340.53,89,341.11,81,341.91,73Z" transform="translate(-0.23 -0.01)"/><path class="cls-6" d="M276.09,102.36c.43-28.93.17-28.93.6-57.85" transform="translate(-0.23 -0.01)"/><path class="cls-6" d="M277.55,73.44Q277,59,276.7,44.51v.14c-.33,19.23-.27,38.47-.6,57.71h0l2.3,0Q278,87.92,277.55,73.44Z" transform="translate(-0.23 -0.01)"/><path class="cls-7" d="M275.24,73.43q.64-14.48,1.44-28.92v.14c-.33,19.23-.27,38.47-.6,57.71h0l-2.3,0Q274.58,87.88,275.24,73.43Z" transform="translate(-0.23 -0.01)"/><path class="cls-6" d="M230.05,95.43c.45-30.15.18-30.16.62-60.31" transform="translate(-0.23 -0.01)"/><path class="cls-6" d="M231.56,65.28q-.52-15.08-.88-30.16v.15c-.34,20-.28,40.11-.62,60.16h0l2.39,0Q232.08,80.37,231.56,65.28Z" transform="translate(-0.23 -0.01)"/><path class="cls-7" d="M229.16,65.27q.68-15.07,1.5-30.15v.15c-.34,20-.28,40.11-.62,60.16h0l-2.39,0Q228.47,80.33,229.16,65.27Z" transform="translate(-0.23 -0.01)"/><path class="cls-6" d="M183,57.21c.38-5.23.69-10.49.78-15.74s.05-10.5-.07-15.74v.15c.19,21-4.1,41.61-3.89,62.55h0l2.5,0c-.12-5.21-.18-10.43-.08-15.63S182.61,62.44,183,57.21Z" transform="translate(-0.23 -0.01)"/><path class="cls-7" d="M180.49,56.94c.79-5.18,1.5-10.34,2-15.55s.88-10.43,1.18-15.66v.15c.19,21-4.1,41.61-3.89,62.55h0l-2.5,0c.31-5.26.66-10.52,1.19-15.77S179.7,62.12,180.49,56.94Z" transform="translate(-0.23 -0.01)"/><path class="cls-6" d="M280.61,63.79c.33-4.66.61-9.35.69-14s0-9.36-.06-14v.14c.17,18.65-3.65,37.05-3.47,55.7h0l2.22,0c-.1-4.64-.16-9.29-.07-13.92S280.28,68.45,280.61,63.79Z" transform="translate(-0.23 -0.01)"/><path class="cls-7" d="M278.39,63.55c.7-4.61,1.34-9.21,1.79-13.85s.78-9.29,1.05-14v.14c.17,18.65-3.65,37.05-3.47,55.7h0l-2.23,0c.27-4.68.59-9.37,1.06-14S277.69,68.17,278.39,63.55Z" transform="translate(-0.23 -0.01)"/><path class="cls-6" d="M378.16,70.37c.29-4.09.54-8.2.62-12.3s0-8.21,0-12.3v.12c.15,16.37-3.26,32.5-3.09,48.87h0l1.95,0c-.09-4.08-.14-8.15,0-12.21S377.86,74.46,378.16,70.37Z" transform="translate(-0.23 -0.01)"/><path class="cls-7" d="M376.21,70.15c.62-4,1.19-8.08,1.59-12.14s.69-8.15.92-12.24v.12c.15,16.37-3.26,32.5-3.09,48.87h0l-1.95,0c.24-4.11.52-8.23.93-12.33S375.59,74.2,376.21,70.15Z" transform="translate(-0.23 -0.01)"/><path class="cls-8" d="M409.94,69.36c.26-3.64.48-7.3.55-11s0-7.3,0-10.95v.11c.14,14.57-2.89,28.93-2.75,43.49h0l1.73,0c-.08-3.63-.12-7.25,0-10.87S409.67,73,409.94,69.36Z" transform="translate(-0.23 -0.01)"/><path class="cls-9" d="M408.2,69.17c.56-3.6,1.06-7.19,1.42-10.81s.61-7.26.82-10.9v.11c.14,14.57-2.89,28.93-2.75,43.49h0L406,91c.21-3.66.46-7.32.83-11S407.65,72.77,408.2,69.17Z" transform="translate(-0.23 -0.01)"/><path class="cls-2" d="M441.91,68.32c.24-6.39.23-12.79.07-19.17v.1c0,12.73-1.65,25.39-1.65,38.13h0l1.52,0C441.68,81,441.67,74.69,441.91,68.32Z" transform="translate(-0.23 -0.01)"/><path class="cls-3" d="M440.39,68.21c.74-6.33,1.24-12.68,1.58-19.06v.1c0,12.73-1.65,25.39-1.65,38.13h0l-1.52,0C439.14,81,439.64,74.56,440.39,68.21Z" transform="translate(-0.23 -0.01)"/><path class="cls-4" d="M477,89.64c.43-29.54,2.12-29.52,2.55-59" transform="translate(-0.23 -0.01)"/><path class="cls-4" d="M521,92c.59-39.95,2.38-39.93,3-79.88" transform="translate(-0.23 -0.01)"/><path class="cls-4" d="M467.63,91.21C468.11,59,469.56,59,470,26.77" transform="translate(-0.23 -0.01)"/><path class="cls-6" d="M470.17,59.07c.24-10.77.16-21.55-.13-32.3v.16c-.07,21.45-2.33,42.83-2.4,64.28h0l2.66,0C470,80.52,469.92,69.82,470.17,59.07Z" transform="translate(-0.23 -0.01)"/><path class="cls-7" d="M467.5,58.91c1.13-10.69,1.93-21.39,2.53-32.14v.16c-.07,21.45-2.33,42.83-2.4,64.28h0l-2.66,0C465.56,80.41,466.37,69.62,467.5,58.91Z" transform="translate(-0.23 -0.01)"/><path class="cls-6" d="M413,65.83c-.79-8.14-1.21-16.29-1.41-24.48v.12c-.51,16.33,1.38,32.6.86,48.93h0l1.95,0C414.22,82.22,413.79,74,413,65.83Z" transform="translate(-0.23 -0.01)"/><path class="cls-7" d="M411.05,65.92c-.14-8.19.09-16.4.54-24.57v.12c-.51,16.33,1.38,32.6.86,48.93h0l-1.95,0C411,82.22,411.19,74.1,411.05,65.92Z" transform="translate(-0.23 -0.01)"/><path class="cls-8" d="M417.21,55.45c-.48-5.26-.91-10.5-1.2-15.76s-.47-10.54-.61-15.81V24c-.66,21.06,1.78,42.06,1.12,63.12h0l2.52,0c-.14-5.29-.32-10.59-.62-15.89S417.69,60.71,417.21,55.45Z" transform="translate(-0.23 -0.01)"/><path class="cls-9" d="M414.69,55.58c-.06-5.28-.08-10.58.05-15.87s.37-10.56.65-15.83V24c-.66,21.06,1.78,42.06,1.12,63.12h0l-2.51,0c.28-5.25.51-10.5.64-15.75S414.75,60.85,414.69,55.58Z" transform="translate(-0.23 -0.01)"/><path class="cls-2" d="M421.88,45.27c.24-6.46.43-12.94.45-19.42s-.08-12.94-.23-19.4v.19c0,25.8-3.54,51.43-3.51,77.23h0l3.07,0c-.15-6.44-.25-12.88-.23-19.31S421.64,51.73,421.88,45.27Z" transform="translate(-0.23 -0.01)"/><path class="cls-3" d="M418.79,45c.76-6.42,1.46-12.82,2-19.26s.94-12.88,1.31-19.33v.19c0,25.8-3.54,51.43-3.51,77.23h0l-3.08-.05c.37-6.47.78-12.95,1.32-19.42S418,51.46,418.79,45Z" transform="translate(-0.23 -0.01)"/><path class="cls-2" d="M467.87,56.62c.24-6.46.43-12.95.45-19.42s-.08-13-.23-19.41V18c0,25.8-3.54,51.43-3.51,77.23h0l3.08.05c-.15-6.44-.25-12.88-.23-19.32S467.63,63.08,467.87,56.62Z" transform="translate(-0.23 -0.01)"/><path class="cls-3" d="M464.78,56.38c.76-6.41,1.45-12.82,2-19.25s.94-12.88,1.31-19.34V18c0,25.8-3.54,51.43-3.51,77.23h0l-3.08,0c.37-6.48.77-13,1.31-19.43S464,62.81,464.78,56.38Z" transform="translate(-0.23 -0.01)"/><path class="cls-2" d="M513.2,67.69c-.87-6.41-1.64-12.8-2.12-19.24s-.76-12.9-.94-19.37v.19c-1.08,25.86,4.16,51.46,3.06,77.33h0l3.08,0c-.19-6.51-.45-13-.94-19.53S514.07,74.11,513.2,67.69Z" transform="translate(-0.23 -0.01)"/><path class="cls-3" d="M510.12,68c-.36-6.47-.63-13-.6-19.47s.27-13,.6-19.43v.19c-1.08,25.86,4.16,51.46,3.06,77.33h0l-3.08,0c.33-6.43.58-12.85.6-19.27S510.47,74.44,510.12,68Z" transform="translate(-0.23 -0.01)"/><path class="cls-2" d="M545.6,70.66c-.64-4.78-1.22-9.55-1.58-14.36s-.57-9.64-.7-14.47V42c-.81,19.31,3.11,38.44,2.28,57.75h0l2.3,0c-.13-4.86-.33-9.72-.7-14.59S546.25,75.46,545.6,70.66Z" transform="translate(-0.23 -0.01)"/><path class="cls-3" d="M543.3,70.88c-.27-4.83-.47-9.69-.44-14.54s.2-9.69.45-14.51V42c-.81,19.31,3.11,38.44,2.28,57.75h0l-2.3,0c.24-4.8.43-9.6.45-14.4S543.57,75.71,543.3,70.88Z" transform="translate(-0.23 -0.01)"/><path class="cls-2" d="M579.16,73.61c-.59-3.14-1.12-6.27-1.44-9.45s-.48-6.37-.57-9.58v.1c-.7,12.83,3.25,25.35,2.53,38.19h0l1.52,0c-.1-3.23-.25-6.47-.58-9.69S579.76,76.76,579.16,73.61Z" transform="translate(-0.23 -0.01)"/><path class="cls-3" d="M577.65,73.84c-.35-3.19-.64-6.42-.7-9.63s0-6.43.19-9.63v.1c-.7,12.83,3.25,25.35,2.53,38.19h0l-1.53,0c.16-3.18.26-6.35.19-9.51S578,77,577.65,73.84Z" transform="translate(-0.23 -0.01)"/><path class="cls-4" d="M618.59,95.16c.44-29.54-4.35-29.61-3.91-59.14" transform="translate(-0.23 -0.01)"/><path class="cls-4" d="M656,97.43c.59-40-5.16-40-4.57-80" transform="translate(-0.23 -0.01)"/><path class="cls-5" d="M551.37,100.42c.51-34.44-4.45-34.51-4-68.95" transform="translate(-0.23 -0.01)"/><path class="cls-6" d="M550.82,65.76c-1-5.68-1.86-11.33-2.39-17.05s-.82-11.48-1-17.24v.17c-1.16,23.07,5.13,45.71,4,68.78h0l2.85,0c-.17-5.81-.44-11.63-1-17.44S551.8,71.44,550.82,65.76Z" transform="translate(-0.23 -0.01)"/><path class="cls-7" d="M548,66.13c-.51-5.75-.92-11.56-1-17.35s.13-11.56.43-17.31v.17c-1.16,23.07,5.13,45.71,4,68.78h0l-2.85,0c.3-5.71.5-11.42.43-17.12S548.49,71.87,548,66.13Z" transform="translate(-0.23 -0.01)"/><path class="cls-6" d="M447.81,103.42c.43-28.92-6.72-29-6.29-57.95" transform="translate(-0.23 -0.01)"/><path class="cls-6" d="M445.8,74.18A110,110,0,0,1,442.67,60a132.93,132.93,0,0,1-1.15-14.54v.15c-1.44,19.65,7.76,38.14,6.29,57.8h0l2.32,0A136.53,136.53,0,0,0,449,88.64,110.41,110.41,0,0,0,445.8,74.18Z" transform="translate(-0.23 -0.01)"/><path class="cls-7" d="M443.53,74.71a111.39,111.39,0,0,1-2-14.58,130.35,130.35,0,0,1,0-14.66v.15c-1.44,19.65,7.76,38.14,6.29,57.8h0l-2.33,0a130.16,130.16,0,0,0,0-14.38A108.21,108.21,0,0,0,443.53,74.71Z" transform="translate(-0.23 -0.01)"/><path class="cls-6" d="M499.06,99.64c.39-26.71-6.21-26.81-5.82-53.53" transform="translate(-0.23 -0.01)"/><path class="cls-6" d="M497.2,72.64a102.14,102.14,0,0,1-2.89-13.1,122.56,122.56,0,0,1-1.06-13.43v.14c-1.32,18.16,7.18,35.23,5.82,53.39h0l2.15,0A125.79,125.79,0,0,0,500.14,86,101.6,101.6,0,0,0,497.2,72.64Z" transform="translate(-0.23 -0.01)"/><path class="cls-7" d="M495.1,73.12a102.94,102.94,0,0,1-1.87-13.47,122.31,122.31,0,0,1,0-13.54v.14c-1.32,18.16,7.18,35.23,5.82,53.39h0l-2.14,0a122.57,122.57,0,0,0,0-13.28A99.86,99.86,0,0,0,495.1,73.12Z" transform="translate(-0.23 -0.01)"/><path class="cls-6" d="M548.41,71.28c-.54-8.15-.88-16.31-1.07-24.49v.12c-.4,16.31.61,32.61.21,48.92h0l2,0C549.29,87.66,549,79.45,548.41,71.28Z" transform="translate(-0.23 -0.01)"/><path class="cls-7" d="M546.46,71.33c.1-8.19.42-16.38.87-24.54v.12c-.4,16.31.61,32.61.21,48.92h0l-1.94,0C546,87.64,546.35,79.5,546.46,71.33Z" transform="translate(-0.23 -0.01)"/><path class="cls-8" d="M507.87,56.82c-.71-10.52-1.14-21-1.39-31.6v.16c-.51,21,.79,42.06.27,63.1h0l2.51,0C509,78,508.57,67.36,507.87,56.82Z" transform="translate(-0.23 -0.01)"/><path class="cls-9" d="M505.34,56.88c.14-10.56.54-21.13,1.13-31.66v.16c-.51,21,.79,42.06.27,63.1h0l-2.51,0C504.8,77.92,505.21,67.43,505.34,56.88Z" transform="translate(-0.23 -0.01)"/><path class="cls-2" d="M465.7,42.22c-.92-6.41-1.74-12.79-2.24-19.23s-.79-12.91-1-19.38V3.8c-1.13,25.88,4.5,51.46,3.35,77.33h0l3.08.05c-.18-6.52-.45-13-1-19.55S466.62,48.63,465.7,42.22Z" transform="translate(-0.23 -0.01)"/><path class="cls-3" d="M462.61,42.53c-.4-6.47-.72-13-.71-19.48s.24-13,.57-19.44V3.8c-1.13,25.88,4.5,51.46,3.35,77.33h0l-3.08,0c.33-6.43.58-12.85.57-19.27S463,49,462.61,42.53Z" transform="translate(-0.23 -0.01)"/><path class="cls-2" d="M511.69,53.56c-.92-6.4-1.74-12.79-2.24-19.23s-.79-12.9-1-19.37v.19C507.34,41,513,66.6,511.82,92.48h0l3.08,0c-.18-6.51-.45-13-1-19.55S512.6,60,511.69,53.56Z" transform="translate(-0.23 -0.01)"/><path class="cls-3" d="M508.6,53.87c-.41-6.46-.72-13-.71-19.47s.24-13,.57-19.45v.2C507.34,41,513,66.6,511.82,92.48h0l-3.08,0c.33-6.42.57-12.85.57-19.27S509,60.33,508.6,53.87Z" transform="translate(-0.23 -0.01)"/><path class="cls-2" d="M559.76,64.83a191.27,191.27,0,0,1-3.3-19.11c-.74-6.42-1.07-12.91-1.27-19.41v.19c-1.57,26.08,7.71,51.29,6.1,77.37h0l3.09,0c-.19-6.57-.53-13.14-1.28-19.69A188.41,188.41,0,0,0,559.76,64.83Z" transform="translate(-0.23 -0.01)"/><path class="cls-3" d="M556.7,65.36a192.87,192.87,0,0,1-1.8-19.52c-.23-6.53,0-13,.27-19.53v.19c-1.57,26.08,7.71,51.29,6.1,77.37h0l-3.09,0c.32-6.42.5-12.85.28-19.25A189.83,189.83,0,0,0,556.7,65.36Z" transform="translate(-0.23 -0.01)"/><path class="cls-2" d="M592,67.83a141.36,141.36,0,0,1-2.46-14.27c-.55-4.8-.81-9.65-1-14.5v.15c-1.17,19.47,5.76,38.3,4.56,57.78h0l2.31,0c-.14-4.9-.4-9.81-.95-14.7A141.39,141.39,0,0,0,592,67.83Z" transform="translate(-0.23 -0.01)"/><path class="cls-3" d="M589.67,68.22a144.71,144.71,0,0,1-1.34-14.57c-.17-4.88,0-9.74.2-14.59v.15c-1.17,19.47,5.76,38.3,4.56,57.78h0l-2.31,0c.24-4.79.37-9.59.21-14.37A139.82,139.82,0,0,0,589.67,68.22Z" transform="translate(-0.23 -0.01)"/><path class="cls-2" d="M624.55,70.88c-.5-3.16-.95-6.31-1.22-9.48s-.42-6.38-.51-9.57v.09c-.6,12.79,2.58,25.39,2,38.18h0l1.52,0c-.09-3.22-.23-6.44-.51-9.66S625.06,74,624.55,70.88Z" transform="translate(-0.23 -0.01)"/><path class="cls-3" d="M623,71.05c-.25-3.19-.45-6.41-.47-9.62s.09-6.41.25-9.6v.09c-.6,12.79,2.58,25.39,2,38.18h0l-1.52,0c.16-3.17.27-6.34.25-9.51S623.29,74.24,623,71.05Z" transform="translate(-0.23 -0.01)"/><path class="cls-4" d="M663.33,92.39c.44-29.54-3.46-29.6-3-59.13" transform="translate(-0.23 -0.01)"/><path class="cls-4" d="M695.61,94.58c.59-39.95,7.85-39.85,8.44-79.8" transform="translate(-0.23 -0.01)"/><path class="cls-5" d="M591.84,97.58c.5-34.44,6.76-34.34,7.27-68.78" transform="translate(-0.23 -0.01)"/><path class="cls-6" d="M596.88,63.47c.9-5.72,1.68-11.51,2-17.31s.35-11.59.23-17.36l0,.17c.69,23.2-8,45.41-7.26,68.61h0l2.86,0c-.12-5.72-.13-11.43.21-17.12A171,171,0,0,1,596.88,63.47Z" transform="translate(-0.23 -0.01)"/><path class="cls-7" d="M594.06,62.91A168.81,168.81,0,0,0,597.45,46c.82-5.7,1.3-11.45,1.65-17.22V29c.69,23.2-8,45.41-7.26,68.61h0l-2.86,0c.36-5.83.84-11.66,1.66-17.47S592.7,68.53,594.06,62.91Z" transform="translate(-0.23 -0.01)"/><path class="cls-6" d="M488.84,100.6c.42-28.93,4-28.87,4.47-57.8" transform="translate(-0.23 -0.01)"/><path class="cls-6" d="M492.22,71.86c.49-4.82.91-9.68,1.06-14.53s.13-9.69,0-14.53V43c.32,19.36-4.8,38.29-4.46,57.65h0l2.31,0c-.11-4.8-.14-9.6,0-14.39S491.73,76.67,492.22,71.86Z" transform="translate(-0.23 -0.01)"/><path class="cls-7" d="M489.93,71.54c.87-4.76,1.65-9.5,2.19-14.29s.9-9.62,1.18-14.45V43c.32,19.36-4.8,38.29-4.46,57.65h0l-2.3,0c.28-4.86.63-9.73,1.18-14.58S489.06,76.3,489.93,71.54Z" transform="translate(-0.23 -0.01)"/><path class="cls-6" d="M459.41,94c.45-30.15,4.22-30.09,4.67-60.24" transform="translate(-0.23 -0.01)"/><path class="cls-6" d="M462.94,64.08c.51-5,.95-10.09,1.11-15.14s.14-10.11,0-15.15v.15c.33,20.18-5,39.91-4.66,60.09h0l2.4,0c-.11-5-.14-10,0-15S462.43,69.1,462.94,64.08Z" transform="translate(-0.23 -0.01)"/><path class="cls-7" d="M460.55,63.74c.91-5,1.73-9.89,2.29-14.89s.93-10,1.23-15.06v.15c.33,20.18-5,39.91-4.66,60.09h0L457,94c.29-5.07.66-10.14,1.23-15.2S459.64,68.71,460.55,63.74Z" transform="translate(-0.23 -0.01)"/><path class="cls-6" d="M431.57,56.25c.47-5.23.86-10.5,1-15.75s.1-10.51,0-15.76v.16c.28,21-4.75,41.57-4.45,62.54h0l2.5,0c-.11-5.21-.16-10.42,0-15.62S431.1,61.48,431.57,56.25Z" transform="translate(-0.23 -0.01)"/><path class="cls-7" d="M429.08,55.93c.88-5.16,1.68-10.32,2.23-15.52s.93-10.43,1.24-15.67v.16c.28,21-4.75,41.57-4.45,62.54h0l-2.49,0c.3-5.27.67-10.54,1.24-15.8S428.2,61.11,429.08,55.93Z" transform="translate(-0.23 -0.01)"/><path class="cls-6" d="M512.43,62.46c.41-4.66.76-9.35.89-14s.09-9.36,0-14v.14c.25,18.68-4.23,37-4,55.71h0l2.22,0c-.1-4.64-.14-9.28,0-13.91S512,67.11,512.43,62.46Z" transform="translate(-0.23 -0.01)"/><path class="cls-7" d="M510.21,62.17c.78-4.6,1.49-9.19,2-13.82s.84-9.29,1.11-14v.14c.25,18.68-4.23,37-4,55.71h0l-2.22,0c.27-4.69.6-9.39,1.1-14.07S509.43,66.78,510.21,62.17Z" transform="translate(-0.23 -0.01)"/><path class="cls-6" d="M594.5,68.51c-.79-8.14-1.21-16.29-1.41-24.48v.12c-.51,16.33,1.37,32.61.86,48.93h0l1.95,0C595.71,84.9,595.28,76.66,594.5,68.51Z" transform="translate(-0.23 -0.01)"/><path class="cls-7" d="M592.54,68.6c-.13-8.19.09-16.4.55-24.57v.12c-.51,16.33,1.37,32.61.86,48.93h0l-1.94,0C592.45,84.9,592.68,76.78,592.54,68.6Z" transform="translate(-0.23 -0.01)"/><path class="cls-8" d="M598.82,58.13c-.47-5.25-.9-10.49-1.19-15.76s-.47-10.53-.62-15.81v.16c-.66,21.05,1.77,42.05,1.11,63.11h0l2.52,0c-.15-5.3-.33-10.6-.62-15.89S599.3,63.39,598.82,58.13Z" transform="translate(-0.23 -0.01)"/><path class="cls-9" d="M596.3,58.26c-.06-5.28-.07-10.58.06-15.87s.37-10.56.64-15.83v.16c-.66,21.05,1.77,42.05,1.11,63.11h0l-2.51,0c.27-5.25.51-10.5.64-15.75S596.36,63.54,596.3,58.26Z" transform="translate(-0.23 -0.01)"/><path class="cls-2" d="M599.89,47.85q0-19.39-.49-38.78v.19c-.22,25.76-1.89,51.49-2.1,77.25h0l3.07,0C600.05,73.65,599.86,60.77,599.89,47.85Z" transform="translate(-0.23 -0.01)"/><path class="cls-3" d="M596.8,47.73q1.58-19.32,2.58-38.66v.19c-.22,25.76-1.89,51.49-2.1,77.25h0l-3.07-.05C594.91,73.55,595.74,60.61,596.8,47.73Z" transform="translate(-0.23 -0.01)"/><path class="cls-2" d="M645.87,59.19c0-12.93-.16-25.86-.48-38.78v.19c-.22,25.77-1.89,51.49-2.1,77.25h0l3.07.05C646,85,645.84,72.11,645.87,59.19Z" transform="translate(-0.23 -0.01)"/><path class="cls-3" d="M642.78,59.07c1.06-12.87,1.89-25.75,2.59-38.66v.19c-.22,25.77-1.89,51.49-2.1,77.25h0l-3.07,0C640.89,84.89,641.73,72,642.78,59.07Z" transform="translate(-0.23 -0.01)"/><path class="cls-2" d="M694.79,70.81c1-6.43,1.81-12.94,2.16-19.46s.38-13,.26-19.51l0,.19c.72,26.07-8.63,51.1-7.87,77.17h0l3.09,0c-.13-6.42-.13-12.85.24-19.25S693.82,77.23,694.79,70.81Z" transform="translate(-0.23 -0.01)"/><path class="cls-3" d="M691.73,70.23c1.48-6.32,2.8-12.61,3.67-19s1.4-12.88,1.79-19.36V32c.72,26.07-8.63,51.1-7.87,77.17h0l-3.09,0c.39-6.55.91-13.1,1.8-19.62S690.26,76.55,691.73,70.23Z" transform="translate(-0.23 -0.01)"/><path class="cls-2" d="M727.06,73.67c.72-4.8,1.35-9.67,1.62-14.53s.28-9.72.19-14.57v.14c.53,19.47-6.45,38.16-5.88,57.63h0l2.31,0c-.09-4.8-.1-9.6.18-14.38S726.33,78.46,727.06,73.67Z" transform="translate(-0.23 -0.01)"/><path class="cls-3" d="M724.78,73.24c1.1-4.72,2.09-9.42,2.74-14.21s1-9.62,1.33-14.46v.14c.53,19.47-6.45,38.16-5.88,57.63h0l-2.31,0c.29-4.89.68-9.79,1.35-14.66S723.68,78,724.78,73.24Z" transform="translate(-0.23 -0.01)"/><path class="cls-2" d="M758.68,76.5c.39-3.18.74-6.39.87-9.6s.14-6.42.07-9.62v.1c.28,12.82-3.69,25.27-3.4,38.1h0l1.53,0c-.07-3.18-.08-6.35.06-9.51S758.28,79.68,758.68,76.5Z" transform="translate(-0.23 -0.01)"/><path class="cls-3" d="M757.16,76.25c.65-3.13,1.24-6.25,1.63-9.42s.64-6.35.83-9.55v.1c.28,12.82-3.69,25.27-3.4,38.1h0l-1.53,0c.19-3.22.43-6.44.84-9.66S756.51,79.39,757.16,76.25Z" transform="translate(-0.23 -0.01)"/><path class="cls-6" d="M689.14,100.74c.36-24,3.92-24,4.28-48" transform="translate(-0.23 -0.01)"/><path class="cls-8" d="M692.23,76.9c.5-4,.93-8,1.1-12.07s.17-8.06.09-12.08v.12c.36,16.11-4.63,31.75-4.27,47.87h0l1.91,0c-.08-4-.09-8,.09-12S691.73,80.89,692.23,76.9Z" transform="translate(-0.23 -0.01)"/><path class="cls-9" d="M690.33,76.59c.82-3.94,1.55-7.86,2-11.84s.81-8,1-12v.12c.36,16.11-4.63,31.75-4.27,47.87h0l-1.91,0c.23-4,.54-8.1,1-12.14S689.52,80.53,690.33,76.59Z" transform="translate(-0.23 -0.01)"/><path class="cls-6" d="M629.42,106.11c.43-28.93-6.91-29-6.48-58" transform="translate(-0.23 -0.01)"/><path class="cls-6" d="M627.32,76.86a105.08,105.08,0,0,1-3.2-14.17A127.8,127.8,0,0,1,623,48.15v.15c-1.46,19.68,8,38.12,6.48,57.81h0l2.32,0a131.89,131.89,0,0,0-1.18-14.83A110.06,110.06,0,0,0,627.32,76.86Z" transform="translate(-0.23 -0.01)"/><path class="cls-7" d="M625.05,77.4A108.25,108.25,0,0,1,623,62.82a128.21,128.21,0,0,1,0-14.67v.15c-1.46,19.68,8,38.12,6.48,57.81h0l-2.33,0a125.43,125.43,0,0,0,0-14.38A106.42,106.42,0,0,0,625.05,77.4Z" transform="translate(-0.23 -0.01)"/><path class="cls-6" d="M583.52,99.18c.45-30.15-7.2-30.27-6.75-60.42" transform="translate(-0.23 -0.01)"/><path class="cls-6" d="M581.33,68.69A112.54,112.54,0,0,1,578,53.92a134.12,134.12,0,0,1-1.21-15.15v.15c-1.53,20.51,8.32,39.74,6.75,60.26h0l2.42,0a135.89,135.89,0,0,0-1.23-15.45A114,114,0,0,0,581.33,68.69Z" transform="translate(-0.23 -0.01)"/><path class="cls-7" d="M579,69.25a114,114,0,0,1-2.18-15.2,136.83,136.83,0,0,1,0-15.29v.16c-1.53,20.51,8.32,39.74,6.75,60.26h0l-2.42,0a133.85,133.85,0,0,0,0-15A110.71,110.71,0,0,0,579,69.25Z" transform="translate(-0.23 -0.01)"/><path class="cls-6" d="M536.06,61c.57-5.22,1.06-10.5,1.25-15.76s.17-10.52.06-15.77v.16c.38,21-5.49,41.51-5.09,62.53h0l2.5,0c-.11-5.2-.15-10.41.05-15.61S535.49,66.23,536.06,61Z" transform="translate(-0.23 -0.01)"/><path class="cls-7" d="M533.58,60.64c1-5.15,1.87-10.29,2.47-15.49s1-10.43,1.31-15.67v.16c.38,21-5.49,41.51-5.09,62.53h0l-2.49,0c.3-5.28.69-10.56,1.31-15.83S532.59,65.8,533.58,60.64Z" transform="translate(-0.23 -0.01)"/><path class="cls-6" d="M633.33,67.57c.51-4.65.95-9.34,1.12-14s.15-9.37,0-14v.13c.34,18.72-4.89,37-4.53,55.7h0l2.23,0c-.1-4.64-.13-9.28,0-13.9S632.82,72.22,633.33,67.57Z" transform="translate(-0.23 -0.01)"/><path class="cls-7" d="M631.12,67.25c.88-4.59,1.67-9.17,2.21-13.8s.89-9.29,1.16-14v.13c.34,18.72-4.89,37-4.53,55.7h0l-2.22,0c.27-4.7.62-9.4,1.17-14.1S630.24,71.84,631.12,67.25Z" transform="translate(-0.23 -0.01)"/><path class="cls-6" d="M732.25,74c-.44-8.16-.73-16.32-.93-24.5v.12c-.35,16.3.28,32.61-.07,48.91h0l1.94,0C733,90.38,732.7,82.18,732.25,74Z" transform="translate(-0.23 -0.01)"/><path class="cls-7" d="M730.3,74c.2-8.18.56-16.36,1-24.52v.12c-.35,16.3.28,32.61-.07,48.91h0l-2,0C729.74,90.35,730.09,82.21,730.3,74Z" transform="translate(-0.23 -0.01)"/><path class="cls-4" d="M571.2,95.19c.48-32.23-.38-32.24.1-64.47" transform="translate(-0.23 -0.01)"/><path class="cls-4" d="M412.34,91.87c.59-40-7.53-40.08-6.94-80" transform="translate(-0.23 -0.01)"/><path class="cls-4" d="M407.58,91.51c.59-39.95,7.85-39.85,8.44-79.8" transform="translate(-0.23 -0.01)"/><path class="cls-4" d="M412.47,91.3c.59-40,5.59-39.88,6.18-79.84" transform="translate(-0.23 -0.01)"/><path class="cls-4" d="M413.87,91c.59-39.95,5.08-39.89,5.67-79.84" transform="translate(-0.23 -0.01)"/><path class="cls-4" d="M423.19,90.88c.59-39.95-2-40-1.4-79.94" transform="translate(-0.23 -0.01)"/><path class="cls-4" d="M421.85,90.58c.59-40,1.58-39.94,2.17-79.9" transform="translate(-0.23 -0.01)"/><path class="cls-4" d="M425.72,90.35c.59-40,7.54-39.85,8.13-79.81" transform="translate(-0.23 -0.01)"/><path class="cls-4" d="M428.67,90.11c.59-40,6.51-39.87,7.1-79.82" transform="translate(-0.23 -0.01)"/><path class="cls-4" d="M442.63,90c.59-40-9.54-40.11-8.95-80.06" transform="translate(-0.23 -0.01)"/><path class="cls-4" d="M439.63,89.7c.59-40,5.89-39.88,6.48-79.83" transform="translate(-0.23 -0.01)"/><path class="cls-4" d="M449.3,89.55c.59-39.95-.48-40,.11-79.92" transform="translate(-0.23 -0.01)"/><path class="cls-4" d="M454.29,89.34c.59-39.95-7.54-40.07-7-80" transform="translate(-0.23 -0.01)"/><path class="cls-4" d="M452.29,89c.59-39.95,4-39.9,4.6-79.85" transform="translate(-0.23 -0.01)"/><path class="cls-4" d="M449.55,96.34c.58-39.34,3.95-39.29,4.53-78.63" transform="translate(-0.23 -0.01)"/><path class="cls-2" d="M453.44,57.19c.4-6.57.72-13.17.8-19.75s0-13.16-.15-19.73l0,.19c.18,26.25-4.71,52.19-4.52,78.44h0l3.25,0c-.16-6.54-.25-13.07-.16-19.6S453,63.75,453.44,57.19Z" transform="translate(-0.23 -0.01)"/><path class="cls-3" d="M450.19,56.86c.93-6.5,1.79-13,2.42-19.51s1.07-13.08,1.46-19.64v.19c.18,26.25-4.71,52.19-4.52,78.44h0l-3.25,0c.39-6.59.84-13.19,1.47-19.77S449.26,63.36,450.19,56.86Z" transform="translate(-0.23 -0.01)"/><path class="cls-2" d="M450.78,64.76c-1.07-6.39-2-12.75-2.59-19.19s-.88-12.91-1.07-19.39v.2c-1.28,25.93,5.56,51.41,4.26,77.34h0l3.08,0c-.19-6.53-.48-13.07-1.07-19.6S451.85,71.15,450.78,64.76Z" transform="translate(-0.23 -0.01)"/><path class="cls-3" d="M447.7,65.14c-.56-6.46-1-13-1.07-19.49s.15-13,.47-19.47v.2c-1.28,25.93,5.56,51.41,4.26,77.34h0l-3.08,0c.32-6.43.54-12.85.47-19.27S448.26,71.6,447.7,65.14Z" transform="translate(-0.23 -0.01)"/><path class="cls-2" d="M546.59,66.05c-1.07-6.38-2-12.75-2.59-19.19s-.88-12.9-1.07-19.38v.19c-1.28,25.93,5.56,51.41,4.26,77.34h0l3.08,0c-.19-6.53-.48-13.07-1.07-19.59S547.66,72.45,546.59,66.05Z" transform="translate(-0.23 -0.01)"/><path class="cls-3" d="M543.51,66.44c-.56-6.47-1-13-1.07-19.5s.15-13,.47-19.46v.19c-1.28,25.93,5.56,51.41,4.26,77.34h0l-3.08,0c.32-6.42.54-12.85.47-19.26S544.07,72.89,543.51,66.44Z" transform="translate(-0.23 -0.01)"/><path class="cls-2" d="M638.87,67.57c.21-12.94.09-25.89-.24-38.8V29c-.14,25.77-2.46,51.47-2.59,77.24h0l3.08,0C638.79,93.35,638.66,80.48,638.87,67.57Z" transform="translate(-0.23 -0.01)"/><path class="cls-3" d="M635.78,67.41c1.23-12.86,2.14-25.73,2.83-38.64V29c-.14,25.77-2.46,51.47-2.59,77.24h0l-3.07,0C633.64,93.23,634.55,80.28,635.78,67.41Z" transform="translate(-0.23 -0.01)"/><path class="cls-2" d="M575.7,69.19c.16-9.66.07-19.33-.18-29v.14c-.1,19.25-1.83,38.44-1.93,57.69h0l2.29,0C575.64,88.45,575.55,78.84,575.7,69.19Z" transform="translate(-0.23 -0.01)"/><path class="cls-3" d="M573.4,69.07c.92-9.6,1.59-19.21,2.11-28.85v.14c-.1,19.25-1.83,38.44-1.93,57.69h0l-2.3,0C571.8,88.36,572.47,78.69,573.4,69.07Z" transform="translate(-0.23 -0.01)"/><path class="cls-2" d="M513.91,70.9c.28-3.19.52-6.4.6-9.6s.06-6.41,0-9.6v.09c.16,12.78-2.87,25.33-2.7,38.11h0l1.52,0c-.07-3.18-.1-6.35,0-9.52S513.63,74.08,513.91,70.9Z" transform="translate(-0.23 -0.01)"/><path class="cls-3" d="M512.39,70.7c.54-3.14,1-6.28,1.35-9.46s.57-6.35.76-9.54v.09c.16,12.78-2.87,25.33-2.7,38.11h0l-1.52,0c.19-3.21.41-6.42.75-9.63S511.86,73.86,512.39,70.7Z" transform="translate(-0.23 -0.01)"/><path class="cls-8" d="M499.13,69.71c.33-3.64.6-7.3.69-10.95s.07-7.31,0-11v.11c.19,14.58-3.27,28.9-3.07,43.49h0l1.73,0c-.08-3.62-.11-7.24,0-10.86S498.81,73.34,499.13,69.71Z" transform="translate(-0.23 -0.01)"/><path class="cls-9" d="M497.4,69.49c.61-3.59,1.16-7.18,1.55-10.79s.64-7.26.85-10.9v.11c.19,14.58-3.27,28.9-3.07,43.49h0l-1.74,0c.21-3.66.47-7.33.86-11S496.8,73.09,497.4,69.49Z" transform="translate(-0.23 -0.01)"/><path class="cls-6" d="M485.81,68.4c-.55-8.16-.88-16.32-1.08-24.5V44c-.4,16.31.63,32.61.23,48.92h0l1.95,0C486.7,84.78,486.36,76.56,485.81,68.4Z" transform="translate(-0.23 -0.01)"/><path class="cls-7" d="M483.86,68.44c.09-8.18.41-16.37.86-24.54V44c-.4,16.31.63,32.61.23,48.92h0l-1.95,0C483.44,84.76,483.76,76.62,483.86,68.44Z" transform="translate(-0.23 -0.01)"/></g></g></g></svg>
