<svg xmlns="http://www.w3.org/2000/svg" viewBox="0 0 1922 1080.33"><defs><style>.cls-1{fill:#29abe2;}.cls-2{fill:#ccc;}.cls-3{fill:#f2f2f2;}.cls-4{fill:#39c;}.cls-5{fill:#7c482e;}.cls-5,.cls-6{stroke:#630;stroke-miterlimit:10;}.cls-6{fill:#3f2013;}</style></defs><title>kredit-u-t</title><g id="Layer_2" data-name="Layer 2"><g id="Layer_7" data-name="Layer 7"><rect class="cls-1" x="2" width="1920" height="1080"/><path class="cls-2" d="M410.13,607.45c-9.18,24,9.67,50.43,34.17,52.94-6.91,1.89-7.54,11.94-6.91,18.22,0,10,5.65,19.47,15.07,23.24,13.19,6.28,26.38,11.93,40.83,13.82,8.8,1.88,19.47,5,24.5,11.93,13.19,18.85,38.94,15.08,53.39,23.87,17,10,35.8,13.19,52.14.63,4.39-3.14,14.44-3.14,17.58,0,13.82,12.56,32,13.19,48.37,6.28,6.91-3.14,17.59-8.16,22.61-5.65,23.87,11.3,49,1.88,71.61,0,18.22-1.26,36.43-4.4,52.14-15.71,11.3-8.16,30.78-12.56,37.69-28.89,5.65-12.56,22-7.54,32.66-14.45s13.19-21.35,22-27.64c22-17.58,37.06-42.71,33.92-69.72a26.17,26.17,0,0,0-2-8.23,27.12,27.12,0,0,0-4.28-7C950,572,944,584,938,587c16-14,18-39,6-57-10-15-26-15-40.17-20.68-.58-.6-.9-.42-1.92-3.12a59.15,59.15,0,0,0-4.87-9.79C887.48,481,871,470.88,851,474c-13,2-24,7-34.52,14.09-1.39-1-3.57-2.7-6.05-4.39-12.35-8.47-26.8-13.07-42.43-8.7h1c-4-1-7,4-12.08,3.39-1.8,0-4.14-.84-7-2.37-20.72-11.62-47-16.08-57.48,9.75-.63.63-2.51,2.51-3.77,1.88-12.56-10.68-28.89-18.21-45.22-17.58-1.89.62-4.4-1.26-6.28-1.26q-3.46-.48-6.82-.79c-2.22-.28-4.28-.8-6.4-1.22a60.85,60.85,0,0,1-8.08-3.08c-11.53-7.09-25.18-8.14-37.87-4.74a61.87,61.87,0,0,0-9.32,3.3A58.34,58.34,0,0,0,535,506c0-1,1-2,.94-3.42a10.5,10.5,0,0,0-.56,2.66,65.42,65.42,0,0,0-31.85,3.08c-2.43.87-4.77,1.79-7,2.49C471,507,441,520,434.6,546.78c-1,2.75-1.08,5.51-2.49,8.19a48.55,48.55,0,0,0-7.53,27.21,32.68,32.68,0,0,1-1.58,8c-1.46,2.11-3,4.18-4.66,6.22a72.18,72.18,0,0,1-5.59,6.07A29.72,29.72,0,0,0,410.13,607.45Z"/><path class="cls-2" d="M833.13,646.45c-9.18,24,9.67,50.43,34.17,52.94-6.91,1.89-7.54,11.94-6.91,18.22,0,10,5.65,19.47,15.07,23.24,13.19,6.28,26.38,11.93,40.83,13.82,8.8,1.88,19.47,5,24.5,11.93,13.19,18.85,38.94,15.08,53.39,23.87,17,10,35.8,13.19,52.14.63,4.39-3.14,14.44-3.14,17.58,0,13.82,12.56,32,13.19,48.37,6.28,6.91-3.14,17.59-8.16,22.61-5.65,23.87,11.3,49,1.88,71.61,0,18.22-1.26,36.43-4.4,52.14-15.71,11.3-8.16,30.78-12.56,37.69-28.89,5.65-12.56,22-7.54,32.66-14.45s13.19-21.35,22-27.64c22-17.58,37.06-42.71,33.92-69.72-1.25-17.59-19.47-28.89-36.43-26.38,1.26-12.25-2-23.4-9-31.8a39.77,39.77,0,0,0-5.84-5.76C1326,567,1323,558,1318,551c-14.87-18.37-40.47-26-62.71-18.28A53.23,53.23,0,0,0,1246,537c-4,2-7,0-9-2-10-14-24-21-39-25,0,0,1,0,1,.4-2.88-.88-5.77-1.84-8.7-2.76-14.66-4.56-30.37-4.17-45.49-1.79a34.58,34.58,0,0,0-9,.58c-8.61,1.76-16,7.27-20.48,18.34-.63.63-2.51,2.51-3.77,1.88a79.34,79.34,0,0,0-21.2-13,76.78,76.78,0,0,1-7-3.52C1071,503,1057,497,1043,497a236,236,0,0,0-53,3c-22,3-36,23-38,45a9,9,0,0,0,1-5v4a13.91,13.91,0,0,1-4.28-.48,65,65,0,0,0-8.08.46c-18.45,2.21-34.12,12.22-47.59,26.64-8.79,10-10,24.5-5,36.44-1.89-.63-3.15-1.89-5-3.15v1.26c-9.42-6.28-22.61,1.89-28.27,10.68-6.28,9.42-10.67,17.59-19,25.62A29.72,29.72,0,0,0,833.13,646.45Z"/><path class="cls-2" d="M1317.13,576.45c-9.18,24,9.67,50.43,34.17,52.94-6.91,1.89-7.54,11.94-6.91,18.22,0,10,5.65,19.47,15.07,23.24,13.19,6.28,26.38,11.93,40.83,13.82,8.8,1.88,19.47,5,24.5,11.93,13.19,18.85,38.94,15.08,53.39,23.87,17,10,35.8,13.19,52.14.63,4.39-3.14,14.44-3.14,17.58,0,13.82,12.56,32,13.19,48.37,6.28,6.91-3.14,17.59-8.16,22.61-5.65,23.87,11.3,49,1.88,71.61,0,18.22-1.26,36.43-4.4,52.14-15.71,11.3-8.16,30.78-12.56,37.69-28.89,5.65-12.56,22-7.54,32.66-14.45s13.19-21.35,22-27.64c22-17.58,37.06-42.71,33.92-69.72-1.25-17.59-19.47-28.89-36.43-26.38,2.2-21.44-9.55-39.5-30.19-45.37a52,52,0,0,0-9.38-1.74A5,5,0,0,1,1788,489c-4-21-14-41-35-47-16-5-31,0-46.24,6.48-2.74.68-6,1.08-9.35,1.74a61.13,61.13,0,0,0-10,2.87,29.24,29.24,0,0,1-4.64-.89A20.88,20.88,0,0,0,1676,451h.63c-3.77,0-8.79,1.26-11.3-.63-21.36-15.07-54-25.12-66,4.4-.63.63-2.51,2.51-3.77,1.88-12.56-10.68-28.89-18.21-45.22-17.58-1.89.62-4.4-1.26-6.28-1.26-22.14-8.81-47.14-6.81-65,8.53-3.17,1.51-6.77,2-10.3,2.54a33.92,33.92,0,0,0-10.13,2.75c-8.8,5-13.19,13.82-16.33,23.24,1.25-.63,0-2.51,1.25-3.14l-1.25,2.51c-26.39-3.77-47.74,7.54-65.33,26.38a31.84,31.84,0,0,0-6.33,11.26,34.33,34.33,0,0,0-1.36,6.25c-1.36,5.87-3.36,14.87-11,14.15a60.93,60.93,0,0,0-6.94,2.58,31.07,31.07,0,0,0-12.72,11c-6.28,9.42-10.67,17.59-19,25.62A29.72,29.72,0,0,0,1317.13,576.45Z"/><rect class="cls-2" x="5" y="654" width="1917" height="404"/><path class="cls-2" d="M1905.54,510.79c-7.49-1.24-15-8.69-24.32-8.78-3.71.09-8.44,1.17-10.85-.64-21.36-15.07-54-25.12-66,4.4-.63.63-2.51,2.51-3.77,1.88-12.56-10.68-28.89-18.21-45.22-17.58-1.89.62-4.4-1.26-6.28-1.26-13.82-1.89-26.39-1.89-40.21-1.26-8.79,0-16.33,6.91-24.49,10.05-6.91,2.52-14.45,1.89-20.73,5-7.85,4.48-12.19,12-15.27,20.22a1.22,1.22,0,0,1,.19-.12l-.54,1.09a2,2,0,0,0-.08.22c0,.71.08,1.47-.63,1.83q.3-.92.63-1.83V524l-.63,1.26c-26.39-3.77-47.74,7.54-65.33,26.38-8.79,10-10,24.5-5,36.44-1.89-.63-3.15-1.89-5-3.15v1.26c-9.42-6.28-22.61,1.89-28.27,10.68-6.28,9.42-10.67,17.59-19,25.62a29.72,29.72,0,0,0-2.62,5c-9.18,24,9.67,50.43,34.17,52.94-6.91,1.89-7.54,11.94-6.91,18.22,0,10,5.65,19.47,15.07,23.24,13.19,6.28,26.38,11.93,40.83,13.82,8.8,1.88,19.47,5,24.5,11.93,13.19,18.85,38.94,15.08,53.39,23.87,17,10,35.8,13.19,52.14.63,4.39-3.14,14.44-3.14,17.58,0,13.82,12.56,32,13.19,48.37,6.28,6.91-3.14,17.59-8.16,22.61-5.65,23.87,11.3,49,1.88,71.61,0a143.19,143.19,0,0,0,26.51-4V516.36C1916.71,514.14,1911.25,511.88,1905.54,510.79Z"/><path class="cls-2" d="M300,518l-.85,0h.08Z"/><path class="cls-2" d="M527,674.54c-1.25-17.59-19.47-28.89-36.43-26.38,2.2-21.44-9.55-39.5-30.2-45.37a51.84,51.84,0,0,0-9.37-1.74c-16-33-51-39-84-49-4-1-8-6-13-9h1a73.31,73.31,0,0,0-8.72-4.84c-13.43-10.7-30.25-20-47-20.14-8.32.21-15.61,3.88-23.27,6.81A49.06,49.06,0,0,1,299.15,518a41.91,41.91,0,0,0-23.67,7,46.13,46.13,0,0,1-15,3.41c-2.49-.24-5-.43-7.51-.43-16.43-1.07-34.64-2.78-52.65-2.54q-5.4.07-10.76.4C161,522,131,534,116.79,560.85a27.8,27.8,0,0,0-5.82,4.42,33.14,33.14,0,0,0-4.47,5.55,47.84,47.84,0,0,0-3.41,6.37A3,3,0,0,0,102,580a63,63,0,0,0-61-1C18.84,590.44,7.92,611.59,3.5,634.41V737.52a37,37,0,0,0,5.87,1.09c-3,.82-4.83,3.2-5.87,6.14v19.43a24,24,0,0,0,14,15.89c13.19,6.28,26.38,11.93,40.83,13.82,8.79,1.88,19.47,5,24.5,11.93,13.19,18.85,38.94,15.08,53.39,23.87,17,10,35.8,13.19,52.13.63,4.4-3.14,14.45-3.14,17.59,0,13.82,12.56,32,13.19,48.37,6.28,6.91-3.14,17.59-8.16,22.61-5.65,23.87,11.3,49,1.88,71.61,0,18.22-1.26,36.43-4.4,52.14-15.71,11.3-8.16,30.77-12.56,37.68-28.89,5.66-12.56,22-7.54,32.67-14.45s13.19-21.35,22-27.64C515,726.68,530.1,701.55,527,674.54Z"/><path class="cls-3" d="M407.37,629.31c-9.19,24.07,9.69,50.48,34.23,53-6.92,1.89-7.55,12-6.92,18.24,0,10.06,5.66,19.49,15.1,23.26,13.22,6.29,26.43,12,40.9,13.84,8.81,1.88,19.51,5,24.55,11.94,13.21,18.87,39,15.1,53.49,23.9,17,10.06,35.87,13.2,52.23.63,4.4-3.15,14.47-3.15,17.62,0,13.84,12.57,32.09,13.2,48.45,6.29,6.92-3.15,17.62-8.18,22.66-5.66,23.91,11.31,49.08,1.88,71.73,0,18.25-1.26,36.5-4.41,52.24-15.72,11.32-8.18,30.83-12.58,37.75-28.93,5.67-12.57,22-7.54,32.73-14.46s13.21-21.38,22-27.67c22-17.6,37.13-42.76,34-69.79a26,26,0,0,0-2-8.25,27.12,27.12,0,0,0-4.28-7c-5.66-9.12-11.67,2.89-17.69,5.9,16-14,18-39.05,6-57.06-10-15-26.05-15-40.25-20.71-.58-.59-.9-.41-1.92-3.12a60.09,60.09,0,0,0-4.88-9.8c-9.57-15.39-26.09-25.56-46.12-22.43-13,2-24,7-34.59,14.11-1.39-1.06-3.58-2.71-6.05-4.4-12.38-8.48-26.86-13.09-42.52-8.71h1c-4-1-7,4-12.1,3.39-1.81,0-4.15-.84-7-2.37-20.76-11.63-47.12-16.1-57.58,9.76-.63.63-2.52,2.51-3.78,1.88-12.58-10.68-28.94-18.23-45.31-17.6-1.88.63-4.4-1.26-6.29-1.26-2.31-.31-4.58-.58-6.83-.79s-4.29-.8-6.41-1.22a60.17,60.17,0,0,1-8.09-3.09c-11.56-7.09-25.22-8.14-37.94-4.74a62.83,62.83,0,0,0-9.34,3.3,58.43,58.43,0,0,0-33.71,43.77c0-1,1-2,.95-3.42a10.7,10.7,0,0,0-.57,2.66,65.67,65.67,0,0,0-31.91,3.08c-2.43.88-4.78,1.8-7,2.49-25.6-3.81-55.65,9.21-62.07,36-1,2.75-1.08,5.52-2.49,8.2A48.55,48.55,0,0,0,421.85,604a32.76,32.76,0,0,1-1.58,8c-1.47,2.11-3,4.18-4.67,6.23a74.08,74.08,0,0,1-5.6,6.07A30.21,30.21,0,0,0,407.37,629.31Z"/><path class="cls-3" d="M831.14,668.35c-9.19,24.07,9.69,50.48,34.23,53-6.92,1.89-7.55,11.95-6.92,18.24,0,10.06,5.66,19.49,15.1,23.26,13.22,6.29,26.43,11.95,40.91,13.84,8.81,1.88,19.5,5,24.54,11.94,13.21,18.87,39,15.1,53.49,23.9,17,10.06,35.87,13.2,52.23.63,4.4-3.15,14.47-3.15,17.62,0,13.84,12.57,32.09,13.2,48.45,6.29,6.93-3.15,17.62-8.18,22.66-5.66,23.91,11.31,49.08,1.88,71.74,0,18.25-1.26,36.5-4.4,52.23-15.72,11.32-8.18,30.83-12.58,37.75-28.93,5.67-12.57,22-7.54,32.73-14.46s13.21-21.38,22-27.67c22-17.6,37.13-42.75,34-69.79-1.25-17.61-19.5-28.93-36.49-26.41,1.25-12.26-2.05-23.43-9-31.84a39.43,39.43,0,0,0-5.86-5.76c-7.67-4.39-10.67-13.4-15.68-20.4-14.9-18.4-40.54-26.06-62.83-18.3a53.32,53.32,0,0,0-9.3,4.28c-4,2-7,0-9-2-10-14-24-21-39.07-25,0,0,1,0,1,.4-2.88-.88-5.78-1.84-8.72-2.75-14.68-4.57-30.42-4.18-45.57-1.8a34.66,34.66,0,0,0-9,.58c-8.63,1.76-16,7.28-20.52,18.36-.63.63-2.52,2.51-3.78,1.89a79.47,79.47,0,0,0-21.23-13,77.19,77.19,0,0,1-7-3.52c-12.43-7.11-26.46-13.12-40.48-13.12a236.81,236.81,0,0,0-53.1,3c-22,3-36.07,23-38.07,45a9,9,0,0,0,1-5v4a14,14,0,0,1-4.29-.48,65.25,65.25,0,0,0-8.09.46C920.37,568,904.66,578,891.17,592.44c-8.81,10.06-10.07,24.52-5,36.47-1.89-.63-3.15-1.89-5-3.14V627c-9.43-6.28-22.65,1.89-28.31,10.69-6.3,9.44-10.7,17.61-19,25.65A30.21,30.21,0,0,0,831.14,668.35Z"/><path class="cls-3" d="M1316,598.27c-9.2,24.08,9.68,50.49,34.23,53-6.93,1.89-7.56,12-6.93,18.24,0,10.06,5.67,19.49,15.11,23.26,13.21,6.29,26.43,12,40.9,13.83,8.81,1.89,19.51,5,24.54,11.95,13.22,18.87,39,15.09,53.49,23.9,17,10.06,35.87,13.2,52.23.62,4.41-3.14,14.48-3.14,17.62,0,13.85,12.58,32.1,13.21,48.46,6.29,6.92-3.14,17.62-8.17,22.65-5.66,23.91,11.32,49.09,1.89,71.74,0,18.25-1.25,36.5-4.4,52.23-15.72,11.33-8.17,30.84-12.57,37.76-28.92,5.66-12.58,22-7.55,32.72-14.46s13.22-21.38,22-27.67c22-17.61,37.12-42.76,34-69.8-1.26-17.6-19.51-28.92-36.5-26.41,2.2-21.45-9.57-39.54-30.25-45.41a52.18,52.18,0,0,0-9.4-1.74,5,5,0,0,1-4.88-2.84c-4-21-14-41-35.07-47.05-16-5-31,0-46.32,6.49-2.75.68-6,1.08-9.37,1.74a62.25,62.25,0,0,0-10,2.87,28.12,28.12,0,0,1-4.66-.89,21.15,21.15,0,0,0-6.75-1.2h.63c-3.78,0-8.81,1.26-11.33-.63-21.4-15.09-54.12-25.15-66.08,4.41-.63.63-2.51,2.51-3.77,1.88-12.59-10.69-29-18.23-45.31-17.6-1.89.63-4.41-1.26-6.29-1.26-22.18-8.82-47.23-6.82-65.12,8.54-3.18,1.51-6.78,2-10.32,2.54a34.13,34.13,0,0,0-10.15,2.75c-8.81,5-13.21,13.84-16.36,23.27,1.26-.63,0-2.52,1.26-3.15L1441.5,496c-26.43-3.77-47.82,7.54-65.44,26.41a31.52,31.52,0,0,0-6.34,11.27,33.46,33.46,0,0,0-1.37,6.26c-1.36,5.87-3.36,14.88-11,14.16a61.71,61.71,0,0,0-6.95,2.58,31.16,31.16,0,0,0-12.74,11c-6.29,9.43-10.7,17.61-19,25.65A29,29,0,0,0,1316,598.27Z"/><rect class="cls-3" x="1.5" y="675.9" width="1920.5" height="404.42"/><path class="cls-3" d="M1905.51,532.55c-7.5-1.25-15-8.7-24.36-8.79-3.72.08-8.46,1.17-10.88-.64-21.39-15.09-54.12-25.15-66.07,4.4-.63.63-2.52,2.51-3.78,1.89-12.58-10.69-29-18.24-45.31-17.61-1.88.63-4.4-1.26-6.29-1.26-13.84-1.88-26.43-1.88-40.27-1.26-8.81,0-16.37,6.92-24.55,10.07-6.92,2.51-14.47,1.88-20.76,5-7.86,4.48-12.21,12-15.29,20.24a.57.57,0,0,1,.18-.12l-.54,1.09a1.43,1.43,0,0,0-.08.22c0,.71.08,1.47-.63,1.83q.3-.92.63-1.83v-.06l-.63,1.26c-26.43-3.77-47.83,7.55-65.45,26.41-8.81,10.06-10.07,24.52-5,36.47-1.89-.63-3.15-1.89-5-3.14V608c-9.44-6.28-22.65,1.89-28.32,10.69-6.29,9.44-10.69,17.61-19,25.65a29.47,29.47,0,0,0-2.63,5c-9.19,24.07,9.69,50.48,34.23,53-6.92,1.89-7.55,11.95-6.92,18.24,0,10.06,5.66,19.49,15.1,23.26,13.22,6.29,26.43,11.95,40.9,13.84,8.81,1.88,19.51,5,24.55,12,13.21,18.86,39,15.09,53.48,23.89,17,10.06,35.87,13.2,52.24.63,4.4-3.15,14.47-3.15,17.62,0,13.84,12.57,32.09,13.2,48.45,6.29,6.92-3.15,17.62-8.18,22.66-5.66,23.91,11.32,49.08,1.88,71.73,0a144.44,144.44,0,0,0,26.56-4V538.12C1916.71,535.9,1911.23,533.64,1905.51,532.55Z"/><path class="cls-3" d="M297,539.76l-.85,0h.08Z"/><path class="cls-3" d="M524.42,696.47c-1.26-17.61-19.51-28.93-36.5-26.41,2.2-21.46-9.57-39.55-30.25-45.42a52.18,52.18,0,0,0-9.4-1.74c-16-33.08-51-39.09-84.11-49.1-4-1-8-6-13-9h1a73.63,73.63,0,0,0-8.74-4.85c-13.45-10.71-30.3-20-47.13-20.16-8.34.22-15.64,3.89-23.31,6.82a49.23,49.23,0,0,1,23.23-6.82,42.1,42.1,0,0,0-23.72,7,46.19,46.19,0,0,1-15,3.41c-2.48-.24-5-.43-7.51-.43-16.46-1.07-34.71-2.78-52.75-2.54-3.61,0-7.21.18-10.78.4-28.64-3.86-58.7,8.15-72.94,35a27.83,27.83,0,0,0-5.83,4.43,32.74,32.74,0,0,0-4.47,5.55A45.64,45.64,0,0,0,99.78,599a3,3,0,0,0-1.1,2.82,63.18,63.18,0,0,0-61.11-1C15.37,612.28,4.43,633.45,0,656.29V759.51a37.3,37.3,0,0,0,5.89,1.09c-3,.83-4.85,3.21-5.89,6.15V786.2a24.07,24.07,0,0,0,14.07,15.91c13.21,6.28,26.43,11.94,40.9,13.83,8.81,1.88,19.51,5,24.54,11.95,13.22,18.86,39,15.09,53.49,23.89,17,10.06,35.87,13.2,52.23.63,4.41-3.15,14.48-3.15,17.62,0,13.85,12.57,32.1,13.2,48.46,6.29,6.92-3.15,17.62-8.18,22.65-5.66,23.91,11.32,49.09,1.88,71.74,0,18.25-1.26,36.5-4.4,52.23-15.72,11.33-8.18,30.84-12.58,37.76-28.93,5.66-12.57,22-7.54,32.72-14.46s13.22-21.38,22-27.67C512.46,748.66,527.56,723.51,524.42,696.47Z"/><rect class="cls-1" x="656" y="671" width="615" height="207" rx="103.5" ry="103.5"/><rect class="cls-4" x="666" y="663" width="615" height="207" rx="103.5" ry="103.5"/><rect class="cls-1" x="657" y="671" width="615" height="207" rx="103.5" ry="103.5"/><path class="cls-5" d="M653.73,877.17c-21.39-11.66-29.29-58.1,18.42-77.4s70.4,19.42,66.09,66.21S702.68,903.84,653.73,877.17Z"/><path class="cls-6" d="M638.37,868.17c4.33,5.67,59.08-39.85,76.67-70.16s-35.11-9.61-51.07-3.24c1.6-4.78-12.75-25.54-23.93-17.57s1.58,17.55,1.58,17.55,18,11.64,12.21,15.4S617.65,841,638.37,868.17Z"/><path class="cls-5" d="M704.75,913.69c-11.27,7.12-35.56-1.47-32.07-29.41s28-28.47,49.23-13.94S730.53,897.41,704.75,913.69Z"/><path class="cls-6" d="M696.36,918.64c3.86-.56-3.31-38.85-13.1-55.32s-13.94,14.21-15.15,23.54c-1.86-2-15.6-.72-14.77,6.75s8.81,3.92,8.81,3.92,10.36-5.52,10.6-1.73S677.87,921.31,696.36,918.64Z"/><path class="cls-5" d="M725.25,885.46c-8.91-4.86-12.2-24.21,7.68-32.25s29.33,8.09,27.54,27.59S745.65,896.58,725.25,885.46Z"/><path class="cls-6" d="M718.85,881.71c1.8,2.37,24.62-16.6,31.95-29.23s-14.63-4-21.28-1.35c.66-2-5.31-10.65-10-7.33s.66,7.32.66,7.32,7.51,4.85,5.08,6.41S710.21,870.4,718.85,881.71Z"/></g></g></svg>
