<svg xmlns="http://www.w3.org/2000/svg" viewBox="0 0 5440 740"><defs><style>.cls-1{fill:#873015;}.cls-2{fill:#722611;}.cls-3{fill:#c69c6d;}.cls-4{fill:#fff;}.cls-5{fill:#aa5578;}.cls-6{fill:none;}.cls-7{fill:#d683a9;}</style></defs><title>egern_nuser_sprite</title><g id="sprite"><path class="cls-1" d="M343.24,312.12a359.33,359.33,0,0,1,20.69-64.47,310.47,310.47,0,0,0-40.78,104.28c-38.95,201,33,229.77-80.57,315.21-5.53,4.06-42.94,24.89,2.77,31.11C297.84,672,351.07,623.84,398.9,559.45,344.87,513.05,320.42,415.44,343.24,312.12Z"/><path class="cls-2" d="M580.45,26.93c-8.88-6.58-10.64,7-14.78,11.73a54.62,54.62,0,0,0-12.46,25.17c-4.69,23.08-9.23,35.45-15.86,43-67.15-4.19-135.63,53-173.42,140.82a359.33,359.33,0,0,0-20.69,64.47C320.42,415.43,344.86,513,398.89,559.44,351.06,623.83,297.84,672,245.35,698.25c14.54,2,37.49,2.47,72.55.48,58.48-3.33,97.74-24.44,126.17-52.92,42.2-42.28,60.52-100.78,82.28-141.39C560.33,441,707.63,123.37,580.45,26.93Z"/><ellipse class="cls-1" cx="244.28" cy="515.53" rx="161.33" ry="202.64"/><path class="cls-2" d="M121.76,673.59c-18.78,5.07-77.28,17.56-72.83,45.68s50.24,0,50.24,0l36.66-27.57Z"/><path class="cls-2" d="M362.1,673.59c18.78,5.07,77.28,17.56,72.83,45.68s-50.23,0-50.23,0L348,691.7Z"/><ellipse class="cls-1" cx="134.71" cy="419.8" rx="76.78" ry="57.83" transform="translate(-286.72 290.27) rotate(-55.12)"/><ellipse class="cls-1" cx="355.32" cy="413.97" rx="57.83" ry="76.78" transform="translate(-172.89 277.52) rotate(-34.88)"/><ellipse class="cls-1" cx="244.04" cy="658.39" rx="151.61" ry="54.23"/><ellipse class="cls-3" cx="244.28" cy="529.13" rx="119.06" ry="144.32"/><circle class="cls-1" cx="241.29" cy="208.58" r="123.91"/><ellipse class="cls-3" cx="306.24" cy="262.35" rx="90.38" ry="76.78"/><ellipse class="cls-3" cx="179.9" cy="262.35" rx="90.38" ry="76.78"/><ellipse class="cls-3" cx="186.7" cy="230.28" rx="56.37" ry="76.78"/><ellipse class="cls-3" cx="299.44" cy="230.28" rx="56.37" ry="76.78"/><ellipse class="cls-3" cx="244.85" cy="320.67" rx="27.7" ry="32.07"/><path class="cls-4" d="M334,188.61c-6.63-8.1-22.09-10.31-35.34-11.78a33.23,33.23,0,0,0-28.07,15.41,35.38,35.38,0,0,0-3.13,5.94c-2.66,9.56-2.66,19.13-4,28.95-.1,1.14-.18,2.11-.25,3,1.66-3.91,3.89-8.41,5.14-13.43,4.16-16.66,13.92-31.1,31.1-31.1a31.11,31.11,0,0,1,28,44.67c.21-.35.42-.69.62-1a35.9,35.9,0,0,0,2.43-5.39C333.27,212.16,339.89,196.7,334,188.61Z"/><path d="M299.44,185.57c-17.18,0-26.94,14.44-31.1,31.1-1.25,5-3.48,9.52-5.14,13.43-.14,1.78-.24,3-.29,3.81,5.58,9.9,24.72,9.9,35.76,12.85a33.46,33.46,0,0,0,6.83-.71,34,34,0,0,0,21.93-15.81,31.11,31.11,0,0,0-28-44.67Z"/><path class="cls-4" d="M314,204.53l6.39-4.43c-3.8-5.48-9.8-8-13.31-5.56s-3.27,8.93.53,14.41c3.53,5.1,9,7.69,12.62,6Z"/><path class="cls-4" d="M152.53,188.61c6.63-8.1,22.09-10.31,35.34-11.78a33.23,33.23,0,0,1,28.07,15.41,35.38,35.38,0,0,1,3.13,5.94c2.66,9.56,2.66,19.13,4,28.95.1,1.14.18,2.11.25,3-1.66-3.91-3.89-8.41-5.14-13.43-4.17-16.66-13.92-31.1-31.1-31.1a31.11,31.11,0,0,0-28,44.67c-.21-.35-.42-.69-.62-1a35.9,35.9,0,0,1-2.43-5.39C153.27,212.16,146.65,196.7,152.53,188.61Z"/><path d="M187.1,185.57c17.18,0,26.93,14.44,31.1,31.1,1.25,5,3.48,9.52,5.14,13.43.14,1.78.24,3,.29,3.81-5.58,9.9-24.72,9.9-35.76,12.85a33.46,33.46,0,0,1-6.83-.71,34,34,0,0,1-21.93-15.81,31.11,31.11,0,0,1,28-44.67Z"/><path class="cls-4" d="M201.77,204.53l6.39-4.43c-3.79-5.48-9.8-8-13.31-5.56s-3.26,8.93.53,14.41c3.53,5.1,9,7.69,12.62,6Z"/><path class="cls-1" d="M126.44,30.07c-22-1-22.83,4.49-18.79,11.57a47.2,47.2,0,0,1,13-1.85c32.75,0,59.29,34.16,59.29,76.3a97,97,0,0,1-1.09,14.5,120.68,120.68,0,0,1,26-19C244,90.33,167.26,32,126.44,30.07Z"/><path class="cls-3" d="M120.61,39.79a47.2,47.2,0,0,0-13,1.85c3.58,6.27,11,13.75,10.95,18.94,0,.4.08.8.09,1.19,1.68,43.19,14.56,69.38,23.69,77.3,7.44,6.45,6.2,6.25,10.6,6.55,10.38.72,16.15-6,25.83-15a97,97,0,0,0,1.09-14.5C179.9,74,153.36,39.79,120.61,39.79Z"/><path class="cls-1" d="M357.28,22.3c22-1.05,22.83,4.49,18.79,11.57a46.77,46.77,0,0,0-13-1.85c-32.74,0-59.29,34.15-59.29,76.29a98.49,98.49,0,0,0,1.09,14.51,120.76,120.76,0,0,0-26-19.06C239.68,82.56,316.46,24.24,357.28,22.3Z"/><path class="cls-3" d="M363.11,32a46.77,46.77,0,0,1,13,1.85c-3.58,6.26-11,13.74-10.95,18.94,0,.39-.07.79-.09,1.18-1.68,43.19-14.56,69.38-23.69,77.3-7.44,6.46-6.2,6.25-10.6,6.56-10.38.72-16.15-6-25.83-15a98.49,98.49,0,0,1-1.09-14.51C303.82,66.17,330.37,32,363.11,32Z"/><ellipse class="cls-3" cx="325.68" cy="271.59" rx="53.45" ry="41.3"/><ellipse class="cls-3" cx="160.46" cy="271.59" rx="53.45" ry="41.3"/><path class="cls-5" d="M259.56,296.54l-12.25-3.83.62-.23-5.83-2.91a7.57,7.57,0,0,0-2.92,1c-1.94,1-4.86-.4-2.91,1.94-2-1.37-15.23,3.89-15.23,3.89.65,1-9.07,15.45,16.2,16.48S259.56,296.54,259.56,296.54Z"/><path class="cls-6" d="M241.11,289.64h0v-.06S241.11,289.61,241.11,289.64Z"/><path class="cls-5" d="M241.13,289.63a1.13,1.13,0,0,1,.32-.06h1.62c-2.92-4.86-1-13.61-1-13.61h-1v13.67Z"/><path class="cls-5" d="M277.09,290.54s-7.4,11.46-28.19,2v2.87c9.68,3.78,25.81,6,33-7.82C292.64,267.21,277.09,290.54,277.09,290.54Z"/><path class="cls-5" d="M241.11,289.64s0-.05,0-.07V275h-1s1.95,8.74-1,13.6c-.59.35-1.17.66-1.75,1h.46a1.29,1.29,0,0,1,1.29,1.29v.7a11.91,11.91,0,0,0,1-.73A1.27,1.27,0,0,1,241.11,289.64Z"/><path class="cls-5" d="M205.17,289.57s-15.55-23.33-4.86-2.92c6.55,12.5,20.38,11.87,30.13,8.84v-2.66C211.86,300,205.17,289.57,205.17,289.57Z"/><path class="cls-4" d="M230.44,301.71a4.37,4.37,0,1,0,8.74,0V291.56a35.94,35.94,0,0,1-8.74,3.93Z"/><path class="cls-4" d="M237.89,289.57h-.46a60.44,60.44,0,0,1-7,3.26v2.66a35.94,35.94,0,0,0,8.74-3.93v-.7A1.29,1.29,0,0,0,237.89,289.57Z"/><path class="cls-4" d="M241.13,290.54v-.91h0a2.55,2.55,0,0,1-1,1.19v10.88a4.38,4.38,0,1,0,8.75,0v-6.27C244.28,293.64,241.13,291.48,241.13,290.54Z"/><path class="cls-4" d="M243.07,289.57h-1.62a1.13,1.13,0,0,0-.32.06v.91c0,.94,3.15,3.1,7.77,4.9v-2.87C247.06,291.73,245.13,290.75,243.07,289.57Z"/><path class="cls-4" d="M241.11,289.64a1.27,1.27,0,0,0-1,1.19A2.55,2.55,0,0,0,241.11,289.64Z"/><ellipse class="cls-5" cx="241.29" cy="267.7" rx="17.01" ry="10.2"/><ellipse class="cls-7" cx="240.96" cy="263.81" rx="8.91" ry="5.35"/><ellipse class="cls-2" cx="131.92" cy="434.85" rx="29.48" ry="54.55" transform="translate(-318.23 496.97) rotate(-80.98)"/><ellipse class="cls-2" cx="187.75" cy="412.58" rx="49.25" ry="25.3" transform="translate(-247.69 286.63) rotate(-49.4)"/><ellipse class="cls-2" cx="213" cy="376.59" rx="21.58" ry="23.1" transform="translate(-195.59 234.3) rotate(-41.31)"/><ellipse class="cls-2" cx="195.37" cy="353.32" rx="16.97" ry="3.34" transform="translate(-168.7 527.84) rotate(-86.67)"/><ellipse class="cls-2" cx="204.23" cy="350.57" rx="16.97" ry="3.34" transform="translate(-157.61 534.09) rotate(-86.67)"/><ellipse class="cls-2" cx="213.08" cy="347.82" rx="16.97" ry="3.34" transform="translate(-146.52 540.34) rotate(-86.67)"/><ellipse class="cls-2" cx="221.7" cy="348.94" rx="16.97" ry="3.34" transform="translate(-139.52 550) rotate(-86.67)"/><ellipse class="cls-2" cx="235.56" cy="371.29" rx="11.24" ry="4.03" transform="translate(-201.33 420.97) rotate(-64.1)"/><ellipse class="cls-2" cx="358.64" cy="434.85" rx="54.55" ry="29.48" transform="translate(-63.74 61.6) rotate(-9.02)"/><ellipse class="cls-2" cx="302.81" cy="412.58" rx="25.3" ry="49.25" transform="translate(-195.6 296.38) rotate(-40.6)"/><ellipse class="cls-2" cx="277.56" cy="376.59" rx="23.1" ry="21.58" transform="translate(-188.54 336.51) rotate(-48.69)"/><ellipse class="cls-2" cx="295.19" cy="353.32" rx="3.34" ry="16.97" transform="translate(-20.02 17.74) rotate(-3.33)"/><ellipse class="cls-2" cx="286.34" cy="350.57" rx="3.34" ry="16.97" transform="translate(-19.87 17.22) rotate(-3.33)"/><ellipse class="cls-2" cx="277.48" cy="347.82" rx="3.34" ry="16.97" transform="translate(-19.73 16.7) rotate(-3.33)"/><ellipse class="cls-2" cx="268.86" cy="348.94" rx="3.34" ry="16.97" transform="translate(-19.81 16.2) rotate(-3.33)"/><ellipse class="cls-2" cx="255" cy="371.29" rx="4.03" ry="11.24" transform="translate(-136.58 148.71) rotate(-25.9)"/><path class="cls-1" d="M1023.24,312.15a359.48,359.48,0,0,1,20.69-64.46A310.41,310.41,0,0,0,1003.15,352c-38.95,201,32.95,229.78-80.57,315.22-5.53,4.05-42.94,24.89,2.77,31.1,52.49-26.23,105.72-74.41,153.55-138.79C1024.87,513.09,1000.42,415.47,1023.24,312.15Z"/><path class="cls-2" d="M1260.45,27c-8.88-6.57-10.64,7-14.78,11.73a54.65,54.65,0,0,0-12.46,25.18c-4.69,23.08-9.23,35.45-15.86,43-67.15-4.19-135.63,53-173.42,140.83a359.48,359.48,0,0,0-20.69,64.46c-22.82,103.32,1.62,200.93,55.65,247.33-47.83,64.39-101.05,112.57-153.54,138.8,14.54,2,37.49,2.48,72.55.48,58.48-3.32,97.74-24.44,126.17-52.91,42.2-42.28,60.52-100.78,82.28-141.39C1240.33,441,1387.63,123.41,1260.45,27Z"/><ellipse class="cls-1" cx="924.28" cy="515.56" rx="161.33" ry="202.64"/><path class="cls-2" d="M801.76,673.63c-18.78,5.06-77.28,17.56-72.83,45.68s50.24,0,50.24,0l36.66-27.58Z"/><path class="cls-2" d="M1042.1,673.63c18.78,5.06,77.28,17.56,72.83,45.68s-50.23,0-50.23,0L1028,691.73Z"/><ellipse class="cls-1" cx="814.71" cy="419.83" rx="76.78" ry="57.83" transform="translate(4.43 848.15) rotate(-55.12)"/><ellipse class="cls-1" cx="1035.32" cy="414" rx="57.83" ry="76.78" transform="translate(-50.78 666.35) rotate(-34.88)"/><ellipse class="cls-1" cx="924.04" cy="658.43" rx="151.61" ry="54.23"/><ellipse class="cls-3" cx="924.28" cy="529.17" rx="119.06" ry="144.32"/><circle class="cls-1" cx="921.29" cy="208.61" r="123.91"/><ellipse class="cls-3" cx="986.24" cy="262.39" rx="90.38" ry="76.78"/><ellipse class="cls-3" cx="859.9" cy="262.39" rx="90.38" ry="76.78"/><ellipse class="cls-3" cx="866.7" cy="230.32" rx="56.37" ry="76.78"/><ellipse class="cls-3" cx="979.44" cy="230.32" rx="56.37" ry="76.78"/><ellipse class="cls-3" cx="924.85" cy="320.7" rx="27.7" ry="32.07"/><path class="cls-4" d="M1014,188.64c-6.63-8.1-22.09-10.3-35.34-11.78a32.68,32.68,0,0,0-5.71.5,33.8,33.8,0,0,0-22.36,14.92,35.38,35.38,0,0,0-3.13,5.94c-2.66,9.56-2.66,19.13-4,28.95-.1,1.13-.18,2.11-.25,3,1.66-3.92,3.89-8.41,5.14-13.43,4.16-16.66,13.92-31.1,31.1-31.1a31.1,31.1,0,0,1,28,44.66c.21-.34.42-.68.62-1a36.24,36.24,0,0,0,2.43-5.38C1013.27,212.2,1019.89,196.74,1014,188.64Z"/><path d="M979.44,185.61c-17.18,0-26.94,14.44-31.1,31.1-1.25,5-3.48,9.51-5.14,13.43-.14,1.78-.24,3-.29,3.8,5.58,9.91,24.72,9.91,35.76,12.85a32.77,32.77,0,0,0,6.83-.71,33.89,33.89,0,0,0,21.93-15.81,31.1,31.1,0,0,0-28-44.66Z"/><path class="cls-4" d="M994,204.56l6.39-4.42c-3.8-5.48-9.8-8-13.31-5.56s-3.27,8.93.53,14.41c3.53,5.1,9,7.69,12.62,6Z"/><path class="cls-4" d="M832.53,188.64c6.63-8.1,22.09-10.3,35.34-11.78a32.68,32.68,0,0,1,5.71.5,33.8,33.8,0,0,1,22.36,14.92,35.38,35.38,0,0,1,3.13,5.94c2.66,9.56,2.66,19.13,4,28.95.1,1.13.18,2.11.25,3-1.66-3.92-3.89-8.41-5.14-13.43-4.17-16.66-13.92-31.1-31.1-31.1a31.1,31.1,0,0,0-28,44.66c-.21-.34-.42-.68-.62-1a36.24,36.24,0,0,1-2.43-5.38C833.27,212.2,826.65,196.74,832.53,188.64Z"/><path d="M867.1,185.61c17.18,0,26.93,14.44,31.1,31.1,1.25,5,3.48,9.51,5.14,13.43.14,1.78.24,3,.29,3.8-5.58,9.91-24.72,9.91-35.76,12.85a32.77,32.77,0,0,1-6.83-.71,33.89,33.89,0,0,1-21.93-15.81,31.1,31.1,0,0,1,28-44.66Z"/><path class="cls-4" d="M881.77,204.56l6.39-4.42c-3.79-5.48-9.8-8-13.31-5.56s-3.26,8.93.53,14.41c3.53,5.1,9,7.69,12.62,6Z"/><path class="cls-1" d="M806.44,30.11c-22-1.05-22.83,4.49-18.79,11.57a46.82,46.82,0,0,1,13-1.85c32.75,0,59.29,34.16,59.29,76.29a97.14,97.14,0,0,1-1.09,14.51,121,121,0,0,1,26-19.06C924,90.37,847.26,32.05,806.44,30.11Z"/><path class="cls-3" d="M800.61,39.83a46.82,46.82,0,0,0-13,1.85c3.58,6.27,11,13.74,11,18.94,0,.39.08.79.09,1.19,1.68,43.18,14.56,69.38,23.69,77.29,7.44,6.46,6.2,6.26,10.6,6.56,10.38.72,16.15-6,25.83-15a97.14,97.14,0,0,0,1.09-14.51C859.9,74,833.36,39.83,800.61,39.83Z"/><path class="cls-1" d="M1037.28,22.33c22-1,22.83,4.49,18.79,11.57a47.14,47.14,0,0,0-13-1.85c-32.74,0-59.29,34.16-59.29,76.3a98.25,98.25,0,0,0,1.09,14.5,120.43,120.43,0,0,0-26-19C919.68,82.59,996.46,24.28,1037.28,22.33Z"/><path class="cls-3" d="M1043.11,32.05a47.14,47.14,0,0,1,13,1.85c-3.58,6.27-11,13.75-11,18.94,0,.4-.07.8-.09,1.19-1.68,43.19-14.56,69.38-23.69,77.3-7.44,6.46-6.2,6.25-10.6,6.56-10.38.72-16.15-6-25.83-15a98.25,98.25,0,0,1-1.09-14.5C983.82,66.21,1010.37,32.05,1043.11,32.05Z"/><ellipse class="cls-3" cx="1005.68" cy="271.62" rx="53.45" ry="41.3"/><ellipse class="cls-3" cx="840.46" cy="271.62" rx="53.45" ry="41.3"/><path class="cls-5" d="M939.56,282.38l-12.25-3.83.62-.24-5.83-2.91a7.57,7.57,0,0,0-2.92,1c-1.94,1-4.86-.4-2.91,1.94-1.95-1.37-15.23,3.89-15.23,3.89.65,1-9.07,15.45,16.2,16.48S939.56,282.38,939.56,282.38Z"/><path class="cls-6" d="M921.11,275.47h0v-.06S921.11,275.45,921.11,275.47Z"/><path class="cls-5" d="M921.13,275.46a1.65,1.65,0,0,1,.32-.06h1.62c-2.92-4.86-1-13.61-1-13.61h-1v13.67Z"/><path class="cls-5" d="M957.09,276.37s-7.4,11.47-28.19,2v2.87c9.68,3.78,25.81,6,33.05-7.82C972.64,253.05,957.09,276.37,957.09,276.37Z"/><path class="cls-5" d="M921.11,275.47s0-.05,0-.07V260.82h-1s2,8.75-1,13.61c-.59.34-1.17.66-1.75,1h.46a1.29,1.29,0,0,1,1.29,1.29v.7a11.91,11.91,0,0,0,1-.73A1.27,1.27,0,0,1,921.11,275.47Z"/><path class="cls-5" d="M885.17,275.4s-15.55-23.33-4.86-2.92c6.55,12.51,20.38,11.87,30.13,8.84v-2.66C891.86,285.8,885.17,275.4,885.17,275.4Z"/><path class="cls-4" d="M910.44,287.55a4.37,4.37,0,0,0,8.74,0V277.39a35.94,35.94,0,0,1-8.74,3.93Z"/><path class="cls-4" d="M917.89,275.4h-.46a60.44,60.44,0,0,1-7,3.26v2.66a35.94,35.94,0,0,0,8.74-3.93v-.7A1.29,1.29,0,0,0,917.89,275.4Z"/><path class="cls-4" d="M921.13,276.37v-.91h0a2.55,2.55,0,0,1-1,1.19v10.89a4.38,4.38,0,0,0,8.75,0v-6.28C924.28,279.47,921.13,277.31,921.13,276.37Z"/><path class="cls-4" d="M923.07,275.4h-1.62a1.65,1.65,0,0,0-.32.06v.91c0,.94,3.15,3.1,7.77,4.9V278.4C927.06,277.57,925.13,276.58,923.07,275.4Z"/><path class="cls-4" d="M921.11,275.47a1.27,1.27,0,0,0-1,1.19A2.55,2.55,0,0,0,921.11,275.47Z"/><ellipse class="cls-5" cx="921.29" cy="253.53" rx="17.01" ry="10.2"/><ellipse class="cls-7" cx="920.96" cy="249.64" rx="8.91" ry="5.35"/><ellipse class="cls-2" cx="811.92" cy="434.89" rx="29.48" ry="54.55" transform="translate(255.13 1168.59) rotate(-80.98)"/><ellipse class="cls-2" cx="867.75" cy="412.61" rx="49.25" ry="25.3" transform="translate(-10.25 802.95) rotate(-49.4)"/><ellipse class="cls-2" cx="893" cy="376.63" rx="21.58" ry="23.1" transform="translate(-26.42 683.17) rotate(-41.31)"/><ellipse class="cls-2" cx="875.37" cy="353.36" rx="16.97" ry="3.34" transform="translate(471.78 1206.73) rotate(-86.67)"/><ellipse class="cls-2" cx="884.23" cy="350.61" rx="16.97" ry="3.34" transform="translate(482.87 1212.98) rotate(-86.67)"/><ellipse class="cls-2" cx="893.08" cy="347.85" rx="16.97" ry="3.34" transform="translate(493.96 1219.23) rotate(-86.67)"/><ellipse class="cls-2" cx="901.7" cy="348.97" rx="16.97" ry="3.34" transform="translate(500.96 1228.89) rotate(-86.67)"/><ellipse class="cls-2" cx="915.56" cy="371.32" rx="11.24" ry="4.03" transform="translate(181.56 1032.66) rotate(-64.1)"/><ellipse class="cls-2" cx="1038.64" cy="434.89" rx="54.55" ry="29.48" transform="translate(-55.33 168.2) rotate(-9.02)"/><ellipse class="cls-2" cx="982.81" cy="412.61" rx="25.3" ry="49.25" transform="translate(-31.93 738.92) rotate(-40.6)"/><ellipse class="cls-2" cx="957.56" cy="376.63" rx="23.1" ry="21.58" transform="translate(42.57 847.33) rotate(-48.69)"/><ellipse class="cls-2" cx="975.19" cy="353.36" rx="3.34" ry="16.97" transform="translate(-18.87 57.22) rotate(-3.33)"/><ellipse class="cls-2" cx="966.34" cy="350.61" rx="3.34" ry="16.97" transform="translate(-18.73 56.71) rotate(-3.33)"/><ellipse class="cls-2" cx="957.48" cy="347.85" rx="3.34" ry="16.97" transform="translate(-18.58 56.19) rotate(-3.33)"/><ellipse class="cls-2" cx="948.86" cy="348.97" rx="3.34" ry="16.97" transform="translate(-18.66 55.69) rotate(-3.33)"/><ellipse class="cls-2" cx="935" cy="371.32" rx="4.03" ry="11.24" transform="translate(-68.27 445.79) rotate(-25.9)"/><path class="cls-1" d="M1703.24,312.22a359.48,359.48,0,0,1,20.69-64.46A310.47,310.47,0,0,0,1683.15,352c-39,201,32.95,229.77-80.57,315.21-5.53,4.06-42.94,24.89,2.77,31.11,52.49-26.24,105.72-74.41,153.55-138.8C1704.87,513.16,1680.42,415.55,1703.24,312.22Z"/><path class="cls-2" d="M1940.45,27c-8.88-6.57-10.64,7-14.78,11.73a54.7,54.7,0,0,0-12.46,25.18c-4.69,23.08-9.23,35.45-15.86,43-67.15-4.19-135.63,53-173.42,140.82a359.48,359.48,0,0,0-20.69,64.46c-22.82,103.32,1.62,200.93,55.65,247.33-47.83,64.39-101.05,112.57-153.54,138.81,14.54,2,37.49,2.47,72.55.48,58.48-3.33,97.74-24.45,126.17-52.92,42.2-42.28,60.52-100.78,82.28-141.39C1920.33,441.12,2067.63,123.48,1940.45,27Z"/><ellipse class="cls-1" cx="1604.28" cy="515.64" rx="161.33" ry="202.64"/><path class="cls-2" d="M1481.76,673.7c-18.78,5.06-77.28,17.56-72.83,45.68s50.24,0,50.24,0l36.66-27.57Z"/><path class="cls-2" d="M1722.1,673.7c18.78,5.06,77.28,17.56,72.83,45.68s-50.23,0-50.23,0L1708,691.81Z"/><ellipse class="cls-1" cx="1494.71" cy="419.91" rx="76.78" ry="57.83" transform="translate(295.54 1406.05) rotate(-55.12)"/><ellipse class="cls-1" cx="1715.32" cy="414.08" rx="57.83" ry="76.78" transform="translate(71.32 1055.19) rotate(-34.88)"/><ellipse class="cls-1" cx="1604.04" cy="658.5" rx="151.61" ry="54.23"/><ellipse class="cls-3" cx="1604.28" cy="529.24" rx="119.06" ry="144.32"/><circle class="cls-1" cx="1601.29" cy="208.68" r="123.91"/><ellipse class="cls-3" cx="1666.24" cy="262.46" rx="90.38" ry="76.78"/><ellipse class="cls-3" cx="1539.9" cy="262.46" rx="90.38" ry="76.78"/><ellipse class="cls-3" cx="1546.7" cy="230.39" rx="56.37" ry="76.78"/><ellipse class="cls-3" cx="1659.44" cy="230.39" rx="56.37" ry="76.78"/><ellipse class="cls-3" cx="1604.85" cy="320.77" rx="27.7" ry="32.07"/><path class="cls-4" d="M1694,188.71c-6.63-8.09-22.09-10.3-35.34-11.77a33.23,33.23,0,0,0-28.07,15.41,35.38,35.38,0,0,0-3.13,5.94c-2.66,9.56-2.66,19.13-4,29-.1,1.14-.18,2.11-.25,3,1.66-3.92,3.89-8.41,5.14-13.43,4.16-16.66,13.92-31.1,31.1-31.1a31.11,31.11,0,0,1,28,44.67c.21-.35.42-.69.62-1a35.34,35.34,0,0,0,2.43-5.38C1693.27,212.27,1699.89,196.81,1694,188.71Z"/><path d="M1659.44,185.68c-17.18,0-26.94,14.44-31.1,31.1-1.25,5-3.48,9.51-5.14,13.43-.14,1.78-.24,3-.29,3.81,5.58,9.9,24.72,9.9,35.76,12.85a33.46,33.46,0,0,0,6.83-.71,34,34,0,0,0,21.93-15.81,31.11,31.11,0,0,0-28-44.67Z"/><path class="cls-4" d="M1674,204.64l6.39-4.43c-3.8-5.48-9.8-8-13.31-5.56s-3.27,8.93.53,14.41c3.53,5.1,9,7.69,12.62,6Z"/><path class="cls-4" d="M1512.53,188.71c6.63-8.09,22.09-10.3,35.34-11.77a33.23,33.23,0,0,1,28.07,15.41,35.38,35.38,0,0,1,3.13,5.94c2.66,9.56,2.66,19.13,4,29,.1,1.14.18,2.11.25,3-1.66-3.92-3.89-8.41-5.14-13.43-4.17-16.66-13.92-31.1-31.1-31.1a31.11,31.11,0,0,0-28,44.67c-.21-.35-.42-.69-.62-1a35.34,35.34,0,0,1-2.43-5.38C1513.27,212.27,1506.65,196.81,1512.53,188.71Z"/><path d="M1547.1,185.68c17.18,0,26.93,14.44,31.1,31.1,1.25,5,3.48,9.51,5.14,13.43.14,1.78.24,3,.29,3.81-5.58,9.9-24.72,9.9-35.76,12.85a33.46,33.46,0,0,1-6.83-.71,34,34,0,0,1-21.93-15.81,31.11,31.11,0,0,1,28-44.67Z"/><path class="cls-4" d="M1561.77,204.64l6.39-4.43c-3.79-5.48-9.8-8-13.31-5.56s-3.26,8.93.53,14.41c3.53,5.1,9,7.69,12.62,6Z"/><path class="cls-1" d="M1486.44,30.18c-22-1-22.83,4.49-18.79,11.57a46.82,46.82,0,0,1,13-1.85c32.75,0,59.29,34.16,59.29,76.29a97,97,0,0,1-1.09,14.51,120.68,120.68,0,0,1,26-19C1604,90.44,1527.26,32.13,1486.44,30.18Z"/><path class="cls-3" d="M1480.61,39.9a46.82,46.82,0,0,0-13,1.85c3.58,6.27,11,13.74,10.95,18.94,0,.4.08.79.09,1.19,1.68,43.19,14.56,69.38,23.69,77.3,7.44,6.45,6.2,6.25,10.6,6.55,10.38.72,16.15-6,25.83-15a97,97,0,0,0,1.09-14.51C1539.9,74.06,1513.36,39.9,1480.61,39.9Z"/><path class="cls-1" d="M1717.28,22.41c22-1.05,22.83,4.49,18.79,11.57a46.77,46.77,0,0,0-13-1.85c-32.74,0-59.29,34.15-59.29,76.29a98.49,98.49,0,0,0,1.09,14.51,120.42,120.42,0,0,0-26-19.06C1599.68,82.66,1676.46,24.35,1717.28,22.41Z"/><path class="cls-3" d="M1723.11,32.13a46.77,46.77,0,0,1,13,1.85c-3.58,6.26-11,13.74-11,18.94,0,.39-.07.79-.09,1.18-1.68,43.19-14.56,69.38-23.69,77.3-7.44,6.46-6.2,6.25-10.6,6.56-10.38.72-16.15-6-25.83-15a98.49,98.49,0,0,1-1.09-14.51C1663.82,66.28,1690.37,32.13,1723.11,32.13Z"/><ellipse class="cls-3" cx="1685.68" cy="271.69" rx="53.45" ry="41.3"/><ellipse class="cls-3" cx="1520.46" cy="271.69" rx="53.45" ry="41.3"/><path class="cls-5" d="M1619.56,296.65l-12.25-3.83.62-.23-5.83-2.92a7.51,7.51,0,0,0-2.92,1c-1.94,1-4.86-.4-2.91,1.94-2-1.37-15.23,3.89-15.23,3.89.65,1-9.07,15.45,16.2,16.48S1619.56,296.65,1619.56,296.65Z"/><path class="cls-6" d="M1601.11,289.74h0v-.07S1601.11,289.72,1601.11,289.74Z"/><path class="cls-5" d="M1601.13,289.74a1.14,1.14,0,0,1,.32-.07h1.62c-2.92-4.85-1-13.6-1-13.6h-1v13.67Z"/><path class="cls-5" d="M1637.09,290.65s-7.4,11.46-28.19,2v2.87c9.68,3.78,25.81,6,33-7.82C1652.64,267.32,1637.09,290.65,1637.09,290.65Z"/><path class="cls-5" d="M1601.11,289.74s0,0,0-.07V275.1h-1s1.95,8.74-1,13.6c-.59.35-1.17.66-1.75,1h.46a1.3,1.3,0,0,1,1.29,1.3v.7a11.91,11.91,0,0,0,1-.73A1.28,1.28,0,0,1,1601.11,289.74Z"/><path class="cls-5" d="M1565.17,289.67s-15.55-23.32-4.86-2.91c6.55,12.5,20.38,11.87,30.13,8.84v-2.66C1571.86,300.08,1565.17,289.67,1565.17,289.67Z"/><path class="cls-4" d="M1590.44,301.82a4.37,4.37,0,1,0,8.74,0V291.67a35.94,35.94,0,0,1-8.74,3.93Z"/><path class="cls-4" d="M1597.89,289.67h-.46a59,59,0,0,1-7,3.27v2.66a35.94,35.94,0,0,0,8.74-3.93V291A1.3,1.3,0,0,0,1597.89,289.67Z"/><path class="cls-4" d="M1601.13,290.65v-.91h0a2.52,2.52,0,0,1-.95,1.2s0,0,0,0v10.85a4.38,4.38,0,1,0,8.75,0v-6.27C1604.28,293.75,1601.13,291.59,1601.13,290.65Z"/><path class="cls-4" d="M1603.07,289.67h-1.62a1.14,1.14,0,0,0-.32.07v.91c0,.94,3.15,3.1,7.77,4.9v-2.87C1607.06,291.84,1605.13,290.86,1603.07,289.67Z"/><path class="cls-4" d="M1601.11,289.74a1.28,1.28,0,0,0-.95,1.2A2.52,2.52,0,0,0,1601.11,289.74Z"/><ellipse class="cls-5" cx="1601.29" cy="267.81" rx="17.01" ry="10.2"/><ellipse class="cls-7" cx="1600.96" cy="263.92" rx="8.91" ry="5.35"/><ellipse class="cls-2" cx="1491.92" cy="434.96" rx="29.48" ry="54.55" transform="translate(828.46 1840.25) rotate(-80.98)"/><ellipse class="cls-2" cx="1547.75" cy="412.69" rx="49.25" ry="25.3" transform="translate(227.17 1319.28) rotate(-49.4)"/><ellipse class="cls-2" cx="1573" cy="376.7" rx="21.58" ry="23.1" transform="translate(142.73 1132.05) rotate(-41.31)"/><ellipse class="cls-2" cx="1555.37" cy="353.43" rx="16.97" ry="3.34" transform="translate(1112.22 1885.65) rotate(-86.67)"/><ellipse class="cls-2" cx="1564.23" cy="350.68" rx="16.97" ry="3.34" transform="translate(1123.31 1891.9) rotate(-86.67)"/><ellipse class="cls-2" cx="1573.08" cy="347.93" rx="16.97" ry="3.34" transform="translate(1134.4 1898.15) rotate(-86.67)"/><ellipse class="cls-2" cx="1581.7" cy="349.04" rx="16.97" ry="3.34" transform="translate(1141.4 1907.81) rotate(-86.67)"/><ellipse class="cls-2" cx="1595.56" cy="371.4" rx="11.24" ry="4.03" transform="translate(564.41 1644.38) rotate(-64.1)"/><ellipse class="cls-2" cx="1718.64" cy="434.96" rx="54.55" ry="29.48" transform="translate(-46.94 274.81) rotate(-9.02)"/><ellipse class="cls-2" cx="1662.81" cy="412.69" rx="25.3" ry="49.25" transform="translate(131.72 1181.47) rotate(-40.6)"/><ellipse class="cls-2" cx="1637.56" cy="376.7" rx="23.1" ry="21.58" transform="translate(273.65 1358.16) rotate(-48.69)"/><ellipse class="cls-2" cx="1655.19" cy="353.43" rx="3.34" ry="16.97" transform="translate(-17.73 96.71) rotate(-3.33)"/><ellipse class="cls-2" cx="1646.34" cy="350.68" rx="3.34" ry="16.97" transform="translate(-17.59 96.19) rotate(-3.33)"/><ellipse class="cls-2" cx="1637.48" cy="347.93" rx="3.34" ry="16.97" transform="translate(-17.44 95.67) rotate(-3.33)"/><ellipse class="cls-2" cx="1628.86" cy="349.04" rx="3.34" ry="16.97" transform="translate(-17.52 95.17) rotate(-3.33)"/><ellipse class="cls-2" cx="1615" cy="371.4" rx="4.03" ry="11.24" transform="translate(0.02 742.88) rotate(-25.9)"/><path class="cls-1" d="M2383.24,312.26a359.22,359.22,0,0,1,20.69-64.46,310.41,310.41,0,0,0-40.78,104.27c-39,201,32.95,229.78-80.57,315.22-5.53,4.05-42.94,24.89,2.77,31.1,52.49-26.23,105.72-74.41,153.55-138.79C2384.87,513.2,2360.42,415.58,2383.24,312.26Z"/><path class="cls-2" d="M2620.45,27.07c-8.88-6.57-10.64,7-14.78,11.73A54.65,54.65,0,0,0,2593.21,64c-4.69,23.07-9.23,35.45-15.86,43-67.15-4.19-135.63,53-173.42,140.83a359.22,359.22,0,0,0-20.69,64.46c-22.82,103.32,1.62,200.93,55.65,247.33-47.83,64.38-101,112.57-153.54,138.8,14.54,2,37.49,2.48,72.55.48,58.48-3.32,97.74-24.44,126.17-52.91,42.2-42.28,60.52-100.78,82.28-141.4C2600.33,441.15,2747.63,123.52,2620.45,27.07Z"/><ellipse class="cls-1" cx="2284.28" cy="515.67" rx="161.33" ry="202.64"/><path class="cls-2" d="M2161.76,673.74c-18.78,5.06-77.28,17.56-72.83,45.68s50.24,0,50.24,0l36.66-27.58Z"/><path class="cls-2" d="M2402.1,673.74c18.78,5.06,77.28,17.56,72.83,45.68s-50.23,0-50.23,0L2388,691.84Z"/><ellipse class="cls-1" cx="2174.71" cy="419.94" rx="76.78" ry="57.83" transform="translate(586.69 1963.93) rotate(-55.12)"/><ellipse class="cls-1" cx="2395.32" cy="414.11" rx="57.83" ry="76.78" transform="translate(193.43 1444.02) rotate(-34.88)"/><ellipse class="cls-1" cx="2284.04" cy="658.54" rx="151.61" ry="54.23"/><ellipse class="cls-3" cx="2284.28" cy="529.28" rx="119.06" ry="144.32"/><circle class="cls-1" cx="2281.29" cy="208.72" r="123.91"/><ellipse class="cls-3" cx="2346.24" cy="262.5" rx="90.38" ry="76.78"/><ellipse class="cls-3" cx="2219.9" cy="262.5" rx="90.38" ry="76.78"/><ellipse class="cls-3" cx="2226.7" cy="230.43" rx="56.37" ry="76.78"/><ellipse class="cls-3" cx="2339.44" cy="230.43" rx="56.37" ry="76.78"/><ellipse class="cls-3" cx="2284.85" cy="320.81" rx="27.7" ry="32.07"/><path class="cls-4" d="M2374,188.75c-6.63-8.1-22.09-10.31-35.34-11.78a32.68,32.68,0,0,0-5.71.5,33.8,33.8,0,0,0-22.36,14.92,35.38,35.38,0,0,0-3.13,5.94c-2.66,9.56-2.66,19.13-4,28.95-.1,1.13-.18,2.11-.25,3,1.66-3.91,3.89-8.4,5.14-13.42,4.16-16.66,13.92-31.1,31.1-31.1a31.1,31.1,0,0,1,28,44.66c.21-.34.42-.69.62-1a36.24,36.24,0,0,0,2.43-5.38C2373.27,212.31,2379.89,196.85,2374,188.75Z"/><path d="M2339.44,185.72c-17.18,0-26.94,14.44-31.1,31.1-1.25,5-3.48,9.51-5.14,13.42-.14,1.79-.24,3-.29,3.81,5.58,9.91,24.72,9.91,35.76,12.85a32.77,32.77,0,0,0,6.83-.71,33.89,33.89,0,0,0,21.93-15.81,31.1,31.1,0,0,0-28-44.66Z"/><path class="cls-4" d="M2354,204.67l6.39-4.43c-3.8-5.47-9.8-8-13.31-5.56s-3.27,8.94.53,14.42c3.53,5.09,9,7.69,12.62,6Z"/><path class="cls-4" d="M2192.53,188.75c6.63-8.1,22.09-10.31,35.34-11.78a32.68,32.68,0,0,1,5.71.5,33.8,33.8,0,0,1,22.36,14.92,35.38,35.38,0,0,1,3.13,5.94c2.66,9.56,2.66,19.13,4,28.95.1,1.13.18,2.11.25,3-1.66-3.91-3.89-8.4-5.14-13.42-4.17-16.66-13.92-31.1-31.1-31.1a31.1,31.1,0,0,0-28,44.66c-.21-.34-.42-.69-.62-1a36.24,36.24,0,0,1-2.43-5.38C2193.27,212.31,2186.65,196.85,2192.53,188.75Z"/><path d="M2227.1,185.72c17.18,0,26.93,14.44,31.1,31.1,1.25,5,3.48,9.51,5.14,13.42.14,1.79.24,3,.29,3.81-5.58,9.91-24.72,9.91-35.76,12.85a32.77,32.77,0,0,1-6.83-.71,33.89,33.89,0,0,1-21.93-15.81,31.1,31.1,0,0,1,28-44.66Z"/><path class="cls-4" d="M2241.77,204.67l6.39-4.43c-3.79-5.47-9.8-8-13.31-5.56s-3.26,8.94.53,14.42c3.53,5.09,9,7.69,12.62,6Z"/><path class="cls-1" d="M2166.44,30.22c-22-1-22.83,4.49-18.79,11.57a46.82,46.82,0,0,1,13-1.85c32.75,0,59.29,34.16,59.29,76.29a97.14,97.14,0,0,1-1.09,14.51,121,121,0,0,1,26-19.06C2284,90.48,2207.26,32.16,2166.44,30.22Z"/><path class="cls-3" d="M2160.61,39.94a46.82,46.82,0,0,0-13,1.85c3.58,6.26,11,13.74,10.95,18.94,0,.39.08.79.09,1.19,1.68,43.18,14.56,69.37,23.69,77.29,7.44,6.46,6.2,6.25,10.6,6.56,10.38.72,16.15-6,25.83-15a97.14,97.14,0,0,0,1.09-14.51C2219.9,74.1,2193.36,39.94,2160.61,39.94Z"/><path class="cls-1" d="M2397.28,22.44c22-1,22.83,4.49,18.79,11.57a47.14,47.14,0,0,0-13-1.85c-32.74,0-59.29,34.16-59.29,76.3a98.35,98.35,0,0,0,1.09,14.5,120.43,120.43,0,0,0-26-19C2279.68,82.7,2356.46,24.39,2397.28,22.44Z"/><path class="cls-3" d="M2403.11,32.16a47.14,47.14,0,0,1,13,1.85c-3.58,6.27-11,13.75-11,18.94,0,.4-.07.8-.09,1.19-1.68,43.19-14.56,69.38-23.69,77.3-7.44,6.45-6.2,6.25-10.6,6.55-10.38.72-16.15-6-25.83-15a98.35,98.35,0,0,1-1.09-14.5C2343.82,66.32,2370.37,32.16,2403.11,32.16Z"/><ellipse class="cls-3" cx="2365.68" cy="271.73" rx="53.45" ry="41.3"/><ellipse class="cls-3" cx="2200.46" cy="271.73" rx="53.45" ry="41.3"/><path class="cls-5" d="M2299.56,312.73l-12.25-3.84.62-.23-5.83-2.91a7.57,7.57,0,0,0-2.92,1c-1.94,1-4.86-.4-2.91,1.94-1.95-1.37-15.23,3.89-15.23,3.89.65,1-9.07,15.45,16.2,16.48S2299.56,312.73,2299.56,312.73Z"/><path class="cls-6" d="M2281.11,305.82h0v-.06S2281.11,305.79,2281.11,305.82Z"/><path class="cls-5" d="M2281.13,305.81a1.13,1.13,0,0,1,.32-.06h1.62c-2.92-4.86-1-13.61-1-13.61h-1v13.67Z"/><path class="cls-5" d="M2317.09,306.72s-7.4,11.46-28.19,2v2.87c9.68,3.78,25.81,6,33-7.82C2332.64,283.39,2317.09,306.72,2317.09,306.72Z"/><path class="cls-5" d="M2281.11,305.82s0-.05,0-.07V291.17h-1s1.95,8.75-1,13.61c-.59.34-1.17.65-1.75,1h.46a1.29,1.29,0,0,1,1.29,1.29v.7a11.91,11.91,0,0,0,1-.73A1.27,1.27,0,0,1,2281.11,305.82Z"/><path class="cls-5" d="M2245.17,305.75s-15.55-23.33-4.86-2.92c6.55,12.5,20.38,11.87,30.13,8.84V309C2251.86,316.15,2245.17,305.75,2245.17,305.75Z"/><path class="cls-4" d="M2270.44,317.9a4.37,4.37,0,1,0,8.74,0V307.74a35.94,35.94,0,0,1-8.74,3.93Z"/><path class="cls-4" d="M2277.89,305.75h-.46a60.44,60.44,0,0,1-7,3.26v2.66a35.94,35.94,0,0,0,8.74-3.93V307A1.29,1.29,0,0,0,2277.89,305.75Z"/><path class="cls-4" d="M2281.13,306.72v-.91h0a2.55,2.55,0,0,1-1,1.19s0,0,0,0V317.9a4.38,4.38,0,0,0,8.75,0v-6.28C2284.28,309.82,2281.13,307.66,2281.13,306.72Z"/><path class="cls-4" d="M2283.07,305.75h-1.62a1.13,1.13,0,0,0-.32.06v.91c0,.94,3.15,3.1,7.77,4.9v-2.87C2287.06,307.91,2285.13,306.93,2283.07,305.75Z"/><path class="cls-4" d="M2281.11,305.82a1.27,1.27,0,0,0-1,1.19A2.55,2.55,0,0,0,2281.11,305.82Z"/><ellipse class="cls-5" cx="2281.29" cy="283.88" rx="17.01" ry="10.2"/><ellipse class="cls-7" cx="2280.96" cy="279.99" rx="8.91" ry="5.35"/><ellipse class="cls-2" cx="2171.92" cy="434.99" rx="29.48" ry="54.55" transform="translate(1401.82 2511.87) rotate(-80.98)"/><ellipse class="cls-2" cx="2227.75" cy="412.72" rx="49.25" ry="25.3" transform="translate(464.61 1835.59) rotate(-49.4)"/><ellipse class="cls-2" cx="2253" cy="376.73" rx="21.58" ry="23.1" transform="translate(311.9 1580.92) rotate(-41.31)"/><ellipse class="cls-2" cx="2235.37" cy="353.47" rx="16.97" ry="3.34" transform="translate(1752.69 2564.54) rotate(-86.67)"/><ellipse class="cls-2" cx="2244.23" cy="350.71" rx="16.97" ry="3.34" transform="translate(1763.78 2570.79) rotate(-86.67)"/><ellipse class="cls-2" cx="2253.08" cy="347.96" rx="16.97" ry="3.34" transform="translate(1774.87 2577.04) rotate(-86.67)"/><ellipse class="cls-2" cx="2261.7" cy="349.08" rx="16.97" ry="3.34" transform="translate(1781.88 2586.7) rotate(-86.67)"/><ellipse class="cls-2" cx="2275.56" cy="371.43" rx="11.24" ry="4.03" transform="translate(947.3 2256.07) rotate(-64.1)"/><ellipse class="cls-2" cx="2398.64" cy="434.99" rx="54.55" ry="29.48" transform="translate(-38.54 381.41) rotate(-9.02)"/><ellipse class="cls-2" cx="2342.81" cy="412.72" rx="25.3" ry="49.25" transform="translate(295.4 1624.01) rotate(-40.6)"/><ellipse class="cls-2" cx="2317.56" cy="376.73" rx="23.1" ry="21.58" transform="translate(504.77 1868.98) rotate(-48.69)"/><ellipse class="cls-2" cx="2335.19" cy="353.47" rx="3.34" ry="16.97" transform="translate(-16.58 136.2) rotate(-3.33)"/><ellipse class="cls-2" cx="2326.34" cy="350.71" rx="3.34" ry="16.97" transform="translate(-16.44 135.68) rotate(-3.33)"/><ellipse class="cls-2" cx="2317.48" cy="347.96" rx="3.34" ry="16.97" transform="translate(-16.3 135.16) rotate(-3.33)"/><ellipse class="cls-2" cx="2308.86" cy="349.08" rx="3.34" ry="16.97" transform="translate(-16.37 134.66) rotate(-3.33)"/><ellipse class="cls-2" cx="2295" cy="371.43" rx="4.03" ry="11.24" transform="translate(68.33 1039.96) rotate(-25.9)"/><path class="cls-1" d="M3063.24,312.37a359.22,359.22,0,0,1,20.69-64.46,310.41,310.41,0,0,0-40.78,104.27c-39,201,32.95,229.78-80.57,315.22-5.53,4.05-42.94,24.89,2.77,31.1,52.49-26.23,105.72-74.41,153.55-138.8C3064.87,513.31,3040.42,415.69,3063.24,312.37Z"/><path class="cls-2" d="M3300.45,27.18c-8.88-6.57-10.64,7-14.78,11.73a54.65,54.65,0,0,0-12.46,25.18c-4.69,23.07-9.23,35.44-15.86,43-67.15-4.19-135.63,53-173.42,140.83a359.22,359.22,0,0,0-20.69,64.46c-22.82,103.32,1.62,200.93,55.65,247.33-47.83,64.38-101,112.57-153.54,138.8,14.54,2,37.49,2.48,72.55.48,58.48-3.32,97.74-24.44,126.17-52.91,42.2-42.28,60.52-100.78,82.28-141.4C3280.33,441.26,3427.63,123.63,3300.45,27.18Z"/><ellipse class="cls-1" cx="2964.28" cy="515.78" rx="161.33" ry="202.64"/><path class="cls-2" d="M2841.76,673.85c-18.78,5.06-77.28,17.56-72.83,45.68s50.24,0,50.24,0L2855.83,692Z"/><path class="cls-2" d="M3082.1,673.85c18.78,5.06,77.28,17.56,72.83,45.68s-50.23,0-50.23,0L3068,692Z"/><ellipse class="cls-1" cx="2854.71" cy="420.05" rx="76.78" ry="57.83" transform="translate(877.78 2521.85) rotate(-55.12)"/><ellipse class="cls-1" cx="3075.32" cy="414.22" rx="57.83" ry="76.78" transform="translate(315.5 1832.87) rotate(-34.88)"/><ellipse class="cls-1" cx="2964.04" cy="658.65" rx="151.61" ry="54.23"/><ellipse class="cls-3" cx="2964.28" cy="529.39" rx="119.06" ry="144.32"/><circle class="cls-1" cx="2961.29" cy="208.83" r="123.91"/><ellipse class="cls-3" cx="3026.24" cy="262.61" rx="90.38" ry="76.78"/><ellipse class="cls-3" cx="2899.9" cy="262.61" rx="90.38" ry="76.78"/><ellipse class="cls-3" cx="2906.7" cy="230.54" rx="56.37" ry="76.78"/><ellipse class="cls-3" cx="3019.44" cy="230.54" rx="56.37" ry="76.78"/><ellipse class="cls-3" cx="2964.85" cy="320.92" rx="27.7" ry="32.07"/><path class="cls-4" d="M3054,188.86c-6.63-8.1-22.09-10.31-35.34-11.78a32.68,32.68,0,0,0-5.71.5,33.8,33.8,0,0,0-22.36,14.92,35,35,0,0,0-3.13,5.94c-2.66,9.56-2.66,19.13-4,28.95-.1,1.13-.18,2.1-.25,3,1.66-3.91,3.89-8.41,5.14-13.42,4.16-16.66,13.92-31.1,31.1-31.1a31.1,31.1,0,0,1,28,44.66c.21-.34.42-.69.62-1a36.24,36.24,0,0,0,2.43-5.38C3053.27,212.41,3059.89,197,3054,188.86Z"/><path d="M3019.44,185.83c-17.18,0-26.94,14.44-31.1,31.1-1.25,5-3.48,9.51-5.14,13.42-.14,1.79-.24,3-.29,3.81,5.58,9.91,24.72,9.91,35.76,12.85a32.77,32.77,0,0,0,6.83-.71,33.89,33.89,0,0,0,21.93-15.81,31.1,31.1,0,0,0-28-44.66Z"/><path class="cls-4" d="M3034,204.78l6.39-4.43c-3.8-5.48-9.8-8-13.31-5.56s-3.27,8.94.53,14.42c3.53,5.09,9,7.68,12.62,6Z"/><path class="cls-4" d="M2872.53,188.86c6.63-8.1,22.09-10.31,35.34-11.78a32.68,32.68,0,0,1,5.71.5,33.8,33.8,0,0,1,22.36,14.92,35,35,0,0,1,3.13,5.94c2.66,9.56,2.66,19.13,4,28.95.1,1.13.18,2.1.25,3-1.66-3.91-3.89-8.41-5.14-13.42-4.17-16.66-13.92-31.1-31.1-31.1a31.1,31.1,0,0,0-28,44.66c-.21-.34-.42-.69-.62-1a36.24,36.24,0,0,1-2.43-5.38C2873.27,212.41,2866.65,197,2872.53,188.86Z"/><path d="M2907.1,185.83c17.18,0,26.93,14.44,31.1,31.1,1.25,5,3.48,9.51,5.14,13.42.14,1.79.24,3,.29,3.81-5.58,9.91-24.72,9.91-35.76,12.85a32.77,32.77,0,0,1-6.83-.71,33.89,33.89,0,0,1-21.93-15.81,31.1,31.1,0,0,1,28-44.66Z"/><path class="cls-4" d="M2921.77,204.78l6.39-4.43c-3.79-5.48-9.8-8-13.31-5.56s-3.26,8.94.53,14.42c3.53,5.09,9,7.68,12.62,6Z"/><path class="cls-1" d="M2846.44,30.33c-22-1-22.83,4.49-18.79,11.57a46.82,46.82,0,0,1,13-1.85c32.75,0,59.29,34.15,59.29,76.29a97.14,97.14,0,0,1-1.09,14.51,121,121,0,0,1,26-19.06C2964,90.58,2887.26,32.27,2846.44,30.33Z"/><path class="cls-3" d="M2840.61,40.05a46.82,46.82,0,0,0-13,1.85c3.58,6.26,11,13.74,10.95,18.94,0,.39.08.79.09,1.18,1.68,43.19,14.56,69.38,23.69,77.3,7.44,6.46,6.2,6.25,10.6,6.56,10.38.72,16.15-6,25.83-15a97.14,97.14,0,0,0,1.09-14.51C2899.9,74.2,2873.36,40.05,2840.61,40.05Z"/><path class="cls-1" d="M3077.28,22.55c22-1,22.83,4.49,18.79,11.57a46.77,46.77,0,0,0-13-1.85c-32.74,0-59.29,34.16-59.29,76.29a98.38,98.38,0,0,0,1.09,14.51,120.43,120.43,0,0,0-26-19C2959.68,82.81,3036.46,24.5,3077.28,22.55Z"/><path class="cls-3" d="M3083.11,32.27a46.77,46.77,0,0,1,13,1.85c-3.58,6.27-11,13.74-11,18.94,0,.4-.07.79-.09,1.19-1.68,43.19-14.56,69.38-23.69,77.3-7.44,6.45-6.2,6.25-10.6,6.55-10.38.72-16.15-6-25.83-15a98.38,98.38,0,0,1-1.09-14.51C3023.82,66.43,3050.37,32.27,3083.11,32.27Z"/><ellipse class="cls-3" cx="3045.68" cy="271.84" rx="53.45" ry="41.3"/><ellipse class="cls-3" cx="2880.46" cy="271.84" rx="53.45" ry="41.3"/><path class="cls-5" d="M2979.56,296.8,2967.31,293l.62-.23-5.83-2.92a7.57,7.57,0,0,0-2.92,1c-1.94,1-4.86-.4-2.91,1.95-1.95-1.38-15.23,3.88-15.23,3.88.65,1-9.07,15.45,16.2,16.48S2979.56,296.8,2979.56,296.8Z"/><path class="cls-6" d="M2961.11,289.89h0v-.07S2961.11,289.87,2961.11,289.89Z"/><path class="cls-5" d="M2961.13,289.89a1.14,1.14,0,0,1,.32-.07h1.62c-2.92-4.86-1-13.61-1-13.61h-1v13.68Z"/><path class="cls-5" d="M2997.09,290.79s-7.4,11.47-28.19,2v2.88c9.68,3.77,25.81,6,33-7.82C3012.64,267.47,2997.09,290.79,2997.09,290.79Z"/><path class="cls-5" d="M2961.11,289.89s0-.05,0-.07V275.24h-1s1.95,8.75-1,13.61c-.59.34-1.17.66-1.75,1h.46a1.3,1.3,0,0,1,1.29,1.3v.69a10,10,0,0,0,1-.73A1.27,1.27,0,0,1,2961.11,289.89Z"/><path class="cls-5" d="M2925.17,289.82s-15.55-23.33-4.86-2.92c6.55,12.51,20.38,11.88,30.13,8.84v-2.65C2931.86,300.22,2925.17,289.82,2925.17,289.82Z"/><path class="cls-4" d="M2950.44,302a4.37,4.37,0,0,0,8.74,0V291.81a35.94,35.94,0,0,1-8.74,3.93Z"/><path class="cls-4" d="M2957.89,289.82h-.46a62.35,62.35,0,0,1-7,3.27v2.65a35.94,35.94,0,0,0,8.74-3.93v-.69A1.3,1.3,0,0,0,2957.89,289.82Z"/><path class="cls-4" d="M2961.13,290.79v-.9h0a2.55,2.55,0,0,1-1,1.19s0,0,0,0V302a4.38,4.38,0,0,0,8.75,0V295.7C2964.28,293.89,2961.13,291.73,2961.13,290.79Z"/><path class="cls-4" d="M2963.07,289.82h-1.62a1.14,1.14,0,0,0-.32.07v.9c0,.94,3.15,3.1,7.77,4.91v-2.88A65.23,65.23,0,0,1,2963.07,289.82Z"/><path class="cls-4" d="M2961.11,289.89a1.27,1.27,0,0,0-1,1.19A2.55,2.55,0,0,0,2961.11,289.89Z"/><ellipse class="cls-5" cx="2961.29" cy="267.95" rx="17.01" ry="10.2"/><ellipse class="cls-7" cx="2960.96" cy="264.07" rx="8.91" ry="5.35"/><ellipse class="cls-2" cx="2851.92" cy="435.1" rx="29.48" ry="54.55" transform="translate(1975.11 3183.55) rotate(-80.98)"/><ellipse class="cls-2" cx="2907.75" cy="412.83" rx="49.25" ry="25.3" transform="translate(702 2351.93) rotate(-49.4)"/><ellipse class="cls-2" cx="2933" cy="376.84" rx="21.58" ry="23.1" transform="translate(481.02 2029.8) rotate(-41.31)"/><ellipse class="cls-2" cx="2915.37" cy="353.58" rx="16.97" ry="3.34" transform="translate(2393.1 3243.49) rotate(-86.67)"/><ellipse class="cls-2" cx="2924.23" cy="350.82" rx="16.97" ry="3.34" transform="translate(2404.19 3249.74) rotate(-86.67)"/><ellipse class="cls-2" cx="2933.08" cy="348.07" rx="16.97" ry="3.34" transform="translate(2415.28 3255.99) rotate(-86.67)"/><ellipse class="cls-2" cx="2941.7" cy="349.19" rx="16.97" ry="3.34" transform="translate(2422.28 3265.65) rotate(-86.67)"/><ellipse class="cls-2" cx="2955.56" cy="371.54" rx="11.24" ry="4.03" transform="translate(1330.13 2867.8) rotate(-64.1)"/><ellipse class="cls-2" cx="3078.64" cy="435.1" rx="54.55" ry="29.48" transform="translate(-30.14 488.01) rotate(-9.02)"/><ellipse class="cls-2" cx="3022.81" cy="412.83" rx="25.3" ry="49.25" transform="translate(459.03 2066.56) rotate(-40.6)"/><ellipse class="cls-2" cx="2997.56" cy="376.84" rx="23.1" ry="21.58" transform="translate(735.82 2379.82) rotate(-48.69)"/><ellipse class="cls-2" cx="3015.19" cy="353.58" rx="3.34" ry="16.97" transform="translate(-15.44 175.68) rotate(-3.33)"/><ellipse class="cls-2" cx="3006.34" cy="350.82" rx="3.34" ry="16.97" transform="translate(-15.3 175.16) rotate(-3.33)"/><ellipse class="cls-2" cx="2997.48" cy="348.07" rx="3.34" ry="16.97" transform="translate(-15.15 174.65) rotate(-3.33)"/><ellipse class="cls-2" cx="2988.86" cy="349.19" rx="3.34" ry="16.97" transform="translate(-15.23 174.15) rotate(-3.33)"/><ellipse class="cls-2" cx="2975" cy="371.54" rx="4.03" ry="11.24" transform="translate(136.61 1337.05) rotate(-25.9)"/><path class="cls-1" d="M3743.24,312.3a359.33,359.33,0,0,1,20.69-64.47,310.55,310.55,0,0,0-40.78,104.28c-39,201,32.95,229.78-80.57,315.21-5.53,4.06-42.94,24.89,2.77,31.11,52.49-26.24,105.72-74.41,153.55-138.8C3744.87,513.23,3720.42,415.62,3743.24,312.3Z"/><path class="cls-2" d="M3980.45,27.11c-8.88-6.57-10.64,7-14.78,11.73A54.62,54.62,0,0,0,3953.21,64c-4.69,23.08-9.23,35.45-15.86,43-67.15-4.19-135.63,53-173.42,140.82a359.33,359.33,0,0,0-20.69,64.47c-22.82,103.31,1.62,200.92,55.65,247.33-47.83,64.38-101,112.56-153.54,138.8,14.54,2,37.49,2.47,72.55.48,58.48-3.33,97.74-24.44,126.17-52.92,42.2-42.27,60.52-100.78,82.28-141.39C3960.33,441.19,4107.63,123.56,3980.45,27.11Z"/><ellipse class="cls-1" cx="3644.28" cy="515.71" rx="161.33" ry="202.64"/><path class="cls-2" d="M3521.76,673.78c-18.78,5.06-77.28,17.56-72.83,45.68s50.24,0,50.24,0l36.66-27.58Z"/><path class="cls-2" d="M3762.1,673.78c18.78,5.06,77.28,17.56,72.83,45.68s-50.23,0-50.23,0L3748,691.88Z"/><ellipse class="cls-1" cx="3534.71" cy="419.98" rx="76.78" ry="57.83" transform="matrix(0.57, -0.82, 0.82, 0.57, 1169.01, 3079.68)"/><ellipse class="cls-1" cx="3755.32" cy="414.15" rx="57.83" ry="76.78" transform="translate(437.67 2221.68) rotate(-34.88)"/><ellipse class="cls-1" cx="3644.04" cy="658.58" rx="151.61" ry="54.23"/><ellipse class="cls-3" cx="3644.28" cy="529.32" rx="119.06" ry="144.32"/><circle class="cls-1" cx="3641.29" cy="208.76" r="123.91"/><ellipse class="cls-3" cx="3706.24" cy="262.53" rx="90.38" ry="76.78"/><ellipse class="cls-3" cx="3579.9" cy="262.53" rx="90.38" ry="76.78"/><ellipse class="cls-3" cx="3586.7" cy="230.46" rx="56.37" ry="76.78"/><ellipse class="cls-3" cx="3699.44" cy="230.46" rx="56.37" ry="76.78"/><ellipse class="cls-3" cx="3644.85" cy="320.85" rx="27.7" ry="32.07"/><path class="cls-1" d="M3526.44,30.26c-22-1.05-22.83,4.48-18.79,11.56a47.2,47.2,0,0,1,13-1.85c32.75,0,59.29,34.16,59.29,76.3a96.9,96.9,0,0,1-1.09,14.5,120.68,120.68,0,0,1,26-19.05C3644,90.51,3567.26,32.2,3526.44,30.26Z"/><path class="cls-3" d="M3520.61,40a47.2,47.2,0,0,0-13,1.85c3.58,6.27,11,13.75,10.95,18.94,0,.4.08.8.09,1.19,1.68,43.19,14.56,69.38,23.69,77.3,7.44,6.46,6.2,6.25,10.6,6.56,10.38.72,16.15-6,25.83-15a96.9,96.9,0,0,0,1.09-14.5C3579.9,74.13,3553.36,40,3520.61,40Z"/><path class="cls-1" d="M3757.28,22.48c22-1.05,22.83,4.49,18.79,11.57a46.77,46.77,0,0,0-13-1.85c-32.74,0-59.29,34.16-59.29,76.29a98.49,98.49,0,0,0,1.09,14.51,120.76,120.76,0,0,0-26-19.06C3639.68,82.74,3716.46,24.42,3757.28,22.48Z"/><path class="cls-3" d="M3763.11,32.2a46.77,46.77,0,0,1,13,1.85c-3.58,6.27-11,13.74-11,18.94,0,.39-.07.79-.09,1.19-1.68,43.18-14.56,69.38-23.69,77.29-7.44,6.46-6.2,6.26-10.6,6.56-10.38.72-16.15-6-25.83-15a98.49,98.49,0,0,1-1.09-14.51C3703.82,66.36,3730.37,32.2,3763.11,32.2Z"/><path class="cls-5" d="M3659.56,296.73l-12.25-3.84.62-.23-5.83-2.91a7.57,7.57,0,0,0-2.92,1c-1.94,1-4.86-.4-2.91,1.94-1.95-1.37-15.23,3.89-15.23,3.89.65,1-9.07,15.45,16.2,16.48S3659.56,296.73,3659.56,296.73Z"/><path class="cls-6" d="M3641.11,289.82h0v-.06S3641.11,289.79,3641.11,289.82Z"/><path class="cls-5" d="M3641.13,289.81a1.13,1.13,0,0,1,.32-.06h1.62c-2.92-4.86-1-13.61-1-13.61h-1v13.67Z"/><path class="cls-5" d="M3677.09,290.72s-7.4,11.46-28.19,2v2.87c9.68,3.78,25.81,6,33-7.82C3692.64,267.39,3677.09,290.72,3677.09,290.72Z"/><path class="cls-5" d="M3641.11,289.82s0-.05,0-.07V275.17h-1s1.95,8.75-1,13.61c-.59.34-1.17.65-1.75,1h.46a1.29,1.29,0,0,1,1.29,1.29v.7a11.91,11.91,0,0,0,1-.73A1.27,1.27,0,0,1,3641.11,289.82Z"/><path class="cls-5" d="M3605.17,289.75s-15.55-23.33-4.86-2.92c6.55,12.5,20.38,11.87,30.13,8.84V293C3611.86,300.15,3605.17,289.75,3605.17,289.75Z"/><path class="cls-4" d="M3630.44,301.9a4.37,4.37,0,1,0,8.74,0V291.74a35.94,35.94,0,0,1-8.74,3.93Z"/><path class="cls-4" d="M3637.89,289.75h-.46a60.44,60.44,0,0,1-7,3.26v2.66a35.94,35.94,0,0,0,8.74-3.93V291A1.29,1.29,0,0,0,3637.89,289.75Z"/><path class="cls-4" d="M3641.13,290.72v-.91h0a2.55,2.55,0,0,1-1,1.19s0,0,0,0V301.9a4.38,4.38,0,0,0,8.75,0v-6.28C3644.28,293.82,3641.13,291.66,3641.13,290.72Z"/><path class="cls-4" d="M3643.07,289.75h-1.62a1.13,1.13,0,0,0-.32.06v.91c0,.94,3.15,3.1,7.77,4.9v-2.87C3647.06,291.91,3645.13,290.93,3643.07,289.75Z"/><path class="cls-4" d="M3641.11,289.82a1.27,1.27,0,0,0-1,1.19A2.55,2.55,0,0,0,3641.11,289.82Z"/><ellipse class="cls-5" cx="3641.29" cy="267.88" rx="17.01" ry="10.2"/><ellipse class="cls-7" cx="3640.96" cy="263.99" rx="8.91" ry="5.35"/><ellipse class="cls-2" cx="3531.92" cy="435.03" rx="29.48" ry="54.55" transform="translate(2548.58 3855.08) rotate(-80.98)"/><ellipse class="cls-2" cx="3587.75" cy="412.76" rx="49.25" ry="25.3" transform="translate(939.53 2868.21) rotate(-49.4)"/><ellipse class="cls-2" cx="3613" cy="376.77" rx="21.58" ry="23.1" transform="translate(650.26 2478.65) rotate(-41.31)"/><ellipse class="cls-2" cx="3595.37" cy="353.5" rx="16.97" ry="3.34" transform="translate(3033.69 3922.28) rotate(-86.67)"/><ellipse class="cls-2" cx="3604.23" cy="350.75" rx="16.97" ry="3.34" transform="translate(3044.78 3928.53) rotate(-86.67)"/><ellipse class="cls-2" cx="3613.08" cy="348" rx="16.97" ry="3.34" transform="translate(3055.87 3934.78) rotate(-86.67)"/><ellipse class="cls-2" cx="3621.7" cy="349.12" rx="16.97" ry="3.34" transform="translate(3062.87 3944.43) rotate(-86.67)"/><ellipse class="cls-2" cx="3635.56" cy="371.47" rx="11.24" ry="4.03" transform="translate(1713.11 3479.44) rotate(-64.1)"/><ellipse class="cls-2" cx="3758.64" cy="435.03" rx="54.55" ry="29.48" transform="translate(-21.73 594.61) rotate(-9.02)"/><ellipse class="cls-2" cx="3702.81" cy="412.76" rx="25.3" ry="49.25" transform="translate(622.77 2509.07) rotate(-40.6)"/><ellipse class="cls-2" cx="3677.56" cy="376.77" rx="23.1" ry="21.58" transform="translate(967.02 2890.61) rotate(-48.69)"/><ellipse class="cls-2" cx="3695.19" cy="353.5" rx="3.34" ry="16.97" transform="translate(-14.29 215.17) rotate(-3.33)"/><ellipse class="cls-2" cx="3686.34" cy="350.75" rx="3.34" ry="16.97" transform="translate(-14.15 214.65) rotate(-3.33)"/><ellipse class="cls-2" cx="3677.48" cy="348" rx="3.34" ry="16.97" transform="translate(-14 214.13) rotate(-3.33)"/><ellipse class="cls-2" cx="3668.86" cy="349.12" rx="3.34" ry="16.97" transform="translate(-14.08 213.63) rotate(-3.33)"/><ellipse class="cls-2" cx="3655" cy="371.47" rx="4.03" ry="11.24" transform="translate(204.97 1634.12) rotate(-25.9)"/><path class="cls-2" d="M3699.44,185.76a31.11,31.11,0,0,1,30,23.08h5.15c1.93-7.73,2.89-15.21-.63-20.05-6.63-8.1-22.09-10.31-35.34-11.78a32.68,32.68,0,0,0-5.71.5,33.78,33.78,0,0,0-22.36,14.91,35.38,35.38,0,0,0-3.13,5.94,75.71,75.71,0,0,0-2,10.48h5.44C3675.93,195.82,3685.1,185.76,3699.44,185.76Z"/><path class="cls-2" d="M3707.1,194.72c3.51-2.43,9.51.08,13.31,5.56l-6.39,4.43,2.48,4.13h13a31.11,31.11,0,0,0-30-23.08c-14.34,0-23.51,10.06-28.57,23.08h36.56C3703.83,203.42,3703.66,197.11,3707.1,194.72Z"/><path class="cls-2" d="M3720.41,200.28c-3.8-5.48-9.8-8-13.31-5.56s-3.27,8.7.33,14.12h9.07l-2.48-4.13Z"/><path class="cls-2" d="M3587.1,185.76c14.34,0,23.5,10.06,28.57,23.08h5.44a75.71,75.71,0,0,0-2-10.48,35.38,35.38,0,0,0-3.13-5.94,33.78,33.78,0,0,0-22.36-14.91,32.68,32.68,0,0,0-5.71-.5c-13.25,1.47-28.71,3.68-35.34,11.78-3.52,4.84-2.56,12.32-.63,20.05h5.15A31.11,31.11,0,0,1,3587.1,185.76Z"/><path class="cls-2" d="M3594.85,194.72c3.51-2.43,9.52.08,13.31,5.56l-6.39,4.43,2.48,4.13h11.42c-5.07-13-14.23-23.08-28.57-23.08a31.11,31.11,0,0,0-30,23.08h38.14C3591.59,203.42,3591.41,197.11,3594.85,194.72Z"/><path class="cls-2" d="M3608.16,200.28c-3.79-5.48-9.8-8-13.31-5.56s-3.26,8.7.34,14.12h9.06l-2.48-4.13Z"/><path class="cls-4" d="M3663.2,230.28c1.66-3.91,3.89-8.41,5.14-13.42a66.88,66.88,0,0,1,2.53-8h-5.44c-.8,6.1-1.11,12.24-2,18.48C3663.35,228.45,3663.27,229.42,3663.2,230.28Z"/><path class="cls-4" d="M3730.54,216.86a31,31,0,0,1-3.11,13.56c.21-.35.42-.69.62-1a36.24,36.24,0,0,0,2.43-5.38c1.12-4.68,2.86-10,4.16-15.16h-5.15A31.16,31.16,0,0,1,3730.54,216.86Z"/><path d="M3729.49,208.84h-13l3.75,6.25c-3.61,1.73-9.09-.86-12.62-6-.07-.09-.13-.19-.2-.29h-36.56a66.88,66.88,0,0,0-2.53,8c-1.25,5-3.48,9.51-5.14,13.42-.14,1.79-.24,3-.29,3.81,5.58,9.9,24.72,9.9,35.76,12.85a33.46,33.46,0,0,0,6.83-.71,34,34,0,0,0,21.93-15.81,31.13,31.13,0,0,0,2.06-21.58Z"/><path class="cls-4" d="M3707.63,209.13c3.53,5.1,9,7.69,12.62,6l-3.75-6.25h-9.07C3707.5,208.94,3707.56,209,3707.63,209.13Z"/><path class="cls-4" d="M3558.49,229.38c.2.35.41.69.62,1a31.13,31.13,0,0,1-2.06-21.58h-5.15c1.3,5.18,3,10.48,4.16,15.16A36.24,36.24,0,0,0,3558.49,229.38Z"/><path class="cls-4" d="M3618.2,216.86c1.25,5,3.48,9.51,5.14,13.42-.07-.86-.15-1.83-.25-3-.87-6.24-1.18-12.38-2-18.48h-5.44A66.88,66.88,0,0,1,3618.2,216.86Z"/><path d="M3615.67,208.84h-11.42l3.75,6.25c-3.6,1.73-9.09-.86-12.62-6a2.9,2.9,0,0,1-.19-.29h-38.14a31.13,31.13,0,0,0,2.06,21.58A34,34,0,0,0,3581,246.23a33.46,33.46,0,0,0,6.83.71c11-2.95,30.18-2.95,35.76-12.85-.05-.79-.15-2-.29-3.81-1.66-3.91-3.89-8.41-5.14-13.42A66.88,66.88,0,0,0,3615.67,208.84Z"/><path class="cls-4" d="M3595.38,209.13c3.53,5.1,9,7.69,12.62,6l-3.75-6.25h-9.06A2.9,2.9,0,0,0,3595.38,209.13Z"/><path class="cls-1" d="M4423.24,312.19a359.59,359.59,0,0,1,20.69-64.47A310.55,310.55,0,0,0,4403.15,352c-38.95,201,33,229.78-80.57,315.21-5.53,4.06-42.94,24.89,2.77,31.11,52.49-26.24,105.72-74.41,153.55-138.8C4424.87,513.12,4400.42,415.51,4423.24,312.19Z"/><path class="cls-2" d="M4660.45,27c-8.88-6.57-10.64,7-14.78,11.73a54.65,54.65,0,0,0-12.46,25.18c-4.69,23.07-9.23,35.44-15.86,43-67.15-4.19-135.63,53-173.42,140.82a359.59,359.59,0,0,0-20.69,64.47c-22.82,103.32,1.62,200.93,55.65,247.33-47.83,64.38-101.05,112.57-153.54,138.8,14.54,2,37.49,2.47,72.55.48,58.48-3.32,97.74-24.44,126.17-52.92,42.2-42.27,60.52-100.78,82.28-141.39C4640.33,441.08,4787.63,123.45,4660.45,27Z"/><ellipse class="cls-1" cx="4324.28" cy="515.6" rx="161.33" ry="202.64"/><path class="cls-2" d="M4201.76,673.67c-18.78,5.06-77.28,17.56-72.83,45.68s50.24,0,50.24,0l36.66-27.58Z"/><path class="cls-2" d="M4442.1,673.67c18.78,5.06,77.28,17.56,72.83,45.68s-50.23,0-50.23,0L4428,691.77Z"/><ellipse class="cls-1" cx="4214.71" cy="419.87" rx="76.78" ry="57.83" transform="translate(1460.28 3637.5) rotate(-55.12)"/><ellipse class="cls-1" cx="4435.32" cy="414.04" rx="57.83" ry="76.78" transform="translate(559.87 2610.48) rotate(-34.88)"/><ellipse class="cls-1" cx="4324.04" cy="658.47" rx="151.61" ry="54.23"/><ellipse class="cls-3" cx="4324.28" cy="529.21" rx="119.06" ry="144.32"/><circle class="cls-1" cx="4321.29" cy="208.65" r="123.91"/><ellipse class="cls-3" cx="4386.24" cy="262.43" rx="90.38" ry="76.78"/><ellipse class="cls-3" cx="4259.9" cy="262.43" rx="90.38" ry="76.78"/><ellipse class="cls-3" cx="4266.7" cy="230.35" rx="56.37" ry="76.78"/><ellipse class="cls-3" cx="4379.44" cy="230.35" rx="56.37" ry="76.78"/><ellipse class="cls-3" cx="4324.85" cy="320.74" rx="27.7" ry="32.07"/><path class="cls-1" d="M4206.44,30.15c-22-1-22.83,4.48-18.79,11.57a46.82,46.82,0,0,1,13-1.85c32.75,0,59.29,34.15,59.29,76.29a97.14,97.14,0,0,1-1.09,14.51,120.34,120.34,0,0,1,26-19.06C4324,90.4,4247.26,32.09,4206.44,30.15Z"/><path class="cls-3" d="M4200.61,39.87a46.82,46.82,0,0,0-13,1.85c3.58,6.26,11,13.74,11,18.94,0,.39.08.79.09,1.18,1.68,43.19,14.56,69.38,23.69,77.3,7.44,6.46,6.2,6.25,10.6,6.56,10.38.72,16.15-6,25.83-15a97.14,97.14,0,0,0,1.09-14.51C4259.9,74,4233.36,39.87,4200.61,39.87Z"/><path class="cls-1" d="M4437.28,22.37c22-1.05,22.83,4.49,18.79,11.57a46.77,46.77,0,0,0-13-1.85c-32.74,0-59.29,34.16-59.29,76.29a98.38,98.38,0,0,0,1.09,14.51,120.76,120.76,0,0,0-26-19.06C4319.68,82.63,4396.46,24.31,4437.28,22.37Z"/><path class="cls-3" d="M4443.11,32.09a46.77,46.77,0,0,1,13,1.85c-3.58,6.27-11,13.74-10.95,18.94,0,.39-.07.79-.09,1.19-1.68,43.18-14.56,69.38-23.69,77.3-7.44,6.45-6.2,6.25-10.6,6.55-10.38.72-16.15-6-25.83-15a98.38,98.38,0,0,1-1.09-14.51C4383.82,66.25,4410.37,32.09,4443.11,32.09Z"/><path class="cls-5" d="M4339.56,296.62l-12.25-3.83.62-.24-5.83-2.91a7.57,7.57,0,0,0-2.92,1c-1.94,1-4.86-.4-2.91,1.94-2-1.37-15.23,3.89-15.23,3.89.65,1-9.07,15.45,16.2,16.48S4339.56,296.62,4339.56,296.62Z"/><path class="cls-6" d="M4321.11,289.71h0v-.06S4321.11,289.69,4321.11,289.71Z"/><path class="cls-5" d="M4321.13,289.7a1.65,1.65,0,0,1,.32-.06h1.62c-2.92-4.86-1-13.61-1-13.61h-1V289.7Z"/><path class="cls-5" d="M4357.09,290.61s-7.4,11.47-28.19,2v2.87c9.68,3.78,25.81,6,33.05-7.82C4372.64,267.29,4357.09,290.61,4357.09,290.61Z"/><path class="cls-5" d="M4321.11,289.71s0,0,0-.07V275.06h-1s2,8.75-1,13.61c-.59.34-1.17.65-1.75,1h.46a1.29,1.29,0,0,1,1.29,1.29v.7a11.91,11.91,0,0,0,1-.73A1.27,1.27,0,0,1,4321.11,289.71Z"/><path class="cls-5" d="M4285.17,289.64s-15.55-23.33-4.86-2.92c6.55,12.51,20.38,11.87,30.13,8.84V292.9C4291.86,300,4285.17,289.64,4285.17,289.64Z"/><path class="cls-4" d="M4310.44,301.79a4.37,4.37,0,1,0,8.74,0V291.63a35.94,35.94,0,0,1-8.74,3.93Z"/><path class="cls-4" d="M4317.89,289.64h-.46a60.44,60.44,0,0,1-7,3.26v2.66a35.94,35.94,0,0,0,8.74-3.93v-.7A1.29,1.29,0,0,0,4317.89,289.64Z"/><path class="cls-4" d="M4321.13,290.61v-.91h0a2.55,2.55,0,0,1-.95,1.19s0,0,0,0v10.86a4.38,4.38,0,0,0,8.75,0v-6.28C4324.28,293.71,4321.13,291.55,4321.13,290.61Z"/><path class="cls-4" d="M4323.07,289.64h-1.62a1.65,1.65,0,0,0-.32.06v.91c0,.94,3.15,3.1,7.77,4.9v-2.87C4327.06,291.81,4325.13,290.82,4323.07,289.64Z"/><path class="cls-4" d="M4321.11,289.71a1.27,1.27,0,0,0-.95,1.19A2.55,2.55,0,0,0,4321.11,289.71Z"/><ellipse class="cls-5" cx="4321.29" cy="267.77" rx="17.01" ry="10.2"/><ellipse class="cls-7" cx="4320.96" cy="263.88" rx="8.91" ry="5.35"/><ellipse class="cls-2" cx="4211.92" cy="434.92" rx="29.48" ry="54.55" transform="translate(3122.08 4526.58) rotate(-80.98)"/><ellipse class="cls-2" cx="4267.75" cy="412.65" rx="49.25" ry="25.3" transform="translate(1177.08 3384.47) rotate(-49.4)"/><ellipse class="cls-2" cx="4293" cy="376.66" rx="21.58" ry="23.1" transform="translate(819.52 2927.48) rotate(-41.31)"/><ellipse class="cls-2" cx="4275.37" cy="353.39" rx="16.97" ry="3.34" transform="translate(3674.31 4601.03) rotate(-86.67)"/><ellipse class="cls-2" cx="4284.23" cy="350.64" rx="16.97" ry="3.34" transform="translate(3685.4 4607.28) rotate(-86.67)"/><ellipse class="cls-2" cx="4293.08" cy="347.89" rx="16.97" ry="3.34" transform="translate(3696.49 4613.52) rotate(-86.67)"/><ellipse class="cls-2" cx="4301.7" cy="349.01" rx="16.97" ry="3.34" transform="translate(3703.49 4623.18) rotate(-86.67)"/><ellipse class="cls-2" cx="4315.56" cy="371.36" rx="11.24" ry="4.03" transform="translate(2096.13 4091.05) rotate(-64.1)"/><ellipse class="cls-2" cx="4438.64" cy="434.92" rx="54.55" ry="29.48" transform="translate(-13.3 701.21) rotate(-9.02)"/><ellipse class="cls-2" cx="4382.81" cy="412.65" rx="25.3" ry="49.25" transform="translate(786.54 2951.58) rotate(-40.6)"/><ellipse class="cls-2" cx="4357.56" cy="376.66" rx="23.1" ry="21.58" transform="matrix(0.66, -0.75, 0.75, 0.66, 1198.24, 3401.38)"/><ellipse class="cls-2" cx="4375.19" cy="353.39" rx="3.34" ry="16.97" transform="matrix(1, -0.06, 0.06, 1, -13.14, 254.66)"/><ellipse class="cls-2" cx="4366.34" cy="350.64" rx="3.34" ry="16.97" transform="translate(-12.99 254.14) rotate(-3.33)"/><ellipse class="cls-2" cx="4357.48" cy="347.89" rx="3.34" ry="16.97" transform="translate(-12.85 253.62) rotate(-3.33)"/><ellipse class="cls-2" cx="4348.86" cy="349.01" rx="3.34" ry="16.97" transform="translate(-12.93 253.12) rotate(-3.33)"/><ellipse class="cls-2" cx="4335" cy="371.36" rx="4.03" ry="11.24" transform="translate(273.34 1931.19) rotate(-25.9)"/><path class="cls-2" d="M4379.44,185.65a31.11,31.11,0,0,1,30.05,23.08h5.15c1.93-7.73,2.89-15.21-.63-20-6.63-8.1-22.09-10.31-35.34-11.78a32.68,32.68,0,0,0-5.71.5,33.8,33.8,0,0,0-22.36,14.92,35.28,35.28,0,0,0-3.13,5.93,75.71,75.71,0,0,0-2,10.48h5.44C4355.93,195.71,4365.1,185.65,4379.44,185.65Z"/><path class="cls-2" d="M4387.1,194.61c3.51-2.43,9.51.08,13.31,5.56L4394,204.6l2.48,4.13h13a31.11,31.11,0,0,0-30.05-23.08c-14.34,0-23.51,10.06-28.57,23.08h36.56C4383.83,203.31,4383.66,197,4387.1,194.61Z"/><path class="cls-2" d="M4400.41,200.17c-3.8-5.48-9.8-8-13.31-5.56s-3.27,8.7.33,14.12h9.07L4394,204.6Z"/><path class="cls-2" d="M4267.1,185.65c14.34,0,23.5,10.06,28.57,23.08h5.44a75.71,75.71,0,0,0-2-10.48,35.28,35.28,0,0,0-3.13-5.93,33.8,33.8,0,0,0-22.36-14.92,32.68,32.68,0,0,0-5.71-.5c-13.25,1.47-28.71,3.68-35.34,11.78-3.52,4.84-2.56,12.32-.63,20h5.15A31.11,31.11,0,0,1,4267.1,185.65Z"/><path class="cls-2" d="M4274.85,194.61c3.51-2.43,9.52.08,13.31,5.56l-6.39,4.43,2.48,4.13h11.42c-5.07-13-14.23-23.08-28.57-23.08a31.11,31.11,0,0,0-30.05,23.08h38.14C4271.59,203.31,4271.41,197,4274.85,194.61Z"/><path class="cls-2" d="M4288.16,200.17c-3.79-5.48-9.8-8-13.31-5.56s-3.26,8.7.34,14.12h9.06l-2.48-4.13Z"/><path class="cls-2" d="M4343.2,230.17c1.66-3.91,3.89-8.41,5.14-13.42a66.88,66.88,0,0,1,2.53-8h-5.44c-.8,6.1-1.11,12.24-2,18.48C4343.35,228.34,4343.27,229.31,4343.2,230.17Z"/><path class="cls-2" d="M4410.54,216.75a31,31,0,0,1-3.11,13.56c.21-.35.42-.69.62-1a36.24,36.24,0,0,0,2.43-5.38c1.12-4.68,2.86-10,4.16-15.16h-5.15A31.16,31.16,0,0,1,4410.54,216.75Z"/><path class="cls-2" d="M4409.49,208.73h-13l3.75,6.25c-3.61,1.73-9.09-.86-12.62-5.95l-.2-.3h-36.56a66.88,66.88,0,0,0-2.53,8c-1.25,5-3.48,9.51-5.14,13.42-.14,1.79-.24,3-.29,3.81,5.58,9.9,24.72,9.9,35.76,12.85a33.46,33.46,0,0,0,6.83-.71,33.89,33.89,0,0,0,21.93-15.81,31.13,31.13,0,0,0,2.06-21.58Z"/><path class="cls-2" d="M4387.63,209c3.53,5.09,9,7.68,12.62,5.95l-3.75-6.25h-9.07Z"/><path class="cls-2" d="M4238.49,229.27c.2.35.41.69.62,1a31.13,31.13,0,0,1-2.06-21.58h-5.15c1.3,5.18,3,10.48,4.16,15.16A36.24,36.24,0,0,0,4238.49,229.27Z"/><path class="cls-2" d="M4298.2,216.75c1.25,5,3.48,9.51,5.14,13.42-.07-.86-.15-1.83-.25-3-.87-6.24-1.18-12.38-2-18.48h-5.44A66.88,66.88,0,0,1,4298.2,216.75Z"/><path class="cls-2" d="M4295.67,208.73h-11.42L4288,215c-3.6,1.73-9.09-.86-12.62-5.95-.07-.1-.13-.2-.19-.3h-38.14a31.13,31.13,0,0,0,2.06,21.58A33.89,33.89,0,0,0,4261,246.12a33.46,33.46,0,0,0,6.83.71c11-3,30.18-3,35.76-12.85-.05-.78-.15-2-.29-3.81-1.66-3.91-3.89-8.41-5.14-13.42A66.88,66.88,0,0,0,4295.67,208.73Z"/><path class="cls-2" d="M4275.38,209c3.53,5.09,9,7.68,12.62,5.95l-3.75-6.25h-9.06C4275.25,208.83,4275.31,208.93,4275.38,209Z"/><path class="cls-1" d="M5103.24,312.33a359.48,359.48,0,0,1,20.69-64.46,310.47,310.47,0,0,0-40.78,104.28c-38.95,201,33,229.77-80.57,315.21-5.53,4-42.94,24.89,2.77,31.1,52.49-26.23,105.72-74.4,153.55-138.79C5104.87,513.27,5080.42,415.66,5103.24,312.33Z"/><path class="cls-2" d="M5340.45,27.14c-8.88-6.57-10.64,7-14.78,11.73a54.65,54.65,0,0,0-12.46,25.18c-4.69,23.08-9.23,35.45-15.86,43-67.15-4.18-135.63,53-173.42,140.83a359.48,359.48,0,0,0-20.69,64.46c-22.82,103.32,1.62,200.93,55.65,247.33-47.83,64.39-101.05,112.57-153.54,138.8,14.54,2,37.49,2.48,72.55.49,58.48-3.33,97.74-24.45,126.17-52.92,42.2-42.28,60.52-100.78,82.28-141.39C5320.33,441.22,5467.63,123.59,5340.45,27.14Z"/><ellipse class="cls-1" cx="5004.28" cy="515.75" rx="161.33" ry="202.64"/><path class="cls-2" d="M4881.76,673.81c-18.78,5.06-77.28,17.56-72.83,45.68s50.24,0,50.24,0l36.66-27.57Z"/><path class="cls-2" d="M5122.1,673.81c18.78,5.06,77.28,17.56,72.83,45.68s-50.23,0-50.23,0L5108,691.92Z"/><ellipse class="cls-1" cx="4894.71" cy="420.02" rx="76.78" ry="57.83" transform="translate(1751.34 4195.43) rotate(-55.12)"/><ellipse class="cls-1" cx="5115.32" cy="414.18" rx="57.83" ry="76.78" transform="translate(681.92 2999.33) rotate(-34.88)"/><ellipse class="cls-1" cx="5004.04" cy="658.61" rx="151.61" ry="54.23"/><ellipse class="cls-3" cx="5004.28" cy="529.35" rx="119.06" ry="144.32"/><circle class="cls-1" cx="5001.29" cy="208.79" r="123.91"/><ellipse class="cls-3" cx="5066.24" cy="262.57" rx="90.38" ry="76.78"/><ellipse class="cls-3" cx="4939.9" cy="262.57" rx="90.38" ry="76.78"/><ellipse class="cls-3" cx="4946.7" cy="230.5" rx="56.37" ry="76.78"/><ellipse class="cls-3" cx="5059.44" cy="230.5" rx="56.37" ry="76.78"/><ellipse class="cls-3" cx="5004.85" cy="320.88" rx="27.7" ry="32.07"/><path class="cls-1" d="M4886.44,30.29c-22-1.05-22.83,4.49-18.79,11.57a46.82,46.82,0,0,1,13-1.85c32.75,0,59.29,34.16,59.29,76.29a97,97,0,0,1-1.09,14.51,121,121,0,0,1,26-19.06C5004,90.55,4927.26,32.24,4886.44,30.29Z"/><path class="cls-3" d="M4880.61,40a46.82,46.82,0,0,0-13,1.85c3.58,6.27,11,13.74,11,18.94,0,.39.08.79.09,1.19,1.68,43.18,14.56,69.38,23.69,77.3,7.44,6.45,6.2,6.25,10.6,6.55,10.38.72,16.15-6,25.83-15a97,97,0,0,0,1.09-14.51C4939.9,74.17,4913.36,40,4880.61,40Z"/><path class="cls-1" d="M5117.28,22.52c22-1.05,22.83,4.48,18.79,11.57a46.77,46.77,0,0,0-13-1.85c-32.74,0-59.29,34.15-59.29,76.29a98.49,98.49,0,0,0,1.09,14.51,120.09,120.09,0,0,0-26-19.06C4999.68,82.77,5076.46,24.46,5117.28,22.52Z"/><path class="cls-3" d="M5123.11,32.24a46.77,46.77,0,0,1,13,1.85c-3.58,6.26-11,13.74-10.95,18.94,0,.39-.07.79-.09,1.18-1.68,43.19-14.56,69.38-23.69,77.3-7.44,6.46-6.2,6.25-10.6,6.56-10.38.72-16.15-6-25.83-15a98.49,98.49,0,0,1-1.09-14.51C5063.82,66.39,5090.37,32.24,5123.11,32.24Z"/><path class="cls-5" d="M5019.56,296.76l-12.25-3.83.62-.23-5.83-2.92a7.51,7.51,0,0,0-2.92,1c-1.94,1-4.86-.4-2.91,1.94-2-1.37-15.23,3.89-15.23,3.89.65,1-9.07,15.44,16.2,16.47S5019.56,296.76,5019.56,296.76Z"/><path class="cls-6" d="M5001.11,289.85h0v-.07S5001.11,289.83,5001.11,289.85Z"/><path class="cls-5" d="M5001.13,289.85a1.14,1.14,0,0,1,.32-.07h1.62c-2.92-4.86-1-13.6-1-13.6h-1v13.67Z"/><path class="cls-5" d="M5037.09,290.76s-7.4,11.46-28.19,2v2.87c9.68,3.78,25.81,6,33.05-7.82C5052.64,267.43,5037.09,290.76,5037.09,290.76Z"/><path class="cls-5" d="M5001.11,289.85s0-.05,0-.07V275.21h-1s2,8.74-1,13.6c-.59.35-1.17.66-1.75,1h.46a1.3,1.3,0,0,1,1.29,1.3v.69a10,10,0,0,0,1-.72A1.28,1.28,0,0,1,5001.11,289.85Z"/><path class="cls-5" d="M4965.17,289.78s-15.55-23.32-4.86-2.91c6.55,12.5,20.38,11.87,30.13,8.84v-2.66C4971.86,300.19,4965.17,289.78,4965.17,289.78Z"/><path class="cls-4" d="M4990.44,301.93a4.37,4.37,0,1,0,8.74,0V291.77a35.53,35.53,0,0,1-8.74,3.94Z"/><path class="cls-4" d="M4997.89,289.78h-.46a59,59,0,0,1-7,3.27v2.66a35.53,35.53,0,0,0,8.74-3.94v-.69A1.3,1.3,0,0,0,4997.89,289.78Z"/><path class="cls-4" d="M5001.13,290.76v-.91h0a2.52,2.52,0,0,1-.95,1.2v10.88a4.38,4.38,0,1,0,8.75,0v-6.27C5004.28,293.86,5001.13,291.7,5001.13,290.76Z"/><path class="cls-4" d="M5003.07,289.78h-1.62a1.14,1.14,0,0,0-.32.07v.91c0,.94,3.15,3.1,7.77,4.9v-2.87C5007.06,292,5005.13,291,5003.07,289.78Z"/><path class="cls-4" d="M5001.11,289.85a1.28,1.28,0,0,0-.95,1.2A2.52,2.52,0,0,0,5001.11,289.85Z"/><ellipse class="cls-5" cx="5001.29" cy="267.92" rx="17.01" ry="10.2"/><ellipse class="cls-7" cx="5000.96" cy="264.03" rx="8.91" ry="5.35"/><ellipse class="cls-2" cx="4891.92" cy="435.07" rx="29.48" ry="54.55" transform="translate(3695.34 5198.3) rotate(-80.98)"/><ellipse class="cls-2" cx="4947.75" cy="412.8" rx="49.25" ry="25.3" transform="translate(1414.44 3900.83) rotate(-49.4)"/><ellipse class="cls-2" cx="4973" cy="376.81" rx="21.58" ry="23.1" transform="translate(988.62 3376.38) rotate(-41.31)"/><ellipse class="cls-2" cx="4955.37" cy="353.54" rx="16.97" ry="3.34" transform="translate(4314.68 5280.02) rotate(-86.67)"/><ellipse class="cls-2" cx="4964.23" cy="350.79" rx="16.97" ry="3.34" transform="translate(4325.77 5286.27) rotate(-86.67)"/><ellipse class="cls-2" cx="4973.08" cy="348.03" rx="16.97" ry="3.34" transform="translate(4336.86 5292.51) rotate(-86.67)"/><ellipse class="cls-2" cx="4981.7" cy="349.15" rx="16.97" ry="3.34" transform="translate(4343.86 5302.17) rotate(-86.67)"/><ellipse class="cls-2" cx="4995.56" cy="371.5" rx="11.24" ry="4.03" transform="translate(2478.92 4702.81) rotate(-64.1)"/><ellipse class="cls-2" cx="5118.64" cy="435.07" rx="54.55" ry="29.48" transform="translate(-4.92 807.82) rotate(-9.02)"/><ellipse class="cls-2" cx="5062.81" cy="412.8" rx="25.3" ry="49.25" transform="translate(950.14 3394.14) rotate(-40.6)"/><ellipse class="cls-2" cx="5037.56" cy="376.81" rx="23.1" ry="21.58" transform="translate(1429.27 3912.23) rotate(-48.69)"/><ellipse class="cls-2" cx="5055.19" cy="353.54" rx="3.34" ry="16.97" transform="matrix(1, -0.06, 0.06, 1, -12, 294.14)"/><ellipse class="cls-2" cx="5046.34" cy="350.79" rx="3.34" ry="16.97" transform="translate(-11.85 293.62) rotate(-3.33)"/><ellipse class="cls-2" cx="5037.48" cy="348.03" rx="3.34" ry="16.97" transform="matrix(1, -0.06, 0.06, 1, -11.71, 293.11)"/><ellipse class="cls-2" cx="5028.86" cy="349.15" rx="3.34" ry="16.97" transform="translate(-11.79 292.61) rotate(-3.33)"/><ellipse class="cls-2" cx="5015" cy="371.5" rx="4.03" ry="11.24" transform="translate(341.6 2228.28) rotate(-25.9)"/><path class="cls-2" d="M5059.44,185.79a31.11,31.11,0,0,1,30.05,23.08h5.15c1.93-7.72,2.89-15.2-.63-20.05-6.63-8.09-22.09-10.3-35.34-11.77a33.23,33.23,0,0,0-28.07,15.41,35.38,35.38,0,0,0-3.13,5.94,75.57,75.57,0,0,0-2,10.47h5.44C5035.93,195.86,5045.1,185.79,5059.44,185.79Z"/><path class="cls-2" d="M5067.1,194.76c3.51-2.43,9.51.08,13.31,5.56l-6.39,4.42,2.48,4.13h13a31.11,31.11,0,0,0-30.05-23.08c-14.34,0-23.51,10.07-28.57,23.08h36.56C5063.83,203.46,5063.66,197.14,5067.1,194.76Z"/><path class="cls-2" d="M5080.41,200.32c-3.8-5.48-9.8-8-13.31-5.56s-3.27,8.7.33,14.11h9.07l-2.48-4.13Z"/><path class="cls-2" d="M4947.1,185.79c14.34,0,23.5,10.07,28.57,23.08h5.44a75.57,75.57,0,0,0-2-10.47,35.38,35.38,0,0,0-3.13-5.94,33.23,33.23,0,0,0-28.07-15.41c-13.25,1.47-28.71,3.68-35.34,11.77-3.52,4.85-2.56,12.33-.63,20.05h5.15A31.11,31.11,0,0,1,4947.1,185.79Z"/><path class="cls-2" d="M4954.85,194.76c3.51-2.43,9.52.08,13.31,5.56l-6.39,4.42,2.48,4.13h11.42c-5.07-13-14.23-23.08-28.57-23.08a31.11,31.11,0,0,0-30.05,23.08h38.14C4951.59,203.46,4951.41,197.14,4954.85,194.76Z"/><path class="cls-2" d="M4968.16,200.32c-3.79-5.48-9.8-8-13.31-5.56s-3.26,8.7.34,14.11h9.06l-2.48-4.13Z"/><path class="cls-4" d="M5023.2,230.32c1.66-3.92,3.89-8.41,5.14-13.43a68,68,0,0,1,2.53-8h-5.44c-.8,6.1-1.11,12.24-2,18.48C5023.35,228.48,5023.27,229.46,5023.2,230.32Z"/><path class="cls-4" d="M5090.54,216.89a30.94,30.94,0,0,1-3.11,13.56c.21-.34.42-.68.62-1a35.34,35.34,0,0,0,2.43-5.38c1.12-4.68,2.86-10,4.16-15.16h-5.15A31.21,31.21,0,0,1,5090.54,216.89Z"/><path d="M5089.49,208.87h-13l3.75,6.26c-3.61,1.73-9.09-.86-12.62-6l-.2-.3h-36.56a68,68,0,0,0-2.53,8c-1.25,5-3.48,9.51-5.14,13.43-.14,1.78-.24,3-.29,3.8,5.58,9.91,24.72,9.91,35.76,12.85a32.77,32.77,0,0,0,6.83-.71,33.89,33.89,0,0,0,21.93-15.81,31.13,31.13,0,0,0,2.06-21.58Z"/><path class="cls-4" d="M5067.63,209.17c3.53,5.1,9,7.69,12.62,6l-3.75-6.26h-9.07Z"/><path class="cls-4" d="M4918.49,229.41c.2.36.41.7.62,1a31.13,31.13,0,0,1-2.06-21.58h-5.15c1.3,5.19,3,10.48,4.16,15.16A35.34,35.34,0,0,0,4918.49,229.41Z"/><path class="cls-4" d="M4978.2,216.89c1.25,5,3.48,9.51,5.14,13.43-.07-.86-.15-1.84-.25-3-.87-6.24-1.18-12.38-2-18.48h-5.44A68,68,0,0,1,4978.2,216.89Z"/><path d="M4975.67,208.87h-11.42l3.75,6.26c-3.6,1.73-9.09-.86-12.62-6-.07-.1-.13-.2-.19-.3h-38.14a31.13,31.13,0,0,0,2.06,21.58A33.89,33.89,0,0,0,4941,246.26a32.77,32.77,0,0,0,6.83.71c11-2.94,30.18-2.94,35.76-12.85-.05-.78-.15-2-.29-3.8-1.66-3.92-3.89-8.41-5.14-13.43A68,68,0,0,0,4975.67,208.87Z"/><path class="cls-4" d="M4955.38,209.17c3.53,5.1,9,7.69,12.62,6l-3.75-6.26h-9.06C4955.25,209,4955.31,209.07,4955.38,209.17Z"/></g></svg>
