<svg xmlns="http://www.w3.org/2000/svg" xmlns:xlink="http://www.w3.org/1999/xlink" width="1600" height="900" viewBox="0 0 1600 900"><defs><style>.a{fill:url(#a);}.b{fill:#e6e6e6;}.c{fill:#f2f2f2;}.d{fill:#ccc;}.e{fill:#b3b3b3;}.f{fill:#999;}.g{fill:gray;}.h{fill:#a89256;}.i{fill:#d8ad73;}.j{fill:#6b5f36;}.k{fill:#7a6340;}.l{fill:#666;}.m{fill:#fff1e7;stroke-miterlimit:1;}.m,.o{stroke:#000;}.n{fill:#ff0;}.o{fill:#8c6239;stroke-miterlimit:10;}.p{fill:#4d4d4d;}.q{fill:#333;}</style><linearGradient id="a" x1="801.51" y1="290.47" x2="801.51" y2="-178.03" gradientUnits="userSpaceOnUse"><stop offset="0" stop-color="#cce0f4"/><stop offset="0.06" stop-color="#c5ddf3"/><stop offset="0.16" stop-color="#b1d5f0"/><stop offset="0.27" stop-color="#91c9ea"/><stop offset="0.4" stop-color="#64b7e3"/><stop offset="0.54" stop-color="#2aa1d9"/><stop offset="0.57" stop-color="#1e9cd7"/><stop offset="0.87" stop-color="#0075be"/><stop offset="0.99" stop-color="#005b97"/></linearGradient></defs><title>baggrund</title><rect class="a" x="-9.52" y="-14" width="1622.05" height="304.47"/><path class="b" d="M1604,147s-27.76-16-27.76-19-16-27-16-27l-11.74-8-29.89,21-27.76,28-40.57,17-26.69,20-43.77,21,174,127,96.08,2Z"/><path class="c" d="M1467.35,97.33c0-1.33-22.06,14.67-22.06,14.67L1409,130l-22.06,12s-47.68,6.67-46.26,8.67,88.25,66.67,88.25,66.67L1543.5,158l-34.16-28-20.64-16-14.23-14.67Z"/><path class="d" d="M1337.82,112.67c2.85,0,44.84,18,44.84,18s39.85,28,42,28S1475.89,184,1475.89,184l20.64,18.67,12.81,26-12.81,26.67S1322.88,162,1322.88,160,1337.82,112.67,1337.82,112.67Z"/><path class="c" d="M1136.42,181.33l-24.91-14.67-37.72-13.33-8.9-29.33-33.09,39s-21.71,22.33-24.55,23-31.67,14.67-31.67,14.67-32,6.67-34.16,10-28.47,26-32.74,26.67-24.91,3.33-26.33,6-10,15.33-13.52,19.33-28.47,10.67-28.47,10.67l-27,24.67,3.56,13.33,173.65,46L1172.71,210l-19.93-15.33Z"/><path class="b" d="M516.54,200.67,577,187.33l37.72-24.67,31.31-16,14.23-12L666.71,124l16.37-2.67,7.12,4,20.64,1.33,19.93,4.67,17.44,16,8.18,5,12.81-1.67L789.83,164l31.31,21.33L836.8,202l33.45,22,7.83,6.67L894.45,246l17,28,20.82,21.25L879.5,341.33,587,352Z"/><path class="d" d="M635,273.67c6.41-3.33,28.47-11.33,28.47-11.33l37-18.67,19.22-20,24.2-6.67,19.22,6.67L793.74,235l18.5,8,18.5,14,33.45,18.5,32,10.5,36.83,9,32.56,14.67-338.4-2-42.7-19.33Z"/><path class="e" d="M652.48,244.67,614,231.33l-62.63-36-19.22-18-24.91-8.67-10.68-7.33-28.47-14.67-10-24-19.22-10-20.64-20L411.93,86l-14.23-2.67L394.85,88,361.4,83.33l-13.52,5.33-11.39,16.67L312.29,124l-29.89,8-22.06,11.33L221.2,172l-35.58,22.67s49.11,154,51.24,154.67,437-45.33,437-45.33l58.27-2.25-23.22-18-38.43-24.5Z"/><path class="d" d="M365.67,293.33l-12.81-20-24.2-22.67-34.16-20-44.12-29.33L227.6,192l-17.79-18.67L192.73,164c-7.05-5.56-13.9-15.93-20.64-28.67L163.55,118l-10.68-6.67-7.12-10.67L125.12,98l-10-2.67L99.5,102l-2.85,62.67s2.85,158.67,5,158S396.27,316,396.27,316l-19.22-12.67Z"/><path class="f" d="M425.45,315.33,394.14,298l-23.49-19.33L349.3,270l-24.91-8s-34.87-4.67-34.16-1.33,2.14,54.67,2.14,54.67l134.51,6Z"/><path class="g" d="M-10.1,158,39,119l41.63-17,21.53-4.17,6.58,9.5,10.68,1.33,10.5,5.33c3.39,3.81,9.88,7.16,16.55,5.33l9.25,20a69.72,69.72,0,0,0,17.79,25.33l17.79,16.67,21.35,20,27.76,13.33S271,226,273.15,226s47,32,47,32l17.08,15.33,8.54,25.33,10,10.67L359.26,320l-383.6,28Z"/><path class="e" d="M967.75,318l76.86-36,44.84-55,81.13-64,60.85-15,69.39-62,14.95-7,40.57,42,29.89,42,53.38,37,64.05,25,18.15,40,95,65,1.07,37-95-2s-86.47-39-90.74-44-107.82,9-107.82,9l-128.1,5-102.48-3-128.1,8Z"/><polygon class="g" points="1373.76 258.67 1348.14 270.67 1322.88 307.67 1295.84 315 1280.53 332 1429.99 346.67 1632.1 376.33 1620.72 344.67 1514.86 281 1487.63 240.67 1433.55 217.33 1405.86 200.13 1373.76 258.67"/><path class="h" d="M796,299.59c-97.32,3.24-582,12.93-751.88,48.17-27.31,5.67-51.48,1.29-59.6,8.35-2.42,2.11,1.14,15,.76,17.22,0,0-21.2,133.59-18,132.59s792.1-76.09,792.1-76.09L797,320.68Z"/><path class="i" d="M1620.46,391.84c-73.83-46.33-501.62-78.33-817.25-91l32,36,354,84,565.91,200Z"/><path class="j" d="M793.85,300.84c-312.32,7.94-759.43,93.32-878.54,202,0,0,15.9,550,19.08,549s744,4,744,4L797,328.84Z"/><path class="k" d="M799.5,300.84s275.47,28.8,484.31,76c90.08,17.33,326.76,100.67,368.8,159l-38.15,525-536.24,7-256.46-603Z"/><path class="l" d="M788.73,308.68c-11.66,47.33-32.66,92.74-54,132-45.1,74.41-92,143.51-144.13,197,4.07,2.91-347.42,360.58-361.38,352-2.66-1.64-72.06,50-72.06,50H1336.62l-67.82-16c-85.77-109.27-191.75-254.43-304.15-411-60.05-83-98.72-144.82-111.27-170-14.82-27.13-38.15-84.67-47.69-134-1.65-4.25-2.43-6.85-2.47-7.83L797,299.78l-6.36.9A46.93,46.93,0,0,1,788.73,308.68Z"/><path class="m" d="M796.63,300c-329.8,3.66-592.69,19.75-796.94,46.48l-40.36,3.72,12.33,8.5a422.06,422.06,0,0,1,47.85-7.49C271.23,326.15,532.25,309.48,796.63,300Z"/><path class="m" d="M796.76,299.84c349.19,14.4,626.75,35.64,799,66.91L1622,370.5s51.53,26.09,40.75,26c-22.83-.2-123-27.6-164-35C1341.49,333.27,1026.17,316.45,796.76,299.84Z"/><path class="f" d="M1219.08,976.09C1109.82,831,894,516.09,877.83,489.09c-17.22-27.75-32.59-56-51.4-103.5-5.22-14.44-17.75-51-23-85.75l-1.59-.25c4.63,22.72,11.06,55.13,24,89.88,14.88,37.88,30.07,71.88,49.94,102.88,71.53,116.5,205.06,339.25,312.63,482.25Z"/><path class="f" d="M244.72,990.76C407.41,837.45,565.46,676,649.23,572.12c26.24-32.55,41.56-59.78,54.71-78.69,23.14-35.58,38.68-63.18,60.36-112.69C779.58,344,784.73,326.43,791,300.43l1.41-.42c-.88,4-15.37,56.67-27,81.5-18.24,44.06-33.56,75.83-59.79,115.33-66.32,125.67-202,269.92-431.94,494.92Z"/><path class="n" d="M791.84,977.41c-10.51-159.52-8.59-409.93,5.72-676.57-20.65,257.87-50.37,492.23-100.15,674.5Z"/><rect class="l" x="684.8" y="817.51" width="154.19" height="39.07"/><rect class="l" x="688.87" y="721.51" width="154.19" height="27.91"/><rect class="l" x="693.28" y="658.51" width="154.19" height="19.41"/><rect class="l" x="695.93" y="614.18" width="154.19" height="15.92"/><rect class="l" x="699.11" y="578.84" width="154.19" height="12.59"/><rect class="l" x="701.05" y="552.18" width="154.19" height="9.75"/><rect class="l" x="736.73" y="532.18" width="85.38" height="7.76"/><rect class="l" x="738.15" y="516.18" width="85.38" height="5.42"/><rect class="l" x="738.15" y="500.18" width="85.38" height="5.76"/><rect class="l" x="736.03" y="486.18" width="85.38" height="4.09"/><rect class="l" x="741.33" y="474.18" width="85.38" height="3.76"/><rect class="l" x="759.34" y="463.51" width="52.88" height="3.76"/><rect class="l" x="759.34" y="453.51" width="52.88" height="3.76"/><rect class="l" x="759.34" y="440.84" width="52.88" height="3.76"/><rect class="l" x="761.46" y="429.84" width="52.88" height="3.76"/><rect class="l" x="782.72" y="411.34" width="14.66" height="1.83"/><rect class="l" x="783.78" y="405.18" width="14.66" height="1.5"/><rect class="l" x="783.43" y="400.18" width="14.66" height="1.5"/><rect class="l" x="783.43" y="395.84" width="14.66" height="1.5"/><rect class="l" x="783.6" y="391.84" width="14.66" height="1"/><rect class="l" x="783.96" y="389.01" width="14.66" height="1"/><rect class="l" x="784.31" y="386.84" width="14.66" height="0.56"/><rect class="l" x="784.77" y="385.34" width="14.66" height="0.56"/><rect class="l" x="785.11" y="384.28" width="14.66" height="0.31"/><rect class="l" x="785.22" y="383.51" width="14.66" height="0.31"/><rect class="l" x="785.26" y="382.93" width="14.66" height="0.21"/><rect class="l" x="785.37" y="382.43" width="14.66" height="0.21"/><rect class="l" x="785.41" y="381.87" width="14.66" height="0.21"/><rect class="l" x="785.37" y="380.91" width="14.66" height="0.21"/><rect class="l" x="785.37" y="379.95" width="14.66" height="0.21"/><rect class="l" x="785.37" y="378.66" width="14.66" height="0.21"/><rect class="l" x="785.37" y="376.37" width="14.66" height="0.21"/><rect class="l" x="785.5" y="374.24" width="14.66" height="0.21"/><rect class="l" x="785.64" y="370.45" width="14.66" height="0.21"/><rect class="l" x="785.72" y="367.95" width="14.66" height="0.21"/><rect class="l" x="761.46" y="420.34" width="52.88" height="2.92"/><polygon class="o" points="862.21 580.63 839.93 580.63 833.9 534.34 853.16 534.34 862.21 580.63"/><polygon class="o" points="928.73 579.81 906.5 579.81 891.81 534.72 911.1 534.72 928.73 579.81"/><polygon class="o" points="995.58 580.63 973.61 580.63 949.67 534.72 968.69 534.72 995.58 580.63"/><polygon class="o" points="1062.08 579.81 1039.86 579.81 1007.52 534.71 1026.81 534.71 1062.08 579.81"/><polygon class="o" points="1128.76 579.81 1106.53 579.81 1065.38 534.71 1084.66 534.71 1128.76 579.81"/><polygon class="o" points="1195.43 579.81 1173.21 579.81 1123.25 534.72 1142.54 534.72 1195.43 579.81"/><polygon class="o" points="1262.11 579.81 1239.88 579.81 1181.09 534.71 1200.38 534.71 1262.11 579.81"/><polygon class="o" points="1306.56 579.81 1328.78 579.81 1258.26 534.72 1238.97 534.72 1306.56 579.81"/><polygon class="o" points="1317.33 534.71 1296.81 534.71 1373.23 579.81 1396.88 579.81 1317.33 534.71"/><polygon class="o" points="1462.13 579.81 1439.91 579.81 1354.69 534.72 1373.98 534.72 1462.13 579.81"/><polygon class="o" points="1431.84 534.72 1412.56 534.72 1506.59 579.81 1528.81 579.81 1431.84 534.72"/><polygon class="o" points="1489.7 534.72 1470.42 534.72 1573.26 579.81 1595.49 579.81 1489.7 534.72"/><polygon class="o" points="1547.56 534.72 1528.28 534.72 1639.94 579.81 1662.16 579.81 1547.56 534.72"/><polygon class="o" points="706.48 579.81 728.7 579.81 737.52 534.72 718.23 534.72 706.48 579.81"/><polygon class="o" points="639.8 579.81 662.02 579.81 679.66 534.71 660.38 534.71 639.8 579.81"/><polygon class="o" points="572.59 580.63 594.87 580.63 621.79 534.72 602.51 534.72 572.59 580.63"/><polygon class="o" points="506.45 579.81 528.67 579.81 563.93 534.72 544.65 534.72 506.45 579.81"/><polygon class="o" points="439.77 579.81 462 579.81 506.07 534.72 486.79 534.72 439.77 579.81"/><polygon class="o" points="373.1 579.81 395.32 579.81 448.21 534.72 428.93 534.72 373.1 579.81"/><polygon class="o" points="306.42 579.81 328.64 579.81 390.35 534.72 371.07 534.72 306.42 579.81"/><polygon class="o" points="239.74 579.81 261.97 579.81 332.49 534.72 313.2 534.72 239.74 579.81"/><polygon class="o" points="173.07 579.81 195.29 579.81 274.66 534.71 255.37 534.71 173.07 579.81"/><polygon class="o" points="106.39 579.81 128.62 579.81 216.77 534.72 197.48 534.72 106.39 579.81"/><polygon class="o" points="39.72 579.81 61.94 579.81 158.91 534.72 139.62 534.72 39.72 579.81"/><polygon class="o" points="-26.96 579.81 -4.73 579.81 101.05 534.72 81.76 534.72 -26.96 579.81"/><polygon class="o" points="-71.41 579.81 -93.64 579.81 23.9 534.72 43.19 534.72 -71.41 579.81"/><polygon class="o" points="796.71 540.21 795.26 585.31 795.38 579.81 794.46 534.72 796.71 534.71 796.71 540.21"/><polygon class="o" points="795.38 579.81 773.15 579.81 776.09 534.72 795.38 534.72 795.38 579.81"/><rect class="o" x="639.8" y="579.81" width="22" height="5.5"/><rect class="o" x="572.59" y="579.81" width="22" height="5.5"/><rect class="o" x="506.45" y="579.81" width="22" height="5.5"/><rect class="o" x="439.77" y="579.81" width="22" height="5.5"/><rect class="o" x="373.1" y="579.81" width="22" height="5.5"/><rect class="o" x="306.42" y="579.81" width="22" height="5.5"/><rect class="o" x="239.39" y="579.81" width="22" height="5.5"/><rect class="o" x="173.07" y="579.81" width="22" height="5.5"/><rect class="o" x="106.04" y="579.81" width="22" height="5.5"/><rect class="o" x="39.14" y="579.81" width="22" height="5.5"/><rect class="o" x="26.89" y="579.81" width="23.01" height="5.5"/><rect class="o" x="706.49" y="579.81" width="22" height="5.5"/><rect class="o" x="773.26" y="579.81" width="22" height="5.5"/><rect class="o" x="839.88" y="579.81" width="22" height="5.5"/><rect class="o" x="906.73" y="579.81" width="22" height="5.5"/><rect class="o" x="973.58" y="579.81" width="22" height="5.5"/><rect class="o" x="1040.08" y="579.81" width="22" height="5.5"/><rect class="o" x="1106.76" y="579.81" width="22" height="5.5"/><rect class="o" x="1173.23" y="579.81" width="22" height="5.5"/><rect class="o" x="1240.11" y="579.81" width="22" height="5.5"/><rect class="o" x="1306.78" y="579.81" width="22" height="5.5"/><rect class="o" x="1373.43" y="579.81" width="23.45" height="5.5"/><rect class="o" x="1440.32" y="579.81" width="23.45" height="5.5"/><rect class="o" x="1506.8" y="579.81" width="23.45" height="5.5"/><rect class="o" x="1573.35" y="579.81" width="23.45" height="5.5"/><polygon class="o" points="737.41 540.21 728.49 585.31 728.7 579.81 737.41 534.71 737.41 540.21"/><polygon class="o" points="839.88 585.31 833.9 540.21 833.9 534.71 839.93 580.63 839.88 585.31"/><polygon class="o" points="448.21 540.21 395.1 585.31 395.32 579.81 448.21 534.71 448.21 540.21"/><polygon class="o" points="506.45 540.21 461.77 585.31 462 579.81 506.45 534.71 506.45 540.21"/><polygon class="o" points="390.35 540.21 328.42 585.31 328.42 579.81 390.35 534.71 390.35 540.21"/><polygon class="o" points="332.51 540.21 261.39 585.31 261.39 579.81 332.51 534.71 332.51 540.21"/><polygon class="o" points="274.66 540.21 195.07 585.31 195.29 579.81 274.66 534.71 274.66 540.21"/><polygon class="o" points="216.78 540.21 128.04 585.31 128.62 579.81 216.78 534.71 216.78 540.21"/><polygon class="o" points="158.92 540.21 61.14 585.31 61.94 579.81 158.92 534.71 158.92 540.21"/><polygon class="o" points="101.05 540.21 -5.1 585.31 -5.1 579.81 101.05 534.71 101.05 540.21"/><polygon class="o" points="43.19 540.21 -71.42 585.31 -71.41 579.81 43.19 534.71 43.19 540.21"/><polygon class="o" points="563.93 540.21 528.45 585.31 528.67 579.81 563.93 534.71 563.93 540.21"/><polygon class="o" points="621.79 540.21 594.59 585.31 594.87 580.63 621.79 534.71 621.79 540.21"/><polygon class="o" points="679.66 540.21 661.8 585.31 662.02 579.81 679.66 534.71 679.66 540.21"/><polygon class="o" points="906.73 585.31 891.81 540.22 891.81 534.72 906.73 579.81 906.73 585.31"/><polygon class="o" points="973.58 585.31 949.67 540.22 949.67 534.72 973.58 579.81 973.58 585.31"/><polygon class="o" points="1040.08 585.31 1007.52 540.22 1007.52 534.72 1039.86 579.81 1040.08 585.31"/><polygon class="o" points="1106.76 585.31 1065.38 540.21 1065.38 534.71 1106.53 579.81 1106.76 585.31"/><polygon class="o" points="1173.23 585.31 1123.25 540.22 1123.25 534.72 1173.23 579.81 1173.23 585.31"/><polygon class="o" points="1240.11 585.31 1181.11 540.22 1181.11 534.72 1239.88 579.81 1240.11 585.31"/><polygon class="o" points="1306.78 585.31 1238.96 540.22 1238.96 534.72 1306.78 579.81 1306.78 585.31"/><polygon class="o" points="1373.43 585.31 1296.81 540.22 1296.81 534.72 1373.43 579.81 1373.43 585.31"/><polygon class="o" points="1440.32 585.31 1354.69 540.22 1354.69 534.72 1440.32 579.81 1440.32 585.31"/><polygon class="o" points="1506.8 585.31 1412.56 540.22 1412.56 534.72 1506.8 579.81 1506.8 585.31"/><polygon class="o" points="1573.35 585.31 1470.42 540.22 1470.42 534.72 1573.35 579.81 1573.35 585.31"/><polygon class="o" points="1639.9 586.54 1528.28 540.22 1528.28 534.72 1639.94 579.81 1639.9 586.54"/><path class="f" d="M1493,554.16c-2.2,0-926.21,3.51-926.21,3.51s-607.94-.08-607.93-2.28S-42.66,573-42.66,573l99-.48,668.8.24,650.47-1.28,288.94-.73-4.36-17.61Z"/><path class="p" d="M1493,557.34c-2.2,0-926.21,3.51-926.21,3.51s-607.94-.08-607.93-2.28-1.51,17.6-1.51,17.6l99-.48,668.8.24,650.47-1.28,288.94-.73-4.36-17.61Z"/><path class="f" d="M1494.43,535.47c-2.75-.55-479,.55-479,.55l-638,1.65-457.6,1.1s-3.3,17.6-1.65,17,129.8-6,129.8-6l547.25-.55,564.3-2.2,504.9-1.1.74-12.57Z"/><path class="q" d="M1494.43,538c-2.75-.55-479,.55-479,.55l-638,1.65-457.6,1.1s-3.3,17.6-1.65,17,129.8-6,129.8-6l547.25-.55,564.3-2.2,504.9-1.1.74-12.57Z"/></svg>