<svg xmlns="http://www.w3.org/2000/svg" xmlns:xlink="http://www.w3.org/1999/xlink" width="356.33" height="308.73" viewBox="0 0 356.33 308.73"><defs><style>.a{fill:#42210b;}.a,.b,.f,.g,.h,.i,.s{stroke:#000;}.a,.b,.f,.g,.h,.i,.k,.l,.n,.s{stroke-miterlimit:1;}.b{fill:#603813;}.c{fill:#7f7f7f;}.d,.e{opacity:0.57;}.d{fill:url(#a);}.e{fill:url(#b);}.f{fill:#45b2ff;}.g{fill:#f2f2f2;}.g,.l,.n,.s{stroke-width:2px;}.h{fill:url(#c);}.i,.k,.s{fill:none;}.j{fill:url(#d);}.k{stroke:gray;}.l{fill:url(#e);stroke:url(#f);}.m{fill:#871b1f;}.n{fill:url(#g);stroke:url(#h);}.o{fill:#333;}.p{fill:#7f7f77;}.q{fill:#4c4c3f;}.r{fill:#c4ced7;}.s{stroke-linecap:round;}</style><linearGradient id="a" x1="39.58" y1="273.73" x2="39.58" y2="301.08" gradientUnits="userSpaceOnUse"><stop offset="0" stop-color="#fff"/><stop offset="1"/></linearGradient><linearGradient id="b" x1="307.48" y1="262.06" x2="307.48" y2="301.7" xlink:href="#a"/><linearGradient id="c" x1="119.41" y1="24.22" x2="273.21" y2="148.76" gradientUnits="userSpaceOnUse"><stop offset="0" stop-color="#cce0f4"/><stop offset="0.06" stop-color="#c3dcf2"/><stop offset="0.17" stop-color="#a9d2ee"/><stop offset="0.31" stop-color="#80c2e7"/><stop offset="0.46" stop-color="#47acde"/><stop offset="0.57" stop-color="#1e9cd7"/><stop offset="0.87" stop-color="#0075be"/><stop offset="0.99" stop-color="#005b97"/></linearGradient><linearGradient id="d" x1="221.5" y1="263.66" x2="232.4" y2="269.95" gradientUnits="userSpaceOnUse"><stop offset="0" stop-color="#fff"/><stop offset="0.19" stop-color="#fcfcfc"/><stop offset="0.33" stop-color="#f3f3f3"/><stop offset="0.44" stop-color="#e4e4e4"/><stop offset="0.55" stop-color="#cecece"/><stop offset="0.65" stop-color="#b2b2b2"/><stop offset="0.74" stop-color="#8f8f8f"/><stop offset="0.83" stop-color="#666"/><stop offset="0.92" stop-color="#373737"/><stop offset="1" stop-color="#030303"/><stop offset="1"/></linearGradient><linearGradient id="e" x1="290.19" y1="203.74" x2="322.83" y2="184.13" gradientUnits="userSpaceOnUse"><stop offset="0" stop-color="#8b0c00"/><stop offset="0.14" stop-color="#8f1004"/><stop offset="0.29" stop-color="#991c0e"/><stop offset="0.44" stop-color="#ab3120"/><stop offset="0.59" stop-color="#c34d39"/><stop offset="0.73" stop-color="#e27158"/><stop offset="0.81" stop-color="#f6886c"/><stop offset="1" stop-color="#821a00"/></linearGradient><linearGradient id="f" x1="291.9" y1="191.5" x2="324.51" y2="191.5" xlink:href="#a"/><linearGradient id="g" x1="30.59" y1="188.48" x2="57.5" y2="200.47" gradientUnits="userSpaceOnUse"><stop offset="0" stop-color="#821a00"/><stop offset="0.19" stop-color="#f6886c"/><stop offset="0.27" stop-color="#e27158"/><stop offset="0.41" stop-color="#c34d39"/><stop offset="0.56" stop-color="#ab3120"/><stop offset="0.71" stop-color="#991c0e"/><stop offset="0.86" stop-color="#8f1004"/><stop offset="1" stop-color="#8b0c00"/></linearGradient><linearGradient id="h" x1="29.28" y1="193.5" x2="61.48" y2="193.5" gradientUnits="userSpaceOnUse"><stop offset="0"/><stop offset="1" stop-color="#fff"/></linearGradient></defs><title>bil</title><polyline class="a" points="142.52 294.1 138.64 302.48 129.52 299.1 134.52 290.23"/><polyline class="a" points="213.52 292.6 217.39 300.98 226.52 297.6 221.52 288.73"/><path class="b" d="M139,300.67a4.81,4.81,0,1,1-.09-.92A4.81,4.81,0,0,1,139,300.67Z"/><circle class="b" cx="221.83" cy="299.67" r="4.81"/><path class="c" d="M327.31,278.81c-1.08,9.09-2.23,17.9-4.58,21.83-3,1-31.89,1.89-34.08-.33-1.41-3.14-.95-20.43-1.17-32.58l40-5.67Z"/><path class="c" d="M21.52,273.73c.39,9.38,1.32,23.51,4.83,25.38,4.69,2.75,27.3,2.12,29.13,1.12,1-1.08,1.71-10.27,2.17-17.5Z"/><path class="d" d="M21.52,273.73c.39,9.38,1.32,23.51,4.83,25.38,4.69,2.75,27.3,2.12,29.13,1.12,1-1.08,1.71-10.27,2.17-17.5Z"/><path class="e" d="M327.31,278.81c-1.08,9.09-2.23,17.9-4.58,21.83-3,1-31.89,1.89-34.08-.33-1.41-3.14-.95-20.43-1.17-32.58l40-5.67Z"/><path class="f" d="M12.81,237.06a363.94,363.94,0,0,1-.33-68.67c5.48-20.12,15.89-35.88,36.42-42.67,3.29-19.91,7-38.09,11.13-52.62C63,55.32,65.9,36.67,70,29a8.88,8.88,0,0,1,5.13-3.92c18.58-15.53,46.5-23,77-24,51.83-2.17,93.7,1.27,116.67,22l3,1c8.2,2.7,13.83,33.42,16.58,52.67,4.76,8.34,5.75,28.2,12.75,48.33,19,5.4,29.73,20.9,36.33,41.33,4.4,21.66,6.51,45.67,7.33,71l-8.42,32.08c-1.19,7.34-17.12,19-21.62,20.5-26.12,8.5-45.8,13.07-78.29,15.75-2.18-11.12-7.33-15.4-14-15.33-7.41.49-12,6.15-15,16.83l-59,1c-1.65-11.16-6.05-16.15-13-16.83-7.23-.14-11.39,5.22-14,13.33A800.89,800.89,0,0,1,39.81,289.4C33,288.1,17.89,275.48,16.52,267.48Z"/><path class="g" d="M139.48,168.06c-1.71,1.54-2.12,38.17-1,40.17s72.92,1.75,76.5.38c1.63-.62.75-38.12-.37-40.12S141.18,166.52,139.48,168.06Z"/><path class="h" d="M84.14,52.4c-4,11.08-5.5,37.83.75,36.58,44.75-11.75,127.67-14.58,178.75-1,6.75,1.75,5.5-24-1.25-39-2.92-6.25-11.45-12.18-16.75-14-49.42-9.83-105.88-10.15-147.5,3.25C92.39,39.73,87.14,44.73,84.14,52.4Z"/><path class="f" d="M137,164.73c28.62,4.09,54.62,4.81,80.13-.25C214.89,151.6,195,151,179.48,150.4,165.78,151,139,150.1,137,164.73Z"/><path class="i" d="M80.48,124.4c3.89,23.75,10.17,48.58,13.33,58C96.64,196,115.39,228.23,135.39,228a534.87,534.87,0,0,0,84.5,0c15.5-1,37.08-26.55,40.58-45.58,3.57-18.19,8.23-37.95,12.33-59.33"/><path class="i" d="M283.23,139.9c-.55,21.45-11.08,61.71-22.58,87.08-8.12,14-16.73,21.14-28.08,28.58-45.26,7.32-101.85,7.1-112.33-1.33-11.72-6.31-20.68-17.29-28.08-30.87-10.48-23-18.15-49.16-23.37-78C65.45,133,70,126.2,79.89,123.23c11.81-10.42,33.54-20.79,99-22.33,35.63,1.58,72.72,6.47,93.63,22C278.9,125.23,283.89,130.81,283.23,139.9Z"/><path class="i" d="M222.48,258.31a63.05,63.05,0,0,0-.67,10.17c1.67,4.42,9.83,3.83,11.67.58a80,80,0,0,0-.58-10.33C231.81,255.81,223.23,255.65,222.48,258.31Z"/><path class="j" d="M224.39,258.65l-.08,10.58c.38,4.29,1.41,8.06,2.83,8.08,2-.17,3.22-4.09,3.75-8.17l-.5-10.83C229.31,257.31,225.74,257.44,224.39,258.65Z"/><polyline class="k" points="224.39 268.9 227.64 267.31 230.64 268.81"/><path class="i" d="M321.72,221c-5.27,3.8-24.16,1.47-27.41-2.11-5.27-3.8-8.24-29.17-7.83-38.67.41-13.08,4-22.33,13.14-21.67,8.11-.21,18.93,12.53,21.49,25.95C322.12,198.44,324.31,218.9,321.72,221Z"/><path class="l" d="M322.48,214.9c-4.33,3-22.17,3.5-24.83.67-4.33-3-5-24-4.67-31.5.34-10.33,6-18.17,11.33-18.5,6.67-.17,15.56,9.9,17.66,20.5C322.81,197.06,324.68,210.73,322.48,214.9Z"/><path class="m" d="M297.6,214.15c-1-1.58-1.25-12.64-1.21-19.92.58-14,4.52-21.52,12.25-21.75,9.61.34,13.13,11.5,13.5,21.25.36,6.54.83,14-.12,20C320.27,217.83,299.52,217.6,297.6,214.15Z"/><path class="n" d="M32.14,217.9c4.33,3,22.67,1.17,25.33-1.67,4.33-3,3-23.33,2-30.5-1.71-11.32-7-17.83-12.33-18.17-7.33.5-14.23,8.9-16.33,19.5C30,198.06,29.94,213.73,32.14,217.9Z"/><path class="m" d="M57.27,216c.88-.87-.07-12.83-.75-20.5-2-16.44-8.32-21.72-15-20.94-5.81,1.19-11.4,9.3-10.81,22.13,0,0,.27,17.31,1.69,19.56C33.2,220.19,56.58,218.23,57.27,216Z"/><path class="i" d="M32.64,222.56c4.5,5.17,25.84,1.74,28.81-1.82,4.83-3.77,5-33.5,3.86-42.51C63.4,164,55.88,160,49.93,159.56c-8.18.63-15.87,11.18-18.22,24.51C30.77,197.9,30.18,217.33,32.64,222.56Z"/><polygon class="o" points="5.02 249.23 6.52 258.23 29.02 267.48 104.89 279.48 283.89 277.48 332.02 266.35 349.39 257.23 350.64 254.73 350.52 248.85 321.52 261.35 270.89 268.23 238.64 268.1 105.77 270.48 22.77 256.35 5.02 249.23"/><path class="p" d="M182.31,276.56c-62.24,1.19-144.13-3.33-170.25-17.75C5.09,255,2.52,250.48,1.6,252a19.72,19.72,0,0,0,.92,6.17c0,1,8,7.52,10.46,8.42,10.67,5.29,62.29,17.42,121.08,18.08,52.46.34,106.05,2.2,153.63-4h.07c11.76-1,44.46-9.27,53-13.38,5.11-2.45,9.93-7.94,12.18-12.18,1.53-2.88,3.13-7.75,1.91-6.84-3.67,6.17-14.27,16.28-41.42,20.33C292.54,271.6,285.81,276.94,182.31,276.56Z"/><path class="q" d="M340,257.14c5.59-2.41,11.19-5.69,13.82-8,1.25-1.09,2.21-9.4,2.4-14.64a.82.82,0,0,0-1-.87c-7.83,12.64-33.45,17.95-51.45,20.37L137,263c-31.45-1.4-63.88-2.26-90.75-7.87,0,0-41.43-13.75-41.5-13.75-1.73-.11-4.93-4.81-4.69-3.5.25,6.88.75,10.75,4.19,13.25C27.46,264.23,58.39,265.85,73.21,268c37.56,4.94,145.61,4.81,200.19,1.31C279.21,269.1,319.71,264.95,340,257.14Z"/><path class="r" d="M290,251.56c-48.21,4.69-106.37,4.38-170.08,1.29C59.58,251.79,15.43,239.17,7.52,234.33c-1-.85-7.22-1.92-7.44,0-.34,4.06.45,6,1.77,7.34,11.13,10.4,43.88,14.56,51,15.48,33.71,6.46,121,7.12,129.21,7.21,0,0,87.88-1.62,100.75-3.25A312,312,0,0,0,341,249.23c15.75-4.12,15.75-15.54,15.13-16.17a5.46,5.46,0,0,0-3.66.17C334.62,241,302,250.48,290,251.56Z"/><line class="s" x1="180.56" y1="94.81" x2="180.52" y2="85.6"/><line class="s" x1="183.89" y1="95.06" x2="183.85" y2="85.6"/><line class="s" x1="187.64" y1="95.31" x2="187.43" y2="85.6"/><line class="s" x1="191.06" y1="95.56" x2="190.89" y2="85.6"/><line class="s" x1="194.73" y1="95.73" x2="194.23" y2="85.6"/><line class="s" x1="198.39" y1="95.65" x2="197.81" y2="85.73"/><line class="s" x1="201.81" y1="95.9" x2="201.31" y2="85.73"/><line class="s" x1="205.31" y1="96.48" x2="204.64" y2="85.9"/><line class="s" x1="208.98" y1="96.9" x2="208.14" y2="86.06"/><line class="s" x1="212.56" y1="97.31" x2="211.56" y2="86.31"/><line class="s" x1="216.06" y1="97.81" x2="215.23" y2="86.81"/><line class="s" x1="219.48" y1="98.23" x2="218.81" y2="87.4"/><line class="s" x1="222.89" y1="98.9" x2="222.14" y2="88.06"/><line class="s" x1="226.31" y1="99.48" x2="225.56" y2="88.4"/><line class="s" x1="229.81" y1="100.23" x2="229.06" y2="89.06"/><line class="s" x1="233.39" y1="100.9" x2="232.64" y2="89.65"/><line class="s" x1="236.89" y1="101.65" x2="235.89" y2="90.31"/><line class="s" x1="240.23" y1="102.48" x2="239.31" y2="90.73"/><line class="s" x1="243.64" y1="103.56" x2="242.73" y2="91.31"/><line class="s" x1="247.14" y1="104.73" x2="246.14" y2="92.06"/><line class="s" x1="250.89" y1="105.98" x2="249.48" y2="92.9"/><line class="s" x1="254.06" y1="107.4" x2="252.98" y2="93.48"/><line class="s" x1="257.39" y1="108.98" x2="256.23" y2="94.31"/><line class="s" x1="260.73" y1="109.9" x2="259.53" y2="95.23"/><path class="s" d="M244.77,140.73c-14.33-3.64-29.82-5.62-49.37-7.69"/><path class="s" d="M244.89,137.67c-14.33-3.64-30-5.69-49.56-7.75"/><path class="s" d="M245.14,134.6c-14.33-3.64-30-5.87-49.56-7.94"/><path class="s" d="M245.27,131.6c-14.33-3.64-30.24-5.81-49.79-7.87"/><path class="s" d="M245.21,128.54c-14.33-3.64-30.07-5.81-49.62-7.87"/><path class="s" d="M108.81,128.21c14.33-3.64,30.07-5.81,49.63-7.87"/><path class="s" d="M108.75,131.27c14.33-3.64,30.24-5.81,49.79-7.87"/><path class="s" d="M108.87,134.27c14.33-3.64,30-5.87,49.56-7.94"/><path class="s" d="M109.12,137.33c14.33-3.64,30-5.69,49.56-7.75"/><path class="s" d="M109.25,140.4c14.33-3.64,29.82-5.62,49.38-7.69"/><line class="s" x1="169.27" y1="94.98" x2="169.31" y2="85.77"/><line class="s" x1="173.1" y1="94.81" x2="173.14" y2="85.6"/><line class="s" x1="176.77" y1="94.9" x2="176.81" y2="85.69"/><line class="s" x1="165.68" y1="95.65" x2="165.73" y2="86.19"/><line class="s" x1="161.93" y1="95.9" x2="162.14" y2="86.19"/><line class="s" x1="158.52" y1="96.15" x2="158.68" y2="86.19"/><line class="s" x1="154.85" y1="96.31" x2="155.35" y2="86.19"/><line class="s" x1="151.18" y1="96.23" x2="151.77" y2="86.31"/><line class="s" x1="147.77" y1="96.48" x2="148.27" y2="86.31"/><line class="s" x1="144.27" y1="97.06" x2="144.93" y2="86.48"/><line class="s" x1="140.6" y1="97.48" x2="141.43" y2="86.65"/><line class="s" x1="137.02" y1="97.9" x2="138.02" y2="86.9"/><line class="s" x1="133.52" y1="98.4" x2="134.35" y2="87.4"/><line class="s" x1="130.1" y1="98.81" x2="130.77" y2="87.98"/><line class="s" x1="126.68" y1="99.48" x2="127.43" y2="88.65"/><line class="s" x1="123.27" y1="100.06" x2="124.02" y2="88.98"/><line class="s" x1="119.77" y1="100.81" x2="120.52" y2="89.65"/><line class="s" x1="116.18" y1="101.48" x2="116.93" y2="90.23"/><line class="s" x1="112.68" y1="102.23" x2="113.68" y2="90.9"/><line class="s" x1="109.35" y1="103.06" x2="110.27" y2="91.31"/><line class="s" x1="105.93" y1="104.15" x2="106.85" y2="91.9"/><line class="s" x1="102.43" y1="105.31" x2="103.43" y2="92.65"/><line class="s" x1="98.68" y1="106.56" x2="100.1" y2="93.48"/><line class="s" x1="95.52" y1="107.98" x2="96.6" y2="94.06"/><line class="s" x1="92.18" y1="109.56" x2="93.35" y2="94.9"/><line class="s" x1="88.85" y1="110.48" x2="90.05" y2="95.81"/></svg>