<svg xmlns="http://www.w3.org/2000/svg" width="585.01" height="62.35" viewBox="0 0 585.01 62.35"><defs><style>.a{fill:#e6e6e6;}.b{fill:#d4145a;}.c{fill:none;}.c,.d{stroke:#000;stroke-miterlimit:1;stroke-width:2px;}.d{fill:#b3b3b3;}</style></defs><title>bom</title><polygon class="a" points="114.56 11.33 117.8 46.96 233.01 46.96 584.01 39.67 584.01 1 114.56 11.33"/><polygon class="b" points="152.63 10.5 117.58 44.62 117.8 46.96 156.56 46.96 195 9.56 152.63 10.5"/><polygon class="b" points="340.15 6.37 292.83 45.72 350.9 44.51 402.68 4.99 340.15 6.37"/><polygon class="b" points="240.73 8.56 191.99 46.96 233.01 46.96 243 46.75 289.25 7.49 240.73 8.56"/><path class="b" d="M584,4.65c-12.22,8.59-39,26.87-52.12,36.1L584,39.67Z"/><path class="b" d="M466.19,3.59c-11.86,9.81-36.09,30-47.56,39.51l60-1.25L527.53,2.24Z"/><polygon class="c" points="114.56 11.33 117.8 46.96 233.01 46.96 584.01 39.67 584.01 1 114.56 11.33"/><path class="d" d="M4,8.33c5-3.25,110.87-5.88,110-3l.55,6c3.94,15.22,5.1,31.7,4.45,49-28.49,1.64-70.91,1-116,0C-.15,44.09.58,26.63,4,8.33Z"/><circle class="c" cx="73.51" cy="38.83" r="6.25"/></svg>