<svg xmlns="http://www.w3.org/2000/svg" width="1140.38" height="164.94" viewBox="0 0 1140.38 164.94"><defs><style>.a{fill:#8e6f6b;}.a,.b,.c,.d,.e,.g,.h{stroke:#000;stroke-miterlimit:1;}.b{fill:#fff1e7;}.c{fill:#77716d;}.d{fill:#39342b;}.e{fill:#4f3d3c;}.f{fill:#9d1c1c;}.g{fill:none;}.h{fill:#241c1c;}.i{fill:#473c42;}</style></defs><title>tog</title><polygon class="a" points="1139.88 20.69 1139.88 102.69 1131.43 102.69 1131.43 20.44 1139.88 20.69"/><polygon class="b" points="1090.38 2.69 1100.88 2.69 1100.88 8.98 1090.38 8.99 1090.38 2.69"/><polygon class="b" points="1114.88 2.69 1114.88 8.99 1131.71 8.94 1131.71 0.5 1114.88 0.5 1114.88 2.69"/><polygon class="c" points="1078.88 113.41 1078.88 140.58 1125.88 140.58 1125.88 112.69 1078.88 113.41"/><path class="d" d="M267.62,164.44c-33.75,0-33.25-47.73-1-47.73C299.87,116.77,298.87,164.44,267.62,164.44Z"/><path class="d" d="M149.38,164.44c-33.75,0-33.25-47.73-1-47.73C181.63,116.77,180.63,164.44,149.38,164.44Z"/><path class="d" d="M177.38,147.94h60c4.71-11.93,16.31-19.91,39.5-21.25l2.5-9.75h-141l1.51,10.48C160.12,126.48,167.13,129.78,177.38,147.94Z"/><path class="d" d="M1052.62,164.44c-33.75,0-33.25-47.73-1-47.73C1084.87,116.77,1083.87,164.44,1052.62,164.44Z"/><path class="d" d="M934.38,164.44c-33.75,0-33.25-47.73-1-47.73C966.63,116.77,965.63,164.44,934.38,164.44Z"/><path class="d" d="M962.38,152.19h60c4.71-13.56,16.31-22.64,39.5-24.16l2.5-11.08h-141l1.51,11.92C945.12,127.79,952.13,131.54,962.38,152.19Z"/><path class="e" d="M909.88,145.86H293.79s-3.88-17.42-3.37-28.89l624,.68C915,127,911.82,136.38,909.88,145.86Z"/><path class="b" d="M135.13,116.69c-19.16.26-33,12.54-43.42,29.17H25C25.67,138.2,20,134,9.71,132.19c-10.78-1.67-11.46-10.82-5.33-25C39.88,37.19,121-.63,208.38.53H877.63c22.75,0,48.67,4.54,56.75,8.67l197.33-.25v92.25c-1,6.36-3.32,12-7.49,16.45l-561.09-.2Z"/><path class="f" d="M548.88,85.69s-7.5,0-7.5,5.25,4.25,5.25,6,5.25,4-4.5,4-4.5-5.75,2.25-5,0,3.5-3.5,3.5-3.5Z"/><path class="f" d="M539.38,85.69q-8.75,4.5-1.5,12l3.5-1.5L538,91.69Z"/><rect class="f" x="557.38" y="85.69" width="574.06" height="10.5"/><path class="f" d="M527.38,85.69v10.5L33.21,95.86c4.61-4.94,10-10.17,21.67-10.17Z"/><path class="g" d="M308.38,116.72V22.19c.09-3.56,1.95-5.48,5.67-5.67h34.67c3.31-.12,4.76,1.53,4.67,4.67l-.12,95.52Z"/><path class="h" d="M321.13,45.07A115.22,115.22,0,0,0,321,71.3c1.88,8.5,19,9,21.58.12a106.89,106.89,0,0,0-.09-26.23C340.19,35.92,323.7,36.18,321.13,45.07Z"/><path class="h" d="M299.63,40.69l.08,33.83h-201C83.18,74.3,66.5,77,49.38,80.86c27.94-19.54,60-35.2,103-40.33Z"/><rect class="h" x="364.88" y="40.53" width="750" height="34.92"/><path class="h" d="M103.79,19.48c-6.42,7.95-18.76,17.66-36.41,29A265.4,265.4,0,0,1,30.46,69.52C51.21,47.59,75.46,30.64,103.79,19.48Z"/><rect class="i" x="257.13" y="44.5" width="39.5" height="27.69"/><rect class="i" x="442.38" y="44.5" width="29" height="27.69"/><rect class="i" x="369.46" y="45.58" width="18.17" height="27.69"/><rect class="i" x="614.38" y="44.5" width="29" height="27.69"/><rect class="i" x="528.38" y="44.25" width="29" height="27.69"/><rect class="i" x="683.38" y="44.5" width="33.5" height="27.69"/><rect class="i" x="774.38" y="44.5" width="36" height="27.69"/><rect class="i" x="865.88" y="44.5" width="36" height="27.69"/><rect class="i" x="963.38" y="44.5" width="145.5" height="27.69"/><rect class="i" x="158.46" y="44.5" width="39.5" height="27.69"/></svg>