<svg xmlns="http://www.w3.org/2000/svg" viewBox="0 0 677.98 723.28"><defs><style>.cls-1{fill:#722611;}.cls-2{fill:#873015;}</style></defs><title>egern-bagfra</title><g id="Layer_2" data-name="Layer 2"><g id="Layer_8" data-name="Layer 8"><path class="cls-1" d="M165.89,699.82c-18,8.77-71.82,38.63-87.38,13.81s39-34,39-34l47.08-3.4Z"/><ellipse class="cls-1" cx="238.45" cy="341.32" rx="56.13" ry="30.34" transform="translate(-166.32 243.74) rotate(-41.51)"/><ellipse class="cls-1" cx="177.69" cy="352.84" rx="26.03" ry="50.68" transform="translate(-211.59 420.2) rotate(-73.09)"/><ellipse class="cls-1" cx="135.88" cy="335.56" rx="23.77" ry="22.2" transform="matrix(0.15, -0.99, 0.99, 0.15, -216.55, 418.39)"/><ellipse class="cls-1" cx="138.33" cy="305.63" rx="3.43" ry="17.47" transform="translate(-152.69 138.74) rotate(-35.82)"/><ellipse class="cls-1" cx="129.12" cy="308.13" rx="3.43" ry="17.47" transform="translate(-155.9 133.83) rotate(-35.82)"/><ellipse class="cls-1" cx="119.91" cy="310.64" rx="3.43" ry="17.47" transform="translate(-159.11 128.91) rotate(-35.82)"/><ellipse class="cls-1" cx="113.05" cy="316.37" rx="3.43" ry="17.47" transform="translate(-163.76 125.98) rotate(-35.82)"/><ellipse class="cls-1" cx="113.37" cy="343.43" rx="4.15" ry="11.56" transform="translate(-238.53 260) rotate(-58.39)"/><ellipse class="cls-2" cx="279.76" cy="507.63" rx="166" ry="208.5"/><path class="cls-1" d="M168.83,620.76c-18.16-8.42-72.55-37.23-87.63-12.11s39.62,33.2,39.62,33.2L168,644.33Z"/><ellipse class="cls-2" cx="214.01" cy="409.13" rx="79" ry="59.5" transform="translate(-244.01 350.76) rotate(-55.12)"/><ellipse class="cls-2" cx="394.01" cy="403.13" rx="59.5" ry="79" transform="translate(-159.74 297.7) rotate(-34.88)"/><ellipse class="cls-2" cx="279.51" cy="654.63" rx="156" ry="55.8"/><ellipse class="cls-2" cx="279.76" cy="521.63" rx="122.5" ry="148.5"/><circle class="cls-2" cx="276.67" cy="191.8" r="127.5"/><ellipse class="cls-2" cx="343.51" cy="247.13" rx="93" ry="79"/><ellipse class="cls-2" cx="213.51" cy="247.13" rx="93" ry="79"/><ellipse class="cls-2" cx="220.51" cy="214.13" rx="58" ry="79"/><ellipse class="cls-2" cx="336.51" cy="214.13" rx="58" ry="79"/><ellipse class="cls-2" cx="280.34" cy="307.13" rx="28.5" ry="33"/><path class="cls-1" d="M158.51,8.13C135.88,7.05,135,12.75,139.17,20c3.68,6.44,11.3,14.14,11.26,19.48,0,.41.09.82.1,1.22,1.73,44.44,15,71.39,24.37,79.54,7.66,6.64,6.38,6.43,10.91,6.75,10.69.74,16.62-6.17,26.58-15.47A124.06,124.06,0,0,1,239.14,92C279.51,70.13,200.51,10.13,158.51,8.13Z"/><path class="cls-1" d="M396,.13c-42,2-121,62-80.64,83.82a124.41,124.41,0,0,1,26.76,19.61c10,9.3,15.89,16.21,26.57,15.47,4.54-.32,3.25-.11,10.91-6.75,9.4-8.15,22.65-35.1,24.38-79.54,0-.4.1-.81.09-1.22,0-5.34,7.59-13,11.27-19.48C419.52,4.75,418.65-.95,396,.13Z"/><ellipse class="cls-2" cx="363.51" cy="256.63" rx="55" ry="42.5"/><ellipse class="cls-2" cx="193.51" cy="256.63" rx="55" ry="42.5"/><ellipse class="cls-1" cx="164.21" cy="424.86" rx="56.13" ry="30.34" transform="translate(-163.58 108.59) rotate(-24.89)"/><ellipse class="cls-1" cx="83.81" cy="415.8" rx="26.03" ry="50.68" transform="translate(-323.1 296.05) rotate(-62.2)"/><ellipse class="cls-1" cx="37.34" cy="376.67" rx="22.2" ry="23.77" transform="translate(-335.22 309.77) rotate(-74.16)"/><ellipse class="cls-1" cx="9.11" cy="366.4" rx="3.43" ry="17.47" transform="translate(-179.37 52.06) rotate(-29.52)"/><ellipse class="cls-1" cx="15.23" cy="359.08" rx="3.43" ry="17.47" transform="translate(-174.96 54.13) rotate(-29.52)"/><ellipse class="cls-1" cx="21.35" cy="351.76" rx="3.43" ry="17.47" transform="translate(-170.56 56.19) rotate(-29.52)"/><ellipse class="cls-1" cx="29.43" cy="347.91" rx="3.43" ry="17.47" transform="translate(-167.62 59.67) rotate(-29.52)"/><ellipse class="cls-1" cx="53.88" cy="359.5" rx="4.15" ry="11.56" transform="translate(-43.08 9.15) rotate(-6.95)"/><path class="cls-1" d="M610.44,17a56.27,56.27,0,0,0-12.82,25.91c-4.82,23.74-9.49,36.47-16.32,44.24C512.21,82.79,441.74,141.67,402.86,232c-1.62,3.78-3.17,7.62-4.68,11.5-77.71,140-140.68,435.36-117.33,452.14,39.66,28.49,38.58,2.54,74.66.49,32.69-1.86,59.54-9.13,81.95-20.08,2.69-.78,6.66-2.89,12.09-6.51a178.48,178.48,0,0,0,35.77-27.86C528.75,598.18,547.59,538,570,496.2,605,431,756.51,104.13,625.65,4.89,616.51-1.87,614.7,12.1,610.44,17"/></g></g></svg>