<svg id="sprite" xmlns="http://www.w3.org/2000/svg" viewBox="0 0 2800 500"><defs><style>.cls-1{fill:red;}.cls-2{fill:#d3c6b2;}.cls-3{fill:#f7eedc;}.cls-4{fill:#d674c4;}.cls-5{fill:#72112b;}.cls-6{fill:#332d2a;}.cls-7{fill:none;stroke:#332d2a;stroke-linecap:round;stroke-miterlimit:10;stroke-width:1.17px;}.cls-8{fill:#ff931e;}.cls-9{fill:#fcee21;}.cls-10{fill:#8cc63f;}.cls-11{fill:#39b54a;}.cls-12{fill:#009245;}.cls-13{fill:#006837;}.cls-14{fill:#29abe2;}</style></defs><title>Animation_Øvelse_Mandag_grundfil</title><rect class="cls-1" x="0.1" y="0.6" width="348.8" height="498.8"/><path d="M348.3,1.2V498.8H.7V1.2H348.3M349.5,0H-.5V500h350V0Z"/><path class="cls-2" d="M165.65,436.59l49.7-41.3s-27.66-10-38.63,10.31c0,0-12.82-48.11-47.14-70.29-1.54,2.42-6.09,5.7-8,7.91C153.75,363.79,160.75,407.89,165.65,436.59Z"/><path class="cls-3" d="M188.62,89.59c-16.73,9.51-61.5,59.53-87.5,157.93S72.57,378.07,15.67,396.33c0,0,1.09,16.53,11.16,28.13,4.8,5.54,18.52,7.73,26.11,9.56C51.94,406.33,36,407,36,407s46.26-27.3,59.52-65.4c11.64-.75,20.14,3.91,38.34-1,5.15-31.62,14.82-60.27,24.48-85,18.65-47.74,31.62-74.52,57.7-84.87,17.15-6.82,30.66-7.3,38.67-18.91C284.48,108.66,227.66,67.4,188.62,89.59Z"/><path class="cls-3" d="M249.15,110.18c1.65-6.6,9.9-24.76,24.76-26.41s54.47,6.6,42.91,24.76-23.11-9.9-36.31-9.9-26.41,16.5-26.41,19.8S249.15,110.18,249.15,110.18Z"/><path class="cls-3" d="M223.38,96.41c0-5,1.65-44.56,26.41-51.17s54.47-5,52.82,8.26-29.71-3.3-47.87,5-19.81,38-19.81,39.62S223.38,96.41,223.38,96.41Z"/><circle class="cls-4" cx="201.29" cy="137.11" r="7.01"/><circle class="cls-4" cx="242.83" cy="151.57" r="7.01"/><path class="cls-5" d="M211.71,123l11.67,8s-5.42,5.89-10.29,2.33S211.71,123,211.71,123Z"/><path class="cls-5" d="M235.75,133.39l14,1.94S247.55,143,241.6,142,235.75,133.39,235.75,133.39Z"/><circle class="cls-6" cx="225.67" cy="141.3" r="2.93"/><path class="cls-7" d="M224.92,143.19l-1.45,5.24s.6,3.65,4.25,3,3.56-3.33,3.56-3.33"/><path class="cls-7" d="M224.9,143.18l-1.77,5.14s-2.56,2.68-5.23.11-.92-4.71-.92-4.71"/><path class="cls-4" d="M129.11,264.12c6.6,1.65,6.6,16.5-1.65,29.71s5,23.11-6.61,26.41S94.44,315.29,106,285.57,129.11,264.12,129.11,264.12Z"/><path class="cls-2" d="M103.33,252.05s0,15.13,10.38,23.41C139.55,296,164.06,264.68,164.86,288c.71,20.43-67.73,20.06-68.28-31.76Z"/><rect class="cls-8" x="350.6" y="0.6" width="348.8" height="498.8"/><path d="M698.8,1.2V498.8H351.2V1.2H698.8M700,0H350V500H700V0Z"/><path class="cls-2" d="M512.93,248s-14.79-3.13-25,5.36c-25.42,21.08.24,51.49-22.78,47.5-20.14-3.5-5.75-70.41,45.09-60.33Z"/><path class="cls-2" d="M476,378.06l53.09,31.14s0-28-21.74-31.26a149.59,149.59,0,0,0,34.12-35.09C514.44,335,492,317.5,492,317.5l-10.86,14A256.32,256.32,0,0,0,518.32,350C504.64,362,488.55,371,476,378.06Z"/><path class="cls-3" d="M546.78,77c-16.73,9.51-61.5,59.53-87.5,157.93S434.05,369.74,385.44,408c0,0,11.63,16.63,22.63,27.35,8.37,8.15,26.78,1.82,34.37,3.65-32-17.5-28.19-31.31-28.19-31.31s22.19-23.69,34-65.06c11.64-.75,25.6-9.72,43.8-14.6,5.15-31.62,14.82-60.28,24.47-85,18.66-47.74,31.63-74.52,57.71-84.87,17.15-6.82,30.66-7.3,38.67-18.92C642.64,96.09,585.82,54.82,546.78,77Z"/><path class="cls-3" d="M607.31,97.61c1.65-6.6,9.9-24.76,24.76-26.41S686.54,77.8,675,96s-23.11-9.9-36.31-9.9-26.41,16.5-26.41,19.8S607.31,97.61,607.31,97.61Z"/><path class="cls-3" d="M581.54,83.84c0-5,1.65-44.56,26.41-51.17s54.47-5,52.82,8.26-29.71-3.3-47.87,5-19.81,38-19.81,39.61S581.54,83.84,581.54,83.84Z"/><circle class="cls-4" cx="559.45" cy="124.53" r="7.01"/><circle class="cls-4" cx="600.99" cy="139" r="7.01"/><path class="cls-5" d="M569.87,110.45l11.66,8s-5.41,5.89-10.28,2.33S569.87,110.45,569.87,110.45Z"/><path class="cls-5" d="M593.91,120.82l14,1.94s-2.21,7.69-8.16,6.68S593.91,120.82,593.91,120.82Z"/><circle class="cls-6" cx="583.83" cy="128.73" r="2.93"/><path class="cls-7" d="M583.08,130.62l-1.45,5.24s.6,3.65,4.25,3,3.56-3.33,3.56-3.33"/><path class="cls-7" d="M583.05,130.61l-1.76,5.14s-2.56,2.67-5.23.11-.92-4.71-.92-4.71"/><path class="cls-4" d="M487.27,251.55c6.6,1.65,6.6,16.5-1.65,29.71s4.95,23.11-6.61,26.41S452.6,302.72,464.16,273,487.27,251.55,487.27,251.55Z"/><path class="cls-2" d="M456.82,239.53s6,13.86,18.9,17.27c31.92,8.46,41.79-30.09,51.89-9,8.85,18.43-54,45.56-75.29-1.68Z"/><rect class="cls-9" x="700.6" y="0.6" width="348.8" height="498.8"/><path d="M1048.8,1.2V498.8H701.2V1.2h347.6M1050,0H700V500h350V0Z"/><path class="cls-2" d="M801,375.06l20.44,48.44s5.56-22-7-38c0,0,12.45,10.47,34.23,14-10.56-30.31-3.23-76-3.23-76l-24.26,19,11,41.5S827,384.5,801,375.06Z"/><path class="cls-3" d="M897.78,83c-16.73,9.51-61.5,59.53-87.5,157.93S774.94,379.5,757.94,438c0,0,55.91-4.83,63.5-3-27.5-22.5-42-13.5-42-13.5s11-29.5,19.79-72.87C811,344,820.94,341.5,843,340.5c5.15-31.62,14.82-66.75,24.47-91.46,18.66-47.74,31.63-74.52,57.71-84.87,17.15-6.82,30.66-7.3,38.67-18.92C993.64,102.09,936.82,60.82,897.78,83Z"/><path class="cls-3" d="M958.31,103.61c1.65-6.6,9.9-24.76,24.76-26.41S1037.54,83.8,1026,102s-23.11-9.9-36.31-9.9-26.41,16.5-26.41,19.8S958.31,103.61,958.31,103.61Z"/><path class="cls-3" d="M932.54,89.84c0-5,1.65-44.56,26.41-51.17s54.47-5,52.82,8.26-29.71-3.3-47.87,5-19.81,38-19.81,39.61S932.54,89.84,932.54,89.84Z"/><circle class="cls-4" cx="910.45" cy="130.53" r="7.01"/><circle class="cls-4" cx="951.99" cy="145" r="7.01"/><path class="cls-5" d="M920.87,116.45l11.66,8s-5.41,5.89-10.28,2.33S920.87,116.45,920.87,116.45Z"/><path class="cls-5" d="M944.91,126.82l14,1.94s-2.21,7.69-8.16,6.68S944.91,126.82,944.91,126.82Z"/><circle class="cls-6" cx="934.83" cy="134.73" r="2.93"/><path class="cls-7" d="M934.08,136.62l-1.45,5.24s.6,3.65,4.25,3,3.56-3.33,3.56-3.33"/><path class="cls-7" d="M934.05,136.61l-1.76,5.14s-2.56,2.67-5.23.11-.92-4.71-.92-4.71"/><path class="cls-4" d="M838.27,257.55c6.6,1.65,6.6,16.5-1.65,29.71s5,23.11-6.61,26.41S803.6,308.72,815.16,279,838.27,257.55,838.27,257.55Z"/><path class="cls-2" d="M812.45,260.65s-14.12,5.4-18.11,18.1c-9.9,31.5,28.16,43.11,6.66,52.25-18.81,8-43.06-56,5.1-75.14Z"/><path class="cls-2" d="M831.35,277.09s.79,15.11,11.64,22.81c26.92,19.12,49.69-13.51,51.76,9.75,1.82,20.36-66.54,23.73-69.92-28Z"/><rect class="cls-10" x="1050.6" y="0.6" width="348.8" height="498.8"/><path d="M1398.8,1.2V498.8H1051.2V1.2h347.6M1400,0H1050V500h350V0Z"/><path class="cls-2" d="M1200.58,285.34s10.51,10.88,23.75,9.57c32.86-3.25,28.62-42.82,45.45-26.63,14.74,14.17-34.62,61.58-71.11,24.78Z"/><path class="cls-2" d="M1118.5,363.3l-15.06,55.45s28-16.5,21.62-39.76c0,0,31.77,9.81,52.63,21.26,5.72-31.59,12.75-56,12.75-56l-28.14-.92,3.39,36.18S1143,371.75,1118.5,363.3Z"/><path class="cls-3" d="M1247.78,90c-16.73,9.51-73.16,76-99.17,174.39-25.78,75.59,35.25,102.82,35.7,170.75,0,0,56.54-1.83,64.13,0-27.5-22.5-42.63-16.5-42.63-16.5l-34.87-70.16a174.13,174.13,0,0,0,17.5,4.5c5.15-31.62,19.41-72.25,29.06-97,18.66-47.74,31.63-74.52,57.71-84.87,17.15-6.82,30.66-7.3,38.67-18.92C1343.64,109.09,1286.82,67.82,1247.78,90Z"/><path class="cls-3" d="M1308.31,110.61c1.65-6.6,9.9-24.76,24.76-26.41S1387.54,90.8,1376,109s-23.11-9.9-36.31-9.9-26.41,16.5-26.41,19.8S1308.31,110.61,1308.31,110.61Z"/><path class="cls-3" d="M1282.54,96.84c0-5,1.65-44.56,26.41-51.17s54.47-5,52.82,8.26-29.71-3.3-47.87,5-19.81,38-19.81,39.61S1282.54,96.84,1282.54,96.84Z"/><circle class="cls-4" cx="1260.45" cy="137.53" r="7.01"/><circle class="cls-4" cx="1301.99" cy="152" r="7.01"/><path class="cls-5" d="M1270.87,123.45l11.66,8s-5.41,5.89-10.28,2.33S1270.87,123.45,1270.87,123.45Z"/><path class="cls-5" d="M1294.91,133.82l14,1.94s-2.21,7.69-8.16,6.68S1294.91,133.82,1294.91,133.82Z"/><circle class="cls-6" cx="1284.83" cy="141.73" r="2.93"/><path class="cls-7" d="M1284.08,143.62l-1.45,5.24s.6,3.65,4.25,3,3.56-3.33,3.56-3.33"/><path class="cls-7" d="M1284.05,143.61l-1.76,5.14s-2.56,2.67-5.23.11-.92-4.71-.92-4.71"/><path class="cls-4" d="M1188.27,264.55c6.6,1.65,6.6,16.5-1.65,29.71s5,23.11-6.61,26.41-26.41-4.95-14.85-34.67S1188.27,264.55,1188.27,264.55Z"/><path class="cls-2" d="M1148.63,280.87s-9.58-11.7-22.89-11.49c-33,.52-32,40.3-47.49,22.78-13.52-15.34,39.59-58.51,72.92-18.83Z"/><rect class="cls-11" x="1400.6" y="0.6" width="348.8" height="498.8"/><path d="M1748.8,1.2V498.8H1401.2V1.2h347.6M1750,0H1400V500h350V0Z"/><path class="cls-2" d="M1552.48,275.58s11.72,9.58,24.71,6.73c32.26-7.07,23.41-45.87,42-31.76,16.29,12.35-27.19,65.2-67.73,32.93Z"/><path class="cls-2" d="M1429.94,395.83s15,29.84,24,33.5,38.17,0,38.17,0-35.12-2.74-41.5-26c0,0,44.4-8.09,82.24-67.59-12.34-5.83-9.07-.15-21.87-1.16C1507.61,346.5,1454.94,399.5,1429.94,395.83Z"/><path class="cls-3" d="M1597.78,83c-16.73,9.51-73.16,76-99.17,174.39-35.17,86.09,51,118.76,101.83,175.59,0,0,12.69-40.2,26-64.5-31,.5-28,38-28,38s-54-49-61.77-57.52c13-31,19.11-76.78,28.77-101.49,18.65-47.74,33.69-73,59.77-83.32,17.15-6.82,30.66-7.3,38.67-18.92C1693.64,102.09,1636.82,60.82,1597.78,83Z"/><path class="cls-3" d="M1658.31,103.61c1.65-6.6,9.9-24.76,24.76-26.41S1737.54,83.8,1726,102s-23.11-9.9-36.31-9.9-26.41,16.5-26.41,19.8S1658.31,103.61,1658.31,103.61Z"/><path class="cls-3" d="M1632.54,89.84c0-5,1.65-44.56,26.41-51.17s54.47-5,52.82,8.26-29.71-3.3-47.87,5-19.81,38-19.81,39.61S1632.54,89.84,1632.54,89.84Z"/><circle class="cls-4" cx="1610.45" cy="130.53" r="7.01"/><circle class="cls-4" cx="1651.99" cy="145" r="7.01"/><path class="cls-5" d="M1620.87,116.45l11.66,8s-5.41,5.89-10.28,2.33S1620.87,116.45,1620.87,116.45Z"/><path class="cls-5" d="M1644.91,126.82l14,1.94s-2.21,7.69-8.16,6.68S1644.91,126.82,1644.91,126.82Z"/><circle class="cls-6" cx="1634.83" cy="134.73" r="2.93"/><path class="cls-7" d="M1634.08,136.62l-1.45,5.24s.6,3.65,4.25,3,3.56-3.33,3.56-3.33"/><path class="cls-7" d="M1634.05,136.61l-1.76,5.14s-2.56,2.67-5.23.11-.92-4.71-.92-4.71"/><path class="cls-4" d="M1538.27,257.55c6.6,1.65,6.6,16.5-1.65,29.71s5,23.11-6.61,26.41-26.41-4.95-14.85-34.67S1538.27,257.55,1538.27,257.55Z"/><path class="cls-2" d="M1500.11,275.3s-11.26-10.09-24.38-7.84c-32.54,5.6-25.47,44.75-43.42,29.82-15.72-13.08,30.12-63.9,69.16-29.82Z"/><rect class="cls-12" x="1748.49" y="0.6" width="348.8" height="498.8"/><path d="M2096.69,1.2V498.8h-347.6V1.2h347.6m1.2-1.2h-350V500h350V0Z"/><path class="cls-2" d="M1901.85,271.55s5.43,14.12,18.14,18.08c31.51,9.84,43-28.24,52.23-6.77,8,18.8-55.91,43.18-75.15-4.95Z"/><path class="cls-2" d="M1839.46,408s17.2,25,26.2,28.67,40,2.33,40,2.33-18.33-11-42.33-25c0,0,2-11.67,24-80.93-12.34-5.84-13-.48-25.83-1.49C1858.13,343.5,1852,384.83,1839.46,408Z"/><path class="cls-3" d="M1945.67,78c-16.73,9.51-73.17,76-99.17,174.39-26.31,64.39,2.85,127.92,84.27,96.26C1922.33,365,1912.7,374,1903.33,398c0,0,34.34.62,62.1,3-23.1-13-40.63-14.18-40.63-14.18l23.86-56.55s-58.05,6.37-61.33,2.77c9.74-35.07,16.84-66.85,26.5-91.57,18.65-47.74,33.19-72,59.27-82.33,17.15-6.82,30.66-7.3,38.66-18.92C2041.53,97.09,1984.71,55.82,1945.67,78Z"/><path class="cls-3" d="M2006.19,98.61c1.65-6.6,9.91-24.76,24.76-26.41s54.47,6.6,42.92,24.76-23.11-9.9-36.31-9.9-26.41,16.5-26.41,19.8S2006.19,98.61,2006.19,98.61Z"/><path class="cls-3" d="M1980.42,84.84c0-5,1.66-44.56,26.41-51.17s54.48-5,52.83,8.26-29.72-3.3-47.87,5S1992,84.84,1992,86.49,1980.42,84.84,1980.42,84.84Z"/><circle class="cls-4" cx="1958.33" cy="125.53" r="7.01"/><circle class="cls-4" cx="1999.87" cy="140" r="7.01"/><path class="cls-5" d="M1968.76,111.45l11.66,8s-5.41,5.89-10.28,2.33S1968.76,111.45,1968.76,111.45Z"/><path class="cls-5" d="M1992.8,121.82l14,1.94s-2.21,7.69-8.16,6.68S1992.8,121.82,1992.8,121.82Z"/><circle class="cls-6" cx="1982.72" cy="129.73" r="2.93"/><path class="cls-7" d="M1982,131.62l-1.45,5.24s.6,3.65,4.25,3,3.55-3.33,3.55-3.33"/><path class="cls-7" d="M1981.94,131.61l-1.76,5.14s-2.56,2.67-5.24.11-.92-4.71-.92-4.71"/><path class="cls-4" d="M1886.15,252.55c6.61,1.65,6.61,16.5-1.65,29.71s5,23.11-6.6,26.41-26.41-4.95-14.85-34.67S1886.15,252.55,1886.15,252.55Z"/><path class="cls-2" d="M1850.12,264.64s-15-2.16-24.64,7c-24,22.68,3.58,51.37-19.64,48.87-20.33-2.18-10.32-69.88,41.06-63.13Z"/><rect class="cls-13" x="2098.49" y="0.6" width="348.8" height="498.8"/><path d="M2446.69,1.2V498.8h-347.6V1.2h347.6m1.2-1.2h-350V500h350V0Z"/><path class="cls-2" d="M2233.74,440.33l61.51-2.09s-15-23.7-35.09-14.79c0,0,2.37-50-10.52-86.75-2.58.92-13.17.73-15.9,1.28C2246,372.24,2239.33,414.39,2233.74,440.33Z"/><path class="cls-3" d="M2295.67,85.07c-16.73,9.51-73.17,76-99.17,174.39-18,52.82-.51,85.93,61.16,129.05-30.33,0-29.59-4-48.79-8.46,0,0-6,60.28,5.46,65,10.56-21.33,6.66-38.66,2.66-50,45,10,69.67,0,69.67,0L2231,343.72s11-7.41,19.67-5.74c-2-37.2,4.18-74.79,13.84-99.5,18.65-47.74,32.52-61.9,58.6-72.26,17.15-6.81,30.66-7.3,38.66-18.91C2391.53,104.14,2334.71,62.88,2295.67,85.07Z"/><path class="cls-3" d="M2356.19,105.66c1.65-6.6,9.91-24.76,24.76-26.41s54.47,6.61,42.92,24.76-23.11-9.9-36.31-9.9-26.41,16.51-26.41,19.81S2356.19,105.66,2356.19,105.66Z"/><path class="cls-3" d="M2330.42,91.9c0-5,1.66-44.57,26.41-51.17s54.48-4.95,52.83,8.25-29.72-3.3-47.87,5S2342,91.9,2342,93.55,2330.42,91.9,2330.42,91.9Z"/><circle class="cls-4" cx="2308.33" cy="132.59" r="7.01"/><circle class="cls-4" cx="2349.87" cy="147.05" r="7.01"/><path class="cls-5" d="M2318.76,118.51l11.66,8s-5.41,5.89-10.28,2.32S2318.76,118.51,2318.76,118.51Z"/><path class="cls-5" d="M2342.8,128.88l14,1.94s-2.21,7.69-8.16,6.67S2342.8,128.88,2342.8,128.88Z"/><circle class="cls-6" cx="2332.72" cy="136.78" r="2.93"/><path class="cls-7" d="M2332,138.67l-1.45,5.24s.6,3.65,4.25,3.05,3.55-3.33,3.55-3.33"/><path class="cls-7" d="M2331.94,138.66l-1.76,5.15s-2.56,2.67-5.24.11-.92-4.72-.92-4.72"/><path class="cls-4" d="M2236.15,259.6c6.61,1.65,6.61,16.51-1.65,29.71s5,23.11-6.6,26.41-26.41-5-14.85-34.66S2236.15,259.6,2236.15,259.6Z"/><path class="cls-2" d="M2202.89,269.07s-14.66,3.74-20.09,15.88c-13.48,30.15,23,46.08.57,52.68-19.61,5.76-36.29-60.61,13.76-74.05Z"/><rect class="cls-14" x="2448.49" y="0.6" width="348.8" height="498.8"/><path d="M2796.69,1.2V498.8h-347.6V1.2h347.6m1.2-1.2h-350V500h350V0Z"/><path class="cls-2" d="M2583.74,438.27l61.51-2.09s-15-23.69-35.09-14.78c0,0,23.67-25.4,17.23-44.27-6.59-19.29-15.68-28.49-25.75-36.49-2.58.92-13.17.73-15.9,1.29,6.11,17.13,26.25,26.9,25.42,45S2595,426.33,2583.74,438.27Z"/><path class="cls-3" d="M2645.67,94c-16.73,9.51-67,55-93,153.39-14.6,40.14-31,87.92,16.34,139.26-11.83,28.53-25.33-24-50.79-29,0,0-16.64,69.6-5.21,74.33,10.67-10,20-42,16-53.33,24.67,36,35.19,43.18,35.19,43.18l13.34-43s26.15-30.07,34.82-28.4c-19-33.22-15.91-67.75-6.25-92.47,18.65-47.74,40.93-72.48,67-82.83,17.15-6.82,30.66-7.3,38.66-18.92C2741.53,113.09,2684.71,71.82,2645.67,94Z"/><path id="Oere2" class="cls-3" d="M2706.19,114.61c1.65-6.6,9.91-24.76,24.76-26.41s54.47,6.6,42.92,24.76-23.11-9.9-36.31-9.9-26.41,16.5-26.41,19.8S2706.19,114.61,2706.19,114.61Z"/><path id="oere" class="cls-3" d="M2680.42,100.84c0-5,1.66-44.56,26.41-51.17s54.48-5,52.83,8.26-29.72-3.3-47.87,5-19.81,38-19.81,39.61S2680.42,100.84,2680.42,100.84Z"/><g id="ansigt"><circle class="cls-4" cx="2658.33" cy="141.53" r="7.01"/><circle class="cls-4" cx="2699.87" cy="156" r="7.01"/><path class="cls-5" d="M2668.76,127.45l11.66,8s-5.41,5.89-10.28,2.33S2668.76,127.45,2668.76,127.45Z"/><path class="cls-5" d="M2692.8,137.82l14,1.94s-2.21,7.69-8.16,6.68S2692.8,137.82,2692.8,137.82Z"/><circle class="cls-6" cx="2682.72" cy="145.73" r="2.93"/><path class="cls-7" d="M2682,147.62l-1.45,5.24s.6,3.65,4.25,3,3.55-3.33,3.55-3.33"/><path class="cls-7" d="M2681.94,147.61l-1.76,5.14s-2.56,2.67-5.24.11-.92-4.71-.92-4.71"/></g><path id="mave" class="cls-4" d="M2586.15,268.55c6.61,1.65,6.61,16.5-1.65,29.71s5,23.11-6.6,26.41-26.41-4.95-14.85-34.67S2586.15,268.55,2586.15,268.55Z"/><path id="arm" class="cls-2" d="M2556.89,270.36s-9.08,12.1-5.7,25c8.4,31.93,46.8,21.49,33.47,40.68-11.66,16.79-66.27-24.47-35.7-66.32Z"/></svg>
