<svg xmlns="http://www.w3.org/2000/svg" viewBox="0 0 539.73 719.08"><defs><style>.cls-1{fill:#d34226;}.cls-2{fill:#ed4a24;}.cls-3{fill:#dd998c;}.cls-4{fill:#ba3a20;}.cls-5{fill:#ff7955;}.cls-6{fill:#fff;}</style></defs><title>Asset 17</title><g id="Layer_2" data-name="Layer 2"><g id="Layer_3" data-name="Layer 3"><path class="cls-1" d="M250.25,551.75c6,36.33-29,131.33-17,149.33s28,7,36,7,30-11,0-15-3-42-3-42l36-100Z"/><path class="cls-2" d="M415.24,516.08c-2,24,1,119-10,148s10,31,10,31,27,2,16,11-42,0-42,0-32-6-24-17,6-152,6-152Z"/><path class="cls-2" d="M520,423.87c5.21,7.21,21.21,203.21-16.79,269.21,5,3,28,1,25,11s-21,15-21,15l-27-6-5-39-10-115,5-57Z"/><path class="cls-1" d="M188.24,514.08c20-7,77,19,41,52s-41,96-41,96,1,26,12,31,15,23-12,20-30-11-30-20S188.24,514.08,188.24,514.08Z"/><rect class="cls-2" x="163" y="325.73" width="353.6" height="235.56" rx="70.02" ry="70.02" transform="translate(52.99 -35.97) rotate(6.57)"/><path class="cls-2" d="M207.41,69.23l-8.17,46.85-41-53-19,69-63-51v62l-70.07-35c-15.5,65.41-.47,122.94,30.07,143,38,25,158,104,158,104l21-11c-8-18-9-150,0-165C221.15,169.23,229.22,112.76,207.41,69.23Z"/><path class="cls-3" d="M76.24,81.08l63,51,19-69,41,53,8.17-46.85C196,46.5,176.48,27.29,144.24,20.08c-94-21-82-45-121,39a256.93,256.93,0,0,0-17.07,49l70.07,35Z"/><polygon class="cls-2" points="539.38 169.72 533.72 217.68 528.07 265.63 501.81 253.91 475.55 242.19 507.46 205.96 539.38 169.72"/><polygon class="cls-2" points="334.64 169.8 366.7 205.91 398.75 242.01 372.54 253.84 346.33 265.66 340.49 217.73 334.64 169.8"/><polygon class="cls-4" points="382.06 230.45 365.65 238.76 349.24 247.08 349.16 226.57 349.08 206.06 365.57 218.25 382.06 230.45"/><polygon class="cls-4" points="522.55 251.37 506.46 242.44 490.38 233.5 507.32 221.94 524.27 210.39 523.41 230.88 522.55 251.37"/><path class="cls-3" d="M536.24,344.08H452A81.05,81.05,0,0,0,469.83,419l15.91-17.95Z"/><path class="cls-3" d="M539.73,313.08a130.73,130.73,0,0,0-3.17-28.73c-2.09-.16-4.19-.27-6.32-.27a81,81,0,0,0-78.24,60h84A130.15,130.15,0,0,0,539.73,313.08Z"/><path class="cls-2" d="M435.48,196.08c-49.11,0-90.28,38.12-101.32,89.42a81,81,0,0,1,93.31,58.58H452a81,81,0,0,1,78.24-60c2.13,0,4.23.11,6.32.27C525.15,233.63,484.22,196.08,435.48,196.08Z"/><path class="cls-3" d="M384.74,401.08l20.19,22.79a80.95,80.95,0,0,0,22.54-79.79H334.24Z"/><path class="cls-3" d="M349.24,284.08a81.42,81.42,0,0,0-15.08,1.42,131.71,131.71,0,0,0,.78,58.58h92.53A81,81,0,0,0,349.24,284.08Z"/><path class="cls-2" d="M465.24,424.08v.14l4.59-5.19A81.05,81.05,0,0,1,452,344.08H427.47a80.95,80.95,0,0,1-22.54,79.79l.31.35v-.14Z"/><polygon points="465.24 424.08 405.24 424.08 405.24 424.22 435.24 458.08 465.24 424.22 465.24 424.08"/><circle class="cls-5" cx="402.24" cy="351.08" r="18"/><circle cx="401.85" cy="350.69" r="14.48"/><circle class="cls-6" cx="406.93" cy="344.04" r="7.04"/><circle class="cls-6" cx="413.19" cy="352.65" r="2.35"/><circle class="cls-5" cx="475.24" cy="351.08" r="18"/><circle cx="474.85" cy="350.69" r="14.48"/><circle class="cls-6" cx="479.93" cy="344.04" r="7.04"/><circle class="cls-6" cx="486.19" cy="352.65" r="2.35"/></g></g></svg>
