<svg xmlns="http://www.w3.org/2000/svg" viewBox="0 0 376.43 105.48"><defs><style>.cls-1{isolation:isolate;}.cls-2,.cls-3{fill:#346d29;}.cls-3,.cls-7,.cls-9{mix-blend-mode:screen;}.cls-4{fill:#3aa025;}.cls-5{fill:#266718;}.cls-6,.cls-7{fill:#122d0b;}.cls-8,.cls-9{fill:#234d1a;}</style></defs><title>graes2</title><g class="cls-1"><g id="Layer_2" data-name="Layer 2"><g id="Layer_6" data-name="Layer 6"><path class="cls-2" d="M90.69,62.78c-1.06-3.06-2.07-6.12-2.9-9.25s-1.54-6.28-2.19-9.45l0,.1c1.87,12.83,7.57,24.7,9.43,37.54h0l.76-.14c-.66-3.18-1.36-6.36-2.2-9.5S91.76,65.84,90.69,62.78Z" transform="translate(-0.23)"/><path class="cls-3" d="M90,63c-.94-3.1-1.83-6.23-2.54-9.39s-1.29-6.35-1.81-9.55l0,.1c1.87,12.83,7.57,24.7,9.43,37.54h0l-.75.14c-.53-3.19-1.1-6.36-1.81-9.5S90.9,66.12,90,63Z" transform="translate(-0.23)"/><path class="cls-2" d="M114.34,63.93c-1.07-3-2.07-6.12-2.9-9.24s-1.54-6.28-2.19-9.46v.1c1.88,12.83,7.57,24.7,9.43,37.54h0l.76-.14c-.65-3.18-1.35-6.36-2.2-9.5S115.4,67,114.34,63.93Z" transform="translate(-0.23)"/><path class="cls-3" d="M113.6,64.17c-.94-3.1-1.83-6.22-2.54-9.39s-1.29-6.35-1.82-9.55l0,.1c1.88,12.83,7.57,24.7,9.43,37.54h0l-.76.14c-.52-3.18-1.09-6.36-1.8-9.5S114.54,67.27,113.6,64.17Z" transform="translate(-0.23)"/><path class="cls-2" d="M136.61,65.34c-1-3.08-1.91-6.16-2.7-9.3s-1.49-6.28-2.13-9.45v.09c2,12.79,7,24.85,8.91,37.64h0l.75-.14c-.65-3.18-1.33-6.35-2.13-9.5S137.59,68.43,136.61,65.34Z" transform="translate(-0.23)"/><path class="cls-3" d="M135.87,65.56c-.86-3.12-1.67-6.26-2.34-9.43s-1.24-6.35-1.76-9.54l0,.09c2,12.79,7,24.85,8.91,37.64h0l-.75.13c-.52-3.18-1.08-6.35-1.75-9.5S136.72,68.68,135.87,65.56Z" transform="translate(-0.23)"/><path class="cls-2" d="M152.77,63.69a122.5,122.5,0,0,1-3.61-14v.07c1.46,9.55,5.21,18.55,6.66,28.11h0l.57-.11A121.35,121.35,0,0,0,152.77,63.69Z" transform="translate(-0.23)"/><path class="cls-3" d="M152.22,63.85a120.37,120.37,0,0,1-3.06-14.17v.07c1.46,9.55,5.21,18.55,6.66,28.11h0l-.57.1A119.33,119.33,0,0,0,152.22,63.85Z" transform="translate(-0.23)"/><path class="cls-2" d="M168.9,62.07a81.57,81.57,0,0,0-1.4-9.47v0c1.3,6.25,1.11,12.69,2.41,18.94h0l.37-.07A83.24,83.24,0,0,1,168.9,62.07Z" transform="translate(-0.23)"/><path class="cls-3" d="M168.52,62.1a82.07,82.07,0,0,0-1-9.5v0c1.3,6.25,1.11,12.69,2.41,18.94h0l-.38.07A82.93,82.93,0,0,1,168.52,62.1Z" transform="translate(-0.23)"/><path class="cls-4" d="M188.33,69.13c-2.62-14.53-1.11-14.8-3.73-29.33" transform="translate(-0.23)"/><path class="cls-4" d="M208.81,66.31c-3.54-19.65-4.52-19.47-8.07-39.13" transform="translate(-0.23)"/><path class="cls-5" d="M157.87,77.8c-3.05-16.94-3.9-16.79-7-33.73" transform="translate(-0.23)"/><path class="cls-6" d="M154.92,60.81c-1.5-5.54-2.81-11.12-4-16.74v.09c1.89,11.3,5,22.34,6.94,33.64h0l1.06-.19C157.74,72,156.42,66.36,154.92,60.81Z" transform="translate(-0.23)"/><path class="cls-7" d="M153.86,61.06c-1.15-5.63-2.11-11.31-3-17l0,.09c1.89,11.3,5,22.34,6.94,33.64h0l-1.06.19C156,72.32,155,66.68,153.86,61.06Z" transform="translate(-0.23)"/><path class="cls-6" d="M108.08,89.08c-2.57-14.23-4.21-13.93-6.77-28.16" transform="translate(-0.23)"/><path class="cls-6" d="M105,74.92a112.52,112.52,0,0,1-3.66-14V61c1.44,9.56,5.33,18.53,6.76,28.09h0l.57-.1A114.82,114.82,0,0,0,105,74.92Z" transform="translate(-0.23)"/><path class="cls-7" d="M104.42,75.08a112.48,112.48,0,0,1-3.12-14.16l0,.07c1.44,9.56,5.33,18.53,6.76,28.09h0l-.57.1A113.64,113.64,0,0,0,104.42,75.08Z" transform="translate(-0.23)"/><path class="cls-6" d="M84.9,90.08c-2.68-14.83-4.39-14.52-7.06-29.35" transform="translate(-0.23)"/><path class="cls-6" d="M81.66,75.32a116.32,116.32,0,0,1-3.82-14.59v.08c1.5,10,5.55,19.31,7.05,29.27h0l.59-.1A117.4,117.4,0,0,0,81.66,75.32Z" transform="translate(-0.23)"/><path class="cls-7" d="M81.08,75.49a116.69,116.69,0,0,1-3.24-14.76v.08c1.5,10,5.55,19.31,7.05,29.27h0l-.59.11A119.72,119.72,0,0,0,81.08,75.49Z" transform="translate(-0.23)"/><path class="cls-6" d="M56.64,76.11c-.21-2.62-.45-5.24-.83-7.83S55,63.1,54.46,60.53v.07C56.64,70.87,56,81.46,58.19,91.72h0l.62-.11A118.93,118.93,0,0,1,56.64,76.11Z" transform="translate(-0.23)"/><path class="cls-7" d="M56,76.14a118.57,118.57,0,0,0-1.55-15.61v.07C56.64,70.87,56,81.46,58.19,91.72h0l-.61.12c-.41-2.6-.78-5.21-1-7.83S56.11,78.76,56,76.14Z" transform="translate(-0.23)"/><path class="cls-6" d="M64.86,74.69c-.2-2.62-.45-5.24-.82-7.83s-.85-5.18-1.35-7.75v.07C64.86,69.45,64.24,80,66.42,90.3h0l.61-.11A118.93,118.93,0,0,1,64.86,74.69Z" transform="translate(-0.23)"/><path class="cls-7" d="M64.24,74.72a118.58,118.58,0,0,0-1.56-15.61l0,.07C64.86,69.45,64.24,80,66.42,90.3h0l-.61.11c-.4-2.59-.78-5.2-1-7.82S64.34,77.34,64.24,74.72Z" transform="translate(-0.23)"/><path class="cls-6" d="M73.51,73.2c-.11-2.62-.26-5.26-.59-7.87s-.79-5.2-1.29-7.77v.07c2.27,10.29.84,20.95,3.12,31.23h0l.61-.11c-.5-2.56-1-5.14-1.28-7.73S73.61,75.83,73.51,73.2Z" transform="translate(-0.23)"/><path class="cls-7" d="M72.88,73.22c0-2.63,0-5.24-.28-7.86s-.57-5.21-1-7.8v.07c2.27,10.29.84,20.95,3.12,31.23h0l-.62.11c-.4-2.6-.76-5.22-1-7.85S72.88,75.84,72.88,73.22Z" transform="translate(-0.23)"/><path class="cls-6" d="M113.73,68.5c-.09-2.34-.23-4.69-.53-7s-.69-4.63-1.14-6.93v.07c2,9.16.74,18.65,2.77,27.81h0l.54-.1c-.44-2.28-.85-4.57-1.14-6.88S113.82,70.83,113.73,68.5Z" transform="translate(-0.23)"/><path class="cls-7" d="M113.17,68.51c0-2.34,0-4.67-.25-7s-.51-4.65-.86-7v.07c2,9.16.74,18.65,2.77,27.81h0l-.54.1c-.36-2.32-.68-4.65-.88-7S113.17,70.85,113.17,68.51Z" transform="translate(-0.23)"/><path class="cls-6" d="M153.7,63.77a80.32,80.32,0,0,1-3.24-11.84V52c1.18,8.13,4.82,15.63,6,23.76h0l.48-.09A81,81,0,0,0,153.7,63.77Z" transform="translate(-0.23)"/><path class="cls-7" d="M153.23,63.92a81.06,81.06,0,0,1-2.77-12V52c1.18,8.13,4.82,15.63,6,23.76h0l-.48.09A79.82,79.82,0,0,0,153.23,63.92Z" transform="translate(-0.23)"/><path class="cls-8" d="M154.64,58.29c-.87-2.49-1.7-5-2.38-7.54S151,45.62,150.47,43v.08c1.53,10.48,6.22,20.16,7.73,30.64h0l.62-.11c-.53-2.6-1.1-5.19-1.79-7.76S155.52,60.79,154.64,58.29Z" transform="translate(-0.23)"/><path class="cls-9" d="M154,58.49c-.77-2.53-1.51-5.08-2.09-7.66s-1-5.19-1.48-7.8v.08c1.53,10.48,6.22,20.16,7.73,30.64h0l-.62.12c-.42-2.6-.89-5.19-1.47-7.76S154.81,61,154,58.49Z" transform="translate(-0.23)"/><path class="cls-2" d="M157.18,52.52c-1.18-3-2.29-6.05-3.17-9.17s-1.62-6.27-2.27-9.45V34c1.77,12.91,8.39,24.5,10.14,37.41h0l.76-.14c-.66-3.19-1.38-6.37-2.28-9.51S158.36,55.54,157.18,52.52Z" transform="translate(-0.23)"/><path class="cls-3" d="M156.45,52.79c-1.06-3.07-2.06-6.18-2.82-9.34s-1.37-6.35-1.9-9.55l0,.1c1.77,12.91,8.39,24.5,10.14,37.41h0l-.76.14c-.53-3.19-1.11-6.36-1.88-9.49S157.51,55.85,156.45,52.79Z" transform="translate(-0.23)"/><path class="cls-2" d="M180.82,53.68c-1.17-3-2.28-6.06-3.17-9.17s-1.61-6.28-2.27-9.46l0,.1c1.77,12.91,8.38,24.5,10.14,37.41h0l.76-.13c-.66-3.2-1.38-6.38-2.28-9.52S182,56.7,180.82,53.68Z" transform="translate(-0.23)"/><path class="cls-3" d="M180.09,53.94c-1.05-3.07-2.05-6.17-2.82-9.33s-1.36-6.36-1.89-9.56l0,.1c1.77,12.91,8.38,24.5,10.14,37.41h0l-.76.14c-.52-3.18-1.11-6.36-1.88-9.49S181.15,57,180.09,53.94Z" transform="translate(-0.23)"/><path class="cls-2" d="M202.57,55.21c-1.68-6.23-3.11-12.52-4.38-18.85l0,.09c2.1,12.72,5.89,25.08,8,37.8h0l.76-.13C205.68,67.78,204.25,61.45,202.57,55.21Z" transform="translate(-0.23)"/><path class="cls-3" d="M201.82,55.4c-1.44-6.31-2.62-12.67-3.63-19l0,.09c2.1,12.72,5.89,25.08,8,37.8h0l-.76.14C204.42,68,203.25,61.69,201.82,55.4Z" transform="translate(-0.23)"/><path class="cls-2" d="M219,53.51c-1.26-4.66-2.33-9.35-3.27-14.09v.08c1.57,9.5,4.4,18.73,6,28.23h0l.57-.1C221.29,62.89,220.22,58.17,219,53.51Z" transform="translate(-0.23)"/><path class="cls-3" d="M218.4,53.64c-1.07-4.7-2-9.45-2.7-14.21v.07c1.57,9.5,4.4,18.73,6,28.23h0l-.56.1C220.35,63.07,219.47,58.35,218.4,53.64Z" transform="translate(-0.23)"/><polygon class="cls-2" points="236.18 51.63 234.31 42.25 234.31 42.3 237.68 61.07 237.68 61.07 238.05 61 236.18 51.63"/><polygon class="cls-3" points="235.8 51.69 234.31 42.25 234.31 42.3 237.68 61.07 237.68 61.07 237.3 61.13 235.8 51.69"/><path class="cls-4" d="M256.91,58.51C254.29,44,254.32,44,251.7,29.45" transform="translate(-0.23)"/><path class="cls-4" d="M276,55.94c-3.55-19.66-6-19.22-9.51-38.87" transform="translate(-0.23)"/><path class="cls-5" d="M225,67.43c-3-16.94-5.14-16.56-8.2-33.5" transform="translate(-0.23)"/><path class="cls-6" d="M221.46,50.52c-.94-2.72-1.84-5.44-2.59-8.21s-1.41-5.57-2-8.38V34c1.7,11.4,6.49,22,8.18,33.42h0l1.07-.19c-.62-2.83-1.27-5.65-2-8.45S222.4,53.24,221.46,50.52Z" transform="translate(-0.23)"/><path class="cls-7" d="M220.42,50.84c-.77-2.77-1.5-5.57-2.09-8.4s-1.06-5.67-1.49-8.51l0,.08c1.7,11.4,6.49,22,8.18,33.42h0l-1.07.19c-.43-2.82-.89-5.65-1.48-8.44S221.2,53.61,220.42,50.84Z" transform="translate(-0.23)"/><path class="cls-6" d="M172.92,79.13C170.35,64.9,170,65,167.48,50.73" transform="translate(-0.23)"/><path class="cls-6" d="M170.48,64.88c-1.06-4.71-2-9.42-3-14.15v.07c1.65,9.48,3.78,18.86,5.43,28.33h0l.56-.1Q172.07,71.94,170.48,64.88Z" transform="translate(-0.23)"/><path class="cls-7" d="M169.91,65q-1.31-7.11-2.43-14.26v.07c1.65,9.48,3.78,18.86,5.43,28.33h0l-.57.1C171.59,74.48,170.79,69.73,169.91,65Z" transform="translate(-0.23)"/><path class="cls-6" d="M149.65,80.15c-2.67-14.83-3-14.77-5.67-29.6" transform="translate(-0.23)"/><path class="cls-6" d="M147.11,65.29C146,60.39,145,55.48,144,50.55v.07c1.73,9.88,3.94,19.66,5.66,29.53h0l.59-.1C149.25,75.12,148.22,70.19,147.11,65.29Z" transform="translate(-0.23)"/><path class="cls-7" d="M146.52,65.41Q145.16,58,144,50.55v.07c1.73,9.88,3.94,19.66,5.66,29.53h0l-.59.11Q147.88,72.82,146.52,65.41Z" transform="translate(-0.23)"/><path class="cls-6" d="M126.06,65.31c-.87-5.16-1.84-10.31-2.87-15.43V50c1.93,10.25,3.18,20.61,5.11,30.87h0l.61-.12Q127.38,73,126.06,65.31Z" transform="translate(-0.23)"/><path class="cls-7" d="M125.44,65.4c-.66-5.19-1.42-10.36-2.25-15.52V50c1.93,10.25,3.18,20.61,5.11,30.87h0l-.61.11C126.87,75.77,126.1,70.59,125.44,65.4Z" transform="translate(-0.23)"/><path class="cls-6" d="M174.28,59.23c-.77-4.6-1.64-9.18-2.56-13.74v.06c1.72,9.14,2.84,18.37,4.55,27.5h0l.55-.1C175.91,68.39,175.05,63.82,174.28,59.23Z" transform="translate(-0.23)"/><path class="cls-7" d="M173.73,59.31c-.59-4.62-1.27-9.22-2-13.82v.06c1.72,9.14,2.84,18.37,4.55,27.5h0l-.54.1C175,68.55,174.32,63.93,173.73,59.31Z" transform="translate(-0.23)"/><path class="cls-6" d="M220.89,53.38a59.54,59.54,0,0,1-2.1-5.78c-.58-2-1-4-1.46-6v.06c1.09,8.2,5.58,15.44,6.66,23.64h0l.48-.09c-.42-2-.88-4-1.47-6A59.44,59.44,0,0,0,220.89,53.38Z" transform="translate(-0.23)"/><path class="cls-7" d="M220.43,53.56a60.2,60.2,0,0,1-1.88-5.89c-.51-2-.89-4-1.22-6.05v.06c1.09,8.2,5.58,15.44,6.66,23.64h0l-.48.08c-.33-2-.71-4-1.21-6A58.27,58.27,0,0,0,220.43,53.56Z" transform="translate(-0.23)"/><path class="cls-8" d="M199.57,50.18a76.38,76.38,0,0,1-2.71-7.46c-.75-2.53-1.35-5.12-1.89-7.71l0,.08c1.4,10.57,7.2,19.9,8.58,30.49h0l.62-.12c-.54-2.61-1.14-5.21-1.9-7.77A78.15,78.15,0,0,0,199.57,50.18Z" transform="translate(-0.23)"/><path class="cls-9" d="M199,50.41a72.16,72.16,0,0,1-2.42-7.6c-.66-2.58-1.15-5.19-1.59-7.8l0,.08c1.4,10.57,7.2,19.9,8.58,30.49h0l-.62.11c-.43-2.6-.92-5.2-1.57-7.75A74.81,74.81,0,0,0,199,50.41Z" transform="translate(-0.23)"/><path class="cls-2" d="M179.78,46.76c-1.56-6.27-2.94-12.57-4.21-18.9V28c2.15,12.7,5.51,25.16,7.66,37.86h0l.76-.14C182.73,59.35,181.34,53,179.78,46.76Z" transform="translate(-0.23)"/><path class="cls-3" d="M179,46.92c-1.31-6.32-2.44-12.68-3.46-19.06l0,.1c2.15,12.7,5.51,25.16,7.66,37.86h0l-.76.14C181.47,59.59,180.34,53.24,179,46.92Z" transform="translate(-0.23)"/><path class="cls-2" d="M203.42,47.91c-1.56-6.26-2.94-12.56-4.21-18.9l0,.1c2.15,12.7,5.51,25.16,7.65,37.86h0l.76-.14C206.37,60.5,205,54.17,203.42,47.91Z" transform="translate(-0.23)"/><path class="cls-3" d="M202.67,48.08c-1.31-6.33-2.45-12.69-3.46-19.06l0,.09c2.15,12.7,5.51,25.16,7.65,37.86h0l-.76.14C205.11,60.74,204,54.4,202.67,48.08Z" transform="translate(-0.23)"/><path class="cls-2" d="M226.05,49.28c-1-6.39-2.16-12.74-3.43-19.07v.1c2.42,12.65,3.67,25.49,6.09,38.14h0l.76-.14C228.2,62,227,55.65,226.05,49.28Z" transform="translate(-0.23)"/><path class="cls-3" d="M225.28,49.38c-.73-6.41-1.64-12.79-2.67-19.17l0,.1c2.42,12.65,3.67,25.49,6.09,38.14h0l-.76.14C226.94,62.21,226,55.8,225.28,49.38Z" transform="translate(-0.23)"/><path class="cls-2" d="M242.12,47.62c-.74-4.77-1.61-9.51-2.57-14.24l0,.07c1.8,9.45,2.74,19,4.54,28.49h0l.57-.1C243.73,57.12,242.86,52.38,242.12,47.62Z" transform="translate(-0.23)"/><path class="cls-3" d="M241.55,47.7c-.55-4.79-1.23-9.56-2-14.32l0,.07c1.8,9.45,2.74,19,4.54,28.49h0l-.56.1C242.78,57.28,242.1,52.49,241.55,47.7Z" transform="translate(-0.23)"/><path class="cls-2" d="M257.38,46.09c-.79-3.08-1.48-6.19-2.11-9.32v0c1,6.27,2.79,12.41,3.84,18.68h0l.37-.07C258.87,52.3,258.17,49.18,257.38,46.09Z" transform="translate(-0.23)"/><path class="cls-3" d="M257,46.18c-.67-3.12-1.24-6.26-1.74-9.41v0c1,6.27,2.79,12.41,3.84,18.68h0l-.38.07C258.24,52.42,257.68,49.29,257,46.18Z" transform="translate(-0.23)"/><path class="cls-4" d="M277.6,53c-2.62-14.53-3.32-14.4-5.94-28.93" transform="translate(-0.23)"/><path class="cls-4" d="M299,50.05c-3.54-19.66-3.76-19.62-7.3-39.27" transform="translate(-0.23)"/><path class="cls-5" d="M247.94,61.56c-3.06-16.94-3.24-16.91-6.3-33.85" transform="translate(-0.23)"/><path class="cls-6" d="M245.32,44.54q-1.89-8.4-3.68-16.83l0,.09c2,11.27,4.28,22.49,6.28,33.76h0l1.06-.19Q247.22,52.94,245.32,44.54Z" transform="translate(-0.23)"/><path class="cls-7" d="M244.26,44.74q-1.37-8.51-2.62-17l0,.09c2,11.27,4.28,22.49,6.28,33.76h0l-1.06.19Q245.61,53.25,244.26,44.74Z" transform="translate(-0.23)"/><path class="cls-6" d="M195,73.42c-2.57-14.23-.37-14.63-2.94-28.85" transform="translate(-0.23)"/><path class="cls-6" d="M193.77,59c-.1-2.42-.25-4.85-.56-7.26s-.73-4.79-1.19-7.16v.07c2.08,9.48.82,19.3,2.92,28.78h0l.56-.1c-.46-2.37-.88-4.74-1.18-7.13S193.87,61.4,193.77,59Z" transform="translate(-0.23)"/><path class="cls-7" d="M193.19,59c0-2.42-.06-4.83-.27-7.24s-.54-4.8-.91-7.19l0,.07c2.08,9.48.82,19.3,2.92,28.78h0l-.56.1c-.38-2.4-.71-4.81-.91-7.24S193.2,61.42,193.19,59Z" transform="translate(-0.23)"/><path class="cls-6" d="M171.67,74.44c-2.67-14.83-.38-15.24-3-30.07" transform="translate(-0.23)"/><path class="cls-6" d="M170.45,59.39c-.11-2.52-.27-5-.59-7.55s-.76-5-1.24-7.47v.07c2.17,9.88.86,20.12,3,30h0l.59-.11c-.48-2.46-.92-4.93-1.23-7.42S170.55,61.91,170.45,59.39Z" transform="translate(-0.23)"/><path class="cls-7" d="M169.84,59.41c0-2.52-.06-5-.28-7.54s-.56-5-.95-7.5l0,.07c2.17,9.88.86,20.12,3,30h0l-.59.11c-.39-2.51-.73-5-1-7.55S169.85,61.93,169.84,59.41Z" transform="translate(-0.23)"/><polygon class="cls-6" points="144.49 60.19 141.35 44.82 141.36 44.9 147.03 75.67 147.03 75.67 147.64 75.56 144.49 60.19"/><polygon class="cls-7" points="143.88 60.3 141.35 44.82 141.36 44.9 147.03 75.67 147.02 75.67 146.41 75.78 143.88 60.3"/><polygon class="cls-6" points="152.72 58.77 149.58 43.4 149.59 43.48 155.25 74.25 155.25 74.25 155.87 74.14 152.72 58.77"/><polygon class="cls-7" points="152.11 58.88 149.57 43.4 149.59 43.48 155.25 74.25 155.25 74.25 154.64 74.36 152.11 58.88"/><path class="cls-6" d="M161.79,57.25c-.86-5.16-1.83-10.31-2.86-15.43v.07c1.93,10.26,3.16,20.62,5.09,30.88h0l.61-.11C163.62,67.53,162.65,62.4,161.79,57.25Z" transform="translate(-0.23)"/><path class="cls-7" d="M161.17,57.34c-.65-5.19-1.41-10.36-2.24-15.52v.07c1.93,10.26,3.16,20.62,5.09,30.88h0l-.61.11C162.59,67.71,161.83,62.53,161.17,57.34Z" transform="translate(-0.23)"/><path class="cls-6" d="M202.1,52.53c-.76-4.6-1.63-9.18-2.55-13.74l0,.07c1.71,9.13,2.81,18.36,4.53,27.49h0l.55-.1C203.73,61.69,202.87,57.12,202.1,52.53Z" transform="translate(-0.23)"/><path class="cls-7" d="M201.55,52.61c-.58-4.62-1.26-9.22-2-13.82l0,.07c1.71,9.13,2.81,18.36,4.53,27.49h0l-.55.1C202.81,61.85,202.13,57.23,201.55,52.61Z" transform="translate(-0.23)"/><path class="cls-6" d="M242.91,47.7c-1.13-3.93-2.06-7.91-2.86-11.92v.06c1.3,8.06,3.94,15.83,5.23,23.89h0l.48-.08C245,55.63,244,51.63,242.91,47.7Z" transform="translate(-0.23)"/><path class="cls-7" d="M242.43,47.82c-1-4-1.74-8-2.38-12v.06c1.3,8.06,3.94,15.83,5.23,23.89h0l-.48.08C244.17,55.79,243.41,51.79,242.43,47.82Z" transform="translate(-0.23)"/><path class="cls-8" d="M243.89,42.22c-1.45-5.06-2.65-10.19-3.68-15.37v.08c1.68,10.4,5.08,20.42,6.75,30.82h0l.62-.11C246.56,52.46,245.35,47.3,243.89,42.22Z" transform="translate(-0.23)"/><path class="cls-9" d="M243.28,42.38C242,37.25,241,32.06,240.2,26.85l0,.08c1.68,10.4,5.08,20.42,6.75,30.82h0l-.62.11C245.53,52.66,244.54,47.5,243.28,42.38Z" transform="translate(-0.23)"/><path class="cls-2" d="M245.59,36.56a78.1,78.1,0,0,1-3.61-9,92.9,92.9,0,0,1-2.4-9.46l0,.1c1.61,13.06,9.69,24.14,11.28,37.21h0l.77-.14a95.21,95.21,0,0,0-2.43-9.54A76.76,76.76,0,0,0,245.59,36.56Z" transform="translate(-0.23)"/><path class="cls-3" d="M244.87,36.87a77.31,77.31,0,0,1-3.26-9.24,92,92,0,0,1-2-9.57l0,.1c1.61,13.06,9.69,24.14,11.28,37.21h0l-.76.13a95.63,95.63,0,0,0-2-9.48A77.75,77.75,0,0,0,244.87,36.87Z" transform="translate(-0.23)"/><path class="cls-2" d="M269.23,37.71a75.61,75.61,0,0,1-3.6-9,94.76,94.76,0,0,1-2.41-9.45l0,.09c1.62,13.06,9.69,24.15,11.29,37.21h0l.76-.14a95.16,95.16,0,0,0-2.42-9.54A78.55,78.55,0,0,0,269.23,37.71Z" transform="translate(-0.23)"/><path class="cls-3" d="M268.52,38a78.51,78.51,0,0,1-3.27-9.24,95,95,0,0,1-2-9.56l0,.09c1.62,13.06,9.69,24.15,11.29,37.21h0l-.76.14a93,93,0,0,0-2-9.49A78.33,78.33,0,0,0,268.52,38Z" transform="translate(-0.23)"/><path class="cls-2" d="M293,38.92q-2.07-9.45-4-18.94l0,.09c2.23,12.68,4.94,25.27,7.17,38h0l.76-.14Q295.09,48.38,293,38.92Z" transform="translate(-0.23)"/><path class="cls-3" d="M292.26,39.07Q290.55,29.55,289,20l0,.09c2.23,12.68,4.94,25.27,7.17,38h0l-.76.14Q293.94,48.61,292.26,39.07Z" transform="translate(-0.23)"/><path class="cls-2" d="M309.06,37.28q-1.55-7.07-3-14.15v.07c1.66,9.47,3.69,18.87,5.36,28.34h0l.56-.1C311.08,46.71,310.1,42,309.06,37.28Z" transform="translate(-0.23)"/><path class="cls-3" d="M308.5,37.39q-1.28-7.12-2.41-14.26l0,.07c1.66,9.47,3.69,18.87,5.36,28.34h0l-.56.1C310.14,46.88,309.35,42.13,308.5,37.39Z" transform="translate(-0.23)"/><path class="cls-2" d="M324.41,35.77c-.54-3.15-1.14-6.28-1.77-9.4v.05c1.16,6.25,2,12.55,3.16,18.8h0l.37-.07Q325.24,40.47,324.41,35.77Z" transform="translate(-0.23)"/><path class="cls-3" d="M324,35.82c-.42-3.15-.89-6.3-1.39-9.45v.05c1.16,6.25,2,12.55,3.16,18.8h0l-.38.07C324.93,42.14,324.45,39,324,35.82Z" transform="translate(-0.23)"/><path class="cls-6" d="M293.54,54.21c-2.13-11.82-1.85-11.87-4-23.68" transform="translate(-0.23)"/><path class="cls-8" d="M291.79,42.33q-1-5.91-2.23-11.8v.06c1.47,7.85,2.51,15.77,4,23.62h0l.47-.08C293.22,50.2,292.47,46.28,291.79,42.33Z" transform="translate(-0.23)"/><path class="cls-9" d="M291.32,42.41q-.79-6-1.76-11.88v.06c1.47,7.85,2.51,15.77,4,23.62h0l-.47.09C292.44,50.34,291.84,46.38,291.32,42.41Z" transform="translate(-0.23)"/><path class="cls-6" d="M263.26,62.85C260.69,48.62,258.58,49,256,34.77" transform="translate(-0.23)"/><path class="cls-6" d="M259.91,48.72c-.83-2.28-1.61-4.56-2.24-6.89s-1.17-4.69-1.66-7.06l0,.07c1.37,9.61,5.87,18.4,7.23,28h0l.57-.1c-.49-2.38-1-4.75-1.67-7.1S260.73,51,259.91,48.72Z" transform="translate(-0.23)"/><path class="cls-7" d="M259.36,48.9c-.73-2.3-1.43-4.64-2-7s-1-4.74-1.38-7.13l0,.07c1.37,9.61,5.87,18.4,7.23,28h0l-.57.1c-.39-2.38-.82-4.75-1.37-7.09S260.1,51.21,259.36,48.9Z" transform="translate(-0.23)"/><path class="cls-6" d="M240,63.86c-2.67-14.83-4.87-14.44-7.55-29.27" transform="translate(-0.23)"/><path class="cls-6" d="M236.55,49.13c-.86-2.37-1.67-4.75-2.33-7.18s-1.22-4.89-1.73-7.36l0,.08c1.42,10,6.12,19.17,7.53,29.19h0l.59-.11c-.51-2.48-1.06-5-1.74-7.4S237.41,51.5,236.55,49.13Z" transform="translate(-0.23)"/><path class="cls-7" d="M236,49.32c-.76-2.4-1.49-4.83-2-7.29s-1-5-1.44-7.44l0,.08c1.42,10,6.12,19.17,7.53,29.19h0l-.59.1c-.41-2.48-.85-5-1.42-7.39S236.75,51.72,236,49.32Z" transform="translate(-0.23)"/><path class="cls-6" d="M214.83,49.28c-1.24-5.08-2.35-10.19-3.38-15.31l0,.07c1.75,10.29,4.38,20.4,6.13,30.69h0l.62-.11C217.19,59.48,216.08,54.36,214.83,49.28Z" transform="translate(-0.23)"/><path class="cls-7" d="M214.22,49.41c-1-5.12-1.95-10.28-2.77-15.44l0,.07c1.75,10.29,4.38,20.4,6.13,30.69h0l-.61.11C216.17,59.68,215.26,54.54,214.22,49.41Z" transform="translate(-0.23)"/><path class="cls-6" d="M263.08,43.2c-1.1-4.53-2.09-9.07-3-13.64l0,.07c1.56,9.16,3.9,18.16,5.46,27.32h0l.55-.09C265.18,52.28,264.19,47.72,263.08,43.2Z" transform="translate(-0.23)"/><path class="cls-7" d="M262.54,43.32c-.93-4.57-1.74-9.16-2.47-13.76l0,.07c1.56,9.16,3.9,18.16,5.46,27.32h0l-.55.1C264.27,52.46,263.47,47.88,262.54,43.32Z" transform="translate(-0.23)"/><path class="cls-6" d="M309.34,37.5c-.45-4.07-1.12-8.11-1.93-12.12v.06c1.62,8,1.74,16.22,3.36,24.23h0l.48-.08C310.45,45.58,309.78,41.57,309.34,37.5Z" transform="translate(-0.23)"/><path class="cls-7" d="M308.85,37.55c-.28-4.08-.79-8.13-1.44-12.17v.06c1.62,8,1.74,16.22,3.36,24.23h0l-.48.09C309.65,45.71,309.13,41.63,308.85,37.55Z" transform="translate(-0.23)"/><path class="cls-8" d="M161.8,62c-.58-5.25-1.44-10.47-2.49-15.64v.08c2.09,10.33,2.25,20.93,4.33,31.26h0l.62-.11C163.23,72.42,162.37,67.23,161.8,62Z" transform="translate(-0.23)"/><path class="cls-9" d="M161.17,62.05c-.37-5.26-1-10.49-1.86-15.7v.08c2.09,10.33,2.25,20.93,4.33,31.26h0l-.62.11C162.19,72.59,161.53,67.32,161.17,62.05Z" transform="translate(-0.23)"/><path class="cls-2" d="M14.39,86.38c-1-3.08-1.94-6.16-2.74-9.29s-1.49-6.29-2.14-9.46l0,.1c1.93,12.8,7.08,24.82,9,37.62h0l.75-.14c-.65-3.18-1.34-6.35-2.15-9.5S15.39,89.46,14.39,86.38Z" transform="translate(-0.23)"/><path class="cls-3" d="M13.65,86.6c-.87-3.11-1.7-6.25-2.38-9.42S10,70.83,9.51,67.64l0,.09c1.93,12.8,7.08,24.82,9,37.62h0l-.76.13c-.52-3.18-1.08-6.35-1.75-9.5S14.52,89.72,13.65,86.6Z" transform="translate(-0.23)"/><path class="cls-2" d="M30.8,84.68a114.22,114.22,0,0,1-3.64-14v.07c1.45,9.56,5.29,18.53,6.73,28.09h0l.56-.1A113,113,0,0,0,30.8,84.68Z" transform="translate(-0.23)"/><path class="cls-3" d="M30.25,84.84a116,116,0,0,1-3.1-14.16l0,.07c1.45,9.56,5.29,18.53,6.73,28.09h0l-.57.11A113.76,113.76,0,0,0,30.25,84.84Z" transform="translate(-0.23)"/><path class="cls-2" d="M47.67,82.94a67.16,67.16,0,0,0-1.28-9.5v0c1.34,6.26.85,12.72,2.19,19h0l.38-.07A66.68,66.68,0,0,1,47.67,82.94Z" transform="translate(-0.23)"/><path class="cls-3" d="M47.29,83a67.55,67.55,0,0,0-.9-9.52v0c1.34,6.26.85,12.72,2.19,19h0l-.37.07A66.82,66.82,0,0,1,47.29,83Z" transform="translate(-0.23)"/><path class="cls-4" d="M66.94,90c-2.62-14.53-.78-14.86-3.39-29.39" transform="translate(-0.23)"/><path class="cls-4" d="M88,87.1c-3.54-19.66-5.34-19.33-8.88-39" transform="translate(-0.23)"/><path class="cls-4" d="M61.82,91.82C59,76,57.51,76.22,54.65,60.37" transform="translate(-0.23)"/><path class="cls-6" d="M58.72,76a157.24,157.24,0,0,1-4.07-15.59v.08c1.67,10.62,5.5,20.74,7.16,31.37h0l1-.18A156.3,156.3,0,0,0,58.72,76Z" transform="translate(-0.23)"/><path class="cls-7" d="M57.74,76.23a159.13,159.13,0,0,1-3.09-15.86v.08c1.67,10.62,5.5,20.74,7.16,31.37h0l-1,.18A156.82,156.82,0,0,0,57.74,76.23Z" transform="translate(-0.23)"/><path class="cls-6" d="M32.47,84.7c0-2-.14-4.12-.39-6.16s-.59-4.07-1-6.08v.06c1.81,8,.45,16.38,2.26,24.43h0l.49-.09c-.4-2-.75-4-1-6S32.53,86.75,32.47,84.7Z" transform="translate(-0.23)"/><path class="cls-7" d="M32,84.7c0-2,0-4.09-.14-6.14s-.43-4.07-.75-6.1v.06c1.81,8,.45,16.38,2.26,24.43h0l-.48.08c-.31-2-.59-4.08-.75-6.14S32,86.76,32,84.7Z" transform="translate(-0.23)"/><path class="cls-8" d="M33.42,79.25c-.06-2.65-.19-5.31-.5-7.94s-.77-5.25-1.27-7.85v.08c2.32,10.38.57,21.13,2.91,31.51h0l.62-.11c-.5-2.59-1-5.19-1.26-7.8S33.49,81.9,33.42,79.25Z" transform="translate(-0.23)"/><path class="cls-9" d="M32.79,79.26c0-2.65,0-5.29-.19-7.92s-.55-5.26-1-7.88l0,.08c2.32,10.38.57,21.13,2.91,31.51h0l-.62.11c-.41-2.63-.76-5.27-1-7.93S32.75,81.9,32.79,79.26Z" transform="translate(-0.23)"/><path class="cls-2" d="M36.68,73.36c-.3-3.22-.64-6.45-1.13-9.65s-1.07-6.38-1.69-9.55v.09C36.5,66.91,36.1,80,38.73,92.62h0l.75-.14c-.62-3.16-1.21-6.33-1.69-9.52S37,76.58,36.68,73.36Z" transform="translate(-0.23)"/><path class="cls-3" d="M35.91,73.42c-.17-3.23-.39-6.45-.74-9.66s-.82-6.41-1.32-9.6l0,.09C36.5,66.91,36.1,80,38.73,92.62h0l-.76.13c-.5-3.2-1-6.41-1.32-9.64S36.08,76.65,35.91,73.42Z" transform="translate(-0.23)"/><path class="cls-2" d="M60.32,74.51c-.29-3.22-.64-6.44-1.12-9.65s-1.07-6.38-1.7-9.55l0,.1c2.62,12.66,2.22,25.7,4.86,38.36h0l.76-.14c-.63-3.16-1.22-6.33-1.69-9.51S60.62,77.73,60.32,74.51Z" transform="translate(-0.23)"/><path class="cls-3" d="M59.55,74.57c-.17-3.23-.38-6.45-.74-9.66s-.81-6.4-1.31-9.6l0,.1c2.62,12.66,2.22,25.7,4.86,38.36h0l-.76.14c-.5-3.21-1-6.42-1.32-9.64S59.72,77.8,59.55,74.57Z" transform="translate(-0.23)"/><path class="cls-2" d="M82.33,76c-.31-3.22-.66-6.44-1.15-9.64s-1.08-6.38-1.71-9.56l0,.1c2.61,12.66,2.3,25.69,4.93,38.35h0l.76-.13c-.63-3.17-1.22-6.34-1.7-9.52S82.64,79.18,82.33,76Z" transform="translate(-0.23)"/><path class="cls-3" d="M81.56,76c-.18-3.23-.41-6.44-.77-9.65S80,60,79.47,56.77l0,.09c2.61,12.66,2.3,25.69,4.93,38.35h0l-.76.14c-.5-3.2-1-6.41-1.33-9.64S81.74,79.25,81.56,76Z" transform="translate(-0.23)"/><path class="cls-2" d="M98.48,74.28A130.65,130.65,0,0,0,96.34,60V60c2,9.45,1.73,19.19,3.69,28.64h0l.56-.1A129.36,129.36,0,0,1,98.48,74.28Z" transform="translate(-0.23)"/><path class="cls-3" d="M97.9,74.33A128.71,128.71,0,0,0,96.34,60V60c2,9.45,1.73,19.19,3.69,28.64h0l-.56.1A129.36,129.36,0,0,1,97.9,74.33Z" transform="translate(-0.23)"/><path class="cls-2" d="M114.08,72.67c-.82-3.07-1.52-6.18-2.15-9.31v0c1,6.28,2.87,12.39,3.91,18.67h0l.38-.07C115.6,78.88,114.9,75.76,114.08,72.67Z" transform="translate(-0.23)"/><path class="cls-3" d="M113.71,72.76c-.7-3.11-1.28-6.25-1.78-9.4v0c1,6.28,2.87,12.39,3.91,18.67h0l-.37.06C115,79,114.4,75.87,113.71,72.76Z" transform="translate(-0.23)"/><path class="cls-4" d="M134.41,79.6c-2.61-14.53-3.43-14.38-6-28.91" transform="translate(-0.23)"/><path class="cls-4" d="M153.14,77.1c-3.54-19.66-3.81-19.61-7.36-39.26" transform="translate(-0.23)"/><path class="cls-5" d="M102.38,88.55c-3-16.94-3.29-16.9-6.34-33.84" transform="translate(-0.23)"/><path class="cls-6" d="M99.74,71.53c-1.28-5.6-2.5-11.2-3.7-16.82l0,.09c2,11.27,4.33,22.48,6.32,33.75h0l1.06-.19Q101.65,79.93,99.74,71.53Z" transform="translate(-0.23)"/><path class="cls-7" d="M98.68,71.73q-1.4-8.49-2.64-17l0,.09c2,11.27,4.33,22.48,6.32,33.75h0l-1.06.19Q100.06,80.22,98.68,71.73Z" transform="translate(-0.23)"/><path class="cls-6" d="M52.48,99.85c-2.56-14.23-3-14.15-5.56-28.38" transform="translate(-0.23)"/><path class="cls-6" d="M50,85.6c-1.1-4.69-2.11-9.4-3.06-14.13v.07c1.63,9.48,3.92,18.83,5.55,28.31h0l.56-.1C52.1,95,51.09,90.29,50,85.6Z" transform="translate(-0.23)"/><path class="cls-7" d="M49.42,85.72c-.92-4.73-1.75-9.49-2.5-14.25v.07c1.63,9.48,3.92,18.83,5.55,28.31h0l-.56.1C51.16,95.19,50.34,90.45,49.42,85.72Z" transform="translate(-0.23)"/><path class="cls-6" d="M29.25,100.86C26.58,86,26.12,86.11,23.45,71.28" transform="translate(-0.23)"/><path class="cls-6" d="M26.64,86c-1.15-4.89-2.2-9.8-3.19-14.73v.08c1.7,9.88,4.09,19.62,5.79,29.5h0l.59-.1C28.85,95.83,27.8,90.9,26.64,86Z" transform="translate(-0.23)"/><path class="cls-7" d="M26.06,86.14c-1-4.94-1.82-9.89-2.61-14.86v.08c1.7,9.88,4.09,19.62,5.79,29.5h0l-.59.11C27.87,96,27,91.07,26.06,86.14Z" transform="translate(-0.23)"/><path class="cls-6" d="M2.29,86.66c-.16-2.62-.37-5.25-.73-7.85S.74,73.62.23,71.05v.08C2.45,81.4,1.52,92,3.73,102.29h0l.62-.11C3.84,99.61,3.38,97,3,94.46S2.46,89.27,2.29,86.66Z" transform="translate(-0.23)"/><path class="cls-7" d="M1.67,86.68c-.06-2.62-.17-5.23-.43-7.83s-.61-5.21-1-7.8v.08C2.45,81.4,1.52,92,3.73,102.29h0l-.61.11c-.41-2.6-.77-5.21-1-7.83S1.73,89.31,1.67,86.68Z" transform="translate(-0.23)"/><path class="cls-6" d="M50.79,80.52c-.15-2.33-.34-4.67-.66-7S49.4,68.92,49,66.62v.07c2,9.15,1.14,18.61,3.11,27.76h0l.55-.1A93.18,93.18,0,0,1,50.79,80.52Z" transform="translate(-0.23)"/><path class="cls-7" d="M50.23,80.55A94.43,94.43,0,0,0,49,66.62v.07c2,9.15,1.14,18.61,3.11,27.76h0l-.55.09c-.36-2.31-.69-4.64-.91-7S50.29,82.88,50.23,80.55Z" transform="translate(-0.23)"/><path class="cls-6" d="M99,74.38c-1.17-3.91-2.11-7.89-2.91-11.9v.06c1.28,8.07,4.07,15.8,5.34,23.87h0l.47-.08C101.13,82.31,100.18,78.31,99,74.38Z" transform="translate(-0.23)"/><path class="cls-7" d="M98.54,74.51c-1-4-1.8-8-2.44-12v.06c1.28,8.07,4.07,15.8,5.34,23.87h0l-.48.09C100.33,82.47,99.55,78.47,98.54,74.51Z" transform="translate(-0.23)"/><path class="cls-8" d="M77.51,71.22C76,66.17,74.78,61,73.75,55.87v.07c1.65,10.41,5.25,20.39,6.89,30.8h0l.61-.11C80.24,81.45,79,76.28,77.51,71.22Z" transform="translate(-0.23)"/><path class="cls-9" d="M76.9,71.39c-1.31-5.12-2.33-10.31-3.16-15.52l0,.07c1.65,10.41,5.25,20.39,6.89,30.8h0l-.62.11C79.21,81.65,78.2,76.5,76.9,71.39Z" transform="translate(-0.23)"/><path class="cls-2" d="M57,67.84c-1.21-3-2.34-6-3.25-9.15s-1.63-6.27-2.29-9.45l0,.1c1.74,12.93,8.61,24.44,10.34,37.37h0l.76-.13c-.66-3.2-1.39-6.38-2.31-9.52S58.2,70.85,57,67.84Z" transform="translate(-0.23)"/><path class="cls-3" d="M56.27,68.12a94.79,94.79,0,0,1-2.9-9.32c-.79-3.16-1.39-6.36-1.92-9.56l0,.1c1.74,12.93,8.61,24.44,10.34,37.37h0l-.76.13c-.53-3.18-1.12-6.36-1.91-9.48A94.15,94.15,0,0,0,56.27,68.12Z" transform="translate(-0.23)"/><path class="cls-2" d="M80.64,69a95.42,95.42,0,0,1-3.25-9.14c-.91-3.11-1.64-6.28-2.29-9.45v.09c1.74,12.93,8.62,24.44,10.34,37.38h0l.76-.14c-.66-3.2-1.39-6.38-2.31-9.52S81.85,72,80.64,69Z" transform="translate(-0.23)"/><path class="cls-3" d="M79.91,69.27A97.56,97.56,0,0,1,77,60c-.79-3.16-1.39-6.35-1.92-9.55l0,.09c1.74,12.93,8.62,24.44,10.34,37.38h0l-.76.13c-.53-3.18-1.12-6.36-1.9-9.48S81,72.32,79.91,69.27Z" transform="translate(-0.23)"/><path class="cls-2" d="M103.63,70.39c-.23-3.23-.52-6.47-1-9.68s-1-6.39-1.65-9.57v.1c2.7,12.67,1.77,25.76,4.48,38.43h0l.76-.14c-.63-3.16-1.2-6.33-1.65-9.52S103.86,73.61,103.63,70.39Z" transform="translate(-0.23)"/><path class="cls-3" d="M102.86,70.43c-.11-3.24-.27-6.46-.59-9.67s-.78-6.42-1.28-9.62l0,.1c2.7,12.67,1.77,25.76,4.48,38.43h0l-.75.14c-.5-3.21-1-6.43-1.28-9.66S103,73.66,102.86,70.43Z" transform="translate(-0.23)"/><path class="cls-2" d="M120,68.67a103.79,103.79,0,0,0-2-14.38v.08c2,9.46,1.33,19.24,3.35,28.7h0L122,83A102.83,102.83,0,0,1,120,68.67Z" transform="translate(-0.23)"/><path class="cls-3" d="M119.42,68.7A105.69,105.69,0,0,0,118,54.29v.08c2,9.46,1.33,19.24,3.35,28.7h0l-.56.1A104.85,104.85,0,0,1,119.42,68.7Z" transform="translate(-0.23)"/><path class="cls-2" d="M136.73,66.89a48,48,0,0,0-1-9.56v.05c1.43,6.28.22,12.79,1.65,19.07h0l.38-.06A46.58,46.58,0,0,1,136.73,66.89Z" transform="translate(-0.23)"/><path class="cls-3" d="M136.34,66.89a46.45,46.45,0,0,0-.64-9.56v.05c1.43,6.28.22,12.79,1.65,19.07h0l-.37.07A47.81,47.81,0,0,1,136.34,66.89Z" transform="translate(-0.23)"/><path class="cls-4" d="M155.56,74c-2.62-14.52.06-15-2.56-29.54" transform="translate(-0.23)"/><path class="cls-4" d="M174,71.6c-3.55-19.66-.71-20.17-4.25-39.82" transform="translate(-0.23)"/><path class="cls-5" d="M123.39,83c-3-16.94-.6-17.38-3.66-34.32" transform="translate(-0.23)"/><path class="cls-6" d="M122.11,65.84c-.19-2.88-.43-5.77-.84-8.63s-1-5.69-1.54-8.51l0,.08c2.45,11.28,1.18,23,3.64,34.24h0l1.06-.19c-.58-2.81-1.12-5.62-1.52-8.44S122.29,68.71,122.11,65.84Z" transform="translate(-0.23)"/><path class="cls-7" d="M121,65.88c0-2.88-.06-5.74-.29-8.61s-.59-5.72-1-8.57l0,.08c2.45,11.28,1.18,23,3.64,34.24h0l-1.06.19c-.42-2.87-.78-5.75-1-8.65S121,68.76,121,65.88Z" transform="translate(-0.23)"/><path class="cls-6" d="M74.35,94.16c-2.57-14.22-2.54-14.23-5.11-28.46" transform="translate(-0.23)"/><polygon class="cls-6" points="71.85 79.88 69.02 65.7 69.03 65.78 74.12 94.17 74.12 94.17 74.68 94.06 71.85 79.88"/><polygon class="cls-7" points="71.28 79.98 69.01 65.7 69.03 65.78 74.12 94.17 74.12 94.17 73.55 94.27 71.28 79.98"/><path class="cls-6" d="M51.1,95.18c-2.68-14.83-2.65-14.83-5.32-29.66" transform="translate(-0.23)"/><polygon class="cls-6" points="48.51 80.3 45.55 65.52 45.57 65.59 50.87 95.18 50.87 95.18 51.46 95.08 48.51 80.3"/><polygon class="cls-7" points="47.92 80.4 45.55 65.52 45.57 65.59 50.87 95.18 50.87 95.18 50.28 95.29 47.92 80.4"/><path class="cls-6" d="M25.3,80.73q-1.44-7.71-3-15.4v.08C24.19,75.66,25.79,86,27.68,96.23h0l.61-.11Q26.75,88.42,25.3,80.73Z" transform="translate(-0.23)"/><path class="cls-7" d="M24.68,80.83q-1.14-7.76-2.38-15.5v.08C24.19,75.66,25.79,86,27.68,96.23h0l-.61.11Q25.83,88.6,24.68,80.83Z" transform="translate(-0.23)"/><path class="cls-6" d="M33.52,79.31q-1.44-7.71-3-15.4V64C32.42,74.24,34,84.55,35.9,94.81h0l.62-.11Q35,87,33.52,79.31Z" transform="translate(-0.23)"/><path class="cls-7" d="M32.9,79.41q-1.12-7.75-2.38-15.5l0,.08C32.42,74.24,34,84.55,35.9,94.81h0l-.61.11C34.46,89.76,33.66,84.58,32.9,79.41Z" transform="translate(-0.23)"/><path class="cls-6" d="M42,77.89A77.29,77.29,0,0,0,41.6,70c-.29-2.62-.74-5.21-1.24-7.79v.08c2.34,10.31.36,21,2.71,31.3h0l.62-.11c-.5-2.57-1-5.15-1.24-7.74S42.07,80.52,42,77.89Z" transform="translate(-0.23)"/><path class="cls-7" d="M41.4,77.89c.07-2.63.08-5.25-.11-7.87s-.54-5.22-.94-7.82l0,.08c2.34,10.31.36,21,2.71,31.3h0l-.62.11c-.4-2.61-.75-5.24-.94-7.88A77.56,77.56,0,0,1,41.4,77.89Z" transform="translate(-0.23)"/><path class="cls-6" d="M82.18,73.2c0-2.35-.12-4.7-.38-7s-.66-4.65-1.11-7v.07c2.08,9.18.32,18.7,2.41,27.88h0l.55-.1c-.44-2.29-.84-4.58-1.1-6.89S82.21,75.54,82.18,73.2Z" transform="translate(-0.23)"/><path class="cls-7" d="M81.62,73.19c.06-2.34.07-4.67-.1-7s-.48-4.65-.84-7l0,.07c2.08,9.18.32,18.7,2.41,27.88h0l-.55.1c-.36-2.33-.67-4.67-.83-7A69.3,69.3,0,0,1,81.62,73.19Z" transform="translate(-0.23)"/><path class="cls-6" d="M122.13,68.5c-.65-4-1.4-8-2.21-12.06v.06c1.52,8,2.4,16.12,3.92,24.13h0l.48-.08C123.53,76.54,122.78,72.54,122.13,68.5Z" transform="translate(-0.23)"/><path class="cls-7" d="M121.64,68.57q-.73-6.07-1.72-12.13v.06c1.52,8,2.4,16.12,3.92,24.13h0l-.48.09Q122.4,74.66,121.64,68.57Z" transform="translate(-0.23)"/><path class="cls-8" d="M123.25,63c-.84-5.2-1.81-10.39-2.85-15.55v.07c2,10.34,3.1,20.8,5.06,31.13h0l.62-.11C125.05,73.39,124.09,68.22,123.25,63Z" transform="translate(-0.23)"/><path class="cls-9" d="M122.62,63.1c-.63-5.23-1.39-10.44-2.22-15.64v.07c2,10.34,3.1,20.8,5.06,31.13h0l-.62.11C124,73.56,123.26,68.34,122.62,63.1Z" transform="translate(-0.23)"/><path class="cls-2" d="M124.49,57.48q-2-9.46-3.93-18.95v.09c2.25,12.68,4.84,25.29,7.09,38h0l.76-.14Q126.52,67,124.49,57.48Z" transform="translate(-0.23)"/><path class="cls-3" d="M123.73,57.63q-1.67-9.54-3.18-19.1l0,.09c2.25,12.68,4.84,25.29,7.09,38h0l-.76.13Q125.37,67.16,123.73,57.63Z" transform="translate(-0.23)"/><path class="cls-2" d="M148.13,58.64q-2-9.47-3.93-19l0,.09c2.24,12.68,4.84,25.29,7.08,38h0l.76-.14Q150.15,68.1,148.13,58.64Z" transform="translate(-0.23)"/><path class="cls-3" d="M147.37,58.78q-1.65-9.54-3.17-19.1l0,.09c2.24,12.68,4.84,25.29,7.08,38h0l-.75.14Q149,68.31,147.37,58.78Z" transform="translate(-0.23)"/><path class="cls-2" d="M171.41,59.91c-.19-3.23-.43-6.47-.87-9.69s-1-6.4-1.62-9.58v.09c2.74,12.69,1.44,25.81,4.2,38.49h0l.76-.14c-.62-3.16-1.2-6.34-1.62-9.53S171.59,63.15,171.41,59.91Z" transform="translate(-0.23)"/><path class="cls-3" d="M170.63,59.94c0-3.23-.17-6.46-.48-9.68s-.74-6.42-1.24-9.62l0,.09c2.74,12.69,1.44,25.81,4.2,38.49h0l-.76.14c-.5-3.22-1-6.44-1.25-9.68S170.69,63.18,170.63,59.94Z" transform="translate(-0.23)"/><path class="cls-2" d="M218.53,51.36c-.19-3.24-.44-6.48-.87-9.7s-1-6.4-1.63-9.58l0,.1c2.74,12.68,1.44,25.8,4.2,38.48h0l.76-.13c-.63-3.17-1.2-6.34-1.62-9.54S218.71,54.59,218.53,51.36Z" transform="translate(-0.23)"/><path class="cls-3" d="M217.75,51.39c-.06-3.24-.17-6.46-.48-9.68s-.74-6.43-1.24-9.63l0,.1c2.74,12.68,1.44,25.8,4.2,38.48h0l-.76.14c-.49-3.21-.95-6.44-1.25-9.68S217.81,54.62,217.75,51.39Z" transform="translate(-0.23)"/><polygon class="cls-2" points="263.13 43.16 259.29 24.18 259.31 24.27 266.21 62.27 266.21 62.27 266.96 62.14 263.13 43.16"/><polygon class="cls-3" points="262.37 43.3 259.29 24.18 259.31 24.27 266.21 62.27 266.2 62.27 265.45 62.41 262.37 43.3"/><polygon class="cls-2" points="232.73 49.94 229.87 35.77 229.88 35.84 235.03 64.22 235.03 64.22 235.6 64.12 232.73 49.94"/><polygon class="cls-3" points="232.17 50.05 229.87 35.77 229.88 35.84 235.03 64.22 235.03 64.22 234.47 64.32 232.17 50.05"/><path class="cls-2" d="M203.68,56.51a65.27,65.27,0,0,1-2.49-9.24v0c.93,6.33,3.69,12.2,4.62,18.54h0l.37-.07A65.83,65.83,0,0,0,203.68,56.51Z" transform="translate(-0.23)"/><path class="cls-3" d="M203.31,56.62a66.58,66.58,0,0,1-2.13-9.35v0c.93,6.33,3.69,12.2,4.62,18.54h0l-.38.07A64.65,64.65,0,0,0,203.31,56.62Z" transform="translate(-0.23)"/><path class="cls-6" d="M173.86,74.79c-2.13-11.81-3.68-11.54-5.81-23.35" transform="translate(-0.23)"/><path class="cls-8" d="M171.19,63a82.77,82.77,0,0,1-3.14-11.6v.06c1.17,8,4.64,15.33,5.8,23.29h0l.47-.08A83.71,83.71,0,0,0,171.19,63Z" transform="translate(-0.23)"/><path class="cls-9" d="M170.73,63.19a83.24,83.24,0,0,1-2.68-11.75v.06c1.17,8,4.64,15.33,5.8,23.29h0l-.47.09A82.06,82.06,0,0,0,170.73,63.19Z" transform="translate(-0.23)"/><path class="cls-6" d="M140,84.08c-2.56-14.23-2.38-14.26-4.94-28.49" transform="translate(-0.23)"/><path class="cls-6" d="M137.78,69.78q-1.32-7.11-2.75-14.19v.07c1.74,9.46,3.19,19,4.93,28.42h0l.57-.11Q139.12,76.89,137.78,69.78Z" transform="translate(-0.23)"/><path class="cls-7" d="M137.21,69.88q-1-7.15-2.19-14.29l0,.07c1.74,9.46,3.19,19,4.93,28.42h0l-.56.1Q138.26,77,137.21,69.88Z" transform="translate(-0.23)"/><path class="cls-6" d="M116.67,85.1c-2.67-14.83-2.48-14.86-5.15-29.69" transform="translate(-0.23)"/><path class="cls-6" d="M114.39,70.21q-1.38-7.42-2.87-14.8v.07c1.81,9.86,3.33,19.77,5.14,29.62h0l.59-.1Q115.78,77.6,114.39,70.21Z" transform="translate(-0.23)"/><path class="cls-7" d="M113.8,70.3q-1.08-7.45-2.29-14.89l0,.07c1.81,9.86,3.33,19.77,5.14,29.62h0l-.59.11C115.29,80.25,114.52,75.28,113.8,70.3Z" transform="translate(-0.23)"/><path class="cls-6" d="M93.57,70.18C93,65,92.13,59.8,91.09,54.67v.08c2.06,10.25,2.27,20.76,4.33,31h0l.62-.11C95,80.52,94.15,75.38,93.57,70.18Z" transform="translate(-0.23)"/><path class="cls-7" d="M93,70.24c-.37-5.21-1-10.4-1.86-15.57v.08c2.06,10.25,2.27,20.76,4.33,31h0l-.61.11C94,80.69,93.32,75.47,93,70.24Z" transform="translate(-0.23)"/><path class="cls-6" d="M141.83,64.09c-.52-4.63-1.29-9.24-2.21-13.81v.07c1.83,9.13,2,18.49,3.85,27.62h0l.55-.1C143.11,73.31,142.34,68.73,141.83,64.09Z" transform="translate(-0.23)"/><path class="cls-7" d="M141.27,64.15c-.33-4.65-.91-9.27-1.66-13.87l0,.07c1.83,9.13,2,18.49,3.85,27.62h0l-.55.09C142.19,73.45,141.6,68.8,141.27,64.15Z" transform="translate(-0.23)"/><path class="cls-6" d="M189.17,58.17c-.48-4.07-1.17-8.11-2-12.11v.06c1.6,8,1.86,16.2,3.46,24.21h0l.48-.09C190.33,66.24,189.65,62.23,189.17,58.17Z" transform="translate(-0.23)"/><path class="cls-7" d="M188.68,58.22c-.32-4.07-.84-8.12-1.49-12.16v.06c1.6,8,1.86,16.2,3.46,24.21h0l-.48.09C189.53,66.38,189,62.3,188.68,58.22Z" transform="translate(-0.23)"/><path class="cls-8" d="M204.55,54.65c-.43-3.62-1-7.22-1.76-10.78v.05c1.42,7.13,1.65,14.43,3.08,21.55h0l.43-.08C205.59,61.83,205,58.26,204.55,54.65Z" transform="translate(-0.23)"/><path class="cls-9" d="M204.12,54.69c-.29-3.62-.75-7.23-1.33-10.82v.05c1.42,7.13,1.65,14.43,3.08,21.55h0l-.43.08C204.87,62,204.4,58.32,204.12,54.69Z" transform="translate(-0.23)"/><path class="cls-2" d="M219,51.28c-.72-3.1-1.38-6.22-2-9.34V42c1.09,6.26,2.54,12.45,3.63,18.72h0l.37-.07C220.32,57.51,219.66,54.39,219,51.28Z" transform="translate(-0.23)"/><path class="cls-3" d="M218.57,51.36q-.88-4.7-1.63-9.42V42c1.09,6.26,2.54,12.45,3.63,18.72h0l-.38.06C219.7,57.63,219.17,54.49,218.57,51.36Z" transform="translate(-0.23)"/><path class="cls-4" d="M239,58.26c-2.62-14.53-3-14.46-5.62-29" transform="translate(-0.23)"/><path class="cls-4" d="M259.87,55.36c-3.55-19.65-5.54-19.29-9.08-38.94" transform="translate(-0.23)"/><path class="cls-4" d="M233.7,60.08c-2.85-15.85-4.46-15.56-7.32-31.42" transform="translate(-0.23)"/><path class="cls-6" d="M230.53,44.23a143.35,143.35,0,0,1-4.15-15.57v.08c1.64,10.63,5.68,20.71,7.31,31.34h0l1-.18A143.49,143.49,0,0,0,230.53,44.23Z" transform="translate(-0.23)"/><path class="cls-7" d="M229.55,44.51a145.24,145.24,0,0,1-3.17-15.85v.08c1.64,10.63,5.68,20.71,7.31,31.34h0l-1,.18A141.14,141.14,0,0,0,229.55,44.51Z" transform="translate(-0.23)"/><path class="cls-6" d="M204.6,52.93a60.41,60.41,0,0,0-.32-6.17c-.23-2-.58-4.08-1-6.1v.06c1.83,8.06.23,16.41,2.08,24.46h0l.48-.08c-.39-2-.74-4-1-6A59.44,59.44,0,0,1,204.6,52.93Z" transform="translate(-0.23)"/><path class="cls-7" d="M204.11,52.92a59.86,59.86,0,0,0-.08-6.14c-.14-2.05-.41-4.09-.72-6.12v.06c1.83,8.06.23,16.41,2.08,24.46h0l-.48.09c-.32-2-.59-4.09-.73-6.16A58.11,58.11,0,0,1,204.11,52.92Z" transform="translate(-0.23)"/><path class="cls-8" d="M205.6,47.47a78.45,78.45,0,0,0-.42-8c-.28-2.64-.74-5.26-1.24-7.86v.08c2.36,10.39.3,21.16,2.68,31.55h0l.62-.11c-.5-2.59-.95-5.19-1.24-7.8A77,77,0,0,1,205.6,47.47Z" transform="translate(-0.23)"/><path class="cls-9" d="M205,47.46a77.51,77.51,0,0,0-.09-7.92c-.19-2.64-.53-5.27-.94-7.89l0,.08c2.36,10.39.3,21.16,2.68,31.55h0l-.62.11c-.41-2.63-.76-5.28-.95-7.94S204.89,50.11,205,47.46Z" transform="translate(-0.23)"/><path class="cls-2" d="M209.09,41.5q-1.65-9.55-3.57-19v.1c2.37,12.66,4,25.43,6.37,38.09h0l.75-.14Q210.76,51,209.09,41.5Z" transform="translate(-0.23)"/><path class="cls-3" d="M208.33,41.62c-.84-6.4-1.8-12.78-2.82-19.16l0,.1c2.37,12.66,4,25.43,6.37,38.09h0l-.75.14Q209.61,51.22,208.33,41.62Z" transform="translate(-0.23)"/><path class="cls-2" d="M232.74,42.65c-1.1-6.36-2.31-12.71-3.58-19l0,.09c2.36,12.66,4,25.44,6.37,38.09h0l.76-.13Q234.39,52.18,232.74,42.65Z" transform="translate(-0.23)"/><path class="cls-3" d="M232,42.77c-.84-6.4-1.79-12.78-2.81-19.15l0,.09c2.36,12.66,4,25.44,6.37,38.09h0l-.76.14C233.77,55.56,232.81,49.17,232,42.77Z" transform="translate(-0.23)"/><path class="cls-2" d="M252.84,44.44c-1.08-6.36-2.28-12.71-3.55-19v.1c2.37,12.65,4,25.44,6.33,38.1h0l.76-.14C255.12,57.14,253.92,50.8,252.84,44.44Z" transform="translate(-0.23)"/><path class="cls-3" d="M252.08,44.56c-.83-6.4-1.78-12.78-2.8-19.16l0,.1c2.37,12.65,4,25.44,6.33,38.1h0l-.76.13C253.85,57.36,252.9,51,252.08,44.56Z" transform="translate(-0.23)"/><path class="cls-2" d="M269.35,42.71q-1.22-7.14-2.65-14.22v.07c1.77,9.45,3,19,4.73,28.45h0l.56-.1Q270.58,49.83,269.35,42.71Z" transform="translate(-0.23)"/><path class="cls-3" d="M268.78,42.79q-.93-7.17-2.09-14.3l0,.07c1.77,9.45,3,19,4.73,28.45h0l-.57.11C270.11,52.35,269.4,47.58,268.78,42.79Z" transform="translate(-0.23)"/><path class="cls-2" d="M287.28,40.69A91.71,91.71,0,0,1,285,31.42v0c1,6.3,3.3,12.3,4.27,18.6h0l.38-.07A93.14,93.14,0,0,0,287.28,40.69Z" transform="translate(-0.23)"/><path class="cls-3" d="M286.91,40.8a91.35,91.35,0,0,1-2-9.38v0c1,6.3,3.3,12.3,4.27,18.6h0l-.37.07A90,90,0,0,0,286.91,40.8Z" transform="translate(-0.23)"/><path class="cls-4" d="M308.58,47.45c-2.62-14.52-4-14.28-6.62-28.81" transform="translate(-0.23)"/><path class="cls-4" d="M323.57,45.62C320,26,323,25.44,319.44,5.78" transform="translate(-0.23)"/><path class="cls-5" d="M273,57c-3.06-16.94-.5-17.4-3.56-34.34" transform="translate(-0.23)"/><path class="cls-6" d="M271.78,39.85c-.16-2.88-.39-5.77-.79-8.63s-.94-5.7-1.53-8.52l0,.08C272,34.07,270.54,45.75,273,57h0l1.07-.19c-.59-2.81-1.12-5.62-1.52-8.44S272,42.73,271.78,39.85Z" transform="translate(-0.23)"/><path class="cls-7" d="M270.7,39.88c0-2.87,0-5.74-.25-8.6s-.58-5.73-1-8.58l0,.08C272,34.07,270.54,45.75,273,57h0l-1.07.19c-.41-2.87-.78-5.75-1-8.65S270.68,42.77,270.7,39.88Z" transform="translate(-0.23)"/><path class="cls-6" d="M224.18,68.15c-2.57-14.23-1-14.52-3.52-28.75" transform="translate(-0.23)"/><path class="cls-6" d="M222.71,53.76a115.45,115.45,0,0,0-2.05-14.36v.07c2,9.46,1.52,19.22,3.51,28.68h0l.56-.1A114.84,114.84,0,0,1,222.71,53.76Z" transform="translate(-0.23)"/><path class="cls-7" d="M222.13,53.79a116,116,0,0,0-1.47-14.39v.07c2,9.46,1.52,19.22,3.51,28.68h0l-.57.1A116.91,116.91,0,0,1,222.13,53.79Z" transform="translate(-0.23)"/><path class="cls-6" d="M249.05,61.36c-2.37-13.14-.88-13.41-3.25-26.55" transform="translate(-0.23)"/><path class="cls-6" d="M247.69,48.07a105.56,105.56,0,0,0-1.89-13.26v.06c1.83,8.74,1.4,17.75,3.24,26.49h0l.53-.09A105.15,105.15,0,0,1,247.69,48.07Z" transform="translate(-0.23)"/><path class="cls-7" d="M247.16,48.1a106.12,106.12,0,0,0-1.36-13.29v.06c1.83,8.74,1.4,17.75,3.24,26.49h0l-.52.09A104.85,104.85,0,0,1,247.16,48.1Z" transform="translate(-0.23)"/><path class="cls-6" d="M271.09,42.6A92.65,92.65,0,0,1,268,30.75v.06c1.21,8.11,4.58,15.69,5.79,23.79h0l.48-.08A92.11,92.11,0,0,0,271.09,42.6Z" transform="translate(-0.23)"/><path class="cls-7" d="M270.62,42.75a91.5,91.5,0,0,1-2.66-12v.06c1.21,8.11,4.58,15.69,5.79,23.79h0l-.48.09A90.63,90.63,0,0,0,270.62,42.75Z" transform="translate(-0.23)"/><path class="cls-8" d="M249.62,39.43c-.83-2.5-1.62-5-2.28-7.57s-1.23-5.13-1.76-7.72v.08c1.57,10.46,5.92,20.23,7.47,30.69h0l.62-.11c-.53-2.6-1.1-5.19-1.77-7.76S250.45,41.94,249.62,39.43Z" transform="translate(-0.23)"/><path class="cls-9" d="M249,39.62c-.73-2.54-1.43-5.1-2-7.69s-1-5.18-1.45-7.79v.08c1.57,10.46,5.92,20.23,7.47,30.69h0l-.62.11c-.42-2.59-.88-5.19-1.45-7.76S249.75,42.16,249,39.62Z" transform="translate(-0.23)"/><path class="cls-2" d="M230.2,36c-.75-6.42-1.83-12.81-3.11-19.14v.1c2.53,12.65,2.92,25.6,5.45,38.26h0l.76-.14C232,48.73,231,42.38,230.2,36Z" transform="translate(-0.23)"/><path class="cls-3" d="M229.43,36.05c-.5-6.44-1.32-12.84-2.35-19.22l0,.1c2.53,12.65,2.92,25.6,5.45,38.26h0l-.76.13C230.76,48.93,229.93,42.49,229.43,36.05Z" transform="translate(-0.23)"/><path class="cls-2" d="M253.85,37.12C253.09,30.7,252,24.31,250.73,18l0,.1c2.52,12.65,2.91,25.61,5.44,38.26h0l.75-.14C255.68,49.88,254.6,43.53,253.85,37.12Z" transform="translate(-0.23)"/><path class="cls-3" d="M253.08,37.2c-.5-6.44-1.32-12.84-2.35-19.22l0,.1c2.52,12.65,2.91,25.61,5.44,38.26h0l-.75.13C254.41,50.09,253.58,43.65,253.08,37.2Z" transform="translate(-0.23)"/><path class="cls-2" d="M276.66,38.35c-1-3.07-2-6.15-2.79-9.28s-1.51-6.28-2.16-9.45l0,.09c1.91,12.81,7.24,24.78,9.15,37.59h0l.76-.13c-.65-3.18-1.35-6.36-2.17-9.5S277.68,41.42,276.66,38.35Z" transform="translate(-0.23)"/><path class="cls-3" d="M275.92,38.57c-.89-3.11-1.74-6.24-2.43-9.41s-1.26-6.35-1.78-9.54l0,.09c1.91,12.81,7.24,24.78,9.15,37.59h0l-.75.14c-.52-3.18-1.09-6.36-1.78-9.5S276.82,41.68,275.92,38.57Z" transform="translate(-0.23)"/><path class="cls-2" d="M292.76,36.7a106.68,106.68,0,0,1-3.7-14v.07c1.43,9.57,5.41,18.51,6.83,28.08h0l.56-.1A108.14,108.14,0,0,0,292.76,36.7Z" transform="translate(-0.23)"/><path class="cls-3" d="M292.21,36.87a107.55,107.55,0,0,1-3.15-14.16v.07c1.43,9.57,5.41,18.51,6.83,28.08h0l-.56.1A108.08,108.08,0,0,0,292.21,36.87Z" transform="translate(-0.23)"/><path class="cls-2" d="M308.49,35.11a48.75,48.75,0,0,1-2.71-9.19v0c.87,6.38,4.18,12.08,5,18.46h0l.38-.06A49.46,49.46,0,0,0,308.49,35.11Z" transform="translate(-0.23)"/><path class="cls-3" d="M308.13,35.24a48.21,48.21,0,0,1-2.35-9.32v0c.87,6.38,4.18,12.08,5,18.46h0l-.37.07A49.45,49.45,0,0,0,308.13,35.24Z" transform="translate(-0.23)"/><path class="cls-4" d="M329.86,41.87c-2.62-14.52-5.19-14.06-7.81-28.59" transform="translate(-0.23)"/><path class="cls-4" d="M349.64,39.18C346.1,19.53,345.39,19.65,341.85,0" transform="translate(-0.23)"/><path class="cls-5" d="M298.56,50.69c-3.06-16.94-3.67-16.83-6.72-33.77" transform="translate(-0.23)"/><path class="cls-6" d="M295.73,33.69c-1.42-5.56-2.7-11.15-3.89-16.77V17c1.93,11.29,4.78,22.39,6.71,33.68h0l1.06-.19C298.43,44.88,297.14,39.26,295.73,33.69Z" transform="translate(-0.23)"/><path class="cls-7" d="M294.67,33.92c-1.07-5.64-2-11.32-2.84-17l0,.09c1.93,11.29,4.78,22.39,6.71,33.68h0l-1.06.19Q296.25,42.38,294.67,33.92Z" transform="translate(-0.23)"/><path class="cls-6" d="M246.34,62.41c-2.56-14.23-2.84-14.18-5.41-28.41" transform="translate(-0.23)"/><path class="cls-6" d="M243.92,48.15q-1.57-7-3-14.15v.07c1.66,9.48,3.74,18.87,5.39,28.34h0l.57-.1C246,57.58,245,52.85,243.92,48.15Z" transform="translate(-0.23)"/><path class="cls-7" d="M243.36,48.26c-.87-4.74-1.67-9.5-2.43-14.26l0,.07c1.66,9.48,3.74,18.87,5.39,28.34h0l-.56.1Q244.64,55.37,243.36,48.26Z" transform="translate(-0.23)"/><path class="cls-6" d="M231.32,62c-2.67-14.83-3-14.77-5.63-29.6" transform="translate(-0.23)"/><path class="cls-6" d="M228.8,47.14c-1.1-4.9-2.12-9.82-3.11-14.74v.07c1.73,9.87,3.9,19.66,5.62,29.53h0l.58-.1Q230.44,54.51,228.8,47.14Z" transform="translate(-0.23)"/><path class="cls-7" d="M228.21,47.26c-.9-4.95-1.73-9.9-2.53-14.86l0,.07c1.73,9.87,3.9,19.66,5.62,29.53h0l-.59.11C229.94,57.15,229.11,52.2,228.21,47.26Z" transform="translate(-0.23)"/><path class="cls-6" d="M213.76,46.12q-1.68-7.66-3.21-15.35l0,.07c1.81,10.28,4,20.48,5.78,30.75h0l.61-.11Q215.43,53.79,213.76,46.12Z" transform="translate(-0.23)"/><path class="cls-7" d="M213.15,46.24q-1.38-7.73-2.6-15.47l0,.07c1.81,10.28,4,20.48,5.78,30.75h0l-.61.11Q214.51,54,213.15,46.24Z" transform="translate(-0.23)"/><path class="cls-6" d="M253.93,41.43q-1.49-6.82-2.85-13.67v.06c1.61,9.15,3.54,18.24,5.15,27.39h0l.55-.1C255.87,50.54,254.93,46,253.93,41.43Z" transform="translate(-0.23)"/><path class="cls-7" d="M253.39,41.54c-.82-4.59-1.58-9.19-2.32-13.78l0,.06c1.61,9.15,3.54,18.24,5.15,27.39h0l-.54.1C255,50.71,254.2,46.12,253.39,41.54Z" transform="translate(-0.23)"/><path class="cls-6" d="M294.43,36.73c-.05-2.06-.15-4.12-.39-6.16s-.6-4.07-1-6.09v.06c1.8,8.05.45,16.39,2.26,24.43h0l.49-.08c-.4-2-.75-4-1-6S294.48,38.78,294.43,36.73Z" transform="translate(-0.23)"/><path class="cls-7" d="M293.94,36.73c0-2,0-4.1-.15-6.14s-.43-4.08-.74-6.11v.06c1.8,8.05.45,16.39,2.26,24.43h0l-.48.09c-.31-2-.59-4.09-.75-6.15S293.91,38.78,293.94,36.73Z" transform="translate(-0.23)"/><path class="cls-8" d="M295.65,31.23c-.06-2.65-.19-5.31-.5-7.95s-.77-5.25-1.28-7.85v.08c2.33,10.38.58,21.14,2.92,31.51h0l.63-.11c-.51-2.58-1-5.18-1.27-7.79S295.72,33.87,295.65,31.23Z" transform="translate(-0.23)"/><path class="cls-9" d="M295,31.23c0-2.64,0-5.28-.19-7.92s-.56-5.26-1-7.87v.07c2.33,10.38.58,21.14,2.92,31.51h0l-.62.11c-.41-2.63-.76-5.27-1-7.93S295,33.88,295,31.23Z" transform="translate(-0.23)"/><path class="cls-2" d="M296,25.89a96.45,96.45,0,0,0-.49-9.75c-.35-3.24-.9-6.44-1.53-9.63l0,.1c2.91,12.73.31,25.92,3.24,38.66h0l.76-.14c-.62-3.17-1.17-6.35-1.52-9.56A94.49,94.49,0,0,1,296,25.89Z" transform="translate(-0.23)"/><path class="cls-3" d="M295.22,25.89a92.46,92.46,0,0,0-.1-9.71c-.22-3.24-.65-6.46-1.14-9.67l0,.1c2.91,12.73.31,25.92,3.24,38.66h0l-.76.13c-.49-3.22-.92-6.46-1.14-9.73A93.92,93.92,0,0,1,295.22,25.89Z" transform="translate(-0.23)"/><path class="cls-2" d="M319.64,27.05a91,91,0,0,0-.49-9.76c-.35-3.23-.9-6.44-1.52-9.62v.09c2.91,12.74.32,25.93,3.24,38.66h0l.76-.14c-.61-3.17-1.16-6.35-1.51-9.56A94.3,94.3,0,0,1,319.64,27.05Z" transform="translate(-0.23)"/><path class="cls-3" d="M318.87,27a95.28,95.28,0,0,0-.1-9.71c-.23-3.23-.65-6.45-1.14-9.66v.09c2.91,12.74.32,25.93,3.24,38.66h0l-.76.14c-.5-3.23-.93-6.47-1.15-9.74A93.91,93.91,0,0,1,318.87,27Z" transform="translate(-0.23)"/><polygon class="cls-2" points="341.51 28.41 337.76 9.41 337.77 9.51 344.5 47.53 344.5 47.53 345.26 47.4 341.51 28.41"/><polygon class="cls-3" points="340.75 28.54 337.75 9.41 337.77 9.51 344.5 47.53 344.5 47.53 343.74 47.67 340.75 28.54"/><polygon class="cls-2" points="358.06 26.67 355.26 12.48 355.27 12.55 360.3 40.95 360.3 40.95 360.86 40.85 358.06 26.67"/><polygon class="cls-3" points="357.5 26.77 355.26 12.48 355.27 12.55 360.3 40.95 360.3 40.95 359.73 41.05 357.5 26.77"/><path class="cls-2" d="M375.66,24.81a45.76,45.76,0,0,0-1-9.56v0c1.44,6.29.16,12.8,1.61,19.09h0l.37-.07A45.87,45.87,0,0,1,375.66,24.81Z" transform="translate(-0.23)"/><path class="cls-3" d="M375.28,24.81a45.71,45.71,0,0,0-.62-9.56v0c1.44,6.29.16,12.8,1.61,19.09h0l-.37.07c-.25-1.6-.46-3.2-.57-4.81S375.23,26.41,375.28,24.81Z" transform="translate(-0.23)"/><path class="cls-6" d="M344,43.38c-2.13-11.82.11-12.22-2-24" transform="translate(-0.23)"/><path class="cls-8" d="M343.18,31.36a58,58,0,0,0-.31-6c-.21-2-.56-4-.94-6v.06c1.8,7.9.2,16.08,2,24h0l.47-.08c-.38-2-.72-3.95-.94-5.93A57.18,57.18,0,0,1,343.18,31.36Z" transform="translate(-0.23)"/><path class="cls-9" d="M342.7,31.36a57.54,57.54,0,0,0-.07-6c-.14-2-.4-4-.71-6l0,.06c1.8,7.9.2,16.08,2,24h0l-.47.09c-.31-2-.58-4-.72-6A58.56,58.56,0,0,1,342.7,31.36Z" transform="translate(-0.23)"/><path class="cls-6" d="M311.14,52.47c-2.56-14.23-1.33-14.45-3.9-28.68" transform="translate(-0.23)"/><path class="cls-6" d="M309.48,38.1c-.5-4.8-1.28-9.58-2.24-14.31l0,.07c1.91,9.45,2,19.16,3.88,28.61h0l.57-.1C310.75,47.65,310,42.9,309.48,38.1Z" transform="translate(-0.23)"/><path class="cls-7" d="M308.91,38.16c-.31-4.82-.9-9.6-1.67-14.37l0,.07c1.91,9.45,2,19.16,3.88,28.61h0l-.56.1C309.8,47.8,309.21,43,308.91,38.16Z" transform="translate(-0.23)"/><path class="cls-6" d="M287.81,53.5c-2.67-14.83-1.39-15.06-4.07-29.89" transform="translate(-0.23)"/><path class="cls-6" d="M286.08,38.53c-.52-5-1.34-10-2.33-14.92v.07c2,9.86,2,20,4.05,29.82h0l.59-.1C287.4,48.47,286.6,43.53,286.08,38.53Z" transform="translate(-0.23)"/><path class="cls-7" d="M285.48,38.58c-.32-5-.94-10-1.74-15l0,.07c2,9.86,2,20,4.05,29.82h0l-.59.11C286.41,48.63,285.8,43.61,285.48,38.58Z" transform="translate(-0.23)"/><path class="cls-6" d="M262.65,39c-.6-5.2-1.47-10.38-2.5-15.51v.08c2,10.25,2.32,20.75,4.38,31h0l.61-.11C264.12,49.29,263.25,44.15,262.65,39Z" transform="translate(-0.23)"/><path class="cls-7" d="M262,39c-.39-5.22-1-10.41-1.89-15.58l0,.08c2,10.25,2.32,20.75,4.38,31h0l-.62.11C263.09,49.46,262.42,44.24,262,39Z" transform="translate(-0.23)"/><path class="cls-6" d="M311.22,32.81c-.53-4.64-1.31-9.25-2.23-13.81v.06c1.82,9.13,2.07,18.49,3.9,27.61h0l.55-.09C312.53,42,311.76,37.44,311.22,32.81Z" transform="translate(-0.23)"/><path class="cls-7" d="M310.67,32.86c-.35-4.64-.94-9.26-1.68-13.86v.06c1.82,9.13,2.07,18.49,3.9,27.61h0l-.55.1C311.61,42.16,311,37.52,310.67,32.86Z" transform="translate(-0.23)"/><polygon class="cls-6" points="359.07 26.73 356.61 14.73 356.62 14.79 361.06 38.82 361.06 38.82 361.54 38.74 359.07 26.73"/><polygon class="cls-7" points="358.59 26.82 356.61 14.73 356.62 14.79 361.06 38.82 361.06 38.82 360.58 38.91 358.59 26.82"/><path class="cls-4" d="M281.6,52.69c-2.86-15.85-3-15.83-5.86-31.68" transform="translate(-0.23)"/><path class="cls-4" d="M203.86,66.21c-3.54-19.65-1.93-19.95-5.47-39.6" transform="translate(-0.23)"/><path class="cls-4" d="M209.3,64.65C205.76,45,205.59,45,202,25.37" transform="translate(-0.23)"/><path class="cls-4" d="M218.64,62.38c-3.54-19.65-1.92-19.94-5.46-39.6" transform="translate(-0.23)"/><path class="cls-4" d="M228.75,60c-3.54-19.66-7.3-19-10.84-38.63" transform="translate(-0.23)"/><path class="cls-4" d="M228.07,63.84c-3.48-19.36-7.18-18.69-10.67-38" transform="translate(-0.23)"/><path class="cls-2" d="M223.32,44.59a93.06,93.06,0,0,1-3.46-9.22c-1-3.14-1.75-6.35-2.46-9.57l0,.09c1.74,13.16,8.92,24.78,10.65,38h0l1.22-.22c-.71-3.25-1.5-6.49-2.48-9.68A96.77,96.77,0,0,0,223.32,44.59Z" transform="translate(-0.23)"/><path class="cls-3" d="M222.16,45a94.69,94.69,0,0,1-2.91-9.5c-.78-3.22-1.35-6.48-1.86-9.74l0,.09c1.74,13.16,8.92,24.78,10.65,38h0l-1.22.22c-.5-3.24-1.06-6.46-1.83-9.63A96.46,96.46,0,0,0,222.16,45Z" transform="translate(-0.23)"/><path class="cls-2" d="M221.6,49c-1.11-3-2.17-6.09-3-9.21s-1.57-6.28-2.23-9.46l0,.1c1.82,12.87,7.94,24.61,9.75,37.48h0l.76-.13c-.66-3.19-1.37-6.37-2.24-9.51S222.72,52.05,221.6,49Z" transform="translate(-0.23)"/><path class="cls-3" d="M220.87,49.26c-1-3.09-1.94-6.2-2.67-9.37s-1.32-6.35-1.85-9.55l0,.1c1.82,12.87,7.94,24.61,9.75,37.48h0l-.76.14c-.53-3.18-1.11-6.36-1.84-9.49S221.86,52.34,220.87,49.26Z" transform="translate(-0.23)"/><path class="cls-2" d="M268.72,40.45c-1.12-3-2.17-6.09-3-9.21s-1.57-6.28-2.22-9.45l0,.09c1.82,12.87,7.93,24.62,9.74,37.49h0l.76-.14c-.66-3.19-1.37-6.37-2.24-9.51S269.83,43.49,268.72,40.45Z" transform="translate(-0.23)"/><path class="cls-3" d="M268,40.7c-1-3.08-1.93-6.2-2.66-9.36S264,25,263.47,21.79l0,.09c1.82,12.87,7.93,24.62,9.74,37.49h0l-.76.13c-.52-3.18-1.1-6.35-1.84-9.49S269,43.79,268,40.7Z" transform="translate(-0.23)"/><path class="cls-2" d="M316,32a80,80,0,0,0-.22-9.79c-.3-3.25-.83-6.47-1.45-9.67v.1c3,12.79-.49,26,2.56,38.78h0l.76-.14a96.65,96.65,0,0,1-1.44-9.58A78.37,78.37,0,0,1,316,32Z" transform="translate(-0.23)"/><path class="cls-3" d="M315.23,32a79,79,0,0,0,.17-9.73c-.17-3.25-.58-6.48-1.07-9.7l0,.1c3,12.79-.49,26,2.56,38.78h0l-.76.14a97.13,97.13,0,0,1-1.07-9.78A78.22,78.22,0,0,1,315.23,32Z" transform="translate(-0.23)"/><path class="cls-2" d="M285.12,38.86a59.47,59.47,0,0,0-.16-7.31,70.25,70.25,0,0,0-1.09-7.22l0,.07c2.25,9.55-.37,19.42,1.9,29h0l.56-.11c-.45-2.37-.85-4.75-1.07-7.15A60.37,60.37,0,0,1,285.12,38.86Z" transform="translate(-0.23)"/><path class="cls-3" d="M284.54,38.84a58.81,58.81,0,0,0,.13-7.27c-.13-2.42-.43-4.83-.8-7.24l0,.07c2.25,9.55-.37,19.42,1.9,29h0l-.57.1a71.45,71.45,0,0,1-.8-7.3A59.68,59.68,0,0,1,284.54,38.84Z" transform="translate(-0.23)"/><polygon class="cls-2" points="254.34 45.62 252.5 36.23 252.51 36.28 255.81 55.06 255.81 55.06 256.18 54.99 254.34 45.62"/><polygon class="cls-3" points="253.97 45.68 252.5 36.23 252.51 36.28 255.81 55.06 255.81 55.06 255.43 55.13 253.97 45.68"/><polygon class="cls-8" points="246.94 46.45 244.85 35.75 244.85 35.8 248.62 57.23 248.62 57.23 249.04 57.15 246.94 46.45"/><polygon class="cls-9" points="246.52 46.52 244.84 35.75 244.85 35.8 248.62 57.23 248.62 57.23 248.19 57.3 246.52 46.52"/><path class="cls-6" d="M239.53,47.27a47.14,47.14,0,0,1-2.33-5.71,55.19,55.19,0,0,1-1.54-6v.06c1,8.28,6.29,15.23,7.28,23.52h0l.49-.09a57.56,57.56,0,0,0-1.56-6A46.65,46.65,0,0,0,239.53,47.27Z" transform="translate(-0.23)"/><path class="cls-7" d="M239.08,47.47A46.25,46.25,0,0,1,237,41.63a57.15,57.15,0,0,1-1.3-6.05v.06c1,8.28,6.29,15.23,7.28,23.52h0l-.48.09a58.21,58.21,0,0,0-1.29-6A47,47,0,0,0,239.08,47.47Z" transform="translate(-0.23)"/></g></g></g></svg>
