<svg xmlns="http://www.w3.org/2000/svg" viewBox="0 0 189.1 29"><defs><style>.cls-1{fill:#f84644;}.cls-2{fill:#464c50;}.cls-3{fill:none;stroke:#464c50;stroke-miterlimit:10;stroke-width:2px;}</style></defs><title>Asset 1</title><g id="Layer_2" data-name="Layer 2"><g id="Layer_1-2" data-name="Layer 1"><rect class="cls-1" x="4" y="9" width="22" height="2"/><path class="cls-2" d="M28,4V26H2V4H28m2-2H0V28H30V2Z"/><path class="cls-1" d="M52,12l-3,8,8-3.1,3.1-8Z"/><path class="cls-2" d="M108,3V20H87.3l-.5.4L81,24.9V3h27m2-2H79V29l9-7h22V1Z"/><rect class="cls-1" x="88" y="10" width="13" height="2"/><path class="cls-2" d="M148,5V26H122V5h26m2-2H120V28h30V3Z"/><rect class="cls-2" x="126" width="3" height="4.9"/><rect class="cls-2" x="141" width="3" height="4.9"/><rect class="cls-1" x="168.1" y="16" width="2" height="6"/><rect class="cls-1" x="174" y="13" width="2" height="9"/><rect class="cls-1" x="180.1" y="10" width="2" height="12"/><path class="cls-2" d="M187.1,4V26h-24V4h24m2-2h-28V28h28V2Z"/><circle class="cls-3" cx="54.5" cy="14.5" r="13.5"/><polygon class="cls-1" points="142.2 11.1 140.8 9.7 133 17.5 129.2 13.7 127.8 15.1 133 20.3 133 20.3 133 20.3 142.2 11.1"/></g></g></svg>