<svg xmlns="http://www.w3.org/2000/svg" viewBox="0 0 285.05 169.8"><defs><style>.cls-1{fill:#722611;}</style></defs><title>hænder</title><g id="Layer_2" data-name="Layer 2"><g id="Layer_8" data-name="Layer 8"><ellipse class="cls-1" cx="238.45" cy="50" rx="56.13" ry="30.34" transform="translate(26.74 170.58) rotate(-41.51)"/><ellipse class="cls-1" cx="177.69" cy="61.52" rx="26.03" ry="50.68" transform="translate(67.14 213.63) rotate(-73.09)"/><ellipse class="cls-1" cx="135.88" cy="44.24" rx="23.77" ry="22.2" transform="matrix(0.15, -0.99, 0.99, 0.15, 71.33, 171.74)"/><ellipse class="cls-1" cx="138.33" cy="14.31" rx="3.43" ry="17.47" transform="translate(17.79 83.65) rotate(-35.82)"/><ellipse class="cls-1" cx="129.12" cy="16.81" rx="3.43" ry="17.47" transform="translate(14.58 78.74) rotate(-35.82)"/><ellipse class="cls-1" cx="119.91" cy="19.32" rx="3.43" ry="17.47" transform="translate(11.37 73.82) rotate(-35.82)"/><ellipse class="cls-1" cx="113.05" cy="25.05" rx="3.43" ry="17.47" transform="translate(6.72 70.89) rotate(-35.82)"/><ellipse class="cls-1" cx="113.37" cy="52.11" rx="4.15" ry="11.56" transform="translate(9.58 121.35) rotate(-58.39)"/><ellipse class="cls-1" cx="164.21" cy="133.53" rx="56.13" ry="30.34" transform="translate(-40.95 81.53) rotate(-24.89)"/><ellipse class="cls-1" cx="83.81" cy="124.48" rx="26.03" ry="50.68" transform="translate(-65.39 140.57) rotate(-62.2)"/><ellipse class="cls-1" cx="37.34" cy="85.35" rx="22.2" ry="23.77" transform="translate(-54.97 97.97) rotate(-74.16)"/><ellipse class="cls-1" cx="9.11" cy="75.08" rx="3.43" ry="17.47" transform="translate(-35.81 14.24) rotate(-29.52)"/><ellipse class="cls-1" cx="15.23" cy="67.76" rx="3.43" ry="17.47" transform="translate(-31.41 16.3) rotate(-29.52)"/><ellipse class="cls-1" cx="21.35" cy="60.44" rx="3.43" ry="17.47" transform="translate(-27.01 18.37) rotate(-29.52)"/><ellipse class="cls-1" cx="29.43" cy="56.59" rx="3.43" ry="17.47" transform="translate(-24.07 21.85) rotate(-29.52)"/><ellipse class="cls-1" cx="53.88" cy="68.18" rx="4.15" ry="11.56" transform="translate(-7.85 7.02) rotate(-6.95)"/></g></g></svg>
