<svg id="sprite" xmlns="http://www.w3.org/2000/svg" viewBox="0 0 5440 740"><defs><style>.cls-1{fill:#d34226;}.cls-2{fill:#ed4a24;}.cls-3{fill:#dd998c;}.cls-4{fill:#ba3a20;}.cls-5{fill:#ff7955;}.cls-6{fill:#fff;}.cls-7{fill:none;}.cls-8{fill:#ff97ba;}.cls-9{font-size:72px;}.cls-10,.cls-9{fill:#c40021;font-family:ARCENA, AR CENA;}.cls-10{font-size:19px;}</style></defs><title>raev_ramt_sprite_01</title><g id="_1-stå" data-name="1-stå"><g id="Layer_3" data-name="Layer 3"><path class="cls-1" d="M231.27,516.89c26.56,35,22.27,86.41,16.45,144.61a2.64,2.64,0,0,0,1.32,2.57c15.78,9,25.57,2.27,33.33,2.27,8,0,26-15-4-19-20.77-2.77-4.3-24.61-2.05-27.46a2.55,2.55,0,0,0,.39-.7c1-2.62,18.93-42.67,16.83-55.27-2.31-13.86-6.52-53.9-13.43-52-5,1.39-34.48,1-46.69.78A2.62,2.62,0,0,0,231.27,516.89Z"/><path class="cls-1" d="M566.61,391.24c-4.43,64.17,37.21,258.33,40.26,250.58,21.67,21.25,31.69,9.75,31.25,29.32-3,10-42,2-42,2a25.65,25.65,0,0,1-15.15-6c-7.24-6-6.74-31.43-11.74-73.6s-78.86-103.81-78.86-103.81l26.45-20.31Z"/><rect class="cls-2" x="268.64" y="234.08" width="235.56" height="353.6" rx="70.02" ry="70.02" transform="translate(-65.97 747.75) rotate(-83.43)"/><path class="cls-2" d="M189.29,109.64l2.46,47.49L140,114.59l-3.17,71.49L64,150.38l13.8,60.45L44.73,179.94c-2.93,67.7,18.84,89.86,49,101.25,42.61,15.91,143.39,47.06,143.39,47.06l18-15.39c-11.81-15.77-21.68-100-21.68-100S220.24,147.23,189.29,109.64Z"/><path class="cls-3" d="M64,150.38l72.77,35.7L140,114.59l51.77,42.54-2.46-47.49c-16.18-19.62-39.49-34-72.53-33.86C-22.87,45.71,27,58.37,50.47,128.37a257,257,0,0,0-5.74,51.57l33.11,30.89Z"/><polygon class="cls-2" points="659.36 180.84 653.7 228.8 648.05 276.75 621.79 265.03 595.53 253.31 627.44 217.08 659.36 180.84"/><polygon class="cls-2" points="454.62 180.92 486.68 217.03 518.73 253.13 492.52 264.96 466.31 276.78 460.47 228.85 454.62 180.92"/><polygon class="cls-4" points="502.04 241.57 485.63 249.88 469.22 258.2 469.14 237.69 469.06 217.18 485.55 229.37 502.04 241.57"/><polygon class="cls-4" points="642.53 262.49 626.44 253.56 610.36 244.62 627.3 233.06 644.25 221.51 643.39 242 642.53 262.49"/><path class="cls-3" d="M656.22,355.2H572a81.06,81.06,0,0,0,17.83,74.92l15.91-17.95Z"/><path class="cls-3" d="M659.71,324.2a130.39,130.39,0,0,0-3.17-28.73c-2.09-.16-4.19-.27-6.32-.27a81,81,0,0,0-78.24,60h84A129.53,129.53,0,0,0,659.71,324.2Z"/><path class="cls-2" d="M555.46,207.2c-49.11,0-90.28,38.12-101.32,89.42a81,81,0,0,1,93.31,58.58H572a81,81,0,0,1,78.24-60c2.13,0,4.23.11,6.32.27C645.13,244.75,604.2,207.2,555.46,207.2Z"/><path class="cls-3" d="M504.72,412.2,524.91,435a81,81,0,0,0,22.54-79.79H454.22Z"/><path class="cls-3" d="M469.22,295.2a81.24,81.24,0,0,0-15.08,1.42,131.79,131.79,0,0,0,.78,58.58h92.53A81,81,0,0,0,469.22,295.2Z"/><path class="cls-2" d="M585.22,435.2v.14l4.59-5.19A81.07,81.07,0,0,1,572,355.2H547.45A81,81,0,0,1,524.91,435l.31.35v-.14Z"/><polygon points="585.22 435.2 525.22 435.2 525.22 435.34 555.22 469.2 585.22 435.34 585.22 435.2"/><circle class="cls-5" cx="522.22" cy="362.2" r="18"/><circle cx="521.83" cy="361.81" r="14.48"/><circle class="cls-6" cx="526.91" cy="355.16" r="7.04"/><circle class="cls-6" cx="533.17" cy="363.77" r="2.35"/><circle class="cls-5" cx="595.22" cy="362.2" r="18"/><circle cx="594.83" cy="361.81" r="14.48"/><circle class="cls-6" cx="599.91" cy="355.16" r="7.04"/><circle class="cls-6" cx="606.17" cy="363.77" r="2.35"/><path class="cls-2" d="M211.42,463.41c18-11.18,60.19,11.35,60.19,11.35s13.92,21.53-11.16,82.11c-.7,4.83-27.71,65.75-30.32,69.87-8.17,12.87,6.61,21.75,17.33,24,11.82,2.49,27.83,16.88.83,19.83-11.48,1.25-18.11.08-17.55,0s-17.42-1.72-22.28-2.83c-11.87-6.29-2.33-41.66,7.33-90.87C230.74,529.2,211.42,463.41,211.42,463.41Z"/><path class="cls-2" d="M525.47,489.76c19.44,20.22,33,132.34,25,156.34s34.79,12.3,27.11,31.64c-7.45,5.32-27.73-.19-41-1.34-7.27-.62-8.89-.48-11.41-3.69a19.75,19.75,0,0,1-3.36-17.55c7.47-26.37-7.44-97.52-18.53-121.06-11.85-12-25.95-36.84-25.95-36.84Z"/></g></g><g id="_2-luk-ojne" data-name="2-luk-ojne"><g id="Layer_3-2" data-name="Layer 3"><path class="cls-1" d="M911.27,517.8c26.56,35,22.27,86.41,16.45,144.62A2.63,2.63,0,0,0,929,665c15.78,9,25.57,2.28,33.33,2.28,8,0,26-15-4-19-20.77-2.77-4.3-24.61-2-27.47a2.29,2.29,0,0,0,.39-.7c1-2.62,18.93-42.66,16.83-55.27-2.31-13.85-6.52-53.9-13.43-52-5,1.39-34.48,1-46.69.78A2.62,2.62,0,0,0,911.27,517.8Z"/><path class="cls-1" d="M1246.61,392.15c-4.43,64.17,37.21,258.33,40.26,250.58,21.67,21.25,31.69,9.75,31.25,29.33-3,10-42,2-42,2a25.65,25.65,0,0,1-15.15-6c-7.24-6.05-6.74-31.42-11.74-73.6s-78.86-103.81-78.86-103.81l26.45-20.31Z"/><rect class="cls-2" x="948.64" y="234.99" width="235.56" height="353.6" rx="70.02" ry="70.02" transform="translate(535.32 1424.1) rotate(-83.43)"/><path class="cls-2" d="M869.29,110.55l2.46,47.5L820,115.5,816.81,187,744,151.29l13.8,60.45-33.11-30.88c-2.93,67.7,18.84,89.85,49,101.24,42.61,15.92,143.39,47.07,143.39,47.07l18-15.4c-11.81-15.77-21.68-100-21.68-100S900.24,148.14,869.29,110.55Z"/><path class="cls-3" d="M744,151.29,816.81,187,820,115.5l51.77,42.55-2.46-47.5c-16.18-19.62-39.49-34-72.53-33.86-139.63-30.07-89.78-17.4-66.29,52.6a257,257,0,0,0-5.74,51.57l33.11,30.88Z"/><polygon class="cls-2" points="1339.36 218.93 1333.7 266.89 1328.05 314.84 1301.79 303.12 1275.53 291.4 1307.44 255.17 1339.36 218.93"/><polygon class="cls-2" points="1134.62 219.01 1166.68 255.12 1198.73 291.22 1172.52 303.05 1146.31 314.87 1140.47 266.94 1134.62 219.01"/><polygon class="cls-4" points="1182.04 279.66 1165.63 287.97 1149.22 296.29 1149.14 275.78 1149.06 255.27 1165.55 267.46 1182.04 279.66"/><polygon class="cls-4" points="1322.53 300.58 1306.44 291.65 1290.36 282.71 1307.3 271.15 1324.25 259.6 1323.39 280.09 1322.53 300.58"/><path class="cls-3" d="M1336.22,393.29H1252a81.06,81.06,0,0,0,17.83,74.92l15.91-17.95Z"/><path class="cls-3" d="M1339.71,362.29a130.39,130.39,0,0,0-3.17-28.73c-2.09-.16-4.19-.27-6.32-.27a81,81,0,0,0-78.24,60h84A129.47,129.47,0,0,0,1339.71,362.29Z"/><path class="cls-2" d="M1235.46,245.29c-49.11,0-90.28,38.12-101.32,89.42a81,81,0,0,1,93.31,58.58H1252a81,81,0,0,1,78.24-60c2.13,0,4.23.11,6.32.27C1325.13,282.84,1284.2,245.29,1235.46,245.29Z"/><path class="cls-3" d="M1184.72,450.29l20.19,22.79a81,81,0,0,0,22.54-79.79h-93.23Z"/><path class="cls-3" d="M1149.22,333.29a82.11,82.11,0,0,0-15.08,1.42,131.79,131.79,0,0,0,.78,58.58h92.53A81,81,0,0,0,1149.22,333.29Z"/><path class="cls-2" d="M1265.22,473.29v.14l4.59-5.19A81.07,81.07,0,0,1,1252,393.29h-24.53a81,81,0,0,1-22.54,79.79l.31.35v-.14Z"/><polygon points="1265.22 473.29 1205.22 473.29 1205.22 473.43 1235.22 507.29 1265.22 473.43 1265.22 473.29"/><path class="cls-2" d="M891.42,464.32c18-11.18,60.19,11.36,60.19,11.36s13.92,21.52-11.16,82.1c-.7,4.83-27.71,65.75-30.32,69.87-8.17,12.87,6.61,21.75,17.33,24,11.82,2.49,27.83,16.89.83,19.83-11.48,1.25-18.11.08-17.55,0s-17.42-1.71-22.28-2.83c-11.87-6.29-2.33-41.66,7.33-90.87C910.74,530.11,891.42,464.32,891.42,464.32Z"/><path class="cls-2" d="M1205.47,490.67c19.44,20.22,33,132.34,25,156.34s34.79,12.31,27.11,31.64c-7.45,5.32-27.73-.19-41-1.33-7.27-.63-8.89-.49-11.41-3.7a19.75,19.75,0,0,1-3.36-17.55c7.47-26.37-7.44-97.52-18.53-121.06-11.85-12-26-36.84-26-36.84Z"/></g><path class="cls-7" d="M1219.18,406.28h39.08a17.81,17.81,0,0,1,.78-13.84H1218.4a17.81,17.81,0,0,1,.78,13.84Z"/><path class="cls-2" d="M1216.31,399.9a14.39,14.39,0,0,1-1.49,6.38h4.36a17.81,17.81,0,0,0-.78-13.84h-4.17A14.44,14.44,0,0,1,1216.31,399.9Z"/><path class="cls-2" d="M1187.35,399.9a14.36,14.36,0,0,1,2.09-7.46H1186a17.81,17.81,0,0,0-.78,13.84h3.59A14.4,14.4,0,0,1,1187.35,399.9Z"/><path class="cls-2" d="M1214.23,392.44h-.33a7.34,7.34,0,0,1,0,.81,7,7,0,1,1-14.08,0,7.34,7.34,0,0,1,.05-.81h-10.48a14.34,14.34,0,0,0-.59,13.84h26a14.41,14.41,0,0,0-.59-13.84Zm-1.06,11.77a2.35,2.35,0,1,1,2.35-2.35A2.35,2.35,0,0,1,1213.17,404.21Z"/><path class="cls-2" d="M1199.87,393.25a7,7,0,1,0,14.08,0,7.34,7.34,0,0,0,0-.81h-14A7.34,7.34,0,0,0,1199.87,393.25Z"/><path class="cls-2" d="M1213.17,399.51a2.35,2.35,0,1,0,2.35,2.35A2.35,2.35,0,0,0,1213.17,399.51Z"/><path class="cls-2" d="M1289.31,399.9a14.39,14.39,0,0,1-1.49,6.38h4.36a17.81,17.81,0,0,0-.78-13.84h-4.17A14.44,14.44,0,0,1,1289.31,399.9Z"/><path class="cls-2" d="M1258.26,406.28h3.59a14.34,14.34,0,0,1,.59-13.84H1259a17.81,17.81,0,0,0-.78,13.84Z"/><path class="cls-2" d="M1261.85,406.28h26a14.41,14.41,0,0,0-.59-13.84h-.33a7.34,7.34,0,0,1,0,.81,7,7,0,1,1-14.08,0,7.34,7.34,0,0,1,.05-.81h-10.48a14.34,14.34,0,0,0-.59,13.84Zm24.32-6.77a2.35,2.35,0,1,1-2.35,2.35A2.35,2.35,0,0,1,1286.17,399.51Z"/><path class="cls-2" d="M1272.87,393.25a7,7,0,1,0,14.08,0,7.34,7.34,0,0,0,0-.81h-14A7.34,7.34,0,0,0,1272.87,393.25Z"/><path class="cls-2" d="M1286.17,404.21a2.35,2.35,0,1,0-2.35-2.35A2.35,2.35,0,0,0,1286.17,404.21Z"/><path class="cls-2" d="M1201.83,385.42a14.6,14.6,0,0,1,4.74.81l.34,0a7,7,0,0,1,6.87,5.52c.16.23.3.47.45.71h4.17a18,18,0,0,0-32.36,0h3.4A14.45,14.45,0,0,1,1201.83,385.42Z"/><path class="cls-8" d="M1214.23,392.44c-.15-.24-.29-.48-.45-.71a4.21,4.21,0,0,1,.12.71Z"/><path class="cls-2" d="M1206.57,386.23a14.6,14.6,0,0,0-4.74-.81,14.45,14.45,0,0,0-12.39,7h10.48A7,7,0,0,1,1206.57,386.23Z"/><path class="cls-2" d="M1213.78,391.73a7,7,0,0,0-6.87-5.52l-.34,0A14.49,14.49,0,0,1,1213.78,391.73Z"/><path class="cls-2" d="M1199.92,392.44h14a4.21,4.21,0,0,0-.12-.71,14.49,14.49,0,0,0-7.21-5.5A7,7,0,0,0,1199.92,392.44Z"/><path class="cls-2" d="M1275.22,382.29A18,18,0,0,0,1259,392.44h3.4a14.45,14.45,0,0,1,12.39-7,14.6,14.6,0,0,1,4.74.81l.34,0a7,7,0,0,1,6.87,5.52c.16.23.3.47.45.71h4.17A18,18,0,0,0,1275.22,382.29Z"/><path class="cls-2" d="M1279.57,386.23a14.6,14.6,0,0,0-4.74-.81,14.45,14.45,0,0,0-12.39,7h10.48A7,7,0,0,1,1279.57,386.23Z"/><path class="cls-8" d="M1287.23,392.44c-.15-.24-.29-.48-.45-.71a4.21,4.21,0,0,1,.12.71Z"/><path class="cls-2" d="M1286.78,391.73a7,7,0,0,0-6.87-5.52l-.34,0A14.49,14.49,0,0,1,1286.78,391.73Z"/><path class="cls-2" d="M1272.92,392.44h14a4.21,4.21,0,0,0-.12-.71,14.49,14.49,0,0,0-7.21-5.5A7,7,0,0,0,1272.92,392.44Z"/><path class="cls-2" d="M1202.22,418.29a18,18,0,0,0,17-12h-4.36a14.46,14.46,0,0,1-26,0h-3.59A18,18,0,0,0,1202.22,418.29Z"/><path class="cls-2" d="M1201.83,414.38a14.47,14.47,0,0,0,13-8.1h-26A14.46,14.46,0,0,0,1201.83,414.38Z"/><path class="cls-2" d="M1274.83,414.38a14.46,14.46,0,0,1-13-8.1h-3.59a18,18,0,0,0,33.92,0h-4.36A14.47,14.47,0,0,1,1274.83,414.38Z"/><path class="cls-2" d="M1274.83,414.38a14.47,14.47,0,0,0,13-8.1h-26A14.46,14.46,0,0,0,1274.83,414.38Z"/></g><g id="_3-ben-hale" data-name="3-ben-hale"><g id="Layer_3-3" data-name="Layer 3"><path class="cls-1" d="M1556.31,538.13c10.34,42.73-14.15,88.1-42.76,139.12a2.64,2.64,0,0,0,.19,2.88c10.86,14.57,22.53,12.32,29.64,15.42,7.33,3.2,29.82-3.35,3.93-19-17.93-10.84,5.9-24.27,9.1-26a2.75,2.75,0,0,0,.64-.48c1.94-2,34.41-31.54,37.53-43.93,3.43-13.62,15.58-52,8.49-53-5.18-.74-32-12.87-43.12-18A2.62,2.62,0,0,0,1556.31,538.13Z"/><path class="cls-1" d="M1869.65,432c-4.43,64.17,37.21,258.32,40.26,250.57,21.67,21.25,31.69,9.75,31.25,29.33-3,10-42,2-42,2a25.65,25.65,0,0,1-15.15-6c-7.24-6-6.74-31.42-11.74-73.6s-78.86-103.8-78.86-103.8l26.45-20.31Z"/><rect class="cls-2" x="1571.69" y="274.84" width="235.56" height="353.6" rx="70.02" ry="70.02" transform="translate(1047.49 2078.34) rotate(-83.43)"/><path class="cls-2" d="M1627.38,149.1l-23.46,41.36-20.77-63.7L1542,185.34l-42.15-69.23L1479,174.49l-11.31-43.84c-38.88,55.5-32.43,85.89-13.12,111.71,27.37,36.33,95.6,116.78,95.6,116.78l23.47-3.29c-1.47-19.64,35.5-96,35.5-96S1633.27,197.43,1627.38,149.1Z"/><path class="cls-3" d="M1499.88,116.11,1542,185.34l41.12-58.58,20.77,63.7,23.46-41.36c-3.09-25.25-15-49.91-42.94-67.55-101.56-100.43-66.34-62.95-84.18,8.7a256.62,256.62,0,0,0-32.56,40.4L1479,174.49Z"/><polygon class="cls-2" points="1962.4 258.78 1956.74 306.74 1951.09 354.69 1924.83 342.97 1898.57 331.25 1930.48 295.02 1962.4 258.78"/><polygon class="cls-2" points="1757.66 258.86 1789.72 294.97 1821.77 331.07 1795.56 342.9 1769.35 354.72 1763.51 306.79 1757.66 258.86"/><polygon class="cls-4" points="1805.08 319.51 1788.67 327.82 1772.26 336.14 1772.18 315.63 1772.1 295.12 1788.59 307.31 1805.08 319.51"/><polygon class="cls-4" points="1945.57 340.43 1929.48 331.5 1913.4 322.56 1930.34 311 1947.29 299.45 1946.43 319.94 1945.57 340.43"/><path class="cls-3" d="M1959.26,433.14H1875a81.06,81.06,0,0,0,17.83,74.92l15.91-17.95Z"/><path class="cls-3" d="M1962.75,402.14a130.39,130.39,0,0,0-3.17-28.73c-2.09-.16-4.19-.27-6.32-.27a81,81,0,0,0-78.24,60h84A129.47,129.47,0,0,0,1962.75,402.14Z"/><path class="cls-2" d="M1858.5,285.14c-49.11,0-90.28,38.12-101.32,89.42a81,81,0,0,1,93.31,58.58H1875a81,81,0,0,1,78.24-60c2.13,0,4.23.11,6.32.27C1948.17,322.69,1907.24,285.14,1858.5,285.14Z"/><path class="cls-3" d="M1807.76,490.14,1828,512.93a80.92,80.92,0,0,0,22.54-79.79h-93.23Z"/><path class="cls-3" d="M1772.26,373.14a82.11,82.11,0,0,0-15.08,1.42,131.79,131.79,0,0,0,.78,58.58h92.53A81,81,0,0,0,1772.26,373.14Z"/><path class="cls-2" d="M1888.26,513.14v.14l4.59-5.19A81.06,81.06,0,0,1,1875,433.14h-24.53A80.92,80.92,0,0,1,1828,512.93l.31.35v-.14Z"/><polygon points="1888.26 513.14 1828.26 513.14 1828.26 513.28 1858.26 547.14 1888.26 513.28 1888.26 513.14"/><path class="cls-2" d="M1514.42,500c20.54-5.18,53.89,29.11,53.89,29.11s6.72,24.74-35.59,74.83c-2.15,4.39-46.39,54.21-50.14,57.35-11.69,9.78-.31,22.72,9.22,28.13,10.51,6,21.38,24.54-5.25,19.14-11.31-2.3-17.26-5.43-16.71-5.34s-16.07-6.93-20.37-9.46c-9.39-9.61,10.45-40.41,34.61-84.35C1512.82,568.54,1514.42,500,1514.42,500Z"/><path class="cls-2" d="M1828.51,530.53c19.44,20.21,33,132.34,25,156.34s34.79,12.3,27.11,31.63c-7.45,5.32-27.73-.19-41-1.33-7.27-.63-8.89-.49-11.41-3.7a19.74,19.74,0,0,1-3.36-17.55c7.47-26.37-7.44-97.51-18.53-121.06-11.85-12-26-36.84-26-36.84Z"/></g><path class="cls-7" d="M1842.22,446.13h39.08a17.81,17.81,0,0,1,.78-13.84h-40.64a17.81,17.81,0,0,1,.78,13.84Z"/><path class="cls-2" d="M1839.35,439.75a14.39,14.39,0,0,1-1.49,6.38h4.36a17.81,17.81,0,0,0-.78-13.84h-4.17A14.44,14.44,0,0,1,1839.35,439.75Z"/><path class="cls-2" d="M1810.39,439.75a14.36,14.36,0,0,1,2.09-7.46h-3.4a17.81,17.81,0,0,0-.78,13.84h3.59A14.4,14.4,0,0,1,1810.39,439.75Z"/><path class="cls-2" d="M1837.27,432.29h-.33a7.34,7.34,0,0,1,0,.81,7,7,0,1,1-14.08,0,7.34,7.34,0,0,1,0-.81h-10.48a14.34,14.34,0,0,0-.59,13.84h26a14.41,14.41,0,0,0-.59-13.84Zm-1.06,11.77a2.35,2.35,0,1,1,2.35-2.35A2.35,2.35,0,0,1,1836.21,444.06Z"/><path class="cls-2" d="M1822.91,433.1a7,7,0,1,0,14.08,0,7.34,7.34,0,0,0,0-.81h-14A7.34,7.34,0,0,0,1822.91,433.1Z"/><path class="cls-2" d="M1836.21,439.36a2.35,2.35,0,1,0,2.35,2.35A2.36,2.36,0,0,0,1836.21,439.36Z"/><path class="cls-2" d="M1912.35,439.75a14.39,14.39,0,0,1-1.49,6.38h4.36a17.81,17.81,0,0,0-.78-13.84h-4.17A14.44,14.44,0,0,1,1912.35,439.75Z"/><path class="cls-2" d="M1881.3,446.13h3.59a14.34,14.34,0,0,1,.59-13.84h-3.4a17.81,17.81,0,0,0-.78,13.84Z"/><path class="cls-2" d="M1884.89,446.13h26a14.41,14.41,0,0,0-.59-13.84h-.33a7.34,7.34,0,0,1,0,.81,7,7,0,1,1-14.08,0,7.34,7.34,0,0,1,0-.81h-10.48a14.34,14.34,0,0,0-.59,13.84Zm24.32-6.77a2.35,2.35,0,1,1-2.35,2.35A2.35,2.35,0,0,1,1909.21,439.36Z"/><path class="cls-2" d="M1895.91,433.1a7,7,0,1,0,14.08,0,7.34,7.34,0,0,0,0-.81h-14A7.34,7.34,0,0,0,1895.91,433.1Z"/><path class="cls-2" d="M1909.21,444.06a2.35,2.35,0,1,0-2.35-2.35A2.35,2.35,0,0,0,1909.21,444.06Z"/><path class="cls-2" d="M1824.87,425.27a14.6,14.6,0,0,1,4.74.81l.34,0a7,7,0,0,1,6.87,5.52c.16.23.3.47.45.71h4.17a18,18,0,0,0-32.36,0h3.4A14.47,14.47,0,0,1,1824.87,425.27Z"/><path class="cls-8" d="M1837.27,432.29c-.15-.24-.29-.48-.45-.71a4.39,4.39,0,0,1,.12.71Z"/><path class="cls-2" d="M1829.61,426.08a14.4,14.4,0,0,0-17.13,6.21H1823A7,7,0,0,1,1829.61,426.08Z"/><path class="cls-2" d="M1836.82,431.58a7,7,0,0,0-6.87-5.52l-.34,0A14.55,14.55,0,0,1,1836.82,431.58Z"/><path class="cls-2" d="M1823,432.29h14a4.39,4.39,0,0,0-.12-.71,14.55,14.55,0,0,0-7.21-5.5A7,7,0,0,0,1823,432.29Z"/><path class="cls-2" d="M1898.26,422.14a18,18,0,0,0-16.18,10.15h3.4a14.4,14.4,0,0,1,17.13-6.21l.34,0a7,7,0,0,1,6.87,5.52c.16.23.3.47.45.71h4.17A18,18,0,0,0,1898.26,422.14Z"/><path class="cls-2" d="M1902.61,426.08a14.4,14.4,0,0,0-17.13,6.21H1896A7,7,0,0,1,1902.61,426.08Z"/><path class="cls-8" d="M1910.27,432.29c-.15-.24-.29-.48-.45-.71a4.39,4.39,0,0,1,.12.71Z"/><path class="cls-2" d="M1909.82,431.58a7,7,0,0,0-6.87-5.52l-.34,0A14.55,14.55,0,0,1,1909.82,431.58Z"/><path class="cls-2" d="M1896,432.29h14a4.39,4.39,0,0,0-.12-.71,14.55,14.55,0,0,0-7.21-5.5A7,7,0,0,0,1896,432.29Z"/><path class="cls-2" d="M1825.26,458.14a18,18,0,0,0,17-12h-4.36a14.46,14.46,0,0,1-26,0h-3.59A18,18,0,0,0,1825.26,458.14Z"/><path class="cls-2" d="M1824.87,454.23a14.47,14.47,0,0,0,13-8.1h-26A14.47,14.47,0,0,0,1824.87,454.23Z"/><path class="cls-2" d="M1897.87,454.23a14.47,14.47,0,0,1-13-8.1h-3.59a18,18,0,0,0,33.92,0h-4.36A14.47,14.47,0,0,1,1897.87,454.23Z"/><path class="cls-2" d="M1897.87,454.23a14.47,14.47,0,0,0,13-8.1h-26A14.47,14.47,0,0,0,1897.87,454.23Z"/></g><g id="_4-x-hoved" data-name="4-x-hoved"><g id="_8-stå" data-name="8-stå"><g id="Layer_3-4" data-name="Layer 3"><path class="cls-1" d="M2231,538.13c10.34,42.73-14.15,88.1-42.76,139.12a2.64,2.64,0,0,0,.18,2.88c10.87,14.57,22.53,12.32,29.64,15.42,7.33,3.2,29.83-3.35,3.93-19-17.93-10.84,5.9-24.27,9.11-26a2.75,2.75,0,0,0,.64-.48c1.93-2,34.41-31.54,37.53-43.93,3.42-13.62,15.58-52,8.48-53-5.17-.74-32-12.87-43.11-18A2.62,2.62,0,0,0,2231,538.13Z"/><path class="cls-1" d="M2544.32,432c-4.43,64.17,37.21,258.32,40.26,250.57,21.67,21.25,31.68,9.75,31.24,29.33-3,10-42,2-42,2a25.65,25.65,0,0,1-15.15-6c-7.24-6-6.73-31.42-11.74-73.6s-78.85-103.8-78.85-103.8l26.45-20.31Z"/><rect class="cls-2" x="2246.35" y="274.84" width="235.56" height="353.6" rx="70.02" ry="70.02" transform="translate(1644.96 2748.57) rotate(-83.43)"/><path class="cls-2" d="M2302.05,149.1l-23.46,41.36-20.77-63.7-41.12,58.58-42.16-69.23-20.87,58.38-11.31-43.84c-38.87,55.5-32.43,85.89-13.11,111.71,27.37,36.33,95.59,116.78,95.59,116.78l23.48-3.29c-1.48-19.64,35.5-96,35.5-96S2307.93,197.43,2302.05,149.1Z"/><path class="cls-3" d="M2174.54,116.11l42.16,69.23,41.12-58.58,20.77,63.7,23.46-41.36c-3.1-25.25-15-49.91-42.94-67.55-101.56-100.43-66.35-62.95-84.18,8.7a257.25,257.25,0,0,0-32.57,40.4l11.31,43.84Z"/><polygon class="cls-2" points="2637.07 296.84 2631.41 335.7 2625.76 374.56 2599.5 365.07 2573.24 355.57 2605.15 326.21 2637.07 296.84"/><polygon class="cls-2" points="2432.33 296.9 2464.39 326.17 2496.44 355.42 2470.23 365.01 2444.02 374.59 2438.18 335.75 2432.33 296.9"/><polygon class="cls-4" points="2479.75 346.05 2463.34 352.79 2446.93 359.53 2446.85 342.91 2446.77 326.29 2463.26 336.17 2479.75 346.05"/><polygon class="cls-4" points="2620.24 363.01 2604.15 355.77 2588.07 348.52 2605.01 339.16 2621.96 329.8 2621.1 346.4 2620.24 363.01"/><path class="cls-3" d="M2633.93,438.14h-84.24c-7.06,21.38-.36,44.2,17.83,60.72l15.91-14.55Z"/><path class="cls-3" d="M2637.42,413a86.66,86.66,0,0,0-3.17-23.29c-2.09-.13-4.19-.21-6.32-.21-36.65,0-68.74,19.93-78.24,48.62h84A86.52,86.52,0,0,0,2637.42,413Z"/><path class="cls-2" d="M2533.17,318.2c-49.11,0-90.28,30.89-101.32,72.47,41.64-6.4,82.32,14.3,93.31,47.47h24.53c9.5-28.69,41.59-48.63,78.24-48.62,2.13,0,4.23.08,6.32.21C2622.84,348.63,2581.91,318.2,2533.17,318.2Z"/><path class="cls-3" d="M2482.43,484.33l20.19,18.47c21.6-16.56,30.25-41.39,22.54-64.66h-93.23Z"/><path class="cls-3" d="M2446.93,389.52a98.57,98.57,0,0,0-15.08,1.15,87.12,87.12,0,0,0,.78,47.47h92.53C2515.66,409.46,2483.58,389.52,2446.93,389.52Z"/><path class="cls-2" d="M2562.93,503v.12l4.59-4.21c-18.2-16.52-24.9-39.35-17.83-60.74h-24.53c7.71,23.27-.94,48.1-22.54,64.66l.31.29V503Z"/><polygon points="2562.93 502.97 2502.93 502.97 2502.93 503.09 2532.93 530.53 2562.93 503.09 2562.93 502.97"/><path class="cls-2" d="M2189.08,500c20.55-5.18,53.89,29.11,53.89,29.11s6.73,24.74-35.59,74.83c-2.14,4.39-46.39,54.21-50.13,57.35-11.69,9.78-.31,22.72,9.21,28.13,10.51,6,21.38,24.54-5.24,19.14-11.31-2.3-17.27-5.43-16.72-5.34s-16.07-6.93-20.36-9.46c-9.39-9.61,10.45-40.41,34.61-84.35C2187.49,568.54,2189.08,500,2189.08,500Z"/><path class="cls-2" d="M2503.18,530.53c19.44,20.21,33,132.34,25,156.34s34.8,12.3,27.12,31.63c-7.46,5.32-27.73-.19-41-1.33-7.27-.63-8.89-.49-11.41-3.7a19.71,19.71,0,0,1-3.36-17.55c7.47-26.37-7.44-97.51-18.54-121.06C2469.09,562.86,2455,538,2455,538Z"/></g><path class="cls-7" d="M2516.89,448.66H2556a12.1,12.1,0,0,1-1-4.85,12.36,12.36,0,0,1,1.82-6.36h-40.64a12.36,12.36,0,0,1,1.82,6.36A12.1,12.1,0,0,1,2516.89,448.66Z"/><path class="cls-2" d="M2514,443.5a10,10,0,0,1-1.49,5.16h4.36a12.1,12.1,0,0,0,1-4.85,12.36,12.36,0,0,0-1.82-6.36h-4.18A10.05,10.05,0,0,1,2514,443.5Z"/><path class="cls-2" d="M2485.06,443.5a10.05,10.05,0,0,1,2.09-6.05h-3.4a12.36,12.36,0,0,0-1.82,6.36,12.1,12.1,0,0,0,1,4.85h3.58A10,10,0,0,1,2485.06,443.5Z"/><path class="cls-2" d="M2511.93,437.45h-.32a4.89,4.89,0,0,1,0,.66c0,3.15-3.15,5.7-7,5.7s-7-2.55-7-5.7a4.89,4.89,0,0,1,.05-.66h-10.48a9.75,9.75,0,0,0-.6,11.21h26a9.75,9.75,0,0,0-.6-11.21Zm-1,9.54a1.95,1.95,0,1,1,2.35-1.9A2.16,2.16,0,0,1,2510.88,447Z"/><path class="cls-2" d="M2497.58,438.11c0,3.15,3.15,5.7,7,5.7s7-2.55,7-5.7a4.89,4.89,0,0,0,0-.66h-14A4.89,4.89,0,0,0,2497.58,438.11Z"/><path class="cls-2" d="M2510.88,443.18a1.95,1.95,0,1,0,2.35,1.91A2.16,2.16,0,0,0,2510.88,443.18Z"/><path class="cls-2" d="M2587,443.5a10,10,0,0,1-1.49,5.16h4.36a12.1,12.1,0,0,0,1-4.85,12.36,12.36,0,0,0-1.82-6.36h-4.18A10.05,10.05,0,0,1,2587,443.5Z"/><path class="cls-2" d="M2556,448.66h3.58a9.75,9.75,0,0,1,.6-11.21h-3.4a12.36,12.36,0,0,0-1.82,6.36A12.1,12.1,0,0,0,2556,448.66Z"/><path class="cls-2" d="M2559.55,448.66h26a9.75,9.75,0,0,0-.6-11.21h-.32a4.89,4.89,0,0,1,0,.66c0,3.15-3.15,5.7-7,5.7s-7-2.55-7-5.7a4.89,4.89,0,0,1,.05-.66h-10.48a9.75,9.75,0,0,0-.6,11.21Zm24.33-5.48a1.95,1.95,0,1,1-2.35,1.91A2.16,2.16,0,0,1,2583.88,443.18Z"/><path class="cls-2" d="M2570.58,438.11c0,3.15,3.15,5.7,7,5.7s7-2.55,7-5.7a4.89,4.89,0,0,0,0-.66h-14A4.89,4.89,0,0,0,2570.58,438.11Z"/><path class="cls-2" d="M2583.88,447a1.95,1.95,0,1,0-2.35-1.9A2.16,2.16,0,0,0,2583.88,447Z"/><path class="cls-2" d="M2499.54,431.76a17.32,17.32,0,0,1,4.73.66l.35,0c3.37,0,6.17,1.92,6.87,4.47.16.19.3.39.44.58h4.18c-2.92-4.86-9.06-8.22-16.18-8.22s-13.26,3.36-16.18,8.22h3.4A15.4,15.4,0,0,1,2499.54,431.76Z"/><path class="cls-8" d="M2511.93,437.45c-.14-.19-.28-.39-.44-.58.05.19.09.39.12.58Z"/><path class="cls-2" d="M2504.27,432.42a17.32,17.32,0,0,0-4.73-.66,15.4,15.4,0,0,0-12.39,5.69h10.48C2498,434.7,2500.82,432.55,2504.27,432.42Z"/><path class="cls-2" d="M2511.49,436.87c-.7-2.55-3.5-4.47-6.87-4.47l-.35,0A14.58,14.58,0,0,1,2511.49,436.87Z"/><path class="cls-2" d="M2497.63,437.45h14c0-.19-.07-.39-.12-.58a14.58,14.58,0,0,0-7.22-4.45C2500.82,432.55,2498,434.7,2497.63,437.45Z"/><path class="cls-2" d="M2572.93,429.23c-7.12,0-13.26,3.36-16.18,8.22h3.4a15.4,15.4,0,0,1,12.39-5.69,17.32,17.32,0,0,1,4.73.66l.35,0c3.37,0,6.17,1.92,6.87,4.47.16.19.3.39.44.58h4.18C2586.19,432.59,2580.05,429.23,2572.93,429.23Z"/><path class="cls-2" d="M2577.27,432.42a17.32,17.32,0,0,0-4.73-.66,15.4,15.4,0,0,0-12.39,5.69h10.48C2571,434.7,2573.82,432.55,2577.27,432.42Z"/><path class="cls-8" d="M2584.93,437.45c-.14-.19-.28-.39-.44-.58.05.19.09.39.12.58Z"/><path class="cls-2" d="M2584.49,436.87c-.7-2.55-3.5-4.47-6.87-4.47l-.35,0A14.58,14.58,0,0,1,2584.49,436.87Z"/><path class="cls-2" d="M2570.63,437.45h14c0-.19-.07-.39-.12-.58a14.58,14.58,0,0,0-7.22-4.45C2573.82,432.55,2571,434.7,2570.63,437.45Z"/><path class="cls-2" d="M2499.93,458.4c7.84,0,14.49-4.07,17-9.74h-4.36c-2.36,3.89-7.28,6.57-13,6.57s-10.63-2.68-13-6.57H2483C2485.44,454.33,2492.09,458.4,2499.93,458.4Z"/><path class="cls-2" d="M2499.54,455.23c5.71,0,10.63-2.68,13-6.57h-26C2488.91,452.55,2493.83,455.23,2499.54,455.23Z"/><path class="cls-2" d="M2572.54,455.23c-5.71,0-10.63-2.68-13-6.57H2556c2.47,5.67,9.12,9.74,17,9.74s14.49-4.07,17-9.74h-4.36C2583.17,452.55,2578.25,455.23,2572.54,455.23Z"/><path class="cls-2" d="M2572.54,455.23c5.71,0,10.63-2.68,13-6.57h-26C2561.91,452.55,2566.83,455.23,2572.54,455.23Z"/></g><text class="cls-9" transform="translate(2564.02 419.78)">X</text></g><g id="_5-normal-hoved" data-name="5-normal-hoved"><g id="_3-ben-hale-2" data-name="3-ben-hale"><g id="Layer_3-5" data-name="Layer 3"><path class="cls-1" d="M2905.53,539c10.34,42.72-14.15,88.1-42.76,139.12A2.65,2.65,0,0,0,2863,681c10.86,14.57,22.53,12.31,29.64,15.42,7.33,3.2,29.82-3.35,3.93-19-17.93-10.84,5.9-24.27,9.1-26a2.54,2.54,0,0,0,.64-.49c1.94-2,34.41-31.53,37.53-43.92,3.43-13.62,15.58-52,8.49-53-5.18-.73-32-12.87-43.12-18A2.62,2.62,0,0,0,2905.53,539Z"/><path class="cls-1" d="M3218.87,432.82c-4.43,64.17,37.21,258.33,40.26,250.58,21.67,21.25,31.69,9.75,31.25,29.33-3,10-42,2-42,2a25.65,25.65,0,0,1-15.15-6c-7.24-6-6.74-31.42-11.74-73.6s-78.86-103.81-78.86-103.81L3169.08,511Z"/><rect class="cls-2" x="2920.91" y="275.66" width="235.56" height="353.6" rx="70.02" ry="70.02" transform="translate(2241.52 3419.42) rotate(-83.43)"/><path class="cls-2" d="M2976.6,149.92l-23.46,41.36-20.77-63.71-41.12,58.58-42.15-69.23-20.87,58.39-11.31-43.85c-38.88,55.51-32.43,85.9-13.12,111.72,27.37,36.33,95.6,116.78,95.6,116.78l23.47-3.29c-1.47-19.64,35.5-96,35.5-96S2982.49,198.25,2976.6,149.92Z"/><path class="cls-3" d="M2849.1,116.92l42.15,69.23,41.12-58.58,20.77,63.71,23.46-41.36c-3.09-25.25-15-49.91-42.94-67.55-101.56-100.43-66.34-62.95-84.18,8.7a256.54,256.54,0,0,0-32.56,40.39l11.31,43.85Z"/><polygon class="cls-2" points="3311.62 259.6 3305.96 307.56 3300.31 355.51 3274.05 343.79 3247.79 332.07 3279.7 295.84 3311.62 259.6"/><polygon class="cls-2" points="3106.88 259.68 3138.94 295.79 3170.99 331.89 3144.78 343.72 3118.57 355.54 3112.73 307.61 3106.88 259.68"/><polygon class="cls-4" points="3154.3 320.33 3137.89 328.64 3121.48 336.96 3121.4 316.45 3121.32 295.94 3137.81 308.13 3154.3 320.33"/><polygon class="cls-4" points="3294.79 341.25 3278.7 332.32 3262.62 323.38 3279.56 311.82 3296.51 300.27 3295.65 320.76 3294.79 341.25"/><path class="cls-3" d="M3308.48,434h-84.24a81.06,81.06,0,0,0,17.83,74.92L3258,490.93Z"/><path class="cls-3" d="M3312,403a130.39,130.39,0,0,0-3.17-28.73c-2.09-.16-4.19-.27-6.32-.27a81,81,0,0,0-78.24,60h84A129.47,129.47,0,0,0,3312,403Z"/><path class="cls-2" d="M3207.72,286c-49.11,0-90.28,38.12-101.32,89.42A81,81,0,0,1,3199.71,434h24.53a81,81,0,0,1,78.24-60c2.13,0,4.23.11,6.32.27C3297.39,323.51,3256.46,286,3207.72,286Z"/><path class="cls-3" d="M3157,491l20.19,22.79A80.93,80.93,0,0,0,3199.71,434h-93.23Z"/><path class="cls-3" d="M3121.48,374a82.11,82.11,0,0,0-15.08,1.42,131.79,131.79,0,0,0,.78,58.58h92.53A81,81,0,0,0,3121.48,374Z"/><path class="cls-2" d="M3237.48,514v.14l4.59-5.19a81.07,81.07,0,0,1-17.83-75h-24.53a80.93,80.93,0,0,1-22.54,79.79l.31.35V514Z"/><polygon points="3237.48 513.96 3177.48 513.96 3177.48 514.1 3207.48 547.96 3237.48 514.1 3237.48 513.96"/><path class="cls-2" d="M2863.64,500.81c20.54-5.19,53.89,29.11,53.89,29.11s6.72,24.74-35.59,74.83c-2.15,4.39-46.39,54.21-50.14,57.34-11.69,9.78-.31,22.73,9.22,28.14,10.51,6,21.38,24.54-5.25,19.14-11.31-2.3-17.26-5.43-16.71-5.34s-16.07-6.93-20.37-9.46c-9.39-9.61,10.45-40.41,34.61-84.35C2862,569.36,2863.64,500.81,2863.64,500.81Z"/><path class="cls-2" d="M3177.73,531.34c19.44,20.22,33,132.34,25,156.34s34.79,12.31,27.11,31.64c-7.45,5.32-27.73-.19-41-1.33-7.27-.63-8.89-.49-11.41-3.7a19.75,19.75,0,0,1-3.36-17.55c7.47-26.37-7.44-97.52-18.53-121.06-11.85-12-25.95-36.84-25.95-36.84Z"/></g><path class="cls-7" d="M3191.44,447h39.08a17.81,17.81,0,0,1,.78-13.84h-40.64a17.81,17.81,0,0,1,.78,13.84Z"/><path class="cls-2" d="M3188.57,440.57a14.39,14.39,0,0,1-1.49,6.38h4.36a17.81,17.81,0,0,0-.78-13.84h-4.17A14.44,14.44,0,0,1,3188.57,440.57Z"/><path class="cls-2" d="M3159.61,440.57a14.36,14.36,0,0,1,2.09-7.46h-3.4a17.81,17.81,0,0,0-.78,13.84h3.59A14.4,14.4,0,0,1,3159.61,440.57Z"/><path class="cls-2" d="M3186.49,433.11h-.33a7.34,7.34,0,0,1,.05.81,7,7,0,1,1-14.08,0,7.34,7.34,0,0,1,0-.81H3161.7a14.34,14.34,0,0,0-.59,13.84h26a14.41,14.41,0,0,0-.59-13.84Zm-1.06,11.77a2.35,2.35,0,1,1,2.35-2.35A2.35,2.35,0,0,1,3185.43,444.88Z"/><path class="cls-2" d="M3172.13,433.92a7,7,0,1,0,14.08,0,7.34,7.34,0,0,0-.05-.81h-14A7.34,7.34,0,0,0,3172.13,433.92Z"/><path class="cls-2" d="M3185.43,440.18a2.35,2.35,0,1,0,2.35,2.35A2.35,2.35,0,0,0,3185.43,440.18Z"/><path class="cls-2" d="M3261.57,440.57a14.39,14.39,0,0,1-1.49,6.38h4.36a17.81,17.81,0,0,0-.78-13.84h-4.17A14.44,14.44,0,0,1,3261.57,440.57Z"/><path class="cls-2" d="M3230.52,447h3.59a14.34,14.34,0,0,1,.59-13.84h-3.4a17.81,17.81,0,0,0-.78,13.84Z"/><path class="cls-2" d="M3234.11,447h26a14.41,14.41,0,0,0-.59-13.84h-.33a7.34,7.34,0,0,1,.05.81,7,7,0,1,1-14.08,0,7.34,7.34,0,0,1,0-.81H3234.7a14.34,14.34,0,0,0-.59,13.84Zm24.32-6.77a2.35,2.35,0,1,1-2.35,2.35A2.35,2.35,0,0,1,3258.43,440.18Z"/><path class="cls-2" d="M3245.13,433.92a7,7,0,1,0,14.08,0,7.34,7.34,0,0,0-.05-.81h-14A7.34,7.34,0,0,0,3245.13,433.92Z"/><path class="cls-2" d="M3258.43,444.88a2.35,2.35,0,1,0-2.35-2.35A2.35,2.35,0,0,0,3258.43,444.88Z"/><path class="cls-2" d="M3174.09,426.09a14.6,14.6,0,0,1,4.74.81l.34,0a7,7,0,0,1,6.87,5.52c.16.23.3.47.45.71h4.17a18,18,0,0,0-32.36,0h3.4A14.47,14.47,0,0,1,3174.09,426.09Z"/><path class="cls-8" d="M3186.49,433.11c-.15-.24-.29-.48-.45-.71a4.21,4.21,0,0,1,.12.71Z"/><path class="cls-2" d="M3178.83,426.9a14.4,14.4,0,0,0-17.13,6.21h10.48A7,7,0,0,1,3178.83,426.9Z"/><path class="cls-2" d="M3186,432.4a7,7,0,0,0-6.87-5.52l-.34,0A14.49,14.49,0,0,1,3186,432.4Z"/><path class="cls-2" d="M3172.18,433.11h14a4.21,4.21,0,0,0-.12-.71,14.49,14.49,0,0,0-7.21-5.5A7,7,0,0,0,3172.18,433.11Z"/><path class="cls-2" d="M3247.48,423a18,18,0,0,0-16.18,10.15h3.4a14.4,14.4,0,0,1,17.13-6.21l.34,0a7,7,0,0,1,6.87,5.52c.16.23.3.47.45.71h4.17A18,18,0,0,0,3247.48,423Z"/><path class="cls-2" d="M3251.83,426.9a14.4,14.4,0,0,0-17.13,6.21h10.48A7,7,0,0,1,3251.83,426.9Z"/><path class="cls-8" d="M3259.49,433.11c-.15-.24-.29-.48-.45-.71a4.21,4.21,0,0,1,.12.71Z"/><path class="cls-2" d="M3259,432.4a7,7,0,0,0-6.87-5.52l-.34,0A14.49,14.49,0,0,1,3259,432.4Z"/><path class="cls-2" d="M3245.18,433.11h14a4.21,4.21,0,0,0-.12-.71,14.49,14.49,0,0,0-7.21-5.5A7,7,0,0,0,3245.18,433.11Z"/><path class="cls-2" d="M3174.48,459a18,18,0,0,0,17-12h-4.36a14.46,14.46,0,0,1-26,0h-3.59A18,18,0,0,0,3174.48,459Z"/><path class="cls-2" d="M3174.09,455.05a14.47,14.47,0,0,0,13-8.1h-26A14.47,14.47,0,0,0,3174.09,455.05Z"/><path class="cls-2" d="M3247.09,455.05a14.47,14.47,0,0,1-13-8.1h-3.59a18,18,0,0,0,33.92,0h-4.36A14.47,14.47,0,0,1,3247.09,455.05Z"/><path class="cls-2" d="M3247.09,455.05a14.47,14.47,0,0,0,13-8.1h-26A14.47,14.47,0,0,0,3247.09,455.05Z"/></g><g id="_4-x-hoved-2" data-name="4-x-hoved"><text class="cls-9" transform="translate(3249.39 405.18)">X</text></g></g><g id="_3-ben-hale-3" data-name="3-ben-hale"><g id="Layer_3-6" data-name="Layer 3"><path class="cls-1" d="M3610.87,518.26c10.34,42.73-14.16,88.11-42.77,139.12a2.66,2.66,0,0,0,.19,2.89c10.86,14.56,22.53,12.31,29.64,15.41,7.33,3.2,29.83-3.35,3.93-19-17.93-10.85,5.9-24.28,9.1-26a2.38,2.38,0,0,0,.65-.48c1.93-2,34.41-31.54,37.52-43.93,3.43-13.62,15.59-52,8.49-53-5.17-.74-32-12.87-43.11-18A2.61,2.61,0,0,0,3610.87,518.26Z"/><path class="cls-1" d="M3924.21,412.14c-4.44,64.17,37.21,258.33,40.26,250.58,21.66,21.25,31.68,9.75,31.24,29.32-3,10-42,2-42,2a25.6,25.6,0,0,1-15.15-6c-7.24-6.05-6.74-31.43-11.74-73.6S3848,510.66,3848,510.66l26.45-20.31Z"/><rect class="cls-2" x="3626.24" y="254.97" width="235.56" height="353.6" rx="70.02" ry="70.02" transform="translate(2886.7 4101.8) rotate(-83.43)"/><path class="cls-2" d="M3609.21,127.73l-9.31,46.63-39.7-54-20.67,68.52-61.74-52.52-1.51,62-24.49-38.08c-19.51,64.89-3.86,91.73,22.58,110.19,37.38,25.92,127.39,80.92,127.39,80.92L3623,340.9c-7.56-18.19,3.61-102.28,3.61-102.28S3630,171.78,3609.21,127.73Z"/><path class="cls-3" d="M3477.79,136.38l61.74,52.52,20.67-68.52,39.7,54,9.31-46.63c-10.85-23-29.9-42.68-62-50.68-127.93-63.52-82.74-39-77.2,34.66a256.6,256.6,0,0,0-18.26,48.57l24.49,38.08Z"/><polygon class="cls-2" points="4016.96 238.92 4011.3 286.88 4005.65 334.83 3979.39 323.11 3953.13 311.39 3985.04 275.16 4016.96 238.92"/><polygon class="cls-2" points="3812.22 239 3844.28 275.11 3876.33 311.21 3850.12 323.04 3823.91 334.86 3818.07 286.93 3812.22 239"/><polygon class="cls-4" points="3859.64 299.65 3843.23 307.96 3826.82 316.28 3826.74 295.77 3826.66 275.26 3843.15 287.45 3859.64 299.65"/><polygon class="cls-4" points="4000.13 320.57 3984.04 311.64 3967.96 302.7 3984.9 291.14 4001.85 279.59 4000.99 300.08 4000.13 320.57"/><path class="cls-3" d="M4013.82,413.28h-84.24a81,81,0,0,0,17.83,74.92l15.91-17.95Z"/><path class="cls-3" d="M4017.31,382.28a130.93,130.93,0,0,0-3.17-28.73c-2.09-.16-4.19-.27-6.32-.27a81,81,0,0,0-78.24,60h84A130.62,130.62,0,0,0,4017.31,382.28Z"/><path class="cls-2" d="M3913.06,265.28c-49.11,0-90.28,38.12-101.32,89.42a81,81,0,0,1,93.31,58.58h24.53a81,81,0,0,1,78.24-60c2.13,0,4.23.11,6.32.27C4002.73,302.83,3961.8,265.28,3913.06,265.28Z"/><path class="cls-3" d="M3862.32,470.28l20.19,22.79a81,81,0,0,0,22.54-79.79h-93.23Z"/><path class="cls-3" d="M3826.82,353.28a81.16,81.16,0,0,0-15.08,1.42,131.65,131.65,0,0,0,.78,58.58h92.53A81,81,0,0,0,3826.82,353.28Z"/><path class="cls-2" d="M3942.82,493.28v.14l4.59-5.19a81,81,0,0,1-17.83-75h-24.53a81,81,0,0,1-22.54,79.79l.31.35v-.14Z"/><polygon points="3942.82 493.28 3882.82 493.28 3882.82 493.42 3912.82 527.28 3942.82 493.42 3942.82 493.28"/><path class="cls-2" d="M3569,480.12c20.55-5.18,53.89,29.12,53.89,29.12s6.72,24.74-35.59,74.82c-2.14,4.39-46.39,54.21-50.13,57.35-11.69,9.78-.31,22.73,9.21,28.13,10.51,6,21.38,24.55-5.24,19.14-11.32-2.29-17.27-5.43-16.72-5.33s-16.07-6.93-20.36-9.47c-9.4-9.61,10.44-40.4,34.61-84.35C3567.37,548.67,3569,480.12,3569,480.12Z"/><path class="cls-2" d="M3883.06,510.66C3902.5,530.87,3916,643,3908,667s34.8,12.3,27.11,31.63c-7.45,5.32-27.72-.19-41-1.33-7.26-.62-8.88-.48-11.41-3.7a19.76,19.76,0,0,1-3.36-17.54c7.48-26.37-7.44-97.52-18.53-121.07-11.85-12-25.94-36.84-25.94-36.84Z"/></g><path class="cls-7" d="M3896.78,426.26h39.08a17.78,17.78,0,0,1,.78-13.83H3896a17.78,17.78,0,0,1,.78,13.83Z"/><path class="cls-5" d="M3893.91,419.89a14.49,14.49,0,0,1-1.49,6.37h4.36a17.78,17.78,0,0,0-.78-13.83h-4.18A14.33,14.33,0,0,1,3893.91,419.89Z"/><path class="cls-5" d="M3865,419.89a14.42,14.42,0,0,1,2.08-7.46h-3.39a17.78,17.78,0,0,0-.78,13.83h3.58A14.35,14.35,0,0,1,3865,419.89Z"/><path d="M3891.82,412.43h-.32a7,7,0,1,1-14,0H3867a14.39,14.39,0,0,0-.59,13.83h26a14.49,14.49,0,0,0,1.49-6.37A14.33,14.33,0,0,0,3891.82,412.43Zm-1.05,11.77a2.35,2.35,0,1,1,2.35-2.35A2.35,2.35,0,0,1,3890.77,424.2Z"/><path class="cls-6" d="M3877.47,413.24a7,7,0,1,0,14-.81h-14A7,7,0,0,0,3877.47,413.24Z"/><path class="cls-6" d="M3890.77,419.5a2.35,2.35,0,1,0,2.35,2.35A2.35,2.35,0,0,0,3890.77,419.5Z"/><path class="cls-5" d="M3966.91,419.89a14.49,14.49,0,0,1-1.49,6.37h4.36a17.78,17.78,0,0,0-.78-13.83h-4.18A14.33,14.33,0,0,1,3966.91,419.89Z"/><path class="cls-5" d="M3935.86,426.26h3.58a14.39,14.39,0,0,1,.59-13.83h-3.39a17.78,17.78,0,0,0-.78,13.83Z"/><path d="M3939.44,426.26h26a14.49,14.49,0,0,0,1.49-6.37,14.33,14.33,0,0,0-2.09-7.46h-.32a7,7,0,1,1-14,0H3940a14.39,14.39,0,0,0-.59,13.83Zm24.33-6.76a2.35,2.35,0,1,1-2.35,2.35A2.35,2.35,0,0,1,3963.77,419.5Z"/><path class="cls-6" d="M3950.47,413.24a7,7,0,1,0,14-.81h-14A7,7,0,0,0,3950.47,413.24Z"/><path class="cls-6" d="M3963.77,424.2a2.35,2.35,0,1,0-2.35-2.35A2.35,2.35,0,0,0,3963.77,424.2Z"/><path class="cls-2" d="M3879.43,405.41a14.49,14.49,0,0,1,4.73.8h.35a7,7,0,0,1,6.87,5.52c.16.23.3.47.44.71H3896a18,18,0,0,0-32.36,0H3867A14.47,14.47,0,0,1,3879.43,405.41Z"/><path class="cls-8" d="M3891.82,412.43c-.14-.24-.28-.48-.44-.71,0,.23.09.47.12.71Z"/><path class="cls-2" d="M3884.16,406.21a14.44,14.44,0,0,0-17.13,6.22h10.49A7,7,0,0,1,3884.16,406.21Z"/><path class="cls-2" d="M3891.38,411.72a7,7,0,0,0-6.87-5.52h-.35A14.53,14.53,0,0,1,3891.38,411.72Z"/><path class="cls-2" d="M3877.52,412.43h14c0-.24-.07-.48-.12-.71a14.53,14.53,0,0,0-7.22-5.51A7,7,0,0,0,3877.52,412.43Z"/><path class="cls-2" d="M3952.82,402.28a18,18,0,0,0-16.18,10.15H3940a14.44,14.44,0,0,1,17.13-6.22h.35a7,7,0,0,1,6.87,5.52c.16.23.3.47.44.71H3969A18,18,0,0,0,3952.82,402.28Z"/><path class="cls-2" d="M3957.16,406.21a14.44,14.44,0,0,0-17.13,6.22h10.49A7,7,0,0,1,3957.16,406.21Z"/><path class="cls-8" d="M3964.82,412.43c-.14-.24-.28-.48-.44-.71,0,.23.09.47.12.71Z"/><path class="cls-2" d="M3964.38,411.72a7,7,0,0,0-6.87-5.52h-.35A14.53,14.53,0,0,1,3964.38,411.72Z"/><path class="cls-2" d="M3950.52,412.43h14c0-.24-.07-.48-.12-.71a14.53,14.53,0,0,0-7.22-5.51A7,7,0,0,0,3950.52,412.43Z"/><path class="cls-2" d="M3879.82,438.28a18,18,0,0,0,17-12h-4.36a14.46,14.46,0,0,1-26,0h-3.58A18,18,0,0,0,3879.82,438.28Z"/><path class="cls-2" d="M3879.43,434.37a14.47,14.47,0,0,0,13-8.11h-26A14.47,14.47,0,0,0,3879.43,434.37Z"/><path class="cls-2" d="M3952.43,434.37a14.47,14.47,0,0,1-13-8.11h-3.58a18,18,0,0,0,33.92,0h-4.36A14.47,14.47,0,0,1,3952.43,434.37Z"/><path class="cls-2" d="M3952.43,434.37a14.47,14.47,0,0,0,13-8.11h-26A14.47,14.47,0,0,0,3952.43,434.37Z"/></g><g id="_4-x-hoved-3" data-name="4-x-hoved"><text class="cls-9" transform="translate(3954.72 384.49)">X</text></g><g id="_1-stå-2" data-name="1-stå"><g id="Layer_3-7" data-name="Layer 3"><path class="cls-1" d="M4304.83,516.84c26.56,35,22.26,86.41,16.44,144.61a2.67,2.67,0,0,0,1.33,2.57c15.78,9,25.57,2.27,33.33,2.27,8,0,26-15-4-19-20.77-2.77-4.31-24.61-2.05-27.46a2.55,2.55,0,0,0,.39-.7c1-2.62,18.93-42.67,16.83-55.27-2.31-13.86-6.52-53.91-13.43-52-5,1.39-34.48,1-46.7.78A2.61,2.61,0,0,0,4304.83,516.84Z"/><path class="cls-1" d="M4640.17,391.19c-4.43,64.17,37.21,258.33,40.26,250.58,21.67,21.25,31.68,9.75,31.24,29.32-3,10-42,2-42,2a25.65,25.65,0,0,1-15.15-6c-7.24-6-6.73-31.43-11.73-73.6s-78.86-103.81-78.86-103.81l26.45-20.31Z"/><rect class="cls-2" x="4342.2" y="234.03" width="235.56" height="353.6" rx="70.02" ry="70.02" transform="translate(3541.56 4794.52) rotate(-83.43)"/><path class="cls-2" d="M4262.85,109.59l2.46,47.49-51.77-42.54L4210.37,186l-72.77-35.7,13.8,60.45-33.11-30.89c-2.93,67.7,18.84,89.86,49,101.25,42.61,15.91,143.39,47.06,143.39,47.06l18-15.39c-11.81-15.77-21.69-100-21.69-100S4293.8,147.18,4262.85,109.59Z"/><path class="cls-3" d="M4137.6,150.33l72.77,35.7,3.17-71.49,51.77,42.54-2.46-47.49c-16.19-19.62-39.49-34-72.53-33.86-139.63-30.07-89.78-17.41-66.29,52.59a257,257,0,0,0-5.74,51.57l33.11,30.89Z"/><polygon class="cls-2" points="4732.92 180.79 4727.26 228.75 4721.61 276.7 4695.35 264.98 4669.09 253.26 4701 217.03 4732.92 180.79"/><polygon class="cls-2" points="4528.18 180.87 4560.24 216.98 4592.29 253.08 4566.08 264.91 4539.87 276.73 4534.03 228.8 4528.18 180.87"/><polygon class="cls-4" points="4575.6 241.52 4559.19 249.83 4542.78 258.15 4542.7 237.64 4542.62 217.13 4559.11 229.32 4575.6 241.52"/><polygon class="cls-4" points="4716.09 262.44 4700 253.51 4683.92 244.57 4700.86 233.01 4717.81 221.46 4716.95 241.95 4716.09 262.44"/><path class="cls-3" d="M4729.78,355.15h-84.24a81.06,81.06,0,0,0,17.83,74.92l15.91-17.95Z"/><path class="cls-3" d="M4733.27,324.15a130.39,130.39,0,0,0-3.17-28.73c-2.09-.16-4.19-.27-6.32-.27a81,81,0,0,0-78.24,60h84A130,130,0,0,0,4733.27,324.15Z"/><path class="cls-2" d="M4629,207.15c-49.11,0-90.28,38.12-101.32,89.42A81,81,0,0,1,4621,355.15h24.53a81,81,0,0,1,78.24-60c2.13,0,4.23.11,6.32.27C4718.69,244.7,4677.76,207.15,4629,207.15Z"/><path class="cls-3" d="M4578.28,412.15l20.19,22.79A81,81,0,0,0,4621,355.15h-93.23Z"/><path class="cls-3" d="M4542.78,295.15a81.16,81.16,0,0,0-15.08,1.42,131.79,131.79,0,0,0,.78,58.58H4621A81,81,0,0,0,4542.78,295.15Z"/><path class="cls-2" d="M4658.78,435.15v.14l4.59-5.19a81.07,81.07,0,0,1-17.83-75H4621a81,81,0,0,1-22.54,79.79l.31.35v-.14Z"/><polygon points="4658.78 435.15 4598.78 435.15 4598.78 435.29 4628.78 469.15 4658.78 435.29 4658.78 435.15"/><circle class="cls-5" cx="4595.78" cy="362.15" r="18"/><circle cx="4595.39" cy="361.76" r="14.48"/><circle class="cls-6" cx="4600.47" cy="355.11" r="7.04"/><circle class="cls-6" cx="4606.73" cy="363.72" r="2.35"/><circle class="cls-5" cx="4668.78" cy="362.15" r="18"/><circle cx="4668.39" cy="361.76" r="14.48"/><circle class="cls-6" cx="4673.47" cy="355.11" r="7.04"/><circle class="cls-6" cx="4679.73" cy="363.72" r="2.35"/><path class="cls-2" d="M4285,463.36c18-11.18,60.19,11.35,60.19,11.35s13.93,21.53-11.15,82.11c-.7,4.83-27.71,65.75-30.32,69.87-8.17,12.87,6.61,21.75,17.33,24,11.82,2.49,27.83,16.88.82,19.83-11.47,1.25-18.1.08-17.55,0s-17.41-1.72-22.27-2.83c-11.87-6.3-2.33-41.66,7.32-90.87C4304.29,529.15,4285,463.36,4285,463.36Z"/><path class="cls-2" d="M4599,489.71c19.44,20.22,33,132.34,25,156.34s34.79,12.3,27.11,31.64c-7.45,5.32-27.73-.2-41-1.34-7.27-.62-8.89-.48-11.41-3.69a19.73,19.73,0,0,1-3.36-17.55c7.47-26.37-7.44-97.52-18.53-121.06-11.85-12-25.95-36.84-25.95-36.84Z"/></g></g><g id="_4-x-hoved-4" data-name="4-x-hoved"><text class="cls-9" transform="translate(4659.87 332.49)">X</text></g><g id="_1-stå-3" data-name="1-stå"><g id="Layer_3-8" data-name="Layer 3"><path class="cls-1" d="M4982.51,517.71c26.56,35,22.27,86.41,16.45,144.61a2.64,2.64,0,0,0,1.32,2.57c15.78,9,25.57,2.27,33.33,2.27,8,0,26-15-4-19-20.77-2.77-4.3-24.61-2-27.46a2.46,2.46,0,0,0,.39-.71c1-2.61,18.93-42.66,16.83-55.27-2.31-13.85-6.52-53.9-13.43-52-5,1.4-34.48,1-46.69.78A2.62,2.62,0,0,0,4982.51,517.71Z"/><path class="cls-1" d="M5317.85,392.06c-4.43,64.17,37.21,258.33,40.26,250.58,21.67,21.25,31.69,9.75,31.25,29.32-3,10-42,2-42,2a25.6,25.6,0,0,1-15.15-6c-7.24-6-6.74-31.43-11.74-73.6s-78.86-103.81-78.86-103.81l26.45-20.31Z"/><rect class="cls-2" x="5019.89" y="234.9" width="235.56" height="353.6" rx="70.02" ry="70.02" transform="translate(4140.84 5468.52) rotate(-83.43)"/><path class="cls-2" d="M4940.53,110.46,4943,158l-51.77-42.55-3.17,71.5-72.77-35.7,13.8,60.44L4796,180.76c-2.93,67.7,18.84,89.86,49,101.24,42.61,15.92,143.39,47.07,143.39,47.07l18-15.4c-11.81-15.77-21.68-100-21.68-100S4971.48,148,4940.53,110.46Z"/><path class="cls-3" d="M4815.28,151.2l72.77,35.7,3.17-71.5L4943,158l-2.46-47.49c-16.18-19.62-39.49-34-72.53-33.86-139.63-30.08-89.78-17.41-66.29,52.59a257,257,0,0,0-5.74,51.57l33.11,30.88Z"/><polygon class="cls-2" points="5410.6 181.66 5404.94 229.62 5399.29 277.57 5373.03 265.85 5346.77 254.13 5378.68 217.9 5410.6 181.66"/><polygon class="cls-2" points="5205.86 181.74 5237.92 217.85 5269.97 253.95 5243.76 265.78 5217.55 277.6 5211.71 229.67 5205.86 181.74"/><polygon class="cls-4" points="5253.28 242.39 5236.87 250.7 5220.46 259.02 5220.38 238.51 5220.3 218 5236.79 230.19 5253.28 242.39"/><polygon class="cls-4" points="5393.77 263.31 5377.68 254.38 5361.6 245.44 5378.54 233.88 5395.49 222.33 5394.63 242.82 5393.77 263.31"/><path class="cls-3" d="M5407.46,356h-84.24a81.07,81.07,0,0,0,17.83,74.92L5357,413Z"/><path class="cls-3" d="M5411,325a130.33,130.33,0,0,0-3.17-28.73c-2.09-.16-4.19-.27-6.32-.27a81,81,0,0,0-78.24,60h84A129.6,129.6,0,0,0,5411,325Z"/><path class="cls-2" d="M5306.7,208c-49.11,0-90.28,38.12-101.32,89.42A81,81,0,0,1,5298.69,356h24.53a81,81,0,0,1,78.24-60c2.13,0,4.23.11,6.32.27C5396.37,245.57,5355.44,208,5306.7,208Z"/><path class="cls-3" d="M5256,413l20.19,22.79A81,81,0,0,0,5298.69,356h-93.23Z"/><path class="cls-3" d="M5220.46,296a81.24,81.24,0,0,0-15.08,1.42,131.79,131.79,0,0,0,.78,58.58h92.53A81,81,0,0,0,5220.46,296Z"/><path class="cls-2" d="M5336.46,436v.14l4.59-5.19a81.07,81.07,0,0,1-17.83-75h-24.53a81,81,0,0,1-22.54,79.79l.31.35V436Z"/><polygon points="5336.46 436.02 5276.46 436.02 5276.46 436.16 5306.46 470.02 5336.46 436.16 5336.46 436.02"/><circle class="cls-5" cx="5273.46" cy="363.02" r="18"/><circle cx="5273.07" cy="362.63" r="14.48"/><circle class="cls-6" cx="5278.15" cy="355.98" r="7.04"/><circle class="cls-6" cx="5284.41" cy="364.59" r="2.35"/><circle class="cls-5" cx="5346.46" cy="363.02" r="18"/><circle cx="5346.07" cy="362.63" r="14.48"/><circle class="cls-6" cx="5351.15" cy="355.98" r="7.04"/><circle class="cls-6" cx="5357.41" cy="364.59" r="2.35"/><path class="cls-2" d="M4962.66,464.23c18-11.19,60.19,11.35,60.19,11.35s13.92,21.53-11.16,82.1c-.7,4.84-27.71,65.75-30.32,69.88-8.17,12.87,6.61,21.75,17.33,24,11.82,2.49,27.83,16.88.83,19.83-11.48,1.25-18.11.07-17.55,0s-17.42-1.72-22.28-2.83c-11.87-6.3-2.33-41.67,7.33-90.88C4982,530,4962.66,464.23,4962.66,464.23Z"/><path class="cls-2" d="M5276.71,490.58c19.44,20.21,33,132.34,25,156.34s34.79,12.3,27.11,31.63c-7.45,5.32-27.73-.19-41-1.33-7.27-.62-8.89-.48-11.41-3.7A19.73,19.73,0,0,1,5273,656c7.47-26.37-7.44-97.52-18.53-121.07-11.85-12-25.95-36.84-25.95-36.84Z"/></g></g><g id="_4-x-hoved-5" data-name="4-x-hoved"><text class="cls-10" transform="translate(5344.11 324.55)">X</text></g></svg>
