<svg xmlns="http://www.w3.org/2000/svg" viewBox="0 0 5440 740"><defs><style>.cls-1{fill:#69ff08;}.cls-2{fill:#41a500;}.cls-3{fill:#00dbbb;}.cls-4{fill:#0090d8;}.cls-5{fill:#0000d6;}.cls-6{fill:#8a00d3;}.cls-7{fill:#cb00d1;}.cls-8{fill:#ff97ba;}.cls-9{fill:#722611;}.cls-10{fill:#873015;}</style></defs><title>egern_kaste_sprite</title><g id="baggrund"><rect id="bacggrund" class="cls-1" width="680" height="739.49"/><rect id="bacggrund-2" data-name="bacggrund" class="cls-2" x="680" y="-0.22" width="680" height="740"/><rect id="bacggrund-3" data-name="bacggrund" class="cls-3" x="1360" y="-0.15" width="680" height="740"/><rect id="bacggrund-4" data-name="bacggrund" class="cls-4" x="2040" y="-0.11" width="680" height="740"/><rect id="bacggrund-5" data-name="bacggrund" class="cls-5" x="2720" width="680" height="740"/><rect id="bacggrund-6" data-name="bacggrund" class="cls-6" x="3400" y="-0.07" width="680" height="740"/><rect id="bacggrund-7" data-name="bacggrund" class="cls-7" x="4080" y="-0.18" width="680" height="740"/><rect id="bacggrund-8" data-name="bacggrund" class="cls-8" x="4760" y="-0.04" width="680" height="740"/></g><g id="sprite"><g id="Layer_2" data-name="Layer 2"><g id="Layer_8" data-name="Layer 8"><path class="cls-9" d="M181.17,667.25c-16.56,8.08-66.1,35.56-80.43,12.72s35.9-31.3,35.9-31.3L180,645.54Z"/><ellipse class="cls-9" cx="247.96" cy="337.25" rx="51.67" ry="27.93" transform="translate(-161.23 249.04) rotate(-41.51)"/><ellipse class="cls-9" cx="192.03" cy="347.86" rx="23.96" ry="46.65" transform="translate(-196.64 430.4) rotate(-73.09)"/><ellipse class="cls-9" cx="153.69" cy="330.72" rx="21.91" ry="20.46" transform="translate(-196.31 433.13) rotate(-81.38)"/><ellipse class="cls-9" cx="155.82" cy="304.4" rx="3.16" ry="16.08" transform="translate(-148.67 148.76) rotate(-35.82)"/><ellipse class="cls-9" cx="147.34" cy="306.7" rx="3.16" ry="16.08" transform="translate(-151.63 144.24) rotate(-35.82)"/><ellipse class="cls-9" cx="138.86" cy="309.01" rx="3.16" ry="16.08" transform="matrix(0.81, -0.59, 0.59, 0.81, -154.58, 139.71)"/><ellipse class="cls-9" cx="132.55" cy="314.28" rx="3.16" ry="16.08" transform="translate(-158.86 137.02) rotate(-35.82)"/><ellipse class="cls-9" cx="132.83" cy="339.23" rx="3.82" ry="10.64" transform="translate(-225.69 274.55) rotate(-58.39)"/><ellipse class="cls-10" cx="285.99" cy="490.35" rx="152.8" ry="191.92"/><path class="cls-9" d="M183.88,594.48c-16.72-7.75-66.78-34.27-80.66-11.14s36.47,30.56,36.47,30.56l43.43,2.28Z"/><ellipse class="cls-10" cx="225.46" cy="399.71" rx="72.72" ry="54.77" transform="matrix(0.57, -0.82, 0.82, 0.57, -231.38, 356.09)"/><ellipse class="cls-10" cx="391.16" cy="394.13" rx="54.77" ry="72.72" transform="translate(-155.11 294.49) rotate(-34.88)"/><ellipse class="cls-10" cx="285.76" cy="625.66" rx="143.59" ry="51.36"/><ellipse class="cls-10" cx="285.99" cy="503.24" rx="112.76" ry="136.69"/><circle class="cls-10" cx="283.14" cy="199.64" r="117.36"/><ellipse class="cls-10" cx="344.67" cy="250.57" rx="85.6" ry="72.72"/><ellipse class="cls-10" cx="225.01" cy="250.57" rx="85.6" ry="72.72"/><ellipse class="cls-10" cx="231.45" cy="220.19" rx="53.39" ry="72.72"/><ellipse class="cls-10" cx="338.22" cy="220.19" rx="53.39" ry="72.72"/><ellipse class="cls-10" cx="286.52" cy="305.8" rx="26.23" ry="30.38"/><path class="cls-9" d="M174.38,30.58c-20.83-1-21.64,4.25-17.8,10.92,3.39,5.93,10.4,13,10.36,17.93,0,.38.09.76.1,1.13,1.59,40.9,13.8,65.71,22.43,73.21,7.05,6.11,5.87,5.92,10,6.21,9.84.69,15.3-5.67,24.47-14.23a113.53,113.53,0,0,1,24.62-18C285.76,87.65,213,32.42,174.38,30.58Z"/><path class="cls-9" d="M393,23.21c-38.66,1.85-111.37,57.07-74.22,77.16a114.52,114.52,0,0,1,24.63,18c9.2,8.56,14.62,14.92,24.45,14.24,4.18-.3,3-.1,10.05-6.22,8.65-7.5,20.85-32.3,22.44-73.21,0-.37.09-.74.08-1.12,0-4.92,7-12,10.37-17.93C414.63,27.47,413.83,22.22,393,23.21Z"/><ellipse class="cls-10" cx="363.08" cy="259.31" rx="50.63" ry="39.12"/><ellipse class="cls-10" cx="206.6" cy="259.31" rx="50.63" ry="39.12"/><ellipse class="cls-9" cx="179.61" cy="414.18" rx="51.67" ry="27.93" transform="translate(-157.64 114.06) rotate(-24.89)"/><ellipse class="cls-9" cx="105.61" cy="405.86" rx="23.96" ry="46.65" transform="translate(-302.66 309.99) rotate(-62.2)"/><ellipse class="cls-9" cx="62.85" cy="369.8" rx="20.43" ry="21.88" transform="translate(-310.06 329.32) rotate(-74.16)"/><ellipse class="cls-9" cx="36.85" cy="360.36" rx="3.16" ry="16.08" transform="translate(-172.78 64.94) rotate(-29.52)"/><ellipse class="cls-9" cx="42.49" cy="353.63" rx="3.16" ry="16.08" transform="matrix(0.87, -0.49, 0.49, 0.87, -168.73, 66.84)"/><ellipse class="cls-9" cx="48.12" cy="346.88" rx="3.16" ry="16.08" transform="matrix(0.87, -0.49, 0.49, 0.87, -164.67, 68.74)"/><ellipse class="cls-9" cx="55.55" cy="343.34" rx="3.16" ry="16.08" transform="translate(-161.96 71.94) rotate(-29.52)"/><ellipse class="cls-9" cx="78.1" cy="353.99" rx="3.82" ry="10.64" transform="translate(-42.26 12.05) rotate(-6.95)"/><path class="cls-9" d="M590.37,38.74a51.76,51.76,0,0,0-11.8,23.85c-4.44,21.85-8.74,33.57-15,40.72C500,99.3,435.08,153.5,399.3,236.64c-1.49,3.48-2.92,7-4.31,10.59C323.46,376.09,265.5,648,287,663.41c36.51,26.22,35.51,2.34,68.72.45,30.09-1.71,54.81-8.41,75.43-18.48,2.48-.72,6.13-2.66,11.13-6a164.28,164.28,0,0,0,32.93-25.64c40-40,57.32-95.44,77.94-133.91,32.22-60,171.68-360.89,51.23-452.23-8.42-6.23-10.08,6.63-14,11.14"/></g></g><path class="cls-9" d="M853.79,667.25c-16.56,8.08-66.1,35.56-80.43,12.72s35.9-31.3,35.9-31.3l43.34-3.13Z"/><ellipse class="cls-9" cx="920.58" cy="337.25" rx="51.67" ry="27.93" transform="translate(7.7 694.82) rotate(-41.51)"/><ellipse class="cls-9" cx="828.44" cy="304.4" rx="3.16" ry="16.08" transform="translate(-21.45 542.41) rotate(-35.82)"/><ellipse class="cls-9" cx="865.34" cy="342.14" rx="23.96" ry="46.65" transform="translate(-8.21 662.73) rotate(-41.73)"/><ellipse class="cls-9" cx="841.53" cy="307.55" rx="21.91" ry="20.46" transform="translate(65.16 754.79) rotate(-50.02)"/><ellipse class="cls-9" cx="848.6" cy="283.74" rx="3.16" ry="16.08" transform="matrix(1, -0.08, 0.08, 1, -19.48, 66.79)"/><ellipse class="cls-9" cx="840.16" cy="281.3" rx="3.16" ry="16.08" transform="translate(-19.32 66.13) rotate(-4.46)"/><ellipse class="cls-9" cx="832.03" cy="282.52" rx="3.16" ry="16.08" transform="translate(-19.44 65.5) rotate(-4.46)"/><ellipse class="cls-9" cx="819.28" cy="303.97" rx="3.82" ry="10.64" transform="translate(-48.65 405.47) rotate(-27.03)"/><ellipse class="cls-10" cx="958.61" cy="490.35" rx="152.8" ry="191.92"/><path class="cls-9" d="M856.5,594.48c-16.71-7.75-66.78-34.27-80.66-11.14s36.47,30.56,36.47,30.56l43.43,2.28Z"/><ellipse class="cls-10" cx="898.08" cy="399.71" rx="72.72" ry="54.77" transform="matrix(0.57, -0.82, 0.82, 0.57, 56.6, 907.88)"/><ellipse class="cls-10" cx="1063.78" cy="394.13" rx="54.77" ry="72.72" transform="translate(-34.28 679.14) rotate(-34.88)"/><ellipse class="cls-10" cx="958.38" cy="625.66" rx="143.59" ry="51.36"/><ellipse class="cls-10" cx="958.61" cy="503.24" rx="112.76" ry="136.69"/><circle class="cls-10" cx="955.76" cy="199.64" r="117.36"/><ellipse class="cls-10" cx="1017.29" cy="250.57" rx="85.6" ry="72.72"/><ellipse class="cls-10" cx="897.63" cy="250.57" rx="85.6" ry="72.72"/><ellipse class="cls-10" cx="904.07" cy="220.19" rx="53.39" ry="72.72"/><ellipse class="cls-10" cx="1010.84" cy="220.19" rx="53.39" ry="72.72"/><ellipse class="cls-10" cx="959.14" cy="305.8" rx="26.23" ry="30.38"/><path class="cls-9" d="M847,30.58c-20.83-1-21.64,4.25-17.8,10.92,3.39,5.93,10.4,13,10.36,17.93,0,.38.09.76.1,1.13,1.59,40.9,13.8,65.71,22.43,73.21,7,6.11,5.87,5.92,10,6.21,9.84.69,15.3-5.67,24.47-14.23a113.77,113.77,0,0,1,24.62-18C958.38,87.65,885.66,32.42,847,30.58Z"/><path class="cls-9" d="M1065.6,23.21c-38.66,1.85-111.37,57.07-74.22,77.16a114.52,114.52,0,0,1,24.63,18c9.2,8.56,14.62,14.92,24.46,14.24,4.17-.3,3-.1,10-6.22,8.65-7.5,20.85-32.3,22.44-73.21,0-.37.09-.74.08-1.12,0-4.92,7-12,10.37-17.93C1087.25,27.47,1086.45,22.22,1065.6,23.21Z"/><ellipse class="cls-10" cx="1035.7" cy="259.31" rx="50.63" ry="39.12"/><ellipse class="cls-10" cx="879.22" cy="259.31" rx="50.63" ry="39.12"/><ellipse class="cls-9" cx="857.27" cy="391.13" rx="51.67" ry="27.93" transform="translate(-40.4 104.64) rotate(-6.82)"/><ellipse class="cls-9" cx="789.5" cy="360.27" rx="23.96" ry="46.65" transform="translate(-28 651.47) rotate(-44.13)"/><ellipse class="cls-9" cx="760.03" cy="312.73" rx="20.43" ry="21.88" transform="translate(76.52 769.07) rotate(-56.09)"/><ellipse class="cls-9" cx="738.24" cy="295.69" rx="3.16" ry="16.08" transform="translate(-44.02 152.49) rotate(-11.45)"/><ellipse class="cls-9" cx="745.69" cy="291.04" rx="3.16" ry="16.08" transform="translate(-42.94 153.88) rotate(-11.45)"/><ellipse class="cls-9" cx="753.13" cy="286.37" rx="3.16" ry="16.08" transform="translate(-41.87 155.27) rotate(-11.45)"/><ellipse class="cls-9" cx="761.3" cy="285.31" rx="3.16" ry="16.08" transform="translate(-41.5 156.87) rotate(-11.45)"/><ellipse class="cls-9" cx="779.43" cy="302.43" rx="10.64" ry="3.82" transform="translate(332.41 1008.93) rotate(-78.88)"/><path class="cls-9" d="M1263,38.74a51.76,51.76,0,0,0-11.8,23.85c-4.44,21.85-8.74,33.57-15,40.72-63.6-4-128.46,50.19-164.25,133.33-1.49,3.48-2.92,7-4.31,10.59C996.08,376.09,938.12,648,959.61,663.41c36.51,26.22,35.51,2.34,68.72.45,30.09-1.71,54.81-8.41,75.44-18.48,2.47-.72,6.13-2.66,11.12-6a164.28,164.28,0,0,0,32.93-25.64c40-40,57.32-95.44,77.94-133.91,32.22-60,171.68-360.89,51.23-452.23-8.42-6.23-10.08,6.63-14,11.14"/><path class="cls-9" d="M1504.67,681.32c-16.52,9.5-63.9,34.59-77.19,11.87s17.41-28.16,32.86-30.29,28.82-1.91,43.76-3.42C1504.18,666.82,1505.4,673.86,1504.67,681.32Z"/><path class="cls-9" d="M1554.81,330.44c14.2-12.57,39-30.12,55.11-11.75s-4.67,40.69-19,53.14-39.83,30.2-55.72,12.09S1540.61,343,1554.81,330.44Z"/><path class="cls-9" d="M1472.89,305.84c3.84-2.66,9.19,7.82,11,10.5s9.63,11.52,5.8,14.18-9.2-7.86-11-10.54S1469.05,308.51,1472.89,305.84Z"/><path class="cls-9" d="M1488.53,322.92c16.26-14.09,35.61,4.92,46.63,17.5s27.52,34.58,11.34,48.75-36-4.81-47.08-17.44S1472.26,337,1488.53,322.92Z"/><path class="cls-9" d="M1479.44,308.48c7.64-8.82,19.74-11.39,28.86-3.4s8.41,20.42.85,29.37-19.74,11.16-28.88,3.2S1471.81,317.3,1479.44,308.48Z"/><path class="cls-9" d="M1501.47,282.3c4.64-.31,3.6,11.64,3.73,14.86s2.2,15-2.45,15.34-3.72-11.64-3.85-14.9S1496.82,282.61,1501.47,282.3Z"/><path class="cls-9" d="M1493.16,279.82c4.64-.31,3.58,11.63,3.71,14.85s2.17,15-2.48,15.33-3.69-11.64-3.82-14.9S1488.52,280.12,1493.16,279.82Z"/><path class="cls-9" d="M1485,281c4.65-.29,3.6,11.64,3.73,14.86s2.16,15-2.49,15.33-3.68-11.64-3.81-14.9S1480.33,281.29,1485,281Z"/><path class="cls-9" d="M1467.83,308.56c3.64-1.77,6.48,4.73,7.74,7.38s4.52,9,.89,10.74-6.47-4.73-7.73-7.37S1464.2,310.34,1467.83,308.56Z"/><path class="cls-10" d="M1611.08,314c100.06,1.7,152.26,100.59,151.54,190.49s-51.2,190.39-151.8,190.69-153.68-102.12-153.66-191S1511,312.29,1611.08,314Z"/><path class="cls-9" d="M1507.19,608.43c-16.67-9.26-64.37-33.85-77.44-10.94s17.86,28,33.39,29.88,29,1.58,44,2.91C1507.06,623,1508.08,615.89,1507.19,608.43Z"/><path class="cls-10" d="M1505.08,382.64c19.43-26.75,54.94-49.35,86.08-27.55s22.11,63,3,89.61-55.55,48.89-86.36,27.34S1485.64,409.4,1505.08,382.64Z"/><path class="cls-10" d="M1675.53,350.72c30.87-20.82,67,1,85.73,27.79s26.61,67.41-4.43,88.85-66.41-.67-85.24-27.63S1644.65,371.54,1675.53,350.72Z"/><path class="cls-10" d="M1610.08,588.72c32,0,141.9,7,141.9,51s-109.24,51.34-141.47,51.34-142.39-7.57-142.64-51.55S1578.1,588.72,1610.08,588.72Z"/><path class="cls-10" d="M1610.76,381.68c72.72.56,112.2,70.06,112,135.86s-39.27,135.72-112,135.71-113.33-70-113.57-136.18S1538.05,381.12,1610.76,381.68Z"/><path class="cls-10" d="M1613.94,99.12c68,1.94,121.6,50,117,116.07s-55,116.89-122.57,115.11-114.24-48.2-111.84-118.25S1545.92,97.19,1613.94,99.12Z"/><path class="cls-10" d="M1681.68,194.62c39.54-.77,77.4,28.17,75.62,72.34s-44.82,71.3-86.85,71-87.72-28.84-82.27-72.49S1642.14,195.38,1681.68,194.62Z"/><path class="cls-10" d="M1559.56,192.46c45.4.1,85.62,22.59,78.44,71.79s-43.88,71-87.65,71.9-84.56-25.66-82-72.74S1514.15,192.36,1559.56,192.46Z"/><path class="cls-10" d="M1566.78,162.88c42.87-.09,61.35,34.07,52,70.09s-25.17,70.82-62,71.82S1505.13,266,1508.09,233,1523.92,163,1566.78,162.88Z"/><path class="cls-10" d="M1677.6,165c30.87-1.76,47.36,40.64,44,71.33s-19.53,70.4-57.83,70.84-52.43-42.77-44.53-70.21S1646.74,166.79,1677.6,165Z"/><path class="cls-10" d="M1611.32,290.79c16.29.26,25.89,14.17,25.79,29.69s-9.35,29-25.63,28.83S1585.91,335,1586,319.71,1595,290.53,1611.32,290.79Z"/><path class="cls-9" d="M1516.1,40.94c-9.69-3.1-20.86-4-20.59,6.06.24,8.91,7,13,5.56,21.37-.11.65.41,1.59.33,1.79-9.06,21.92,1.12,60.92,13.79,73.88,10.34,10.57,7,7.77,13.18,8.75,14.69,2.32,16-6,25.68-13.27a266.31,266.31,0,0,1,25.27-17.06C1614.43,102.28,1534.07,46.68,1516.1,40.94Z"/><path class="cls-9" d="M1726.71,37.31c-25.12.7-124.67,47.26-77.3,78.31,11.46,7.52,15.95,11.07,24.72,17.23,10.78,7.57,12.86,14.93,26.66,13.2,5.87-.73,3.81.77,10.37-9,8.06-12,19.77-51.37,20.45-69.2,0-.16.72-.83.81-1.45,1.18-8,10.73-9.14,12.41-17.64C1746.72,39.13,1740.26,36.92,1726.71,37.31Z"/><path class="cls-10" d="M1694.44,236.4c22.87-.14,47,13,45.92,38.69s-27.82,38.25-51.11,38.23-51.06-12.53-48.34-38.67S1671.57,236.54,1694.44,236.4Z"/><path class="cls-10" d="M1536.43,234.21c23.89-.11,49.32,11.61,46.67,38.44s-27.38,38.42-50.89,38.83-49.11-12.71-47.9-39S1512.53,234.32,1536.43,234.21Z"/><path class="cls-9" d="M1495.64,382.3c19.91-5.9,52.86-20.84,62.4,7s-39.84,41.34-59.15,45.28-69.47-1-64-28.17S1475.72,388.2,1495.64,382.3Z"/><path class="cls-9" d="M1453.89,314.62c23.89,4.87,10.74,27,8.57,44s7.8,40.25-15.64,45.67-29.1-22.39-28.48-41.11S1430,309.76,1453.89,314.62Z"/><path class="cls-9" d="M1472.34,285.14c12.63.45,20.25,9.73,18.76,22.39s-12.61,19.39-24.92,19.49-18.79-8.85-16.33-20.53S1459.7,284.7,1472.34,285.14Z"/><path class="cls-9" d="M1484.54,268.24c3.45,3.65-5.33,9.86-7.72,12.28s-8.72,11.16-12.27,7.56,5.46-9.95,7.82-12.31S1481.09,264.59,1484.54,268.24Z"/><path class="cls-9" d="M1492.33,272.3c3.5,3.62-5.28,9.87-7.66,12.26s-8.62,11.18-12.13,7.56,5.27-9.88,7.64-12.27S1488.84,268.68,1492.33,272.3Z"/><path class="cls-9" d="M1500.15,276.33c3.49,3.6-5.29,9.88-7.66,12.28s-8.55,11.19-12.09,7.57,5.23-9.89,7.61-12.27S1496.65,272.73,1500.15,276.33Z"/><path class="cls-9" d="M1505.45,282.85c3.51,3.59-5.26,9.91-7.6,12.3s-8.63,11.22-12.09,7.57,5.21-9.83,7.56-12.26S1501.94,279.27,1505.45,282.85Z"/><path class="cls-9" d="M1500,314c1.44,4.12-5.18,5.84-8.17,6.74s-9.7,3.82-11.19-.29,5.55-5.78,8.47-6.75S1498.54,309.86,1500,314Z"/><path class="cls-9" d="M1919.8,54.8c-5.1,6.33-10.11,16.38-11.74,23-4,16.29-7,28.19-15.72,41.59-82.4-2.22-131.25,66.52-164.09,133.12-1.37,2.79-4.39,7.26-3.5,12.69C1689.16,303.08,1582,644.11,1608.13,670.7c44.3,45.15,34.1,4.58,70.14,6.72,32.66,1.93,49.27-10.07,78-17.55,2.67-2.26,7.06-4.22,10.12-6,11.86-10.68,21.89-12.66,31.74-24.36,39.88-47.42,51.12-83,82.71-142.11,49.3-92.23,167.13-354.8,52.06-441.1-6.55-8-9.67,4.37-13,8.55"/><path class="cls-9" d="M2178.88,681.3c-17,9.82-62.21,34.52-76.12,11.28s15.7-27.82,31.57-29.73,29-2.12,44.26-3.45C2178.58,666.76,2179.85,673.8,2178.88,681.3Z"/><path class="cls-9" d="M2229.57,330.67c15-13.24,37.21-30.49,54.31-11.12s-3.18,39.1-18.3,52.18-38,30.81-54.89,11.57S2214.58,343.91,2229.57,330.67Z"/><path class="cls-9" d="M2147.88,306.47c4.28-3,8.82,7.23,10.76,10.09s9.76,10.87,5.47,13.82-8.83-7.27-10.77-10.13S2143.59,309.43,2147.88,306.47Z"/><path class="cls-9" d="M2163.91,324c17.33-15.05,34.09,3.38,45.8,16.69s28,32.63,10.72,47.77-34.51-3.2-46.28-16.6S2146.58,339,2163.91,324Z"/><path class="cls-9" d="M2154.35,308.89c7.62-8.81,19.33-11.35,28.42-3.34s8.38,20.05.83,29-19.33,11.06-28.43,3.12S2146.74,317.7,2154.35,308.89Z"/><path class="cls-9" d="M2176.29,282.91c5.2-.29,3.57,11,3.69,14.44s2.64,14.56-2.56,14.87-3.7-11-3.82-14.46S2171.1,283.21,2176.29,282.91Z"/><path class="cls-9" d="M2168,280.42c5.19-.3,3.55,11,3.66,14.43s2.62,14.58-2.59,14.86-3.67-11-3.79-14.46S2162.8,280.71,2168,280.42Z"/><path class="cls-9" d="M2159.8,281.61c5.21-.29,3.57,11,3.7,14.44s2.61,14.58-2.6,14.87-3.66-11-3.79-14.47S2154.6,281.89,2159.8,281.61Z"/><path class="cls-9" d="M2142.65,309.05c3.84-1.87,6.31,4.35,7.62,7.13s4.6,8.63.75,10.51-6.3-4.35-7.61-7.13S2138.81,310.93,2142.65,309.05Z"/><path class="cls-10" d="M2286.05,314.75c101.76,1.2,151.69,97.79,150.54,189s-49,190.54-151,190.84S2132,594.47,2132.1,504.25,2184.28,313.55,2286.05,314.75Z"/><path class="cls-9" d="M2181.46,608.33c-17.12-9.65-62.63-34-76.34-10.54s16.12,27.68,32.05,29.41,29.18,1.86,44.49,3C2181.49,622.88,2182.59,615.81,2181.46,608.33Z"/><path class="cls-10" d="M2180,382.94c19.86-27.37,53.46-49.54,85.56-27.3s22.83,61.34,3.12,88.74-54.11,49.37-85.89,27.16S2160.08,410.32,2180,382.94Z"/><path class="cls-10" d="M2351.08,351c32-21.61,66-.94,85.31,27.1s26.34,66.28-5.45,88.2-65,.58-84.32-27.1S2319.07,372.63,2351.08,351Z"/><path class="cls-10" d="M2284.71,588.84c32.44,0,140.53,5.65,140.6,51s-107.55,51.45-140.23,51.33-141.71-6.74-141.9-51.68S2252.27,588.82,2284.71,588.84Z"/><path class="cls-10" d="M2285.62,382.06c73.69.33,111.65,68.22,111.2,135s-37.69,136-111.49,135.88-113.2-68.89-113.4-135.82S2211.92,381.73,2285.62,382.06Z"/><path class="cls-10" d="M2289.2,99.75c64.63.9,121.51,49.35,118,115.07s-56.23,117-124.48,115.38-113.6-49.33-110.6-117.9S2224.58,98.85,2289.2,99.75Z"/><path class="cls-10" d="M2357.44,194.85C2399.26,193.6,2436.81,221,2434,266s-46.79,71.07-88.12,71.5-88-26-82.33-71.26S2315.62,196.1,2357.44,194.85Z"/><path class="cls-10" d="M2235.31,192.92c44.4.3,84.35,21.76,77.37,71s-41.65,70.81-87.34,72-84.07-23.84-81.59-72.61S2190.91,192.61,2235.31,192.92Z"/><path class="cls-10" d="M2243.13,163.55c41.33,0,59.37,33.24,50.58,68.75s-22.87,70.71-62.18,71.75-51.13-37.28-47.89-71.8S2201.79,163.58,2243.13,163.55Z"/><path class="cls-10" d="M2352.58,166.13c33.77-1.68,48.77,39.51,45.36,70.36s-20.82,69.61-58.71,70.22-53.16-38.68-44.89-68.6S2318.81,167.81,2352.58,166.13Z"/><path class="cls-10" d="M2286,291.56c16.26.16,25.76,13.44,25.68,28.95s-9.19,28.45-25.42,28.34S2261,335.23,2261,319.91,2269.76,291.39,2286,291.56Z"/><path class="cls-9" d="M2195.34,41.47c-10.18-3.79-19.17-3.81-20.59,5.64-1.26,8.38,6.66,13.4,5,21.34-.13.61.68,1.79.58,2-10.09,20.3.37,58.37,11.18,71.72,8.83,10.9,7.34,8.78,13.59,10.07,14.76,3,16.52-5.56,26.54-12.48,8.16-5.63,16.69-11.25,24.9-17C2290.49,99.11,2214.21,48.5,2195.34,41.47Z"/><path class="cls-9" d="M2410.32,37.53c-25.28,0-133.07,42.82-86,77.58,11.39,8.42,14.87,11.35,24.12,17.57,11.36,7.64,12.76,15.1,27.51,13.11,6.26-.84,3.85,1.32,11-10,8.81-13.87,22.31-47.15,26.27-67.13,0-.17,1.18-1,1.31-1.65,1.71-7.92,13.18-8.44,13.7-17.44C2428.8,39.45,2424,37.52,2410.32,37.53Z"/><path class="cls-10" d="M2370.52,236.22c24-.67,47.61,11.18,46,37.88s-28.1,38.07-51.68,38.6-51-10.59-48.18-37.68S2346.55,236.89,2370.52,236.22Z"/><path class="cls-10" d="M2211.71,234.58c24-.2,48.3,10.51,45.61,38.16s-25.56,38-50.34,38.63-48.48-11.56-47.17-38.63S2187.69,234.78,2211.71,234.58Z"/><path class="cls-9" d="M2168.3,395c22.83-2.83,59.86-13.81,63.92,18.62s-53.71,32.88-75.14,32.85-74.48-17.81-59.9-44.72S2145.47,397.87,2168.3,395Z"/><path class="cls-9" d="M2162.76,317.69c24,14.6-4.38,31.88-16.6,46.67s-12,42.05-38.36,36.13-17-31.5-5.7-49.66S2138.73,303.09,2162.76,317.69Z"/><path class="cls-9" d="M2194,295.11c11.66,5,15.1,16.05,8.79,27.07s-19.47,13.91-32.56,9.63-13.76-14.78-5.75-24.89S2182.35,290.13,2194,295.11Z"/><path class="cls-9" d="M2210.8,283.62c2.11,5.19-7.18,6.79-10.55,8.29s-10.92,7.22-13.11,2,7.28-6.84,10.63-8.3S2208.7,278.43,2210.8,283.62Z"/><path class="cls-9" d="M2216.42,290.34c2.15,5.17-7.13,6.8-10.47,8.29s-10.82,7.23-13,2.07,7.11-6.84,10.45-8.32S2214.28,285.16,2216.42,290.34Z"/><path class="cls-9" d="M2222.06,297c2.15,5.16-7.13,6.81-10.46,8.31s-10.77,7.25-12.95,2.09,7.07-6.85,10.41-8.33S2219.91,291.87,2222.06,297Z"/><path class="cls-9" d="M2224.55,305.09c2.18,5.14-7.09,6.83-10.4,8.35s-10.81,7.26-13,2.1,7-6.81,10.36-8.34S2222.37,300,2224.55,305.09Z"/><path class="cls-9" d="M2208.87,331.64c-.14,4.56-6.12,3.52-9.39,3.28s-10.14.39-10-4.29,6.78-3.55,10.07-3.35S2209,327.08,2208.87,331.64Z"/><path class="cls-9" d="M2619.31,58c-5.34,6.13-11.19,15.45-13.74,22-6.31,16.24-12,27.93-22.26,41.06-87.12-5.89-141.61,60-178.43,130.75-1.54,3-4.43,7.88-3.45,13.38-36.4,36.93-144.6,373.4-119,403.36,43.41,50.88,32.53,6.68,69.19,9,33.22,2.12,49.78-11.09,79.23-17.52,2.25-2.58,6.56-4.38,9.59-6,11-11,21.74-12.18,31.2-24,38.28-48,53.19-87.24,84.47-144.94,48.8-90,175.16-344,76.41-433.81-5.51-9-9.63,2.66-13.17,6.73"/><path class="cls-9" d="M3565.57,685.72c-17,9.81-62.2,34.52-76.12,11.27s15.7-27.82,31.58-29.73,29-2.12,44.25-3.45C3565.27,671.17,3566.55,678.22,3565.57,685.72Z"/><path class="cls-9" d="M3616.26,335.09c15-13.24,37.22-30.5,54.31-11.13s-3.17,39.1-18.3,52.18-38,30.81-54.88,11.57S3601.27,348.32,3616.26,335.09Z"/><path class="cls-9" d="M3534.57,310.88c4.29-3,8.83,7.23,10.76,10.1s9.76,10.86,5.48,13.82-8.84-7.28-10.78-10.14S3530.28,313.85,3534.57,310.88Z"/><path class="cls-9" d="M3550.6,328.39c17.33-15.05,34.1,3.38,45.8,16.7s28,32.62,10.73,47.76-34.52-3.2-46.28-16.59S3533.27,343.44,3550.6,328.39Z"/><path class="cls-9" d="M3541.05,313.3c7.61-8.81,19.32-11.34,28.42-3.34s8.38,20.05.82,29S3551,350,3541.86,342.06,3533.44,322.12,3541.05,313.3Z"/><path class="cls-9" d="M3563,287.33c5.19-.3,3.56,11,3.68,14.44s2.65,14.55-2.55,14.87-3.7-11-3.83-14.47S3557.79,287.63,3563,287.33Z"/><path class="cls-9" d="M3554.69,284.83c5.2-.29,3.55,11,3.66,14.43s2.62,14.58-2.58,14.87-3.67-11-3.8-14.47S3549.49,285.13,3554.69,284.83Z"/><path class="cls-9" d="M3546.5,286c5.2-.29,3.57,11,3.69,14.44s2.61,14.58-2.59,14.87-3.66-11-3.79-14.47S3541.29,286.31,3546.5,286Z"/><path class="cls-9" d="M3529.35,313.47c3.84-1.88,6.3,4.35,7.61,7.13s4.6,8.63.76,10.5-6.3-4.35-7.62-7.13S3525.51,315.34,3529.35,313.47Z"/><path class="cls-10" d="M3672.74,319.16c101.76,1.2,151.69,97.79,150.54,189s-49,190.54-151,190.84S3518.7,598.89,3518.8,508.66,3571,318,3672.74,319.16Z"/><path class="cls-9" d="M3568.15,612.74c-17.11-9.64-62.63-34-76.34-10.54s16.12,27.69,32.05,29.41,29.18,1.87,44.49,3C3568.18,627.29,3569.29,620.23,3568.15,612.74Z"/><path class="cls-10" d="M3566.64,387.36c19.86-27.38,53.47-49.55,85.57-27.3s22.82,61.33,3.11,88.74-54.1,49.36-85.88,27.15S3546.78,414.73,3566.64,387.36Z"/><path class="cls-10" d="M3737.77,355.44c32-21.6,66-.94,85.31,27.1s26.34,66.29-5.44,88.2-65,.59-84.33-27.1S3705.77,377.05,3737.77,355.44Z"/><path class="cls-10" d="M3671.4,593.25c32.45,0,140.53,5.65,140.6,51s-107.55,51.45-140.23,51.34-141.71-6.74-141.89-51.69S3639,593.24,3671.4,593.25Z"/><path class="cls-10" d="M3672.31,386.47c73.7.34,111.65,68.23,111.2,135s-37.69,136-111.49,135.88-113.2-68.89-113.39-135.83S3598.61,386.14,3672.31,386.47Z"/><path class="cls-10" d="M3675.9,104.16c64.62.91,121.51,49.35,118,115.08s-56.24,117-124.49,115.37-113.59-49.33-110.59-117.9S3611.27,103.26,3675.9,104.16Z"/><path class="cls-10" d="M3744.14,199.26c41.82-1.25,79.36,26.13,76.56,71.16s-46.79,71.08-88.12,71.5-88-26-82.32-71.26S3702.32,200.51,3744.14,199.26Z"/><path class="cls-10" d="M3622,197.33c44.41.3,84.35,21.77,77.37,71s-41.65,70.81-87.34,72-84.07-23.85-81.59-72.61S3577.6,197,3622,197.33Z"/><path class="cls-10" d="M3629.82,168c41.34,0,59.37,33.23,50.59,68.75s-22.87,70.71-62.19,71.75-51.13-37.28-47.88-71.8S3588.49,168,3629.82,168Z"/><path class="cls-10" d="M3739.27,170.55c33.77-1.68,48.77,39.51,45.37,70.36s-20.82,69.61-58.72,70.22-53.16-38.68-44.89-68.6S3705.5,172.23,3739.27,170.55Z"/><path class="cls-10" d="M3672.71,296c16.26.17,25.76,13.44,25.68,29s-9.19,28.44-25.42,28.34-25.33-13.63-25.27-28.95S3656.45,295.81,3672.71,296Z"/><path class="cls-10" d="M3757.21,240.63c24-.66,47.61,11.18,46,37.88s-28.11,38.07-51.68,38.61-50.95-10.6-48.19-37.69S3733.24,241.3,3757.21,240.63Z"/><path class="cls-10" d="M3598.41,239c24-.2,48.29,10.51,45.6,38.15s-25.56,38-50.33,38.63-48.49-11.56-47.17-38.62S3574.38,239.2,3598.41,239Z"/><path class="cls-9" d="M3562,384.84c23.27-1.58,66.12-12.52,68.29,22.47s-54.48,29.42-76.41,29.44-77-6-67.92-37.42S3538.76,386.42,3562,384.84Z"/><path class="cls-9" d="M3495.58,295.37c28.1-4.47,20.21,27.27,20.55,47.56s14.26,46.28-14.13,54.44-28.81-18.22-29.38-39S3467.48,299.83,3495.58,295.37Z"/><path class="cls-9" d="M3488.75,262.07c7.87-8.42,21.13-7.39,24.52,5.48s1.65,22.14-8.54,30.15-19.78,2.65-19.91-8.47S3480.87,270.48,3488.75,262.07Z"/><path class="cls-9" d="M3481.6,244.38c5.85-1,5.6,7.15,6.16,10.7s4.2,12.4-1.25,13-5.93-7.69-6.49-11.76S3475.75,245.33,3481.6,244.38Z"/><path class="cls-9" d="M3494.69,240.89c5.53.76,2.64,8.19,2.6,11.82s.9,12-4.53,11.57-2-8.91-2-12.51S3489.15,240.13,3494.69,240.89Z"/><path class="cls-9" d="M3503.43,239.64c5.61.64,2.71,7.93,2.4,11.68s.56,11.41-4.68,10.8-2.64-8.12-2.45-11.71S3497.81,239,3503.43,239.64Z"/><path class="cls-9" d="M3513.54,244.26c5.5,1.47.85,8.45-.07,11.82s-1,12.5-6.37,10.35.87-5.69.1-12.27C3508.12,250.32,3508.05,242.78,3513.54,244.26Z"/><path class="cls-9" d="M3526.94,269.13c.88,4.48-5.17,4.81-8.42,5.31s-9.79,2.65-10.67-1.95,5.81-5,9.06-5.52S3526.07,264.66,3526.94,269.13Z"/><path class="cls-9" d="M3559.11,48.89c-11.52-2.18-18.6.11-18.87,10-.25,8.73,10.23,12.84,10.87,21.17,0,.64,1.55,1.93,1.52,2.14-4,23.25,17,58.36,30.66,70,11.12,9.48,9.93,7.48,16.48,7.45,15.47-.09,15.14-9.22,23.38-18.22,6.71-7.32,13.77-14.64,19.82-22.58C3668,85.9,3580.5,52.92,3559.11,48.89Z"/><path class="cls-9" d="M3761.56,35.83c-24.81,8.25-106.95,77.09-52.55,95.48,13.17,4.46,17.85,5.91,28.76,8.57,13.4,3.27,17.36,9.7,30.85,2.64,5.74-3,4.64-1.52,7.1-14.15,3-15.5,4.05-46.23-.45-65,0-.16.8-1.38.68-2-1.55-7.67,10-11.41,6.3-19.82C3778.05,32.09,3774.94,31.38,3761.56,35.83Z"/><path class="cls-9" d="M3916.31,76.8c-3.46,6.8-6.27,16.57-6.68,22.79-1,15.37-2.4,27.17-6.76,41-79.44,11-114,74.6-137.59,144.21a43.65,43.65,0,0,0-1.5,11.71c-16.21,34.42-109.43,354.6-89.59,381,33.68,44.75,29.12,10,65.62,10.41,33.07.42,53.09-7.55,83.44-15.21a36.8,36.8,0,0,1,9.91-5.51c11.07-11.93,22.67-11.17,32.35-23.94,39.22-51.71,57.33-92.19,84.35-156.35,42.14-100.12,116.92-351.58-22.69-418.58-7.05-7.47-8.57,4-10.86,8.49"/><path class="cls-9" d="M2886.76,685.79c-17,9.82-62.21,34.52-76.12,11.28s15.7-27.83,31.57-29.74,29-2.12,44.26-3.44C2886.46,671.25,2887.73,678.29,2886.76,685.79Z"/><path class="cls-9" d="M2937.45,335.16c15-13.24,37.21-30.5,54.31-11.12s-3.18,39.1-18.3,52.17-38,30.81-54.89,11.57S2922.46,348.39,2937.45,335.16Z"/><path class="cls-9" d="M2855.76,311c4.28-3,8.82,7.22,10.76,10.09s9.76,10.86,5.47,13.82-8.83-7.28-10.77-10.14S2851.47,313.92,2855.76,311Z"/><path class="cls-9" d="M2871.79,328.46c17.33-15,34.09,3.38,45.8,16.7s28,32.62,10.72,47.76-34.51-3.19-46.28-16.59S2854.46,343.51,2871.79,328.46Z"/><path class="cls-9" d="M2862.23,313.38c7.62-8.82,19.33-11.35,28.42-3.34s8.38,20,.83,29-19.33,11.06-28.43,3.12S2854.62,322.19,2862.23,313.38Z"/><path class="cls-9" d="M2884.17,287.4c5.2-.3,3.57,11,3.69,14.44s2.64,14.56-2.56,14.87-3.7-11-3.82-14.46S2879,287.7,2884.17,287.4Z"/><path class="cls-9" d="M2875.88,284.91c5.19-.3,3.55,11,3.66,14.42s2.62,14.58-2.59,14.87-3.67-11-3.79-14.47S2870.68,285.2,2875.88,284.91Z"/><path class="cls-9" d="M2867.68,286.09c5.21-.29,3.57,11,3.7,14.44s2.61,14.58-2.6,14.87-3.66-11-3.79-14.46S2862.48,286.38,2867.68,286.09Z"/><path class="cls-9" d="M2850.53,313.54c3.84-1.88,6.31,4.35,7.62,7.13s4.6,8.63.75,10.5-6.3-4.35-7.61-7.13S2846.69,315.42,2850.53,313.54Z"/><path class="cls-10" d="M2993.93,319.23c101.76,1.2,151.69,97.79,150.54,189s-49,190.55-151,190.84S2839.89,599,2840,508.73,2892.16,318,2993.93,319.23Z"/><path class="cls-9" d="M2889.34,612.81c-17.12-9.64-62.63-34-76.34-10.54s16.12,27.69,32.05,29.41,29.18,1.87,44.49,3.05C2889.37,627.37,2890.47,620.3,2889.34,612.81Z"/><path class="cls-10" d="M2887.83,387.43c19.86-27.38,53.46-49.55,85.56-27.3s22.83,61.34,3.12,88.74-54.11,49.37-85.89,27.16S2868,414.8,2887.83,387.43Z"/><path class="cls-10" d="M3059,355.52c32-21.61,66-.95,85.31,27.1s26.34,66.28-5.45,88.19-65,.59-84.32-27.1S3027,377.12,3059,355.52Z"/><path class="cls-10" d="M2992.59,593.33c32.44,0,140.53,5.64,140.6,51S3025.64,695.75,2993,695.63s-141.71-6.74-141.9-51.69S2960.15,593.31,2992.59,593.33Z"/><path class="cls-10" d="M2993.5,386.55c73.69.33,111.65,68.22,111.2,135s-37.69,136-111.49,135.88-113.2-68.89-113.4-135.83S2919.8,386.21,2993.5,386.55Z"/><path class="cls-10" d="M2997.08,104.24c64.63.9,121.51,49.34,118,115.07s-56.23,117-124.48,115.37S2877,285.35,2880,216.79,2932.46,103.33,2997.08,104.24Z"/><path class="cls-10" d="M3065.32,199.33c41.82-1.25,79.37,26.14,76.57,71.17s-46.79,71.07-88.12,71.49-88-26-82.33-71.25S3023.5,200.58,3065.32,199.33Z"/><path class="cls-10" d="M2943.19,197.4c44.4.3,84.35,21.77,77.37,71s-41.65,70.81-87.34,72-84.07-23.85-81.59-72.61S2898.79,197.1,2943.19,197.4Z"/><path class="cls-10" d="M2951,168c41.34,0,59.37,33.23,50.58,68.75s-22.87,70.71-62.18,71.75-51.13-37.28-47.89-71.8S2909.67,168.07,2951,168Z"/><path class="cls-10" d="M3060.46,170.62c33.77-1.68,48.77,39.51,45.36,70.36s-20.82,69.61-58.71,70.22-53.16-38.68-44.89-68.6S3026.69,172.3,3060.46,170.62Z"/><path class="cls-10" d="M2993.9,296c16.26.17,25.76,13.45,25.68,29s-9.19,28.44-25.42,28.34-25.33-13.63-25.27-28.95S2977.64,295.88,2993.9,296Z"/><path class="cls-10" d="M3078.4,240.71c24-.67,47.61,11.17,46,37.87s-28.1,38.08-51.68,38.61-50.95-10.59-48.18-37.68S3054.43,241.37,3078.4,240.71Z"/><path class="cls-10" d="M2919.59,239.07c24-.2,48.3,10.51,45.61,38.15s-25.56,38-50.34,38.64-48.48-11.57-47.17-38.63S2895.57,239.27,2919.59,239.07Z"/><path class="cls-9" d="M2876.15,387.53c23.18,2.62,67.29-.46,63.15,34.35s-58.87,19.18-80.45,15.26-74.65-19.73-60.11-49S2853,384.91,2876.15,387.53Z"/><path class="cls-9" d="M2856.3,295.06c26.2,11.09,2.72,33.83-7.74,51.23s-12.4,46.81-40.8,38.71-14.8-30.71-4.27-48.66S2830.1,284,2856.3,295.06Z"/><path class="cls-9" d="M2880.25,268c11.52-.4,20.18,9.69,13.5,21.2s-14.47,16.85-27.34,15.33-15.88-12.09-8.12-20.06S2868.73,268.41,2880.25,268Z"/><path class="cls-9" d="M2892.08,251.75c3.82,4.54-3.29,8.47-6,10.77s-8.5,10-11.84,5.59,3.58-9,6.78-11.59S2888.26,247.21,2892.08,251.75Z"/><path class="cls-9" d="M2899.4,257.21c3.39,4.44-3.91,7.67-6.5,10.2s-7.83,9.14-11.37,5,4.88-7.72,7.4-10.3S2896,252.77,2899.4,257.21Z"/><path class="cls-9" d="M2906.48,262.49c3.52,4.42-3.68,7.53-6.55,10s-7.66,8.48-10.93,4.35,3.86-7.62,6.53-10S2903,258.08,2906.48,262.49Z"/><path class="cls-9" d="M2911.14,269.87c3.58,4.42-4.28,7.33-7,9.51s-8.18,9.51-11.23,4.64,4.28-7.3,7.28-9.87S2907.56,265.44,2911.14,269.87Z"/><path class="cls-9" d="M2916.75,336.12c-.14,4.56-6.12,3.53-9.39,3.29s-10.14.38-10-4.29,6.78-3.55,10.07-3.35S2916.9,331.56,2916.75,336.12Z"/><path class="cls-9" d="M2880.3,49c-11.52-2.18-18.61.12-18.88,10-.24,8.73,10.24,12.84,10.88,21.17,0,.64,1.55,1.93,1.51,2.14-4,23.26,17,58.36,30.66,70,11.12,9.47,9.93,7.48,16.49,7.44,15.47-.08,15.13-9.22,23.38-18.22,6.71-7.32,13.77-14.64,19.81-22.58C2989.18,86,2901.68,53,2880.3,49Z"/><path class="cls-9" d="M3082.74,35.91c-24.8,8.25-106.95,77.08-52.55,95.48A280,280,0,0,0,3059,140c13.41,3.28,17.37,9.71,30.86,2.64,5.74-3,4.64-1.52,7.09-14.15,3-15.5,4-46.23-.44-65,0-.17.8-1.38.68-2-1.56-7.68,10-11.41,6.29-19.83C3099.24,32.16,3096.12,31.46,3082.74,35.91Z"/><path class="cls-9" d="M3237.49,76.87c-3.45,6.81-6.26,16.57-6.67,22.79-1,15.37-2.4,27.17-6.77,41-79.43,11-114,74.6-137.58,144.22a43.18,43.18,0,0,0-1.5,11.7c-16.22,34.42-109.43,354.61-89.59,381,33.68,44.75,29.12,10,65.62,10.42,33.06.41,53.08-7.55,83.44-15.22a36.5,36.5,0,0,1,9.91-5.51c11.07-11.93,22.67-11.17,32.35-23.94C3225.92,591.6,3244,551.12,3271,487c42.15-100.11,116.93-351.58-22.68-418.58-7.06-7.47-8.58,4-10.87,8.49"/><path class="cls-9" d="M4261.44,685.42c-17,9.82-62.2,34.52-76.12,11.28S4201,668.88,4216.9,667s29-2.12,44.25-3.44C4261.14,670.88,4262.42,677.92,4261.44,685.42Z"/><path class="cls-9" d="M4312.13,334.79c15-13.24,37.22-30.49,54.31-11.12s-3.17,39.1-18.3,52.17-38,30.82-54.88,11.58S4297.14,348,4312.13,334.79Z"/><path class="cls-9" d="M4215.62,345.24c2.09-4.77,11.3,1.52,14.45,2.94s14,4.13,11.92,8.89-11.34-1.56-14.5-3S4213.52,350,4215.62,345.24Z"/><path class="cls-9" d="M4246.24,358.34c6.86-21.9,30.8-15,47.75-9.82s40.94,13.09,34.19,35-31.06,15.39-48.1,10.16S4239.39,380.24,4246.24,358.34Z"/><path class="cls-9" d="M4230.19,350.51c1.86-11.5,10.5-19.8,22.44-17.76s17.65,12.67,15.91,24.24-10.65,19.55-22.57,17.57S4228.34,362,4230.19,350.51Z"/><path class="cls-9" d="M4235.24,316.89c4.26-3,8.8,7.48,10.71,10.35s9.89,11,5.63,14-8.92-7.42-10.85-10.3S4231,319.87,4235.24,316.89Z"/><path class="cls-9" d="M4226.87,319.11c4.27-3,8.78,7.49,10.68,10.36s9.89,11,5.6,14-8.89-7.43-10.82-10.33S4222.6,322.09,4226.87,319.11Z"/><path class="cls-9" d="M4220.51,324.42c4.29-3,8.81,7.49,10.73,10.36s9.87,11,5.59,14-8.89-7.44-10.82-10.33S4216.23,327.4,4220.51,324.42Z"/><path class="cls-9" d="M4220.32,356.79c2.28-3.61,7.65.39,10.22,2.07s8.44,4.94,6.16,8.55-7.65-.4-10.23-2.08S4218,360.4,4220.32,356.79Z"/><path class="cls-10" d="M4368.61,318.87c101.76,1.2,151.7,97.79,150.54,189s-49,190.54-151,190.83-153.61-100.09-153.51-190.31S4266.85,317.67,4368.61,318.87Z"/><path class="cls-9" d="M4264,612.45c-17.12-9.65-62.64-34-76.35-10.54s16.12,27.68,32,29.41,29.18,1.86,44.49,3C4264.05,627,4265.16,619.93,4264,612.45Z"/><path class="cls-10" d="M4262.51,387.06c19.86-27.37,53.47-49.54,85.57-27.3s22.82,61.34,3.11,88.74-54.1,49.37-85.88,27.16S4242.65,414.43,4262.51,387.06Z"/><path class="cls-10" d="M4433.64,355.15c32-21.61,66-.94,85.31,27.1s26.34,66.28-5.44,88.2-65.05.58-84.33-27.1S4401.64,376.75,4433.64,355.15Z"/><path class="cls-10" d="M4367.27,593c32.45,0,140.53,5.65,140.6,51s-107.55,51.45-140.23,51.33-141.71-6.74-141.89-51.69S4334.83,592.94,4367.27,593Z"/><path class="cls-10" d="M4368.18,386.18c73.7.33,111.65,68.22,111.2,135s-37.69,136-111.49,135.88-113.2-68.89-113.39-135.82S4294.48,385.85,4368.18,386.18Z"/><path class="cls-10" d="M4371.77,103.87c64.62.9,121.51,49.34,118,115.07s-56.24,117-124.49,115.38S4251.65,285,4254.65,216.42,4307.14,103,4371.77,103.87Z"/><path class="cls-10" d="M4440,199c41.82-1.25,79.36,26.14,76.56,71.17s-46.79,71.07-88.12,71.49-88-26-82.32-71.25S4398.19,200.21,4440,199Z"/><path class="cls-10" d="M4317.87,197c44.41.31,84.35,21.77,77.38,71s-41.66,70.81-87.34,72-84.08-23.84-81.6-72.61S4273.47,196.73,4317.87,197Z"/><path class="cls-10" d="M4325.69,167.67c41.34,0,59.37,33.24,50.59,68.75s-22.87,70.71-62.19,71.75-51.13-37.28-47.88-71.8S4284.36,167.7,4325.69,167.67Z"/><path class="cls-10" d="M4435.14,170.25c33.77-1.68,48.77,39.51,45.37,70.36s-20.82,69.61-58.72,70.22-53.16-38.68-44.88-68.6S4401.37,171.93,4435.14,170.25Z"/><path class="cls-10" d="M4368.58,295.68c16.26.16,25.76,13.44,25.68,28.95s-9.19,28.44-25.42,28.34-25.32-13.62-25.27-29S4352.33,295.51,4368.58,295.68Z"/><path class="cls-10" d="M4453.08,240.34c24-.67,47.61,11.18,46,37.88s-28.11,38.07-51.68,38.6-51-10.59-48.18-37.68S4429.11,241,4453.08,240.34Z"/><path class="cls-10" d="M4294.28,238.7c24-.2,48.29,10.51,45.6,38.16s-25.55,38-50.33,38.63-48.49-11.56-47.17-38.63S4270.25,238.9,4294.28,238.7Z"/><path class="cls-9" d="M4257.9,384.54C4281.17,383,4324,372,4326.19,407s-54.48,29.43-76.41,29.45-77-6-67.92-37.43S4234.63,386.13,4257.9,384.54Z"/><path class="cls-9" d="M4146,327c20.91-19.29,31.94,11.49,43.47,28.2s37.52,30.6,18.42,53.14-34.08.8-46.08-16.19S4125.06,346.33,4146,327Z"/><path class="cls-9" d="M4121.82,303.12c1.89-11.37,13.49-17.87,23.44-9s13.66,17.51,9.62,29.83-15,13.17-21.28,4S4119.93,314.49,4121.82,303.12Z"/><path class="cls-9" d="M4106.06,292.36c4.34-4,8.63,2.85,11.07,5.49s10.36,8,6.18,11.55-9.19-3.12-11.92-6.19S4101.72,296.4,4106.06,292.36Z"/><path class="cls-9" d="M4115,282.2c5-2.44,6.75,5.36,8.72,8.4s7.4,9.48,2.65,12.14-6.6-6.32-8.63-9.29S4110,284.64,4115,282.2Z"/><path class="cls-9" d="M4121.6,276.32c5-2.59,6.66,5.1,8.47,8.39s6.8,9.18,2.1,11.58-6.7-5.3-8.53-8.39S4116.58,278.9,4121.6,276.32Z"/><path class="cls-9" d="M4132.58,274.55c5.39-1.82,5.39,6.57,6.49,9.88s6.07,11,.44,12.14c-5.45,1.23-2.43-5.21-6.72-10.26C4131.43,282.6,4127.19,276.37,4132.58,274.55Z"/><path class="cls-9" d="M4157.53,287.83c3.21,3.23-1.65,6.87-4.07,9.08s-6.68,7.63-10,4.29,2.08-7.36,4.49-9.61S4154.31,284.59,4157.53,287.83Z"/><path class="cls-9" d="M4242.54,52.91c-13.32-1.48-17.92.71-17.86,11.34,0,9.43,15.15,12.26,19.33,19.41.32.55,2.76,2.1,2.77,2.32,1.34,24.75,2.66,54.28,16.5,72.12,11.29,14.56,8.72,9.92,16.21,11.42,17.69,3.52,15.69-5.71,26.17-14,8.53-6.77,15.2-11.74,22.6-20.23C4358.9,100.1,4267.25,55.65,4242.54,52.91Z"/><path class="cls-9" d="M4456.08,42.52c-5.56,19.66-117.4,79.15-56.92,105.51,14.64,6.39,17.24,6.15,28.8,9.05,14.21,3.57,17.52,9.52,31.71,2.1,6-3.16,4.75-1.52,8-15.79,4.05-17.52,9.31-54.14,1.91-76a22.42,22.42,0,0,0,.39-3.11c-2-9.28,6.88-15.06,1.8-24.28C4466.08,29.59,4459.08,31.91,4456.08,42.52Z"/><path class="cls-9" d="M4618.54,80.34a64.06,64.06,0,0,0-2.06,23.66c1.92,15.9,3.78,28.81,3.45,44.19-75.82,29.47-102.14,71.35-125.78,146.85-1,3.16-.61,8.18-1.52,10.46-14.86,46.45-133.3,346.18-121.23,369.66,20.51,39.87,27.72,16.14,63,17a370.2,370.2,0,0,0,91.3-8.56c3.5-1.56,7.35-4.09,11.24-4.57,12.79-12.11,25.82-9.46,37.51-22.65,47.36-53.42,76-98.25,107.81-167.15,49.59-107.52,110-367.83-54.55-418-7.31-6.57-7.7,4.29-9.2,9.09"/><path class="cls-9" d="M4947.09,685.57c-17,9.81-62.2,34.52-76.12,11.27s15.7-27.82,31.57-29.73,29-2.12,44.26-3.45C4946.79,671,4948.07,678.07,4947.09,685.57Z"/><path class="cls-9" d="M4997.78,334.94c15-13.24,37.21-30.5,54.31-11.13s-3.17,39.1-18.3,52.18-38,30.81-54.88,11.57S4982.79,348.17,4997.78,334.94Z"/><path class="cls-9" d="M4827.32,495c-2.76-4.43,7.63-8.48,10.59-10.28s11.31-9.23,14.06-4.81-7.68,8.48-10.63,10.29S4830.07,499.4,4827.32,495Z"/><path class="cls-9" d="M4855.42,477.09c-14.21-18,5-33.9,18.84-45s33.91-26.41,48.22-8.45-4.83,34.33-18.77,45.44S4869.63,495.11,4855.42,477.09Z"/><path class="cls-9" d="M4839.9,485.92c-8.45-8-10.43-19.84-2-28.55s20.43-7.42,29,.55,10.14,19.83,1.78,28.55S4848.34,493.94,4839.9,485.92Z"/><path class="cls-9" d="M4815,462.78c-.05-5.2,11.14-3,14.59-3s14.67-1.95,14.74,3.26-11.16,3.17-14.63,3.13S4815,468,4815,462.78Z"/><path class="cls-9" d="M4812.1,471c-.05-5.21,11.14-3,14.59-3s14.68-1.93,14.73,3.29-11.16,3.14-14.63,3.1S4812.15,476.15,4812.1,471Z"/><path class="cls-9" d="M4812.9,479.19c0-5.22,11.15-3.05,14.6-3s14.69-1.92,14.73,3.29-11.15,3.14-14.63,3.11S4812.94,484.4,4812.9,479.19Z"/><path class="cls-9" d="M4839.51,497.62c-1.7-3.93,4.64-6.09,7.48-7.27s8.84-4.19,10.53-.26-4.65,6.09-7.48,7.27S4841.2,501.54,4839.51,497.62Z"/><path class="cls-10" d="M5054.26,319C5156,320.21,5206,416.8,5204.8,508s-49,190.54-151,190.84-153.61-100.09-153.51-190.32S4952.5,317.81,5054.26,319Z"/><path class="cls-9" d="M4949.67,612.59c-17.11-9.64-62.63-34-76.34-10.54s16.12,27.69,32.05,29.41,29.18,1.87,44.49,3C4949.7,627.14,4950.8,620.08,4949.67,612.59Z"/><path class="cls-10" d="M4948.16,387.21c19.86-27.38,53.47-49.55,85.56-27.3s22.83,61.33,3.12,88.74S4982.74,498,4951,475.8,4928.3,414.58,4948.16,387.21Z"/><path class="cls-10" d="M5119.29,355.29c32-21.6,66-.94,85.31,27.1s26.34,66.29-5.44,88.2-65.05.59-84.33-27.1S5087.29,376.9,5119.29,355.29Z"/><path class="cls-10" d="M5052.92,593.1c32.45,0,140.53,5.65,140.6,51S5086,695.52,5053.29,695.41s-141.71-6.74-141.89-51.69S5020.48,593.09,5052.92,593.1Z"/><path class="cls-10" d="M5053.83,386.32c73.7.34,111.65,68.23,111.2,135s-37.69,136-111.49,135.88-113.2-68.89-113.39-135.83S4980.13,386,5053.83,386.32Z"/><path class="cls-10" d="M5057.42,104c64.62.9,121.51,49.34,118,115.07s-56.24,117-124.49,115.37-113.59-49.33-110.59-117.9S4992.79,103.11,5057.42,104Z"/><path class="cls-10" d="M5125.66,199.11c41.82-1.25,79.36,26.13,76.56,71.16s-46.79,71.08-88.12,71.5-88-26-82.33-71.26S5083.83,200.36,5125.66,199.11Z"/><path class="cls-10" d="M5003.52,197.18c44.41.3,84.35,21.77,77.37,71s-41.65,70.81-87.34,72-84.07-23.85-81.59-72.61S4959.12,196.88,5003.52,197.18Z"/><path class="cls-10" d="M5011.34,167.82c41.34,0,59.37,33.23,50.59,68.75s-22.87,70.71-62.19,71.75-51.13-37.28-47.89-71.8S4970,167.85,5011.34,167.82Z"/><path class="cls-10" d="M5120.79,170.4c33.77-1.68,48.77,39.51,45.37,70.36s-20.82,69.61-58.72,70.22-53.16-38.68-44.89-68.6S5087,172.08,5120.79,170.4Z"/><path class="cls-10" d="M5054.23,295.82c16.26.17,25.76,13.45,25.68,29s-9.19,28.44-25.42,28.34-25.33-13.63-25.27-28.95S5038,295.66,5054.23,295.82Z"/><path class="cls-10" d="M5138.73,240.48c24-.66,47.61,11.18,46,37.88S5156.61,316.43,5133,317s-50.95-10.6-48.19-37.69S5114.76,241.15,5138.73,240.48Z"/><path class="cls-10" d="M4979.93,238.85c24-.2,48.29,10.51,45.6,38.15s-25.56,38-50.33,38.63S4926.71,304.07,4928,277,4955.9,239.05,4979.93,238.85Z"/><path class="cls-9" d="M4949.24,373.75c22.22-7.09,61.23-27.92,71.68,5.55s-45.91,41.56-67.21,46.8-76.19,12.48-74.88-20.17S4927,380.83,4949.24,373.75Z"/><path class="cls-9" d="M4826.83,344.56c15.71-23.71,33.76,3.55,48.94,17s43.73,20.79,30.55,47.22-32.91,8.9-48.62-4.74S4811.12,368.28,4826.83,344.56Z"/><path class="cls-9" d="M4797.67,327.08c-.87-11.49,8.85-20.57,20.63-14.36s17.43,13.76,16.44,26.68-11.43,16.37-19.71,8.94S4798.55,338.58,4797.67,327.08Z"/><path class="cls-9" d="M4779.81,320.38c3.25-5,9.06.72,12.06,2.7s12,5.3,8.75,9.74-9.67-.84-13.05-3.17S4776.56,325.34,4779.81,320.38Z"/><path class="cls-9" d="M4786.09,308.38c4.3-3.56,7.83,3.6,10.47,6.08s9.44,7.45,5.46,11.16-7.91-4.57-10.58-7S4781.79,312,4786.09,308.38Z"/><path class="cls-9" d="M4791.08,301.1c4.27-3.71,7.68,3.37,10.23,6.13s8.79,7.31,4.79,10.75-7.77-3.55-10.28-6.11S4786.81,304.8,4791.08,301.1Z"/><path class="cls-9" d="M4801.32,296.77c4.81-3,6.8,5.09,8.66,8.05s8.51,9.21,3.32,11.69c-5,2.49-3.6-4.49-9-8.37C4802.12,304.86,4796.52,299.82,4801.32,296.77Z"/><path class="cls-9" d="M4828.71,303.72c3.9,2.38.05,7.06-1.78,9.79s-4.67,9-8.66,6.55.27-7.65,2.07-10.41S4824.82,301.34,4828.71,303.72Z"/><path class="cls-9" d="M4928.19,53.05c-13.32-1.47-17.92.72-17.86,11.35.05,9.43,15.15,12.25,19.33,19.41.32.55,2.76,2.09,2.77,2.31,1.34,24.75,2.66,54.28,16.5,72.12,11.29,14.57,8.72,9.93,16.21,11.42,17.68,3.52,15.69-5.71,26.17-14,8.53-6.76,15.2-11.73,22.6-20.23C5044.55,100.24,4952.9,55.8,4928.19,53.05Z"/><path class="cls-9" d="M5141.73,42.66c-5.56,19.67-117.4,79.15-56.92,105.52,14.64,6.38,17.24,6.15,28.8,9,14.2,3.56,17.52,9.52,31.71,2.09,6-3.15,4.75-1.51,8-15.78,4-17.52,9.31-54.14,1.91-76a22.69,22.69,0,0,0,.38-3.1c-1.95-9.28,6.89-15.06,1.81-24.29C5151.73,29.73,5144.73,32.05,5141.73,42.66Z"/><path class="cls-9" d="M5304.19,80.49a64,64,0,0,0-2.06,23.65c1.92,15.91,3.78,28.81,3.45,44.19-75.82,29.47-102.14,71.36-125.78,146.85-1,3.16-.61,8.18-1.53,10.46C5163.42,352.1,5045,651.83,5057.05,675.3c20.51,39.87,27.72,16.14,63,17a369.72,369.72,0,0,0,91.3-8.57c3.5-1.56,7.34-4.09,11.24-4.57,12.78-12.1,25.82-9.45,37.51-22.64,47.36-53.43,76-98.25,107.8-167.16,49.6-107.51,110-367.82-54.55-417.95-7.3-6.58-7.7,4.28-9.19,9.09"/></g></svg>
