<svg xmlns="http://www.w3.org/2000/svg" viewBox="0 0 376.73 613.68"><defs><style>.cls-1{fill:#f15a24;}.cls-2{fill:#c1441e;}.cls-3{fill:#ed4a24;}</style></defs><title>Asset 14</title><g id="Layer_2" data-name="Layer 2"><g id="Layer_2-2" data-name="Layer 2"><path class="cls-1" d="M277.06,86c6.37,0,12.22-3.06,16.79-8.15a112.69,112.69,0,0,0-40.58-32.68c-.78-.37-1.57-.72-2.35-1.08a49.76,49.76,0,0,0-.36,5.91C250.56,69.88,262.42,86,277.06,86Z"/><path class="cls-2" d="M105.56,127c-8,3-19.64,22.24-26,23-16,13,28,57,28,57S113.56,124,105.56,127Z"/><path class="cls-2" d="M293.85,77.85c5.93-6.6,9.71-16.62,9.71-27.85,0-19.88-11.86-36-26.5-36C263.91,14,253,27,250.92,44.09c.78.36,1.57.71,2.35,1.08A112.69,112.69,0,0,1,293.85,77.85Z"/><path class="cls-1" d="M293.85,77.85C289.28,82.94,283.43,86,277.06,86c-14.64,0-26.5-16.12-26.5-36a49.76,49.76,0,0,1,.36-5.91c-5.87-2.67-11.61-5.3-14.18-11.7-11.54,4-19,3.11-25.59-9.81-8.75,12.92-16.23,13.78-28.71,6.48-2,10.58-8.95,13-16.69,15.39-5.54,3.83-11.85,7.64-17.75,12.06-19.24,14.4-34.19,35.31-42.26,59.88a134.72,134.72,0,0,0-6.68,42.11c0,67.93,49.7,123,111,123s111-55.07,111-123C321.06,127.64,310.79,99.45,293.85,77.85Z"/><ellipse class="cls-2" cx="153.06" cy="36" rx="26.5" ry="36"/><path class="cls-3" d="M299.57,246.11c-8.92.77-7.73,3.67-.76,9.19-3.44,2-1.11,6.61,1.6,11.9,16.21,31.74,45.65,87.8,44.15,129.8-2,56,66,137,10,187s-342,25-339,10-46-175,16-259,94.32-91.61,96.66-106.3c.29-1.84,3-3,7.63-3.52s11-.56,14.85-.83c5.73.56,10.82,1,10.47,0,3.79-.07,2.14-1.64-5.6-5.18,5.74,1.55,10.79,2.87,10.38,2.34,9.67,2.8,13.87,3.73,7.86.45,14,4.81,17.87,5.4,13.54-.49,11.14,6.67,14.09,6.92,17.8.14,1.93,7,4.61,6.93,15.72.85-4.16,6.16.1,6.3,12.88,1.51-8,2.07-7.4-.78-3.12-12.24-4.11,12.37-3.15,16,5.66,15.68-11.23,3.69-14.61,3.43-9.49-1.63-3.34,6.22,1.83,7.65,12.12,7.4-7.65.14-10.18-1.4-7.19-8.49,1.71,7.87,8.94,10.19,14.33,9.77-.23-.48-2.29-3.7-3.77-11.78,2.07,6.3,6.88,9.7,11.46,12,9.17,4.56,17.44,4.63,36.82,3.89-17.82,3.12-11.57,4.28,7.56,6.58C287.74,244.52,290.23,245,299.57,246.11Z"/></g></g></svg>
