<svg xmlns="http://www.w3.org/2000/svg" viewBox="0 0 603.66 675.41"><defs><style>.cls-1{fill:#dd3217;}.cls-2{fill:#f15a24;}.cls-3{fill:#c1441e;}.cls-4{fill:#ed4a24;}</style></defs><title>Asset 18</title><g id="Layer_2" data-name="Layer 2"><g id="Layer_2-2" data-name="Layer 2"><path class="cls-1" d="M111.06,387.25c-3.33-3.78-68-42.93-58.86-59.21s67.23,26.59,67.23,26.59Z"/><path class="cls-2" d="M322.29,147.73c6.38,0,12.22-3.06,16.79-8.15A112.42,112.42,0,0,0,298.5,106.9q-1.17-.56-2.34-1.08a47.72,47.72,0,0,0-.37,5.91C295.79,131.61,307.66,147.73,322.29,147.73Z"/><path class="cls-3" d="M150.79,188.73c-8,3-19.64,22.24-26,23-16,13,28,57,28,57S158.79,185.73,150.79,188.73Z"/><path class="cls-3" d="M339.08,139.58c5.93-6.6,9.71-16.62,9.71-27.85,0-19.88-11.86-36-26.5-36-13.15,0-24.06,13-26.13,30.09q1.17.53,2.34,1.08A112.42,112.42,0,0,1,339.08,139.58Z"/><path class="cls-2" d="M339.08,139.58c-4.57,5.09-10.41,8.15-16.79,8.15-14.63,0-26.5-16.12-26.5-36a47.72,47.72,0,0,1,.37-5.91c-5.88-2.67-11.61-5.3-14.18-11.7-11.54,4-19,3.11-25.59-9.81-8.76,12.92-16.24,13.78-28.71,6.48-2,10.58-9,13-16.7,15.39-5.53,3.83-11.84,7.64-17.75,12.06C174,132.64,159.05,153.55,151,178.12a134.72,134.72,0,0,0-6.68,42.11c0,67.93,49.7,123,111,123s111-55.07,111-123C366.29,189.37,356,161.18,339.08,139.58Z"/><ellipse class="cls-3" cx="198.29" cy="97.73" rx="26.5" ry="36"/><path class="cls-4" d="M344.8,307.84c-8.92.76-7.73,3.67-.76,9.19-3.44,2-1.1,6.61,1.6,11.9,16.22,31.74,45.65,87.8,44.15,129.8-2,56,66,137,10,187s-342,25-339,10-46-175,16-259,94.33-91.61,96.66-106.3c.3-1.84,3.05-3,7.64-3.52s11-.56,14.84-.83c5.74.56,10.82,1,10.47,0,3.79-.07,2.14-1.64-5.6-5.18,5.74,1.54,10.8,2.87,10.38,2.33,9.68,2.81,13.87,3.74,7.86.46,14,4.81,17.87,5.4,13.54-.49,11.14,6.67,14.1,6.92,17.8.14,1.93,7,4.62,6.93,15.72.85-4.16,6.16.11,6.29,12.88,1.51-8,2.07-7.39-.78-3.12-12.24-4.11,12.37-3.14,16,5.66,15.68-11.22,3.69-14.61,3.43-9.49-1.63-3.33,6.22,1.83,7.65,12.12,7.39-7.65.15-10.17-1.39-7.19-8.48,1.72,7.87,8.94,10.19,14.33,9.77-.23-.48-2.29-3.7-3.77-11.78,2.07,6.3,6.88,9.7,11.46,12,9.17,4.56,17.44,4.63,36.82,3.89-17.82,3.12-11.57,4.28,7.56,6.58C333,306.25,335.47,306.73,344.8,307.84Z"/><path class="cls-1" d="M254.79,595.73c15-13,115-203,118-211s-72-229,37-296,92-77,92-88,145,104,89,236-190,349-319,371C255.79,610.73,254.79,595.73,254.79,595.73Z"/><path class="cls-1" d="M71.54,416.47c-3.75-4.74-87.75-60.74-68.75-75.74s92,43.4,92,43.4Z"/></g></g></svg>
