<svg xmlns="http://www.w3.org/2000/svg" xmlns:xlink="http://www.w3.org/1999/xlink" width="1600" height="900" viewBox="0 0 1600 900"><defs><style>.a{fill:#3f3f3f;}.a,.b,.c,.h,.i{stroke:#000;}.a,.b,.c,.e,.h,.i{stroke-miterlimit:1;}.b,.d{fill:#7f7f7f;}.b{stroke-width:3px;}.c,.e,.i{fill:none;}.c{stroke-width:13px;}.e{stroke:#600;stroke-width:10px;}.f{fill:#00184c;}.g{fill:url(#a);}.h{fill:gray;stroke-width:2px;}</style><linearGradient id="a" x1="1154.93" y1="488.92" x2="1175.39" y2="488.92" gradientTransform="translate(1791.54 -660.34) rotate(90)" gradientUnits="userSpaceOnUse"><stop offset="0" stop-color="#332b2b"/><stop offset="0.2" stop-color="#392424"/><stop offset="0.5" stop-color="#4a1010"/><stop offset="0.57" stop-color="#4f0b0b"/><stop offset="0.87" stop-color="maroon"/><stop offset="0.99" stop-color="#970000"/></linearGradient></defs><title>forgrund</title><path class="a" d="M1258.33,562.33c-22.12,111.59-57.58,249.27-98,396.67l38,8.67c23-111.66,56.8-250.93,94.67-400.67Z"/><path class="b" d="M1200,605c53.93,7.27,104,14.57,136,22-3.52,24-8.64,46.52-16,67-22.56,2.57-89.9-10.13-146-19C1181.3,649.39,1189.51,625.3,1200,605Z"/><path class="c" d="M1279.79,599.16c-8.87,6.51-18.3,3.11-21-7.56l-42.3-169.19c-2.67-10.67,3.74-16.73,14.24-13.45l197.14,61.43c10.5,3.27,11.84,11.28,3,17.79Z"/><path class="d" d="M1279.79,599.16c-8.87,6.51-18.3,3.11-21-7.56l-42.3-169.19c-2.67-10.67,3.74-16.73,14.24-13.45l197.14,61.43c10.5,3.27,11.84,11.28,3,17.79Z"/><path class="e" d="M1279.79,599.16c-8.87,6.51-18.3,3.11-21-7.56l-42.3-169.19c-2.67-10.67,3.74-16.73,14.24-13.45l197.14,61.43c10.5,3.27,11.84,11.28,3,17.79Z"/><polygon class="f" points="1273.08 585 1234.08 429 1410.58 484 1273.08 585"/><circle cx="1303.67" cy="506.33" r="28.67"/><circle class="g" cx="1302.63" cy="510.37" r="21.63" transform="translate(-15.31 979.79) rotate(-41)"/><path d="M1293.55,666.28l-76.55-11,3.49-24.29,5,.73,1.53-10.67,9.58,1.38L1235,633.07l12,1.73c.8-5.93,2.57-10.46,8-9.75,4.42,1.36,5,5.68,3.82,11.44l12.51,1.8,1.17-10.73,26.13,3.76-.69,4.78-13.2-1.94-1.35,11.36,12.79,2.12Z"/><path d="M1290.36,668.22l-19.6-2.82C1268.7,679.75,1288.08,684.09,1290.36,668.22Z"/><path d="M1265.38,664.62l-19.6-2.82C1243.72,676.16,1263.1,680.5,1265.38,664.62Z"/><path d="M1240.4,661l-19.6-2.82C1218.74,672.57,1238.12,676.9,1240.4,661Z"/><path class="h" d="M534.75,625.75l47.5.75s3.5-76.25,1-91.25c-1.05-6.32-7.25-18.25-20.5-18.5s-23.5,13-25,21S534.75,625.75,534.75,625.75Z"/><circle class="i" cx="561.5" cy="533.5" r="6.25"/></svg>
