<svg xmlns="http://www.w3.org/2000/svg" viewBox="0 0 189 26.21"><defs><style>.cls-1{fill:#f84644;}.cls-2{fill:#464c50;}</style></defs><title>iconer_1</title><g id="Layer_2" data-name="Layer 2"><g id="Layer_1-2" data-name="Layer 1"><rect class="cls-1" x="4" y="7.21" width="22" height="2"/><path class="cls-2" d="M28,2.21v22H2v-22H28m2-2H0v26H30V.21Z"/><rect class="cls-2" x="59" y="2.26" width="3" height="4.19"/><rect class="cls-2" x="74" y="0.21" width="3" height="6.24"/><rect class="cls-2" x="59" y="0.21" width="18" height="2.57"/><path class="cls-2" d="M83.17,6.54v18H52.83v-18H83.17M85.5,4.83h-35V26.21h35V4.83Z"/><rect class="cls-2" x="50.5" y="14.96" width="35" height="2"/><rect class="cls-1" x="66.46" y="13.21" width="3.08" height="5.5"/><rect class="cls-1" x="171.9" y="19.66" width="4.2" height="6.44"/><rect class="cls-1" x="165.78" y="10.4" width="5.33" height="5.41"/><rect class="cls-1" x="176.89" y="10.4" width="5.33" height="5.41"/><path class="cls-2" d="M174,0,159,5.73V26.21h30V5.73Zm13,24.63H161V7.51h26Z"/><path class="cls-2" d="M112.5.21h-2v26h21V.21Zm17,24.32h-17V1.89h17Z"/><rect class="cls-1" x="113.81" y="4.94" width="14.38" height="2.16" rx="1.08" ry="1.08"/><rect class="cls-1" x="114.81" y="9.62" width="5.38" height="12.69"/><rect class="cls-1" x="121.81" y="9.62" width="5.38" height="12.69"/></g></g></svg>
